<?xml version="1.0" encoding="UTF-8" standalone="no"?>
<!-- Created with Inkscape (http://www.inkscape.org/) -->

<svg
   xmlns:osb="http://www.openswatchbook.org/uri/2009/osb"
   xmlns:dc="http://purl.org/dc/elements/1.1/"
   xmlns:cc="http://creativecommons.org/ns#"
   xmlns:rdf="http://www.w3.org/1999/02/22-rdf-syntax-ns#"
   xmlns:svg="http://www.w3.org/2000/svg"
   xmlns="http://www.w3.org/2000/svg"
   xmlns:xlink="http://www.w3.org/1999/xlink"
   xmlns:sodipodi="http://sodipodi.sourceforge.net/DTD/sodipodi-0.dtd"
   xmlns:inkscape="http://www.inkscape.org/namespaces/inkscape"
   id="svg2"
   version="1.1"
   inkscape:version="0.48.4 r9939"
   width="2481"
   height="663"
   sodipodi:docname="Pepper-and-Carrot_by-David-Revoy_E06P00.svg">
  <metadata
     id="metadata8">
    <rdf:RDF>
      <cc:Work
         rdf:about="">
        <dc:format>image/svg+xml</dc:format>
        <dc:type
           rdf:resource="http://purl.org/dc/dcmitype/StillImage" />
        <dc:title />
      </cc:Work>
    </rdf:RDF>
  </metadata>
  <defs
     id="defs6">
    <linearGradient
       id="linearGradient6016"
       osb:paint="gradient">
      <stop
         style="stop-color:#301b0b;stop-opacity:1;"
         offset="0"
         id="stop6018" />
      <stop
         style="stop-color:#301b0b;stop-opacity:0;"
         offset="1"
         id="stop6020" />
    </linearGradient>
    <linearGradient
       id="linearGradient5618"
       osb:paint="solid">
      <stop
         style="stop-color:#301b0b;stop-opacity:1;"
         offset="0"
         id="stop5620" />
    </linearGradient>
    <pattern
       y="0"
       x="0"
       height="6"
       width="6"
       patternUnits="userSpaceOnUse"
       id="EMFhbasepattern" />
  </defs>
  <sodipodi:namedview
     pagecolor="#ffffff"
     bordercolor="#666666"
     borderopacity="1"
     objecttolerance="10"
     gridtolerance="10"
     guidetolerance="10"
     inkscape:pageopacity="0"
     inkscape:pageshadow="2"
     inkscape:window-width="1680"
     inkscape:window-height="1033"
     id="namedview4"
     showgrid="false"
     inkscape:zoom="0.38021875"
     inkscape:cx="1382.5224"
     inkscape:cy="343.14312"
     inkscape:window-x="1920"
     inkscape:window-y="0"
     inkscape:window-maximized="1"
     inkscape:current-layer="layer1"
     inkscape:snap-nodes="false" />
  <g
     inkscape:groupmode="layer"
     id="layer2"
     inkscape:label="artwork"
     sodipodi:insensitive="true">
    <image
       sodipodi:absref="/home/deevad/Production/Webcomics/2015-03-28_ep06_The-Potion-Contest/lang/ar/../gfx_Pepper-and-Carrot_by-David-Revoy_E06P00.png"
       xlink:href="../gfx_Pepper-and-Carrot_by-David-Revoy_E06P00.png"
       y="0"
       x="0"
       id="image10"
       height="663"
       width="2481" />
  </g>
  <g
     inkscape:groupmode="layer"
     id="layer1"
     inkscape:label="txt"
     style="display:inline">
    <flowRoot
       xml:space="preserve"
       id="flowRoot2987"
       style="font-size:12px;font-style:normal;font-variant:normal;font-weight:normal;font-stretch:normal;line-height:125%;letter-spacing:0px;word-spacing:0px;fill:#301b0b;fill-opacity:1;stroke:none;font-family:Arial;-inkscape-font-specification:Arial"
       transform="translate(-748.4491,-113.8471)"><flowRegion
         id="flowRegion2989"><rect
           id="rect2991"
           width="2415.6453"
           height="122.32491"
           x="739.22333"
           y="644.36664"
           style="fill:#301b0b;fill-opacity:1" /></flowRegion><flowPara
         id="flowPara2993"
         style="font-size:100px;font-style:normal;font-variant:normal;font-weight:normal;font-stretch:normal;text-align:center;text-anchor:middle;fill:#301b0b;fill-opacity:1;font-family:AlHor;-inkscape-font-specification:AlHor">حلقة ٦ : مسابقةُ الجُرُعات</flowPara></flowRoot>    <path
       inkscape:connector-curvature="0"
       id="path4166"
       d="m 727.37788,519.65464 c 0,-3.14812 -3.36136,-5.49246 -7.39474,-5.15757 -3.49539,0.26804 -3.69705,0.13386 -4.83974,-3.21512 -2.01668,-5.62645 -0.47067,-9.17648 7.3271,-17.14732 5.8484,-5.96136 15.52851,-19.08977 17.07454,-23.10868 0.33633,-0.80378 1.61335,-1.33962 3.15969,-1.33962 4.90706,0 7.52877,-4.95662 5.17606,-10.04725 -0.73935,-1.67455 -0.0667,-4.21985 4.16771,-15.00387 2.75637,-7.10008 7.05843,-19.75961 9.54578,-28.13146 4.77274,-16.20955 5.78107,-18.75484 8.53744,-21.23317 1.61335,-1.40661 1.88203,-1.40661 2.89037,-0.20095 1.61336,1.94246 6.58806,1.74152 8.4701,-0.3349 0.874,-1.00472 2.15135,-1.5406 2.8907,-1.27266 2.28568,0.93773 5.51239,7.70291 8.87343,19.02278 3.96606,13.39548 5.64674,16.81154 10.75579,22.304 5.44411,5.76045 10.88917,7.63595 19.96429,6.76519 3.76438,-0.33491 9.61278,-0.66983 13.04114,-0.80378 6.38609,-0.13386 8.67178,-1.47361 8.67178,-5.09063 0,-0.87078 1.34435,-2.34434 3.09237,-3.34906 10.01612,-5.89441 37.77911,-28.6003 49.20724,-40.12117 l 6.18441,-6.29625 -9.14244,-5.8944 c -8.94045,-5.76041 -9.0751,-5.96136 -7.73043,-7.90385 0.73934,-1.07168 1.41169,-2.88019 1.41169,-4.01889 0,-4.82268 -7.19307,-7.43497 -10.68848,-3.88492 -1.68067,1.67453 -1.88234,1.54057 -10.15077,-6.89912 -8.53743,-8.70763 -14.38582,-16.0086 -17.14186,-21.36716 l -1.54603,-2.8802 -3.63004,2.27737 c -6.45342,4.08588 -11.42812,5.76044 -16.9402,5.76044 -4.30238,0 -5.71406,-0.40189 -7.99974,-2.34439 -5.91542,-4.95662 -6.92377,-11.25291 -3.09205,-18.95579 2.6217,-5.29156 12.97383,-15.94163 22.31793,-23.0408 l 6.25174,-4.68871 0.67233,6.83212 c 0.73936,8.23786 3.49539,12.8596 9.61279,16.20867 l 3.89904,2.1434 -2.89069,-5.29153 c -2.28569,-4.15289 -3.09238,-6.9661 -3.69738,-13.19449 -0.47035,-4.42079 -0.67201,-8.17179 -0.47035,-8.37273 0.73935,-0.73679 8.87343,7.43497 12.77216,12.92659 3.29404,4.62173 3.83171,5.8274 3.02503,7.30098 -0.53767,0.93776 -0.94102,2.41133 -0.94102,3.21512 0,2.07644 4.10072,5.8274 6.45342,5.8274 1.47902,0 3.02503,1.54061 5.78107,5.5595 5.31072,7.83685 11.76413,14.80294 19.8309,21.43412 13.84783,11.38687 23.59528,15.07088 56.19773,21.09923 16.53686,3.01418 21.57859,4.75569 20.6372,7.10007 -1.47866,3.48303 -1.47866,4.75568 -0.13337,6.76513 0.80671,1.20568 2.28566,2.47834 3.294,2.81323 4.10071,1.27267 -0.94101,9.77931 -7.93237,13.26239 -3.02503,1.54055 -7.05841,2.41132 -14.31854,3.2151 l -10.15045,1.07172 -2.15134,-2.34438 c -3.76438,-4.0189 -11.15881,-2.00945 -11.15881,3.08118 0,0.93772 -0.538,1.7415 -1.21001,1.7415 -2.0167,0 -12.16653,4.42079 -16.13289,6.96612 -2.0837,1.33962 -10.08346,8.30571 -17.81389,15.47188 -13.24315,12.25764 -14.18416,12.92748 -17.14186,12.59254 -3.96637,-0.46885 -7.12575,2.34438 -6.72241,5.8944 0.26994,2.07644 -0.67234,3.14813 -6.45341,7.43496 -15.59585,11.7218 -29.84701,17.54921 -44.90487,18.35299 -11.9658,0.6698 -13.57915,0.26803 -14.72184,-3.48305 -0.47066,-1.67456 -1.88234,-3.48307 -3.3604,-4.21985 -2.21837,-1.27267 -2.68872,-1.20566 -5.17607,0.20094 -1.88235,1.07173 -3.22671,1.27267 -4.30238,0.73679 -1.94936,-1.07169 -9.47844,-9.10948 -13.51182,-14.46803 l -3.09205,-4.01891 -4.16804,10.3152 c -9.27677,22.90771 -21.71293,44.27487 -32.67038,56.26459 -6.78942,7.36797 -15.66286,11.45386 -15.66286,7.16702 z m 433.65282,-9.31042 c -3.63,-2.41135 -7.5291,-10.18124 -6.5881,-13.06144 0.3364,-1.00471 6.2518,-7.301 13.176,-14.06614 11.9647,-11.65481 14.0488,-14.20013 15.4604,-18.68789 l 0.6051,-1.94249 -4.3024,1.8755 c -7.5291,3.34909 -18.351,1.54057 -28.2328,-4.75568 -3.9663,-2.47834 -4.1679,-2.74627 -3.6973,-6.02835 0.6723,-4.88967 -2.151,-7.63592 -6.9241,-6.89912 -3.2937,0.53584 -3.5627,0.40189 -6.5877,-3.88495 -3.7645,-5.22458 -8.0668,-13.53032 -10.9574,-21.16623 -2.0168,-5.29064 -2.0168,-5.69252 -0.6721,-8.10387 1.882,-3.21513 1.0083,-7.10007 -1.815,-8.37272 -1.815,-0.80379 -2.2183,-1.80851 -2.689,-6.8991 -0.8067,-8.64064 -0.6724,-14.60202 0.4707,-23.51056 0.8067,-6.76517 1.2099,-7.90385 2.6886,-7.90385 4.5714,0 6.9241,-7.23401 3.4284,-10.71708 l -1.815,-1.8085 3.4956,-7.50193 c 7.0585,-14.93692 11.4952,-19.22376 19.9654,-19.22376 5.5123,0 10.2849,1.33965 18.9568,5.22457 l 6.1164,2.74627 -1.8141,-2.27738 c -2.0166,-2.61229 -8.1341,-6.69818 -12.2348,-8.23875 -2.2853,-0.87078 -2.0166,-0.93773 2.2858,-0.46889 10.8222,1.00473 24.0649,9.31047 33.2744,20.69735 6.3191,7.83684 13.7136,21.1662 16.6042,30.14174 l 2.42,7.23403 -1.9494,1.94248 c -1.0757,1.07169 -1.9496,2.94718 -1.9496,4.15286 0,2.41134 2.8234,5.8274 4.84,5.8274 1.8824,0 2.42,2.07644 3.3614,13.79821 0.941,12.32375 0.4703,22.57195 -1.6808,33.75791 -1.4789,7.56892 -1.6132,7.76986 -4.0332,7.76986 -3.0924,0 -6.0501,2.88022 -6.0501,5.8944 0,1.27263 1.0083,3.14813 2.3527,4.42079 l 2.2858,2.1434 -5.0419,10.51613 c -5.9156,12.25765 -14.7891,25.85492 -20.4358,31.34742 -3.6972,3.55003 -4.1678,3.75097 -6.3862,2.74624 -3.025,-1.33962 -6.4533,0 -7.8641,3.21512 -1.3447,2.88023 -3.899,2.88023 -8.0668,0.067 z m 18.7543,-82.6554 c 3.0251,0 6.7223,-4.01889 6.2518,-6.76516 -0.4707,-2.41046 0.1333,-2.5444 4.3694,-1.33874 2.5546,0.7359 2.8906,0.60284 3.2266,-1.27266 1.2775,-6.4972 -3.4954,-22.90773 -11.4278,-39.51917 -4.4367,-9.31047 -4.7727,-10.44914 -3.5627,-11.78877 1.7477,-2.00945 1.6804,-6.16233 -0.1333,-8.23875 -1.6133,-1.8085 -6.9915,-2.21039 -7.9998,-0.66982 -0.3361,0.60284 -1.6123,0 -3.4275,-1.74151 -7.865,-7.56895 -16.3351,-6.96612 -20.6375,1.47358 -3.4284,6.83211 -4.4367,13.66425 -4.5037,30.54363 0,16.87939 1.0083,21.90301 6.2518,30.94553 5.3103,9.17562 15.7301,17.88326 22.7202,19.08892 l 3.2267,0.53585 1.8151,-5.62646 c 1.4789,-4.75572 2.084,-5.62647 3.8316,-5.62647 z m -544.7709,57.80517 c 0,-3.08113 -1.94935,-5.15757 -5.37774,-5.89435 -2.62168,-0.53589 -3.15937,-1.07173 -3.76437,-4.0189 -0.87401,-4.1529 -0.87401,-4.0859 10.35213,-15.8077 6.78942,-7.10004 9.47845,-10.71705 12.36881,-16.54446 2.08403,-4.15288 4.30239,-7.50194 4.97472,-7.50194 1.88203,0 5.64642,-4.15289 5.64642,-6.22931 0,-1.07171 -0.94102,-2.88022 -2.15104,-4.0189 -2.08369,-2.07643 -2.15102,-2.67927 -2.55436,-18.95494 -0.336,-14.46804 -0.73935,-18.08504 -2.82336,-26.12284 -1.61335,-6.36326 -2.08403,-9.57837 -1.47903,-10.18121 2.42004,-2.41134 0,-9.51141 -3.29371,-9.51141 -1.27734,0 -6.52073,-19.15676 -6.52073,-23.64452 0.0667,-9.04252 3.09236,-14.13313 9.00778,-15.20485 l 3.2267,-0.60284 -0.40334,3.28211 c -0.47034,4.28684 1.68068,6.69819 6.05007,6.69819 l 3.29405,0 2.82336,7.83684 c 3.89871,10.5161 5.91541,18.48694 9.14212,35.76822 5.51239,29.53891 6.85673,52.71366 3.89904,66.37795 -1.4117,6.83213 -1.47902,6.89909 -3.96607,6.43024 -1.88234,-0.40189 -3.02502,0.067 -4.77303,1.80851 -2.89038,2.88019 -2.89038,5.35852 -0.0666,8.23875 l 2.21836,2.14339 -2.68903,4.48779 c -8.94076,15.13784 -18.88955,23.10867 -28.83835,23.17563 -3.89904,0 -4.30237,-0.20094 -4.30237,-2.00945 z m 282.33505,1.33966 c -6.31906,-3.08117 -9.20977,-8.57367 -9.3441,-17.5492 -0.0667,-5.96137 1.34435,-8.64065 6.25174,-11.98972 5.2434,-3.55004 5.78107,-3.48305 5.78107,1.20567 0,4.15285 1.88235,9.37743 3.89904,11.05198 0.80667,0.66979 1.07568,-1.00473 1.07568,-6.43024 l 0,-7.30101 2.55437,0.20094 c 5.7131,0.4019 10.55316,8.0378 10.55316,16.8124 0,10.18122 -3.42838,13.86519 -13.30919,14.33409 -3.36137,0.20094 -6.72242,0.067 -7.46177,-0.33491 z m 480.30475,-5.62646 c -5.6468,-1.33965 -13.3102,-5.09062 -13.3102,-6.56423 0,-2.14339 -3.2939,-4.95663 -5.7813,-4.95663 -1.6134,0 -3.2937,-1.40661 -6.3187,-5.35852 -11.6969,-15.13786 -18.0833,-37.3758 -20.2343,-70.53084 -1.21,-18.15201 -0.7394,-38.31351 0.941,-44.94468 0.9414,-3.55004 1.4791,-4.21986 3.2267,-4.21986 4.7731,0 7.3948,-6.22929 4.3697,-10.51613 -1.6133,-2.27735 -0.8067,-4.4208 2.8234,-7.30098 4.6384,-3.617 10.2851,-1.47361 15.5285,5.82741 3.8987,5.35852 4.4368,9.98025 2.0837,17.95107 -1.0083,3.34909 -2.2854,8.43968 -2.8905,11.3199 -0.6722,3.28211 -1.6132,5.35853 -2.5545,5.69347 -4.4367,1.54055 -6.1845,6.89908 -3.361,10.04724 1.0755,1.13868 1.2098,2.4783 0.6049,6.29625 -1.0084,6.09535 0.2699,20.63038 2.4874,29.07007 l 1.6134,6.29625 -2.0841,1.87461 c -4.4366,3.95192 -1.3443,11.58782 4.3024,10.78404 2.4199,-0.40188 2.8904,0 6.1171,5.49251 6.1847,10.44915 13.5117,15.87466 22.5869,16.67843 5.1081,0.46889 5.982,0.26804 8.7382,-1.8085 5.5797,-4.15285 9.6131,-11.98971 12.9741,-25.31908 1.6133,-6.09533 2.756,-8.90768 4.504,-10.51524 2.8234,-2.61228 2.9577,-6.02834 0.4035,-8.50665 -1.2101,-1.20566 -1.6809,-2.54531 -1.3448,-3.75099 1.143,-4.55474 -1.4117,-47.35604 -4.2351,-69.12508 l -2.8903,-22.43886 2.0836,-1.80849 c 2.5547,-2.2774 2.6891,-6.69819 0.2002,-9.10952 -0.9411,-1.00473 -2.3528,-1.80851 -2.9576,-1.80851 -0.8741,0 -1.8152,-3.48213 -3.2268,-11.78787 -1.0757,-6.49721 -3.5628,-19.49167 -5.5795,-28.8021 -4.8394,-22.97472 -4.9064,-24.1134 -2.4199,-29.07006 1.8149,-3.48303 2.5543,-4.08587 5.5793,-4.55475 3.4283,-0.53584 5.9157,-2.61228 5.9157,-4.95663 0,-0.73682 1.1428,-1.20567 3.1594,-1.20567 4.9744,0 7.0585,2.81323 9.3441,12.52554 3.2937,13.79825 8.8734,52.6476 11.2262,77.69783 2.8906,30.40971 7.596,64.23545 11.831,83.92807 3.6301,17.34823 11.63,41.39378 15.3269,46.4174 2.353,3.08117 4.5715,4.35381 5.4451,3.01418 0.4035,-0.73679 5.0417,-1.13868 14.9909,-1.33962 13.4444,-0.20094 14.3857,-0.33493 16.3351,-2.21039 1.0757,-1.13871 2.0168,-2.88022 2.0168,-3.88494 0,-1.74156 -3.0924,-5.55951 -5.1092,-6.3633 -1.1426,-0.40188 -11.4278,-19.15584 -13.9152,-25.31818 -7.5959,-18.88883 -10.1503,-31.21343 -9.411,-45.94941 0.6051,-12.65954 0.874,-13.46332 4.6384,-13.46332 5.4451,0 7.8651,-6.22929 3.9661,-10.31518 l -1.8821,-2.00945 4.9744,-4.88964 c 9.4784,-9.24347 23.7315,-11.25292 35.966,-4.95667 15.3269,7.7699 28.8342,29.27101 34.015,53.98725 3.0921,14.93689 2.5544,36.03611 -0.9412,36.03611 -2.0167,0 -4.8401,3.41607 -4.8401,5.82741 0,1.20566 0.8067,3.08028 1.8824,4.085 l 1.8105,1.80851 -2.4828,5.09062 c -1.3444,2.81323 -2.6263,5.35852 -2.7606,5.69343 -0.1968,0.33492 2.3572,1.87549 5.7184,3.48305 4.9745,2.34438 7.4571,2.94721 13.9823,3.28211 l 7.995,0.46888 4.7057,-4.95668 c 5.781,-6.09532 7.3944,-10.85102 8.7392,-26.12195 0.8783,-9.77931 0.6719,-12.72652 -1.8824,-35.16537 -2.4827,-21.90301 -2.6173,-24.64924 -1.4072,-25.9889 2.0795,-2.27735 1.6761,-6.69815 -0.6722,-8.64063 -1.954,-1.54057 -2.3574,-3.95192 -7.6634,-51.64195 -3.0922,-27.52947 -5.5841,-51.30798 -5.5841,-52.84855 0.073,-4.21984 3.0295,-10.31517 6.1219,-12.52558 1.676,-1.20566 4.7682,-2.27739 7.6633,-2.61228 4.9027,-0.53585 4.9744,-0.53585 6.7225,2.34435 1.0035,1.60756 2.4826,5.76044 3.3611,9.17651 1.4071,5.82741 1.4071,6.43024 0.063,8.70759 -2.0797,3.48306 -1.8825,5.15761 1.0756,7.90385 2.8949,2.67928 3.2981,4.75569 5.9153,31.88326 1.0759,10.71708 1.0759,14.06615 0.27,16.34355 -0.941,2.47741 -0.8692,3.28119 0.4752,5.62557 1.1381,2.00945 2.151,8.64063 3.8272,25.18509 2.5544,25.72095 6.2562,55.8627 7.7977,64.57033 1.0758,5.76041 1.0129,6.09534 -0.8691,8.0378 -1.1475,1.07172 -2.0167,2.81323 -2.0167,3.88494 0,2.07642 3.6926,6.22931 5.6467,6.22931 0.7349,0 1.8105,2.21039 2.8234,5.89436 2.0167,7.30013 8.9359,18.08419 13.9821,21.76817 3.4957,2.47833 4.3653,2.67927 11.3564,2.67927 6.1844,0 7.9324,0.3349 9.8144,1.80851 2.8234,2.2104 4.7775,2.27738 7.5291,0.13386 1.4791,-1.13868 4.3738,-1.80851 9.5458,-2.21039 16.6713,-1.20569 25.0784,-6.29626 32.8048,-19.62562 l 2.4918,-4.28596 -4.9748,2.81235 c -4.6428,2.61229 -5.3777,2.74623 -10.5583,2.1434 -19.1541,-2.2104 -35.2876,-15.06999 -43.6952,-34.82956 -7.26,-17.14733 -8.7387,-44.67679 -3.5582,-64.90524 0.7349,-2.88022 1.2729,-3.3491 3.424,-3.3491 4.7771,0 7.3318,-6.29626 4.0333,-9.91327 -2.0167,-2.27738 -1.0038,-4.55477 4.5085,-10.18032 7.7978,-7.97084 12.3688,-7.7029 28.9057,1.80759 l 8.802,5.02362 -4.9029,-5.02362 c -2.7605,-2.74535 -6.9286,-6.29537 -9.2769,-7.76898 -2.3571,-1.54056 -4.1051,-2.94718 -3.899,-3.08114 0.8696,-0.93775 10.3526,1.74152 15.0583,4.21986 7.1254,3.81795 12.1626,8.37181 18.4818,16.67751 6.7222,8.97557 14.1885,23.17567 12.8439,24.58228 -2.6262,2.61229 0,9.51142 3.5585,9.51142 1.6134,0 4.6428,8.43968 6.7938,18.75484 2.0168,9.5784 2.214,34.49557 0.4033,45.54756 -1.685,10.51521 -5.8527,24.04551 -9.6172,31.61447 -4.5712,9.04252 -6.319,11.25291 -8.8734,11.25291 -2.8233,0 -5.7814,2.9472 -5.7814,5.76041 0,1.54057 -1.1382,2.81324 -4.2306,4.82269 -11.4995,7.30101 -18.2844,8.43969 -48.6691,8.03779 -21.9865,-0.26802 -23.0622,-0.40188 -28.0994,-2.54529 -8.1386,-3.41606 -16.474,-11.92274 -20.9736,-21.36716 l -3.63,-7.56892 -1.0757,3.95191 c -2.6887,10.1812 -11.5622,21.09923 -20.5075,25.11812 -2.2855,1.00473 -6.8567,2.07645 -10.2177,2.34435 -5.6467,0.46889 -6.1846,0.33493 -8.2013,-1.87546 -2.4827,-2.67928 -5.4406,-3.01418 -8.3985,-0.93776 -1.3443,0.93776 -2.895,1.20567 -4.5084,0.80377 -2.0792,-0.46885 -16.8055,-8.23875 -24.8723,-13.06142 l -2.8234,-1.67452 -5.0373,3.68397 c -6.9913,4.95667 -15.5304,8.64064 -24.6727,10.65009 -9.9489,2.2104 -13.1087,2.2104 -15.327,-0.067 -1.0083,-0.93776 -2.8234,-1.74154 -4.0333,-1.74154 -2.5543,0 -5.8484,2.81322 -5.8484,4.95667 0,1.20566 -0.672,1.33961 -3.7644,0.80378 -12.3692,-1.9425 -22.0492,-12.12369 -25.007,-26.3238 l -1.0083,-4.88967 -1.6806,6.69817 c -0.9411,3.61701 -2.8905,8.84159 -4.3022,11.58782 -2.2857,4.3538 -2.958,4.95663 -5.9831,5.49251 -3.9659,0.60284 -5.7137,2.67924 -5.7137,6.63119 0,2.54529 -0.605,3.21511 -4.168,5.22457 -6.5878,3.68396 -12.4361,5.02362 -21.376,4.88964 -4.4367,-0.067 -9.5454,-0.40189 -11.3604,-0.87075 z m 146.6144,-84.32906 c -0.073,-9.91329 -0.4752,-13.59727 -1.8198,-17.8841 -1.3444,-4.0189 -1.6135,-5.8944 -0.941,-7.76986 1.2818,-3.41607 -0.4659,-6.83213 -3.8273,-7.50196 -2.0168,-0.40189 -3.6301,-2.00945 -6.7938,-6.69818 -4.7057,-7.10004 -8.3984,-9.51137 -12.2994,-8.0378 -3.5626,1.40662 -5.0417,5.15762 -5.6467,14.53504 -0.4703,6.83212 -0.27,9.64536 1.2773,15.47276 2.5544,9.71235 12.2319,28.86909 18.6224,36.90689 l 5.2436,6.56333 3.0923,-6.56333 3.155,-6.49721 -0.064,-12.52558 z m 165.3686,-1.87549 c 0.1969,-0.20094 0.27,-3.88491 0.1969,-8.10476 -0.1334,-4.28685 0.2699,-8.90858 0.8065,-10.24819 0.9411,-2.34439 6.9912,-6.09535 9.7518,-6.09535 2.4829,0 -2.6262,-17.54921 -8.945,-30.74458 -7.1258,-14.80295 -14.1169,-21.03224 -20.4987,-18.41995 -6.3189,2.61228 -9.8862,12.45858 -10.5583,29.47192 -0.6006,12.92747 0.3404,18.62089 4.2394,26.2568 1.4788,2.88022 2.6889,6.43024 2.6889,7.83686 0,3.01417 2.7518,6.09533 5.5123,6.09533 1.0757,0 2.6171,0.66984 3.4957,1.47361 3.3611,3.01418 11.2935,4.48776 13.3101,2.47831 z M 767.17369,353.67497 c -7.86509,-2.00947 -15.32684,-9.24348 -17.41054,-17.01333 -1.88236,-6.96614 0.336,-15.27183 4.90706,-18.28601 l 2.28569,-1.47361 3.42838,7.43498 c 3.2267,6.96608 8.26842,14.06614 10.01611,14.06614 0.40335,0 -0.20008,-2.1434 -1.34435,-4.68874 -2.48735,-5.7604 -5.37774,-15.74066 -4.70571,-16.41048 0.94132,-0.93774 8.26843,2.94718 11.29346,5.96134 4.36971,4.4208 7.26008,11.05199 7.26008,16.74544 0,9.91329 -6.78941,15.87466 -15.73018,13.66427 z m 742.47291,-66.57888 c 0.672,-5.89439 -5.9158,-8.97556 -9.949,-4.62174 -1.6135,1.74151 -2.2858,1.94245 -3.4284,1.13868 -5.2435,-3.81796 -5.8485,-15.07087 -1.2101,-22.57284 3.4957,-5.62645 7.1258,-7.6359 14.5875,-8.10475 5.0417,-0.33493 6.5205,-0.067 9.6128,1.67452 3.0939,1.8085 3.632,2.61228 4.0979,6.02835 0.4751,3.81795 2.4918,6.29628 5.109,6.29628 1.0754,0 1.21,1.00473 0.7438,5.35853 -0.941,8.84158 -4.7054,13.8652 -12.5051,16.41053 -6.5881,2.2104 -7.4617,2.00944 -7.0584,-1.60756 z m 164.6308,-16.61148 c -3.9707,-1.20567 -9.4111,-6.09531 -11.2934,-10.1812 -1.8193,-4.01889 -2.3575,-14.80293 -0.7442,-14.80293 1.7481,0 5.3153,-4.35384 5.3153,-6.56423 0,-3.08114 4.6339,-5.02363 11.8314,-5.02363 7.1884,0 11.7594,2.41135 15.7302,8.37273 l 2.9577,4.35381 -2.6261,1.60755 c -4.634,2.81324 -4.7057,7.7029 -0.1333,10.51614 l 2.5543,1.54056 -2.3483,3.48306 c -4.3025,6.22929 -13.113,9.04251 -21.2426,6.69814 z M 798.16371,253.20335 c 0,-8.0378 4.36939,-12.3916 23.39266,-23.57753 9.74712,-5.62645 13.44449,-7.36801 15.99887,-7.36801 3.29402,0 5.44505,-1.47357 6.52072,-4.55473 0.40335,-1.07173 19.76357,-13.06119 24.20029,-14.93665 2.21836,-0.93776 -0.40334,11.05169 -3.15938,14.46775 -2.62169,3.14817 -50.08124,30.14175 -51.22393,29.07007 -1.479,-1.40661 -6.4534,-0.87077 -7.9988,0.80378 -0.80667,0.93774 -1.47869,2.67925 -1.47869,3.88492 0,1.67455 -0.80668,2.61229 -3.09237,3.684 l -3.15937,1.54057 0,-3.01417 z m 661.53599,-25.65397 c -2.5544,-1.00472 -2.8234,-0.66984 4.4367,-4.88968 3.1597,-1.87546 8.8064,-5.49247 12.4365,-8.10475 5.3103,-3.751 7.1255,-4.55479 9.1421,-4.15289 3.0924,0.60283 7.3274,-3.14788 6.9241,-6.22902 -0.2001,-1.40661 1.0756,-3.21512 4.2351,-6.22928 l 4.4367,-4.21975 -4.3024,-3.68401 c -4.5038,-3.81796 -7.1928,-8.17169 -8.1338,-13.12832 -1.0757,-5.82731 3.4283,-20.16131 6.722,-21.23302 2.3532,-0.6698 4.6385,-4.42079 4.1009,-6.5642 -0.27,-1.13858 0.5376,-2.61219 2.3527,-4.3537 4.0332,-3.75099 6.1173,-4.62173 11.0918,-4.62173 8.6046,0 13.5762,5.89436 13.8452,16.4104 0.1334,5.35846 0,5.96129 -2.2138,7.70281 -2.6263,2.07644 -3.2284,5.89439 -1.4162,8.77458 0.8066,1.27257 0.6095,2.47824 -0.8066,5.69336 l -1.8124,4.08589 4.0979,2.94709 4.0335,2.88023 -0.5381,8.0378 c -0.3315,4.42069 -0.6001,9.17638 -0.6001,10.58299 0,2.34409 -0.2066,2.47808 -1.7481,1.6073 -1.2099,-0.60283 -1.8195,-1.8752 -1.8195,-3.54976 0,-4.88967 -4.7702,-7.63591 -9.0722,-5.29156 -1.3448,0.66983 -2.1514,0.66983 -3.0924,-0.067 -1.0084,-0.87074 -2.1511,-0.067 -5.9827,4.0859 -17.1419,18.88857 -26.0827,24.582 -38.1154,24.44804 -3.294,-0.067 -6.9914,-0.46888 -8.2015,-0.93773 z m 53.644,-60.75185 c -2.0168,-7.56882 -12.9069,-12.1236 -13.5118,-5.62646 -0.4704,5.15761 2.0166,8.64063 10.0163,14.13305 l 3.0921,2.1434 0.6724,-3.68397 c 0.3361,-2.00936 0.2699,-5.15752 -0.2699,-6.96602 z m 113.8776,39.31797 -2.2228,-0.93773 3.5675,-2.07644 c 9.8144,-5.69345 20.3012,-13.12832 29.1028,-20.63019 5.3152,-4.55474 10.0209,-8.77458 10.3524,-9.37742 0.4035,-0.60274 -0.9412,-2.41124 -3.4957,-4.62164 -7.26,-6.09534 -9.411,-12.65944 -7.26,-21.76886 2.4918,-10.85094 10.4242,-23.51044 16.6712,-26.72553 3.63,-1.87546 5.7814,-1.60753 8.4076,1.00473 1.9448,1.94245 2.8858,2.27735 5.3776,1.8085 2.8864,-0.53587 3.155,-0.40189 4.9748,3.08114 3.4953,6.7651 1.882,23.2424 -3.2268,33.08871 -1.1474,2.27729 -1.0756,2.47824 2.7517,5.22447 3.8987,2.74627 4.0333,2.94722 3.8987,7.50196 -0.064,2.5452 -0.3315,7.30092 -0.672,10.64999 l -0.538,6.02826 -8.3985,-5.35843 -8.3353,-5.42552 -3.4332,3.88492 c -3.0202,3.41607 -3.8268,3.81789 -6.5877,3.48305 -4.3649,-0.46887 -7.26,2.41125 -6.5877,6.63109 0.4751,2.67928 0.073,3.34911 -3.5583,6.56414 -6.7942,5.96136 -13.0415,8.50665 -21.3769,8.70759 -3.899,0.13386 -8.1385,-0.20094 -9.4114,-0.73679 z m 53.7785,-60.7519 c -2.1514,-7.97084 -12.9786,-12.05664 -13.7852,-5.15761 -0.1334,1.20567 -0.6723,3.01417 -1.2729,4.08589 -1.6133,2.94718 -1.2817,4.62173 1.2101,7.09997 1.8823,1.87547 2.8233,2.2104 5.5749,1.74151 2.5547,-0.40189 3.899,-0.0671 5.5841,1.20567 l 2.2857,1.74152 0.6002,-3.68397 c 0.4034,-2.00945 0.27,-5.22448 -0.1969,-7.03298 z"
       style="fill:#301b0b;fill-opacity:1;fill-rule:nonzero;stroke:none" />
  </g>
</svg>
