<?xml version="1.0" encoding="UTF-8" standalone="no"?>
<!-- Created with Inkscape (http://www.inkscape.org/) -->

<svg
   xmlns:dc="http://purl.org/dc/elements/1.1/"
   xmlns:cc="http://creativecommons.org/ns#"
   xmlns:rdf="http://www.w3.org/1999/02/22-rdf-syntax-ns#"
   xmlns:svg="http://www.w3.org/2000/svg"
   xmlns="http://www.w3.org/2000/svg"
   xmlns:xlink="http://www.w3.org/1999/xlink"
   xmlns:sodipodi="http://sodipodi.sourceforge.net/DTD/sodipodi-0.dtd"
   xmlns:inkscape="http://www.inkscape.org/namespaces/inkscape"
   id="svg2"
   version="1.1"
   inkscape:version="0.91 r13725"
   width="2481"
   height="3503"
   sodipodi:docname="Pepper-and-Carrot_by-David-Revoy_E06P08.svg">
  <metadata
     id="metadata8">
    <rdf:RDF>
      <cc:Work
         rdf:about="">
        <dc:format>image/svg+xml</dc:format>
        <dc:type
           rdf:resource="http://purl.org/dc/dcmitype/StillImage" />
        <dc:title />
      </cc:Work>
    </rdf:RDF>
  </metadata>
  <defs
     id="defs6">
    <filter
       color-interpolation-filters="sRGB"
       id="filter4375-4-1-1-15-1-3-3"
       inkscape:label="deevad outline effect">
      <feFlood
         id="feFlood4377-7-9-0-4-4-4-7"
         flood-opacity="1"
         flood-color="rgb(0,0,0)"
         result="flood" />
      <feComposite
         id="feComposite4379-3-8-8-6-0-7-4"
         in2="SourceGraphic"
         in="flood"
         operator="in"
         result="composite1" />
      <feMorphology
         id="feMorphology4393-1-0-49-8-2-7-3"
         operator="dilate"
         radius="0.69999999999999996"
         result="result3" />
      <feComposite
         id="feComposite4385-9-5-7-2-1-2-9"
         in2="result3"
         in="SourceGraphic"
         operator="over"
         result="composite2" />
    </filter>
    <filter
       color-interpolation-filters="sRGB"
       id="filter3639"
       inkscape:label="deevad outline effect">
      <feFlood
         id="feFlood3641"
         flood-opacity="1"
         flood-color="rgb(0,0,0)"
         result="flood" />
      <feComposite
         id="feComposite3643"
         in2="SourceGraphic"
         in="flood"
         operator="in"
         result="composite1" />
      <feMorphology
         id="feMorphology3645"
         operator="dilate"
         radius="0.69999999999999996"
         result="result3" />
      <feComposite
         id="feComposite3647"
         in2="result3"
         in="SourceGraphic"
         operator="over"
         result="composite2" />
    </filter>
    <filter
       color-interpolation-filters="sRGB"
       id="filter3649"
       inkscape:label="deevad outline effect">
      <feFlood
         id="feFlood3651"
         flood-opacity="1"
         flood-color="rgb(0,0,0)"
         result="flood" />
      <feComposite
         id="feComposite3653"
         in2="SourceGraphic"
         in="flood"
         operator="in"
         result="composite1" />
      <feMorphology
         id="feMorphology3655"
         operator="dilate"
         radius="0.69999999999999996"
         result="result3" />
      <feComposite
         id="feComposite3657"
         in2="result3"
         in="SourceGraphic"
         operator="over"
         result="composite2" />
    </filter>
  </defs>
  <sodipodi:namedview
     pagecolor="#ffffff"
     bordercolor="#666666"
     borderopacity="1"
     objecttolerance="10"
     gridtolerance="10"
     guidetolerance="10"
     inkscape:pageopacity="0"
     inkscape:pageshadow="2"
     inkscape:window-width="1920"
     inkscape:window-height="1026"
     id="namedview4"
     showgrid="false"
     inkscape:zoom="0.32526914"
     inkscape:cx="1007.8214"
     inkscape:cy="1452.3836"
     inkscape:window-x="0"
     inkscape:window-y="27"
     inkscape:window-maximized="1"
     inkscape:current-layer="layer1" />
  <g
     inkscape:groupmode="layer"
     id="layer2"
     inkscape:label="artwork"
     sodipodi:insensitive="true">
    <image
       sodipodi:absref="/home/deevad/peppercarrot/webcomics/ep06_The-Potion-Contest/lang/ar/../gfx_Pepper-and-Carrot_by-David-Revoy_E06P08.png"
       xlink:href="../gfx_Pepper-and-Carrot_by-David-Revoy_E06P08.png"
       width="2481"
       height="3503"
       id="image10"
       x="0"
       y="0" />
  </g>
  <g
     inkscape:groupmode="layer"
     id="layer3"
     inkscape:label="speechbubbles" />
  <g
     inkscape:groupmode="layer"
     id="layer1"
     inkscape:label="txt">
    <path
       style="color:#000000;fill:#ffffff;fill-opacity:1;fill-rule:nonzero;stroke:none;stroke-width:1px;marker:none;visibility:visible;display:inline;overflow:visible;enable-background:accumulate"
       d="m 524.44684,1977.3621 c -14.01377,-46.3951 -40.00882,-95.7772 -45.79925,-144.3988 l -11.44029,45.6542 c -62.91152,-129.7986 -216.9307,-210.2683 -37.93418,5.9274 l 4.61436,-21.5395 c 6.85365,14.1808 24.60331,28.6882 28.47492,44.653 l 15.40082,-17.4241 c 13.28656,38.1411 31.12227,58.0858 46.68362,87.1278 z"
       id="path4032-9"
       inkscape:connector-curvature="0"
       sodipodi:nodetypes="cccccccc" />
    <path
       style="color:#000000;fill:#ffffff;fill-opacity:1;fill-rule:nonzero;stroke:none;stroke-width:1px;marker:none;visibility:visible;display:inline;overflow:visible;enable-background:accumulate"
       d="m 734.33747,2852.147 c 34.68316,-42.7494 111.27433,-68.3456 171.06944,-6.0348 45.90017,-4.9397 81.26643,-4.2641 125.92729,48.6318 -41.84055,-33.4484 -69.35796,-47.6353 -136.48501,-35.9449 -35.82358,-28.4476 -90.54377,-19.0565 -121.82817,39.1849 -31.28451,58.2414 -17.69437,44.59 -17.69437,44.59 l -30.80741,-73.5852 z"
       id="path5074-3-6"
       inkscape:connector-curvature="0"
       sodipodi:nodetypes="ccccsccc" />
    <path
       style="color:#000000;display:inline;overflow:visible;visibility:visible;fill:#ffffff;fill-opacity:1;fill-rule:nonzero;stroke:none;stroke-width:1px;marker:none;enable-background:accumulate"
       d="m 851.02572,1719.5135 c 38.32906,18.6277 26.56293,53.657 -17.25459,29.5292 30.4647,35.9116 50.91128,52.0261 35.37649,66.5249 113.16101,-28.688 40.12509,17.6202 12.35589,45.6958 25.2138,-11.1892 65.39632,-42.7141 50.24712,0.9326 8.0165,-2.0071 17.4491,-7.7553 21.4169,0.9326 10.2141,-5.9994 17.8025,-7.54 22.2405,-3.7303 10.0387,-10.9178 16.5252,-13.7923 16.4745,-1.865 9.49077,-8.9943 12.41357,-5.8987 14.82697,-1.8652 16.2884,-19.3104 22.3718,-13.8628 28.8303,-9.3257 9.2223,-11.5941 20.0147,-8.9681 32.1252,5.5954 12.3911,-19.7186 25.706,-18.519 39.5387,-5.5954 4.0629,-4.8576 7.7526,-13.0937 13.1796,-5.5954 5.4916,-2.5937 10.9829,-9.2401 16.4744,-2.7977 57.96,-25.5257 83.2408,-3.9641 110.3791,14.921 15.1317,-8.3376 26.0358,-24.4528 51.8945,-13.0558 2.4173,-11.638 16.2824,-16.3634 40.3625,-14.9211 -24.6985,-14.0451 -25.9691,-22.0409 31.3015,-14.9211 -39.9179,-11.5016 -76.7041,-23.0032 -14.8271,-34.5049 -14.4922,-4.5662 -61.8613,6.1755 -9.8847,-48.4933 -36.9085,12.0657 -70.4145,15.2007 -80.7249,-33.5725 -19.9115,12.8266 -41.9579,19.1806 -59.3081,-10.2582 -15.8027,13.7936 -37.9137,10.4819 -49.4234,3.7302 -3.114,15.1069 -26.6303,38.2752 -58.4843,-3.7302 6.989,23.8751 1.6991,61.9029 -35.4201,-0.9326 -0.7362,10.9306 14.5493,70.3734 -88.96207,-0.9326 12.9121,47.8406 -21.4561,20.0035 -48.59972,3.7302 13.46032,29.9949 -6.7969,32.3145 -51.0709,14.9211 34.1543,28.4805 -0.96419,20.6172 -23.06429,19.584 z"
       id="path3549-2"
       inkscape:connector-curvature="0"
       sodipodi:nodetypes="ccccccccccccccccccccccccccccc" />
    <path
       style="color:#000000;display:inline;overflow:visible;visibility:visible;fill:#ffffff;fill-opacity:1;fill-rule:nonzero;stroke:none;stroke-width:1px;marker:none;enable-background:accumulate"
       d="m 542.58526,1706.0483 c 79.11396,26.496 159.7509,52.6873 25.09911,121.9293 130.32275,-18.3059 51.99792,20.0206 21.13186,45.4651 231.80215,-51.1459 84.70866,30.3499 29.72953,79.5985 51.21454,-19.7651 131.59421,-75.1515 104.16493,1.1388 60.43192,-36.8872 155.21737,-104.352 44.44673,1.4192 93.20635,-64.0521 95.27767,-56.8605 45.73081,-6.7236 61.00148,-43.9617 71.44119,-35.3359 64.49937,-6.8112 38.41505,-58.6654 46.89334,-31.387 58.87433,-16.5492 18.0534,-20.316 40.6462,-15.8396 67.04967,9.4496 23.8819,-34.5204 51.5705,4.5205 51.6999,38.493 19.7321,-50.2863 52.3719,-56.0675 82.8802,2.3054 0.596,-34.0913 0.1492,-107.0409 47.0682,2.0025 -12.2771,-98.3655 140.0424,-50.1935 213.4907,14.5449 -43.2309,-73.7284 -6.3981,-117.8365 83.2168,-80.7406 3.9535,-20.3265 32.2458,-28.7046 82.2553,-26.4223 -52.4313,-24.2626 -55.7868,-38.1989 63.4865,-26.3343 -83.7259,-19.6775 -160.9649,-39.3855 -33.8354,-60.0516 -30.4323,-7.8248 -127.5791,11.3742 -24.864,-84.5022 -75.3595,21.4075 -144.4791,27.2019 -170.2499,-57.7846 -40.0835,22.5696 -85.1747,33.8685 -123.7776,-17.3203 -31.4851,24.2168 -77.5848,18.6544 -102.0368,6.9875 -5.0829,26.3846 -51.6971,67.0309 -121.4805,-5.9401 16.6376,41.5832 9.1224,107.9758 -73.45257,-1.2826 -0.5354,19.0757 36.50637,122.6276 -184.35826,-0.7637 31.07599,83.3343 -42.63289,35.1052 -100.33053,6.9792 30.59615,52.1967 -11.1541,56.4401 -104.43622,26.5263 73.32403,49.354 -0.13126,35.9768 -46.00216,34.3889 z"
       id="path3549"
       inkscape:connector-curvature="0"
       sodipodi:nodetypes="ccccccccccccccccccccccccccccc" />
    <path
       style="color:#000000;fill:#ffffff;fill-opacity:1;fill-rule:nonzero;stroke:none;stroke-width:1px;marker:none;visibility:visible;display:inline;overflow:visible;enable-background:accumulate"
       d="m 449.5896,426.349 c 35.58346,-34.48897 229.12525,-31.54474 293.52019,-16.60243 64.39467,14.94213 88.35552,40.67597 91.3506,49.80737 2.99494,9.13132 -4.4926,51.46759 -37.43886,59.7689 -32.94607,8.30121 -127.29175,12.45182 -160.238,12.45182 -32.94607,0 -138.11741,-5.2837 -164.73088,-17.43262 C 446.59424,502.72032 414.00599,460.83788 449.5896,426.349 z"
       id="path3330"
       inkscape:connector-curvature="0"
       sodipodi:nodetypes="zsssssz" />
    <path
       style="color:#000000;fill:#ffffff;fill-opacity:1;fill-rule:nonzero;stroke:none;stroke-width:1px;marker:none;visibility:visible;display:inline;overflow:visible;enable-background:accumulate"
       d="m 414.31688,691.38453 c -11.42076,-60.08041 19.03456,-219.66888 253.16104,-206.52623 234.12629,13.14241 261.36657,82.72228 277.90602,110.77304 8.50465,18.62651 81.06346,144.63427 -102.94559,168.38164 -186.24527,24.03598 -371.01742,13.73698 -428.12147,-72.62845 z"
       id="path3525"
       inkscape:connector-curvature="0"
       sodipodi:nodetypes="cscsc" />
    <flowRoot
       xml:space="preserve"
       id="flowRoot2987-4-9-3"
       style="font-style:normal;font-variant:normal;font-weight:normal;font-stretch:normal;font-size:12px;line-height:125%;font-family:Lavi;-inkscape-font-specification:Lavi;text-align:center;letter-spacing:0px;word-spacing:0px;text-anchor:middle;fill:#000000;fill-opacity:1;stroke:none"
       transform="translate(263.21469,268.27206)"><flowRegion
         id="flowRegion2989-5-4-5"><rect
           id="rect2991-7-9-6"
           width="602.40173"
           height="310.73996"
           x="120.55251"
           y="265.53046"
           style="font-style:normal;font-variant:normal;font-weight:normal;font-stretch:normal;font-family:Lavi;-inkscape-font-specification:Lavi;text-align:center;text-anchor:middle" /></flowRegion><flowPara
         style="font-style:normal;font-variant:normal;font-weight:normal;font-stretch:normal;font-size:70px;line-height:89.99999762%;font-family:Midan;-inkscape-font-specification:Midan;text-align:center;text-anchor:middle"
         id="flowPara3080">... كالمعتاد،</flowPara><flowPara
         style="font-style:normal;font-variant:normal;font-weight:normal;font-stretch:normal;font-size:70px;line-height:89.99999762%;font-family:Midan;-inkscape-font-specification:Midan;text-align:center;text-anchor:middle"
         id="flowPara4656">الكلُ يذهبُ عندما</flowPara><flowPara
         style="font-style:normal;font-variant:normal;font-weight:normal;font-stretch:normal;font-size:70px;line-height:89.99999762%;font-family:Midan;-inkscape-font-specification:Midan;text-align:center;text-anchor:middle"
         id="flowPara4658">يأتي دورنا</flowPara></flowRoot>    <flowRoot
       transform="translate(208.59665,154.53048)"
       style="font-style:normal;font-variant:normal;font-weight:normal;font-stretch:normal;font-size:12px;line-height:125%;font-family:Lavi;-inkscape-font-specification:Lavi;text-align:center;letter-spacing:0px;word-spacing:0px;text-anchor:middle;fill:#000000;fill-opacity:1;stroke:none"
       id="flowRoot3045"
       xml:space="preserve"><flowRegion
         id="flowRegion3047"><rect
           style="font-style:normal;font-variant:normal;font-weight:normal;font-stretch:normal;font-family:Lavi;-inkscape-font-specification:Lavi;text-align:center;text-anchor:middle"
           y="265.53046"
           x="120.55251"
           height="310.73996"
           width="602.40173"
           id="rect3049" /></flowRegion><flowPara
         id="flowPara3055"
         style="font-style:normal;font-variant:normal;font-weight:normal;font-stretch:normal;font-size:70px;font-family:Midan;-inkscape-font-specification:Midan;text-align:center;text-anchor:middle;">هل رأيتَ ذلك...</flowPara></flowRoot>    <path
       style="color:#000000;fill:#ffffff;fill-opacity:1;fill-rule:nonzero;stroke:none;stroke-width:1px;marker:none;visibility:visible;display:inline;overflow:visible;enable-background:accumulate"
       d="m 900.08615,716.05926 c 42.51329,20.49356 123.80235,14.32923 138.26235,-30.35733 -49.15569,36.55167 -109.63611,20.90132 -120.75593,10.89767 -11.11981,-10.00366 -17.50642,19.45966 -17.50642,19.45966 z"
       id="path3978"
       inkscape:connector-curvature="0" />
    <path
       style="color:#000000;fill:#ffffff;fill-opacity:1;fill-rule:nonzero;stroke:none;stroke-width:1px;marker:none;visibility:visible;display:inline;overflow:visible;enable-background:accumulate"
       d="m 1554.582,795.42187 c 57.8977,-93.44304 344.0773,-85.46607 437.1891,-44.98197 93.1111,40.48363 124.7152,110.20588 127.7736,134.94616 3.0584,24.74003 -14.4146,139.44424 -64.4578,161.93554 -50.0428,22.491 -190.389,33.7364 -239.1803,33.7364 -48.7913,0 -203.7467,-14.3154 -241.3276,-47.2313 -35.9497,-31.4874 -77.8951,-144.96201 -19.997,-238.40483 z"
       id="path3330-3"
       inkscape:connector-curvature="0"
       sodipodi:nodetypes="zsssssz" />
    <flowRoot
       xml:space="preserve"
       id="flowRoot2987-4-9-3-8"
       style="font-style:normal;font-variant:normal;font-weight:normal;font-stretch:normal;font-size:12px;line-height:125%;font-family:Lavi;-inkscape-font-specification:Lavi;text-align:center;letter-spacing:0px;word-spacing:0px;text-anchor:middle;fill:#000000;fill-opacity:1;stroke:none"
       transform="translate(1392.1914,509.38886)"><flowRegion
         id="flowRegion2989-5-4-5-8"><rect
           id="rect2991-7-9-6-5"
           width="602.40173"
           height="310.73996"
           x="120.55251"
           y="265.53046"
           style="font-style:normal;font-variant:normal;font-weight:normal;font-stretch:normal;font-family:Lavi;-inkscape-font-specification:Lavi;text-align:center;text-anchor:middle" /></flowRegion><flowPara
         style="font-style:normal;font-variant:normal;font-weight:normal;font-stretch:normal;font-size:70px;line-height:100%;font-family:Midan;-inkscape-font-specification:Midan;text-align:center;text-anchor:middle;"
         id="flowPara3138">على الأقل، لدي فكرةٌ </flowPara><flowPara
         style="font-style:normal;font-variant:normal;font-weight:normal;font-stretch:normal;font-size:70px;line-height:100%;font-family:Midan;-inkscape-font-specification:Midan;text-align:center;text-anchor:middle;"
         id="flowPara3434">عن ما أستطيعُ أن </flowPara><flowPara
         style="font-style:normal;font-variant:normal;font-weight:normal;font-stretch:normal;font-size:70px;line-height:100%;font-family:Midan;-inkscape-font-specification:Midan;text-align:center;text-anchor:middle;"
         id="flowPara3423">أفعلهُ بـ&quot;جُرعتكَ&quot; يا جزر </flowPara><flowPara
         style="font-size:48px;text-align:center;text-anchor:middle"
         id="flowPara3140" /></flowRoot>    <path
       style="color:#000000;fill:#ffffff;fill-opacity:1;fill-rule:nonzero;stroke:none;stroke-width:1px;marker:none;visibility:visible;display:inline;overflow:visible;enable-background:accumulate"
       d="m 1441.4333,792.86046 c 1.8123,17.9111 3.4719,36.60072 12.514,52.57918 2.6665,4.48827 5.7379,8.94714 9.7431,12.29849 4.9422,2.55729 10.902,0.92324 14.9972,-2.48609 6.2588,-4.50938 10.9613,-11.84776 18.8831,-13.58596 5.7972,-1.12556 10.4379,3.16953 14.6457,6.42604 10.5623,8.51108 20.0337,18.50261 31.8998,25.28467 12.8634,8.50453 27.0155,16.51979 42.7488,17.47511 6.2316,0.27366 12.7888,-0.31154 18.2031,-3.68195 14.2818,-8.01643 24.173,-24.34511 22.834,-40.90808 -1.8569,-10.48428 -12.9332,-19.03038 -23.5991,-16.39316 -5.6511,1.30784 -9.507,6.21921 -11.5244,11.3814 -5.4816,8.7963 -15.7551,13.86937 -26.0014,13.88113 -8.456,0.14805 -16.8709,-2.36044 -24.0764,-6.73748 -11.3704,-3.36484 -18.2685,-13.64874 -26.3598,-21.52774 -3.7502,-3.54453 -7.9795,-7.06083 -13.0234,-8.42848 -7.6564,-0.23923 -13.3775,5.76673 -17.631,11.40618 -4.5368,5.70318 -9.1549,12.83128 -16.9484,14.04463 -5.2949,1.57023 -8.0628,-4.3141 -11.2198,-7.42808 -8.8564,-11.35341 -14.0534,-25.32791 -16.0433,-39.50562 -0.089,-1.36474 -0.067,-2.72787 -0.042,-4.09419 z"
       id="path4496"
       inkscape:connector-curvature="0"
       inkscape:transform-center-x="-99.717282"
       inkscape:transform-center-y="101.38562" />
    <path
       style="color:#000000;fill:#ffffff;fill-opacity:1;fill-rule:nonzero;stroke:none;stroke-width:1px;marker:none;visibility:visible;display:inline;overflow:visible;enable-background:accumulate"
       d="m 1725.0756,1115.0856 c 43.3771,-69.7642 285.0078,-78.229 363.5068,-48.0038 78.4985,30.2249 96.3108,74.7656 99.9619,93.2366 3.6508,18.4709 5.92,90.3998 -37.0913,126.384 -33.0463,27.6471 -158.0209,41.6381 -198.1833,41.6381 -40.162,0 -168.3685,-10.6878 -200.8109,-35.2627 -31.0346,-23.5085 -70.7605,-108.228 -27.3832,-177.9922 z"
       id="path3330-7"
       inkscape:connector-curvature="0"
       sodipodi:nodetypes="zsssssz" />
    <flowRoot
       xml:space="preserve"
       id="flowRoot2987-4-9-3-8-9"
       style="font-style:normal;font-variant:normal;font-weight:normal;font-stretch:normal;font-size:12px;line-height:125%;font-family:Lavi;-inkscape-font-specification:Lavi;text-align:center;letter-spacing:0px;word-spacing:0px;text-anchor:middle;fill:#000000;fill-opacity:1;stroke:none"
       transform="translate(1523.828,835.31854)"><flowRegion
         id="flowRegion2989-5-4-5-8-6"><rect
           id="rect2991-7-9-6-5-0"
           width="602.40173"
           height="310.73996"
           x="120.55251"
           y="265.53046"
           style="font-style:normal;font-variant:normal;font-weight:normal;font-stretch:normal;font-family:Lavi;-inkscape-font-specification:Lavi;text-align:center;text-anchor:middle" /></flowRegion><flowPara
         style="font-style:normal;font-variant:normal;font-weight:normal;font-stretch:normal;font-size:67.5px;line-height:89.99999762%;font-family:Midan;-inkscape-font-specification:Midan;text-align:center;text-anchor:middle;"
         id="flowPara4678">... سأُعيدُ كُلَ شيءٍ</flowPara><flowPara
         style="font-style:normal;font-variant:normal;font-weight:normal;font-stretch:normal;font-size:67.5px;line-height:89.99999762%;font-family:Midan;-inkscape-font-specification:Midan;text-align:center;text-anchor:middle;"
         id="flowPara3432"> إلى وضعهِ الطبيعي </flowPara><flowPara
         style="font-style:normal;font-variant:normal;font-weight:normal;font-stretch:normal;font-size:67.5px;line-height:89.99999762%;font-family:Midan;-inkscape-font-specification:Midan;text-align:center;text-anchor:middle;"
         id="flowPara3440">و أعودَ إلى المنزل!</flowPara></flowRoot>    <flowRoot
       xml:space="preserve"
       id="flowRoot2987-4-9-3-8-9-5"
       style="font-style:normal;font-variant:normal;font-weight:normal;font-stretch:normal;font-size:12px;line-height:125%;font-family:Lavi;-inkscape-font-specification:Lavi;text-align:center;letter-spacing:0px;word-spacing:0px;text-anchor:middle;fill:#000000;fill-opacity:1;stroke:none"
       transform="translate(664.50844,1422.1703)"><flowRegion
         id="flowRegion2989-5-4-5-8-6-3"><rect
           id="rect2991-7-9-6-5-0-1"
           width="602.40173"
           height="310.73996"
           x="120.55251"
           y="265.53046"
           style="font-style:normal;font-variant:normal;font-weight:normal;font-stretch:normal;font-family:Lavi;-inkscape-font-specification:Lavi;text-align:center;text-anchor:middle" /></flowRegion><flowPara
         style="font-style:normal;font-variant:normal;font-weight:normal;font-stretch:normal;font-size:70px;font-family:Midan;-inkscape-font-specification:Midan;text-align:center;text-anchor:middle"
         id="flowPara3211-2">أنتِ! </flowPara></flowRoot>    <path
       style="color:#000000;display:inline;overflow:visible;visibility:visible;fill:#ffffff;fill-opacity:1;fill-rule:nonzero;stroke:none;stroke-width:1px;marker:none;enable-background:accumulate"
       d="m 919.45865,2098.5588 c 41.54476,-24.9583 79.49671,-56.3087 125.21585,-73.8403 l -43.5137,-5.8567 c 12.708,-14.5474 33.0441,-20.2182 50.7901,-28.9032 l -26.2605,-7.9369 c 30.4396,-33.9774 70.0772,-50.7411 105.2689,-75.8248 l -46.9315,-10.2988 c -32.4096,29.4099 -59.3488,63.5475 -97.91172,87.6396 l 24.81802,10.2865 c -12.06842,10.1205 -24.58698,19.7921 -39.1159,27.4588 l 32.3612,10.2326 z"
       id="path4032"
       inkscape:connector-curvature="0"
       sodipodi:nodetypes="cccccccccccc" />
    <flowRoot
       transform="matrix(0.93080411,0,-0.09044116,1.21695,588.82784,1416.9308)"
       style="font-style:normal;font-variant:normal;font-weight:normal;font-stretch:normal;font-size:12px;line-height:125%;font-family:Lavi;-inkscape-font-specification:Lavi;text-align:center;letter-spacing:0px;word-spacing:0px;text-anchor:middle;fill:#000000;fill-opacity:1;stroke:#000000;stroke-width:2.71217394;stroke-miterlimit:4;stroke-dasharray:none;stroke-opacity:1"
       id="flowRoot4212-3-7-8-6"
       xml:space="preserve"><flowRegion
         id="flowRegion4214-6-7-8-3"><rect
           style="font-style:normal;font-variant:normal;font-weight:normal;font-stretch:normal;font-family:Lavi;-inkscape-font-specification:Lavi;text-align:center;text-anchor:middle;stroke:#000000;stroke-width:2.71217394;stroke-miterlimit:4;stroke-dasharray:none;stroke-opacity:1"
           y="284.74136"
           x="84.744102"
           height="328.89566"
           width="959.56818"
           id="rect4216-4-0-26-5" /></flowRegion><flowPara
         style="font-style:normal;font-variant:normal;font-weight:900;font-stretch:normal;font-size:70.4686203px;line-height:89.99999762%;font-family:Midan;-inkscape-font-specification:'Midan Heavy';text-align:center;letter-spacing:5.20896292px;text-anchor:middle;stroke:#000000;stroke-width:2.71217394;stroke-miterlimit:4;stroke-dasharray:none;stroke-opacity:1"
         id="flowPara3048">إيتها الكَناريةُ-العملاقةُ-المُتأنقةُ-الزومبيه!!</flowPara></flowRoot>    <path
       style="fill:#ffffff;fill-opacity:1;stroke:none"
       d="m 828.84882,2875.6026 c -30.26365,-6.8708 -41.91691,-13.258 -36.50351,-17.1941 -12.41288,-1.9615 -17.24954,-53.0973 -5.65293,-62.4448 0.77187,-0.984 6.18863,-3.9365 3.86077,-4.4272 -2.32774,-0.4907 -16.2788,0.9903 -18.61195,-0.9754 -2.33315,-1.9659 20.82638,-30.0034 17.72147,-30.9856 -3.10515,-0.9819 -51.22355,-5.0755 -61.31896,-9.4966 -10.0956,-4.421 -27.8557,7.0768 -30.95889,6.5863 3.6622,-14.2548 -31.78058,2.4724 -35.65919,1.9824 -3.87835,-0.4902 -10.90968,-15.2384 -14.78821,-15.7283 -3.87863,-0.4901 -21.68696,6.4014 -24.79015,5.9112 -3.1032,-0.4904 -1.59669,-12.7839 -5.47531,-13.2737 -3.87852,-0.4902 -20.89726,10.3348 -23.22512,9.8442 -2.32779,-0.4908 -10.9455,-25.0727 -14.82754,-26.5461 -3.88212,-1.4734 -28.59046,27.0565 -30.91483,27.5493 -2.32417,0.4927 -17.17826,-33.429 -20.28157,-33.9195 -3.10318,-0.4903 -18.52499,23.1187 -20.8529,22.628 -2.32784,-0.4907 -17.10918,-14.2524 -20.21406,-15.2344 -3.10498,-0.982 -23.15068,30.496 -26.25201,30.4975 -3.10153,0 -29.51133,-13.2635 -31.84635,-15.721 -2.33493,-2.4575 -4.60587,12.7865 -7.70731,12.7879 -3.10144,0 -38.79953,-8.8341 -39.57324,-8.3421 -0.7735,0.4922 5.46306,9.832 3.13702,9.8331 -2.32605,0 -38.81198,-12.2763 -40.35398,-9.8169 -1.54168,2.4592 -79.13026,-12.2585 -84.55065,-10.2894 -5.42038,1.9693 35.03639,40.3052 31.17041,43.2571 -3.86615,2.952 -17.83515,-0.4839 -18.60512,0.9915 -0.76995,1.4756 8.55732,7.8637 6.23854,9.8316 -2.31914,1.9678 -28.65276,9.8467 -30.96984,12.306 -2.31726,2.4598 11.66218,8.8459 8.56617,10.3225 -3.09621,1.4765 -48.80846,10.8388 -49.57487,13.2977 -0.76641,2.4588 23.31202,14.2493 20.22311,17.6927 -3.08901,3.4433 -11.61259,4.9221 -10.82834,7.3804 0.78426,2.4583 15.52667,5.4021 14.76015,7.861 -0.7666,2.459 -8.47568,14.755 -10.79463,16.7229 -2.31897,1.9678 16.28597,0.9763 16.29306,2.9431 0.006,1.9669 12.31049,14.234 -29.64742,43.8839 64.45969,-22.9118 69.34657,-0.6303 94.9473,3.2922 25.601,3.9227 15.60995,28.5125 19.49198,29.986 3.88215,1.4735 32.53481,-8.3732 36.42404,-4.933 3.88913,3.4405 5.46285,9.8319 8.56438,9.8306 3.10126,0 28.82909,-10.0372 32.7075,-9.5472 32.09193,-6.974 44.3337,15.227 37.88329,18.8592 5.42916,0.4893 26.33176,-8.3706 30.98216,-8.8643 4.65035,-0.4937 8.57139,11.7973 12.44466,10.8123 3.87326,-0.9849 28.65257,-9.8467 32.53273,-8.8649 3.88038,0.9818 6.996,4.9141 10.09398,3.9292 3.09767,-0.9846 17.03997,-4.9244 17.03997,-4.9244 0,0 10.09021,2.9459 14.74232,2.9439 4.65209,0 22.14447,-12.4678 26.01772,-13.453 3.87323,-0.985 39.72487,4.329 56.39409,34.6438 -9.43471,-35.735 27.62439,-38.94 33.04657,-40.4175 5.42209,-1.4775 21.7206,2.9408 23.26578,1.465 1.54545,-1.4759 6.16916,-9.3451 10.81962,-9.8389 4.65035,-0.4937 15.49812,-2.4651 15.49812,-2.4651 l -1.56124,-2.9497 c 0,0 32.5931,7.8532 36.48058,10.8018 3.88735,2.9486 -2.37225,-12.7833 -4.71251,-16.7161 13.97041,3.9278 55.0944,12.269 58.20459,14.7262 3.11032,2.4572 -5.4592,-8.8486 -10.12384,-12.2885 6.20811,1.4726 11.63738,1.962 11.63738,1.962 l -17.8757,-11.7934 5.424,-0.9858 c 0,0 -11.64978,-5.4039 -11.65869,-7.8625 -0.008,-2.4584 30.21914,-5.4219 30.21914,-5.4219 0,0 -12.42166,-4.42 -9.32915,-6.8798 3.09276,-2.46 10.84087,-3.9384 10.84087,-3.9384 l 1.5276,-6.3929 z"
       id="path5888"
       inkscape:connector-curvature="0"
       sodipodi:nodetypes="ccccccccccsccccsccccccsccsccscsccccscccscccccscccccsccccscccccccccccc" />
    <flowRoot
       xml:space="preserve"
       id="flowRoot2987-4-9-3-0"
       style="font-style:normal;font-variant:normal;font-weight:normal;font-stretch:normal;font-size:12px;line-height:125%;font-family:Lavi;-inkscape-font-specification:Lavi;text-align:center;letter-spacing:0px;word-spacing:0px;text-anchor:middle;fill:#000000;fill-opacity:1;stroke:none"
       transform="translate(86.53231,2530.8828)"><flowRegion
         id="flowRegion2989-5-4-5-1"><rect
           id="rect2991-7-9-6-4"
           width="602.40173"
           height="310.73996"
           x="120.55251"
           y="265.53046"
           style="font-style:normal;font-variant:normal;font-weight:normal;font-stretch:normal;font-family:Lavi;-inkscape-font-specification:Lavi;text-align:center;text-anchor:middle" /></flowRegion><flowPara
         style="font-style:normal;font-variant:normal;font-weight:normal;font-stretch:normal;font-size:67.5px;font-family:Midan;-inkscape-font-specification:Midan;text-align:center;letter-spacing:1.5px;text-anchor:middle;stroke:#000000;stroke-width:1.10000002;stroke-miterlimit:4;stroke-dasharray:none;stroke-opacity:1;"
         id="flowPara4086">أتُريدينَ تجربةَ جرعةٍ أخرى؟...</flowPara><flowPara
         style="font-size:48px;text-align:center;letter-spacing:1.5px;text-anchor:middle;stroke:#000000;stroke-width:1.10000002;stroke-miterlimit:4;stroke-dasharray:none;stroke-opacity:1"
         id="flowPara4687" /></flowRoot>    <path
       style="fill:#ffffff;fill-opacity:1;stroke:none"
       d="m 1797.6547,3221.0213 c 65.6139,10.0559 43.5411,-29.1424 39.3615,-34.0012 15.9801,8.1536 43.2078,-0.8175 14.8856,-29.198 40.2409,11.3918 20.5428,6.02 -2.8713,-24.5295 35.4451,15.5342 57.7968,5.7083 32.6194,-15.8279 36.1652,27.6918 48.9096,18.8512 25.8439,-15.5352 45.4797,35.6171 36.9692,22.2031 25.8861,4.6146 37.8746,32.1026 9.7278,-15.6704 12.6238,-15.929 2.896,-0.2589 15.1504,8.408 17.4788,8.095 2.3282,-0.3129 2.6278,-13.6711 5.5239,-13.9298 2.896,-0.2589 14.1232,12.5937 15.8839,12.2266 6.8305,4.5107 14.0232,-23.2422 13.8868,-27.5889 -2.9115,3.7697 13.7655,34.6638 19.4946,31.8484 1.6457,0.6925 21.0383,-35.5723 18.7221,-35.1591 -4.3199,0.7704 8.7544,26.5651 12.688,25.8438 3.1279,4.7786 16.0456,-7.0605 16.5407,-15.0197 -1.2167,2.2521 9.5196,37.8823 15.7437,34.7029 2.8093,6.6828 23.5928,-6.6134 25.114,-14.7361 1.9903,-2.4872 1.9139,14.105 4.1847,14.3219 -4.007,8.1765 25.2031,-1.4809 29.9303,-6.244 0.5104,0.5843 -2.8178,8.6896 -3.419,10.3829 -3.2403,9.1256 23.4647,0.9885 30.6702,-7.7798 -27.7889,43.7563 53.327,0.8958 63.0884,-5.2187 3.7445,2.4998 -30.2553,41.0184 -27.7612,44.4695 2.4943,3.4512 13.1156,0.7174 13.5109,2.3624 0.3954,1.6442 -7.1636,7.8833 -5.6903,10.1659 1.4737,2.2825 19.8581,12.6063 21.2743,15.4187 1.4162,2.8128 -9.5494,8.7264 -7.4506,10.5334 2.0988,1.807 34.5042,15.0762 34.7848,17.7802 0.2808,2.7041 -18.6966,13.7426 -16.8274,17.6694 1.8691,3.9269 7.9418,6.1133 7.0871,8.7091 -0.8548,2.5957 -11.9862,4.7452 -11.7055,7.4494 0.2808,2.7042 4.5228,16.4961 5.9964,18.7785 1.4736,2.2828 -12.0371,-0.079 -12.2666,2.0412 -0.2348,2.1195 -36.3286,9.709 19.6005,49.5612 -60.7461,-25.4505 -53.6067,-5.6882 -72.8011,-3.238 -19.1946,2.4504 -14.6843,29.6546 -17.6951,30.9735 -3.0108,1.3187 -22.8688,-11.2875 -26.1094,-7.8488 -3.2406,3.4387 -5.1222,10.2202 -7.3934,10.0032 -2.2707,-0.2155 -19.9653,-12.824 -22.8612,-12.5653 -22.7044,-9.7479 -34.2019,13.336 -29.8929,17.7 -4.0315,0.1504 -18.3271,-10.8537 -21.6761,-11.709 -3.349,-0.8554 -7.6228,12.1231 -10.3466,10.7921 -2.7239,-1.331 -19.858,-12.6064 -22.8113,-11.8174 -2.9537,0.7888 -5.6838,4.8119 -7.8399,3.5346 -2.1561,-1.2766 -11.9161,-6.4927 -11.9161,-6.4927 0,0 -7.725,2.475 -11.1313,2.1496 -3.4066,-0.3232 -24.789,-20.0382 -27.5127,-21.3694 -2.724,-1.3311 -50.4111,26.3975 -49.0523,29.7402 1.3588,3.3428 -1.9865,-35.151 -5.7884,-37.1206 -3.8018,-1.9696 -16.241,1.6615 -17.204,-0.037 -0.9634,-1.6984 -3.4513,-10.5033 -6.8003,-11.3588 -3.3491,-0.8554 -11.0676,-3.7344 -11.0676,-3.7344 l 1.4799,-3.0717 c 0,0 -24.7633,6.2022 -27.9464,9.111 -3.1832,2.9086 3.1958,-13.6169 5.3584,-17.6943 -10.6784,3.2641 -41.7444,9.3995 -44.3021,11.8325 -2.5581,2.4329 5.0071,-9.1603 8.8155,-12.5448 -4.714,1.1563 -8.7456,1.3067 -8.7456,1.3067 l 14.4356,-11.4724 -3.8595,-1.4395 c 0,0 9.1476,-5.0166 9.4345,-7.6666 0.2907,-2.6494 -21.5099,-7.9447 -21.5099,-7.9447 66.6123,1.4697 18.3026,-18.0658 -7.6932,-24.2961 z"
       id="path5888-2"
       inkscape:connector-curvature="0"
       sodipodi:nodetypes="ccccccccsccccsccccccsccsccscsccccscccscccccscccccsccccsccccccccc" />
    <path
       style="color:#000000;fill:#ffffff;fill-opacity:1;fill-rule:nonzero;stroke:none;stroke-width:1px;marker:none;visibility:visible;display:inline;overflow:visible;enable-background:accumulate"
       d="m 1949.2127,3186.2754 c -39.3897,38.4564 -118.4251,55.0326 -170.6211,-13.769 -46.1636,-0.3962 -81.2149,-5.1531 -119.4658,-62.8545 37.6962,38.0583 63.3903,55.3293 131.4185,51.4723 32.2972,32.3957 87.7359,29.3893 125.5394,-24.8478 37.8036,-54.2372 22.7273,-42.2473 22.7273,-42.2473 l 22.0999,76.6516 z"
       id="path5074-3"
       inkscape:connector-curvature="0"
       sodipodi:nodetypes="ccccsccc" />
    <flowRoot
       xml:space="preserve"
       id="flowRoot2987-4-9-3-0-3"
       style="font-style:normal;font-variant:normal;font-weight:normal;font-stretch:normal;font-size:12px;line-height:125%;font-family:Lavi;-inkscape-font-specification:Lavi;text-align:center;letter-spacing:0px;word-spacing:0px;text-anchor:middle;fill:#000000;fill-opacity:1;stroke:none"
       transform="translate(1628.3918,2885.1214)"><flowRegion
         id="flowRegion2989-5-4-5-1-6"><rect
           id="rect2991-7-9-6-4-7"
           width="602.40173"
           height="310.73996"
           x="120.55251"
           y="265.53046"
           style="font-style:normal;font-variant:normal;font-weight:normal;font-stretch:normal;font-family:Lavi;-inkscape-font-specification:Lavi;text-align:center;text-anchor:middle" /></flowRegion><flowPara
         style="font-style:normal;font-variant:normal;font-weight:normal;font-stretch:normal;font-size:70px;line-height:100%;font-family:Midan;-inkscape-font-specification:Midan;text-align:center;letter-spacing:1.5px;text-anchor:middle;stroke:#000000;stroke-width:1.10000002;stroke-miterlimit:4;stroke-dasharray:none;stroke-opacity:1;"
         id="flowPara4202">... لا تُريدين،</flowPara><flowPara
         style="font-style:normal;font-variant:normal;font-weight:normal;font-stretch:normal;font-size:70px;line-height:100%;font-family:Midan;-inkscape-font-specification:Midan;text-align:center;letter-spacing:1.5px;text-anchor:middle;stroke:#000000;stroke-width:1.10000002;stroke-miterlimit:4;stroke-dasharray:none;stroke-opacity:1;"
         id="flowPara3444">هاه؟</flowPara></flowRoot>    <path
       style="color:#000000;fill:#ffffff;fill-opacity:1;fill-rule:nonzero;stroke:none;stroke-width:1px;marker:none;visibility:visible;display:inline;overflow:visible;enable-background:accumulate"
       d="m 432.9877,1582.757 c -4.62527,14.1556 -29.80658,59.4538 -38.06244,16.2093 -42.3877,66.8706 -90.94164,55.4388 -139.14497,48.4577 -9.52731,19.5362 -7.09875,46.1647 -46.96241,47.7053 7.95498,15.9183 -3.45476,30.2003 -32.14335,43.0229 40.98017,2.4517 49.77676,11.6093 -21.84737,37.5242 55.93525,-9.943 108.31222,-17.9855 48.57741,33.848 20.66662,-3.1249 64.61473,-45.2102 55.82445,54.2176 30.8443,-37.3814 66.03449,-61.6079 122.59982,-7.3014 10.83096,-28.0111 30.03942,-49.2804 76.82521,-23.2543 5.27288,-26.7184 55.3579,-38.7619 74.64488,-37.3629 -41.4714,-20.5081 -42.72921,-38.0996 7.62637,-50.843 -92.48457,-33.4472 -21.82215,-39.6374 -9.97409,-55.1095 -69.36813,-4.1008 -42.62685,-31.5667 -33.87821,-55.3999 -76.91874,14.4742 -56.82784,-24.9365 -64.0853,-51.714 z"
       id="path3549-3"
       inkscape:connector-curvature="0"
       sodipodi:nodetypes="ccccccccccccccc" />
    <flowRoot
       transform="matrix(1.8217115,0,-0.17700578,1.8738433,-535.05413,1174.4851)"
       style="font-style:normal;font-variant:normal;font-weight:normal;font-stretch:normal;font-size:12px;line-height:125%;font-family:Lavi;-inkscape-font-specification:Lavi;text-align:center;letter-spacing:0px;word-spacing:0px;text-anchor:middle;fill:#000000;fill-opacity:1;stroke:#000000;stroke-width:2.71217394;stroke-miterlimit:4;stroke-dasharray:none;stroke-opacity:1"
       id="flowRoot4212-3-7-8-6-5"
       xml:space="preserve"><flowRegion
         id="flowRegion4214-6-7-8-3-6"><rect
           style="font-style:normal;font-variant:normal;font-weight:normal;font-stretch:normal;font-family:Lavi;-inkscape-font-specification:Lavi;text-align:center;text-anchor:middle;stroke:#000000;stroke-width:2.71217394;stroke-miterlimit:4;stroke-dasharray:none;stroke-opacity:1"
           y="265.53046"
           x="120.55251"
           height="355.03918"
           width="798.1947"
           id="rect4216-4-0-26-5-2" /></flowRegion><flowPara
         style="font-style:normal;font-variant:normal;font-weight:normal;font-stretch:normal;font-size:54.12445831px;font-family:Midan;-inkscape-font-specification:Midan;text-align:center;letter-spacing:1.45219982px;text-anchor:middle;stroke:#000000;stroke-width:2.71217394;stroke-miterlimit:4;stroke-dasharray:none;stroke-opacity:1"
         id="flowPara4358-7-1-6">يـــاه!</flowPara></flowRoot>    <flowRoot
       xml:space="preserve"
       id="flowRoot4133-6-9-4-8-5-3"
       style="color:#000000;font-style:normal;font-variant:normal;font-weight:normal;font-stretch:normal;font-size:12px;line-height:125%;font-family:Arial;-inkscape-font-specification:Arial;letter-spacing:0.00204969px;word-spacing:0px;display:inline;overflow:visible;visibility:visible;fill:#ffffff;fill-opacity:1;fill-rule:nonzero;stroke:#ffffff;stroke-width:0.11327168;stroke-linecap:butt;stroke-linejoin:miter;stroke-miterlimit:4;stroke-dasharray:none;stroke-dashoffset:0;stroke-opacity:1;marker:none;filter:url(#filter4375-4-1-1-15-1-3-3);enable-background:accumulate"
       transform="matrix(6.0663088,-4.0972498,-0.19310584,12.075816,-5586.8049,-5673.4583)"><flowRegion
         id="flowRegion4135-2-9-3-5-2-6"
         style="stroke-width:1.17389572"><rect
           id="rect4137-1-7-1-2-1-4"
           width="200.00224"
           height="39.051064"
           x="1125.3193"
           y="1078.5308"
           style="color:#000000;letter-spacing:0.00204969px;display:inline;overflow:visible;visibility:visible;fill:#ffffff;fill-opacity:1;fill-rule:nonzero;stroke:#ffffff;stroke-width:0.11327168;stroke-linecap:butt;stroke-linejoin:miter;stroke-miterlimit:4;stroke-dasharray:none;stroke-dashoffset:0;stroke-opacity:1;marker:none;filter:url(#filter4375-4-1-1-15-1-3-3);enable-background:accumulate" /></flowRegion><flowPara
         id="flowPara4139-2-8-6-8-6-3"
         style="color:#000000;font-style:normal;font-variant:normal;font-weight:normal;font-stretch:normal;font-size:17.85409164px;line-height:125%;font-family:Lavi;-inkscape-font-specification:Lavi;letter-spacing:0.00204969px;word-spacing:0.00204969px;display:inline;overflow:visible;visibility:visible;fill:#ffffff;fill-opacity:1;fill-rule:nonzero;stroke:#ffffff;stroke-width:0.11327168;stroke-linecap:butt;stroke-linejoin:miter;stroke-miterlimit:4;stroke-dasharray:none;stroke-dashoffset:0;stroke-opacity:1;marker:none;filter:url(#filter4375-4-1-1-15-1-3-3);enable-background:accumulate">كـــراك!</flowPara></flowRoot>  </g>
</svg>
