<?xml version="1.0" encoding="UTF-8" standalone="no"?>
<!-- Created with Inkscape (http://www.inkscape.org/) -->

<svg
   xmlns:dc="http://purl.org/dc/elements/1.1/"
   xmlns:cc="http://creativecommons.org/ns#"
   xmlns:rdf="http://www.w3.org/1999/02/22-rdf-syntax-ns#"
   xmlns:svg="http://www.w3.org/2000/svg"
   xmlns="http://www.w3.org/2000/svg"
   xmlns:xlink="http://www.w3.org/1999/xlink"
   xmlns:sodipodi="http://sodipodi.sourceforge.net/DTD/sodipodi-0.dtd"
   xmlns:inkscape="http://www.inkscape.org/namespaces/inkscape"
   id="svg2"
   version="1.1"
   inkscape:version="0.91 r13725"
   width="2481"
   height="3503"
   sodipodi:docname="Pepper-and-Carrot_by-David-Revoy_E06P03.svg">
  <metadata
     id="metadata8">
    <rdf:RDF>
      <cc:Work
         rdf:about="">
        <dc:format>image/svg+xml</dc:format>
        <dc:type
           rdf:resource="http://purl.org/dc/dcmitype/StillImage" />
        <dc:title />
      </cc:Work>
    </rdf:RDF>
  </metadata>
  <defs
     id="defs6">
    <filter
       inkscape:collect="always"
       id="filter3815">
      <feGaussianBlur
         inkscape:collect="always"
         stdDeviation="0.76455738"
         id="feGaussianBlur3817" />
    </filter>
  </defs>
  <sodipodi:namedview
     pagecolor="#ffffff"
     bordercolor="#666666"
     borderopacity="1"
     objecttolerance="10"
     gridtolerance="10"
     guidetolerance="10"
     inkscape:pageopacity="0"
     inkscape:pageshadow="2"
     inkscape:window-width="1920"
     inkscape:window-height="962"
     id="namedview4"
     showgrid="false"
     inkscape:zoom="0.26146111"
     inkscape:cx="972.3102"
     inkscape:cy="757.91445"
     inkscape:window-x="0"
     inkscape:window-y="30"
     inkscape:window-maximized="1"
     inkscape:current-layer="layer3" />
  <g
     inkscape:groupmode="layer"
     id="layer2"
     inkscape:label="artwork"
     sodipodi:insensitive="true"
     style="display:inline">
    <image
       sodipodi:absref="/home/nightlock/peppercarrot-translations/peppercarrot_ep06_translation/kr/../gfx_Pepper-and-Carrot_by-David-Revoy_E06P03.png"
       xlink:href="../gfx_Pepper-and-Carrot_by-David-Revoy_E06P03.png"
       y="0"
       x="0"
       id="image10"
       height="3503"
       width="2481" />
  </g>
  <g
     inkscape:groupmode="layer"
     id="layer3"
     inkscape:label="speechbubbles"
     style="display:inline">
    <path
       style="fill:#ffffff;stroke:none"
       d="m 670.79554,2817.9362 c -3.09488,-34.2022 -6.18982,-103.989 0,-119.1901 3.93899,0 10.4102,-0.3454 10.4102,-0.3454 l -6.18982,-18.6558 11.25423,4.4912 5.62714,-6.2187 -3.65761,-10.3642 10.12881,4.8366 5.06441,-10.0188 8.44068,7.2551 4.2204,-10.3644 9.28474,8.2915 17.16276,-4.4912 c 42.11555,-1.8308 83.76012,-4.6251 128.01719,-2.0729 l 13.50514,-6.5641 3.93901,9.6734 7.03387,0.3454 6.75255,-4.1457 6.7526,4.4912 22.5085,-3.1093 7.31527,8.9825 8.72209,-7.6005 2.81351,10.0188 8.72208,-6.2186 1.40675,6.564 20.82043,-7.6006 -3.0949,15.5465 c 0,0 15.4746,6.9097 26.44743,1.7275 1.1255,3.4548 -0.5626,9.6735 -0.5626,9.6735 l 5.6271,3.4547 0,8.9824 c 0,0 11.2543,11.7463 12.3796,14.8556 1.1255,3.1093 3.6576,88.097 -0.2812,101.5707 3.0948,0 5.0643,2.0728 4.783,4.1458 -0.2813,2.0728 -2.5322,7.9459 -2.5322,7.9459 0,0 3.0948,5.5277 2.2509,7.2551 -0.8442,1.7274 -2.5324,4.1456 -2.5324,4.1456 0,0 2.8137,4.4913 1.9695,5.8733 -0.844,1.3818 -5.627,3.8003 -7.5966,5.1821 2.2509,2.7638 4.2204,8.637 2.5323,10.0189 -1.6881,1.3819 -5.6272,2.4183 -5.6272,2.4183 l -1.4067,3.4548 c 0,0 -0.5627,6.9096 -1.9695,7.2551 -1.4069,0.3455 -7.3153,-3.4548 -8.1594,-2.764 -0.844,0.691 -3.09483,6.2188 -4.50163,6.2188 -1.4068,0 -5.9086,-6.5642 -5.9086,-6.5642 -0.6012,1.4766 -74.90369,3.9547 -81.03065,2.4184 -6.16408,-1.5456 -30.38651,2.0729 -33.76278,2.0729 -3.37627,0 -17.44409,-1.0364 -19.41356,-1.7274 -1.96953,-0.691 -9.84748,-3.1093 -12.66108,-2.7639 -2.81354,0.3454 -8.15934,3.8004 -11.25421,3.8004 -3.09494,0 -20.82044,-2.0729 -24.19671,-1.7275 -3.37626,0.3455 -18.85087,1.7275 -21.38309,1.7275 -2.53219,0 -30.94917,-3.8004 -34.04411,-4.1458 -3.09494,-0.3456 -16.60003,3.4548 -19.13224,3.1093 -2.53227,-0.3455 -16.88142,-3.4549 -21.38316,-3.1093 -4.50167,0.3454 -21.38309,-4.4912 -22.50849,-4.1458 -1.12541,0.3455 -2.82494,0.6903 -13.22375,0 5.34579,-5.1821 3.65761,-9.6734 3.65761,-9.6734 l -3.93895,-2.7638 0.56268,-3.1093 -8.15934,-5.1821 1.12545,-3.8003 0.56267,-6.2186 -8.15928,-4.8367 12.94236,-13.8191 z"
       id="path3894"
       inkscape:connector-curvature="0"
       sodipodi:nodetypes="cccccccccccccccccccccccccccccccscscccccsccssscssssssssssscccccccccc" />
    <path
       style="color:#000000;display:inline;overflow:visible;visibility:visible;fill:#ffffff;fill-opacity:1;fill-rule:nonzero;stroke:none;stroke-width:1px;marker:none;enable-background:accumulate"
       d="m 545.68385,2106.5543 c 0.92924,31.6909 15.53852,52.2214 23.60836,57.7317 8.06969,5.51 27.8159,19.9977 35.99606,27.9012 6.72231,6.5597 18.9915,14.5098 11.58161,18.2799 -7.40991,3.7703 -64.31872,11.3007 -65.81902,32.4013 -1.50054,21.1007 11.5192,27.961 33.86857,35.7108 22.34948,7.7502 51.41871,18.1603 52.37837,34.1408 0.95967,15.9804 -17.4603,25.021 -28.62018,26.9411 -11.15987,1.92 -81.38866,5.9308 -97.19855,13.2011 -15.8097,7.2704 -56.57965,35.8615 -42.75027,55.352 15.84012,-22.9807 24.99248,-33.4609 40.95221,-37.3811 15.95994,-3.9202 44.06732,-13.061 64.49678,-9.9711 20.42968,3.09 60.65877,11.58 73.49859,3.4995 12.83999,-8.0803 35.67019,-33.2912 30.75053,-50.3518 -4.91949,-17.0604 -21.35891,-34.7809 -56.00807,-44.2309 -22.3493,-7.7501 -32.60899,-13.0302 -32.33902,-17.9203 0.27015,-4.8901 18.69012,-13.9306 41.15957,-14.4208 22.46963,-0.4902 39.26943,-7.4905 37.82979,-17.8109 -1.43987,-10.3202 -25.01304,-34.7164 -28.85289,-44.0368 -3.83969,-9.3202 -32.82382,-61.3059 -32.82382,-61.3059 z"
       id="path5058"
       inkscape:connector-curvature="0"
       sodipodi:nodetypes="cscsssssscssssccscccc" />
    <path
       style="color:#000000;display:inline;overflow:visible;visibility:visible;fill:#ffffff;fill-opacity:1;fill-rule:nonzero;stroke:none;stroke-width:1px;marker:none;enable-background:accumulate"
       d="m 1103.0578,1030.655 16.9779,0.842 -6.696,-18.0755 c 26.2438,-2.772 40.8654,2.0582 60.0611,3.8964 l -32.9992,-21.59771 3.9164,-6.8802 c -5.3579,-3.50798 -12.9639,-5.63456 -15.5183,-10.86495 12.8297,-4.23033 22.4164,-4.87351 33.2498,-6.89553 -11.0446,-3.73058 -20.4569,-8.27381 -27.4866,-14.00356 l 33.7406,-12.85784 -33.7635,-6.98857 c 22.076,-16.7159 51.2492,-28.28501 77.9589,-41.64062 l -100.2746,12.04401 13.9183,-12.84671 c -11.0287,-5.45619 -9.6772,-2.47892 -14.43,-3.66012 -2.8725,-4.26753 31.3023,-25.11611 28.2325,-23.07347 -3.8259,0.91927 -36.7918,5.78525 -36.7918,5.78525 0,0 26.6658,-20.32144 22.7409,-20.0572 -3.9249,0.26421 -35.6126,7.02912 -35.6126,7.02912 l 8.1216,-18.41133 -40.7084,12.66535 14.3398,-23.17815 c -10.7819,2.03263 -17.7965,2.96105 -15.049,-4.9477 1.0502,-15.32342 27.0958,-48.54932 48.638,-82.00611 -39.5994,31.80022 -65.7096,56.21264 -80.4752,58.72952 -60.0196,35.34478 -46.58358,12.71445 -34.65689,-12.88473 l -35.78542,25.56688 -9.24375,-15.25729 -26.46791,21.63137 -3.0678,-20.30464 c -18.05343,2.65078 -25.54934,15.17994 -34.70532,26.15584 l -14.42323,-75.78025 -54.08149,68.48247 -16.81354,-25.99569 -6.0518,25.55009 -6.11043,-20.7614 -23.21894,30.01405 -24.46538,-24.15719 -16.06198,24.90062 c -21.85107,-24.57669 -50.79274,-43.35846 -83.29025,-59.23424 8.13665,26.16178 15.4726,51.60723 16.77319,71.65216 -10.80682,2.82547 -22.555,-0.57976 -34.54935,-5.61386 l 8.55936,17.28831 -42.99294,-9.0153 22.79979,26.25436 c -62.77487,5.11651 -50.85936,-0.45475 -65.75075,-2.19003 l 14.44679,16.89196 -45.25234,-10.84815 c 14.0055,13.84056 31.89484,28.66624 41.95478,41.50598 l -45.63128,-0.2362 c 19.46631,10.58257 43.01013,17.83272 57.69944,32.31933 l -39.3028,4.15611 40.25562,17.13939 -27.75438,13.11656 23.94522,1.03423 -35.68647,26.22178 52.30209,-1.5361 -56.3661,46.8018 71.22525,-14.0582 -1.23594,31.1808 36.86544,-24.9781 -28.55264,79.997 c 28.32687,-29.8339 50.02665,-53.6586 91.09099,-76.5478 l 15.34133,6.8076 15.08549,-5.0759 -0.58876,22.3442 53.83496,-30.7518 -4.00715,12.8412 15.88084,-12.9789 -1.45069,16.6388 27.44907,-21.6973 -0.21381,17.3091 12.87929,-12.207 6.11346,10.4552 16.06733,-7.9786 c 9.43312,28.0363 4.8811,57.0143 3.05278,85.8089 15.16597,-33.8432 36.21993,-64.9503 66.41647,-91.809 l 12.67313,11.7136 11.71982,-12.4094 15.84066,13.9542 17.78255,-19.1462 c 18.23062,12.4467 28.91039,20.1056 37.30399,33.2147 -5.0477,-12.4757 -8.6117,-20.8448 -6.1558,-35.123 62.9803,17.3672 61.4798,19.3952 85.6352,29.7723 3.8195,-15.6853 9.1569,-21.1814 10.8504,-33.1514 z"
       id="path4024"
       inkscape:connector-curvature="0"
       sodipodi:nodetypes="cccccccccccccccccscccccccccccccccccccccccccccccccccccccccccccccccccccccccccccccccccccc" />
    <path
       style="color:#000000;display:inline;overflow:visible;visibility:visible;fill:#ffffff;fill-opacity:1;fill-rule:nonzero;stroke:none;stroke-width:1px;marker:none;enable-background:accumulate"
       d="m 1218.5434,1215.8472 c -17.1936,-41.8333 -41.081,-81.504 -50.4971,-125.8497 l -12.6066,38.3698 c -11.8734,-13.9727 -14.0263,-33.3359 -19.4799,-50.8688 l -11.8198,22.4071 c -27.61,-33.3215 -37.27,-72.0345 -55.6059,-108.14156 l -17.4063,40.70596 c 22.9228,34.3264 51.2492,64.5082 68.0938,103.4964 l 13.8358,-20.7022 c 7.7408,12.6408 14.9797,25.6123 19.9766,40.0614 l 14.9982,-27.5356 z"
       id="path4032"
       inkscape:connector-curvature="0"
       sodipodi:nodetypes="cccccccccccc" />
    <flowRoot
       xml:space="preserve"
       id="flowRoot2987-4-9"
       style="font-style:normal;font-variant:normal;font-weight:normal;font-stretch:normal;font-size:12px;line-height:125%;font-family:Lavi;-inkscape-font-specification:Lavi;text-align:center;letter-spacing:0px;word-spacing:0px;text-anchor:middle;fill:#000000;fill-opacity:1;stroke:#000000;stroke-width:1.04545081;stroke-miterlimit:4;stroke-dasharray:none;stroke-opacity:1"
       transform="matrix(2.6784163,0,-0.28366571,3.1313481,-208.88453,21.818841)"
       inkscape:transform-center-x="-18.314191"
       inkscape:transform-center-y="-39.496528"><flowRegion
         id="flowRegion2989-5-4"><rect
           id="rect2991-7-9"
           width="602.40173"
           height="310.73996"
           x="120.55251"
           y="265.53046"
           style="font-style:normal;font-variant:normal;font-weight:normal;font-stretch:normal;font-family:Lavi;-inkscape-font-specification:Lavi;text-align:center;text-anchor:middle;stroke:#000000;stroke-width:1.04545081;stroke-miterlimit:4;stroke-dasharray:none;stroke-opacity:1" /></flowRegion><flowPara
         style="font-style:normal;font-variant:normal;font-weight:normal;font-stretch:normal;font-size:48px;font-family:'Nanum Pen Script OTF';-inkscape-font-specification:'Nanum Pen Script OTF';text-align:center;text-anchor:middle;stroke:#000000;stroke-width:1.04545081;stroke-miterlimit:4;stroke-dasharray:none;stroke-opacity:1"
         id="flowPara3030">이게 뭐야 ?!!</flowPara></flowRoot>    <path
       style="fill:#ffffff;stroke:none"
       d="m 372.83069,2033.8791 c 13.60927,-78.5065 38.12623,-92.6056 100.44943,-118.4298 52.77552,-21.868 267.30842,-13.4364 328.60741,-8.395 78.78835,6.4797 144.04733,40.8593 172.38974,83.621 28.34253,42.7616 -20.80662,157.2293 -92.68597,181.5129 -71.87911,24.2838 -220.87668,31.6636 -324.87849,23.3462 -62.92613,-5.0324 -200.73795,-50.7431 -183.88212,-161.6553 z"
       id="path3021"
       inkscape:connector-curvature="0"
       sodipodi:nodetypes="csssssc" />
    <flowRoot
       xml:space="preserve"
       id="flowRoot2987-4-9-1"
       style="font-style:normal;font-variant:normal;font-weight:normal;font-stretch:normal;font-size:12px;line-height:125%;font-family:Lavi;-inkscape-font-specification:Lavi;text-align:center;letter-spacing:0px;word-spacing:0px;text-anchor:middle;fill:#000000;fill-opacity:1;stroke:none"
       transform="matrix(1.6847268,0,0,1.6847268,-5.9142436,1489.6533)"><flowRegion
         id="flowRegion2989-5-4-3"><rect
           id="rect2991-7-9-5"
           width="566.03296"
           height="290.90244"
           x="120.55251"
           y="265.53046"
           style="font-style:normal;font-variant:normal;font-weight:normal;font-stretch:normal;font-family:Lavi;-inkscape-font-specification:Lavi;text-align:center;text-anchor:middle" /></flowRegion><flowPara
         style="font-style:normal;font-variant:normal;font-weight:normal;font-stretch:normal;font-size:48px;line-height:100%;font-family:'Nanum Pen Script OTF';-inkscape-font-specification:'Nanum Pen Script OTF';text-align:center;text-anchor:middle"
         id="flowPara3386">코모나 시장으로써,</flowPara><flowPara
         style="font-style:normal;font-variant:normal;font-weight:normal;font-stretch:normal;font-size:48px;line-height:100%;font-family:'Nanum Pen Script OTF';-inkscape-font-specification:'Nanum Pen Script OTF';text-align:center;text-anchor:middle"
         id="flowPara3390">포션 대회의 개최를...</flowPara><flowPara
         style="font-style:normal;font-variant:normal;font-weight:normal;font-stretch:normal;font-size:48px;line-height:100%;font-family:'Nanum Pen Script OTF';-inkscape-font-specification:'Nanum Pen Script OTF';text-align:center;text-anchor:middle"
         id="flowPara3392">선언합니다!</flowPara></flowRoot>    <path
       style="color:#000000;display:inline;overflow:visible;visibility:visible;fill:#ffffff;fill-opacity:1;fill-rule:nonzero;stroke:none;stroke-width:1px;marker:none;enable-background:accumulate"
       d="m 247.18824,2433.5362 c 7.8951,-71.3752 50.33102,-131.0973 97.70143,-142.7503 47.37031,-11.6532 438.17573,8.7396 467.78227,26.2193 29.60643,17.4799 75.00307,30.5893 62.17367,152.9469 -12.82959,122.3578 -69.08183,148.5771 -125.33419,151.4905 -56.25224,2.9131 -390.80542,20.3927 -438.17584,-46.6125 -47.3702,-67.0053 -66.12101,-61.1787 -64.14734,-141.2939 z"
       id="path4010"
       inkscape:connector-curvature="0" />
    <flowRoot
       transform="matrix(1.5257806,0,0,1.5257806,-169.85277,1912.0993)"
       style="font-style:normal;font-variant:normal;font-weight:normal;font-stretch:normal;font-size:12px;line-height:125%;font-family:Lavi;-inkscape-font-specification:Lavi;text-align:center;letter-spacing:0px;word-spacing:0px;text-anchor:middle;fill:#000000;fill-opacity:1;stroke:none"
       id="flowRoot3827"
       xml:space="preserve"><flowRegion
         id="flowRegion3829"><rect
           style="font-style:normal;font-variant:normal;font-weight:normal;font-stretch:normal;font-family:Lavi;-inkscape-font-specification:Lavi;text-align:center;text-anchor:middle"
           y="265.53046"
           x="120.55251"
           height="285.1524"
           width="727.03296"
           id="rect3831" /></flowRegion><flowPara
         style="font-style:normal;font-variant:normal;font-weight:normal;font-stretch:normal;font-size:48px;line-height:100%;font-family:'Nanum Pen Script OTF';-inkscape-font-specification:'Nanum Pen Script OTF';text-align:center;text-anchor:middle"
         id="flowPara4494"> 첫째 포션 대회의</flowPara><flowPara
         style="font-style:normal;font-variant:normal;font-weight:normal;font-stretch:normal;font-size:48px;line-height:100%;font-family:'Nanum Pen Script OTF';-inkscape-font-specification:'Nanum Pen Script OTF';text-align:center;text-anchor:middle"
         id="flowPara3399">참가자로 4명의 마녀를</flowPara><flowPara
         style="font-style:normal;font-variant:normal;font-weight:normal;font-stretch:normal;font-size:48px;line-height:100%;font-family:'Nanum Pen Script OTF';-inkscape-font-specification:'Nanum Pen Script OTF';text-align:center;text-anchor:middle"
         id="flowPara3396">초대한 것을</flowPara><flowPara
         style="font-style:normal;font-variant:normal;font-weight:normal;font-stretch:normal;font-size:48px;line-height:100%;font-family:'Nanum Pen Script OTF';-inkscape-font-specification:'Nanum Pen Script OTF';text-align:center;text-anchor:middle"
         id="flowPara3404">영광스럽게 생각합니다</flowPara></flowRoot>    <path
       style="color:#000000;display:inline;overflow:visible;visibility:visible;fill:#ffffff;fill-opacity:1;fill-rule:nonzero;stroke:none;stroke-width:1px;marker:none;filter:url(#filter4386);enable-background:accumulate"
       d="m 818.38834,2583.9679 c 67.39048,-7.2879 57.08568,151.5067 86.26978,173.1099 9.7929,7.2493 31.4834,20.8279 44.6537,19.302 22.2217,-2.5742 36.1996,-31.978 105.26508,76.2516 14.5484,25.3304 64.6014,14.081 89.3863,-17.682 11.6551,-10.1772 41.1802,-16.077 77.8516,61.4689 13.8568,19.6534 45.1883,26.7156 63.2855,13.7581 9.1413,-7.2854 37.1244,-12.8074 54.186,9.6305 -28.6245,-35.0226 -70.9102,-17.2346 -84.2354,-19.4809 -16.2432,-3.961 -39.3841,-48.3247 -56.7917,-73.6014 -17.4077,-25.2767 -61.1235,-10.7157 -74.7267,-4.7692 -13.6034,5.9465 -27.7891,23.6628 -43.1211,15.4175 -15.3327,-8.246 -44.7469,-68.4598 -71.2965,-86.4517 -26.54898,-17.9912 -54.17928,2.8818 -77.86948,-15.1637 -23.6905,-18.0456 -25.59,-113.7737 -41.9733,-143.1837 -15.9411,-32.6468 -53.5462,-54.4535 -53.5462,-54.4535 z"
       id="path3153"
       inkscape:connector-curvature="0"
       sodipodi:nodetypes="cssccccccsscssccc" />
    <flowRoot
       transform="matrix(1.6478357,0,0,1.6478357,86.760388,2232.3918)"
       style="font-style:normal;font-variant:normal;font-weight:normal;font-stretch:normal;font-size:12px;line-height:125%;font-family:Lavi;-inkscape-font-specification:Lavi;text-align:center;letter-spacing:0px;word-spacing:0px;text-anchor:middle;fill:#000000;fill-opacity:1;stroke:#000000;stroke-width:1.17194688"
       id="flowRoot3857"
       xml:space="preserve"><flowRegion
         id="flowRegion3859"><rect
           style="font-style:normal;font-variant:normal;font-weight:normal;font-stretch:normal;font-family:Lavi;-inkscape-font-specification:Lavi;text-align:center;text-anchor:middle;stroke:#000000;stroke-width:1.17194688"
           y="265.53046"
           x="120.55251"
           height="319.6524"
           width="617.78296"
           id="rect3861" /></flowRegion><flowPara
         id="flowPara3863"
         style="font-size:64px;text-align:center;text-anchor:middle;stroke:#000000;stroke-width:1.17194688;stroke-miterlimit:4;stroke-dasharray:none;stroke-opacity:1"><flowSpan
           style="font-style:normal;font-variant:normal;font-weight:normal;font-stretch:normal;font-family:'Nanum Pen Script OTF';-inkscape-font-specification:'Nanum Pen Script OTF';stroke:#000000;stroke-width:1.17194688"
           id="flowSpan3398">큰</flowSpan></flowPara></flowRoot>    <flowRoot
       xml:space="preserve"
       id="flowRoot2987-4-9-3"
       style="font-style:normal;font-variant:normal;font-weight:normal;font-stretch:normal;font-size:12px;line-height:125%;font-family:Lavi;-inkscape-font-specification:Lavi;text-align:center;letter-spacing:0px;word-spacing:0px;text-anchor:middle;opacity:0.61395347;fill:#000000;fill-opacity:1;stroke:#000000;stroke-width:1.96720004;stroke-miterlimit:4;stroke-dasharray:none;stroke-opacity:1;filter:url(#filter3815)"
       transform="matrix(2.2128061,-0.14664003,-0.27257962,2.8058818,729.95649,1754.7426)"
       inkscape:transform-center-x="-15.365899"
       inkscape:transform-center-y="-22.884045"><flowRegion
         id="flowRegion2989-5-4-8"><rect
           id="rect2991-7-9-0"
           width="826.12402"
           height="65.224297"
           x="120.55251"
           y="265.53046"
           style="font-style:normal;font-variant:normal;font-weight:normal;font-stretch:normal;font-family:Lavi;-inkscape-font-specification:Lavi;text-align:center;text-anchor:middle;stroke:#000000;stroke-width:1.96720004;stroke-miterlimit:4;stroke-dasharray:none;stroke-opacity:1" /></flowRegion><flowPara
         style="font-style:normal;font-variant:normal;font-weight:normal;font-stretch:normal;font-size:48px;font-family:'Nanum Pen Script OTF';-inkscape-font-specification:'Nanum Pen Script OTF';text-align:center;text-anchor:middle;fill:#ffffff;fill-opacity:1;stroke:#959595;stroke-width:1.96720004;stroke-miterlimit:4;stroke-dasharray:none;stroke-opacity:1"
         id="flowPara3030-2">코모나 포션 대회</flowPara></flowRoot>    <flowRoot
       xml:space="preserve"
       id="flowRoot3849-0"
       style="font-style:normal;font-variant:normal;font-weight:normal;font-stretch:normal;font-size:12px;line-height:125%;font-family:Lavi;-inkscape-font-specification:Lavi;text-align:center;letter-spacing:0px;word-spacing:0px;text-anchor:middle;fill:#000000;fill-opacity:1;stroke:none"
       transform="matrix(1.4727325,0,0,1.5767581,216.73699,2355.5275)"><flowRegion
         id="flowRegion3851-2"><rect
           id="rect3853-7"
           width="617.78296"
           height="319.6524"
           x="120.55251"
           y="265.53046"
           style="font-style:normal;font-variant:normal;font-weight:normal;font-stretch:normal;font-family:Lavi;-inkscape-font-specification:Lavi;text-align:center;text-anchor:middle" /></flowRegion><flowPara
         style="font-style:normal;font-variant:normal;font-weight:normal;font-stretch:normal;font-size:48px;font-family:'Nanum Pen Script OTF';-inkscape-font-specification:'Nanum Pen Script OTF';text-align:center;text-anchor:middle"
         id="flowPara3855-1">부탁드립니다!</flowPara></flowRoot>    <text
       xml:space="preserve"
       style="font-style:normal;font-weight:normal;font-size:80.99736786px;line-height:125%;font-family:sans-serif;letter-spacing:0px;word-spacing:0px;fill:#000000;fill-opacity:1;stroke:none;stroke-width:1px;stroke-linecap:butt;stroke-linejoin:miter;stroke-opacity:1"
       x="837.99701"
       y="2754.572"
       id="text3400"
       sodipodi:linespacing="125%"><tspan
         sodipodi:role="line"
         id="tspan3402"
         x="837.99701"
         y="2754.572"
         style="font-style:normal;font-variant:normal;font-weight:normal;font-stretch:normal;font-family:'Nanum Pen Script OTF';-inkscape-font-specification:'Nanum Pen Script OTF'">박수</tspan></text>
  </g>
  <g
     inkscape:groupmode="layer"
     id="layer1"
     inkscape:label="txt"
     style="display:inline" />
</svg>
