<?xml version="1.0" encoding="UTF-8" standalone="no"?>
<!-- Created with Inkscape (http://www.inkscape.org/) -->

<svg
   xmlns:dc="http://purl.org/dc/elements/1.1/"
   xmlns:cc="http://creativecommons.org/ns#"
   xmlns:rdf="http://www.w3.org/1999/02/22-rdf-syntax-ns#"
   xmlns:svg="http://www.w3.org/2000/svg"
   xmlns="http://www.w3.org/2000/svg"
   xmlns:xlink="http://www.w3.org/1999/xlink"
   xmlns:sodipodi="http://sodipodi.sourceforge.net/DTD/sodipodi-0.dtd"
   xmlns:inkscape="http://www.inkscape.org/namespaces/inkscape"
   id="svg2"
   version="1.1"
   inkscape:version="0.91 r13725"
   width="2481"
   height="3503"
   sodipodi:docname="Pepper-and-Carrot_by-David-Revoy_E06P02.svg">
  <metadata
     id="metadata8">
    <rdf:RDF>
      <cc:Work
         rdf:about="">
        <dc:format>image/svg+xml</dc:format>
        <dc:type
           rdf:resource="http://purl.org/dc/dcmitype/StillImage" />
        <dc:title />
      </cc:Work>
    </rdf:RDF>
  </metadata>
  <defs
     id="defs6" />
  <sodipodi:namedview
     pagecolor="#ffffff"
     bordercolor="#666666"
     borderopacity="1"
     objecttolerance="10"
     gridtolerance="10"
     guidetolerance="10"
     inkscape:pageopacity="0"
     inkscape:pageshadow="2"
     inkscape:window-width="960"
     inkscape:window-height="1024"
     id="namedview4"
     showgrid="false"
     inkscape:zoom="0.46000001"
     inkscape:cx="1597.8626"
     inkscape:cy="966.63988"
     inkscape:window-x="960"
     inkscape:window-y="30"
     inkscape:window-maximized="0"
     inkscape:current-layer="layer1" />
  <g
     inkscape:groupmode="layer"
     id="layer2"
     inkscape:label="artwork"
     sodipodi:insensitive="true">
    <image
       sodipodi:absref="/home/graphene/peppercarrot-translations/peppercarrot_ep06_translation/kr/../gfx_Pepper-and-Carrot_by-David-Revoy_E06P02.png"
       xlink:href="../gfx_Pepper-and-Carrot_by-David-Revoy_E06P02.png"
       width="2481"
       height="3503"
       id="image10"
       x="0"
       y="0" />
  </g>
  <g
     inkscape:groupmode="layer"
     id="layer3"
     inkscape:label="speechbubbles" />
  <g
     inkscape:groupmode="layer"
     id="layer1"
     inkscape:label="txt">
    <path
       style="fill:#ffffff;stroke:none"
       d="m 1126.196,2721.2257 c 135.5001,-128.2224 200.0239,-172.4369 303.2622,-190.1228 103.2381,-17.6857 394.8711,-0.1516 477.4766,95.0614 86.8277,100.0797 139.8017,280.7627 139.8017,446.5675 4.3016,48.636 -10.7539,55.2682 -10.7539,55.2682 l -53.7699,-39.7932 c 0,0 32.2619,64.1112 19.3571,-59.6896 -12.9047,-123.801 -70.7991,-330.2166 -143.9262,-400.96 -73.1271,-70.7432 -343.8302,-98.6292 -458.2966,-69.9255 -92.6876,23.2424 -148.1467,52.739 -273.151,163.594 z"
       id="path3187"
       inkscape:connector-curvature="0"
       sodipodi:nodetypes="csscccsssc" />
    <path
       style="color:#000000;display:inline;overflow:visible;visibility:visible;fill:#ffffff;fill-opacity:1;fill-rule:nonzero;stroke:none;stroke-width:1px;marker:none;enable-background:accumulate"
       d="m 1528.1011,2516.7957 c 9.422,-48.1341 107.2062,-70.6089 139.7413,-67.1054 32.5352,3.5033 116.2208,18.5965 136.2818,19.2121 20.0609,0.6156 93.0056,-5.9136 119.3997,-7.6087 26.394,-1.6951 57.8422,44.3607 54.8551,63.0569 -2.9872,18.6961 -24.3908,70.6452 -93.5101,74.7867 -69.1194,4.1417 -161.7097,-6.2147 -180.6765,-0.5341 -18.9671,5.6805 -100.6246,9.4373 -130.2685,-9.0076 -29.644,-18.445 -55.2447,-24.6656 -45.8228,-72.7999 z"
       id="path4554"
       inkscape:connector-curvature="0"
       sodipodi:nodetypes="zsssssssz" />
    <path
       style="fill:#ffffff;stroke:none"
       d="m 697.54853,2099.3875 c 30.24788,20.3454 69.46645,28.5957 104.81474,18.1905 25.04315,-7.3659 46.51156,-25.2296 59.1682,-47.963 11.37636,-19.4744 21.52684,-39.7025 30.05435,-60.5865 1.05717,-2.2727 1.78491,-7.2765 3.43776,-2.6524 7.4238,12.2436 14.84756,24.4872 22.27136,36.7308 -7.65146,15.2359 -15.3029,30.4719 -22.95436,45.7078 -19.91161,21.5737 -45.91697,37.8505 -74.49276,44.9595 -25.79601,6.2332 -53.48492,3.5762 -77.80077,-6.9723 -16.13538,-6.7735 -30.9746,-16.3652 -44.49852,-27.4144 z"
       id="path3063"
       inkscape:connector-curvature="0" />
    <path
       style="color:#000000;fill:#ffffff;fill-opacity:1;fill-rule:nonzero;stroke:none;stroke-width:1px;marker:none;visibility:visible;display:inline;overflow:visible;enable-background:accumulate"
       d="m 646.56589,812.49757 c 5.54026,-10.40243 29.48444,-40.89799 25.96253,-3.09796 38.46924,-43.6161 65.30287,-21.15041 92.79778,-2.44084 9.52859,-13.5107 13.287,-36.07246 37.45669,-26.6174 -1.64703,-15.23645 7.98019,-23.91803 27.66728,-26.75104 -24.05674,-13.04006 -27.53098,-22.94062 20.42627,-24.99637 -35.43722,-6.86514 -68.37183,-14.33673 -22.45965,-40.91499 -12.98569,-2.98801 -47.53756,19.8163 -22.81154,-59.62338 -25.78516,22.45898 -51.59743,32.92573 -74.83512,-26.97016 -11.96805,20.13276 -27.63251,32.46532 -50.55059,-1.53226 -8.38718,20.56416 -40.73275,17.00105 -52.00692,10.66207 20.81636,28.0281 18.12597,42.83986 -14.51867,39.77964 48.82733,52.39551 5.30689,38.48145 -4.81565,48.02423 40.73095,22.03277 19.34335,37.43743 9.43985,54.69287 48.88787,8.78131 29.14398,35.80229 28.24774,59.78559 z"
       id="path3549"
       inkscape:connector-curvature="0"
       sodipodi:nodetypes="ccccccccccccccc" />
    <path
       style="color:#000000;fill:#ffffff;fill-opacity:1;fill-rule:nonzero;stroke:none;stroke-width:1px;marker:none;visibility:visible;display:inline;overflow:visible;enable-background:accumulate"
       d="m 976.44338,847.56589 c -30.6895,-33.22336 -66.9003,-62.08779 -91.17475,-100.37564 l 1.54948,40.35805 c -15.99714,-8.96132 -24.76055,-26.36164 -35.9803,-40.89653 l -3.27371,25.12109 c -37.48833,-21.61613 -60.02929,-54.53911 -89.79475,-81.99702 l -2.13576,44.21988 c 33.44478,24.19089 70.51094,42.61441 99.88228,73.29247 l 5.75736,-24.2252 c 11.65945,9.15239 22.96362,18.78968 32.68105,30.59298 l 4.46649,-31.03554 z"
       id="path4032"
       inkscape:connector-curvature="0"
       sodipodi:nodetypes="cccccccccccc" />
    <flowRoot
       xml:space="preserve"
       id="flowRoot2987-4-9"
       style="font-size:12px;font-style:normal;font-variant:normal;font-weight:normal;font-stretch:normal;text-align:center;line-height:125%;letter-spacing:0px;word-spacing:0px;text-anchor:middle;fill:#000000;fill-opacity:1;stroke:none;font-family:Lavi;-inkscape-font-specification:Lavi"
       transform="matrix(2.0639129,0,-0.41696688,1.8332873,-36.565342,170.77136)"><flowRegion
         id="flowRegion2989-5-4"><rect
           id="rect2991-7-9"
           width="602.40173"
           height="310.73996"
           x="120.55251"
           y="265.53046"
           style="font-style:normal;font-variant:normal;font-weight:normal;font-stretch:normal;text-align:center;text-anchor:middle;font-family:Lavi;-inkscape-font-specification:Lavi" /></flowRegion><flowPara
         style="font-size:48px;text-align:center;text-anchor:middle;-inkscape-font-specification:'Nanum Pen Script OTF';font-family:'Nanum Pen Script OTF';font-weight:normal;font-style:normal;font-stretch:normal;font-variant:normal"
         id="flowPara3030">!!!</flowPara></flowRoot>    <path
       style="fill:#ffffff;stroke:none"
       d="m 709.30725,1854.607 c 18.18012,-87.1831 106.51671,-93.9616 119.23354,-100.4077 12.71684,-6.4461 81.94568,-4.0177 90.15609,-1.9421 8.21043,2.0756 103.24032,-9.6767 113.50092,5.5559 6.2015,9.2067 131.6854,-0.9445 150.8866,13.6977 19.2011,14.6421 21.2355,129.9314 18.2911,162.3649 -2.9443,32.4334 -32.0235,95.7597 -90.1778,119.5749 -58.1543,23.8151 -166.69772,37.3071 -231.76205,24.1638 -65.06435,-13.1432 -112.69247,-33.3192 -129.95478,-59.039 -17.26238,-25.7197 -53.36874,-121.4147 -40.17362,-163.9684 z"
       id="path3061"
       inkscape:connector-curvature="0"
       sodipodi:nodetypes="cssssssssc" />
    <flowRoot
       xml:space="preserve"
       id="flowRoot2987-4-9-3"
       style="font-style:normal;font-variant:normal;font-weight:normal;font-stretch:normal;font-size:12px;line-height:100%;font-family:Lavi;-inkscape-font-specification:Lavi;text-align:center;letter-spacing:0px;word-spacing:0px;text-anchor:middle;fill:#000000;fill-opacity:1;stroke:none"
       transform="matrix(1.467697,0,0,1.467697,413.11766,1407.376)"><flowRegion
         id="flowRegion2989-5-4-0"><rect
           id="rect2991-7-9-6"
           width="553.52673"
           height="276.31055"
           x="94.465561"
           y="254.66089"
           style="font-style:normal;font-variant:normal;font-weight:normal;font-stretch:normal;line-height:100%;font-family:Lavi;-inkscape-font-specification:Lavi;text-align:center;text-anchor:middle" /></flowRegion><flowPara
         style="font-style:normal;font-variant:normal;font-weight:normal;font-stretch:normal;font-size:48px;line-height:100%;font-family:'Nanum Pen Script OTF';-inkscape-font-specification:'Nanum Pen Script OTF';text-align:center;text-anchor:middle"
         id="flowPara3130">캐럿!</flowPara><flowPara
         style="font-style:normal;font-variant:normal;font-weight:normal;font-stretch:normal;font-size:48px;line-height:100%;font-family:'Nanum Pen Script OTF';-inkscape-font-specification:'Nanum Pen Script OTF';text-align:center;text-anchor:middle"
         id="flowPara3075">이런 귀여운 것~</flowPara><flowPara
         style="font-style:normal;font-variant:normal;font-weight:normal;font-stretch:normal;font-size:48px;line-height:100%;font-family:'Nanum Pen Script OTF';-inkscape-font-specification:'Nanum Pen Script OTF';text-align:center;text-anchor:middle"
         id="flowPara3371">나를 대회 장소까지</flowPara><flowPara
         style="font-style:normal;font-variant:normal;font-weight:normal;font-stretch:normal;font-size:48px;line-height:100%;font-family:'Nanum Pen Script OTF';-inkscape-font-specification:'Nanum Pen Script OTF';text-align:center;text-anchor:middle"
         id="flowPara3375">데려다주는 거야?</flowPara></flowRoot>    <flowRoot
       xml:space="preserve"
       id="flowRoot2987-4-9-1"
       style="font-style:normal;font-variant:normal;font-weight:normal;font-stretch:normal;font-size:12px;line-height:125%;font-family:Lavi;-inkscape-font-specification:Lavi;text-align:center;letter-spacing:0px;word-spacing:0px;text-anchor:middle;fill:#000000;fill-opacity:1;stroke:none"
       transform="matrix(1.9488985,0,0,1.9488985,943.73239,1958.6328)"><flowRegion
         id="flowRegion2989-5-4-5"><rect
           id="rect2991-7-9-8"
           width="602.40173"
           height="310.73996"
           x="120.55251"
           y="265.53046"
           style="font-style:normal;font-variant:normal;font-weight:normal;font-stretch:normal;font-family:Lavi;-inkscape-font-specification:Lavi;text-align:center;text-anchor:middle" /></flowRegion><flowPara
         style="font-style:normal;font-variant:normal;font-weight:normal;font-stretch:normal;font-size:48px;font-family:'Nanum Pen Script OTF';-inkscape-font-specification:'Nanum Pen Script OTF';text-align:center;text-anchor:middle"
         id="flowPara3030-6">좋-았-어 !</flowPara></flowRoot>    <path
       style="color:#000000;display:inline;overflow:visible;visibility:visible;fill:#ffffff;fill-opacity:1;fill-rule:nonzero;stroke:none;stroke-width:1px;marker:none;enable-background:accumulate"
       d="m 1733.1602,2766.3472 c 7.4539,-60.1547 22.1912,-88.0656 66.9146,-97.8867 44.7232,-9.8213 424.5443,-13.0185 452.4964,1.7132 27.952,14.7321 70.8117,25.7807 58.6993,128.9032 -12.1127,103.1226 -67.614,114.2569 -120.7229,116.7123 -53.1088,2.4553 -366.5741,28.1501 -411.2974,-28.3216 -44.7231,-56.4717 -47.9535,-53.5996 -46.09,-121.1204 z"
       id="path4010"
       inkscape:connector-curvature="0"
       sodipodi:nodetypes="csssssc" />
    <flowRoot
       xml:space="preserve"
       id="flowRoot2987-4-9-1-3"
       style="font-style:normal;font-variant:normal;font-weight:normal;font-stretch:normal;font-size:12px;line-height:125%;font-family:Lavi;-inkscape-font-specification:Lavi;text-align:center;letter-spacing:0px;word-spacing:0px;text-anchor:middle;fill:#000000;fill-opacity:1;stroke:none"
       transform="matrix(1.558372,0,0,1.558372,1421.2066,2272.7991)"><flowRegion
         id="flowRegion2989-5-4-5-4"><rect
           id="rect2991-7-9-8-8"
           width="538.37994"
           height="261.2291"
           x="120.55251"
           y="285.09567"
           style="font-style:normal;font-variant:normal;font-weight:normal;font-stretch:normal;font-family:Lavi;-inkscape-font-specification:Lavi;text-align:center;text-anchor:middle" /></flowRegion><flowPara
         style="font-style:normal;font-variant:normal;font-weight:normal;font-stretch:normal;font-size:48px;line-height:100%;font-family:'Nanum Pen Script OTF';-inkscape-font-specification:'Nanum Pen Script OTF';text-align:center;text-anchor:middle"
         id="flowPara3124">내 옷이랑, 모자랑,</flowPara><flowPara
         style="font-style:normal;font-variant:normal;font-weight:normal;font-stretch:normal;font-size:48px;line-height:100%;font-family:'Nanum Pen Script OTF';-inkscape-font-specification:'Nanum Pen Script OTF';text-align:center;text-anchor:middle"
         id="flowPara3383">포션까지 가지고 왔네...</flowPara></flowRoot>    <path
       style="color:#000000;display:inline;overflow:visible;visibility:visible;fill:#ffffff;fill-opacity:1;fill-rule:nonzero;stroke:none;stroke-width:1px;marker:none;enable-background:accumulate"
       d="m 1824.5478,3133.0925 c 8.1303,-84.0852 128.5757,-106.8278 225.9506,-100.6177 97.375,6.2101 234.8956,33.9851 232.4301,94.4256 -2.4658,60.4406 -33.1038,115.2502 -59.3285,124.4138 -26.2245,9.1635 -162.2168,17.9947 -202.5501,15.8393 -40.3331,-2.1555 -204.6855,20.4542 -196.5021,-134.061 z"
       id="path4974"
       inkscape:connector-curvature="0" />
    <flowRoot
       xml:space="preserve"
       id="flowRoot2987-4-9-1-3-4"
       style="font-style:normal;font-variant:normal;font-weight:normal;font-stretch:normal;font-size:12px;line-height:125%;font-family:Lavi;-inkscape-font-specification:Lavi;text-align:center;letter-spacing:0px;word-spacing:0px;text-anchor:middle;fill:#000000;fill-opacity:1;stroke:none"
       transform="matrix(1.5176571,0,0,1.5176571,1450.748,2645.4918)"><flowRegion
         id="flowRegion2989-5-4-5-4-1"><rect
           id="rect2991-7-9-8-8-4"
           width="494.9017"
           height="291.66379"
           x="148.81339"
           y="289.44351"
           style="font-style:normal;font-variant:normal;font-weight:normal;font-stretch:normal;font-family:Lavi;-inkscape-font-specification:Lavi;text-align:center;text-anchor:middle" /></flowRegion><flowPara
         style="font-style:normal;font-variant:normal;font-weight:normal;font-stretch:normal;font-size:48px;line-height:100%;font-family:'Nanum Pen Script OTF';-inkscape-font-specification:'Nanum Pen Script OTF';text-align:center;text-anchor:middle"
         id="flowPara3385">... 어떤 포션을</flowPara><flowPara
         style="font-style:normal;font-variant:normal;font-weight:normal;font-stretch:normal;font-size:48px;line-height:100%;font-family:'Nanum Pen Script OTF';-inkscape-font-specification:'Nanum Pen Script OTF';text-align:center;text-anchor:middle"
         id="flowPara3389">가져왔는지 볼까...</flowPara></flowRoot>  </g>
</svg>
