<?xml version="1.0" encoding="UTF-8" standalone="no"?>
<!-- Created with Inkscape (http://www.inkscape.org/) -->

<svg
   xmlns:dc="http://purl.org/dc/elements/1.1/"
   xmlns:cc="http://creativecommons.org/ns#"
   xmlns:rdf="http://www.w3.org/1999/02/22-rdf-syntax-ns#"
   xmlns:svg="http://www.w3.org/2000/svg"
   xmlns="http://www.w3.org/2000/svg"
   xmlns:xlink="http://www.w3.org/1999/xlink"
   xmlns:sodipodi="http://sodipodi.sourceforge.net/DTD/sodipodi-0.dtd"
   xmlns:inkscape="http://www.inkscape.org/namespaces/inkscape"
   id="svg2"
   version="1.1"
   inkscape:version="0.91+devel r"
   width="2481"
   height="3503"
   sodipodi:docname="Pepper-and-Carrot_by-David-Revoy_E06P01.svg"
   viewBox="0 0 2481 3503">
  <metadata
     id="metadata8">
    <rdf:RDF>
      <cc:Work
         rdf:about="">
        <dc:format>image/svg+xml</dc:format>
        <dc:type
           rdf:resource="http://purl.org/dc/dcmitype/StillImage" />
        <dc:title />
      </cc:Work>
    </rdf:RDF>
  </metadata>
  <defs
     id="defs6" />
  <sodipodi:namedview
     pagecolor="#ffffff"
     bordercolor="#666666"
     borderopacity="1"
     objecttolerance="10"
     gridtolerance="10"
     guidetolerance="10"
     inkscape:pageopacity="0"
     inkscape:pageshadow="2"
     inkscape:window-width="1600"
     inkscape:window-height="842"
     id="namedview4"
     showgrid="false"
     inkscape:zoom="0.49190039"
     inkscape:cx="1301.6946"
     inkscape:cy="748.95117"
     inkscape:window-x="0"
     inkscape:window-y="27"
     inkscape:window-maximized="1"
     inkscape:current-layer="layer1"
     inkscape:document-units="px" />
  <g
     inkscape:groupmode="layer"
     id="layer2"
     inkscape:label="artwork"
     sodipodi:insensitive="true">
    <image
       sodipodi:absref="/home/hsc/graphics/Projekte/peppercarrot/ep006-potion-contest/peppercarrot_ep06_translation/de_helmar/../gfx_Pepper-and-Carrot_by-David-Revoy_E06P01.png"
       xlink:href="../gfx_Pepper-and-Carrot_by-David-Revoy_E06P01.png"
       width="2481"
       height="3503"
       id="image10"
       x="0"
       y="0" />
  </g>
  <g
     inkscape:groupmode="layer"
     id="layer3"
     inkscape:label="speechbubbles">
    <path
       style="fill:#ffffff;stroke:none"
       d="m 1065.0584,2991.5882 c 139.0204,-151.8259 352.2724,-147.4644 534.1995,-135.0446 l -2.4584,29.6919 c -271.0832,-44.1257 -427.9056,20.1405 -531.7411,105.3527 z"
       id="path4208"
       inkscape:connector-curvature="0"
       sodipodi:nodetypes="cccc" />
    <path
       style="fill:#ffffff;stroke:none"
       d="m 848.69618,2327.5469 c 11.92344,-57.0082 80.05736,-226.7656 764.80332,-144.4206 25.5503,5.0674 32.3637,24.0701 32.3637,24.0701 l -11.9235,7.6011 c 0,0 -669.41585,-141.8868 -785.24352,112.7494 z"
       id="path4184"
       inkscape:connector-curvature="0" />
    <path
       style="fill:#ffffff;stroke:none;stroke-width:1"
       d="m 111.12147,929.9846 c 1.25073,-30.35787 26.6276,-26.21189 48.94382,-26.44314 21.69118,-4.56828 20.19454,-25.41604 77.94752,-4.66645 21.6276,-5.86223 29.6286,-21.95565 77.94754,-7.77738 18.73158,-6.23852 37.46316,-9.27592 56.19474,3.11096 32.54343,-1.61682 37.16913,-23.19676 108.76402,3.11095 31.86948,-12.64516 49.72339,-6.04785 63.44567,6.22192 16.45724,-4.05434 31.02052,-16.23476 54.38199,9.33287 28.0675,-1.15666 48.20845,7.209 58.00748,27.9986 6.1116,8.95055 22.94647,6.85937 12.68914,32.66489 40.99718,31.00508 21.41267,46.01548 18.12732,65.32948 -0.84667,14.6065 -3.0579,28.8784 -29.00372,37.3313 7.69905,20.996 -8.33095,28.4179 -21.75281,37.3316 -12.07072,16.1462 -27.88777,13.0046 -43.50561,10.8884 -30.81647,33.3396 -61.63293,25.7934 -92.4494,26.4432 -14.09159,11.0165 -25.81049,7.781 -36.25467,-3.1112 -45.83143,19.5282 -59.70498,3.7987 -81.57301,-3.1108 -46.04792,31.264 -68.88826,14.7341 -97.88759,10.8884 -20.53769,5.658 -41.04076,11.0781 -58.00747,-7.7776 -50.26255,10.0059 -48.74602,-8.2623 -61.63297,-18.6657 -22.51739,14.3205 -33.39104,5.3277 -45.31832,-1.5553 -31.338585,-6.7492 -16.33862,-18.4689 -21.75279,-27.9987 -24.822958,-21.2581 -24.385222,-42.5165 -9.063671,-63.7746 C 77.878007,1024.4925 60.46528,1014.1524 87.555918,996.86927 76.379594,981.76865 63.35914,966.7995 94.806869,948.65033 91.280173,936.65895 100.21162,932.68515 111.12147,929.9846 Z"
       id="path4086"
       inkscape:connector-curvature="0"
       sodipodi:nodetypes="cccccccccccccccccccccccccc" />
    <path
       style="fill:#ffffff;stroke:none;stroke-width:1px;stroke-linecap:butt;stroke-linejoin:miter;stroke-opacity:1"
       d="m 230.13067,823.60392 c -9.53903,-20.56429 -0.23424,-22.81511 10.00568,-26.42602 11.63357,-13.55921 16.74734,-4.29914 22.87013,1.42938 15.03339,7.03416 19.43438,18.62507 14.29383,34.3052 -2.64407,15.25927 -13.01754,16.99209 -27.15828,12.13219 -15.35344,0.0889 -21.95096,-7.11879 -20.01136,-21.44075 z"
       id="path4088"
       inkscape:connector-curvature="0"
       sodipodi:nodetypes="cccccc" />
    <path
       style="fill:#ffffff;stroke:none;stroke-width:1px;stroke-linecap:butt;stroke-linejoin:miter;stroke-opacity:1"
       d="m 275.87093,761.44332 c -5.09277,-10.88445 3.68029,-14.83599 15.72321,-17.15259 19.65656,11.35504 12.8163,22.10199 7.14692,32.87581 -12.0433,1.8308 -24.81763,4.83126 -22.87013,-15.72322 z"
       id="path4090"
       inkscape:connector-curvature="0"
       sodipodi:nodetypes="cccc" />
    <path
       style="fill:#ffffff;stroke:none;stroke-width:0.95018345px;stroke-linecap:butt;stroke-linejoin:miter;stroke-opacity:1"
       d="m 382.11012,1285.1069 c -10.07398,0.3666 -19.57336,4.5827 -27.13862,10.5994 -11.80956,-2.8214 -27.04183,-7.3606 -37.20527,1.3452 -4.29701,4.4874 -7.88118,12.781 -15.94062,10.5462 -13.37314,-0.1289 -30.54952,2.2389 -35.74801,15.5365 -2.42698,5.148 -1.66999,13.3678 -9.12797,14.8216 -9.81739,3.9804 -17.01952,15.5104 -11.29673,24.9428 2.04252,2.7177 2.59883,6.4309 -0.38641,8.69 -5.98632,9.0042 -1.16614,20.5294 6.98024,26.8418 2.43105,2.913 -1.67863,6.5378 0.24164,9.8187 1.91217,7.666 10.73254,9.9586 17.92886,10.7737 0.57649,3.9414 1.80174,8.4715 5.35281,11.3083 6.81878,6.3536 17.06575,6.7648 26.00758,7.0052 7.61356,3.242 13.18554,9.826 21.59636,11.5856 14.47515,3.935 29.42098,-2.5811 41.35764,-9.2563 4.61363,7.3888 10.61905,14.9889 20.09792,17.2427 7.9693,2.5803 16.4823,0.8391 24.379,-0.2795 19.8499,2.5745 41.4872,12.5101 60.96347,3.4253 7.06614,-3.2097 12.96047,-8.2574 17.86954,-13.8476 7.79138,6.0003 20.35934,9.7096 28.60365,2.6824 2.26193,-2.3078 4.41593,-6.7402 8.50056,-4.0871 18.82941,5.1074 39.71503,13.1153 59.09043,5.1673 9.12556,-2.7211 17.03497,-8.9567 24.7821,-13.1096 12.61745,4.9442 29.42358,6.2435 39.52118,-3.8388 3.68285,-2.2921 4.78643,-9.5075 10.25209,-7.8035 12.77566,1.4124 26.77347,-4.4207 31.26075,-16.0384 1.93185,-5.0367 2.32196,-11.2255 8.1605,-13.8726 8.88838,-6.7054 13.82667,-18.8296 8.46829,-28.9252 -3.22581,-6.4773 -7.51476,-12.6897 -6.9906,-20.1067 -1.88367,-12.5144 -14.30102,-21.094 -27.26388,-22.2997 -5.49842,-1.3042 -13.04222,0.3663 -15.66018,-5.4809 -15.03363,-17.3848 -41.30719,-22.4569 -64.08647,-17.9359 -4.50702,1.1409 -6.28668,-4.439 -10.19913,-5.6983 -9.31763,-6.1682 -22.10484,-5.5104 -31.14783,0.6853 -4.14653,4.0899 -7.9179,-2.0454 -12.44656,-2.6857 -16.79668,-5.4272 -37.83907,-4.1513 -51.20836,7.7206 -13.72709,-14.8138 -37.11441,-19.3263 -56.73306,-13.2846 -5.96109,0.9123 -11.68493,4.3214 -17.35432,4.7201 -9.86647,-4.1456 -20.52221,-7.4536 -31.48056,-6.9089 z"
       id="path4094"
       inkscape:connector-curvature="0" />
    <path
       style="fill:#ffffff;stroke:none"
       d="m 254.84178,1217.9014 c -21.93594,-5.4808 -17.74008,-13.6811 -13.99678,-23.3941 -3.03862,-16.7769 7.36071,-14.91 15.68046,-15.9283 15.0063,-6.7699 26.74841,-2.9642 35.56127,10.332 10.07962,11.2071 4.80314,19.8776 -7.9578,27.312 -9.7183,11.33 -19.48107,11.7989 -29.28715,1.6784 z"
       id="path4088-4"
       inkscape:connector-curvature="0"
       sodipodi:nodetypes="cccccc" />
    <path
       style="fill:#ffffff;stroke:none"
       d="m 281.23738,1261.3662 c -1.6722,-15.5601 8.1265,-14.7295 15.31815,-17.624 8.5716,-3.7924 14.70548,-2.0987 17.90033,6.2094 9.77538,3.2771 13.75133,9.4545 10.08794,19.4525 -3.52546,10.5347 -12.20688,9.4657 -20.99121,8.1652 -4.6338,4.2774 -9.42027,7.1804 -15.37947,-0.4737 -11.84717,-2.3085 -12.53472,-8.0516 -6.93574,-15.7294 z"
       id="path4119"
       inkscape:connector-curvature="0"
       sodipodi:nodetypes="ccccccc" />
    <path
       style="fill:#ffffff;stroke:none;stroke-width:0.91189969px;stroke-linecap:butt;stroke-linejoin:miter;stroke-opacity:1"
       d="m 294.04504,1668.4749 c -2.96747,-24.9282 10.53477,-33.6182 31.50518,-34.9449 11.83864,-15.5074 20.85722,-33.795 61.69767,-20.7082 28.57044,-26.6812 58.70878,-20.8994 89.26471,-6.4713 50.07402,-33.2569 62.28564,-12.6491 86.63927,-5.1771 58.65597,-26.1972 65.79391,6.8647 91.89014,18.1197 44.61696,-28.0463 72.85,-9.427 99.76643,12.9425 15.29342,0.023 24.97649,6.1934 22.31617,25.8852 23.6555,8.9831 35.84897,24.4239 31.5052,49.1816 20.5545,33.0826 4.30383,42.5783 -14.43988,50.4762 18.04096,28.9611 7.73324,51.4722 -26.25433,68.5956 -4.50639,20.9841 -20.2387,23.9826 -40.6942,19.4139 -9.36326,18.6713 -25.1582,29.5382 -60.38495,16.8253 -25.52701,20.5448 -53.17149,20.2126 -82.70112,1.2943 -11.64414,21.893 -32.12781,23.8657 -57.75953,14.2367 -35.1705,12.0017 -49.69758,0.5189 -59.07223,-16.8253 -22.49967,11.4116 -45.11052,20.8504 -69.57395,-2.5885 -28.44993,6.3545 -36.16879,-4.8106 -36.75605,-22.0024 -22.33025,15.1367 -36.91229,9.902 -47.25778,-6.4714 -16.4026,-0.4012 -35.0386,2.4004 -30.19248,-28.4735 -23.805,-5.5398 -37.65039,-16.2478 -23.6289,-41.4163 -7.39811,-15.2958 -19.38442,-30.0891 7.87631,-49.1817 -5.00332,-27.7982 7.35625,-38.4776 26.25432,-42.7104 z"
       id="path4121"
       inkscape:connector-curvature="0"
       sodipodi:nodetypes="ccccccccccccccccccccccc" />
    <path
       style="fill:#ffffff;stroke:none"
       d="m 426.16799,1495.7228 c -1.6722,-15.5601 8.1265,-14.7295 15.31815,-17.624 8.5716,-3.7924 14.70548,-2.0987 17.90033,6.2094 9.77538,3.2771 13.75133,9.4545 10.08794,19.4525 -3.52546,10.5347 -12.20688,9.4657 -20.99121,8.1652 -4.6338,4.2774 -9.42027,7.1804 -15.37947,-0.4737 -11.84717,-2.3085 -12.53472,-8.0516 -6.93574,-15.7294 z"
       id="path4119-8"
       inkscape:connector-curvature="0"
       sodipodi:nodetypes="ccccccc" />
    <path
       style="fill:#ffffff;stroke:none"
       d="m 473.63058,1564.8263 c -15.87888,-16.1637 -4.1024,-20.2143 1.38885,-27.0178 6.23672,-8.4833 14.66459,-9.736 25.73404,-2.2704 13.95095,-1.3644 23.98299,3.3767 28.85294,16.1601 5.508,13.3003 -5.22536,16.5249 -16.2828,19.5483 -1.36816,7.0209 -4.14446,12.6166 -17.73722,7.265 -15.41163,3.4716 -21.35155,-2.4587 -21.95581,-13.6852 z"
       id="path4119-7"
       inkscape:connector-curvature="0"
       sodipodi:nodetypes="ccccccc" />
    <path
       style="fill:#ffffff;stroke:none"
       d="m 841.62073,2156.8344 c 22.25175,-26.8114 179.17317,-26.7384 212.04897,-4.2782 32.8758,22.4602 29.6785,56.8909 6.1025,81.6803 -16.6155,17.4708 -186.91945,22.0647 -213.22009,2.813 -26.30065,-19.2516 -27.18313,-53.4038 -4.93138,-80.2151 z"
       id="path4160"
       inkscape:connector-curvature="0"
       sodipodi:nodetypes="zsssz" />
    <path
       style="fill:#ffffff;stroke:none;stroke-width:1px;stroke-linecap:butt;stroke-linejoin:miter;stroke-opacity:1"
       d="m 1148.6566,2124.6405 c 25.7948,-43.3074 274.6902,-31.7469 303.2779,17.4606 28.5876,49.2073 14.9152,139.6855 -18.6442,157.1462 -33.5594,17.4607 -242.3737,20.6354 -270.9613,-1.5874 -28.4889,-22.1458 -39.4672,-129.7122 -13.6724,-173.0194 z"
       id="path4162"
       inkscape:connector-curvature="0"
       sodipodi:nodetypes="zsssz" />
    <path
       style="fill:#ffffff;stroke:none;stroke-width:1"
       d="m 1564.3647,2116.1977 c 62.3727,-41.8436 373.7881,-10.8705 422.7196,31.5018 48.9316,42.3721 46.3337,144.0089 7.9336,170.8987 -38.4004,26.8894 -386.2229,25.4438 -446.5441,-12.3806 -43.4548,-27.2478 -46.4817,-148.1762 15.8909,-190.0199 z"
       id="path4164"
       inkscape:connector-curvature="0"
       sodipodi:nodetypes="zsssz" />
    <path
       style="fill:#ffffff;stroke:none"
       d="m 1201.5647,2821.5119 c 19.9792,-14.0231 53.2637,-19.8752 84.4282,-20.4786 31.1644,-0.6033 75.5507,3.6735 98.5103,19.8549 22.9596,16.1816 40.8445,30.4369 35.6632,57.6458 -5.1811,27.2089 -41.6424,46.1053 -77.5724,55.5628 -35.93,9.4574 -98.3145,0.4916 -127.5903,-14.1459 -29.2756,-14.6376 -44.9862,-27.5393 -46.7873,-49.0378 -1.8011,-21.4982 13.3692,-35.3782 33.3483,-49.4012 z"
       id="path4204"
       inkscape:connector-curvature="0"
       sodipodi:nodetypes="zzzzzzzz" />
    <path
       style="fill:#ffffff;stroke:none;stroke-width:0.96692985px;stroke-linecap:butt;stroke-linejoin:miter;stroke-opacity:1"
       d="m 1563.3029,2891.138 c 0.6377,-21.0575 0.5288,-58.0166 24.2708,-76.9497 23.7421,-18.9331 61.3692,-10.7371 100.8171,-10.7371 39.4479,0 104.0726,-5.7594 134.4227,14.3161 30.3501,20.0756 39.0628,44.9597 39.2067,73.3707 0.1439,28.411 -18.2349,60.1358 -41.0736,78.7392 -22.8387,18.6034 -57.3059,20.5062 -84.0143,25.0533 -26.7084,4.5472 -45.3094,12.1353 -74.6792,3.5791 -29.3698,-8.5562 -73.3027,-41.6431 -87.7482,-62.6335 -14.4456,-20.9904 -11.8397,-23.6806 -11.202,-44.7381 z"
       id="path4206"
       inkscape:connector-curvature="0"
       sodipodi:nodetypes="zzzzzzzzzz" />
  </g>
  <g
     inkscape:groupmode="layer"
     id="layer1"
     inkscape:label="txt"
     style="display:inline">
    <flowRoot
       xml:space="preserve"
       id="flowRoot2987"
       style="font-style:normal;font-variant:normal;font-weight:normal;font-stretch:normal;font-size:12px;line-height:125%;font-family:Lavi;-inkscape-font-specification:Lavi;letter-spacing:0px;word-spacing:0px;fill:#000000;fill-opacity:1;stroke:none"
       transform="matrix(0.95842652,0,0,0.92639044,-38.977582,700.76497)"><flowRegion
         id="flowRegion2989"><rect
           id="rect2991"
           width="627.46503"
           height="231.84634"
           x="138.55077"
           y="262.427"
           style="font-style:normal;font-variant:normal;font-weight:normal;font-stretch:normal;font-family:Lavi;-inkscape-font-specification:Lavi" /></flowRegion><flowPara
         style="font-size:48px;text-align:center;text-anchor:middle"
         id="flowPara4426">Oh verflixt, ich bin schon</flowPara><flowPara
         style="font-size:48px;text-align:center;text-anchor:middle"
         id="flowPara4219">wieder bei offenem Fenster</flowPara><flowPara
         style="font-size:48px;text-align:center;text-anchor:middle"
         id="flowPara4221">eingeschlafen...</flowPara></flowRoot>    <flowRoot
       xml:space="preserve"
       id="flowRoot2987-6"
       style="font-style:normal;font-variant:normal;font-weight:normal;font-stretch:normal;font-size:12px;line-height:125%;font-family:Lavi;-inkscape-font-specification:Lavi;letter-spacing:0px;word-spacing:0px;fill:#000000;fill-opacity:1;stroke:none"
       transform="matrix(0.95842652,0,0,0.92639044,139.70291,1099.0418)"><flowRegion
         id="flowRegion2989-7"><rect
           id="rect2991-2"
           width="461.81259"
           height="63.921761"
           x="120.55251"
           y="265.53046"
           style="font-style:normal;font-variant:normal;font-weight:normal;font-stretch:normal;font-family:Lavi;-inkscape-font-specification:Lavi" /></flowRegion><flowPara
         style="font-size:48px;text-align:center;text-anchor:middle"
         id="flowPara3023-5">... es ist so windig ...</flowPara></flowRoot>    <flowRoot
       xml:space="preserve"
       id="flowRoot2987-6-5"
       style="font-style:normal;font-variant:normal;font-weight:normal;font-stretch:normal;font-size:12px;line-height:125%;font-family:Lavi;-inkscape-font-specification:Lavi;letter-spacing:0px;word-spacing:0px;fill:#000000;fill-opacity:1;stroke:none"
       transform="matrix(0.95842652,0,0,0.92639044,152.05586,1413.25)"><flowRegion
         id="flowRegion2989-7-8"><rect
           id="rect2991-2-1"
           width="570.64728"
           height="189.15115"
           x="120.55251"
           y="265.53046"
           style="font-style:normal;font-variant:normal;font-weight:normal;font-stretch:normal;font-family:Lavi;-inkscape-font-specification:Lavi" /></flowRegion><flowPara
         style="font-size:48px;text-align:center;text-anchor:middle"
         id="flowPara4454">... und warum kann</flowPara><flowPara
         style="font-size:48px;text-align:center;text-anchor:middle"
         id="flowPara4225">ich durch’s Fenster</flowPara><flowPara
         style="font-size:48px;text-align:center;text-anchor:middle"
         id="flowPara4227">Komona sehen?</flowPara></flowRoot>    <flowRoot
       xml:space="preserve"
       id="flowRoot2987-6-5-6"
       style="font-style:normal;font-variant:normal;font-weight:normal;font-stretch:normal;font-size:12px;line-height:125%;font-family:Lavi;-inkscape-font-specification:Lavi;letter-spacing:0px;word-spacing:0px;fill:#000000;fill-opacity:1;stroke:#000000;stroke-width:1.84872246;stroke-miterlimit:4;stroke-dasharray:none;stroke-opacity:1"
       transform="matrix(0.78204538,0,-0.07297395,1.1138741,766.04012,1867.0593)"><flowRegion
         id="flowRegion2989-7-8-9"><rect
           id="rect2991-2-1-1"
           width="293.92557"
           height="139.87151"
           x="120.55251"
           y="265.53046"
           style="font-style:normal;font-variant:normal;font-weight:normal;font-stretch:normal;font-family:Lavi;-inkscape-font-specification:Lavi;stroke:#000000;stroke-width:1.84872246;stroke-miterlimit:4;stroke-dasharray:none;stroke-opacity:1" /></flowRegion><flowPara
         style="font-size:48px;text-align:center;text-anchor:middle;stroke:#000000;stroke-width:1.84872246;stroke-miterlimit:4;stroke-dasharray:none;stroke-opacity:1"
         id="flowPara3094-2">KOMONA!</flowPara></flowRoot>    <flowRoot
       xml:space="preserve"
       id="flowRoot2987-6-5-6-7"
       style="font-style:normal;font-variant:normal;font-weight:normal;font-stretch:normal;font-size:12px;line-height:125%;font-family:Lavi;-inkscape-font-specification:Lavi;letter-spacing:0px;word-spacing:0px;fill:#000000;fill-opacity:1;stroke:none"
       transform="matrix(0.95842652,0,0,0.92639044,1034.0476,1878.1817)"><flowRegion
         id="flowRegion2989-7-8-9-6"><rect
           id="rect2991-2-1-1-3"
           width="326.15274"
           height="189.215"
           x="114.18917"
           y="272.11386"
           style="font-style:normal;font-variant:normal;font-weight:normal;font-stretch:normal;font-family:Lavi;-inkscape-font-specification:Lavi" /></flowRegion><flowPara
         style="font-size:48px;text-align:center;text-anchor:middle"
         id="flowPara3094-2-2">Der Zaubertrank-</flowPara><flowPara
         style="font-size:48px;text-align:center;text-anchor:middle"
         id="flowPara4229">wettbewerb!</flowPara></flowRoot>    <flowRoot
       xml:space="preserve"
       id="flowRoot2987-6-5-6-7-8"
       style="font-style:normal;font-variant:normal;font-weight:normal;font-stretch:normal;font-size:12px;line-height:125%;font-family:Lavi;-inkscape-font-specification:Lavi;letter-spacing:0px;word-spacing:0px;fill:#000000;fill-opacity:1;stroke:none"
       transform="matrix(0.95842652,0,0,0.92639044,1388.8318,1892.4489)"><flowRegion
         id="flowRegion2989-7-8-9-6-7"><rect
           id="rect2991-2-1-1-3-3"
           width="554.99268"
           height="264.13297"
           x="120.55251"
           y="265.53046"
           style="font-style:normal;font-variant:normal;font-weight:normal;font-stretch:normal;font-family:Lavi;-inkscape-font-specification:Lavi" /></flowRegion><flowPara
         style="font-size:48px;text-align:center;text-anchor:middle"
         id="flowPara4461">Ich muss aus</flowPara><flowPara
         style="font-size:48px;text-align:center;text-anchor:middle"
         id="flowPara4233">Versehen eingeschlafen</flowPara><flowPara
         style="font-size:48px;text-align:center;text-anchor:middle"
         id="flowPara4235">sein!</flowPara></flowRoot>    <flowRoot
       xml:space="preserve"
       id="flowRoot2987-6-5-6-3"
       style="font-style:normal;font-variant:normal;font-weight:normal;font-stretch:normal;font-size:12px;line-height:125%;font-family:Lavi;-inkscape-font-specification:Lavi;letter-spacing:0px;word-spacing:0px;fill:#000000;fill-opacity:1;stroke:none"
       transform="matrix(0.95842652,0,0,0.92639044,999.10401,2593.9365)"><flowRegion
         id="flowRegion2989-7-8-9-3"><rect
           id="rect2991-2-1-1-36"
           width="357.43549"
           height="179.76456"
           x="120.55251"
           y="265.53046"
           style="font-style:normal;font-variant:normal;font-weight:normal;font-stretch:normal;font-family:Lavi;-inkscape-font-specification:Lavi" /></flowRegion><flowPara
         style="font-size:48px;text-align:center;text-anchor:middle"
         id="flowPara3217">... aber? </flowPara></flowRoot>    <flowRoot
       xml:space="preserve"
       id="flowRoot2987-6-5-6-3-5"
       style="font-style:normal;font-variant:normal;font-weight:normal;font-stretch:normal;font-size:12px;line-height:125%;font-family:Lavi;-inkscape-font-specification:Lavi;letter-spacing:0px;word-spacing:0px;fill:#000000;fill-opacity:1;stroke:none"
       transform="matrix(0.95842652,0,0,0.92639044,1426.147,2595.5709)"><flowRegion
         id="flowRegion2989-7-8-9-3-6"><rect
           id="rect2991-2-1-1-36-5"
           width="357.43549"
           height="179.76456"
           x="120.55251"
           y="265.53046"
           style="font-style:normal;font-variant:normal;font-weight:normal;font-stretch:normal;font-family:Lavi;-inkscape-font-specification:Lavi" /></flowRegion><flowPara
         style="font-size:48px;text-align:center;text-anchor:middle"
         id="flowPara4473">Wo bin</flowPara><flowPara
         style="font-size:48px;text-align:center;text-anchor:middle"
         id="flowPara4239">ich ?!?</flowPara></flowRoot>    <flowRoot
       xml:space="preserve"
       id="flowRoot2987-6-5-6-3-8"
       style="font-style:normal;font-variant:normal;font-weight:normal;font-stretch:normal;font-size:12px;line-height:125%;font-family:Lavi;-inkscape-font-specification:Lavi;letter-spacing:0px;word-spacing:0px;fill:#000000;fill-opacity:1;stroke:none"
       transform="matrix(0.61014531,-0.25329543,0,1.157985,1395.3419,2771.0442)"><flowRegion
         id="flowRegion2989-7-8-9-3-9"><rect
           id="rect2991-2-1-1-36-7"
           width="357.43549"
           height="179.76456"
           x="120.55251"
           y="265.53046"
           style="font-style:normal;font-variant:normal;font-weight:normal;font-stretch:normal;font-family:Lavi;-inkscape-font-specification:Lavi" /></flowRegion><flowPara
         style="font-size:48px;text-align:center;text-anchor:middle"
         id="flowPara3217-6"><flowSpan
           style="stroke:#000000;stroke-width:2.49833798;stroke-miterlimit:4;stroke-dasharray:none;stroke-opacity:1"
           id="flowSpan4084">cK? </flowSpan></flowPara></flowRoot>    <flowRoot
       xml:space="preserve"
       id="flowRoot2987-6-5-6-3-8-7"
       style="font-style:normal;font-variant:normal;font-weight:normal;font-stretch:normal;font-size:12px;line-height:125%;font-family:Lavi;-inkscape-font-specification:Lavi;letter-spacing:0px;word-spacing:0px;fill:#000000;fill-opacity:1;stroke:none"
       transform="matrix(0.61014531,-0.25329543,0,1.157985,1349.8756,2797.7657)"><flowRegion
         id="flowRegion2989-7-8-9-3-9-7"><rect
           id="rect2991-2-1-1-36-7-9"
           width="357.43549"
           height="179.76456"
           x="120.55251"
           y="265.53046"
           style="font-style:normal;font-variant:normal;font-weight:normal;font-stretch:normal;font-family:Lavi;-inkscape-font-specification:Lavi" /></flowRegion><flowPara
         style="font-size:48px;text-align:center;text-anchor:middle"
         id="flowPara3217-6-4"><flowSpan
           style="font-size:42.82865143px"
           id="flowSpan3308"><flowSpan
             style="stroke:#000000;stroke-width:1.83330417;stroke-miterlimit:4;stroke-dasharray:none;stroke-opacity:1"
             id="flowSpan4078">qua </flowSpan></flowSpan></flowPara></flowRoot>    <flowRoot
       xml:space="preserve"
       id="flowRoot2987-6-5-6-7-9"
       style="font-style:normal;font-variant:normal;font-weight:normal;font-stretch:normal;font-size:12px;line-height:125%;font-family:Lavi;-inkscape-font-specification:Lavi;letter-spacing:0px;word-spacing:0px;display:inline;fill:#000000;fill-opacity:1;stroke:none"
       transform="matrix(1.32627,0,0,1.1409864,1464.7719,1942.1676)"><flowRegion
         id="flowRegion2989-7-8-9-6-2"><rect
           id="rect2991-2-1-1-3-32"
           width="316.60767"
           height="156.29805"
           x="120.55251"
           y="265.53046"
           style="font-style:normal;font-variant:normal;font-weight:normal;font-stretch:normal;font-family:Lavi;-inkscape-font-specification:Lavi" /></flowRegion><flowPara
         style="font-size:48px;text-align:center;text-anchor:middle"
         id="flowPara3094-2-2-5">* </flowPara></flowRoot>    <flowRoot
       xml:space="preserve"
       id="flowRoot2987-4-9-9-9"
       style="font-style:normal;font-variant:normal;font-weight:normal;font-stretch:normal;font-size:12px;line-height:125%;font-family:Lavi;-inkscape-font-specification:Lavi;text-align:end;letter-spacing:0px;word-spacing:0px;text-anchor:end;fill:#000000;fill-opacity:1;stroke:none;"
       transform="matrix(0.66530597,0,0,0.68592152,1850.2377,2549.7685)"><flowRegion
         id="flowRegion2989-5-4-7-7"
         style="text-anchor:end;text-align:end;"><rect
           id="rect2991-7-9-4-3"
           width="734.95642"
           height="51.961914"
           x="59.439823"
           y="265.53046"
           style="font-style:normal;font-variant:normal;font-weight:normal;font-stretch:normal;font-family:Lavi;-inkscape-font-specification:Lavi;text-align:end;text-anchor:end;" /></flowRegion><flowPara
         style="font-size:48px;text-align:end;text-anchor:end;fill:#a0a0a0;fill-opacity:1;"
         id="flowPara3080-9-7">* siehe Episode 4 : Das Genie</flowPara></flowRoot>  </g>
</svg>
