<?xml version="1.0" encoding="UTF-8" standalone="no"?>
<!-- Created with Inkscape (http://www.inkscape.org/) -->

<svg
   xmlns:dc="http://purl.org/dc/elements/1.1/"
   xmlns:cc="http://creativecommons.org/ns#"
   xmlns:rdf="http://www.w3.org/1999/02/22-rdf-syntax-ns#"
   xmlns:svg="http://www.w3.org/2000/svg"
   xmlns="http://www.w3.org/2000/svg"
   xmlns:xlink="http://www.w3.org/1999/xlink"
   xmlns:sodipodi="http://sodipodi.sourceforge.net/DTD/sodipodi-0.dtd"
   xmlns:inkscape="http://www.inkscape.org/namespaces/inkscape"
   id="svg2"
   version="1.1"
   inkscape:version="0.91+devel r"
   width="2481"
   height="3503"
   sodipodi:docname="Pepper-and-Carrot_by-David-Revoy_E06P08.svg"
   viewBox="0 0 2481 3503">
  <metadata
     id="metadata8">
    <rdf:RDF>
      <cc:Work
         rdf:about="">
        <dc:format>image/svg+xml</dc:format>
        <dc:type
           rdf:resource="http://purl.org/dc/dcmitype/StillImage" />
        <dc:title />
      </cc:Work>
    </rdf:RDF>
  </metadata>
  <defs
     id="defs6">
    <filter
       id="filter4375-4-1-1-15-1-3-3"
       inkscape:label="deevad outline effect"
       style="color-interpolation-filters:sRGB">
      <feFlood
         id="feFlood4377-7-9-0-4-4-4-7"
         flood-opacity="1"
         flood-color="rgb(0,0,0)"
         result="flood" />
      <feComposite
         id="feComposite4379-3-8-8-6-0-7-4"
         in2="SourceGraphic"
         in="flood"
         operator="in"
         result="composite1" />
      <feMorphology
         id="feMorphology4393-1-0-49-8-2-7-3"
         operator="dilate"
         radius="0.69999999999999996"
         result="result3" />
      <feComposite
         id="feComposite4385-9-5-7-2-1-2-9"
         in2="result3"
         in="SourceGraphic"
         operator="over"
         result="composite2" />
    </filter>
    <filter
       id="filter3639"
       inkscape:label="deevad outline effect"
       style="color-interpolation-filters:sRGB">
      <feFlood
         id="feFlood3641"
         flood-opacity="1"
         flood-color="rgb(0,0,0)"
         result="flood" />
      <feComposite
         id="feComposite3643"
         in2="SourceGraphic"
         in="flood"
         operator="in"
         result="composite1" />
      <feMorphology
         id="feMorphology3645"
         operator="dilate"
         radius="0.69999999999999996"
         result="result3" />
      <feComposite
         id="feComposite3647"
         in2="result3"
         in="SourceGraphic"
         operator="over"
         result="composite2" />
    </filter>
    <filter
       id="filter3649"
       inkscape:label="deevad outline effect"
       style="color-interpolation-filters:sRGB">
      <feFlood
         id="feFlood3651"
         flood-opacity="1"
         flood-color="rgb(0,0,0)"
         result="flood" />
      <feComposite
         id="feComposite3653"
         in2="SourceGraphic"
         in="flood"
         operator="in"
         result="composite1" />
      <feMorphology
         id="feMorphology3655"
         operator="dilate"
         radius="0.69999999999999996"
         result="result3" />
      <feComposite
         id="feComposite3657"
         in2="result3"
         in="SourceGraphic"
         operator="over"
         result="composite2" />
    </filter>
  </defs>
  <sodipodi:namedview
     pagecolor="#ffffff"
     bordercolor="#666666"
     borderopacity="1"
     objecttolerance="10"
     gridtolerance="10"
     guidetolerance="10"
     inkscape:pageopacity="0"
     inkscape:pageshadow="2"
     inkscape:window-width="1920"
     inkscape:window-height="1041"
     id="namedview4"
     showgrid="false"
     inkscape:zoom="0.49190039"
     inkscape:cx="1449.9468"
     inkscape:cy="2625.8641"
     inkscape:window-x="0"
     inkscape:window-y="0"
     inkscape:window-maximized="1"
     inkscape:current-layer="layer1"
     inkscape:document-units="px" />
  <g
     inkscape:groupmode="layer"
     id="layer2"
     inkscape:label="artwork"
     sodipodi:insensitive="true">
    <image
       sodipodi:absref="/home/hsc/graphics/Projekte/peppercarrot/ep006-potion-contest/peppercarrot_ep06_translation/de_helmar/../gfx_Pepper-and-Carrot_by-David-Revoy_E06P08.png"
       xlink:href="../gfx_Pepper-and-Carrot_by-David-Revoy_E06P08.png"
       y="0"
       x="0"
       id="image10"
       height="3503"
       width="2481" />
  </g>
  <g
     inkscape:groupmode="layer"
     id="layer3"
     inkscape:label="speechbubbles" />
  <g
     inkscape:groupmode="layer"
     id="layer1"
     inkscape:label="txt">
    <path
       style="color:#000000;display:inline;overflow:visible;visibility:visible;fill:#ffffff;fill-opacity:1;fill-rule:nonzero;stroke:none;stroke-width:1px;marker:none;enable-background:accumulate"
       d="m 524.44684,1977.3621 c -14.01377,-46.3951 -40.00882,-95.7772 -45.79925,-144.3988 l -11.44029,45.6542 c -62.91152,-129.7986 -216.9307,-210.2683 -37.93418,5.9274 l 4.61436,-21.5395 c 6.85365,14.1808 24.60331,28.6882 28.47492,44.653 l 15.40082,-17.4241 c 13.28656,38.1411 31.12227,58.0858 46.68362,87.1278 z"
       id="path4032-9"
       inkscape:connector-curvature="0"
       sodipodi:nodetypes="cccccccc" />
    <path
       style="color:#000000;display:inline;overflow:visible;visibility:visible;fill:#ffffff;fill-opacity:1;fill-rule:nonzero;stroke:none;stroke-width:1px;marker:none;enable-background:accumulate"
       d="m 734.33747,2852.147 c 34.68316,-42.7494 111.27433,-68.3456 171.06944,-6.0348 45.90017,-4.9397 81.26643,-4.2641 125.92729,48.6318 -41.84055,-33.4484 -69.35796,-47.6353 -136.48501,-35.9449 -35.82358,-28.4476 -90.54377,-19.0565 -121.82817,39.1849 -31.28451,58.2414 -17.69437,44.59 -17.69437,44.59 l -30.80741,-73.5852 z"
       id="path5074-3-6"
       inkscape:connector-curvature="0"
       sodipodi:nodetypes="ccccsccc" />
    <path
       style="color:#000000;display:inline;overflow:visible;visibility:visible;fill:#ffffff;fill-opacity:1;fill-rule:nonzero;stroke:none;stroke-width:1px;marker:none;enable-background:accumulate"
       d="m 902.73639,1702.3647 c 38.32906,18.6277 26.56293,53.657 -17.25459,29.5292 30.4647,35.9116 50.91128,52.0261 35.37649,66.5249 113.16101,-28.688 40.12509,17.6202 12.35589,45.6958 25.2138,-11.1892 65.39632,-42.7141 50.24712,0.9326 8.0165,-2.0071 17.4491,-7.7553 21.4169,0.9326 10.2141,-5.9994 17.8025,-7.54 22.2405,-3.7303 10.0387,-10.9178 16.5252,-13.7923 16.4745,-1.865 9.4908,-8.9943 12.4136,-5.8987 14.827,-1.8652 16.2884,-19.3104 22.3718,-13.8628 28.8303,-9.3257 9.2223,-11.5941 20.0147,-8.9681 32.1252,5.5954 12.3911,-19.7186 25.706,-18.519 39.5387,-5.5954 4.0629,-4.8576 7.7526,-13.0937 13.1796,-5.5954 5.4916,-2.5937 10.9829,-9.2401 16.4744,-2.7977 57.96,-25.5257 83.2408,-3.9641 110.3791,14.921 15.1317,-8.3376 26.0358,-24.4528 51.8945,-13.0558 2.4173,-11.638 16.2824,-16.3634 40.3625,-14.9211 -24.6985,-14.0451 -25.9691,-22.0409 31.3015,-14.9211 -39.9179,-11.5016 -76.7041,-23.0032 -14.8271,-34.5049 -14.4922,-4.5662 -61.8613,6.1755 -9.8847,-48.4933 -36.9085,12.0657 -70.4145,15.2007 -80.7249,-33.5725 -19.9115,12.8266 -41.9579,19.1806 -59.3081,-10.2582 -15.8027,13.7936 -37.9137,10.4819 -49.4234,3.7302 -3.114,15.1069 -26.6303,38.2752 -58.4843,-3.7302 6.989,23.8751 1.6991,61.9029 -35.4201,-0.9326 -0.7362,10.9306 14.5493,70.3734 -88.9621,-0.9326 12.9121,47.8406 -21.4561,20.0035 -48.59972,3.7302 13.46032,29.9949 -6.7969,32.3145 -51.0709,14.9211 34.1543,28.4805 -0.96419,20.6172 -23.06429,19.584 z"
       id="path3549-2"
       inkscape:connector-curvature="0"
       sodipodi:nodetypes="ccccccccccccccccccccccccccccc" />
    <path
       style="color:#000000;display:inline;overflow:visible;visibility:visible;fill:#ffffff;fill-opacity:1;fill-rule:nonzero;stroke:none;stroke-width:1px;marker:none;enable-background:accumulate"
       d="m 668.18509,1745.546 c 69.53653,17.3569 140.41167,34.4313 22.06065,91.4091 114.54605,-18.2872 45.70312,13.3798 18.57367,33.6841 203.74048,-46.5908 74.45393,20.0826 26.13051,59.2199 45.01457,-16.699 115.66358,-61.3452 91.55484,-2.6831 53.11612,-29.9691 136.42698,-84.2451 39.06608,-0.4388 81.9229,-51.64 83.74348,-46.2688 40.1947,-6.6439 53.61672,-35.3418 62.79261,-29.1698 56.69116,-7.3493 33.76457,-45.699 41.2165,-25.346 51.7471,-14.5262 15.8678,-15.9875 35.7255,-13.3691 58.9328,4.8685 20.9907,-26.9342 45.3273,1.6655 45.441,27.368 17.3435,-38.7231 46.0319,-44.2083 72.847,-1.0762 0.5238,-25.817 0.131,-81.0024 41.3702,-0.087 -10.791,-74.015 123.089,-42.7473 187.6457,3.7404 -37.9973,-54.3189 -5.6236,-88.9486 73.1426,-63.9283 3.475,-15.5154 28.3422,-22.818 72.2976,-22.7929 -46.0839,-16.5749 -49.0333,-27.0066 55.801,-22.0877 -73.5902,-12.0405 -141.4787,-24.3248 -29.7394,-44.2891 -26.7481,-4.8855 -112.1345,12.9485 -21.854,-63.0964 -66.2365,18.7635 -126.9886,25.5005 -149.6396,-37.9315 -35.231,18.4426 -74.8635,28.527 -108.7933,-8.8936 -27.6735,19.3963 -68.1924,16.756 -89.6844,8.7598 -4.4676,20.1382 -45.4386,52.4817 -106.7742,-0.3602 14.6235,30.8995 8.018,81.3943 -64.5605,1.529 -0.4705,14.4528 32.087,91.5497 -162.04006,5.6965 27.31398,62.0011 -37.47181,28.0148 -88.18464,8.6956 26.89222,38.4558 -9.8038,43.0876 -91.7933,23.6265 64.44751,34.8505 -0.11537,27.228 -40.43321,27.5875 z"
       id="path3549"
       inkscape:connector-curvature="0"
       sodipodi:nodetypes="ccccccccccccccccccccccccccccc" />
    <path
       style="color:#000000;display:inline;overflow:visible;visibility:visible;fill:#ffffff;fill-opacity:1;fill-rule:nonzero;stroke:none;stroke-width:1px;marker:none;enable-background:accumulate"
       d="m 449.5896,426.349 c 35.58346,-34.48897 229.12525,-31.54474 293.52019,-16.60243 64.39467,14.94213 88.35552,40.67597 91.3506,49.80737 2.99494,9.13132 -4.4926,51.46759 -37.43886,59.7689 -32.94607,8.30121 -127.29175,12.45182 -160.238,12.45182 -32.94607,0 -138.11741,-5.2837 -164.73088,-17.43262 C 446.59424,502.72032 414.00599,460.83788 449.5896,426.349 Z"
       id="path3330"
       inkscape:connector-curvature="0"
       sodipodi:nodetypes="zsssssz" />
    <path
       style="color:#000000;display:inline;overflow:visible;visibility:visible;fill:#ffffff;fill-opacity:1;fill-rule:nonzero;stroke:none;stroke-width:1px;marker:none;enable-background:accumulate"
       d="m 900.08615,716.05926 c 42.51329,20.49356 123.80235,14.32923 138.26235,-30.35733 -49.15569,36.55167 -109.63611,20.90132 -120.75593,10.89767 -11.11981,-10.00366 -17.50642,19.45966 -17.50642,19.45966 z"
       id="path3978"
       inkscape:connector-curvature="0" />
    <path
       style="color:#000000;display:inline;overflow:visible;visibility:visible;fill:#ffffff;fill-opacity:1;fill-rule:nonzero;stroke:none;stroke-width:1px;marker:none;enable-background:accumulate"
       d="m 377.88526,691.38453 c -12.32552,-60.08041 20.54249,-219.66888 273.21659,-206.52623 252.67388,13.14241 282.07216,82.72228 299.92186,110.77304 9.17839,18.62651 87.48539,144.63427 -111.10099,168.38164 -200.99971,24.03598 -400.4096,13.73698 -462.03746,-72.62845 z"
       id="path3525"
       inkscape:connector-curvature="0"
       sodipodi:nodetypes="cscsc" />
    <flowRoot
       xml:space="preserve"
       id="flowRoot2987-4-9-3"
       style="font-style:normal;font-variant:normal;font-weight:normal;font-stretch:normal;font-size:12px;line-height:125%;font-family:Lavi;-inkscape-font-specification:Lavi;text-align:center;letter-spacing:0px;word-spacing:0px;text-anchor:middle;fill:#000000;fill-opacity:1;stroke:none"
       transform="translate(249.21469,280.27206)"><flowRegion
         id="flowRegion2989-5-4-5"><rect
           id="rect2991-7-9-6"
           width="607.28076"
           height="269.26813"
           x="120.55251"
           y="265.53046"
           style="font-style:normal;font-variant:normal;font-weight:normal;font-stretch:normal;font-family:Lavi;-inkscape-font-specification:Lavi;text-align:center;text-anchor:middle" /></flowRegion><flowPara
         style="font-size:48px;text-align:center;text-anchor:middle"
         id="flowPara4658">... wie immer hauen</flowPara><flowPara
         style="font-size:48px;text-align:center;text-anchor:middle"
         id="flowPara4229">alle genau dann ab, wenn</flowPara><flowPara
         style="font-size:48px;text-align:center;text-anchor:middle"
         id="flowPara4231">wir gerade dran sind ...</flowPara></flowRoot>    <flowRoot
       transform="translate(208.59665,162.53048)"
       style="font-style:normal;font-variant:normal;font-weight:normal;font-stretch:normal;font-size:12px;line-height:125%;font-family:Lavi;-inkscape-font-specification:Lavi;text-align:center;letter-spacing:0px;word-spacing:0px;text-anchor:middle;fill:#000000;fill-opacity:1;stroke:none"
       id="flowRoot3045"
       xml:space="preserve"><flowRegion
         id="flowRegion3047"><rect
           style="font-style:normal;font-variant:normal;font-weight:normal;font-stretch:normal;font-family:Lavi;-inkscape-font-specification:Lavi;text-align:center;text-anchor:middle"
           y="265.53046"
           x="120.55251"
           height="310.73996"
           width="602.40173"
           id="rect3049" /></flowRegion><flowPara
         id="flowPara3055"
         style="font-size:48px;text-align:center;text-anchor:middle">Da hast du’s ...</flowPara></flowRoot>    <path
       style="color:#000000;display:inline;overflow:visible;visibility:visible;fill:#ffffff;fill-opacity:1;fill-rule:nonzero;stroke:none;stroke-width:1px;marker:none;enable-background:accumulate"
       d="m 1441.4333,792.86046 c 1.8123,17.9111 3.4719,36.60072 12.514,52.57918 2.6665,4.48827 5.7379,8.94714 9.7431,12.29849 4.9422,2.55729 10.902,0.92324 14.9972,-2.48609 6.2588,-4.50938 10.9613,-11.84776 18.8831,-13.58596 5.7972,-1.12556 10.4379,3.16953 14.6457,6.42604 10.5623,8.51108 20.0337,18.50261 31.8998,25.28467 12.8634,8.50453 27.0155,16.51979 42.7488,17.47511 6.2316,0.27366 12.7888,-0.31154 18.2031,-3.68195 14.2818,-8.01643 24.173,-24.34511 22.834,-40.90808 -1.8569,-10.48428 -12.9332,-19.03038 -23.5991,-16.39316 -5.6511,1.30784 -9.507,6.21921 -11.5244,11.3814 -5.4816,8.7963 -15.7551,13.86937 -26.0014,13.88113 -8.456,0.14805 -16.8709,-2.36044 -24.0764,-6.73748 -11.3704,-3.36484 -18.2685,-13.64874 -26.3598,-21.52774 -3.7502,-3.54453 -7.9795,-7.06083 -13.0234,-8.42848 -7.6564,-0.23923 -13.3775,5.76673 -17.631,11.40618 -4.5368,5.70318 -9.1549,12.83128 -16.9484,14.04463 -5.2949,1.57023 -8.0628,-4.3141 -11.2198,-7.42808 -8.8564,-11.35341 -14.0534,-25.32791 -16.0433,-39.50562 -0.089,-1.36474 -0.067,-2.72787 -0.042,-4.09419 z"
       id="path4496"
       inkscape:connector-curvature="0"
       inkscape:transform-center-x="-99.717282"
       inkscape:transform-center-y="101.38562" />
    <path
       style="color:#000000;display:inline;overflow:visible;visibility:visible;fill:#ffffff;fill-opacity:1;fill-rule:nonzero;stroke:none;stroke-width:1px;marker:none;enable-background:accumulate"
       d="m 1554.582,795.42187 c 57.8977,-93.44304 344.0773,-85.46607 437.1891,-44.98197 93.1111,40.48363 124.7152,110.20588 127.7736,134.94616 3.0584,24.74003 -14.4146,139.44424 -64.4578,161.93554 -50.0428,22.491 -190.389,33.7364 -239.1803,33.7364 -48.7913,0 -203.7467,-14.3154 -241.3276,-47.2313 -35.9497,-31.4874 -77.8951,-144.96201 -19.997,-238.40483 z"
       id="path3330-3"
       inkscape:connector-curvature="0"
       sodipodi:nodetypes="zsssssz" />
    <flowRoot
       xml:space="preserve"
       id="flowRoot2987-4-9-3-8"
       style="font-style:normal;font-variant:normal;font-weight:normal;font-stretch:normal;font-size:12px;line-height:125%;font-family:Lavi;-inkscape-font-specification:Lavi;text-align:center;letter-spacing:0px;word-spacing:0px;text-anchor:middle;fill:#000000;fill-opacity:1;stroke:none"
       transform="translate(1398.1914,531.38886)"><flowRegion
         id="flowRegion2989-5-4-5-8"><rect
           id="rect2991-7-9-6-5"
           width="602.40173"
           height="310.73996"
           x="120.55251"
           y="265.53046"
           style="font-style:normal;font-variant:normal;font-weight:normal;font-stretch:normal;font-family:Lavi;-inkscape-font-specification:Lavi;text-align:center;text-anchor:middle" /></flowRegion><flowPara
         style="font-size:48px;text-align:center;text-anchor:middle"
         id="flowPara3140">Immerhin habe ich eine</flowPara><flowPara
         style="font-size:48px;text-align:center;text-anchor:middle"
         id="flowPara4247">Idee, was wir mit deinem</flowPara><flowPara
         style="font-size:48px;text-align:center;text-anchor:middle"
         id="flowPara4249">„Trank“ anfangen</flowPara><flowPara
         style="font-size:48px;text-align:center;text-anchor:middle"
         id="flowPara4251">können, Carrot -</flowPara></flowRoot>    <path
       style="color:#000000;display:inline;overflow:visible;visibility:visible;fill:#ffffff;fill-opacity:1;fill-rule:nonzero;stroke:none;stroke-width:1px;marker:none;enable-background:accumulate"
       d="m 1713.7449,1115.0856 c 45.3432,-69.7642 297.9262,-78.229 379.9833,-48.0038 82.0566,30.2249 100.6763,74.7656 104.4929,93.2366 3.8162,18.4709 6.1883,90.3998 -38.7725,126.384 -34.5443,27.6471 -165.1835,41.6381 -207.1664,41.6381 -41.9824,0 -176,-10.6878 -209.913,-35.2627 -32.4413,-23.5085 -73.9677,-108.228 -28.6243,-177.9922 z"
       id="path3330-7"
       inkscape:connector-curvature="0"
       sodipodi:nodetypes="zsssssz" />
    <flowRoot
       xml:space="preserve"
       id="flowRoot2987-4-9-3-8-9"
       style="font-style:normal;font-variant:normal;font-weight:normal;font-stretch:normal;font-size:12px;line-height:125%;font-family:Lavi;-inkscape-font-specification:Lavi;text-align:center;letter-spacing:0px;word-spacing:0px;text-anchor:middle;fill:#000000;fill-opacity:1;stroke:none"
       transform="translate(1523.828,830.31854)"><flowRegion
         id="flowRegion2989-5-4-5-8-6"><rect
           id="rect2991-7-9-6-5-0"
           width="602.40173"
           height="310.73996"
           x="120.55251"
           y="265.53046"
           style="font-style:normal;font-variant:normal;font-weight:normal;font-stretch:normal;font-family:Lavi;-inkscape-font-specification:Lavi;text-align:center;text-anchor:middle" /></flowRegion><flowPara
         style="font-size:48px;text-align:center;text-anchor:middle"
         id="flowPara4678">...alles wieder in</flowPara><flowPara
         style="font-size:48px;text-align:center;text-anchor:middle"
         id="flowPara4258">Ordnung bringen und</flowPara><flowPara
         style="font-size:48px;text-align:center;text-anchor:middle"
         id="flowPara4260">dann ab nach Hause!</flowPara></flowRoot>    <flowRoot
       xml:space="preserve"
       id="flowRoot2987-4-9-3-8-9-5"
       style="font-style:normal;font-variant:normal;font-weight:normal;font-stretch:normal;font-size:12px;line-height:125%;font-family:Lavi;-inkscape-font-specification:Lavi;text-align:center;letter-spacing:0px;word-spacing:0px;text-anchor:middle;fill:#000000;fill-opacity:1;stroke:none"
       transform="translate(721.21911,1432.0215)"><flowRegion
         id="flowRegion2989-5-4-5-8-6-3"><rect
           id="rect2991-7-9-6-5-0-1"
           width="602.40173"
           height="310.73996"
           x="120.55251"
           y="265.53046"
           style="font-style:normal;font-variant:normal;font-weight:normal;font-stretch:normal;font-family:Lavi;-inkscape-font-specification:Lavi;text-align:center;text-anchor:middle" /></flowRegion><flowPara
         style="font-size:48px;text-align:center;text-anchor:middle"
         id="flowPara3211-2">Du </flowPara></flowRoot>    <path
       style="color:#000000;display:inline;overflow:visible;visibility:visible;fill:#ffffff;fill-opacity:1;fill-rule:nonzero;stroke:none;stroke-width:1px;marker:none;enable-background:accumulate"
       d="m 799.55794,2061.6662 c 41.54476,-24.9583 79.49671,-56.3087 125.21587,-73.8403 l -43.51369,-5.8567 c 12.70794,-14.5474 33.04403,-20.2182 50.79008,-28.9032 l -26.26055,-7.9369 c 30.43962,-33.9774 70.07719,-50.7411 105.26895,-75.8248 l -46.93148,-10.2988 c -32.40962,29.4099 -59.34882,63.5475 -97.91175,87.6396 l 24.81802,10.2865 c -12.06842,10.1205 -24.58698,19.7921 -39.1159,27.4588 l 32.36116,10.2326 z"
       id="path4032"
       inkscape:connector-curvature="0"
       sodipodi:nodetypes="cccccccccccc" />
    <flowRoot
       transform="matrix(0.93080411,0,-0.09044116,1.21695,658.06542,1395.3539)"
       style="font-style:normal;font-variant:normal;font-weight:normal;font-stretch:normal;font-size:12px;line-height:125%;font-family:Lavi;-inkscape-font-specification:Lavi;text-align:center;letter-spacing:0px;word-spacing:0px;text-anchor:middle;fill:#000000;fill-opacity:1;stroke:#000000;stroke-width:2.71217394;stroke-miterlimit:4;stroke-dasharray:none;stroke-opacity:1"
       id="flowRoot4212-3-7-8-6"
       xml:space="preserve"><flowRegion
         id="flowRegion4214-6-7-8-3"><rect
           style="font-style:normal;font-variant:normal;font-weight:normal;font-stretch:normal;font-family:Lavi;-inkscape-font-specification:Lavi;text-align:center;text-anchor:middle;stroke:#000000;stroke-width:2.71217394;stroke-miterlimit:4;stroke-dasharray:none;stroke-opacity:1"
           y="284.74136"
           x="84.744102"
           height="333.9072"
           width="914.18988"
           id="rect4216-4-0-26-5" /></flowRegion><flowPara
         style="font-size:45.4944458px;text-align:center;letter-spacing:5.20896292px;text-anchor:middle;stroke:#000000;stroke-width:2.71217394;stroke-miterlimit:4;stroke-dasharray:none;stroke-opacity:1"
         id="flowPara3048">übergroßer, eingebildeter</flowPara><flowPara
         style="font-size:45.4944458px;text-align:center;letter-spacing:5.20896292px;text-anchor:middle;stroke:#000000;stroke-width:2.71217394;stroke-miterlimit:4;stroke-dasharray:none;stroke-opacity:1"
         id="flowPara4262">Zombie-Kanarienvogel!</flowPara></flowRoot>    <path
       style="fill:#ffffff;fill-opacity:1;stroke:none;stroke-width:0.99999994"
       d="m 829.28831,2887.5462 c -31.8639,-7.3739 -44.13335,-14.2287 -38.4337,-18.453 -13.06923,-2.1051 -18.16165,-56.9849 -5.95184,-67.0168 0.81269,-1.0561 6.51587,-4.2248 4.06491,-4.7514 -2.45083,-0.5266 -17.13956,1.0628 -19.59609,-1.0468 -2.45652,-2.1098 21.92761,-32.2002 18.65852,-33.2543 -3.26933,-1.0538 -53.93208,-5.4471 -64.56131,-10.1919 -10.62943,-4.7447 -29.32863,7.5949 -32.59591,7.0685 3.85584,-15.2985 -33.46104,2.6535 -37.54474,2.1276 -4.08341,-0.5261 -11.48655,-16.3541 -15.57017,-16.8799 -4.08371,-0.526 -22.83369,6.8701 -26.10097,6.344 -3.26729,-0.5263 -1.68112,-13.7199 -5.76483,-14.2456 -4.08361,-0.5261 -22.00225,11.0915 -24.4532,10.565 -2.45087,-0.5267 -11.52426,-26.9085 -15.61156,-28.4897 -4.0874,-1.5813 -30.10225,29.0375 -32.54953,29.5664 -2.44706,0.5287 -18.0866,-35.8766 -21.35399,-36.403 -3.26726,-0.5262 -19.50453,24.8113 -21.95555,24.2847 -2.4509,-0.5266 -18.01385,-15.2959 -21.2829,-16.3498 -3.26916,-1.0539 -24.37483,32.7288 -27.64015,32.7304 -3.26552,0 -31.07181,-14.2346 -33.53028,-16.872 -2.45841,-2.6374 -4.84942,13.7227 -8.11485,13.7242 -3.26545,0 -40.85114,-9.4809 -41.66576,-8.9529 -0.8144,0.5282 5.75193,10.5519 3.3029,10.5531 -2.44904,0 -40.86425,-13.1752 -42.48777,-10.5357 -1.6232,2.6392 -83.31444,-13.156 -89.02144,-11.0428 -5.70699,2.1135 36.88901,43.2563 32.81861,46.4243 -4.07059,3.1681 -18.77823,-0.5193 -19.5889,1.0641 -0.81068,1.5836 9.00979,8.4394 6.56841,10.5514 -2.44177,2.1119 -30.16782,10.5677 -32.60742,13.207 -2.43981,2.6399 12.27883,9.4936 9.01911,11.0783 -3.25993,1.5846 -51.38929,11.6324 -52.19624,14.2713 -0.80693,2.6389 24.54469,15.2926 21.29245,18.9882 -3.25235,3.6954 -12.22663,5.2824 -11.40091,7.9207 0.82573,2.6383 16.34767,5.7977 15.54062,8.4366 -0.80714,2.639 -8.92385,15.8353 -11.36541,17.9473 -2.44159,2.1119 17.14711,1.0478 17.15458,3.1586 0.006,2.1109 12.96143,15.2762 -31.21509,47.0969 67.86813,-24.5893 73.01342,-0.6764 99.96783,3.5333 26.9547,4.2099 16.43536,30.6001 20.52267,32.1815 4.08742,1.5814 34.25515,-8.9863 38.35002,-5.2942 4.09477,3.6924 5.75171,10.5518 9.01725,10.5504 3.26524,0 30.35347,-10.7721 34.43696,-10.2462 33.78886,-7.4847 46.67794,16.3418 39.88645,20.24 5.71624,0.5251 27.7241,-8.9835 32.6204,-9.5133 4.89626,-0.5299 9.02462,12.661 13.1027,11.6039 4.07806,-1.057 30.16764,-10.5676 34.25296,-9.514 4.08556,1.0537 7.36593,5.2739 10.62771,4.2169 3.26148,-1.0567 17.941,-5.2849 17.941,-5.2849 0,0 10.62374,3.1616 15.52186,3.1594 4.89807,0 23.31539,-13.3806 27.39345,-14.438 4.07803,-1.0571 41.82541,4.646 59.37604,37.1804 -9.93359,-38.3515 29.08508,-41.7911 34.79397,-43.3768 5.7088,-1.5857 22.86912,3.1561 24.496,1.5723 1.62717,-1.584 6.49537,-10.0294 11.39174,-10.5593 4.89624,-0.5299 16.3176,-2.6456 16.3176,-2.6456 l -1.64378,-3.1657 c 0,0 34.31652,8.4282 38.40955,11.5927 4.09291,3.1645 -2.49768,-13.7193 -4.96168,-17.94 14.70912,4.2154 58.00763,13.1673 61.28227,15.8044 3.27478,2.6371 -5.74787,-9.4965 -10.65915,-13.1882 6.53637,1.5804 12.25272,2.1056 12.25272,2.1056 l -18.82091,-12.6569 5.71081,-1.0579 c 0,0 -12.26579,-5.7996 -12.27517,-8.4382 -0.009,-2.6384 31.81704,-5.8189 31.81704,-5.8189 0,0 -13.07849,-4.7436 -9.82245,-7.3835 3.2563,-2.6401 11.4141,-4.2268 11.4141,-4.2268 l 1.60838,-6.8609 z"
       id="path5888"
       inkscape:connector-curvature="0"
       sodipodi:nodetypes="ccccccccccsccccsccccccsccsccscsccccscccscccccscccccsccccscccccccccccc" />
    <flowRoot
       xml:space="preserve"
       id="flowRoot2987-4-9-3-0"
       style="font-style:normal;font-variant:normal;font-weight:normal;font-stretch:normal;font-size:12px;line-height:125%;font-family:Lavi;-inkscape-font-specification:Lavi;text-align:center;letter-spacing:0px;word-spacing:0px;text-anchor:middle;fill:#000000;fill-opacity:1;stroke:none"
       transform="translate(80.66404,2533.3888)"><flowRegion
         id="flowRegion2989-5-4-5-1"><rect
           id="rect2991-7-9-6-4"
           width="602.40173"
           height="310.73996"
           x="120.55251"
           y="265.53046"
           style="font-style:normal;font-variant:normal;font-weight:normal;font-stretch:normal;font-family:Lavi;-inkscape-font-specification:Lavi;text-align:center;text-anchor:middle" /></flowRegion><flowPara
         style="font-size:48px;text-align:center;letter-spacing:1.5px;text-anchor:middle;stroke:#000000;stroke-width:1.10000002;stroke-miterlimit:4;stroke-dasharray:none;stroke-opacity:1"
         id="flowPara4687">Möchtest du noch einen</flowPara><flowPara
         style="font-size:48px;text-align:center;letter-spacing:1.5px;text-anchor:middle;stroke:#000000;stroke-width:1.10000002;stroke-miterlimit:4;stroke-dasharray:none;stroke-opacity:1"
         id="flowPara4266">letzten Trank probieren?</flowPara></flowRoot>    <path
       style="fill:#ffffff;fill-opacity:1;stroke:none"
       d="m 1797.6547,3221.0213 c 65.6139,10.0559 43.5411,-29.1424 39.3615,-34.0012 15.9801,8.1536 43.2078,-0.8175 14.8856,-29.198 40.2409,11.3918 20.5428,6.02 -2.8713,-24.5295 35.4451,15.5342 57.7968,5.7083 32.6194,-15.8279 36.1652,27.6918 48.9096,18.8512 25.8439,-15.5352 45.4797,35.6171 36.9692,22.2031 25.8861,4.6146 37.8746,32.1026 9.7278,-15.6704 12.6238,-15.929 2.896,-0.2589 15.1504,8.408 17.4788,8.095 2.3282,-0.3129 2.6278,-13.6711 5.5239,-13.9298 2.896,-0.2589 14.1232,12.5937 15.8839,12.2266 6.8305,4.5107 14.0232,-23.2422 13.8868,-27.5889 -2.9115,3.7697 13.7655,34.6638 19.4946,31.8484 1.6457,0.6925 21.0383,-35.5723 18.7221,-35.1591 -4.3199,0.7704 8.7544,26.5651 12.688,25.8438 3.1279,4.7786 16.0456,-7.0605 16.5407,-15.0197 -1.2167,2.2521 9.5196,37.8823 15.7437,34.7029 2.8093,6.6828 23.5928,-6.6134 25.114,-14.7361 1.9903,-2.4872 1.9139,14.105 4.1847,14.3219 -4.007,8.1765 25.2031,-1.4809 29.9303,-6.244 0.5104,0.5843 -2.8178,8.6896 -3.419,10.3829 -3.2403,9.1256 23.4647,0.9885 30.6702,-7.7798 -27.7889,43.7563 53.327,0.8958 63.0884,-5.2187 3.7445,2.4998 -30.2553,41.0184 -27.7612,44.4695 2.4943,3.4512 13.1156,0.7174 13.5109,2.3624 0.3954,1.6442 -7.1636,7.8833 -5.6903,10.1659 1.4737,2.2825 19.8581,12.6063 21.2743,15.4187 1.4162,2.8128 -9.5494,8.7264 -7.4506,10.5334 2.0988,1.807 34.5042,15.0762 34.7848,17.7802 0.2808,2.7041 -18.6966,13.7426 -16.8274,17.6694 1.8691,3.9269 7.9418,6.1133 7.0871,8.7091 -0.8548,2.5957 -11.9862,4.7452 -11.7055,7.4494 0.2808,2.7042 4.5228,16.4961 5.9964,18.7785 1.4736,2.2828 -12.0371,-0.079 -12.2666,2.0412 -0.2348,2.1195 -36.3286,9.709 19.6005,49.5612 -60.7461,-25.4505 -53.6067,-5.6882 -72.8011,-3.238 -19.1946,2.4504 -14.6843,29.6546 -17.6951,30.9735 -3.0108,1.3187 -22.8688,-11.2875 -26.1094,-7.8488 -3.2406,3.4387 -5.1222,10.2202 -7.3934,10.0032 -2.2707,-0.2155 -19.9653,-12.824 -22.8612,-12.5653 -22.7044,-9.7479 -34.2019,13.336 -29.8929,17.7 -4.0315,0.1504 -18.3271,-10.8537 -21.6761,-11.709 -3.349,-0.8554 -7.6228,12.1231 -10.3466,10.7921 -2.7239,-1.331 -19.858,-12.6064 -22.8113,-11.8174 -2.9537,0.7888 -5.6838,4.8119 -7.8399,3.5346 -2.1561,-1.2766 -11.9161,-6.4927 -11.9161,-6.4927 0,0 -7.725,2.475 -11.1313,2.1496 -3.4066,-0.3232 -24.789,-20.0382 -27.5127,-21.3694 -2.724,-1.3311 -50.4111,26.3975 -49.0523,29.7402 1.3588,3.3428 -1.9865,-35.151 -5.7884,-37.1206 -3.8018,-1.9696 -16.241,1.6615 -17.204,-0.037 -0.9634,-1.6984 -3.4513,-10.5033 -6.8003,-11.3588 -3.3491,-0.8554 -11.0676,-3.7344 -11.0676,-3.7344 l 1.4799,-3.0717 c 0,0 -24.7633,6.2022 -27.9464,9.111 -3.1832,2.9086 3.1958,-13.6169 5.3584,-17.6943 -10.6784,3.2641 -41.7444,9.3995 -44.3021,11.8325 -2.5581,2.4329 5.0071,-9.1603 8.8155,-12.5448 -4.714,1.1563 -8.7456,1.3067 -8.7456,1.3067 l 14.4356,-11.4724 -3.8595,-1.4395 c 0,0 9.1476,-5.0166 9.4345,-7.6666 0.2907,-2.6494 -21.5099,-7.9447 -21.5099,-7.9447 66.6123,1.4697 18.3026,-18.0658 -7.6932,-24.2961 z"
       id="path5888-2"
       inkscape:connector-curvature="0"
       sodipodi:nodetypes="ccccccccsccccsccccccsccsccscsccccscccscccccscccccsccccsccccccccc" />
    <path
       style="color:#000000;display:inline;overflow:visible;visibility:visible;fill:#ffffff;fill-opacity:1;fill-rule:nonzero;stroke:none;stroke-width:1px;marker:none;enable-background:accumulate"
       d="m 1949.2127,3186.2754 c -39.3897,38.4564 -118.4251,55.0326 -170.6211,-13.769 -46.1636,-0.3962 -81.2149,-5.1531 -119.4658,-62.8545 37.6962,38.0583 63.3903,55.3293 131.4185,51.4723 32.2972,32.3957 87.7359,29.3893 125.5394,-24.8478 37.8036,-54.2372 22.7273,-42.2473 22.7273,-42.2473 l 22.0999,76.6516 z"
       id="path5074-3"
       inkscape:connector-curvature="0"
       sodipodi:nodetypes="ccccsccc" />
    <flowRoot
       xml:space="preserve"
       id="flowRoot2987-4-9-3-0-3"
       style="font-style:normal;font-variant:normal;font-weight:normal;font-stretch:normal;font-size:12px;line-height:125%;font-family:Lavi;-inkscape-font-specification:Lavi;text-align:center;letter-spacing:0px;word-spacing:0px;text-anchor:middle;fill:#000000;fill-opacity:1;stroke:none"
       transform="translate(1614.3918,2901.1214)"><flowRegion
         id="flowRegion2989-5-4-5-1-6"><rect
           id="rect2991-7-9-6-4-7"
           width="602.40173"
           height="310.73996"
           x="120.55251"
           y="265.53046"
           style="font-style:normal;font-variant:normal;font-weight:normal;font-stretch:normal;font-family:Lavi;-inkscape-font-specification:Lavi;text-align:center;text-anchor:middle" /></flowRegion><flowPara
         style="font-size:48px;text-align:center;letter-spacing:1.5px;text-anchor:middle;stroke:#000000;stroke-width:1.10000002;stroke-miterlimit:4;stroke-dasharray:none;stroke-opacity:1"
         id="flowPara4202">... nicht wirklich,</flowPara><flowPara
         style="font-size:48px;text-align:center;letter-spacing:1.5px;text-anchor:middle;stroke:#000000;stroke-width:1.10000002;stroke-miterlimit:4;stroke-dasharray:none;stroke-opacity:1"
         id="flowPara4270">hm?</flowPara></flowRoot>    <path
       style="color:#000000;display:inline;overflow:visible;visibility:visible;fill:#ffffff;fill-opacity:1;fill-rule:nonzero;stroke:none;stroke-width:1px;marker:none;enable-background:accumulate"
       d="m 432.9877,1582.757 c -4.62527,14.1556 -29.80658,59.4538 -38.06244,16.2093 -42.3877,66.8706 -90.94164,55.4388 -139.14497,48.4577 -9.52731,19.5362 -7.09875,46.1647 -46.96241,47.7053 7.95498,15.9183 -3.45476,30.2003 -32.14335,43.0229 40.98017,2.4517 49.77676,11.6093 -21.84737,37.5242 55.93525,-9.943 108.31222,-17.9855 48.57741,33.848 20.66662,-3.1249 64.61473,-45.2102 55.82445,54.2176 30.8443,-37.3814 66.03449,-61.6079 122.59982,-7.3014 10.83096,-28.0111 30.03942,-49.2804 76.82521,-23.2543 5.27288,-26.7184 55.3579,-38.7619 74.64488,-37.3629 -41.4714,-20.5081 -42.72921,-38.0996 7.62637,-50.843 -92.48457,-33.4472 -21.82215,-39.6374 -9.97409,-55.1095 -69.36813,-4.1008 -42.62685,-31.5667 -33.87821,-55.3999 -76.91874,14.4742 -56.82784,-24.9365 -64.0853,-51.714 z"
       id="path3549-3"
       inkscape:connector-curvature="0"
       sodipodi:nodetypes="ccccccccccccccc" />
    <flowRoot
       transform="matrix(1.8217115,0,-0.17700578,1.8738433,-535.05413,1190.8474)"
       style="font-style:normal;font-variant:normal;font-weight:normal;font-stretch:normal;font-size:12px;line-height:125%;font-family:Lavi;-inkscape-font-specification:Lavi;text-align:center;letter-spacing:0px;word-spacing:0px;text-anchor:middle;fill:#000000;fill-opacity:1;stroke:#000000;stroke-width:2.71217394;stroke-miterlimit:4;stroke-dasharray:none;stroke-opacity:1"
       id="flowRoot4212-3-7-8-6-5"
       xml:space="preserve"><flowRegion
         id="flowRegion4214-6-7-8-3-6"><rect
           style="font-style:normal;font-variant:normal;font-weight:normal;font-stretch:normal;font-family:Lavi;-inkscape-font-specification:Lavi;text-align:center;text-anchor:middle;stroke:#000000;stroke-width:2.71217394;stroke-miterlimit:4;stroke-dasharray:none;stroke-opacity:1"
           y="265.53046"
           x="120.55251"
           height="355.03918"
           width="798.1947"
           id="rect4216-4-0-26-5-2" /></flowRegion><flowPara
         style="font-size:48px;text-align:center;letter-spacing:1.45219982px;text-anchor:middle;stroke:#000000;stroke-width:2.71217394;stroke-miterlimit:4;stroke-dasharray:none;stroke-opacity:1"
         id="flowPara4358-7-1-6">HEY !</flowPara></flowRoot>    <flowRoot
       xml:space="preserve"
       id="flowRoot4133-6-9-4-8-5-3"
       style="color:#000000;font-style:normal;font-variant:normal;font-weight:normal;font-stretch:normal;font-size:12px;line-height:125%;font-family:Arial;-inkscape-font-specification:Arial;letter-spacing:0.00204969px;word-spacing:0px;display:inline;overflow:visible;visibility:visible;fill:#ffffff;fill-opacity:1;fill-rule:nonzero;stroke:#ffffff;stroke-width:0.0836072;stroke-linecap:butt;stroke-linejoin:miter;stroke-miterlimit:4;stroke-dasharray:none;stroke-dashoffset:0;stroke-opacity:1;marker:none;filter:url(#filter4375-4-1-1-15-1-3-3);enable-background:accumulate"
       transform="matrix(8.3099216,-5.4900388,-0.26452567,16.18078,-7093.1327,-9087.3999)"><flowRegion
         id="flowRegion4135-2-9-3-5-2-6"
         style="stroke-width:0.86646658"><rect
           id="rect4137-1-7-1-2-1-4"
           width="200.00224"
           height="39.051064"
           x="1125.3193"
           y="1078.5308"
           style="color:#000000;letter-spacing:0.00204969px;display:inline;overflow:visible;visibility:visible;fill:#ffffff;fill-opacity:1;fill-rule:nonzero;stroke:#ffffff;stroke-width:0.0836072;stroke-linecap:butt;stroke-linejoin:miter;stroke-miterlimit:4;stroke-dasharray:none;stroke-dashoffset:0;stroke-opacity:1;marker:none;filter:url(#filter4375-4-1-1-15-1-3-3);enable-background:accumulate" /></flowRegion><flowPara
         id="flowPara4139-2-8-6-8-6-3"
         style="color:#000000;font-style:normal;font-variant:normal;font-weight:normal;font-stretch:normal;font-size:17.85409164px;line-height:125%;font-family:Lavi;-inkscape-font-specification:Lavi;letter-spacing:0.00204969px;word-spacing:0.00204969px;display:inline;overflow:visible;visibility:visible;fill:#ffffff;fill-opacity:1;fill-rule:nonzero;stroke:#ffffff;stroke-width:0.0836072;stroke-linecap:butt;stroke-linejoin:miter;stroke-miterlimit:4;stroke-dasharray:none;stroke-dashoffset:0;stroke-opacity:1;marker:none;filter:url(#filter4375-4-1-1-15-1-3-3);enable-background:accumulate">K<flowSpan
   style="font-size:13.08514309px"
   id="flowSpan3116">R</flowSpan><flowSpan
   id="flowSpan3122"
   style="font-size:8.7063818px">AC</flowSpan><flowSpan
   id="flowSpan3126"
   style="font-size:7.83930063px">H !</flowSpan></flowPara></flowRoot>  </g>
</svg>
