<?xml version="1.0" encoding="UTF-8" standalone="no"?>
<!-- Created with Inkscape (http://www.inkscape.org/) -->

<svg
   xmlns:dc="http://purl.org/dc/elements/1.1/"
   xmlns:cc="http://creativecommons.org/ns#"
   xmlns:rdf="http://www.w3.org/1999/02/22-rdf-syntax-ns#"
   xmlns:svg="http://www.w3.org/2000/svg"
   xmlns="http://www.w3.org/2000/svg"
   xmlns:xlink="http://www.w3.org/1999/xlink"
   xmlns:sodipodi="http://sodipodi.sourceforge.net/DTD/sodipodi-0.dtd"
   xmlns:inkscape="http://www.inkscape.org/namespaces/inkscape"
   id="svg2"
   version="1.1"
   inkscape:version="0.48.4 r9939"
   width="2481"
   height="663"
   sodipodi:docname="Pepper-and-Carrot_by-David-Revoy_E06P00.svg">
  <metadata
     id="metadata8">
    <rdf:RDF>
      <cc:Work
         rdf:about="">
        <dc:format>image/svg+xml</dc:format>
        <dc:type
           rdf:resource="http://purl.org/dc/dcmitype/StillImage" />
        <dc:title />
      </cc:Work>
    </rdf:RDF>
  </metadata>
  <defs
     id="defs6" />
  <sodipodi:namedview
     pagecolor="#ffffff"
     bordercolor="#666666"
     borderopacity="1"
     objecttolerance="10"
     gridtolerance="10"
     guidetolerance="10"
     inkscape:pageopacity="0"
     inkscape:pageshadow="2"
     inkscape:window-width="1920"
     inkscape:window-height="1005"
     id="namedview4"
     showgrid="false"
     inkscape:zoom="0.60944264"
     inkscape:cx="1211.1851"
     inkscape:cy="277.51128"
     inkscape:window-x="0"
     inkscape:window-y="25"
     inkscape:window-maximized="1"
     inkscape:current-layer="layer1" />
  <g
     inkscape:groupmode="layer"
     id="layer2"
     inkscape:label="artwork"
     sodipodi:insensitive="true">
    <image
       sodipodi:absref="/home/deevad/Production/Webcomics/2015-03-28_ep06_The-Potion-Contest/lang/la/../gfx_Pepper-and-Carrot_by-David-Revoy_E06P00.png"
       xlink:href="../gfx_Pepper-and-Carrot_by-David-Revoy_E06P00.png"
       y="0"
       x="0"
       id="image10"
       height="663"
       width="2481" />
  </g>
  <g
     inkscape:groupmode="layer"
     id="layer1"
     inkscape:label="txt"
     style="display:inline">
    <flowRoot
       xml:space="preserve"
       id="flowRoot2987"
       style="font-size:12px;font-style:normal;font-variant:normal;font-weight:normal;font-stretch:normal;line-height:125%;letter-spacing:0px;word-spacing:0px;fill:#301b0b;fill-opacity:1;stroke:none;font-family:Arial;-inkscape-font-specification:Arial"
       transform="translate(-748.4491,-120.8471)"><flowRegion
         id="flowRegion2989"><rect
           id="rect2991"
           width="2405.8"
           height="107.55731"
           x="739.22333"
           y="644.36664"
           style="fill:#301b0b;fill-opacity:1" /></flowRegion><flowPara
         id="flowPara2993"
         style="font-size:72px;font-style:normal;font-variant:normal;font-weight:normal;font-stretch:normal;text-align:center;text-anchor:middle;fill:#301b0b;fill-opacity:1;font-family:Lavi;-inkscape-font-specification:Lavi">Episodium 6 : Agon potionum</flowPara></flowRoot>    <path
       style="fill:#301b0b;fill-opacity:1;stroke:none"
       d="M 621.75 180.15625 L 606.09375 183.0625 L 590.46875 185.96875 L 581.75 189.15625 L 573.0625 192.34375 L 570.6875 194.84375 L 568.3125 197.375 L 568.5 203.34375 L 568.65625 209.3125 L 570.8125 214.3125 L 572.96875 219.3125 L 575.15625 221.34375 L 577.34375 223.375 L 582.96875 225.5 L 588.59375 227.59375 L 591.03125 230.1875 L 593.46875 232.78125 L 593.4375 242.53125 C 593.4054 247.90007 593.01126 259.55544 592.5625 268.4375 L 591.71875 284.59375 L 595.125 289.03125 C 597.15352 291.34097 599.10483 294.24006 599.8125 295.1875 L 601.09375 296.90625 L 600.46875 298.59375 L 599.8125 300.25 L 597.15625 300.84375 C 595.70768 301.23212 593.91266 301.59873 593.21875 301.8125 L 591.96875 302.1875 L 591.96875 331.25 L 592 360.3125 L 592.75 361.34375 C 593.15784 361.9117 594.75238 363.16284 596.3125 364.15625 L 599.15625 365.96875 L 598.84375 368.6875 L 598.53125 371.375 L 595.5 371.90625 L 592.46875 372.40625 L 591.96875 381.71875 L 591.4375 391.03125 L 589.71875 392.75 L 588 394.46875 L 581.6875 395.21875 L 575.34375 395.96875 L 572.9375 398.75 L 570.53125 401.5625 L 571.09375 406.34375 L 571.65625 411.125 L 573.65625 414.96875 L 575.625 418.84375 L 578.65625 421.6875 L 581.65625 424.5625 L 585.53125 426 L 589.4375 427.46875 L 601.5625 426.96875 L 613.65625 426.46875 L 623.25 424.46875 C 633.96577 422.35502 640.41876 420.18641 643.71875 417.875 L 645.90625 416.3125 L 649.6875 416.3125 L 653.46875 416.3125 L 656.78125 414.90625 C 658.6393 414.22126 662.82547 412.72144 666.15625 411.78125 C 669.48702 410.84107 674.95048 408.82929 678.28125 407.28125 C 681.61203 405.7332 686.40295 403.49185 688.9375 402.3125 C 691.47207 401.13314 694.25797 400.15625 695.125 400.15625 L 696.6875 400.15625 L 697.9375 398.65625 L 699.1875 397.15625 L 697.8125 396.65625 C 697.05607 396.38514 694.8492 396.16425 692.90625 396.15625 C 690.9633 396.14825 688.00913 396.13105 686.34375 396.09375 C 679.76483 395.94629 658.50537 397.04966 657.625 397.59375 L 656.6875 398.1875 L 652.34375 396.65625 L 648 395.15625 L 642.8125 395.125 L 637.625 395.125 L 636.375 393.59375 L 635.09375 392.0625 L 631 391.40625 L 626.875 390.75 L 624.5625 388.4375 L 622.25 386.125 L 622.25 373.03125 L 622.25 359.9375 L 623.8125 358.375 L 625.375 356.8125 L 629.09375 355.84375 C 631.16476 355.37488 635.79791 354.17762 639.40625 353.28125 C 647.91262 351.16814 665.98604 343.92849 681.46875 336.4375 L 693.75 330.5 L 701.65625 324.8125 C 706.09209 321.82014 711.8181 317.12093 714.59375 314.65625 C 717.36939 312.19156 722.2479 307.14357 725.4375 303.4375 L 731.25 296.71875 L 735.1875 288.625 L 739.125 280.5625 L 740.4375 275 L 741.75 269.46875 L 741.65625 261.875 L 741.5625 254.3125 L 739.875 247.75 L 738.1875 241.1875 L 733.34375 231.09375 L 728.5 221 L 722.09375 212.09375 L 715.6875 203.15625 L 711.125 199.125 C 708.61115 196.91223 703.74483 193.54448 700.3125 191.625 C 696.88016 189.70554 690.34302 186.75859 685.78125 185.09375 L 677.5 182.0625 L 667.78125 181.125 L 658.09375 180.1875 L 639.90625 180.15625 L 621.75 180.15625 z M 1495.0938 202.09375 L 1493.2188 204.9375 L 1491.3438 207.8125 L 1490.8438 213.40625 L 1490.3438 219 L 1488.3125 218.8125 C 1487.2022 218.72 1481.9924 216.9093 1476.7188 214.78125 L 1467.125 210.90625 L 1456.3125 211 L 1445.5 211.0625 L 1437.125 215.1875 L 1428.7812 219.34375 L 1421.7188 224.6875 C 1417.8347 227.62382 1411.5258 233.20011 1407.7188 237.09375 C 1403.9117 240.98739 1397.5294 248.53616 1393.5312 253.84375 C 1386.6394 262.99267 1375.4004 280.81291 1370.9375 289.6875 C 1367.9416 295.6447 1361.9552 313.26089 1359.1562 324.375 C 1356.3452 335.53844 1353.4919 350.1883 1352.8438 356.78125 L 1352.4062 361.34375 L 1354.5625 372.9375 C 1355.7406 379.30957 1357.6153 387.48541 1358.75 391.09375 C 1359.8847 394.70208 1362.1957 400.24459 1363.875 403.40625 L 1366.9375 409.125 L 1372.75 416 L 1378.5938 422.875 L 1383.75 426.90625 C 1386.5889 429.12676 1391.6101 432.59159 1394.9062 434.59375 L 1400.9062 438.21875 L 1408.0625 440.53125 C 1411.9965 441.79621 1417.8252 443.15529 1421 443.5625 C 1429.76 444.68604 1434.4471 444.68222 1443.0938 443.5 L 1450.9688 442.40625 L 1460.0625 439.40625 L 1469.1562 436.375 L 1480 429.625 L 1490.8438 422.875 L 1493.625 417.3125 L 1496.4375 411.78125 L 1498.4062 411.9375 L 1500.3438 412.125 L 1503.2188 410.625 L 1506.125 409.125 L 1512.875 402.375 L 1519.625 395.625 L 1524.5 386.71875 L 1529.375 377.84375 L 1531.8438 367.5625 C 1533.2072 361.90722 1534.8184 356.26137 1535.4375 355.03125 L 1536.5625 352.78125 L 1535.3438 351.3125 L 1534.0938 349.8125 L 1532.5938 350.40625 L 1531.0938 350.96875 L 1527.0938 357.3125 L 1523.0625 363.65625 L 1519.2812 367.09375 C 1517.1958 368.97793 1512.9235 372.09134 1509.7812 374 L 1504.0625 377.46875 L 1502.875 380.28125 L 1501.6562 383.09375 L 1499.0312 384.46875 C 1497.5816 385.21842 1495.5345 386.76309 1494.5 387.90625 L 1492.625 390 L 1485.5312 392.71875 L 1478.4062 395.4375 L 1475.5 398.1875 L 1472.5938 400.96875 L 1470.8125 400.5 L 1469 400.03125 L 1463.2188 402.59375 C 1460.0267 404.00538 1453.0008 406.57108 1447.625 408.3125 L 1437.875 411.5 L 1426.5938 412.03125 L 1415.3438 412.5625 L 1410.4375 410.1875 L 1405.5625 407.84375 L 1400.7812 402.9375 L 1396 398.03125 L 1393.2812 393.28125 L 1390.5938 388.5625 L 1387.7188 386.1875 C 1386.1372 384.88961 1384.1608 382.54843 1383.3438 380.96875 L 1381.875 378.09375 L 1384.2188 375.25 L 1386.5938 372.40625 L 1387.2188 364.8125 L 1387.8438 357.21875 L 1390.4375 348.25 C 1394.5714 333.98487 1399.6419 320.99832 1407.2188 305.28125 L 1414.2812 290.65625 L 1421.7188 279.46875 L 1429.125 268.3125 L 1438.5312 258.75 L 1447.9688 249.21875 L 1454.3438 245 C 1457.8557 242.68207 1462.7249 240.05355 1465.1562 239.125 L 1469.5625 237.4375 L 1472.375 238.125 L 1475.1562 238.8125 L 1478.7812 242.625 L 1482.4062 246.4375 L 1486.75 254.9375 L 1491.0938 263.40625 L 1495.4375 276.0625 L 1499.75 288.71875 L 1500.5 301.78125 L 1501.25 314.84375 L 1502.5938 318.09375 L 1503.9688 321.375 L 1504 326.71875 C 1504.01 329.65101 1504.2589 333.06346 1504.5938 334.3125 L 1505.2188 336.59375 L 1506.0938 336.59375 L 1506.9688 336.59375 L 1509.4688 331.625 L 1511.9688 326.6875 L 1513.625 319.28125 C 1514.5388 315.20037 1515.7435 309.58814 1516.2812 306.8125 C 1516.8192 304.03685 1517.937 298.48764 1518.7812 294.5 C 1520.9379 284.3157 1521.9954 276.62366 1523.375 260.5 L 1524.5625 246.5 L 1522.2188 244.59375 L 1519.9062 242.71875 L 1518.0625 242.71875 L 1516.1875 242.71875 L 1515.5625 241.6875 L 1514.9375 240.65625 L 1518.9062 236.125 L 1522.9062 231.625 L 1523.5312 228.46875 C 1523.8783 226.7331 1524.1562 223.02948 1524.1562 220.25 L 1524.1562 215.1875 L 1520.625 211.875 L 1517.125 208.5625 L 1511.6562 205.96875 L 1506.2188 203.375 L 1500.6562 202.75 L 1495.0938 202.09375 z M 638.46875 209.40625 L 640.5625 209.40625 L 642.6875 209.40625 L 646.15625 212.46875 L 649.65625 215.53125 L 651.34375 215.0625 C 652.26975 214.79511 657.46636 214.03133 662.875 213.375 L 672.6875 212.1875 L 680.4375 213.34375 L 688.1875 214.5 L 694.0625 217.125 L 699.96875 219.78125 L 704.09375 224.25 L 708.21875 228.71875 L 710.90625 234.46875 L 713.59375 240.1875 L 713.59375 249.28125 L 713.59375 258.34375 L 710.875 264.15625 C 707.36111 271.65587 702.29835 279.27127 696 286.46875 L 690.9375 292.21875 L 691.5 295.03125 L 692.0625 297.84375 L 690.53125 299.09375 L 689 300.375 L 686.8125 299.21875 L 684.65625 298.0625 L 682.65625 299.875 L 680.6875 301.65625 L 681.28125 304.09375 L 681.90625 306.5 L 680.28125 308.96875 L 678.65625 311.4375 L 674.28125 310.78125 L 669.90625 310.15625 L 660.96875 313.6875 L 652.03125 317.21875 L 640.40625 319.65625 L 628.8125 322.125 L 627.28125 321.65625 C 626.48787 321.30075 625.22516 320.49994 624.53125 319.625 L 623.25 318.03125 L 623.3125 289.1875 L 623.34375 260.375 L 624.1875 244.375 L 625 228.40625 L 627 225.71875 C 628.24403 224.36872 630.64928 221.9358 632.6875 220.59375 L 636.375 218.15625 L 636.375 215.71875 C 636.375 214.38744 636.86284 212.41751 637.4375 211.34375 L 638.46875 209.40625 z M 1877.8438 251.78125 L 1876.625 253.25 L 1875.4375 254.6875 L 1876.5 256.6875 L 1877.5625 258.6875 L 1877.8438 279.21875 L 1878.0938 299.75 L 1876.875 301.84375 L 1875.6875 303.9375 L 1869.8438 305.25 L 1864.0312 306.53125 L 1858.0625 309.65625 L 1852.125 312.78125 L 1851.5625 314.21875 L 1851.0312 315.65625 L 1852.1875 317.53125 L 1853.375 319.40625 L 1853.375 321.96875 L 1853.375 324.53125 L 1857.3125 328.78125 L 1861.2812 333.03125 L 1868.5938 333.03125 L 1875.875 333.03125 L 1876.6562 335.0625 L 1877.4375 337.09375 L 1877.5 363.90625 L 1877.5938 390.71875 L 1878.6875 396.65625 L 1879.7812 402.625 L 1881.6562 406.3125 C 1882.6895 408.33771 1884.6976 411.36615 1886.125 413.0625 L 1888.7188 416.15625 L 1893.9688 418.75 L 1899.1875 421.375 L 1904.8438 421.375 L 1910.5 421.375 L 1914.9688 418.46875 C 1917.4367 416.87239 1921.3855 413.58457 1923.7188 411.15625 L 1927.9688 406.71875 L 1929.5312 402.90625 L 1931.125 399.125 L 1929.9688 396.9375 L 1928.7812 394.75 L 1931.9062 391.9375 L 1935.0625 389.15625 L 1936.6562 385.3125 C 1937.5427 383.20765 1938.6447 379.55713 1939.0938 377.1875 L 1939.9062 372.875 L 1939.0312 372.34375 L 1938.1875 371.8125 L 1936 372.96875 C 1934.7963 373.61288 1928.6312 379.22436 1922.3125 385.40625 L 1910.8438 396.625 L 1907.7188 398.125 L 1904.625 399.625 L 1902.2812 396.90625 L 1899.9375 394.1875 L 1899.2812 388.84375 L 1898.625 383.5 L 1898.9688 355.53125 L 1899.2812 327.5625 L 1900.8125 326.1875 C 1901.6452 325.42765 1906.3184 323.29066 1911.2188 321.4375 L 1920.125 318.0625 L 1928.6875 310.40625 C 1933.2681 306.06071 1939.3963 301.02289 1942 298.90625 C 1944.6039 296.7896 1947.5086 294.43872 1948.4688 293.65625 L 1950.2188 292.21875 L 1949.7188 290.9375 L 1949.2188 289.65625 L 1943.9375 289.75 L 1938.6562 289.84375 L 1934.9688 291.40625 L 1931.2812 293 L 1923.375 293.71875 L 1915.4375 294.4375 L 1911.9062 296.1875 C 1909.9633 297.14909 1907.1119 298.22896 1905.5938 298.59375 L 1902.8438 299.25 L 1900.9688 297.375 L 1899.0938 295.5 L 1898.5 280.21875 L 1897.9375 264.9375 L 1895.8125 261.96875 L 1893.6875 258.96875 L 1887.7812 255.375 L 1881.875 251.78125 L 1879.8438 251.78125 L 1877.8438 251.78125 z M 751.34375 258.1875 L 749.46875 261.03125 L 747.59375 263.90625 L 747.09375 269.5 L 746.59375 275.09375 C 748.00017 283.27601 758.69963 297.7999 775.15625 292.21875 L 779.15625 287.71875 L 779.78125 284.5625 C 780.12835 282.82685 780.40625 279.12323 780.40625 276.34375 L 780.40625 271.28125 L 776.875 267.96875 L 773.375 264.65625 L 767.90625 262.0625 L 762.46875 259.46875 L 756.90625 258.84375 L 751.34375 258.1875 z M 1005.1875 287.875 L 1000.2812 288.4375 L 995.375 289.03125 L 987.78125 292.53125 L 980.15625 296.0625 L 974.59375 301.34375 C 971.52035 304.2504 966.53805 309.84697 963.53125 313.78125 L 958.0625 320.9375 L 953.96875 329.5 L 949.875 338.09375 L 947.6875 346.15625 L 945.5 354.25 L 945.40625 370.375 L 945.3125 386.53125 L 949.09375 397.03125 C 951.16935 402.80089 953.9859 409.47355 955.375 411.84375 L 957.90625 416.125 L 961.59375 418.40625 C 963.61505 419.65548 966.89795 421.28234 968.90625 422 C 970.91455 422.71767 973.2298 423.3055 974.0625 423.3125 C 974.8952 423.3195 977.4044 422.2114 979.625 420.84375 L 983.65625 418.34375 L 986.375 418.34375 L 989.09375 418.34375 L 990.65625 420.5625 L 992.21875 422.78125 L 997.03125 421.53125 L 1001.8438 420.28125 L 1011.1562 415.59375 L 1020.4375 410.90625 L 1025.5625 406.4375 L 1030.6562 401.96875 L 1032.6875 398.03125 C 1033.7955 395.85946 1036.4604 391.73484 1038.625 388.875 L 1042.5625 383.65625 L 1044.25 379.25 L 1045.9375 374.8125 L 1045.4375 374.28125 L 1044.9062 373.75 L 1040.2188 375.8125 C 1037.65 376.94873 1034.2442 378.80683 1032.6562 379.9375 L 1029.7812 382 L 1027.9375 382 L 1026.0625 382 L 1019.7188 386.28125 L 1013.375 390.5625 L 1012.8125 392.78125 C 1012.5048 393.98944 1011.4203 395.7072 1010.4062 396.625 L 1008.5625 398.3125 L 1006.6562 397.28125 L 1004.7188 396.25 L 996.21875 399.71875 L 987.6875 403.15625 L 980.34375 403.1875 L 973 403.1875 L 969.46875 401.71875 L 965.90625 400.21875 L 963.84375 395.5625 L 961.8125 390.90625 L 961.625 384.6875 L 961.46875 378.46875 L 966 376.25 L 970.53125 374 L 989.6875 368.90625 C 1000.2179 366.10256 1012.9243 363.11391 1017.9375 362.25 L 1027.0625 360.6875 L 1029.375 359.15625 L 1031.6875 357.65625 L 1032.75 354.9375 L 1033.7812 352.21875 L 1033.4375 334.53125 L 1033.125 316.84375 L 1029.8125 310.09375 L 1026.4688 303.34375 L 1020.2188 297.75 L 1013.9375 292.125 L 1009.5625 290 L 1005.1875 287.875 z M 849.5 292.09375 L 836.71875 297.84375 L 823.96875 303.625 L 819.5 308.15625 L 815.03125 312.6875 L 815.03125 313.90625 L 815.03125 315.09375 L 823.875 315.8125 L 832.6875 316.53125 L 834.8125 317.90625 L 836.9375 319.28125 L 838.125 323.625 L 839.3125 328 L 839.03125 363.3125 L 838.75 398.65625 L 834.21875 400.875 L 829.65625 403.125 L 823.875 403.15625 L 818.0625 403.1875 L 818.0625 404.75 L 818.0625 406.3125 L 820.46875 408.71875 L 822.875 411.125 L 828.21875 412.71875 C 831.16163 413.59269 834.38502 414.28125 835.375 414.28125 L 837.15625 414.28125 L 838.21875 416.25 L 839.25 418.1875 L 839.1875 441.21875 L 839.09375 464.25 L 838.34375 469.5625 L 837.59375 474.875 L 835.65625 476.34375 C 834.7158 477.30124 832.87171 477.82605 831.875 477.84375 L 830.0625 477.875 L 827.59375 480.375 L 825.125 482.84375 L 825.125 486.96875 L 825.125 491.09375 L 826.59375 493.9375 C 827.59205 495.37613 829.66563 498.1897 831.65625 499.9375 L 835.28125 503.125 L 839.4375 503.125 L 843.625 503.125 L 848.75 501.625 C 851.57443 500.81185 857.30528 499.20743 861.46875 498.03125 L 869.03125 495.875 L 873.71875 492.90625 L 878.375 489.9375 L 884.96875 488.125 L 891.53125 486.28125 L 894.40625 484.0625 C 899.72042 479.95563 907.6349 475.00534 911.3125 473.46875 C 913.31713 472.63116 914.9375 471.72837 914.9375 471.46875 C 914.9375 471.20912 912.92578 471 910.4375 471 C 907.94922 471 904.57217 470.70278 902.9375 470.34375 L 899.96875 469.6875 L 896.75 471.34375 L 893.5625 473 L 888.40625 472.28125 C 885.57222 471.89148 881.26438 471.60775 878.84375 471.65625 L 874.4375 471.75 L 872.75 470.84375 C 871.81725 470.34164 869.76192 469.64617 868.1875 469.3125 L 865.3125 468.71875 L 862.875 466.28125 L 860.4375 463.84375 L 860.4375 442.0625 L 860.4375 420.3125 L 862.71875 419.5 C 863.96779 419.04694 870.20976 416.92619 876.59375 414.8125 C 882.97773 412.69881 890.47435 409.84253 893.25 408.46875 C 896.02564 407.09497 901.33141 403.75785 905.03125 401.03125 L 911.75 396.0625 L 917.8125 389.5625 L 923.90625 383.09375 L 927.625 376.40625 L 931.375 369.71875 L 933.25 363.65625 L 935.125 357.59375 L 935.125 350.78125 L 935.125 343.96875 L 933.6875 339.15625 L 932.25 334.375 L 929.46875 330.375 L 926.71875 326.375 L 918.6875 320.3125 C 914.27801 316.98985 908.48981 313.16921 905.8125 311.8125 C 903.13517 310.45581 897.0001 308.20714 892.1875 306.8125 L 883.4375 304.28125 L 873.03125 304.28125 L 862.625 304.28125 L 861.03125 302.6875 C 860.33423 301.66959 859.4375 300.49369 859.4375 299.75 L 859.4375 298.40625 L 856.40625 295.875 C 854.74386 294.47618 852.50671 293.02686 851.4375 292.6875 L 849.5 292.09375 z M 1089.7812 293.71875 L 1084.1562 293.8125 L 1078.5312 293.9375 L 1069.8438 297.15625 L 1061.125 300.34375 L 1058.9062 302.71875 L 1056.6562 305.09375 L 1057 306.8125 L 1057.3438 308.53125 L 1062.4062 310.46875 L 1067.4375 312.375 L 1069.6562 311.21875 L 1071.8438 310.0625 L 1073.5312 310.71875 L 1075.25 311.375 L 1074.6562 313.59375 L 1074.0625 315.84375 L 1076.3125 318.21875 L 1078.5312 320.59375 L 1078.875 333.65625 L 1079.2188 346.6875 L 1077.9688 352 L 1076.7188 357.28125 L 1076.125 377.46875 L 1075.5 397.65625 L 1066.9375 397.6875 L 1058.3438 397.71875 L 1057.0938 398.5 L 1055.8438 399.28125 L 1055.8438 401.78125 L 1055.8438 404.28125 L 1058.3438 409.25 L 1060.875 414.21875 L 1064.5938 417.9375 L 1068.2812 421.625 L 1077.9688 420.90625 C 1083.2873 420.50883 1092.6124 419.84861 1098.7188 419.4375 L 1109.8438 418.6875 L 1114.0938 416.5 L 1118.3438 414.28125 L 1121.2188 414.28125 C 1124.4588 414.28125 1132.7088 411.84316 1136.6562 409.71875 L 1139.25 408.34375 L 1141.2812 408.875 L 1143.3438 409.40625 L 1145.0625 407.6875 L 1146.8125 405.9375 L 1145.8438 404.96875 L 1144.875 404.03125 L 1142.75 405.15625 L 1140.6562 406.28125 L 1137.875 405.59375 C 1136.337 405.22819 1134.3952 404.37113 1133.5625 403.65625 C 1132.7298 402.94136 1130.7568 402.01673 1129.1875 401.625 L 1126.3438 400.90625 L 1123.8125 402.25 L 1121.3125 403.59375 L 1119.3438 402.375 L 1117.3438 401.125 L 1115.2812 402.25 L 1113.2188 403.34375 L 1112.6562 401.25 L 1112.125 399.15625 L 1107.7812 397.21875 L 1103.4375 395.3125 L 1101.7188 392.65625 L 1099.9688 390.03125 L 1100.0938 382.21875 L 1100.1875 374.375 L 1102.75 359.28125 C 1104.1687 350.96631 1106.0736 341.86939 1106.9688 339.09375 C 1107.8637 336.3181 1109.8927 331.46446 1111.4688 328.3125 L 1114.3125 322.59375 L 1116.5938 321 L 1118.8438 319.40625 L 1124.375 319.40625 L 1129.875 319.40625 L 1132.2188 321.625 C 1133.5035 322.83203 1134.5625 324.16062 1134.5625 324.59375 C 1134.5625 325.02689 1135.706 326.51843 1137.0938 327.90625 L 1139.5938 330.4375 L 1139.5938 332.25 C 1139.5838 333.24671 1138.8854 336.09567 1138.0312 338.59375 L 1136.4688 343.125 L 1134.8125 344.40625 L 1133.1562 345.65625 L 1130.5 345.65625 L 1127.8125 345.65625 L 1126 343.65625 L 1124.1875 341.6875 L 1123.3438 342.1875 L 1122.5312 342.71875 L 1123.625 345.125 L 1124.7188 347.53125 L 1130.75 350.21875 L 1136.75 352.9375 L 1139.4375 350.375 L 1142.125 347.8125 L 1146.5938 345.8125 L 1151.0312 343.8125 L 1152.8438 336.90625 C 1153.8335 333.10981 1154.6555 329.122 1154.6875 328.03125 L 1154.75 326.0625 L 1150.5938 317.4375 L 1146.4062 308.8125 L 1143.8438 306.03125 L 1141.25 303.28125 L 1138.375 303.28125 L 1135.5312 303.28125 L 1134.625 300.875 L 1133.7188 298.5 L 1132.0312 297.84375 C 1131.1106 297.49048 1128.2738 297.21875 1125.7188 297.21875 L 1121.0625 297.21875 L 1116.6875 299.34375 L 1112.2812 301.46875 L 1106.5312 307.90625 L 1100.75 314.375 L 1099.4688 314.375 L 1098.2188 314.375 L 1098.2188 309.28125 L 1098.2188 304.21875 L 1096.7812 300.78125 L 1095.375 297.375 L 1092.5625 295.53125 L 1089.7812 293.71875 z M 1597.7188 295 L 1590.4688 295.03125 L 1583.2188 295.09375 L 1578.6875 296.6875 C 1576.2076 297.56999 1572.3087 299.397 1570 300.75 C 1567.6913 302.103 1563.1357 305.4527 1559.875 308.1875 L 1553.9375 313.15625 L 1550.7188 318.5625 C 1548.9507 321.53468 1546.2792 327.05951 1544.7812 330.84375 L 1542.0625 337.71875 L 1543.2812 338.90625 L 1544.5 340.125 L 1546.9062 337.09375 C 1548.2406 335.42836 1549.9161 333.45601 1550.625 332.71875 C 1551.3339 331.9815 1555.3053 328.83913 1559.4688 325.75 L 1567.0625 320.15625 L 1575.125 316.21875 L 1583.2188 312.28125 L 1591.2812 312.5625 L 1599.3438 312.84375 L 1601.1875 316.59375 L 1603 320.3125 L 1604.125 330.125 L 1605.2188 339.9375 L 1603.0938 341.65625 L 1601 343.375 L 1592.0938 345.59375 L 1583.2188 347.8125 L 1571.0938 353.6875 L 1558.9688 359.59375 L 1553.3438 363.65625 L 1547.7188 367.75 L 1543.9375 373.21875 L 1540.1562 378.71875 L 1537.7188 385.4375 L 1535.25 392.1875 L 1535.25 397 L 1535.25 401.8125 L 1536.7812 406.9375 L 1538.3125 412.0625 L 1542.1875 415.5625 L 1546.0938 419.09375 L 1551.4375 420.875 L 1556.8125 422.65625 L 1565.9688 422.0625 L 1575.125 421.5 L 1582.9688 418.90625 C 1587.2863 417.48082 1593.5734 415.166 1596.9375 413.75 L 1603.0625 411.15625 L 1604.5 412.34375 L 1605.9062 413.53125 L 1605.9062 415.28125 L 1605.9062 417.0625 L 1607.9375 419.65625 L 1610 422.25 L 1612.25 422.65625 C 1613.488 422.89537 1614.7468 423.1744 1615.0625 423.25 C 1615.3781 423.3256 1618.1099 422.66582 1621.125 421.78125 L 1626.5938 420.15625 L 1631.9375 417.125 L 1637.2812 414.09375 L 1638.9062 411.59375 L 1640.5625 409.125 L 1641.3438 404.1875 L 1642.125 399.28125 L 1646.2188 393.09375 C 1648.4773 389.69303 1650.3125 386.48462 1650.3125 385.96875 L 1650.3125 385.03125 L 1649.125 385.03125 C 1647.7707 385.03125 1641.4405 387.81139 1632.9688 392.15625 C 1629.8073 393.77757 1626.742 395.125 1626.1562 395.125 L 1625.0938 395.125 L 1625.0938 393.21875 L 1625.0938 391.3125 L 1628.0938 384.875 C 1629.7459 381.34312 1631.3898 376.99167 1631.75 375.1875 L 1632.4062 371.90625 L 1630.3125 371.90625 L 1628.25 371.90625 L 1627.625 372.90625 C 1627.2819 373.46138 1626.5536 373.9375 1626.0312 373.9375 L 1625.0938 373.9375 L 1625.0625 365.09375 C 1625.0525 360.23637 1624.6282 349.85638 1624.0938 342.03125 L 1623.125 327.8125 L 1621.9688 322.34375 L 1620.8125 316.90625 L 1618.375 311.65625 L 1615.9375 306.4375 L 1612.2188 303.1875 L 1608.5312 299.9375 L 1603.125 297.46875 L 1597.7188 295 z M 2016.7188 295.375 L 2009.4375 295.40625 L 2002.1875 295.4375 L 1997.6875 297.0625 C 1995.2076 297.94499 1991.2774 299.772 1988.9688 301.125 C 1986.6599 302.478 1982.1044 305.8277 1978.8438 308.5625 L 1972.9062 313.53125 L 1969.6875 318.9375 C 1967.9196 321.9097 1965.2479 327.43451 1963.75 331.21875 L 1961.0312 338.09375 L 1962.25 339.28125 L 1963.4688 340.46875 L 1965.9062 337.46875 C 1967.2406 335.80336 1968.8848 333.83101 1969.5938 333.09375 C 1970.3027 332.3565 1974.3053 329.21413 1978.4688 326.125 L 1986.0312 320.5 L 1994.125 316.59375 L 2002.1875 312.65625 L 2010.25 312.9375 L 2018.3438 313.21875 L 2020.1562 316.96875 L 2021.9688 320.6875 L 2023.0938 330.5 L 2024.2188 340.3125 L 2022.0938 342.03125 L 2019.9688 343.75 L 2011.0625 345.96875 L 2002.1875 348.15625 L 1990.0625 354.0625 L 1977.9688 359.96875 L 1972.3125 364.03125 L 1966.6875 368.125 L 1962.9062 373.59375 L 1959.125 379.09375 L 1956.6875 385.8125 L 1954.25 392.5625 L 1954.25 397.375 L 1954.25 402.1875 L 1955.75 407.3125 L 1957.2812 412.4375 L 1961.1875 415.9375 L 1965.0625 419.46875 L 1970.4375 421.25 L 1975.7812 423.03125 L 1984.9375 422.4375 L 1994.125 421.875 L 2001.9688 419.28125 C 2006.2567 417.76928 2012.5734 415.541 2015.9375 414.125 L 2022.0312 411.53125 L 2023.4688 412.71875 L 2024.9062 413.90625 L 2024.9062 415.65625 L 2024.9062 417.4375 L 2026.9375 420 L 2028.9688 422.59375 L 2031.2188 423.03125 C 2032.4567 423.27037 2033.7468 423.5494 2034.0625 423.625 C 2034.3781 423.7006 2037.0786 423.04079 2040.0938 422.15625 L 2045.5938 420.53125 L 2050.9375 417.5 L 2056.25 414.46875 L 2057.9062 411.96875 L 2059.5312 409.46875 L 2060.3125 404.5625 L 2061.0938 399.625 L 2065.1875 393.46875 C 2067.4462 390.06803 2069.3125 386.85962 2069.3125 386.34375 L 2069.3125 385.40625 L 2068.0938 385.40625 C 2066.7393 385.40625 2060.4093 388.18639 2051.9375 392.53125 C 2048.7761 394.15257 2045.7107 395.5 2045.125 395.5 L 2044.0625 395.5 L 2044.0625 393.59375 L 2044.0625 391.6875 L 2047.0625 385.25 C 2048.7147 381.71812 2050.3585 377.36667 2050.7188 375.5625 L 2051.375 372.28125 L 2049.3125 372.28125 L 2047.2188 372.28125 L 2046.5938 373.28125 C 2046.2506 373.83638 2045.5536 374.28125 2045.0312 374.28125 L 2044.0625 374.28125 L 2044.0625 365.46875 C 2044.0525 360.61137 2043.5969 350.23138 2043.0625 342.40625 L 2042.0938 328.1875 L 2040.9375 322.71875 L 2039.8125 317.28125 L 2037.3438 312.03125 L 2034.9062 306.8125 L 2031.2188 303.5625 L 2027.5 300.3125 L 2022.125 297.84375 L 2016.7188 295.375 z M 1804.4062 299.03125 L 1796.9375 299.625 L 1789.4375 300.25 L 1783.9375 302.78125 C 1780.9038 304.17007 1775.5755 307.32796 1772.0938 309.8125 L 1765.75 314.34375 L 1762.75 318.125 C 1759.0279 322.84834 1754.4153 332.03659 1751.5625 340.375 L 1749.375 346.71875 L 1748.4062 353.5 L 1747.4062 360.3125 L 1747.4062 369.59375 L 1747.375 378.875 L 1748.5 384.21875 L 1749.5938 389.5625 L 1752.5312 395.625 L 1755.5 401.6875 L 1759.4375 406.3125 L 1763.4062 410.9375 L 1768.75 414.59375 L 1774.125 418.28125 L 1779.6875 419.8125 L 1785.2188 421.3125 L 1797.8438 421.09375 L 1810.4688 420.84375 L 1815.8438 417.875 L 1821.25 414.875 L 1825.9375 409.71875 C 1828.5247 406.884 1831.5551 402.89621 1832.6562 400.84375 L 1834.6562 397.125 L 1833.4062 395.125 C 1832.7215 394.02855 1832.1562 392.42146 1832.1562 391.5625 L 1832.1562 390 L 1835.6875 387.9375 L 1839.1875 385.875 L 1840.2188 382.15625 C 1840.521 380.06526 1841.9768 374.5936 1842.875 369.875 L 1844.5312 361.3125 L 1843.9688 351.71875 L 1843.375 342.125 L 1841.7812 336.0625 C 1840.8973 332.73173 1838.5831 326.67925 1836.6562 322.59375 L 1833.1562 315.15625 L 1830.0625 311.21875 L 1826.9375 307.28125 L 1822.7188 304.8125 L 1818.5 302.34375 L 1811.4375 300.6875 L 1804.4062 299.03125 z M 1717 299.0625 L 1711.4375 301.75 L 1705.9062 304.46875 L 1701.1562 310.4375 L 1696.4062 316.375 L 1695.25 316.375 L 1694.125 316.40625 L 1693.4688 313.125 L 1692.8125 309.84375 L 1690.5625 307.1875 C 1689.3333 305.73691 1687.1586 303.82195 1685.7188 302.90625 L 1683.0938 301.21875 L 1670.3125 303.5 L 1657.5 305.78125 L 1657.7812 307.15625 L 1658.0625 308.5625 L 1663.2188 310.46875 L 1668.375 312.40625 L 1670.1562 314.34375 L 1671.9375 316.3125 L 1672.9375 321.15625 L 1673.9375 325.96875 L 1673.7188 361.3125 L 1673.5 396.625 L 1672.5312 397.8125 L 1671.5625 399 L 1667.375 399.71875 L 1663.2188 400.40625 L 1660.375 403.25 L 1657.5625 406.0625 L 1657.5625 408.03125 L 1657.5625 409.96875 L 1660.1562 413.90625 C 1661.5829 416.06545 1663.7273 418.68059 1664.9375 419.71875 L 1667.125 421.59375 L 1676.2188 420.875 C 1681.2131 420.45146 1689.6216 419.82966 1694.9062 419.4375 L 1704.5312 418.71875 L 1707.75 416.8125 L 1711 414.90625 L 1712.5625 410.96875 L 1714.125 407.03125 L 1720.7812 400.65625 L 1727.4062 394.28125 L 1726.6875 393.125 L 1725.9688 391.96875 L 1724.3125 392.6875 C 1723.3662 393.00254 1719.9245 393.50651 1716.5938 393.65625 C 1713.263 393.806 1708.0532 394.39118 1705 394.9375 L 1699.4375 395.9375 L 1698.2188 394.9375 C 1697.5531 394.39372 1696.4924 392.34046 1695.8438 390.375 L 1694.6562 386.8125 L 1695.3438 379.59375 C 1696.4219 368.0342 1699.9113 346.59889 1701.625 341.125 C 1702.494 338.34936 1704.1396 333.91811 1705.25 331.28125 L 1707.25 326.5 L 1709.7812 326.5 L 1712.3125 326.5 L 1715.625 328.53125 L 1718.9062 330.5625 L 1720.625 334.84375 L 1722.3438 339.09375 L 1722.4375 347.4375 L 1722.5312 355.75 L 1724.1875 355.75 L 1725.8125 355.75 L 1727.5312 352.46875 C 1728.4813 350.66459 1730.606 347.15433 1732.25 344.65625 L 1735.25 340.125 L 1736.6875 327.03125 L 1738.125 313.9375 L 1736.7812 311.375 C 1735.0747 308.11039 1730.5734 303.93484 1726.6875 302 C 1725.0221 301.17079 1722.1464 300.17632 1720.3125 299.78125 L 1717 299.0625 z M 770.28125 301.0625 L 757.5 303.34375 L 744.6875 305.625 L 744.96875 307 L 745.25 308.40625 L 750.40625 310.3125 L 755.5625 312.25 L 757.34375 314.1875 L 759.125 316.15625 L 760.125 321 L 761.125 325.8125 L 760.90625 361.15625 L 760.6875 396.46875 L 759.71875 397.65625 L 758.75 398.84375 L 754.5625 399.5625 L 750.40625 400.25 L 747.5625 403.09375 L 744.75 405.90625 L 744.75 407.875 L 744.75 409.8125 L 747.34375 413.75 C 748.77045 415.9092 750.9148 418.52434 752.125 419.5625 L 754.3125 421.4375 L 763.40625 420.71875 C 768.40055 420.29521 776.80915 419.67341 782.09375 419.28125 L 791.71875 418.5625 L 794.9375 416.65625 L 798.1875 414.75 L 799.75 410.8125 L 801.3125 406.875 L 807.96875 400.5 L 814.59375 394.125 L 813.875 392.96875 L 813.15625 391.8125 L 811.5 392.53125 C 810.5537 392.84629 807.11195 393.35026 803.78125 393.5 C 800.45045 393.64975 795.2407 394.23493 792.1875 394.78125 L 786.625 395.78125 L 785.40625 394.78125 C 784.74065 394.23747 783.67985 392.18421 783.03125 390.21875 L 781.84375 386.65625 L 782.53125 379.4375 C 782.25015 358.25274 782.12084 347.62167 782.0625 341.28125 C 782.2478 343.55304 781.91703 325.36858 782.0625 341.21875 C 781.9687 339.87981 781.75738 333.5419 781.3125 316.25 L 780.65625 312.96875 L 780 309.6875 L 777.75 307.03125 C 776.5208 305.58066 774.34605 303.6657 772.90625 302.75 L 770.28125 301.0625 z M 1009.75 307.8125 L 1011.8438 311.34375 L 1013.9375 314.875 L 1013.8125 326.59375 L 1013.6562 338.3125 L 1012.5625 340.375 L 1011.4375 342.46875 L 1005.125 344.53125 C 1001.6497 345.67453 992.6818 347.96497 985.1875 349.625 C 977.6933 351.28504 970.53025 352.9507 969.28125 353.3125 L 967 353.96875 L 967 351.71875 L 967 349.4375 L 971.1875 341.75 C 973.4894 337.51819 977.1739 331.68852 979.375 328.78125 L 983.375 323.46875 L 982.78125 321.03125 L 982.15625 318.5625 L 983.8125 316.90625 L 985.46875 315.25 L 987.875 315.84375 L 990.25 316.4375 L 996.46875 312.21875 L 1002.6875 308 L 1006.2188 307.90625 L 1009.75 307.8125 z M 1799.2188 316.40625 L 1802.5312 316.40625 L 1805.8438 316.40625 L 1811.2188 320.78125 C 1814.1731 323.18762 1817.813 325.95501 1819.3125 326.9375 L 1822.0312 328.71875 L 1822 333.40625 C 1821.977 335.98506 1822.2558 344.48151 1822.625 352.28125 L 1823.3125 366.46875 L 1822.1875 373.625 L 1821.0625 380.78125 L 1819.125 385.375 L 1817.1562 389.9375 L 1813.2812 393.78125 L 1809.4375 397.65625 L 1803.8438 398.90625 C 1800.7822 399.60016 1796.7079 400.1126 1794.7812 400.0625 C 1789.911 399.93594 1784.8352 398.36114 1781.3438 395.875 L 1778.375 393.75 L 1774 384.5625 L 1769.6562 375.34375 L 1768.9688 369.4375 L 1768.25 363.53125 L 1766.4062 361.9375 L 1764.5312 360.34375 L 1764.5312 358.78125 L 1764.5312 357.21875 L 1768.5312 352.40625 C 1770.7223 349.75494 1772.71 346.82184 1772.9688 345.875 C 1773.2273 344.92816 1773.7238 342.48406 1774.0625 340.46875 L 1774.6875 336.8125 L 1778.5312 330.875 L 1782.3438 324.9375 L 1785.5938 322.21875 L 1788.8438 319.46875 L 1794.0312 317.9375 L 1799.2188 316.40625 z M 879.125 327.03125 L 887.6875 327.0625 L 896.28125 327.09375 L 902.03125 328.8125 L 907.75 330.53125 L 910.875 333.1875 C 912.59724 334.63668 914.68724 337.08455 915.5 338.65625 L 916.96875 341.53125 L 916.96875 345.875 L 916.96875 350.21875 L 914.09375 356.25 L 911.1875 362.3125 L 906.3125 368.1875 L 901.4375 374.09375 L 893.3125 380.625 L 885.1875 387.15625 L 876.25 391.625 C 871.33619 394.09409 866.79373 396.11065 866.15625 396.09375 C 865.51877 396.07685 864.19023 395.59709 863.21875 395.03125 L 861.46875 394 L 861.46875 363.75 L 861.46875 333.53125 L 864.71875 331.53125 L 867.96875 329.5625 L 873.53125 328.3125 L 879.125 327.03125 z M 1243.6562 335.21875 L 1238.1875 336.4375 L 1232.7188 337.6875 L 1228.2812 340.5 L 1223.8438 343.28125 L 1219.5625 348.40625 L 1215.2812 353.5625 L 1213.25 358.09375 L 1211.25 362.625 L 1210.625 367.3125 L 1209.9688 371.96875 L 1212.2188 374.375 L 1214.4688 376.75 L 1212.875 379.78125 L 1211.3125 382.8125 L 1212.75 384 L 1214.2188 385.1875 L 1213.5938 388.21875 L 1213 391.25 L 1215.8438 397.1875 L 1218.6562 403.125 L 1210.8438 411.3125 L 1203 419.53125 L 1199.8125 426.25 L 1196.625 432.96875 L 1196.6562 440.53125 L 1196.6875 448.09375 L 1198.9375 452.375 C 1200.1718 454.71886 1202.6242 458.25596 1204.375 460.25 L 1207.5625 463.875 L 1212.6875 466.5 C 1215.5131 467.93255 1220.0993 469.91692 1222.875 470.90625 L 1227.9062 472.6875 L 1233 472.75 L 1238.0938 472.84375 L 1247.6562 469.84375 L 1257.1875 466.84375 L 1262.75 463.3125 C 1265.8032 461.36329 1268.9112 459.7642 1269.6562 459.75 C 1270.4015 459.7358 1272.151 460.63974 1273.5625 461.75 C 1274.974 462.86026 1276.7556 463.75 1277.5 463.75 C 1278.2444 463.75 1280.3387 464.6736 1282.1562 465.78125 L 1285.4375 467.78125 L 1288.5625 467.78125 L 1291.6562 467.78125 L 1294.0312 465.25 L 1296.4062 462.71875 L 1297.8125 458.9375 C 1298.5801 456.86006 1299.3032 454.53475 1299.4062 453.75 L 1299.5938 452.3125 L 1295.5312 449.21875 C 1293.305 447.50542 1290.1888 445.15746 1288.5938 444 L 1285.6875 441.875 L 1287.8438 436.125 L 1290 430.375 L 1290 425.46875 L 1290 420.5625 L 1291.375 420.03125 C 1292.1366 419.73895 1294.9796 419.17434 1297.6875 418.78125 L 1302.625 418.0625 L 1305.7812 414.9375 C 1307.5231 413.2042 1312.1771 408.82709 1316.125 405.21875 L 1323.3125 398.65625 L 1323.3125 397.3125 L 1323.3125 395.96875 L 1318 396.59375 C 1315.0856 396.92373 1307.2553 397.37471 1300.5938 397.59375 L 1288.4688 397.96875 L 1283.4375 399.125 C 1280.6618 399.75568 1274.6173 401.43956 1270 402.875 L 1261.5938 405.5 L 1260.1562 406.9375 L 1258.7188 408.375 L 1258.7188 410.5 L 1258.7188 412.59375 L 1261.2188 415.90625 L 1263.75 419.21875 L 1267.5312 419.53125 L 1271.3125 419.84375 L 1271.125 422.71875 L 1270.9062 425.5625 L 1269.7188 427.03125 L 1268.5 428.46875 L 1259.3125 418.71875 C 1254.2578 413.3525 1249.7539 408.30629 1249.2812 407.5 L 1248.4062 406.03125 L 1251.4375 403.34375 C 1253.0996 401.86848 1256.1184 398.17821 1258.1562 395.125 C 1260.1943 392.07179 1263.6171 387.34089 1265.75 384.625 L 1269.625 379.6875 L 1271.8438 372.625 L 1274.0625 365.5625 L 1273.5625 361.71875 L 1273.0312 357.875 L 1269.375 351.8125 L 1265.6875 345.75 L 1259.9375 342.15625 L 1254.1562 338.5625 L 1248.9062 336.875 L 1243.6562 335.21875 z M 1242.5938 356.53125 L 1245.625 357.78125 L 1248.6562 359.03125 L 1251.1562 362.03125 L 1253.6562 365 L 1253.6562 368.1875 L 1253.6562 371.40625 L 1251.7188 374.59375 L 1249.75 377.78125 L 1241.9688 384.4375 C 1237.6828 388.0944 1233.8399 391.09375 1233.4375 391.09375 C 1232.0354 391.09375 1230.2632 388.12336 1228.8438 383.40625 L 1227.4062 378.65625 L 1227.4062 374.75 L 1227.4062 370.84375 L 1228.7812 367.59375 C 1229.5298 365.80742 1231.3696 362.87905 1232.875 361.09375 L 1235.5938 357.84375 L 1239.0938 357.1875 L 1242.5938 356.53125 z M 1595.0625 363.3125 L 1596.5625 365.59375 L 1598.0938 367.875 L 1600.0312 367.875 L 1601.9688 367.875 L 1604.4375 370.34375 L 1606.9375 372.8125 L 1606.9375 377.03125 L 1606.9375 381.25 L 1604.9062 384.5 L 1602.9062 387.78125 L 1599.0938 390.375 C 1597.0095 391.81263 1592.7333 394.16183 1589.5938 395.59375 L 1583.9062 398.21875 L 1576.1562 399.6875 L 1568.4062 401.1875 L 1562.9375 401.1875 L 1557.5 401.1875 L 1555.9062 398.6875 L 1554.2812 396.21875 L 1554.9688 393.90625 C 1555.3477 392.63003 1556.7411 389.93983 1558.0938 387.9375 L 1560.5625 384.3125 L 1565.3125 380.9375 C 1567.9289 379.09193 1571.7659 376.12153 1573.8125 374.3125 L 1577.5312 371.03125 L 1584.3438 368.90625 L 1591.1875 366.78125 L 1593.125 365.0625 L 1595.0625 363.3125 z M 2014.0312 363.6875 L 2015.5625 365.96875 L 2017.0625 368.25 L 2019 368.25 L 2020.9375 368.25 L 2023.4375 370.71875 L 2025.9062 373.1875 L 2025.9062 377.40625 L 2025.9062 381.625 L 2023.875 384.875 L 2021.875 388.15625 L 2018.0938 390.75 C 2016.0095 392.18763 2011.7332 394.53684 2008.5938 395.96875 L 2002.875 398.59375 L 1995.125 400.0625 L 1987.375 401.53125 L 1981.9375 401.53125 L 1976.5 401.53125 L 1974.875 399.0625 L 1973.25 396.59375 L 1973.9375 394.28125 C 1974.3166 393.00503 1975.7411 390.31483 1977.0938 388.3125 L 1979.5625 384.6875 L 1984.3125 381.3125 C 1986.8271 379.33042 1990.7347 376.49654 1992.7812 374.6875 L 1996.5 371.375 L 2003.3438 369.28125 L 2010.1562 367.15625 L 2012.0938 365.4375 L 2014.0312 363.6875 z M 1229.5312 421.375 L 1230.75 421.375 L 1231.9688 421.375 L 1242.375 431.5625 L 1252.7812 441.75 L 1252.3125 443.03125 L 1251.8125 444.3125 L 1247.375 446.46875 L 1242.9375 448.625 L 1236.4375 448.59375 L 1229.9375 448.5625 L 1227.9062 447.4375 C 1226.7959 446.82855 1223.9843 444.37593 1221.625 441.96875 L 1217.3125 437.59375 L 1217.3125 436.21875 L 1217.3125 434.84375 L 1220.5938 431.8125 C 1222.398 430.14544 1225.1372 427.10593 1226.6875 425.0625 L 1229.5312 421.375 z "
       id="path4376" />
  </g>
</svg>
