<?xml version="1.0" encoding="UTF-8" standalone="no"?>
<!-- Created with Inkscape (http://www.inkscape.org/) -->

<svg
   xmlns:dc="http://purl.org/dc/elements/1.1/"
   xmlns:cc="http://creativecommons.org/ns#"
   xmlns:rdf="http://www.w3.org/1999/02/22-rdf-syntax-ns#"
   xmlns:svg="http://www.w3.org/2000/svg"
   xmlns="http://www.w3.org/2000/svg"
   xmlns:xlink="http://www.w3.org/1999/xlink"
   xmlns:sodipodi="http://sodipodi.sourceforge.net/DTD/sodipodi-0.dtd"
   xmlns:inkscape="http://www.inkscape.org/namespaces/inkscape"
   id="svg2"
   version="1.1"
   inkscape:version="0.48.4 r9939"
   width="2481"
   height="3503"
   sodipodi:docname="Pepper-and-Carrot_by-David-Revoy_E06P02.svg">
  <metadata
     id="metadata8">
    <rdf:RDF>
      <cc:Work
         rdf:about="">
        <dc:format>image/svg+xml</dc:format>
        <dc:type
           rdf:resource="http://purl.org/dc/dcmitype/StillImage" />
        <dc:title />
      </cc:Work>
    </rdf:RDF>
  </metadata>
  <defs
     id="defs6" />
  <sodipodi:namedview
     pagecolor="#ffffff"
     bordercolor="#666666"
     borderopacity="1"
     objecttolerance="10"
     gridtolerance="10"
     guidetolerance="10"
     inkscape:pageopacity="0"
     inkscape:pageshadow="2"
     inkscape:window-width="1920"
     inkscape:window-height="1005"
     id="namedview4"
     showgrid="false"
     inkscape:zoom="0.46000001"
     inkscape:cx="920.43583"
     inkscape:cy="818.8138"
     inkscape:window-x="0"
     inkscape:window-y="25"
     inkscape:window-maximized="1"
     inkscape:current-layer="layer1" />
  <g
     inkscape:groupmode="layer"
     id="layer2"
     inkscape:label="artwork"
     sodipodi:insensitive="true">
    <image
       sodipodi:absref="/home/deevad/Production/Webcomics/2015-03-28_ep06_The-Potion-Contest/lang/la/../gfx_Pepper-and-Carrot_by-David-Revoy_E06P02.png"
       xlink:href="../gfx_Pepper-and-Carrot_by-David-Revoy_E06P02.png"
       y="0"
       x="0"
       id="image10"
       height="3503"
       width="2481" />
  </g>
  <g
     inkscape:groupmode="layer"
     id="layer3"
     inkscape:label="speechbubbles" />
  <g
     inkscape:groupmode="layer"
     id="layer1"
     inkscape:label="txt">
    <path
       style="fill:#ffffff;stroke:none"
       d="m 1132.7177,2721.2257 c 135.5001,-128.2224 200.0239,-172.4369 303.2622,-190.1228 103.2381,-17.6857 394.8711,-0.1516 477.4766,95.0614 86.8277,100.0797 139.8017,280.7627 139.8017,446.5675 4.3016,48.636 -10.7539,55.2682 -10.7539,55.2682 l -53.7699,-39.7932 c 0,0 32.2619,64.1112 19.3571,-59.6896 -12.9047,-123.801 -70.7991,-330.2166 -143.9262,-400.96 -73.1271,-70.7432 -343.8302,-98.6292 -458.2966,-69.9255 -92.6876,23.2424 -148.1467,52.739 -273.151,163.594 z"
       id="path3187"
       inkscape:connector-curvature="0"
       sodipodi:nodetypes="csscccsssc" />
    <path
       style="color:#000000;fill:#ffffff;fill-opacity:1;fill-rule:nonzero;stroke:none;stroke-width:1px;marker:none;visibility:visible;display:inline;overflow:visible;enable-background:accumulate"
       d="m 1610.4429,2516.7957 c 8.1544,-48.1341 92.7837,-70.6089 120.9418,-67.1054 28.1582,3.5033 100.5856,18.5965 117.9477,19.2121 17.3622,0.6156 80.4936,-5.9136 103.3369,-7.6087 22.8432,-1.6951 50.0607,44.3607 47.4754,63.0569 -2.5853,18.6961 -21.1094,70.6452 -80.9301,74.7867 -59.8207,4.1417 -139.9548,-6.2147 -156.37,-0.5341 -16.4155,5.6805 -87.0876,9.4373 -112.7435,-9.0076 -25.656,-18.445 -47.8126,-24.6656 -39.6582,-72.7999 z"
       id="path4554"
       inkscape:connector-curvature="0"
       sodipodi:nodetypes="zsssssssz" />
    <path
       style="fill:#ffffff;stroke:none"
       d="m 697.54853,2099.3875 c 30.24788,20.3454 69.46645,28.5957 104.81474,18.1905 25.04315,-7.3659 46.51156,-25.2296 59.1682,-47.963 11.37636,-19.4744 21.52684,-39.7025 30.05435,-60.5865 1.05717,-2.2727 1.78491,-7.2765 3.43776,-2.6524 7.4238,12.2436 14.84756,24.4872 22.27136,36.7308 -7.65146,15.2359 -15.3029,30.4719 -22.95436,45.7078 -19.91161,21.5737 -45.91697,37.8505 -74.49276,44.9595 -25.79601,6.2332 -53.48492,3.5762 -77.80077,-6.9723 -16.13538,-6.7735 -30.9746,-16.3652 -44.49852,-27.4144 z"
       id="path3063"
       inkscape:connector-curvature="0" />
    <path
       style="color:#000000;fill:#ffffff;fill-opacity:1;fill-rule:nonzero;stroke:none;stroke-width:1px;marker:none;visibility:visible;display:inline;overflow:visible;enable-background:accumulate"
       d="m 646.56589,812.49757 c 5.54026,-10.40243 29.48444,-40.89799 25.96253,-3.09796 38.46924,-43.6161 65.30287,-21.15041 92.79778,-2.44084 9.52859,-13.5107 13.287,-36.07246 37.45669,-26.6174 -1.64703,-15.23645 7.98019,-23.91803 27.66728,-26.75104 -24.05674,-13.04006 -27.53098,-22.94062 20.42627,-24.99637 -35.43722,-6.86514 -68.37183,-14.33673 -22.45965,-40.91499 -12.98569,-2.98801 -47.53756,19.8163 -22.81154,-59.62338 -25.78516,22.45898 -51.59743,32.92573 -74.83512,-26.97016 -11.96805,20.13276 -27.63251,32.46532 -50.55059,-1.53226 -8.38718,20.56416 -40.73275,17.00105 -52.00692,10.66207 20.81636,28.0281 18.12597,42.83986 -14.51867,39.77964 48.82733,52.39551 5.30689,38.48145 -4.81565,48.02423 40.73095,22.03277 19.34335,37.43743 9.43985,54.69287 48.88787,8.78131 29.14398,35.80229 28.24774,59.78559 z"
       id="path3549"
       inkscape:connector-curvature="0"
       sodipodi:nodetypes="ccccccccccccccc" />
    <path
       style="color:#000000;fill:#ffffff;fill-opacity:1;fill-rule:nonzero;stroke:none;stroke-width:1px;marker:none;visibility:visible;display:inline;overflow:visible;enable-background:accumulate"
       d="m 976.44338,847.56589 c -30.6895,-33.22336 -66.9003,-62.08779 -91.17475,-100.37564 l 1.54948,40.35805 c -15.99714,-8.96132 -24.76055,-26.36164 -35.9803,-40.89653 l -3.27371,25.12109 c -37.48833,-21.61613 -60.02929,-54.53911 -89.79475,-81.99702 l -2.13576,44.21988 c 33.44478,24.19089 70.51094,42.61441 99.88228,73.29247 l 5.75736,-24.2252 c 11.65945,9.15239 22.96362,18.78968 32.68105,30.59298 l 4.46649,-31.03554 z"
       id="path4032"
       inkscape:connector-curvature="0"
       sodipodi:nodetypes="cccccccccccc" />
    <flowRoot
       xml:space="preserve"
       id="flowRoot2987-4-9"
       style="font-size:12px;font-style:normal;font-variant:normal;font-weight:normal;font-stretch:normal;text-align:center;line-height:125%;letter-spacing:0px;word-spacing:0px;text-anchor:middle;fill:#000000;fill-opacity:1;stroke:none;font-family:Lavi;-inkscape-font-specification:Lavi"
       transform="matrix(2.0639129,0,-0.41696688,1.8332873,-36.565342,170.77136)"><flowRegion
         id="flowRegion2989-5-4"><rect
           id="rect2991-7-9"
           width="602.40173"
           height="310.73996"
           x="120.55251"
           y="265.53046"
           style="font-style:normal;font-variant:normal;font-weight:normal;font-stretch:normal;text-align:center;text-anchor:middle;font-family:Lavi;-inkscape-font-specification:Lavi" /></flowRegion><flowPara
         style="font-size:48px;text-align:center;text-anchor:middle"
         id="flowPara3030">!!!</flowPara></flowRoot>    <path
       style="fill:#ffffff;stroke:none"
       d="m 662.02885,1858.0269 c 21.6861,-90.0299 127.05809,-97.0297 142.22732,-103.6863 15.16924,-6.6566 97.74862,-4.1489 107.54238,-2.0055 9.79378,2.1433 123.14985,-9.9927 135.38915,5.7373 7.3975,9.5073 157.0805,-0.9754 179.9846,14.1449 22.904,15.1203 25.3307,134.1741 21.8185,167.6666 -3.5122,33.4924 -38.1992,98.8865 -107.5683,123.4793 -69.3692,24.5928 -198.84482,38.5253 -276.45658,24.9529 -77.61178,-13.5724 -134.42482,-34.4072 -155.01611,-60.9668 -20.59136,-26.5595 -63.66071,-125.3792 -47.92096,-169.3224 z"
       id="path3061"
       inkscape:connector-curvature="0"
       sodipodi:nodetypes="cssssssssc" />
    <flowRoot
       xml:space="preserve"
       id="flowRoot2987-4-9-3"
       style="font-size:12px;font-style:normal;font-variant:normal;font-weight:normal;font-stretch:normal;text-align:center;line-height:125%;letter-spacing:0px;word-spacing:0px;text-anchor:middle;fill:#000000;fill-opacity:1;stroke:none;font-family:Lavi;-inkscape-font-specification:Lavi"
       transform="translate(567.55073,1546.7013)"><flowRegion
         id="flowRegion2989-5-4-0"><rect
           id="rect2991-7-9-6"
           width="553.52673"
           height="267.61493"
           x="120.55251"
           y="265.53046"
           style="font-style:normal;font-variant:normal;font-weight:normal;font-stretch:normal;text-align:center;text-anchor:middle;font-family:Lavi;-inkscape-font-specification:Lavi" /></flowRegion><flowPara
         style="font-size:48px;text-align:center;text-anchor:middle"
         id="flowPara3130">Carota ! Quam dulce</flowPara><flowPara
         style="font-size:48px;text-align:center;text-anchor:middle"
         id="flowPara3021">quod recordatus es</flowPara><flowPara
         style="font-size:48px;text-align:center;text-anchor:middle"
         id="flowPara3023">ut in agonem me</flowPara><flowPara
         style="font-size:48px;text-align:center;text-anchor:middle"
         id="flowPara3025">ducas !</flowPara><flowPara
         style="font-size:48px;text-align:center;text-anchor:middle"
         id="flowPara3075" /></flowRoot>    <flowRoot
       xml:space="preserve"
       id="flowRoot2987-4-9-1"
       style="font-size:12px;font-style:normal;font-variant:normal;font-weight:normal;font-stretch:normal;text-align:center;line-height:125%;letter-spacing:0px;word-spacing:0px;text-anchor:middle;fill:#000000;fill-opacity:1;stroke:none;font-family:Lavi;-inkscape-font-specification:Lavi"
       transform="matrix(1.1668178,0,0,1.1668178,1309.3136,2179.6317)"><flowRegion
         id="flowRegion2989-5-4-5"><rect
           id="rect2991-7-9-8"
           width="602.40173"
           height="310.73996"
           x="120.55251"
           y="265.53046"
           style="font-style:normal;font-variant:normal;font-weight:normal;font-stretch:normal;text-align:center;text-anchor:middle;font-family:Lavi;-inkscape-font-specification:Lavi" /></flowRegion><flowPara
         style="font-size:48px;text-align:center;text-anchor:middle"
         id="flowPara3030-6">Mi-ri-fi-ce !</flowPara></flowRoot>    <path
       style="color:#000000;fill:#ffffff;fill-opacity:1;fill-rule:nonzero;stroke:none;stroke-width:1px;marker:none;visibility:visible;display:inline;overflow:visible;enable-background:accumulate"
       d="m 1720.1342,2781.2408 c 7.7888,-68.5872 23.1883,-100.4107 69.9211,-111.6086 46.7326,-11.198 443.6193,-14.8433 472.8273,1.9535 29.2079,16.7972 73.9934,29.3946 61.3367,146.9728 -12.6569,117.5784 -70.6519,130.2734 -126.147,133.0731 -55.495,2.7994 -383.0445,32.0962 -429.7772,-32.2917 -46.7326,-64.388 -50.1081,-61.1133 -48.1609,-138.0991 z"
       id="path4010"
       inkscape:connector-curvature="0"
       sodipodi:nodetypes="csssssc" />
    <flowRoot
       xml:space="preserve"
       id="flowRoot2987-4-9-1-3"
       style="font-size:12px;font-style:normal;font-variant:normal;font-weight:normal;font-stretch:normal;text-align:center;line-height:125%;letter-spacing:0px;word-spacing:0px;text-anchor:middle;fill:#000000;fill-opacity:1;stroke:none;font-family:Lavi;-inkscape-font-specification:Lavi"
       transform="translate(1633.7214,2429.0796)"><flowRegion
         id="flowRegion2989-5-4-5-4"><rect
           id="rect2991-7-9-8-8"
           width="544.90173"
           height="339.48993"
           x="120.55251"
           y="265.53046"
           style="font-style:normal;font-variant:normal;font-weight:normal;font-stretch:normal;text-align:center;text-anchor:middle;font-family:Lavi;-inkscape-font-specification:Lavi" /></flowRegion><flowPara
         style="font-size:48px;text-align:center;text-anchor:middle"
         id="flowPara3030-6-6">Recordatus es etiam ut capias potionem aliquam, atque vestes et </flowPara><flowPara
         style="font-size:48px;text-align:center;text-anchor:middle"
         id="flowPara3027">galerum mea… </flowPara><flowPara
         style="font-size:48px;text-align:center;text-anchor:middle"
         id="flowPara3124" /></flowRoot>    <path
       style="color:#000000;fill:#ffffff;fill-opacity:1;fill-rule:nonzero;stroke:none;stroke-width:1px;marker:none;visibility:visible;display:inline;overflow:visible;enable-background:accumulate"
       d="m 1809.3612,3134.954 c 8.978,-85.6408 141.9813,-108.8042 249.5088,-102.4792 107.5275,6.325 259.3864,34.6139 256.6637,96.1726 -2.7228,61.5588 -36.5552,117.3824 -65.5141,126.7155 -28.9587,9.3331 -179.13,18.3276 -223.6685,16.1324 -44.5383,-2.1954 -226.0265,20.8326 -216.9899,-136.5413 z"
       id="path4974"
       inkscape:connector-curvature="0" />
    <flowRoot
       xml:space="preserve"
       id="flowRoot2987-4-9-1-3-4"
       style="font-size:12px;font-style:normal;font-variant:normal;font-weight:normal;font-stretch:normal;text-align:center;line-height:125%;letter-spacing:0px;word-spacing:0px;text-anchor:middle;fill:#000000;fill-opacity:1;stroke:none;font-family:Lavi;-inkscape-font-specification:Lavi"
       transform="translate(1661.7382,2796.506)"><flowRegion
         id="flowRegion2989-5-4-5-4-1"><rect
           id="rect2991-7-9-8-8-4"
           width="544.90173"
           height="339.48993"
           x="120.55251"
           y="265.53046"
           style="font-style:normal;font-variant:normal;font-weight:normal;font-stretch:normal;text-align:center;text-anchor:middle;font-family:Lavi;-inkscape-font-specification:Lavi" /></flowRegion><flowPara
         style="font-size:48px;text-align:center;text-anchor:middle"
         id="flowPara3178">… Videamus</flowPara><flowPara
         style="font-size:48px;text-align:center;text-anchor:middle"
         id="flowPara3034">quam potionem</flowPara><flowPara
         style="font-size:48px;text-align:center;text-anchor:middle"
         id="flowPara3036">ceperis… </flowPara><flowPara
         style="font-size:48px;text-align:center;text-anchor:middle"
         id="flowPara3124-1" /></flowRoot>  </g>
</svg>
