<?xml version="1.0" encoding="UTF-8" standalone="no"?>
<!-- Created with Inkscape (http://www.inkscape.org/) -->

<svg
   xmlns:dc="http://purl.org/dc/elements/1.1/"
   xmlns:cc="http://creativecommons.org/ns#"
   xmlns:rdf="http://www.w3.org/1999/02/22-rdf-syntax-ns#"
   xmlns:svg="http://www.w3.org/2000/svg"
   xmlns="http://www.w3.org/2000/svg"
   xmlns:xlink="http://www.w3.org/1999/xlink"
   xmlns:sodipodi="http://sodipodi.sourceforge.net/DTD/sodipodi-0.dtd"
   xmlns:inkscape="http://www.inkscape.org/namespaces/inkscape"
   id="svg2"
   version="1.1"
   inkscape:version="0.91 r13725"
   width="2481"
   height="663"
   sodipodi:docname="Pepper-and-Carrot_by-David-Revoy_E06P00.svg">
  <metadata
     id="metadata8">
    <rdf:RDF>
      <cc:Work
         rdf:about="">
        <dc:format>image/svg+xml</dc:format>
        <dc:type
           rdf:resource="http://purl.org/dc/dcmitype/StillImage" />
        <dc:title />
      </cc:Work>
    </rdf:RDF>
  </metadata>
  <defs
     id="defs6" />
  <sodipodi:namedview
     pagecolor="#ffffff"
     bordercolor="#666666"
     borderopacity="1"
     objecttolerance="10"
     gridtolerance="10"
     guidetolerance="10"
     inkscape:pageopacity="0"
     inkscape:pageshadow="2"
     inkscape:window-width="1151"
     inkscape:window-height="937"
     id="namedview4"
     showgrid="false"
     inkscape:zoom="0.21547051"
     inkscape:cx="1442.3495"
     inkscape:cy="560.51296"
     inkscape:window-x="54"
     inkscape:window-y="-8"
     inkscape:window-maximized="1"
     inkscape:current-layer="svg2" />
  <g
     inkscape:groupmode="layer"
     id="layer2"
     inkscape:label="artwork"
     sodipodi:insensitive="true">
    <image
       sodipodi:absref="F:\peppercarrot_ep06_translation\jb\..\gfx_Pepper-and-Carrot_by-David-Revoy_E06P00.png"
       xlink:href="../gfx_Pepper-and-Carrot_by-David-Revoy_E06P00.png"
       y="0"
       x="0"
       id="image10"
       height="663"
       width="2481" />
  </g>
  <g
     inkscape:groupmode="layer"
     id="layer1"
     inkscape:label="txt"
     style="display:inline">
    <flowRoot
       xml:space="preserve"
       id="flowRoot2987"
       style="font-style:normal;font-variant:normal;font-weight:normal;font-stretch:normal;font-size:12px;line-height:125%;font-family:Arial;-inkscape-font-specification:Arial;letter-spacing:0px;word-spacing:0px;fill:#301b0b;fill-opacity:1;stroke:none"
       transform="translate(-748.4491,-120.8471)"><flowRegion
         id="flowRegion2989"><rect
           id="rect2991"
           width="2405.8"
           height="107.55731"
           x="739.22333"
           y="644.36664"
           style="fill:#301b0b;fill-opacity:1" /></flowRegion><flowPara
         id="flowPara2993"
         style="font-style:normal;font-variant:normal;font-weight:normal;font-stretch:normal;font-size:72px;font-family:Lavi;-inkscape-font-specification:Lavi;text-align:center;text-anchor:middle;fill:#301b0b;fill-opacity:1">i 6 moi pagbu fa lu lo nu jivna li'u</flowPara></flowRoot>  </g>
  <g
     transform="translate(-51.044542,36.18893)"
     style="font-style:normal;font-weight:normal;font-size:40px;line-height:125%;font-family:Sans;letter-spacing:0px;word-spacing:0px;display:inline;opacity:1;fill:#301b0b;fill-opacity:1;stroke:none;stroke-width:1px;stroke-linecap:butt;stroke-linejoin:miter;stroke-opacity:1"
     id="text3647">
    <path
       inkscape:connector-curvature="0"
       d="m 251.28743,336.53607 q 2.25,5.25 2.25,7.75 0,3 -5.25,5 l -5.25,1.75 -1,0.25 q -1.75,0.25 -7.25,0.75 -5.5,0.75 -10.25,1.25 l -9,1 q -1.25,0.25 -3.75,0.25 -9.25,0 -12.5,-5.75 -3.25,-6 -3.25,-8 0,-2.5 2.25,-3.75 2.25,-1.25 7,-1.75 5,-0.75 6.5,-3.5 1.75,-3 1.75,-15.5 0,-7.25 -0.25,-26.5 -0.25,-19.25 -0.25,-27.5 l -0.25,-28 0.5,-12.5 0,-1 q 0.75,-6.5 0.75,-9.25 0,-4.5 -1.5,-5.25 l -6.75,-0.25 -2.25,-0.25 q -9,-2 -10.5,-9.25 -0.75,-4.25 1.25,-6.25 2,-2.25 9.75,-6 l 2.5,-1 7.5,-2.25 1.5,-0.25 5.5,-0.25 q 6,0 8,0.75 2,0.5 5,4 l 1.75,2 q 1.75,3.5 1.75,8.75 0,3.5 -0.25,12.75 -0.25,9 -0.25,14.5 0,3.25 -0.25,12.25 -0.25,9 -0.25,17.25 l -0.25,28.5 0,22 0,3.5 0.5,22 q 0.25,0.25 3.25,1.5 3.25,1 6,2 3,0.75 4.5,3.25 l 0.75,1 z"
       style="font-style:normal;font-variant:normal;font-weight:100;font-stretch:normal;font-size:250px;font-family:Jester;-inkscape-font-specification:'Jester Thin';fill:#301b0b"
       id="path4150" />
    <path
       inkscape:connector-curvature="0"
       d="m 376.29915,336.03607 q 0.75,2.25 0.75,4.25 0,3.5 -2.75,6 -2.75,2.5 -11.25,6.25 -8.5,3.75 -14.25,3.75 -8,0 -10,-7 l -1,-4.25 q -1.5,-0.25 -3.25,0 -7,2.75 -15.25,5.5 -8,2.75 -15.5,4 -7.25,1.25 -12.75,1.25 -13.5,0 -21.75,-6 -8.25,-6 -8.25,-19.5 0,-5.75 5.25,-15.5 5.5,-9.75 13.5,-14.75 8.25,-5.25 21.25,-10.75 13,-5.5 18.25,-6.5 5.5,-1.25 12,-2.5 6.75,-1.5 6.75,-4.75 -0.75,-4.25 -1.25,-9.75 -0.5,-5.75 -2.5,-11 -1.75,-5.5 -7.75,-5.5 -4.75,0 -10.25,2.5 -5.25,2.25 -23.5,15.5 -18.25,13 -20.75,13.25 -7.5,1.25 -6.75,-8.25 0,-6.75 18.5,-23 18.75,-16.5 38.5,-16.5 5.25,0 11,1.5 15.5,4.75 21,17.5 5.5,12.75 5.5,43.75 0,5.75 -0.25,12.5 -0.25,6.75 -0.5,12.5 0,9 1,9.75 3,-0.25 6.25,-0.25 3.75,0 6.5,1.25 2.75,1.25 3.5,4.75 z m -36.25,-23.25 q 0,-4.75 -2.25,-7 -2,-2.5 -4.75,-2.5 -23.25,2.5 -37,11 -13.75,8.5 -13.75,16 0,1.5 1.25,3.5 1.25,1.75 8,1.75 6,0 16.5,-1.75 10.75,-2 21.25,-7.75 10.75,-5.75 10.75,-13.25 z"
       style="font-style:normal;font-variant:normal;font-weight:100;font-stretch:normal;font-size:250px;font-family:Jester;-inkscape-font-specification:'Jester Thin';fill:#301b0b"
       id="path4152" />
    <path
       inkscape:connector-curvature="0"
       d="m 571.40852,307.28607 q -3.75,6 -9.75,12 -6,6 -16,12.75 -10,6.5 -20.75,10.25 l -2.5,0.75 -13.5,4 -7.5,2.25 -8.5,1.25 q -0.5,1.25 -0.75,3.5 -0.25,2.5 -0.25,13.25 l 0,7.25 0.75,11 q 1,2 4,3.75 3,1.75 8.75,1.75 2.5,0 5.75,4.25 3.25,4.5 3.25,6.5 0,4.25 -13.25,7.5 l -5,1.25 -4,0.75 -8,1 -5.75,1 q -4.75,0.75 -6.75,0.75 -2,0.25 -4.25,0.25 -2.75,0 -5,-0.75 -2.25,-0.5 -5,-2.25 -2.5,-1.75 -4.25,-3.5 -1.75,-1.5 -1.75,-4.25 0,-3.5 3,-5.25 3.25,-1.5 5.25,-1.5 5.75,-0.75 7,-2.75 1.25,-2 1.25,-10.25 l 0,-8 0,-87 0,-8.5 0,-12 0,-3 q 0,-5 -0.25,-6 -0.25,-1.25 -1.25,-2.25 l -9.25,0 q -9.75,0 -10.75,-5.25 -1,-5.25 -1,-6 0,-3.5 6.5,-6.5 l 5.5,-2.75 0.75,-0.25 5.25,-1.5 12,-4.75 q 3,-1.25 4.75,-1.25 2,0 5,1.25 3.25,1.25 4.75,3.5 1.75,2 3.25,6.5 l 16,-0.75 q 5.5,0 10.25,0.75 4.75,0.5 12.75,2.75 8.25,2 13.75,4.5 5.75,2.25 19.25,11.5 13.75,9 13.75,26 0,10.5 -7.5,22.5 z m -19.25,-13.25 q 6,-8.75 6,-14.5 0,-6.25 -4.75,-10 -4.75,-3.75 -8.25,-4.75 -3.5,-1.25 -9.5,-2.25 -6,-1 -11.75,-1 -2.75,0 -6.5,0.5 -3.75,0.25 -9.5,1.25 -5.5,1 -9,2.25 -3.25,1.25 -4.75,3.5 l -1,28.75 q -0.5,23.75 -0.5,26.5 0,1.75 1,3 1.25,1 4,1 1.5,0 3.5,-0.25 2,-0.5 6.75,-2.75 l 10.75,-4.5 0.75,-0.5 11.25,-6.75 q 7.25,-5 12.75,-10 5.75,-5.25 8.75,-9.5 z"
       style="font-style:normal;font-variant:normal;font-weight:100;font-stretch:normal;font-size:250px;font-family:Jester;-inkscape-font-specification:'Jester Thin';fill:#301b0b"
       id="path4154" />
    <path
       inkscape:connector-curvature="0"
       d="m 692.42415,323.78607 q 0,4 -1.75,7 -1.5,2.75 -6.5,6.25 l -4,3.25 -1.5,1 q -3,1.75 -5,2.75 -1.75,0.75 -10,4.25 -8,3.5 -15.25,5.25 -7.25,1.75 -14.5,1.75 -27.5,0 -34.75,-16 -7.25,-16.25 -8.5,-20.5 -1,-4.5 -1,-9.5 0,-4.75 0,-9.5 0.25,-4.75 2.25,-14 2,-9.25 6.75,-18.75 5,-9.5 12.75,-17.75 7.75,-8.5 12.75,-12.5 5.25,-4 11.5,-6.5 6.25,-2.75 11.25,-4.25 5,-1.5 9.25,-1.5 5.25,0 9,2 4,2 10.5,6.5 6.5,4.25 10.5,10 4.25,5.75 5.75,14.25 l 0.5,6 0,3 0,9.25 q 0,12.25 -2.5,15.5 -2.5,3.25 -12,4.25 l -2.25,0.5 -6.5,0.5 -26,5.5 -21.25,4.75 -4.75,1.25 -0.75,0.25 -3.5,1.25 q -4.75,1 -4.75,5.5 0,1.25 0.25,3.25 0.5,1.75 1.75,7.25 1.25,5.25 5.5,7.75 4.25,2.5 13,2.5 l 5.25,-0.25 1.5,0 q 13.25,-1.75 33,-11.75 l 7.5,-4.5 5.75,-3.25 q 1,-0.5 3,-0.5 7,0 7.75,8.5 z m -22.75,-66.75 q 0,-3.25 -0.5,-4.5 -0.5,-3.25 -2.25,-6.5 -1.75,-3.25 -5.25,-3.25 -4.25,0 -10.5,3.75 -6.25,3.5 -9.5,6 -3,2.25 -8.5,7.25 -5.5,5 -10,11.5 l -4.5,7 q -2.25,3 -3.25,5 -0.75,1.75 -0.75,2.75 l 0.25,2.75 q 1.25,-1 4,-1.75 3,-1 20.25,-3.75 l 12.25,-2.5 3.5,-0.75 8.25,-2.25 q 4.5,-1 5.5,-4 1,-3.25 1,-16.75 z"
       style="font-style:normal;font-variant:normal;font-weight:100;font-stretch:normal;font-size:250px;font-family:Jester;-inkscape-font-specification:'Jester Thin';fill:#301b0b"
       id="path4156" />
    <path
       inkscape:connector-curvature="0"
       d="m 826.29134,307.28607 q -3.75,6 -9.75,12 -6,6 -16,12.75 -10,6.5 -20.75,10.25 l -2.5,0.75 -13.5,4 -7.5,2.25 -8.5,1.25 q -0.5,1.25 -0.75,3.5 -0.25,2.5 -0.25,13.25 l 0,7.25 0.75,11 q 1,2 4,3.75 3,1.75 8.75,1.75 2.5,0 5.75,4.25 3.25,4.5 3.25,6.5 0,4.25 -13.25,7.5 l -5,1.25 -4,0.75 -8,1 -5.75,1 q -4.75,0.75 -6.75,0.75 -2,0.25 -4.25,0.25 -2.75,0 -5,-0.75 -2.25,-0.5 -5,-2.25 -2.5,-1.75 -4.25,-3.5 -1.75,-1.5 -1.75,-4.25 0,-3.5 3,-5.25 3.25,-1.5 5.25,-1.5 5.75,-0.75 7,-2.75 1.25,-2 1.25,-10.25 l 0,-8 0,-87 0,-8.5 0,-12 0,-3 q 0,-5 -0.25,-6 -0.25,-1.25 -1.25,-2.25 l -9.25,0 q -9.75,0 -10.75,-5.25 -1,-5.25 -1,-6 0,-3.5 6.5,-6.5 l 5.5,-2.75 0.75,-0.25 5.25,-1.5 12,-4.75 q 3,-1.25 4.75,-1.25 2,0 5,1.25 3.25,1.25 4.75,3.5 1.75,2 3.25,6.5 l 16,-0.75 q 5.5,0 10.25,0.75 4.75,0.5 12.75,2.75 8.25,2 13.75,4.5 5.75,2.25 19.25,11.5 13.75,9 13.75,26 0,10.5 -7.5,22.5 z m -19.25,-13.25 q 6,-8.75 6,-14.5 0,-6.25 -4.75,-10 -4.75,-3.75 -8.25,-4.75 -3.5,-1.25 -9.5,-2.25 -6,-1 -11.75,-1 -2.75,0 -6.5,0.5 -3.75,0.25 -9.5,1.25 -5.5,1 -9,2.25 -3.25,1.25 -4.75,3.5 l -1,28.75 q -0.5,23.75 -0.5,26.5 0,1.75 1,3 1.25,1 4,1 1.5,0 3.5,-0.25 2,-0.5 6.75,-2.75 l 10.75,-4.5 0.75,-0.5 11.25,-6.75 q 7.25,-5 12.75,-10 5.75,-5.25 8.75,-9.5 z"
       style="font-style:normal;font-variant:normal;font-weight:100;font-stretch:normal;font-size:250px;font-family:Jester;-inkscape-font-specification:'Jester Thin';fill:#301b0b"
       id="path4158" />
    <path
       inkscape:connector-curvature="0"
       d="m 947.30696,323.78607 q 0,4 -1.75,7 -1.5,2.75 -6.5,6.25 l -4,3.25 -1.5,1 q -3,1.75 -5,2.75 -1.75,0.75 -10,4.25 -8,3.5 -15.25,5.25 -7.25,1.75 -14.5,1.75 -27.5,0 -34.75,-16 -7.25,-16.25 -8.5,-20.5 -1,-4.5 -1,-9.5 0,-4.75 0,-9.5 0.25,-4.75 2.25,-14 2,-9.25 6.75,-18.75 5,-9.5 12.75,-17.75 7.75,-8.5 12.75,-12.5 5.25,-4 11.5,-6.5 6.25,-2.75 11.25,-4.25 5,-1.5 9.25,-1.5 5.25,0 9,2 4,2 10.5,6.5 6.5,4.25 10.5,10 4.25,5.75 5.75,14.25 l 0.5,6 0,3 0,9.25 q 0,12.25 -2.5,15.5 -2.5,3.25 -12,4.25 l -2.25,0.5 -6.5,0.5 -26,5.5 -21.25,4.75 -4.75,1.25 -0.75,0.25 -3.5,1.25 q -4.75,1 -4.75,5.5 0,1.25 0.25,3.25 0.5,1.75 1.75,7.25 1.25,5.25 5.5,7.75 4.25,2.5 13,2.5 l 5.25,-0.25 1.5,0 q 13.25,-1.75 33,-11.75 l 7.5,-4.5 5.75,-3.25 q 1,-0.5 3,-0.5 7,0 7.75,8.5 z m -22.75,-66.75 q 0,-3.25 -0.5,-4.5 -0.5,-3.25 -2.25,-6.5 -1.75,-3.25 -5.25,-3.25 -4.25,0 -10.5,3.75 -6.25,3.5 -9.5,6 -3,2.25 -8.5,7.25 -5.5,5 -10,11.5 l -4.5,7 q -2.25,3 -3.25,5 -0.75,1.75 -0.75,2.75 l 0.25,2.75 q 1.25,-1 4,-1.75 3,-1 20.25,-3.75 l 12.25,-2.5 3.5,-0.75 8.25,-2.25 q 4.5,-1 5.5,-4 1,-3.25 1,-16.75 z"
       style="font-style:normal;font-variant:normal;font-weight:100;font-stretch:normal;font-size:250px;font-family:Jester;-inkscape-font-specification:'Jester Thin';fill:#301b0b"
       id="path4160" />
    <path
       inkscape:connector-curvature="0"
       d="m 1045.1741,273.28607 -3,9.25 q -3.75,10.5 -9.5,10.5 -2.75,0 -6.5,-3.25 -3.75,-3.25 -3.75,-13.25 0,-1.5 0.25,-3.75 0.25,-2.25 0.25,-3.5 l 0.75,-4.75 q 2.25,-9.5 2.5,-11 0.5,-1.5 0,-2.75 -1,-2.25 -3,-0.75 -1.25,0.5 -3,2.25 -1.75,1.5 -2.25,2.25 l -4.5,6.25 -0.75,1 q -5.25,8 -9,20.75 l -2.5,14 q -2.99995,16.5 -2.99995,23.25 0,7.75 5.24995,11.25 l 7,2.25 4.5,2.25 q 3,2.25 3,6.25 0,4 -3.25,7 -3,2 -7,3 -4,1 -8.49995,1 l -8,0.5 -5.75,0.5 -2.25,0.25 -13.5,1 q -1.5,0.25 -2.5,-0.25 -1,-0.5 -4.25,-3.5 l -2.75,-2.75 q -2.75,-3.5 -2.75,-6.75 0,-4.75 7,-6.75 7,-2.25 10.5,-2.25 0.5,0 0.5,-3 0,-1.75 -0.25,-5.75 0,-4.25 0,-10.75 l 0,-4.25 q 0,-9 -0.25,-14.75 -0.25,-5.75 -0.5,-11.25 0,-3.75 0,-5 0.25,-1.5 0.75,-5.75 0.5,-4.5 0.5,-6.75 0,-2.75 -1,-3.75 -1,-1 -3.5,-1.5 l -4,0 q -2,0.25 -6.75,-3.75 -3.75,-4.5 -4,-6.75 -0.5,-2.5 -0.5,-3.5 0,-2.75 2.75,-4.25 3,-1.75 12.25,-5 l 6,-1.75 q 3.5,-0.75 6.5,-0.75 6.5,0 9.75,3.5 3.5,3.25 3.5,9 -0.25,3 -0.25,4.25 0,3.5 1.25,3.5 l 1.5,-0.5 8.24995,-9.25 q 2.25,-2.25 6.75,-4.75 4.75,-2.75 9.75,-2.75 5.75,0 13,4.5 10.75,7.5 10.75,16.75 0,6 -2.5,14.5 z"
       style="font-style:normal;font-variant:normal;font-weight:100;font-stretch:normal;font-size:250px;font-family:Jester;-inkscape-font-specification:'Jester Thin';fill:#301b0b"
       id="path4162" />
    <path
       inkscape:connector-curvature="0"
       d="m 1162.0687,198.28607 q -2.25,8.5 -5,12.5 -2.5,3.75 -7,3.75 -3.25,0 -7.75,-2.5 -4.5,-2.5 -6,-6 -1.5,-3.5 -1.5,-9.25 l 0.25,-2.75 q 1.75,-9.5 4.25,-12.25 2.75,-3 9,-2.5 5.5,0 9.75,5.25 4.5,5 4.5,10.75 0,1 -0.5,3 z m 10.75,44.75 q 3.5,4.75 3.5,7.75 0,4 -7,7 l -6.75,3 q -1.75,0.5 -1.75,4.75 0,1.75 0.25,4.75 0.5,2.75 0.75,4.75 0.25,2 0.25,7.25 0,7 -0.25,14 0,7 0,14 l 0,6.75 -0.5,21 -0.5,9.75 q 0,14 -1.75,22.25 -1.5,8.25 -4.75,16.75 -3.25,8.5 -7.5,12.25 -4,3.75 -14.25,5.5 l -5.25,0.75 q -7,0 -10.5,-0.75 -3.5,-0.5 -11.25,-3.25 l -1.25,-0.5 -8.75,-3.25 -3.25,-1.25 -6.75,-2.5 q -9,-3.75 -11.75,-11.5 5.75,-2.5 7.75,-2.5 2.5,0 8.5,1.5 5.75,1.75 10.75,2.75 5,1.25 12.25,1.25 l 4.75,-0.25 q 13.75,-1.25 17.25,-7.5 3.75,-6 3.75,-29.5 l 0,-9 0,-35.25 -0.25,-25 0,-4.5 q 0,-6.5 -0.75,-7.25 -0.5,-1 -5,-1.75 l -4.25,-0.75 -0.75,-0.25 -2.5,-0.75 q -9,-4.75 -7.75,-12 0,-2.75 1.5,-3.5 1.75,-1 13.25,-5.25 l 5.75,-2 1.75,-0.5 q 0.75,-0.25 5,-1 4.25,-1 9.5,-1 l 3,-0.25 3.75,0 q 7.75,0 11.75,5 z"
       style="font-style:normal;font-variant:normal;font-weight:100;font-stretch:normal;font-size:250px;font-family:Jester;-inkscape-font-specification:'Jester Thin';fill:#301b0b"
       id="path4164" />
    <path
       inkscape:connector-curvature="0"
       d="m 1299.1976,278.03607 q 1.5,6.75 1.5,13.75 0,12.75 -6,28 -6,15.25 -16.75,24.5 -10.5,9 -24.75,10.5 l -5,0.5 -2,0 -4.75,-0.25 -5.5,-0.25 -1.5,0 -1.5,-0.25 -5.5,-0.75 q -7.75,-1 -11.75,-2.25 -4,-1.5 -9.5,-4.5 -5.25,-3.25 -11,-8.5 -5.5,-5.5 -9.25,-12.5 -3.5,-7.25 -3.5,-17 l -0.25,-5.75 q 0,-11.75 1.75,-19 2,-7.25 8.25,-18.5 6.5,-11.25 17.5,-17.25 11,-6.25 16.25,-8.25 5.25,-2 11.25,-2.5 l 4.25,-0.5 2.75,-0.25 q 3.5,0 7.25,0.25 3.75,0.25 15.75,3 12.25,2.5 20.25,13.5 8.25,11 11.75,24.25 z m -24,10.5 q 0,-6.25 -1.5,-11.5 -2,-9.5 -5.25,-14.25 -3,-5 -9.25,-8.5 -6,-3.75 -12.5,-3.75 -8.5,0 -14,4.25 -5.5,4.25 -7.5,5.75 -1.75,1.5 -5.75,5.5 -3.75,3.75 -7.75,12.25 -4,8.5 -5.5,19.5 l -0.5,6.5 q 0,3 0.5,6.25 0.5,3 1.5,6.75 1.25,3.75 1.75,5.5 0.75,1.5 3.5,5.75 2.75,4.25 7.25,7.75 4.75,3.25 9.25,4.25 4.75,0.75 6.5,0.75 5.75,0 22.5,-6.75 16.75,-6.75 16.75,-46 z"
       style="font-style:normal;font-variant:normal;font-weight:100;font-stretch:normal;font-size:250px;font-family:Jester;-inkscape-font-specification:'Jester Thin';fill:#301b0b"
       id="path4166" />
    <path
       inkscape:connector-curvature="0"
       d="m 1347.7835,202.28607 -0.5,6 -0.75,10 q 0,12 -3.5,17.75 -3.25,5.75 -8.75,5.75 -2.25,0 -5.25,-1.25 -3,-2 -3.75,-2.5 -2,-3 -2,-5.5 l -0.25,-1.25 0.5,-12.5 -0.25,-3.25 -0.5,-4.5 q -0.25,-1 0.25,-4.25 0.5,-3.5 0.75,-6.25 0.5,-2.75 0.5,-5.25 0,-2.75 0,-4.25 0,-2.75 -0.25,-5.5 0,-3 0,-6 0,-4 5.5,-3 1,-0.25 1.75,0.25 1,0.25 6,2.25 5,1.75 8,3.5 3.25,1.5 3.25,8 0,3.75 -0.75,11.75 z"
       style="font-style:normal;font-variant:normal;font-weight:100;font-stretch:normal;font-size:250px;font-family:Jester;-inkscape-font-specification:'Jester Thin';fill:#301b0b"
       id="path4168" />
    <path
       inkscape:connector-curvature="0"
       d="m 1496.6741,335.03607 q 1.25,3.25 1.25,5.75 0,4 -14.25,9.75 -14.25,5.75 -16.75,5.75 -3,0 -5,-2.75 -2,-2.5 -3,-4.25 l -1,-2 q -0.25,-0.75 -1.5,-0.5 -1.25,0.25 -6.25,1.75 -2.75,1.25 -7.5,2.25 -4.5,0.75 -10.25,0.75 -11.25,0 -25.75,-5.75 -14.25,-6 -20.25,-14.75 -6,-8.75 -6,-30.5 0,-3 -0.25,-5.75 0,-3 0,-6 0,-2.25 0,-4.25 0,-2.25 0.25,-4 0,-4 -1.25,-4.75 -1.25,-1 -5.5,-3 l -3.25,-2 q -4,-2.75 -5.75,-5.5 -1.5,-2.75 -1.5,-5.5 0,-6.5 10.25,-10 l 5,-1.75 1.75,-0.5 2.25,-0.5 6,-1.25 q 4.25,-0.75 7.25,-0.75 9.5,0 11.25,10.5 l -1.5,31 0,15.5 0.5,5 0.5,5.5 0.75,4.25 q 1.75,9.75 4.75,13.25 3.25,3.25 11,3.25 l 3,0 q 1.5,-0.25 2.25,-0.25 4.75,0 12,-3.5 l 7.75,-3.25 q 5.5,-2.5 7,-4.5 1.75,-2.25 3,-8.75 l 0,-24.25 0,-24.25 q 0,-1.5 -3.75,-2.75 l -5.75,-0.25 q -1.25,0.25 -2.5,-0.5 -1.25,-0.75 -4.5,-4.25 -3.25,-3.75 -3.25,-7.75 0,-4 3,-5.75 l 6.75,-2.75 8.5,-3.25 q 6,-1.75 8.5,-1.75 1,0 6.75,1.5 5.75,1.5 7.75,6.25 2,4.75 2,27 l 0,18.5 q 0,12.5 -1.5,21.25 -1.25,8.5 -1.25,12.25 0,3.25 1,4.25 1,1 4,1.75 l 0.75,0.25 3.25,0 q 1.25,0 4.75,1.5 3,2 4.25,5 z"
       style="font-style:normal;font-variant:normal;font-weight:100;font-stretch:normal;font-size:250px;font-family:Jester;-inkscape-font-specification:'Jester Thin';fill:#301b0b"
       id="path4170" />
    <path
       inkscape:connector-curvature="0"
       d="m 1624.3343,336.53607 q 2.25,5.25 2.25,7.75 0,3 -5.25,5 l -5.25,1.75 -1,0.25 q -1.75,0.25 -7.25,0.75 -5.5,0.75 -10.25,1.25 l -9,1 q -1.25,0.25 -3.75,0.25 -9.25,0 -12.5,-5.75 -3.25,-6 -3.25,-8 0,-2.5 2.25,-3.75 2.25,-1.25 7,-1.75 5,-0.75 6.5,-3.5 1.75,-3 1.75,-15.5 0,-7.25 -0.25,-26.5 -0.25,-19.25 -0.25,-27.5 l -0.25,-28 0.5,-12.5 0,-1 q 0.75,-6.5 0.75,-9.25 0,-4.5 -1.5,-5.25 l -6.75,-0.25 -2.25,-0.25 q -9,-2 -10.5,-9.25 -0.75,-4.25 1.25,-6.25 2,-2.25 9.75,-6 l 2.5,-1 7.5,-2.25 1.5,-0.25 5.5,-0.25 q 6,0 8,0.75 2,0.5 5,4 l 1.75,2 q 1.75,3.5 1.75,8.75 0,3.5 -0.25,12.75 -0.25,9 -0.25,14.5 0,3.25 -0.25,12.25 -0.25,9 -0.25,17.25 l -0.25,28.5 0,22 0,3.5 0.5,22 q 0.25,0.25 3.25,1.5 3.25,1 6,2 3,0.75 4.5,3.25 l 0.75,1 z"
       style="font-style:normal;font-variant:normal;font-weight:100;font-stretch:normal;font-size:250px;font-family:Jester;-inkscape-font-specification:'Jester Thin';fill:#301b0b"
       id="path4172" />
    <path
       inkscape:connector-curvature="0"
       d="m 1749.346,336.03607 q 0.75,2.25 0.75,4.25 0,3.5 -2.75,6 -2.75,2.5 -11.25,6.25 -8.5,3.75 -14.25,3.75 -8,0 -10,-7 l -1,-4.25 q -1.5,-0.25 -3.25,0 -7,2.75 -15.25,5.5 -8,2.75 -15.5,4 -7.25,1.25 -12.75,1.25 -13.5,0 -21.75,-6 -8.25,-6 -8.25,-19.5 0,-5.75 5.25,-15.5 5.5,-9.75 13.5,-14.75 8.25,-5.25 21.25,-10.75 13,-5.5 18.25,-6.5 5.5,-1.25 12,-2.5 6.75,-1.5 6.75,-4.75 -0.75,-4.25 -1.25,-9.75 -0.5,-5.75 -2.5,-11 -1.75,-5.5 -7.75,-5.5 -4.75,0 -10.25,2.5 -5.25,2.25 -23.5,15.5 -18.25,13 -20.75,13.25 -7.5,1.25 -6.75,-8.25 0,-6.75 18.5,-23 18.75,-16.5 38.5,-16.5 5.25,0 11,1.5 15.5,4.75 21,17.5 5.5,12.75 5.5,43.75 0,5.75 -0.25,12.5 -0.25,6.75 -0.5,12.5 0,9 1,9.75 3,-0.25 6.25,-0.25 3.75,0 6.5,1.25 2.75,1.25 3.5,4.75 z m -36.25,-23.25 q 0,-4.75 -2.25,-7 -2,-2.5 -4.75,-2.5 -23.25,2.5 -37,11 -13.75,8.5 -13.75,16 0,1.5 1.25,3.5 1.25,1.75 8,1.75 6,0 16.5,-1.75 10.75,-2 21.25,-7.75 10.75,-5.75 10.75,-13.25 z"
       style="font-style:normal;font-variant:normal;font-weight:100;font-stretch:normal;font-size:250px;font-family:Jester;-inkscape-font-specification:'Jester Thin';fill:#301b0b"
       id="path4174" />
    <path
       inkscape:connector-curvature="0"
       d="m 1947.2054,336.53607 q 1.5,0.5 1.5,3.25 0,2.5 -1.75,5.25 l -2.25,2.75 q -4,4.25 -8.25,4.25 -4.75,0 -11,-4.75 l -2,-1.5 -4.75,-4.75 -1.5,-1.5 -16,-14.25 -17.75,-16 -2.25,-1.75 -1,-1.25 q -1.5,-1.25 -3.25,-1.25 -2.25,0 -7,5.25 -4.5,5 -5,6 -0.5,1 -1.25,6.5 -0.75,5.25 -0.75,5.75 0,2 0.75,3 1,0.75 3.75,1.75 l 1.5,0.5 3.25,1 q 0.75,0.25 1.5,0.5 0.75,0.25 2,1.25 l 2.5,2.75 q 1.5,2.75 1.5,5.25 0,5 -4,6.25 l -5,1.5 q -17.5,3.5 -22.75,3.5 -2,-0.25 -2.75,-0.25 -7.5,-0.75 -10.75,-2 -3,-1 -6.25,-4.75 -3.25,-4 -3.25,-7.25 0,-3.75 6.25,-5.75 l 1.75,-0.25 4.5,-1 q 3.5,-1 4.25,-2.75 1,-1.75 1,-8 0,-4.5 -0.25,-8.75 0,-4.25 0,-8.5 l 0,-3.5 q 0.25,-3.5 0.25,-11.25 0.25,-8 0.25,-14.75 0,-4.25 0,-8.75 -1,-7.75 -1.5,-13.75 l -0.5,-6.25 q -1.75,-14.75 -1.75,-27.25 0,-3.5 0,-6.75 0.25,-3.25 1.25,-11.25 -0.25,-0.75 -0.75,-1.25 l -8,1 q -3.5,0.5 -7,-2.25 l -2.25,-2.25 q -2.25,-3 -2.25,-7 0,-0.75 0,-1.5 0.5,-1 1.25,-2.5 0.75,-1.5 3.25,-2.75 2.75,-1.25 10.5,-2.5 7.75,-1.5 13.75,-1.5 7.75,0 11.75,2 2.75,1.75 3.5,3.5 0.75,1.75 0.75,7.5 0,3.75 -0.25,14 -0.25,10 -0.25,15 -0.25,2 0,11.75 0.5,9.75 0.5,23.5 l 0,4 0,3.25 q 0,5 -0.25,9.5 0,4.5 0,8.5 l 0.25,2.75 2.25,-0.25 16,-14.75 q 3.5,-3.25 5.75,-5.5 2.25,-2.25 2.25,-3.5 0,-1.25 -3.75,-7 l -0.75,-3.5 q 0.5,-3.5 3.5,-4.75 3.25,-1.5 14,-2.75 l 1.75,-0.25 2,0.25 2,0 4,-1 q 3,-0.75 8,-1.25 16.25,0 18.75,6.75 2.75,6.5 2.75,9.5 0,4.5 -8,5.25 l -2.25,0.25 -5.25,0.25 q -2.25,0 -4.25,0.75 -1.75,0.5 -3.75,1.75 -1.75,1 -5.25,4 l -3.25,3 -2.75,2.5 -0.75,0.5 -5.5,4 q -2.5,2 -3.75,3.5 -1.25,1.25 -1.25,2.75 0,4.75 35.75,39.5 l 4.75,4.25 3.75,3.25 0.5,0.5 5,2.75 z"
       style="font-style:normal;font-variant:normal;font-weight:100;font-stretch:normal;font-size:250px;font-family:Jester;-inkscape-font-specification:'Jester Thin';fill:#301b0b"
       id="path4176" />
    <path
       inkscape:connector-curvature="0"
       d="m 2067.7054,336.03607 q 0.75,2.25 0.75,4.25 0,3.5 -2.75,6 -2.75,2.5 -11.25,6.25 -8.5,3.75 -14.25,3.75 -8,0 -10,-7 l -1,-4.25 q -1.5,-0.25 -3.25,0 -7,2.75 -15.25,5.5 -8,2.75 -15.5,4 -7.25,1.25 -12.75,1.25 -13.5,0 -21.75,-6 -8.25,-6 -8.25,-19.5 0,-5.75 5.25,-15.5 5.5,-9.75 13.5,-14.75 8.25,-5.25 21.25,-10.75 13,-5.5 18.25,-6.5 5.5,-1.25 12,-2.5 6.75,-1.5 6.75,-4.75 -0.75,-4.25 -1.25,-9.75 -0.5,-5.75 -2.5,-11 -1.75,-5.5 -7.75,-5.5 -4.75,0 -10.25,2.5 -5.25,2.25 -23.5,15.5 -18.25,13 -20.75,13.25 -7.5,1.25 -6.75,-8.25 0,-6.75 18.5,-23 18.75,-16.5 38.5,-16.5 5.25,0 11,1.5 15.5,4.75 21,17.5 5.5,12.75 5.5,43.75 0,5.75 -0.25,12.5 -0.25,6.75 -0.5,12.5 0,9 1,9.75 3,-0.25 6.25,-0.25 3.75,0 6.5,1.25 2.75,1.25 3.5,4.75 z m -36.25,-23.25 q 0,-4.75 -2.25,-7 -2,-2.5 -4.75,-2.5 -23.25,2.5 -37,11 -13.75,8.5 -13.75,16 0,1.5 1.25,3.5 1.25,1.75 8,1.75 6,0 16.5,-1.75 10.75,-2 21.25,-7.75 10.75,-5.75 10.75,-13.25 z"
       style="font-style:normal;font-variant:normal;font-weight:100;font-stretch:normal;font-size:250px;font-family:Jester;-inkscape-font-specification:'Jester Thin';fill:#301b0b"
       id="path4178" />
    <path
       inkscape:connector-curvature="0"
       d="m 2159.9202,273.28607 -3,9.25 q -3.75,10.5 -9.5,10.5 -2.75,0 -6.5,-3.25 -3.75,-3.25 -3.75,-13.25 0,-1.5 0.25,-3.75 0.25,-2.25 0.25,-3.5 l 0.75,-4.75 q 2.25,-9.5 2.5,-11 0.5,-1.5 0,-2.75 -1,-2.25 -3,-0.75 -1.25,0.5 -3,2.25 -1.75,1.5 -2.25,2.25 l -4.5,6.25 -0.75,1 q -5.25,8 -9,20.75 l -2.5,14 q -3,16.5 -3,23.25 0,7.75 5.25,11.25 l 7,2.25 4.5,2.25 q 3,2.25 3,6.25 0,4 -3.25,7 -3,2 -7,3 -4,1 -8.5,1 l -8,0.5 -5.75,0.5 -2.25,0.25 -13.5,1 q -1.5,0.25 -2.5,-0.25 -1,-0.5 -4.25,-3.5 l -2.75,-2.75 q -2.75,-3.5 -2.75,-6.75 0,-4.75 7,-6.75 7,-2.25 10.5,-2.25 0.5,0 0.5,-3 0,-1.75 -0.25,-5.75 0,-4.25 0,-10.75 l 0,-4.25 q 0,-9 -0.25,-14.75 -0.25,-5.75 -0.5,-11.25 0,-3.75 0,-5 0.25,-1.5 0.75,-5.75 0.5,-4.5 0.5,-6.75 0,-2.75 -1,-3.75 -1,-1 -3.5,-1.5 l -4,0 q -2,0.25 -6.75,-3.75 -3.75,-4.5 -4,-6.75 -0.5,-2.5 -0.5,-3.5 0,-2.75 2.75,-4.25 3,-1.75 12.25,-5 l 6,-1.75 q 3.5,-0.75 6.5,-0.75 6.5,0 9.75,3.5 3.5,3.25 3.5,9 -0.25,3 -0.25,4.25 0,3.5 1.25,3.5 l 1.5,-0.5 8.25,-9.25 q 2.25,-2.25 6.75,-4.75 4.75,-2.75 9.75,-2.75 5.75,0 13,4.5 10.75,7.5 10.75,16.75 0,6 -2.5,14.5 z"
       style="font-style:normal;font-variant:normal;font-weight:100;font-stretch:normal;font-size:250px;font-family:Jester;-inkscape-font-specification:'Jester Thin';fill:#301b0b"
       id="path4180" />
    <path
       inkscape:connector-curvature="0"
       d="m 2289.9202,278.03607 q 1.5,6.75 1.5,13.75 0,12.75 -6,28 -6,15.25 -16.75,24.5 -10.5,9 -24.75,10.5 l -5,0.5 -2,0 -4.75,-0.25 -5.5,-0.25 -1.5,0 -1.5,-0.25 -5.5,-0.75 q -7.75,-1 -11.75,-2.25 -4,-1.5 -9.5,-4.5 -5.25,-3.25 -11,-8.5 -5.5,-5.5 -9.25,-12.5 -3.5,-7.25 -3.5,-17 l -0.25,-5.75 q 0,-11.75 1.75,-19 2,-7.25 8.25,-18.5 6.5,-11.25 17.5,-17.25 11,-6.25 16.25,-8.25 5.25,-2 11.25,-2.5 l 4.25,-0.5 2.75,-0.25 q 3.5,0 7.25,0.25 3.75,0.25 15.75,3 12.25,2.5 20.25,13.5 8.25,11 11.75,24.25 z m -24,10.5 q 0,-6.25 -1.5,-11.5 -2,-9.5 -5.25,-14.25 -3,-5 -9.25,-8.5 -6,-3.75 -12.5,-3.75 -8.5,0 -14,4.25 -5.5,4.25 -7.5,5.75 -1.75,1.5 -5.75,5.5 -3.75,3.75 -7.75,12.25 -4,8.5 -5.5,19.5 l -0.5,6.5 q 0,3 0.5,6.25 0.5,3 1.5,6.75 1.25,3.75 1.75,5.5 0.75,1.5 3.5,5.75 2.75,4.25 7.25,7.75 4.75,3.25 9.25,4.25 4.75,0.75 6.5,0.75 5.75,0 22.5,-6.75 16.75,-6.75 16.75,-46 z"
       style="font-style:normal;font-variant:normal;font-weight:100;font-stretch:normal;font-size:250px;font-family:Jester;-inkscape-font-specification:'Jester Thin';fill:#301b0b"
       id="path4182" />
    <path
       inkscape:connector-curvature="0"
       d="m 2387.0062,335.78607 -3.25,5 -0.5,0.5 q -1.5,2 -4.75,4.25 -3,2.25 -9.25,6 -6.25,4 -13.5,4 l -6,-0.5 q -9.25,-1.5 -14.25,-5 -7.75,-4.75 -11,-11.25 -3,-6.75 -3,-22.25 l -0.25,-5.5 0,-21.5 q 0,-9 -0.75,-11.25 -0.5,-2.5 -3.25,-2.5 -0.75,0 -5.75,1 l -3.25,0.25 q -8.5,0 -11,-4.25 -2.75,-4.5 -3.5,-6.75 -1,-2.25 -1,-4.25 0,-1 0.75,-2.5 0.5,-1.75 4.75,-3.75 4.25,-2 10.5,-3.25 6.25,-1.25 7.25,-1.25 1,-0.25 3.5,-0.25 0.5,-0.5 1.5,-2.75 1.25,-2.25 1.25,-10.75 0,-3.75 0,-7.75 -0.75,-4 -1.25,-7.25 -0.25,-3.5 0,-5.5 0,-12.75 9.25,-12.75 4.25,0 12,3.25 7.75,3 7.75,8 0,2 -2,7.75 -1.75,5.75 -1.75,12.25 0,11.75 8.5,10.75 5.5,-0.75 8.5,-2.25 3.25,-1.5 4.5,-1.5 1.5,-0.25 2.5,-0.5 3,0 7.75,4.5 5,4.25 5,8.25 0,3.25 -4.5,6 l -6.25,2.75 q -11.5,3.5 -16.5,5 -4.75,1.25 -6,1.25 -1,0.25 -1.75,6.25 -0.75,5.75 -0.75,13 0,5 -0.25,9.5 0,4.25 0,8.25 l 0,3.5 -0.5,8.25 q 0,1.25 0,2.5 0,1 1.25,5.75 1.5,8.75 7.75,8.75 2.75,0 5.5,-1.75 l 5.5,-3.25 7.5,-5.75 q 6.5,-5 9,-5 1.25,0 4.25,1.75 3,1.75 3,5.5 0,3.5 -3.25,9 z"
       style="font-style:normal;font-variant:normal;font-weight:100;font-stretch:normal;font-size:250px;font-family:Jester;-inkscape-font-specification:'Jester Thin';fill:#301b0b"
       id="path4184" />
  </g>
</svg>
