<?xml version="1.0" encoding="UTF-8" standalone="no"?>
<!-- Created with Inkscape (http://www.inkscape.org/) -->

<svg
   xmlns:dc="http://purl.org/dc/elements/1.1/"
   xmlns:cc="http://creativecommons.org/ns#"
   xmlns:rdf="http://www.w3.org/1999/02/22-rdf-syntax-ns#"
   xmlns:svg="http://www.w3.org/2000/svg"
   xmlns="http://www.w3.org/2000/svg"
   xmlns:xlink="http://www.w3.org/1999/xlink"
   xmlns:sodipodi="http://sodipodi.sourceforge.net/DTD/sodipodi-0.dtd"
   xmlns:inkscape="http://www.inkscape.org/namespaces/inkscape"
   id="svg2"
   version="1.1"
   inkscape:version="0.91 r13725"
   width="2481"
   height="3503"
   sodipodi:docname="Pepper-and-Carrot_by-David-Revoy_E06P08.svg">
  <metadata
     id="metadata8">
    <rdf:RDF>
      <cc:Work
         rdf:about="">
        <dc:format>image/svg+xml</dc:format>
        <dc:type
           rdf:resource="http://purl.org/dc/dcmitype/StillImage" />
        <dc:title />
      </cc:Work>
    </rdf:RDF>
  </metadata>
  <defs
     id="defs6">
    <filter
       color-interpolation-filters="sRGB"
       id="filter4375-4-1-1-15-1-3-3"
       inkscape:label="deevad outline effect">
      <feFlood
         id="feFlood4377-7-9-0-4-4-4-7"
         flood-opacity="1"
         flood-color="rgb(0,0,0)"
         result="flood" />
      <feComposite
         id="feComposite4379-3-8-8-6-0-7-4"
         in2="SourceGraphic"
         in="flood"
         operator="in"
         result="composite1" />
      <feMorphology
         id="feMorphology4393-1-0-49-8-2-7-3"
         operator="dilate"
         radius="0.69999999999999996"
         result="result3" />
      <feComposite
         id="feComposite4385-9-5-7-2-1-2-9"
         in2="result3"
         in="SourceGraphic"
         operator="over"
         result="composite2" />
    </filter>
    <filter
       color-interpolation-filters="sRGB"
       id="filter3639"
       inkscape:label="deevad outline effect">
      <feFlood
         id="feFlood3641"
         flood-opacity="1"
         flood-color="rgb(0,0,0)"
         result="flood" />
      <feComposite
         id="feComposite3643"
         in2="SourceGraphic"
         in="flood"
         operator="in"
         result="composite1" />
      <feMorphology
         id="feMorphology3645"
         operator="dilate"
         radius="0.69999999999999996"
         result="result3" />
      <feComposite
         id="feComposite3647"
         in2="result3"
         in="SourceGraphic"
         operator="over"
         result="composite2" />
    </filter>
    <filter
       color-interpolation-filters="sRGB"
       id="filter3649"
       inkscape:label="deevad outline effect">
      <feFlood
         id="feFlood3651"
         flood-opacity="1"
         flood-color="rgb(0,0,0)"
         result="flood" />
      <feComposite
         id="feComposite3653"
         in2="SourceGraphic"
         in="flood"
         operator="in"
         result="composite1" />
      <feMorphology
         id="feMorphology3655"
         operator="dilate"
         radius="0.69999999999999996"
         result="result3" />
      <feComposite
         id="feComposite3657"
         in2="result3"
         in="SourceGraphic"
         operator="over"
         result="composite2" />
    </filter>
  </defs>
  <sodipodi:namedview
     pagecolor="#ffffff"
     bordercolor="#666666"
     borderopacity="1"
     objecttolerance="10"
     gridtolerance="10"
     guidetolerance="10"
     inkscape:pageopacity="0"
     inkscape:pageshadow="2"
     inkscape:window-width="1304"
     inkscape:window-height="745"
     id="namedview4"
     showgrid="false"
     inkscape:zoom="0.2459502"
     inkscape:cx="1372.4282"
     inkscape:cy="2268.1625"
     inkscape:window-x="-8"
     inkscape:window-y="-8"
     inkscape:window-maximized="1"
     inkscape:current-layer="layer1" />
  <g
     inkscape:groupmode="layer"
     id="layer2"
     inkscape:label="artwork"
     sodipodi:insensitive="true">
    <image
       sodipodi:absref="E:\Projects\Pepper&amp;Carrot\peppercarrot_ep06_translation\hu\..\gfx_Pepper-and-Carrot_by-David-Revoy_E06P08.png"
       xlink:href="../gfx_Pepper-and-Carrot_by-David-Revoy_E06P08.png"
       width="2481"
       height="3503"
       id="image10"
       x="0"
       y="0" />
  </g>
  <g
     inkscape:groupmode="layer"
     id="layer3"
     inkscape:label="speechbubbles" />
  <g
     inkscape:groupmode="layer"
     id="layer1"
     inkscape:label="txt">
    <path
       style="color:#000000;fill:#ffffff;fill-opacity:1;fill-rule:nonzero;stroke:none;stroke-width:1px;marker:none;visibility:visible;display:inline;overflow:visible;enable-background:accumulate"
       d="m 524.44684,1977.3621 c -14.01377,-46.3951 -40.00882,-95.7772 -45.79925,-144.3988 l -11.44029,45.6542 c -62.91152,-129.7986 -216.9307,-210.2683 -37.93418,5.9274 l 4.61436,-21.5395 c 6.85365,14.1808 24.60331,28.6882 28.47492,44.653 l 15.40082,-17.4241 c 13.28656,38.1411 31.12227,58.0858 46.68362,87.1278 z"
       id="path4032-9"
       inkscape:connector-curvature="0"
       sodipodi:nodetypes="cccccccc" />
    <path
       style="color:#000000;fill:#ffffff;fill-opacity:1;fill-rule:nonzero;stroke:none;stroke-width:1px;marker:none;visibility:visible;display:inline;overflow:visible;enable-background:accumulate"
       d="m 734.33747,2852.147 c 34.68316,-42.7494 111.27433,-68.3456 171.06944,-6.0348 45.90017,-4.9397 81.26643,-4.2641 125.92729,48.6318 -41.84055,-33.4484 -69.35796,-47.6353 -136.48501,-35.9449 -35.82358,-28.4476 -90.54377,-19.0565 -121.82817,39.1849 -31.28451,58.2414 -17.69437,44.59 -17.69437,44.59 l -30.80741,-73.5852 z"
       id="path5074-3-6"
       inkscape:connector-curvature="0"
       sodipodi:nodetypes="ccccsccc" />
    <path
       style="color:#000000;fill:#ffffff;fill-opacity:1;fill-rule:nonzero;stroke:none;stroke-width:1px;marker:none;visibility:visible;display:inline;overflow:visible;enable-background:accumulate"
       d="m 921.73639,1713.3647 c 38.32906,18.6277 26.56293,53.657 -17.25459,29.5292 30.4647,35.9116 50.91128,52.0261 35.37649,66.5249 113.16101,-28.688 40.12509,17.6202 12.35589,45.6958 25.2138,-11.1892 65.39632,-42.7141 50.24712,0.9326 8.0165,-2.0071 17.4491,-7.7553 21.4169,0.9326 10.2141,-5.9994 17.8025,-7.54 22.2405,-3.7303 10.0387,-10.9178 16.5252,-13.7923 16.4745,-1.865 9.4908,-8.9943 12.4136,-5.8987 14.827,-1.8652 16.2884,-19.3104 22.3718,-13.8628 28.8303,-9.3257 9.2223,-11.5941 20.0147,-8.9681 32.1252,5.5954 12.3911,-19.7186 25.706,-18.519 39.5387,-5.5954 4.0629,-4.8576 7.7526,-13.0937 13.1796,-5.5954 5.4916,-2.5937 10.9829,-9.2401 16.4744,-2.7977 57.96,-25.5257 83.2408,-3.9641 110.3791,14.921 15.1317,-8.3376 26.0358,-24.4528 51.8945,-13.0558 2.4173,-11.638 16.2824,-16.3634 40.3625,-14.9211 -24.6985,-14.0451 -25.9691,-22.0409 31.3015,-14.9211 -39.9179,-11.5016 -76.7041,-23.0032 -14.8271,-34.5049 -14.4922,-4.5662 -61.8613,6.1755 -9.8847,-48.4933 -36.9085,12.0657 -70.4145,15.2007 -80.7249,-33.5725 -19.9115,12.8266 -41.9579,19.1806 -59.3081,-10.2582 -15.8027,13.7936 -37.9137,10.4819 -49.4234,3.7302 -3.114,15.1069 -26.6303,38.2752 -58.4843,-3.7302 6.989,23.8751 1.6991,61.9029 -35.4201,-0.9326 -0.7362,10.9306 14.5493,70.3734 -88.9621,-0.9326 12.9121,47.8406 -21.4561,20.0035 -48.59972,3.7302 13.46032,29.9949 -6.7969,32.3145 -51.0709,14.9211 34.1543,28.4805 -0.96419,20.6172 -23.06429,19.584 z"
       id="path3549-2"
       inkscape:connector-curvature="0"
       sodipodi:nodetypes="ccccccccccccccccccccccccccccc" />
    <path
       style="color:#000000;display:inline;overflow:visible;visibility:visible;fill:#ffffff;fill-opacity:1;fill-rule:nonzero;stroke:none;stroke-width:1px;marker:none;enable-background:accumulate"
       d="m 607.19713,1756.655 c 77.18662,15.425 155.85911,30.5991 24.48765,81.2353 127.14788,-16.2519 50.73117,11.8906 20.61706,29.935 226.15507,-41.4052 82.64502,17.8474 29.00527,52.6287 49.96687,-14.8404 128.38836,-54.5176 101.62729,-2.3845 58.95971,-26.6335 151.43603,-74.8686 43.36394,-0.39 90.93569,-45.8924 92.95655,-41.119 44.61673,-5.9045 59.51539,-31.4082 69.70077,-25.9232 62.92807,-6.5312 37.47919,-40.6127 45.75094,-22.5251 57.4401,-12.9095 17.61356,-14.208 39.65586,-11.8811 65.41626,4.3267 23.3,-23.9364 50.3141,1.4801 50.4403,24.3218 19.2515,-34.413 51.0961,-39.2878 80.8612,-0.9563 0.5815,-22.9435 0.1455,-71.9868 45.9215,-0.077 -11.9781,-65.7771 136.6307,-37.9895 208.2897,3.324 -42.1777,-48.2731 -6.2423,-79.0486 81.1895,-56.8129 3.8572,-13.7886 31.4602,-20.2784 80.2513,-20.2561 -51.1538,-14.7301 -54.4277,-24.0007 61.94,-19.6293 -81.6862,-10.7004 -157.0435,-21.6174 -33.0111,-39.3597 -29.6909,-4.3417 -124.471,11.5073 -24.2583,-56.0738 -73.5236,16.6752 -140.9593,22.6623 -166.1024,-33.7096 -39.1069,16.3899 -83.0996,25.3519 -120.7621,-7.9038 -30.7181,17.2375 -75.6947,14.8911 -99.5511,7.7849 -4.959,17.8968 -50.4375,46.6403 -118.5209,-0.3202 16.2323,27.4604 8.9001,72.3351 -71.6632,1.3589 -0.5223,12.8442 35.617,81.36 -179.86701,5.0624 30.31893,55.1004 -41.59427,24.8968 -97.8863,7.7278 29.85078,34.1756 -10.88237,38.2919 -101.89198,20.9969 71.53773,30.9716 -0.12806,24.1975 -44.88148,24.517 z"
       id="path3549"
       inkscape:connector-curvature="0"
       sodipodi:nodetypes="ccccccccccccccccccccccccccccc" />
    <path
       style="color:#000000;fill:#ffffff;fill-opacity:1;fill-rule:nonzero;stroke:none;stroke-width:1px;marker:none;visibility:visible;display:inline;overflow:visible;enable-background:accumulate"
       d="m 449.5896,426.349 c 35.58346,-34.48897 229.12525,-31.54474 293.52019,-16.60243 64.39467,14.94213 88.35552,40.67597 91.3506,49.80737 2.99494,9.13132 -4.4926,51.46759 -37.43886,59.7689 -32.94607,8.30121 -127.29175,12.45182 -160.238,12.45182 -32.94607,0 -138.11741,-5.2837 -164.73088,-17.43262 C 446.59424,502.72032 414.00599,460.83788 449.5896,426.349 z"
       id="path3330"
       inkscape:connector-curvature="0"
       sodipodi:nodetypes="zsssssz" />
    <path
       style="color:#000000;display:inline;overflow:visible;visibility:visible;fill:#ffffff;fill-opacity:1;fill-rule:nonzero;stroke:none;stroke-width:1px;marker:none;enable-background:accumulate"
       d="m 437.425,713.38398 c -10.29542,-68.88982 17.15899,-251.87831 228.21587,-236.80859 211.0567,15.06945 235.61286,94.85161 250.52261,127.01538 7.66664,21.35766 73.07587,165.84159 -92.80187,193.07097 -167.89364,27.56031 -334.45929,15.7512 -385.93661,-83.27776 z"
       id="path3525"
       inkscape:connector-curvature="0"
       sodipodi:nodetypes="cscsc" />
    <flowRoot
       xml:space="preserve"
       id="flowRoot2987-4-9-3"
       style="font-style:normal;font-variant:normal;font-weight:normal;font-stretch:normal;font-size:12px;line-height:125%;font-family:Lavi;-inkscape-font-specification:Lavi;text-align:center;letter-spacing:0px;word-spacing:0px;text-anchor:middle;fill:#000000;fill-opacity:1;stroke:none"
       transform="translate(263.21469,268.27206)"><flowRegion
         id="flowRegion2989-5-4-5"><rect
           id="rect2991-7-9-6"
           width="602.40173"
           height="310.73996"
           x="120.55251"
           y="265.53046"
           style="font-style:normal;font-variant:normal;font-weight:normal;font-stretch:normal;font-family:Lavi;-inkscape-font-specification:Lavi;text-align:center;text-anchor:middle" /></flowRegion><flowPara
         style="font-size:48px;text-align:center;text-anchor:middle"
         id="flowPara4229">...ahogy mindig,</flowPara><flowPara
         style="font-size:48px;text-align:center;text-anchor:middle"
         id="flowPara4247">most is eltűnik</flowPara><flowPara
         style="font-size:48px;text-align:center;text-anchor:middle"
         id="flowPara3419">mindenki, amikor</flowPara><flowPara
         style="font-size:48px;text-align:center;text-anchor:middle"
         id="flowPara3421">mi következnénk.</flowPara></flowRoot>    <flowRoot
       transform="translate(208.59665,162.53048)"
       style="font-style:normal;font-variant:normal;font-weight:normal;font-stretch:normal;font-size:12px;line-height:125%;font-family:Lavi;-inkscape-font-specification:Lavi;text-align:center;letter-spacing:0px;word-spacing:0px;text-anchor:middle;fill:#000000;fill-opacity:1;stroke:none"
       id="flowRoot3045"
       xml:space="preserve"><flowRegion
         id="flowRegion3047"><rect
           style="font-style:normal;font-variant:normal;font-weight:normal;font-stretch:normal;font-family:Lavi;-inkscape-font-specification:Lavi;text-align:center;text-anchor:middle"
           y="265.53046"
           x="120.55251"
           height="310.73996"
           width="602.40173"
           id="rect3049" /></flowRegion><flowPara
         id="flowPara3055"
         style="font-size:48px;text-align:center;text-anchor:middle">Nesze nekem...</flowPara></flowRoot>    <path
       style="color:#000000;fill:#ffffff;fill-opacity:1;fill-rule:nonzero;stroke:none;stroke-width:1px;marker:none;visibility:visible;display:inline;overflow:visible;enable-background:accumulate"
       d="m 900.08615,716.05926 c 42.51329,20.49356 123.80235,14.32923 138.26235,-30.35733 -49.15569,36.55167 -109.63611,20.90132 -120.75593,10.89767 -11.11981,-10.00366 -17.50642,19.45966 -17.50642,19.45966 z"
       id="path3978"
       inkscape:connector-curvature="0" />
    <path
       style="color:#000000;display:inline;overflow:visible;visibility:visible;fill:#ffffff;fill-opacity:1;fill-rule:nonzero;stroke:none;stroke-width:1px;marker:none;enable-background:accumulate"
       d="m 1551.8265,822.89376 c 52.3292,-84.45588 310.9847,-77.24612 395.1412,-40.6557 84.1559,36.59 112.7203,99.60651 115.4846,121.96732 2.7642,22.36059 -13.0282,126.03282 -58.2584,146.36092 -45.2298,20.3279 -172.0778,30.4917 -216.1764,30.4917 -44.0987,0 -184.1508,-12.9386 -218.1172,-42.6887 -32.4922,-28.459 -70.4034,-131.01986 -18.0738,-215.47554 z"
       id="path3330-3"
       inkscape:connector-curvature="0"
       sodipodi:nodetypes="zsssssz" />
    <path
       style="color:#000000;fill:#ffffff;fill-opacity:1;fill-rule:nonzero;stroke:none;stroke-width:1px;marker:none;visibility:visible;display:inline;overflow:visible;enable-background:accumulate"
       d="m 1441.4333,792.86046 c 1.8123,17.9111 3.4719,36.60072 12.514,52.57918 2.6665,4.48827 5.7379,8.94714 9.7431,12.29849 4.9422,2.55729 10.902,0.92324 14.9972,-2.48609 6.2588,-4.50938 10.9613,-11.84776 18.8831,-13.58596 5.7972,-1.12556 10.4379,3.16953 14.6457,6.42604 10.5623,8.51108 20.0337,18.50261 31.8998,25.28467 12.8634,8.50453 27.0155,16.51979 42.7488,17.47511 6.2316,0.27366 12.7888,-0.31154 18.2031,-3.68195 14.2818,-8.01643 24.173,-24.34511 22.834,-40.90808 -1.8569,-10.48428 -12.9332,-19.03038 -23.5991,-16.39316 -5.6511,1.30784 -9.507,6.21921 -11.5244,11.3814 -5.4816,8.7963 -15.7551,13.86937 -26.0014,13.88113 -8.456,0.14805 -16.8709,-2.36044 -24.0764,-6.73748 -11.3704,-3.36484 -18.2685,-13.64874 -26.3598,-21.52774 -3.7502,-3.54453 -7.9795,-7.06083 -13.0234,-8.42848 -7.6564,-0.23923 -13.3775,5.76673 -17.631,11.40618 -4.5368,5.70318 -9.1549,12.83128 -16.9484,14.04463 -5.2949,1.57023 -8.0628,-4.3141 -11.2198,-7.42808 -8.8564,-11.35341 -14.0534,-25.32791 -16.0433,-39.50562 -0.089,-1.36474 -0.067,-2.72787 -0.042,-4.09419 z"
       id="path4496"
       inkscape:connector-curvature="0"
       inkscape:transform-center-x="-99.717282"
       inkscape:transform-center-y="101.38562" />
    <path
       style="color:#000000;fill:#ffffff;fill-opacity:1;fill-rule:nonzero;stroke:none;stroke-width:1px;marker:none;visibility:visible;display:inline;overflow:visible;enable-background:accumulate"
       d="m 1725.0756,1115.0856 c 43.3771,-69.7642 285.0078,-78.229 363.5068,-48.0038 78.4985,30.2249 96.3108,74.7656 99.9619,93.2366 3.6508,18.4709 5.92,90.3998 -37.0913,126.384 -33.0463,27.6471 -158.0209,41.6381 -198.1833,41.6381 -40.162,0 -168.3685,-10.6878 -200.8109,-35.2627 -31.0346,-23.5085 -70.7605,-108.228 -27.3832,-177.9922 z"
       id="path3330-7"
       inkscape:connector-curvature="0"
       sodipodi:nodetypes="zsssssz" />
    <flowRoot
       xml:space="preserve"
       id="flowRoot2987-4-9-3-8-9"
       style="font-style:normal;font-variant:normal;font-weight:normal;font-stretch:normal;font-size:12px;line-height:125%;font-family:Lavi;-inkscape-font-specification:Lavi;text-align:center;letter-spacing:0px;word-spacing:0px;text-anchor:middle;fill:#000000;fill-opacity:1;stroke:none"
       transform="translate(1523.828,835.31854)"><flowRegion
         id="flowRegion2989-5-4-5-8-6"><rect
           id="rect2991-7-9-6-5-0"
           width="602.40173"
           height="310.73996"
           x="120.55251"
           y="265.53046"
           style="font-style:normal;font-variant:normal;font-weight:normal;font-stretch:normal;font-family:Lavi;-inkscape-font-specification:Lavi;text-align:center;text-anchor:middle" /></flowRegion><flowPara
         style="font-size:48px;text-align:center;text-anchor:middle"
         id="flowPara4678">Hozzunk helyre</flowPara><flowPara
         style="font-size:48px;text-align:center;text-anchor:middle"
         id="flowPara4278">mindent, és</flowPara><flowPara
         style="font-size:48px;text-align:center;text-anchor:middle"
         id="flowPara4280">menjünk haza!</flowPara></flowRoot>    <flowRoot
       xml:space="preserve"
       id="flowRoot2987-4-9-3-8-9-5"
       style="font-style:normal;font-variant:normal;font-weight:normal;font-stretch:normal;font-size:12px;line-height:125%;font-family:Lavi;-inkscape-font-specification:Lavi;text-align:center;letter-spacing:0px;word-spacing:0px;text-anchor:middle;fill:#000000;fill-opacity:1;stroke:none"
       transform="translate(725.21911,1446.0215)"><flowRegion
         id="flowRegion2989-5-4-5-8-6-3"><rect
           id="rect2991-7-9-6-5-0-1"
           width="602.40173"
           height="310.73996"
           x="120.55251"
           y="265.53046"
           style="font-style:normal;font-variant:normal;font-weight:normal;font-stretch:normal;font-family:Lavi;-inkscape-font-specification:Lavi;text-align:center;text-anchor:middle" /></flowRegion><flowPara
         style="font-size:48px;text-align:center;text-anchor:middle"
         id="flowPara3211-2">Te</flowPara></flowRoot>    <path
       style="color:#000000;fill:#ffffff;fill-opacity:1;fill-rule:nonzero;stroke:none;stroke-width:1px;marker:none;visibility:visible;display:inline;overflow:visible;enable-background:accumulate"
       d="m 799.55794,2061.6662 c 41.54476,-24.9583 79.49671,-56.3087 125.21587,-73.8403 l -43.51369,-5.8567 c 12.70794,-14.5474 33.04403,-20.2182 50.79008,-28.9032 l -26.26055,-7.9369 c 30.43962,-33.9774 70.07719,-50.7411 105.26895,-75.8248 l -46.93148,-10.2988 c -32.40962,29.4099 -59.34882,63.5475 -97.91175,87.6396 l 24.81802,10.2865 c -12.06842,10.1205 -24.58698,19.7921 -39.1159,27.4588 l 32.36116,10.2326 z"
       id="path4032"
       inkscape:connector-curvature="0"
       sodipodi:nodetypes="cccccccccccc" />
    <flowRoot
       transform="matrix(0.93080411,0,-0.09044116,1.21695,622.06542,1428.3539)"
       style="font-style:normal;font-variant:normal;font-weight:normal;font-stretch:normal;font-size:12px;line-height:125%;font-family:Lavi;-inkscape-font-specification:Lavi;text-align:center;letter-spacing:0px;word-spacing:0px;text-anchor:middle;fill:#000000;fill-opacity:1;stroke:#000000;stroke-width:2.71217394;stroke-miterlimit:4;stroke-dasharray:none;stroke-opacity:1"
       id="flowRoot4212-3-7-8-6"
       xml:space="preserve"><flowRegion
         id="flowRegion4214-6-7-8-3"><rect
           style="font-style:normal;font-variant:normal;font-weight:normal;font-stretch:normal;font-family:Lavi;-inkscape-font-specification:Lavi;text-align:center;text-anchor:middle;stroke:#000000;stroke-width:2.71217394;stroke-miterlimit:4;stroke-dasharray:none;stroke-opacity:1"
           y="284.74136"
           x="84.744102"
           height="327.22513"
           width="1000.903"
           id="rect4216-4-0-26-5" /></flowRegion><flowPara
         style="font-size:48px;text-align:center;letter-spacing:5.20896292px;text-anchor:middle;stroke:#000000;stroke-width:2.71217394;stroke-miterlimit:4;stroke-dasharray:none;stroke-opacity:1"
         id="flowPara3048">túlméretezett-sikkes-zombi-kanári!</flowPara></flowRoot>    <path
       style="fill:#ffffff;fill-opacity:1;stroke:none"
       d="m 826.84882,2875.6026 c -28.78194,-6.8708 -39.86465,-13.258 -34.71629,-17.1941 -11.80514,-1.9615 -16.405,-53.0973 -5.37616,-62.4448 0.73408,-0.984 5.88563,-3.9365 3.67174,-4.4272 -2.21377,-0.4907 -15.48178,0.9903 -17.7007,-0.9754 -2.21892,-1.9659 19.80671,-30.0034 16.85382,-30.9856 -2.95312,-0.9819 -48.71563,-5.0755 -58.31677,-9.4966 -9.60132,-4.421 -26.49188,7.0768 -29.44314,6.5863 3.4829,-14.2548 -30.22459,2.4724 -33.91331,1.9824 -3.68846,-0.4902 -10.37554,-15.2384 -14.06417,-15.7283 -3.68873,-0.4901 -20.62516,6.4014 -23.57642,5.9112 -2.95127,-0.4904 -1.51852,-12.7839 -5.20724,-13.2737 -3.68863,-0.4902 -19.87413,10.3348 -22.08801,9.8442 -2.21382,-0.4908 -10.40961,-25.0727 -14.10158,-26.5461 -3.69205,-1.4734 -27.19067,27.0565 -29.40124,27.5493 -2.21038,0.4927 -16.33721,-33.429 -19.28858,-33.9195 -2.95125,-0.4903 -17.618,23.1187 -19.83194,22.628 -2.21386,-0.4907 -16.27151,-14.2524 -19.22437,-15.2344 -2.95296,-0.982 -22.01722,30.496 -24.96671,30.4975 -2.94968,0 -28.06645,-13.2635 -30.28714,-15.721 -2.22062,-2.4575 -4.38037,12.7865 -7.32996,12.7879 -2.9496,0 -36.8999,-8.8341 -37.63573,-8.3421 -0.73563,0.4922 5.19559,9.832 2.98343,9.8331 -2.21216,0 -36.91174,-12.2763 -38.37824,-9.8169 -1.4662,2.4592 -75.25603,-12.2585 -80.41103,-10.2894 -5.155,1.9693 33.321,40.3052 29.6443,43.2571 -3.67687,2.952 -16.96194,-0.4839 -17.69421,0.9915 -0.73226,1.4756 8.13835,7.8637 5.9331,9.8316 -2.2056,1.9678 -27.24992,9.8467 -29.45355,12.306 -2.20381,2.4598 11.09119,8.8459 8.14677,10.3225 -2.94462,1.4765 -46.41879,10.8388 -47.14768,13.2977 -0.72889,2.4588 22.17066,14.2493 19.23298,17.6927 -2.93777,3.4433 -11.04403,4.9221 -10.29818,7.3804 0.74586,2.4583 14.76648,5.4021 14.03749,7.861 -0.72907,2.459 -8.06071,14.755 -10.26612,16.7229 -2.20543,1.9678 15.4886,0.9763 15.49535,2.9431 0.006,1.9669 11.70776,14.234 -28.19588,43.8839 61.30373,-22.9118 65.95135,-0.6303 90.29866,3.2922 24.34757,3.9227 14.84569,28.5125 18.53765,29.986 3.69208,1.4735 30.9419,-8.3732 34.64071,-4.933 3.69872,3.4405 5.19539,9.8319 8.14507,9.8306 2.94942,0 27.41761,-10.0372 31.10613,-9.5472 30.52071,-6.974 42.16312,15.227 36.02852,18.8592 5.16335,0.4893 25.04255,-8.3706 29.46527,-8.8643 4.42267,-0.4937 8.15173,11.7973 11.83536,10.8123 3.68363,-0.9849 27.24974,-9.8467 30.93993,-8.8649 3.69039,0.9818 6.65347,4.9141 9.59977,3.9292 2.94601,-0.9846 16.20569,-4.9244 16.20569,-4.9244 0,0 9.59619,2.9459 14.02054,2.9439 4.42432,0 21.06027,-12.4678 24.74388,-13.453 3.6836,-0.985 37.77994,4.329 53.63303,34.6438 -8.97279,-35.735 26.27189,-38.94 31.4286,-40.4175 5.15662,-1.4775 20.65716,2.9408 22.12668,1.465 1.46979,-1.4759 5.86712,-9.3451 10.28989,-9.8389 4.42267,-0.4937 14.73933,-2.4651 14.73933,-2.4651 l -1.4848,-2.9497 c 0,0 30.99734,7.8532 34.69448,10.8018 3.69703,2.9486 -2.2561,-12.7833 -4.48178,-16.7161 13.28642,3.9278 52.39697,12.269 55.35488,14.7262 2.95804,2.4572 -5.19192,-8.8486 -9.62817,-12.2885 5.90416,1.4726 11.06761,1.962 11.06761,1.962 l -17.0005,-11.7934 5.15844,-0.9858 c 0,0 -11.07941,-5.4039 -11.08788,-7.8625 -0.008,-2.4584 28.7396,-5.4219 28.7396,-5.4219 0,0 -11.81349,-4.42 -8.87239,-6.8798 2.94134,-2.46 10.3101,-3.9384 10.3101,-3.9384 l 1.45281,-6.3929 z"
       id="path5888"
       inkscape:connector-curvature="0"
       sodipodi:nodetypes="ccccccccccsccccsccccccsccsccscsccccscccscccccscccccsccccscccccccccccc" />
    <flowRoot
       xml:space="preserve"
       id="flowRoot2987-4-9-3-0"
       style="font-style:normal;font-variant:normal;font-weight:normal;font-stretch:normal;font-size:12px;line-height:125%;font-family:Lavi;-inkscape-font-specification:Lavi;text-align:center;letter-spacing:0px;word-spacing:0px;text-anchor:middle;fill:#000000;fill-opacity:1;stroke:none"
       transform="translate(120.66404,2524.3888)"><flowRegion
         id="flowRegion2989-5-4-5-1"><rect
           id="rect2991-7-9-6-4"
           width="602.40173"
           height="310.73996"
           x="120.55251"
           y="265.53046"
           style="font-style:normal;font-variant:normal;font-weight:normal;font-stretch:normal;font-family:Lavi;-inkscape-font-specification:Lavi;text-align:center;text-anchor:middle" /></flowRegion><flowPara
         style="font-size:48px;text-align:center;letter-spacing:1.5px;text-anchor:middle;stroke:#000000;stroke-width:1.10000002;stroke-miterlimit:4;stroke-dasharray:none;stroke-opacity:1"
         id="flowPara4687">Szeretnél kipróbálni</flowPara><flowPara
         style="font-size:48px;text-align:center;letter-spacing:1.5px;text-anchor:middle;stroke:#000000;stroke-width:1.10000002;stroke-miterlimit:4;stroke-dasharray:none;stroke-opacity:1"
         id="flowPara4284">még egy bájitalt?</flowPara></flowRoot>    <path
       style="fill:#ffffff;fill-opacity:1;stroke:none"
       d="m 1797.6547,3217.328 c 51.1951,7.8461 33.9728,-22.7383 30.7117,-26.5294 12.4685,6.3619 33.7128,-0.6378 11.6145,-22.7816 31.3979,8.8884 16.0285,4.6971 -2.2403,-19.1391 27.6559,12.1205 45.0958,4.4539 25.4512,-12.3497 28.2178,21.6065 38.1616,14.7086 20.1646,-12.1213 35.4855,27.7901 28.8452,17.3239 20.1976,3.6005 29.5516,25.048 7.5901,-12.2268 9.8497,-12.4286 2.2596,-0.202 11.8211,6.5604 13.6378,6.3162 1.8166,-0.2442 2.0503,-10.6669 4.31,-10.8687 2.2596,-0.202 11.0196,9.8262 12.3934,9.5397 5.3295,3.5195 10.9415,-18.1346 10.8351,-21.5261 -2.2717,2.9413 10.7405,27.0463 15.2106,24.8496 1.2841,0.5403 16.4151,-27.7552 14.6079,-27.4328 -3.3706,0.6011 6.8306,20.7274 9.8998,20.1646 2.4405,3.7285 12.5195,-5.509 12.9058,-11.7191 -0.9493,1.7572 7.4277,29.5576 12.284,27.0768 2.192,5.2143 18.4083,-5.1601 19.5952,-11.4978 1.5529,-1.9406 1.4933,11.0054 3.2651,11.1747 -3.1265,6.3797 19.6646,-1.1555 23.353,-4.8719 0.3983,0.4559 -2.1985,6.78 -2.6676,8.1012 -2.5283,7.1203 18.3083,0.7713 23.9303,-6.0701 -21.6822,34.1407 41.6083,0.6989 49.2246,-4.0719 2.9217,1.9504 -23.6066,32.0045 -21.6606,34.6972 1.9462,2.6928 10.2334,0.5598 10.5418,1.8433 0.3086,1.2828 -5.5893,6.1509 -4.4398,7.9319 1.1499,1.7809 15.4942,9.836 16.5992,12.0304 1.105,2.1947 -7.4509,6.8087 -5.8133,8.2187 1.6376,1.4099 26.9218,11.7631 27.1408,13.8729 0.2191,2.1099 -14.588,10.7226 -13.1296,13.7865 1.4584,3.064 6.1966,4.7699 5.5297,6.7953 -0.6669,2.0253 -9.3522,3.7024 -9.1332,5.8124 0.2191,2.1099 3.5289,12.871 4.6787,14.6518 1.1498,1.7812 -9.3919,-0.062 -9.571,1.5927 -0.1832,1.6537 -28.3453,7.5754 15.2933,38.67 -47.397,-19.8577 -41.8265,-4.4382 -56.8029,-2.5264 -14.9766,1.9119 -11.4574,23.1379 -13.8066,24.167 -2.3492,1.0289 -17.8433,-8.8071 -20.3718,-6.124 -2.5285,2.683 -3.9966,7.9743 -5.7687,7.8049 -1.7717,-0.1681 -15.5779,-10.0059 -17.8374,-9.804 -17.715,-7.6058 -26.6859,10.4054 -23.3238,13.8104 -3.1456,0.1173 -14.2997,-8.4686 -16.9128,-9.1359 -2.613,-0.6675 -5.9476,9.459 -8.0729,8.4205 -2.1253,-1.0385 -15.4941,-9.8361 -17.7985,-9.2205 -2.3046,0.6154 -4.4347,3.7544 -6.117,2.7578 -1.6823,-0.996 -9.2975,-5.0659 -9.2975,-5.0659 0,0 -6.0274,1.9311 -8.6852,1.6772 -2.658,-0.2521 -19.3416,-15.6347 -21.4667,-16.6734 -2.1254,-1.0386 -39.3332,20.5966 -38.273,23.2047 1.0602,2.6082 -1.5499,-27.4265 -4.5164,-28.9632 -2.9663,-1.5368 -12.672,1.2963 -13.4234,-0.029 -0.7516,-1.3252 -2.6928,-8.1952 -5.3059,-8.8627 -2.6131,-0.6674 -8.6354,-2.9137 -8.6354,-2.9137 l 1.1546,-2.3967 c 0,0 -19.3215,4.8392 -21.8051,7.1088 -2.4837,2.2694 2.4935,-10.6245 4.1809,-13.8059 -8.3318,2.5468 -32.571,7.3339 -34.5666,9.2323 -1.996,1.8982 3.9068,-7.1474 6.8783,-9.7881 -3.6781,0.9022 -6.8238,1.0196 -6.8238,1.0196 l 11.2634,-8.9514 -3.0114,-1.1231 c 0,0 7.1374,-3.9142 7.3613,-5.9819 0.2268,-2.0672 -16.7831,-6.1988 -16.7831,-6.1988 51.9741,1.1467 14.2806,-14.0958 -6.0026,-18.957 z"
       id="path5888-2"
       inkscape:connector-curvature="0"
       sodipodi:nodetypes="ccccccccsccccsccccccsccsccscsccccscccscccccscccccsccccsccccccccc" />
    <path
       style="color:#000000;fill:#ffffff;fill-opacity:1;fill-rule:nonzero;stroke:none;stroke-width:1px;marker:none;visibility:visible;display:inline;overflow:visible;enable-background:accumulate"
       d="m 1949.2127,3186.2754 c -39.3897,38.4564 -118.4251,55.0326 -170.6211,-13.769 -46.1636,-0.3962 -81.2149,-5.1531 -119.4658,-62.8545 37.6962,38.0583 63.3903,55.3293 131.4185,51.4723 32.2972,32.3957 87.7359,29.3893 125.5394,-24.8478 37.8036,-54.2372 22.7273,-42.2473 22.7273,-42.2473 l 22.0999,76.6516 z"
       id="path5074-3"
       inkscape:connector-curvature="0"
       sodipodi:nodetypes="ccccsccc" />
    <flowRoot
       xml:space="preserve"
       id="flowRoot2987-4-9-3-0-3"
       style="font-style:normal;font-variant:normal;font-weight:normal;font-stretch:normal;font-size:12px;line-height:125%;font-family:Lavi;-inkscape-font-specification:Lavi;text-align:center;letter-spacing:0px;word-spacing:0px;text-anchor:middle;fill:#000000;fill-opacity:1;stroke:none"
       transform="translate(1568.3918,2919.1214)"><flowRegion
         id="flowRegion2989-5-4-5-1-6"><rect
           id="rect2991-7-9-6-4-7"
           width="602.40173"
           height="310.73996"
           x="120.55251"
           y="265.53046"
           style="font-style:normal;font-variant:normal;font-weight:normal;font-stretch:normal;font-family:Lavi;-inkscape-font-specification:Lavi;text-align:center;text-anchor:middle" /></flowRegion><flowPara
         style="font-size:48px;text-align:center;letter-spacing:1.5px;text-anchor:middle;stroke:#000000;stroke-width:1.10000002;stroke-miterlimit:4;stroke-dasharray:none;stroke-opacity:1"
         id="flowPara4202">Nem, mi?</flowPara></flowRoot>    <path
       style="color:#000000;fill:#ffffff;fill-opacity:1;fill-rule:nonzero;stroke:none;stroke-width:1px;marker:none;visibility:visible;display:inline;overflow:visible;enable-background:accumulate"
       d="m 432.9877,1582.757 c -4.62527,14.1556 -29.80658,59.4538 -38.06244,16.2093 -42.3877,66.8706 -90.94164,55.4388 -139.14497,48.4577 -9.52731,19.5362 -7.09875,46.1647 -46.96241,47.7053 7.95498,15.9183 -3.45476,30.2003 -32.14335,43.0229 40.98017,2.4517 49.77676,11.6093 -21.84737,37.5242 55.93525,-9.943 108.31222,-17.9855 48.57741,33.848 20.66662,-3.1249 64.61473,-45.2102 55.82445,54.2176 30.8443,-37.3814 66.03449,-61.6079 122.59982,-7.3014 10.83096,-28.0111 30.03942,-49.2804 76.82521,-23.2543 5.27288,-26.7184 55.3579,-38.7619 74.64488,-37.3629 -41.4714,-20.5081 -42.72921,-38.0996 7.62637,-50.843 -92.48457,-33.4472 -21.82215,-39.6374 -9.97409,-55.1095 -69.36813,-4.1008 -42.62685,-31.5667 -33.87821,-55.3999 -76.91874,14.4742 -56.82784,-24.9365 -64.0853,-51.714 z"
       id="path3549-3"
       inkscape:connector-curvature="0"
       sodipodi:nodetypes="ccccccccccccccc" />
    <flowRoot
       transform="matrix(1.8217115,0,-0.17700578,1.8738433,-535.05413,1190.8474)"
       style="font-style:normal;font-variant:normal;font-weight:normal;font-stretch:normal;font-size:12px;line-height:125%;font-family:Lavi;-inkscape-font-specification:Lavi;text-align:center;letter-spacing:0px;word-spacing:0px;text-anchor:middle;fill:#000000;fill-opacity:1;stroke:#000000;stroke-width:2.71217394;stroke-miterlimit:4;stroke-dasharray:none;stroke-opacity:1"
       id="flowRoot4212-3-7-8-6-5"
       xml:space="preserve"><flowRegion
         id="flowRegion4214-6-7-8-3-6"><rect
           style="font-style:normal;font-variant:normal;font-weight:normal;font-stretch:normal;font-family:Lavi;-inkscape-font-specification:Lavi;text-align:center;text-anchor:middle;stroke:#000000;stroke-width:2.71217394;stroke-miterlimit:4;stroke-dasharray:none;stroke-opacity:1"
           y="265.53046"
           x="120.55251"
           height="355.03918"
           width="798.1947"
           id="rect4216-4-0-26-5-2" /></flowRegion><flowPara
         style="font-size:48px;text-align:center;letter-spacing:1.45219982px;text-anchor:middle;stroke:#000000;stroke-width:2.71217394;stroke-miterlimit:4;stroke-dasharray:none;stroke-opacity:1"
         id="flowPara4358-7-1-6">HÉ!</flowPara></flowRoot>    <flowRoot
       xml:space="preserve"
       id="flowRoot4133-6-9-4-8-5-3"
       style="color:#000000;font-style:normal;font-variant:normal;font-weight:normal;font-stretch:normal;font-size:12px;line-height:125%;font-family:Arial;-inkscape-font-specification:Arial;letter-spacing:0.00204969px;word-spacing:0px;display:inline;overflow:visible;visibility:visible;fill:#ffffff;fill-opacity:1;fill-rule:nonzero;stroke:#ffffff;stroke-width:0.0836072;stroke-linecap:butt;stroke-linejoin:miter;stroke-miterlimit:4;stroke-dasharray:none;stroke-dashoffset:0;stroke-opacity:1;marker:none;filter:url(#filter4375-4-1-1-15-1-3-3);enable-background:accumulate"
       transform="matrix(8.3099216,-5.4900388,-0.26452567,16.18078,-7093.1327,-9087.3999)"><flowRegion
         id="flowRegion4135-2-9-3-5-2-6"
         style="stroke-width:0.86646658"><rect
           id="rect4137-1-7-1-2-1-4"
           width="200.00224"
           height="39.051064"
           x="1125.3193"
           y="1078.5308"
           style="color:#000000;letter-spacing:0.00204969px;display:inline;overflow:visible;visibility:visible;fill:#ffffff;fill-opacity:1;fill-rule:nonzero;stroke:#ffffff;stroke-width:0.0836072;stroke-linecap:butt;stroke-linejoin:miter;stroke-miterlimit:4;stroke-dasharray:none;stroke-dashoffset:0;stroke-opacity:1;marker:none;filter:url(#filter4375-4-1-1-15-1-3-3);enable-background:accumulate" /></flowRegion><flowPara
         id="flowPara4139-2-8-6-8-6-3"
         style="color:#000000;font-style:normal;font-variant:normal;font-weight:normal;font-stretch:normal;font-size:17.85409164px;line-height:125%;font-family:Lavi;-inkscape-font-specification:Lavi;letter-spacing:0.00204969px;word-spacing:0.00204969px;display:inline;overflow:visible;visibility:visible;fill:#ffffff;fill-opacity:1;fill-rule:nonzero;stroke:#ffffff;stroke-width:0.0836072;stroke-linecap:butt;stroke-linejoin:miter;stroke-miterlimit:4;stroke-dasharray:none;stroke-dashoffset:0;stroke-opacity:1;marker:none;enable-background:accumulate">K<flowSpan
   style="font-size:13.08514309px"
   id="flowSpan3116">R</flowSpan><flowSpan
   id="flowSpan3122"
   style="font-size:8.7063818px">AK</flowSpan><flowSpan
   id="flowSpan3126"
   style="font-size:7.83930063px">K!</flowSpan></flowPara></flowRoot>    <flowRoot
       xml:space="preserve"
       id="flowRoot2987-4-9-3-8"
       style="font-style:normal;font-variant:normal;font-weight:normal;font-stretch:normal;font-size:12px;line-height:125%;font-family:Lavi;-inkscape-font-specification:Lavi;text-align:center;letter-spacing:0px;word-spacing:0px;text-anchor:middle;fill:#000000;fill-opacity:1;stroke:none"
       transform="translate(1372.1914,541.38886)"><flowRegion
         id="flowRegion2989-5-4-5-8"><rect
           id="rect2991-7-9-6-5"
           width="602.40173"
           height="310.73996"
           x="120.55251"
           y="265.53046"
           style="font-style:normal;font-variant:normal;font-weight:normal;font-stretch:normal;font-family:Lavi;-inkscape-font-specification:Lavi;text-align:center;text-anchor:middle" /></flowRegion><flowPara
         style="font-size:48px;text-align:center;text-anchor:middle"
         id="flowPara3140">De legalább tudom,</flowPara><flowPara
         style="font-size:48px;text-align:center;text-anchor:middle"
         id="flowPara4263">mit fogok kezdeni</flowPara><flowPara
         style="font-size:48px;text-align:center;text-anchor:middle"
         id="flowPara4265">a „bájitaloddal”,</flowPara><flowPara
         style="font-size:48px;text-align:center;text-anchor:middle"
         id="flowPara4267">Répa.</flowPara></flowRoot>  </g>
</svg>
