<?xml version="1.0" encoding="UTF-8" standalone="no"?>
<!-- Created with Inkscape (http://www.inkscape.org/) -->

<svg
   xmlns:dc="http://purl.org/dc/elements/1.1/"
   xmlns:cc="http://creativecommons.org/ns#"
   xmlns:rdf="http://www.w3.org/1999/02/22-rdf-syntax-ns#"
   xmlns:svg="http://www.w3.org/2000/svg"
   xmlns="http://www.w3.org/2000/svg"
   xmlns:xlink="http://www.w3.org/1999/xlink"
   xmlns:sodipodi="http://sodipodi.sourceforge.net/DTD/sodipodi-0.dtd"
   xmlns:inkscape="http://www.inkscape.org/namespaces/inkscape"
   id="svg2"
   version="1.1"
   inkscape:version="0.91 r13725"
   width="2481"
   height="3503"
   sodipodi:docname="Pepper-and-Carrot_by-David-Revoy_E06P01.svg">
  <metadata
     id="metadata8">
    <rdf:RDF>
      <cc:Work
         rdf:about="">
        <dc:format>image/svg+xml</dc:format>
        <dc:type
           rdf:resource="http://purl.org/dc/dcmitype/StillImage" />
        <dc:title />
      </cc:Work>
    </rdf:RDF>
  </metadata>
  <defs
     id="defs6" />
  <sodipodi:namedview
     pagecolor="#ffffff"
     bordercolor="#666666"
     borderopacity="1"
     objecttolerance="10"
     gridtolerance="10"
     guidetolerance="10"
     inkscape:pageopacity="0"
     inkscape:pageshadow="2"
     inkscape:window-width="1304"
     inkscape:window-height="745"
     id="namedview4"
     showgrid="false"
     inkscape:zoom="0.3478261"
     inkscape:cx="1237.9535"
     inkscape:cy="789.55147"
     inkscape:window-x="-8"
     inkscape:window-y="-8"
     inkscape:window-maximized="1"
     inkscape:current-layer="layer1" />
  <g
     inkscape:groupmode="layer"
     id="layer2"
     inkscape:label="artwork"
     sodipodi:insensitive="true">
    <image
       sodipodi:absref="E:\Projects\Pepper&amp;Carrot\peppercarrot_ep06_translation\hu\..\gfx_Pepper-and-Carrot_by-David-Revoy_E06P01.png"
       xlink:href="..\gfx_Pepper-and-Carrot_by-David-Revoy_E06P01.png"
       y="0"
       x="0"
       id="image10"
       height="3503"
       width="2481" />
  </g>
  <g
     inkscape:groupmode="layer"
     id="layer3"
     inkscape:label="speechbubbles">
    <path
       style="fill:#ffffff;stroke:none"
       d="m 1065.0584,2991.5882 c 139.0204,-151.8259 352.2724,-147.4644 534.1995,-135.0446 l -2.4584,29.6919 c -271.0832,-44.1257 -427.9056,20.1405 -531.7411,105.3527 z"
       id="path4208"
       inkscape:connector-curvature="0"
       sodipodi:nodetypes="cccc" />
    <path
       style="fill:#ffffff;stroke:none"
       d="m 848.69618,2327.5469 c 11.92344,-57.0082 80.05736,-226.7656 764.80332,-144.4206 25.5503,5.0674 32.3637,24.0701 32.3637,24.0701 l -11.9235,7.6011 c 0,0 -669.41585,-141.8868 -785.24352,112.7494 z"
       id="path4184"
       inkscape:connector-curvature="0" />
    <path
       style="fill:#ffffff;stroke:none"
       d="m 111.4082,929.9846 c 1.09537,-30.35787 23.32018,-26.21189 42.8645,-26.44314 18.99692,-4.56828 17.68618,-25.41604 68.26566,-4.66645 18.94123,-5.86223 25.94843,-21.95565 68.26567,-7.77738 16.40493,-6.23852 32.80986,-9.27592 49.21479,3.11096 28.50121,-1.61682 32.55235,-23.19676 95.25443,3.11095 27.91097,-12.64516 43.54725,-6.04785 55.56508,6.22192 14.41309,-4.05434 27.16746,-16.23476 47.6272,9.33287 24.58124,-1.15666 42.22048,7.209 50.80237,27.9986 5.35248,8.95055 20.09629,6.85937 11.11302,32.66489 35.90492,31.00508 18.753,46.01548 15.87573,65.32948 -0.74151,14.6065 -2.67808,28.8784 -25.40117,37.3313 6.74275,20.996 -7.29616,28.4179 -19.05089,37.3316 -10.57142,16.1462 -24.42383,13.0046 -38.10178,10.8884 -26.98875,33.3396 -53.9775,25.7934 -80.96625,26.4432 -12.34128,11.0165 -22.60457,7.781 -31.75148,-3.1112 -40.1387,19.5282 -52.28902,3.7987 -71.44082,-3.1108 -40.32831,31.264 -60.33165,14.7341 -85.72897,10.8884 -17.9867,5.658 -35.94308,11.0781 -50.80236,-7.7776 -44.01943,10.0059 -42.69127,-8.2623 -53.97753,-18.6657 -19.72051,14.3205 -29.24354,5.3277 -39.68933,-1.5553 -27.446021,-6.7492 -14.3092,-18.4689 -19.05088,-27.9987 -21.739695,-21.2581 -21.35633,-42.5165 -7.93787,-63.7746 -10.063415,-11.2638 -25.313306,-21.6039 -1.587598,-38.88703 -9.788112,-15.10062 -21.191295,-30.06977 6.35031,-48.21894 -3.088645,-11.99138 4.733428,-15.96518 14.288168,-18.66573 z"
       id="path4086"
       inkscape:connector-curvature="0"
       sodipodi:nodetypes="cccccccccccccccccccccccccc" />
    <path
       style="fill:#ffffff;stroke:none;stroke-width:1px;stroke-linecap:butt;stroke-linejoin:miter;stroke-opacity:1"
       d="m 230.13067,823.60392 c -9.53903,-20.56429 -0.23424,-22.81511 10.00568,-26.42602 11.63357,-13.55921 16.74734,-4.29914 22.87013,1.42938 15.03339,7.03416 19.43438,18.62507 14.29383,34.3052 -2.64407,15.25927 -13.01754,16.99209 -27.15828,12.13219 -15.35344,0.0889 -21.95096,-7.11879 -20.01136,-21.44075 z"
       id="path4088"
       inkscape:connector-curvature="0"
       sodipodi:nodetypes="cccccc" />
    <path
       style="fill:#ffffff;stroke:none;stroke-width:1px;stroke-linecap:butt;stroke-linejoin:miter;stroke-opacity:1"
       d="m 275.87093,761.44332 c -5.09277,-10.88445 3.68029,-14.83599 15.72321,-17.15259 19.65656,11.35504 12.8163,22.10199 7.14692,32.87581 -12.0433,1.8308 -24.81763,4.83126 -22.87013,-15.72322 z"
       id="path4090"
       inkscape:connector-curvature="0"
       sodipodi:nodetypes="cccc" />
    <path
       style="fill:#ffffff;stroke:none;stroke-width:0.95018345000000004px;stroke-linecap:butt;stroke-linejoin:miter;stroke-opacity:1"
       d="m 368.72867,1285.1069 c -9.10776,0.3666 -17.69604,4.5827 -24.5357,10.5994 -10.67689,-2.8214 -24.4482,-7.3606 -33.63685,1.3452 -3.88487,4.4874 -7.12528,12.781 -14.41172,10.5462 -12.0905,-0.1289 -27.61946,2.2389 -32.31936,15.5365 -2.1942,5.148 -1.50982,13.3678 -8.25249,14.8216 -8.87578,3.9804 -15.38714,15.5104 -10.21324,24.9428 1.84662,2.7177 2.34957,6.4309 -0.34935,8.69 -5.41216,9.0042 -1.05429,20.5294 6.31076,26.8418 2.19788,2.913 -1.51763,6.5378 0.21846,9.8187 1.72877,7.666 9.70316,9.9586 16.20927,10.7737 0.5212,3.9414 1.62893,8.4715 4.83941,11.3083 6.16478,6.3536 15.42895,6.7648 23.51315,7.0052 6.88333,3.242 11.92089,9.826 19.52501,11.5856 13.08681,3.935 26.59916,-2.5811 37.39096,-9.2563 4.17112,7.3888 9.60055,14.9889 18.17029,17.2427 7.20495,2.5803 14.90145,0.8391 22.04076,-0.2795 17.94606,2.5745 37.50809,12.5101 55.11636,3.4253 6.38841,-3.2097 11.7174,-8.2574 16.15564,-13.8476 7.04409,6.0003 18.40663,9.7096 25.86022,2.6824 2.04498,-2.3078 3.99239,-6.7402 7.68525,-4.0871 17.02345,5.1074 35.90589,13.1153 53.42296,5.1673 8.25031,-2.7211 15.40112,-8.9567 22.40521,-13.1096 11.40728,4.9442 26.60151,6.2435 35.73063,-3.8388 3.32962,-2.2921 4.32735,-9.5075 9.26879,-7.8035 11.55032,1.4124 24.20558,-4.4207 28.26248,-16.0384 1.74656,-5.0367 2.09925,-11.2255 7.37781,-13.8726 8.03588,-6.7054 12.50053,-18.8296 7.65608,-28.9252 -2.91642,-6.4773 -6.79401,-12.6897 -6.32012,-20.1067 -1.703,-12.5144 -12.92938,-21.094 -24.64895,-22.2997 -4.97106,-1.3042 -11.79132,0.3663 -14.15819,-5.4809 -13.59172,-17.3848 -37.34534,-22.4569 -57.93982,-17.9359 -4.07474,1.1409 -5.68371,-4.439 -9.22091,-5.6983 -8.42396,-6.1682 -19.98472,-5.5104 -28.16038,0.6853 -3.74883,4.0899 -7.15848,-2.0454 -11.25279,-2.6857 -15.18568,-5.4272 -34.20986,-4.1513 -46.29687,7.7206 -12.4105,-14.8138 -33.5547,-19.3263 -51.29169,-13.2846 -5.38935,0.9123 -10.56421,4.3214 -15.68984,4.7201 -8.92016,-4.1456 -18.55389,-7.4536 -28.4612,-6.9089 z"
       id="path4094"
       inkscape:connector-curvature="0" />
    <path
       style="fill:#ffffff;stroke:none"
       d="m 254.84178,1217.9014 c -21.93594,-5.4808 -17.74008,-13.6811 -13.99678,-23.3941 -3.03862,-16.7769 7.36071,-14.91 15.68046,-15.9283 15.0063,-6.7699 26.74841,-2.9642 35.56127,10.332 10.07962,11.2071 4.80314,19.8776 -7.9578,27.312 -9.7183,11.33 -19.48107,11.7989 -29.28715,1.6784 z"
       id="path4088-4"
       inkscape:connector-curvature="0"
       sodipodi:nodetypes="cccccc" />
    <path
       style="fill:#ffffff;stroke:none"
       d="m 281.23738,1261.3662 c -1.6722,-15.5601 8.1265,-14.7295 15.31815,-17.624 8.5716,-3.7924 14.70548,-2.0987 17.90033,6.2094 9.77538,3.2771 13.75133,9.4545 10.08794,19.4525 -3.52546,10.5347 -12.20688,9.4657 -20.99121,8.1652 -4.6338,4.2774 -9.42027,7.1804 -15.37947,-0.4737 -11.84717,-2.3085 -12.53472,-8.0516 -6.93574,-15.7294 z"
       id="path4119"
       inkscape:connector-curvature="0"
       sodipodi:nodetypes="ccccccc" />
    <path
       style="fill:#ffffff;stroke:none;stroke-width:0.91189969px;stroke-linecap:butt;stroke-linejoin:miter;stroke-opacity:1"
       d="m 338.47048,1653.6043 c -2.4192,-20.3226 8.58841,-27.4071 25.6844,-28.4886 9.65137,-12.6423 17.00372,-27.5512 50.29863,-16.8822 23.29187,-21.7517 47.86197,-17.0381 72.77249,-5.2757 40.82253,-27.1125 50.77797,-10.3121 70.63211,-4.2206 47.81892,-21.3571 53.63807,5.5964 74.91286,14.7719 36.37369,-22.8646 59.3905,-7.6853 81.33394,10.5513 12.46787,0.019 20.36193,5.0491 18.19312,21.1028 19.285,7.3233 29.22564,19.9114 25.68441,40.0949 16.75693,26.9704 3.50868,34.7118 -11.77202,41.1505 14.70779,23.6103 6.30448,41.9623 -21.40367,55.9221 -3.67381,17.1072 -16.49947,19.5516 -33.17569,15.827 -7.63334,15.2217 -20.51006,24.0809 -49.22844,13.7167 -20.81074,16.7491 -43.34773,16.4783 -67.42156,1.0553 -9.49282,17.8481 -26.192,19.4563 -47.0881,11.6063 -28.67253,9.7843 -40.51563,0.4231 -48.15826,-13.7167 -18.34271,9.3032 -36.77607,16.9981 -56.71972,-2.1102 -23.19362,5.1804 -29.48637,-3.9219 -29.96513,-17.9374 -18.2046,12.3401 -30.09251,8.0726 -38.52661,-5.2758 -13.37211,-0.3271 -28.565,1.957 -24.61423,-23.2128 -19.40688,-4.5163 -30.69423,-13.2459 -19.2633,-33.7644 -6.03127,-12.4698 -15.80303,-24.5299 6.4211,-40.095 -4.07892,-22.6624 5.99714,-31.3687 21.40367,-34.8194 z"
       id="path4121"
       inkscape:connector-curvature="0"
       sodipodi:nodetypes="ccccccccccccccccccccccc" />
    <path
       style="fill:#ffffff;stroke:none"
       d="m 426.16799,1495.7228 c -1.6722,-15.5601 8.1265,-14.7295 15.31815,-17.624 8.5716,-3.7924 14.70548,-2.0987 17.90033,6.2094 9.77538,3.2771 13.75133,9.4545 10.08794,19.4525 -3.52546,10.5347 -12.20688,9.4657 -20.99121,8.1652 -4.6338,4.2774 -9.42027,7.1804 -15.37947,-0.4737 -11.84717,-2.3085 -12.53472,-8.0516 -6.93574,-15.7294 z"
       id="path4119-8"
       inkscape:connector-curvature="0"
       sodipodi:nodetypes="ccccccc" />
    <path
       style="fill:#ffffff;stroke:none"
       d="m 473.63058,1564.8263 c -15.87888,-16.1637 -4.1024,-20.2143 1.38885,-27.0178 6.23672,-8.4833 14.66459,-9.736 25.73404,-2.2704 13.95095,-1.3644 23.98299,3.3767 28.85294,16.1601 5.508,13.3003 -5.22536,16.5249 -16.2828,19.5483 -1.36816,7.0209 -4.14446,12.6166 -17.73722,7.265 -15.41163,3.4716 -21.35155,-2.4587 -21.95581,-13.6852 z"
       id="path4119-7"
       inkscape:connector-curvature="0"
       sodipodi:nodetypes="ccccccc" />
    <path
       style="fill:#ffffff;stroke:none"
       d="m 841.62073,2156.8344 c 22.25175,-26.8114 179.17317,-26.7384 212.04897,-4.2782 32.8758,22.4602 29.6785,56.8909 6.1025,81.6803 -16.6155,17.4708 -186.91945,22.0647 -213.22009,2.813 -26.30065,-19.2516 -27.18313,-53.4038 -4.93138,-80.2151 z"
       id="path4160"
       inkscape:connector-curvature="0"
       sodipodi:nodetypes="zsssz" />
    <path
       style="fill:#ffffff;stroke:none;stroke-width:1px;stroke-linecap:butt;stroke-linejoin:miter;stroke-opacity:1"
       d="m 1145.6566,2114.824 c 25.7948,-33.9112 274.6902,-24.8589 303.2779,13.6723 28.5876,38.5312 14.9152,109.3789 -18.6442,123.0512 -33.5594,13.6724 -242.3737,16.1583 -270.9613,-1.2429 -28.4889,-17.341 -39.4672,-101.5694 -13.6724,-135.4806 z"
       id="path4162"
       inkscape:connector-curvature="0"
       sodipodi:nodetypes="zsssz" />
    <path
       style="fill:#ffffff;stroke:none"
       d="m 1595.236,2129.8153 c 49.5956,-36.1713 297.2178,-9.3969 336.1258,27.2314 38.9079,36.6282 36.8423,124.4872 6.3084,147.7318 -30.5341,23.2443 -307.1055,21.9947 -355.0699,-10.7023 -34.5531,-23.5541 -36.96,-128.0895 12.6357,-164.2609 z"
       id="path4164"
       inkscape:connector-curvature="0"
       sodipodi:nodetypes="zsssz" />
    <path
       style="fill:#ffffff;stroke:none"
       d="m 1201.5647,2821.5119 c 19.9792,-14.0231 53.2637,-19.8752 84.4282,-20.4786 31.1644,-0.6033 75.5507,3.6735 98.5103,19.8549 22.9596,16.1816 40.8445,30.4369 35.6632,57.6458 -5.1811,27.2089 -41.6424,46.1053 -77.5724,55.5628 -35.93,9.4574 -98.3145,0.4916 -127.5903,-14.1459 -29.2756,-14.6376 -44.9862,-27.5393 -46.7873,-49.0378 -1.8011,-21.4982 13.3692,-35.3782 33.3483,-49.4012 z"
       id="path4204"
       inkscape:connector-curvature="0"
       sodipodi:nodetypes="zzzzzzzz" />
    <path
       style="fill:#ffffff;stroke:none;stroke-width:0.96692984999999998px;stroke-linecap:butt;stroke-linejoin:miter;stroke-opacity:1"
       d="m 1563.3029,2891.138 c 0.6377,-21.0575 0.5288,-58.0166 24.2708,-76.9497 23.7421,-18.9331 61.3692,-10.7371 100.8171,-10.7371 39.4479,0 104.0726,-5.7594 134.4227,14.3161 30.3501,20.0756 39.0628,44.9597 39.2067,73.3707 0.1439,28.411 -18.2349,60.1358 -41.0736,78.7392 -22.8387,18.6034 -57.3059,20.5062 -84.0143,25.0533 -26.7084,4.5472 -45.3094,12.1353 -74.6792,3.5791 -29.3698,-8.5562 -73.3027,-41.6431 -87.7482,-62.6335 -14.4456,-20.9904 -11.8397,-23.6806 -11.202,-44.7381 z"
       id="path4206"
       inkscape:connector-curvature="0"
       sodipodi:nodetypes="zzzzzzzzzz" />
  </g>
  <g
     inkscape:groupmode="layer"
     id="layer1"
     inkscape:label="txt"
     style="display:inline">
    <flowRoot
       xml:space="preserve"
       id="flowRoot2987"
       style="font-style:normal;font-variant:normal;font-weight:normal;font-stretch:normal;font-size:12px;line-height:125%;font-family:Lavi;-inkscape-font-specification:Lavi;letter-spacing:0px;word-spacing:0px;fill:#000000;fill-opacity:1;stroke:none"
       transform="matrix(0.95842652,0,0,0.92639044,-38.977582,688.76497)"><flowRegion
         id="flowRegion2989"><rect
           id="rect2991"
           width="525.65155"
           height="245.01311"
           x="138.55077"
           y="262.427"
           style="font-style:normal;font-variant:normal;font-weight:normal;font-stretch:normal;font-family:Lavi;-inkscape-font-specification:Lavi" /></flowRegion><flowPara
         style="font-size:48px;text-align:center;text-anchor:middle"
         id="flowPara4426">A francba, elalvás</flowPara><flowPara
         style="font-size:48px;text-align:center;text-anchor:middle"
         id="flowPara3413">előtt megint nyitva</flowPara><flowPara
         style="font-size:48px;text-align:center;text-anchor:middle"
         id="flowPara3415">hagytam az ablakot...</flowPara></flowRoot>    <flowRoot
       xml:space="preserve"
       id="flowRoot2987-6"
       style="font-style:normal;font-variant:normal;font-weight:normal;font-stretch:normal;font-size:12px;line-height:125%;font-family:Lavi;-inkscape-font-specification:Lavi;letter-spacing:0px;word-spacing:0px;fill:#000000;fill-opacity:1;stroke:none"
       transform="matrix(0.95842652,0,0,0.92639044,139.70291,1099.0418)"><flowRegion
         id="flowRegion2989-7"><rect
           id="rect2991-2"
           width="410.90588"
           height="61.727306"
           x="120.55251"
           y="265.53046"
           style="font-style:normal;font-variant:normal;font-weight:normal;font-stretch:normal;font-family:Lavi;-inkscape-font-specification:Lavi" /></flowRegion><flowPara
         style="font-size:48px;text-align:center;text-anchor:middle"
         id="flowPara3023-5">...nagy a huzat...</flowPara></flowRoot>    <flowRoot
       xml:space="preserve"
       id="flowRoot2987-6-5"
       style="font-style:normal;font-variant:normal;font-weight:normal;font-stretch:normal;font-size:12px;line-height:125%;font-family:Lavi;-inkscape-font-specification:Lavi;letter-spacing:0px;word-spacing:0px;fill:#000000;fill-opacity:1;stroke:none"
       transform="matrix(0.95842652,0,0,0.92639044,152.05586,1377.25)"><flowRegion
         id="flowRegion2989-7-8"><rect
           id="rect2991-2-1"
           width="570.64728"
           height="189.15115"
           x="120.55251"
           y="265.53046"
           style="font-style:normal;font-variant:normal;font-weight:normal;font-stretch:normal;font-family:Lavi;-inkscape-font-specification:Lavi" /></flowRegion><flowPara
         style="font-size:48px;text-align:center;text-anchor:middle"
         id="flowPara4454">...és miért</flowPara><flowPara
         style="font-size:48px;text-align:center;text-anchor:middle"
         id="flowPara3419">látom Komonát</flowPara><flowPara
         style="font-size:48px;text-align:center;text-anchor:middle"
         id="flowPara3421">az ablakból?</flowPara></flowRoot>    <flowRoot
       xml:space="preserve"
       id="flowRoot2987-6-5-6"
       style="font-style:normal;font-variant:normal;font-weight:normal;font-stretch:normal;font-size:12px;line-height:125%;font-family:Lavi;-inkscape-font-specification:Lavi;letter-spacing:0px;word-spacing:0px;fill:#000000;fill-opacity:1;stroke:#000000;stroke-width:1.84872246;stroke-miterlimit:4;stroke-dasharray:none;stroke-opacity:1"
       transform="matrix(0.78204538,0,-0.07297395,1.1138741,766.04012,1867.0593)"><flowRegion
         id="flowRegion2989-7-8-9"><rect
           id="rect2991-2-1-1"
           width="293.92557"
           height="139.87151"
           x="120.55251"
           y="265.53046"
           style="font-style:normal;font-variant:normal;font-weight:normal;font-stretch:normal;font-family:Lavi;-inkscape-font-specification:Lavi;stroke:#000000;stroke-width:1.84872246;stroke-miterlimit:4;stroke-dasharray:none;stroke-opacity:1" /></flowRegion><flowPara
         style="font-size:48px;text-align:center;text-anchor:middle;stroke:#000000;stroke-width:1.84872246;stroke-miterlimit:4;stroke-dasharray:none;stroke-opacity:1"
         id="flowPara3094-2">Komona!</flowPara></flowRoot>    <flowRoot
       xml:space="preserve"
       id="flowRoot2987-6-5-6-7"
       style="font-style:normal;font-variant:normal;font-weight:normal;font-stretch:normal;font-size:12px;line-height:125%;font-family:Lavi;-inkscape-font-specification:Lavi;letter-spacing:0px;word-spacing:0px;fill:#000000;fill-opacity:1;stroke:none"
       transform="matrix(0.95842652,0,0,0.92639044,1034.0476,1878.1817)"><flowRegion
         id="flowRegion2989-7-8-9-6"><rect
           id="rect2991-2-1-1-3"
           width="309.18378"
           height="167.27036"
           x="120.55251"
           y="274.30832"
           style="font-style:normal;font-variant:normal;font-weight:normal;font-stretch:normal;font-family:Lavi;-inkscape-font-specification:Lavi" /></flowRegion><flowPara
         style="font-size:48px;text-align:center;text-anchor:middle"
         id="flowPara3094-2-2">A bájital-</flowPara><flowPara
         style="font-size:48px;text-align:center;text-anchor:middle"
         id="flowPara3423">verseny!</flowPara></flowRoot>    <flowRoot
       xml:space="preserve"
       id="flowRoot2987-6-5-6-7-8"
       style="font-style:normal;font-variant:normal;font-weight:normal;font-stretch:normal;font-size:12px;line-height:125%;font-family:Lavi;-inkscape-font-specification:Lavi;letter-spacing:0px;word-spacing:0px;fill:#000000;fill-opacity:1;stroke:none"
       transform="matrix(0.95842652,0,0,0.92639044,1376.8318,1926.4489)"><flowRegion
         id="flowRegion2989-7-8-9-6-7"><rect
           id="rect2991-2-1-1-3-3"
           width="554.99268"
           height="264.13297"
           x="120.55251"
           y="265.53046"
           style="font-style:normal;font-variant:normal;font-weight:normal;font-stretch:normal;font-family:Lavi;-inkscape-font-specification:Lavi" /></flowRegion><flowPara
         style="font-size:48px;text-align:center;text-anchor:middle"
         id="flowPara4461">Vé-... véletlenül elaludtam!*</flowPara></flowRoot>    <flowRoot
       xml:space="preserve"
       id="flowRoot2987-6-5-6-3"
       style="font-style:normal;font-variant:normal;font-weight:normal;font-stretch:normal;font-size:12px;line-height:125%;font-family:Lavi;-inkscape-font-specification:Lavi;letter-spacing:0px;word-spacing:0px;fill:#000000;fill-opacity:1;stroke:none"
       transform="matrix(0.95842652,0,0,0.92639044,1011.104,2593.9365)"><flowRegion
         id="flowRegion2989-7-8-9-3"><rect
           id="rect2991-2-1-1-36"
           width="357.43549"
           height="179.76456"
           x="120.55251"
           y="265.53046"
           style="font-style:normal;font-variant:normal;font-weight:normal;font-stretch:normal;font-family:Lavi;-inkscape-font-specification:Lavi" /></flowRegion><flowPara
         style="font-size:48px;text-align:center;text-anchor:middle"
         id="flowPara3217">De...</flowPara></flowRoot>    <flowRoot
       xml:space="preserve"
       id="flowRoot2987-6-5-6-3-5"
       style="font-style:normal;font-variant:normal;font-weight:normal;font-stretch:normal;font-size:12px;line-height:125%;font-family:Lavi;-inkscape-font-specification:Lavi;letter-spacing:0px;word-spacing:0px;fill:#000000;fill-opacity:1;stroke:none"
       transform="matrix(0.95842652,0,0,0.92639044,1426.147,2595.5709)"><flowRegion
         id="flowRegion2989-7-8-9-3-6"><rect
           id="rect2991-2-1-1-36-5"
           width="357.43549"
           height="179.76456"
           x="120.55251"
           y="265.53046"
           style="font-style:normal;font-variant:normal;font-weight:normal;font-stretch:normal;font-family:Lavi;-inkscape-font-specification:Lavi" /></flowRegion><flowPara
         style="font-size:48px;text-align:center;text-anchor:middle"
         id="flowPara4473">Hol</flowPara><flowPara
         style="font-size:48px;text-align:center;text-anchor:middle"
         id="flowPara3429">vagyok?</flowPara></flowRoot>    <flowRoot
       xml:space="preserve"
       id="flowRoot2987-6-5-6-3-8-7"
       style="font-style:normal;font-variant:normal;font-weight:normal;font-stretch:normal;font-size:12px;line-height:125%;font-family:Lavi;-inkscape-font-specification:Lavi;letter-spacing:0px;word-spacing:0px;fill:#000000;fill-opacity:1;stroke:none"
       transform="matrix(0.61014531,-0.25329543,0,1.157985,1355.8756,2791.7657)"><flowRegion
         id="flowRegion2989-7-8-9-3-9-7"><rect
           id="rect2991-2-1-1-36-7-9"
           width="357.43549"
           height="179.76456"
           x="120.55251"
           y="265.53046"
           style="font-style:normal;font-variant:normal;font-weight:normal;font-stretch:normal;font-family:Lavi;-inkscape-font-specification:Lavi" /></flowRegion><flowPara
         style="font-size:48px;text-align:center;text-anchor:middle"
         id="flowPara3217-6-4">háp?<flowSpan
   style="font-size:42.82865143px"
   id="flowSpan3308"><flowSpan
     style="stroke:#000000;stroke-width:1.83330417;stroke-miterlimit:4;stroke-dasharray:none;stroke-opacity:1"
     id="flowSpan4078" /></flowSpan></flowPara></flowRoot>    <flowRoot
       xml:space="preserve"
       id="flowRoot2987-4-9-9-9"
       style="font-style:normal;font-variant:normal;font-weight:normal;font-stretch:normal;font-size:12px;line-height:125%;font-family:Lavi;-inkscape-font-specification:Lavi;text-align:end;letter-spacing:0px;word-spacing:0px;text-anchor:end;fill:#000000;fill-opacity:1;stroke:none"
       transform="matrix(0.66530597,0,0,0.68592152,1850.2377,2549.7685)"><flowRegion
         id="flowRegion2989-5-4-7-7"><rect
           id="rect2991-7-9-4-3"
           width="734.95642"
           height="51.961914"
           x="59.439823"
           y="265.53046"
           style="font-style:normal;font-variant:normal;font-weight:normal;font-stretch:normal;font-family:Lavi;-inkscape-font-specification:Lavi;text-align:end;text-anchor:end" /></flowRegion><flowPara
         style="font-size:48px;text-align:end;text-anchor:end;fill:#a0a0a0;fill-opacity:1"
         id="flowPara3080-9-7">*4. rész: Isteni Szikra</flowPara></flowRoot>  </g>
</svg>
