<?xml version="1.0" encoding="UTF-8" standalone="no"?>
<!-- Created with Inkscape (http://www.inkscape.org/) -->

<svg
   xmlns:dc="http://purl.org/dc/elements/1.1/"
   xmlns:cc="http://creativecommons.org/ns#"
   xmlns:rdf="http://www.w3.org/1999/02/22-rdf-syntax-ns#"
   xmlns:svg="http://www.w3.org/2000/svg"
   xmlns="http://www.w3.org/2000/svg"
   xmlns:xlink="http://www.w3.org/1999/xlink"
   xmlns:sodipodi="http://sodipodi.sourceforge.net/DTD/sodipodi-0.dtd"
   xmlns:inkscape="http://www.inkscape.org/namespaces/inkscape"
   id="svg2"
   version="1.1"
   inkscape:version="0.91 r13725"
   width="2481"
   height="663"
   sodipodi:docname="Pepper-and-Carrot_by-David-Revoy_E06P00.svg">
  <metadata
     id="metadata8">
    <rdf:RDF>
      <cc:Work
         rdf:about="">
        <dc:format>image/svg+xml</dc:format>
        <dc:type
           rdf:resource="http://purl.org/dc/dcmitype/StillImage" />
        <dc:title />
      </cc:Work>
    </rdf:RDF>
  </metadata>
  <defs
     id="defs6" />
  <sodipodi:namedview
     pagecolor="#ffffff"
     bordercolor="#666666"
     borderopacity="1"
     objecttolerance="10"
     gridtolerance="10"
     guidetolerance="10"
     inkscape:pageopacity="0"
     inkscape:pageshadow="2"
     inkscape:window-width="1366"
     inkscape:window-height="705"
     id="namedview4"
     showgrid="false"
     inkscape:zoom="0.43094102"
     inkscape:cx="1054.5952"
     inkscape:cy="182.55526"
     inkscape:window-x="-8"
     inkscape:window-y="-8"
     inkscape:window-maximized="1"
     inkscape:current-layer="layer1" />
  <g
     inkscape:groupmode="layer"
     id="layer2"
     inkscape:label="artwork"
     sodipodi:insensitive="true">
    <image
       sodipodi:absref="D:\T\tut\P&amp;C\peppercarrot_ep06_translation-master\peppercarrot_ep06_translation-master\si\..\gfx_Pepper-and-Carrot_by-David-Revoy_E06P00.png"
       xlink:href="../gfx_Pepper-and-Carrot_by-David-Revoy_E06P00.png"
       y="0"
       x="0"
       id="image10"
       height="663"
       width="2481" />
  </g>
  <g
     inkscape:groupmode="layer"
     id="layer1"
     inkscape:label="txt"
     style="display:inline">
    <flowRoot
       xml:space="preserve"
       id="flowRoot2987"
       style="font-style:normal;font-variant:normal;font-weight:bold;font-stretch:normal;font-size:12px;line-height:125%;font-family:BhashitaComplex;-inkscape-font-specification:'BhashitaComplex Bold';letter-spacing:-2px;word-spacing:0px;fill:#301b0b;fill-opacity:1;stroke:none"
       transform="translate(-748.4491,-120.8471)"><flowRegion
         id="flowRegion2989"><rect
           id="rect2991"
           width="2405.8"
           height="107.55731"
           x="739.22333"
           y="644.36664"
           style="font-style:normal;font-variant:normal;font-weight:bold;font-stretch:normal;font-family:BhashitaComplex;-inkscape-font-specification:'BhashitaComplex Bold';letter-spacing:-2px;fill:#301b0b;fill-opacity:1" /></flowRegion><flowPara
         id="flowPara2993"
         style="font-style:normal;font-variant:normal;font-weight:bold;font-stretch:normal;font-size:72px;font-family:BhashitaComplex;-inkscape-font-specification:'BhashitaComplex Bold';text-align:center;letter-spacing:0px;text-anchor:middle;fill:#301b0b;fill-opacity:1">6වන කතාංගය:මයාවඩි තරඟාවලිය</flowPara></flowRoot>    <path
       style="display:inline;fill:#301b0b;fill-opacity:1"
       d="m 1312.1094,481.088 c -0.2275,-0.22755 0.4764,-0.79078 1.5642,-1.25161 1.8957,-0.80308 1.929,-0.87389 0.8026,-1.70541 -0.6465,-0.47715 -1.9567,-0.86754 -2.9117,-0.86754 -0.9551,0 -1.5886,-0.23929 -1.4078,-0.53176 0.1807,-0.29246 -0.5525,-0.72234 -1.6293,-0.95528 l -1.958,-0.42354 1.5137,-0.62503 c 0.8325,-0.34376 3.5372,-1.14338 6.0104,-1.77692 2.4732,-0.63355 7.4574,-2.51079 11.0759,-4.17165 3.6186,-1.66086 6.8091,-3.01975 7.0901,-3.01975 0.281,0 3.072,-2.42385 6.2023,-5.38634 6.5056,-6.15692 8.2929,-9.19226 10.1812,-17.29077 1.301,-5.57958 1.6476,-18.49921 0.6422,-23.94406 -1.2994,-7.03844 -1.935,-9.22456 -4.1399,-14.24105 l -2.3679,-5.38744 2.0278,-1.91254 c 1.5298,-1.4427 2.0279,-2.41967 2.0279,-3.97685 0,-5.16583 -6.0907,-7.74693 -9.719,-4.11866 l -1.2116,1.21164 -2.6224,-1.53683 c -7.3993,-4.33629 -16.3571,-4.55963 -24.0165,-0.59879 -3.058,1.58136 -5.9354,3.72028 -7.4165,5.51306 -3.4338,4.15642 -13.7445,18.12192 -13.7445,18.61647 0,0.15302 2.2478,1.50494 4.9951,3.00426 7.801,4.25736 9.8017,5.94292 11.7405,9.89144 1.6192,3.29752 1.7294,3.99546 1.7044,10.79118 -0.024,6.34982 -0.2383,7.86524 -1.7045,12.02268 -3.538,10.03209 -11.3133,18.02942 -22.4799,23.12194 -6.5899,3.00537 -14.0871,4.51156 -22.4627,4.51282 -12.2822,0.002 -22.3017,-2.5279 -30.3152,-7.65409 -3.03,-1.93824 -3.1672,-2.14024 -3.0722,-4.52218 0.081,-2.04201 -0.2045,-2.75471 -1.5795,-3.93742 -0.9233,-0.79426 -2.1752,-1.44411 -2.7819,-1.44411 -1.5107,0 -2.0617,-0.87916 -3.4155,-5.44922 -0.938,-3.16649 -1.161,-5.76948 -1.1409,-13.32034 0.029,-10.95493 0.7675,-14.30097 4.982,-22.57899 2.1562,-4.23507 3.8187,-6.43177 8.1341,-10.74709 2.9831,-2.9832 5.6648,-5.42399 5.9593,-5.42399 0.2945,0 1.8125,-0.80996 3.3735,-1.79991 2.3756,-1.50652 2.6504,-1.86119 1.6861,-2.17589 -5.5188,-1.80106 -8.8542,-4.24236 -10.6992,-7.83086 -0.8775,-1.70681 -1.3246,-3.97877 -1.5144,-7.69492 -0.2376,-4.65505 -0.1129,-5.52581 1.0639,-7.42996 2.892,-4.67929 8.1732,-6.9544 16.1741,-6.96758 9.2264,-0.0152 18.345,4.19986 18.345,8.47997 0,1.98697 1.3859,3.62224 3.0699,3.62224 0.6419,0 2.3226,1.12147 3.735,2.49215 2.7291,2.64846 4.4833,3.56255 6.8371,3.56255 2.6699,0 5.6623,1.88668 6.3639,4.01241 1.0022,3.03679 -0.8138,5.55787 -4.8691,6.75964 -2.6843,0.79547 -9.4331,2.68264 -14.5313,4.06339 -19.3646,5.24453 -27.8153,10.47786 -32.3355,20.02467 -2.122,4.4816 -2.4841,6.6216 -2.4511,14.48568 0.025,6.10081 0.1696,6.92504 1.7155,9.814 4.3418,8.11421 13.7156,12.2832 27.6221,12.28493 10.3951,10e-4 19.345,-2.9801 25.6766,-8.55345 3.0989,-2.72771 5.8076,-7.7128 5.8076,-10.68824 0,-0.99242 0.5286,-2.23978 1.2109,-2.85724 1.5285,-1.38321 1.6132,-4.78991 0.1514,-6.08586 -0.5828,-0.51665 -2.5581,-1.94707 -4.3897,-3.17872 l -3.33,-2.23935 -6.8643,0 c -6.4833,0 -6.9286,-0.0794 -8.0225,-1.42938 -0.637,-0.78617 -1.1582,-1.78292 -1.1582,-2.21502 0,-0.8092 3.1519,-4.91327 9.0585,-11.79508 1.8578,-2.16456 4.9372,-6.25148 6.8431,-9.08205 11.762,-17.46917 22.8051,-26.16397 36.5766,-28.7989 10.7526,-2.05731 21.8762,-0.33012 30.1684,4.68439 3.2248,1.95009 9.3736,7.61012 9.4016,8.65435 0.01,0.34438 0.8267,1.69642 1.8165,3.00452 0.9897,1.30811 1.7995,2.7415 1.7995,3.18532 0,0.44382 0.504,1.96193 1.12,3.37359 2.3527,5.39213 3.1183,10.28922 3.1183,19.94608 0,6.32181 -0.2915,10.4286 -0.9082,12.79639 -0.4995,1.91776 -0.9082,3.97343 -0.9082,4.56815 0,0.59472 -0.8174,1.80961 -1.8164,2.69975 -1.8903,1.68425 -2.1987,2.79077 -1.2645,4.53647 0.4029,0.75261 -0.1336,2.41926 -1.9848,6.16627 -2.208,4.46943 -4.3716,7.94868 -11.282,18.14259 -2.9903,4.41119 -6.2213,7.881 -7.3386,7.881 -0.6258,0 -1.138,0.27246 -1.138,0.60547 0,0.65998 1.7465,0.83571 6.2261,0.62647 1.5927,-0.0744 4.5312,0.0546 6.5299,0.28651 3.2055,0.37203 3.591,0.55727 3.2693,1.5708 -0.3231,1.01827 -0.033,1.15123 2.5521,1.16829 5.5734,0.0368 1.3347,1.49421 -8.3874,2.8839 -5.1049,0.72972 -12.6359,2.14604 -16.7354,3.14736 -6.3785,1.55799 -8.6129,1.8206 -15.49,1.8206 -4.4199,0 -8.2224,-0.18618 -8.45,-0.41373 z m -57.6475,-88.53024 c 0.1853,-0.29995 2.3811,-1.17989 4.8795,-1.95541 2.4983,-0.77552 4.5424,-1.56694 4.5424,-1.7587 0,-0.78248 -6.7528,-8.46441 -8.8403,-10.05657 -2.0364,-1.55328 -2.7036,-1.71333 -7.1723,-1.72074 -3.9356,-0.007 -5.2874,0.23552 -6.718,1.20278 l -1.791,1.21094 4.2383,0.30274 c 4.403,0.3145 6.0216,1.06177 8.1441,3.76015 1.0098,1.28374 1.1903,2.26285 1.0249,5.55918 -0.1484,2.9593 0,4.001 0.5773,4.001 0.4279,0 0.9297,-0.24541 1.1151,-0.54537 z m -145.8811,85.68291 c -3.7478,-0.9114 -8.2474,-3.3445 -11.7368,-6.34656 l -2.6546,-2.28392 1.5951,-1.59508 c 2.5961,-2.5961 1.9683,-6.29626 -1.2978,-7.64913 -1.2021,-0.4979 -2.2086,-0.53327 -3.3057,-0.11615 -1.4394,0.54727 -1.6399,0.43058 -2.2936,-1.33497 -0.394,-1.06406 -0.8004,-5.26016 -0.9031,-9.32467 -0.1683,-6.66435 -0.024,-7.91287 1.4748,-12.71486 0.9139,-2.92867 2.2811,-6.68717 3.0383,-8.35221 0.7573,-1.66504 1.7521,-3.89243 2.2105,-4.94975 l 0.8336,-1.92241 -1.6542,0.49898 c -0.91,0.27444 -2.6041,0.91035 -3.765,1.41314 -1.3828,0.59893 -2.462,0.72614 -3.1295,0.3689 -0.7081,-0.37898 -2.0032,-0.087 -4.2466,0.95745 -1.7754,0.82649 -3.8082,1.50538 -4.5174,1.50863 -0.7092,0.003 -3.1539,0.94429 -5.4326,2.09119 -2.2788,1.1469 -4.2311,1.99747 -4.3384,1.89016 -0.1073,-0.10732 1.5903,-1.61584 3.7726,-3.35227 2.1821,-1.73644 4.3059,-3.61307 4.7195,-4.17028 3.0655,-4.13044 12.5574,-10.07665 25.3062,-15.85288 8.2157,-3.7224 9.5286,-4.32812 19.9477,-9.20325 3.1636,-1.48025 6.137,-2.817 6.6076,-2.97057 1.1477,-0.37452 -7.0523,-8.49113 -9.9838,-9.88222 -2.7588,-1.30909 -5.5649,-0.84928 -7.8733,1.29016 l -1.7096,1.58434 2.6322,1.02913 c 3.4392,1.34468 4.2722,2.60034 4.2722,6.43986 0,2.73006 -0.2574,3.42521 -1.8629,5.03077 -1.6374,1.63734 -2.2742,1.86298 -5.2581,1.86298 -7.1033,0 -11.0498,-3.91107 -11.0371,-10.93825 0.01,-5.55964 3.997,-12.67507 7.1023,-12.67507 2.1351,0 3.6014,-0.98149 4.0325,-2.69942 0.4971,-1.98059 2.3366,-2.4648 9.0313,-2.37736 l 5.3381,0.0697 7.6795,7.59036 c 6.1644,6.0928 8.1808,7.72447 10.2203,8.27009 2.9451,0.78787 5.0276,3.0851 5.0276,5.54581 0,3.03514 -5.6074,7.02058 -16.1668,11.49064 -8.5793,3.63182 -12.6363,6.22385 -17.5434,11.20856 -6.0109,6.10607 -8.8133,10.60504 -11.6887,18.76525 -0.934,2.65068 -0.975,3.37771 -0.3011,5.33794 1.4139,4.1129 4.4454,6.46015 11.7427,9.09244 9.2189,3.32547 18.384,1.59252 23.9869,-4.53546 1.343,-1.46881 4.2937,-5.32912 6.5572,-8.57847 2.2634,-3.24935 4.6568,-6.19767 5.3186,-6.55183 1.7355,-0.92883 3.4302,0.40453 5.9325,4.66769 4.6413,7.90733 6.1705,9.85384 9.0029,11.45992 9.81,5.56266 19.5493,5.13826 26.0462,-1.13496 3.7446,-3.61567 4.948,-6.26007 4.9307,-10.834 -0.01,-2.09457 -0.2891,-4.89816 -0.6249,-6.23019 -0.3356,-1.33204 -0.7487,-3.0654 -0.9178,-3.85192 -1.0985,-5.10883 -8.2275,-13.87952 -13.7046,-16.86055 -1.8991,-1.03362 -2.9024,-1.9787 -2.9024,-2.73415 0,-2.23977 -1.1612,-3.49679 -3.2303,-3.49679 -1.0871,0 -2.2571,0.28039 -2.5998,0.62309 -0.4271,0.42713 -2.7977,-0.25029 -7.5381,-2.15408 -6.6977,-2.68989 -10.2451,-5.04993 -10.2451,-6.81594 0,-1.30175 3.4798,-4.27246 7.2333,-6.17502 1.8494,-0.9374 4.0436,-2.45115 4.8761,-3.36389 0.8325,-0.91274 3.5069,-3.25597 5.943,-5.20718 3.3708,-2.69986 4.9024,-3.54765 6.4087,-3.54765 1.4257,0 2.4217,-0.49643 3.5604,-1.7744 1.9202,-2.15508 5.2635,-2.79646 11.7283,-2.24998 11.1185,0.93985 16.4409,7.89923 15.8118,20.6748 -0.2999,6.09168 -2.2342,11.46301 -4.7666,13.23679 -2.1026,1.47276 -4.9219,1.2598 -6.5718,-0.49645 -1.5021,-1.599 -1.5001,-3.35015 0.01,-9.41026 1.7389,-6.97545 1.2812,-10.38112 -1.7118,-12.73538 -3.4275,-2.6961 -11.1678,-0.6871 -18.3032,4.75063 -2.4975,1.90334 -4.5058,3.72927 -4.4628,4.05764 0.043,0.32836 1.6909,1.15238 3.662,1.83114 1.9711,0.67876 4.4302,1.83672 5.4646,2.57325 1.0343,0.73652 2.1354,1.33913 2.4469,1.33913 1.2327,0 12.3161,11.67279 15.3266,16.14173 11.1166,16.50226 13.1114,30.91537 6.2202,44.94395 -2.6236,5.34088 -8.6331,11.98635 -13.1349,14.52478 -5.9543,3.35745 -17.5151,5.02405 -18.3582,2.64652 -1.0827,-3.05309 -3.6856,-4.04012 -5.7433,-2.17793 -1.0298,0.93197 -1.2748,0.92459 -3.5633,-0.10738 -3.4309,-1.54712 -8.2697,-7.03979 -11.3659,-12.90166 -1.4408,-2.7276 -2.8731,-4.80253 -3.1831,-4.61096 -0.31,0.19157 -1.0113,1.21654 -1.5587,2.27769 -1.6737,3.24505 -7.8425,11.00371 -10.8623,13.66182 -3.5304,3.10762 -9.181,5.92608 -13.4949,6.7312 -4.2896,0.80057 -11.7226,0.69009 -15.5082,-0.23051 z m 553.0966,-0.11907 c -13.5477,-3.57425 -24.2821,-15.1629 -27.8569,-30.07375 -2.3017,-9.60099 -1.3718,-25.67841 2.2066,-38.15 4.6379,-16.16423 14.0377,-32.10185 26.7782,-45.40317 l 3.9146,-4.08692 -8.6001,0 c -9.683,0 -12.5491,-0.84515 -14.2912,-4.21416 -2.9592,-5.72234 0.269,-8.28534 11.225,-8.9122 l 6.5601,-0.37535 2.1721,1.9071 c 1.2988,1.14034 2.833,1.90619 3.816,1.90483 1.807,-0.002 5.5796,-2.04186 5.5796,-3.01618 0,-0.87075 8.9179,-0.69092 11.4705,0.2313 2.8262,1.02109 4.383,3.3062 4.7329,6.9475 0.4828,5.02569 0.043,5.75033 -6.3601,10.47942 -11.9978,8.86111 -22.0626,20.95354 -28.4688,34.20451 -2.7592,5.70729 -2.7671,5.74205 -3.0465,13.48039 -0.3229,8.94052 0.4905,13.65028 3.747,21.69675 1.1921,2.9455 1.7841,5.15758 1.4375,5.37177 -0.3241,0.20029 -0.9835,1.30789 -1.4655,2.46132 -1.7516,4.19213 1.0263,8.04801 5.798,8.04801 2.1231,0 2.767,0.37208 5.2647,3.04239 1.5652,1.6733 4.4394,4.01042 6.3871,5.19358 2.9336,1.78206 4.2936,2.20561 7.9256,2.46822 4.3735,0.31624 4.3906,0.31149 7,-1.9471 1.4387,-1.24527 4.4887,-5.05563 6.7778,-8.46746 2.2891,-3.41183 4.9222,-6.80127 5.8513,-7.53209 2.1342,-1.67879 4.7606,-1.29041 6.7755,1.00193 1.2922,1.47006 1.4065,2.05553 1.1533,5.90398 -0.7365,11.19393 -11.7359,22.15357 -27.3378,27.23898 -5.5679,1.81482 -13.5819,2.06445 -19.1465,0.5964 z m -88.3985,-20.34495 c -1.4986,-0.31111 -3.8145,-0.64198 -5.1465,-0.73527 -4.1135,-0.28809 -6.9629,-1.06733 -6.9629,-1.90417 0,-0.44001 -0.56,-0.97774 -1.2443,-1.19494 -1.7048,-0.54108 -1.2246,-1.50145 1.5186,-3.03721 3.4853,-1.95116 9.4932,-6.92869 9.1104,-7.54797 -0.1851,-0.29957 0.1719,-0.81681 0.7934,-1.14943 0.6215,-0.33261 6.2694,-7.76078 12.551,-16.50703 14.2849,-19.88968 14.4622,-20.29842 14.0112,-32.29476 -0.3958,-10.52634 -2.0793,-17.22875 -6.6663,-26.53988 l -3.2314,-6.55938 1.0747,-2.21993 c 1.3034,-2.69267 0.9492,-4.9754 -1.0883,-7.01288 -1.7074,-1.70745 -3.3641,-2.11548 -5.8898,-1.45059 -1.6226,0.42714 -2.1749,0.0722 -6.8069,-4.37476 -8.4015,-8.06577 -17.7223,-13.29395 -28.6636,-16.07789 -3.7011,-0.9417 -6.613,-1.14788 -15.7422,-1.11459 -10.5996,0.0386 -11.576,0.14281 -18.1786,1.93936 -8.5633,2.33006 -16.7463,6.0824 -23.7825,10.90562 l -5.3301,3.65373 2.1329,1.62683 c 2.9854,2.27706 8.7064,3.9397 15.7254,4.5701 7.8322,0.70344 15.3946,2.63125 20.6536,5.26503 20.21,10.12158 27.5801,22.75261 26.7624,45.86581 -0.3376,9.54145 -1.479,14.39574 -4.7352,20.13781 -5.9852,10.55466 -15.8309,17.44475 -28.8965,20.22188 -4.801,1.02047 -7.1981,1.18459 -13.414,0.91839 -6.8193,-0.29203 -8.0178,-0.51924 -12.1094,-2.29575 -6.5727,-2.85376 -11.7405,-7.16142 -15.8954,-13.24987 -1.0227,-1.49853 -1.9347,-2.82134 -2.0267,-2.93956 -0.092,-0.11822 -1.0647,0.83539 -2.1614,2.11915 -4.9014,5.73699 -11.294,11.93601 -13.4483,13.04108 -7.5638,3.87987 -19.0012,3.95843 -28.0145,0.19242 -2.0805,-0.86927 -2.1486,-0.98333 -1.2082,-2.02244 1.8855,-2.08344 1.1595,-5.11844 -1.5609,-6.52519 -1.4685,-0.75943 -2.1285,-0.79956 -3.5392,-0.21522 -0.9538,0.39505 -1.8978,1.23391 -2.0978,1.86411 -0.2,0.6302 -0.6859,1.14465 -1.0797,1.14323 -0.3938,-0.001 -4.0223,-3.07187 -8.0632,-6.8232 -9.4348,-8.75872 -9.7438,-8.92657 -13.273,-7.21194 -6.1272,2.97681 -10.4084,0.61101 -10.6632,-5.89254 -0.1413,-3.60527 1.8917,-6.26246 13.9406,-18.22101 11.6375,-11.55016 24.918,-23.13827 47.9979,-41.88146 l 14.913,-12.11078 -1.9443,-6.15001 c -4.1443,-13.10904 -7.6475,-17.12121 -15.5258,-17.7817 -3.4201,-0.28673 -4.6078,-0.65585 -5.7339,-1.78198 -1.5879,-1.5879 -2.5417,-1.73618 -4.7361,-0.73633 -4.432,2.01931 -2.6962,8.39803 2.2852,8.39803 1.2721,0 1.5939,0.36189 1.934,2.17454 0.6369,3.39521 -0.1653,8.07785 -1.8096,10.56256 -0.8834,1.33497 -2.6413,2.80984 -4.3143,3.61972 -2.4434,1.18282 -3.4662,1.32272 -7.5995,1.03941 -4.1926,-0.28736 -5.072,-0.5617 -7.1979,-2.2454 -3.437,-2.72217 -4.9237,-6.39038 -5.3073,-13.09503 -0.3861,-6.74695 0.6601,-10.44056 4.0469,-14.28824 4.575,-5.19748 12.4038,-7.72459 23.9478,-7.73036 10.8817,-0.005 16.6506,2.26212 23.663,9.30112 4.6289,4.6465 6.585,7.61802 9.6387,14.6426 l 1.9617,4.51281 3.8625,-2.85361 c 14.7795,-10.91927 32.0351,-19.31351 47.6157,-23.16333 l 5.5464,-1.37048 1.6184,1.273 c 2.3697,1.86402 4.666,1.6464 6.5758,-0.62317 l 1.5955,-1.89618 11.0218,0.34122 c 7.9011,0.24461 12.479,0.68443 16.1683,1.55334 23.6287,5.56506 37.5872,18.94831 44.4399,42.60852 2.9775,10.28011 3.5177,14.89594 3.8362,32.77758 0.2641,14.83103 0.1711,17.3632 -0.7675,20.88871 -2.0682,7.76906 -7.291,16.92553 -17.3632,30.44134 -3.6519,4.90055 -6.5913,9.10804 -6.5318,9.34996 0.059,0.24193 -0.3249,0.68224 -0.8543,0.97849 -0.5293,0.29623 -0.9624,0.93376 -0.9624,1.41673 0,0.93255 0.069,0.96788 2.4219,1.24753 5.0875,0.60456 7.0231,1.15566 7.9112,2.25238 0.9123,1.12667 1.2423,1.16384 4.5086,0.50786 4.4039,-0.88442 9.1782,-0.91387 9.706,-0.0599 0.2202,0.35635 0.9579,0.8541 1.6392,1.10612 1.1402,0.42182 1.0695,0.56274 -0.8903,1.77398 -1.2969,0.80152 -3.1185,1.31576 -4.6608,1.31576 -1.3925,0 -3.2676,0.37265 -4.1669,0.82813 -2.4398,1.23579 -10.9159,2.962 -12.5412,2.55409 -0.7803,-0.19584 -5.1082,0.32535 -9.6176,1.1582 -8.7839,1.62233 -9.5071,1.66445 -13.6851,0.79705 z m -67.147,-37.0748 c 9.4811,-2.87772 16.2395,-9.62406 18.6886,-18.65517 0.5196,-1.91622 0.6801,-5.22021 0.4852,-9.99025 -0.4841,-11.84545 -3.5464,-18.31114 -10.2916,-21.72921 -1.6673,-0.84483 -9.3337,-3.66373 -17.0367,-6.26424 -7.703,-2.6005 -16.6476,-5.96289 -19.877,-7.47197 l -5.8717,-2.7438 -31.1676,27.04497 c -17.1422,14.87473 -31.1882,27.22129 -31.2134,27.43681 -0.047,0.4011 8.75,6.20395 14.1828,9.35578 3.0266,1.75585 3.0301,1.7563 13.6231,1.7563 8.9225,0 11.0856,-0.18184 13.6975,-1.15151 5.2839,-1.9616 8.3495,-4.6873 12.6771,-11.2715 2.9595,-4.50255 4.5747,-6.36397 6.2752,-7.23153 2.1804,-1.11234 2.388,-1.11913 4.3345,-0.14165 2.7744,1.39323 4.3645,3.9753 6.6233,10.75543 1.5825,4.75011 2.3037,6.06295 4.2096,7.66311 1.265,1.06203 3.2163,2.26255 4.3362,2.66782 2.825,1.02233 12.9197,1.00416 16.3249,-0.0294 z m -1022.02474,25.0436 c -11.05552,-1.98559 -25.00945,-8.99667 -35.10287,-17.63727 -1.70345,-1.45827 -1.83351,-1.79874 -1.26163,-3.30291 1.44676,-3.80527 -1.30899,-9.38783 -5.4888,-11.11917 -1.00608,-0.41672 -3.01183,-0.62439 -4.45723,-0.46147 -2.56878,0.28953 -2.669,0.23331 -4.44813,-2.49564 -6.52729,-10.01197 -9.25296,-19.54487 -9.24906,-32.34809 0.003,-9.05769 1.09105,-16.83307 3.3624,-24.02317 2.4577,-7.78002 3.60872,-10.09306 5.22426,-10.49854 0.78909,-0.19805 2.23911,-1.1997 3.22226,-2.22588 1.49606,-1.56156 1.80076,-2.39931 1.86867,-5.13775 0.0717,-2.89106 0.37172,-3.61904 2.5773,-6.25336 11.02059,-13.16288 26.42302,-22.07124 44.89513,-25.96618 7.4089,-1.56219 29.00026,-1.55223 36.32819,0.0168 15.64559,3.34991 28.15052,9.98175 39.53303,20.96588 l 6.01136,5.80097 -0.76242,2.54473 c -1.527,5.09671 2.1082,10.37341 7.8939,11.45842 2.53476,0.47536 2.83965,0.74299 4.3756,3.84104 2.33429,4.70828 3.98996,9.19142 5.59017,15.13675 l 1.38519,5.14649 1.6151,-3.63282 c 0.8883,-1.99805 1.93414,-4.36244 2.32409,-5.25419 0.38996,-0.89176 0.91567,-1.49365 1.16825,-1.33755 0.25259,0.15611 0.633,-0.40846 0.84537,-1.2546 0.21237,-0.84615 0.66974,-1.53844 1.01639,-1.53844 0.89976,0 0.11507,18.05694 -0.99984,23.00785 -1.16336,5.16609 -5.88697,16.44539 -7.87802,18.81162 -0.86416,1.027 -1.5712,2.13718 -1.5712,2.46708 0,0.33848 -0.56792,0.41957 -1.30347,0.18611 -1.02673,-0.32587 -1.70808,0.0682 -3.2092,1.85624 -1.68009,2.00117 -2.04711,2.18164 -3.09987,1.52418 -1.33838,-0.83584 -2.68044,-3.33199 -2.68044,-4.98544 0,-0.59962 -0.4087,-1.09023 -0.90821,-1.09023 -0.70307,0 -0.90611,-0.78635 -0.89893,-3.48145 0.007,-2.47116 0.17959,-3.2179 0.5962,-2.57325 0.43061,0.66634 0.58939,0.23341 0.5962,-1.62562 0.005,-1.39361 0.26596,-3.20899 0.5797,-4.03418 0.81714,-2.14925 -0.27062,-14.82601 -1.77434,-20.67813 -1.52148,-5.9212 -4.8173,-13.08076 -8.3159,-18.06476 -9.33155,-13.29342 -26.2787,-24.31478 -43.51094,-28.29679 -7.70267,-1.77993 -19.10061,-1.40244 -26.58853,0.88058 -15.61064,4.75959 -26.1852,16.63284 -30.75099,34.52757 -1.0232,4.01024 -1.25796,6.87532 -1.2944,15.79715 -0.0396,9.68848 0.11448,11.46984 1.38747,16.04495 4.63917,16.67315 16.56386,29.34929 31.86886,33.87711 6.72525,1.9896 18.09044,2.44917 23.45583,0.94849 5.71489,-1.59844 9.23252,-3.62402 13.08048,-7.53218 3.60619,-3.66261 6.38069,-8.22935 8.48927,-13.97308 1.76903,-4.81877 3.10926,-10.43031 3.10926,-13.01841 0,-1.91655 -0.15618,-2.1785 -1.05957,-1.77711 -6.52236,2.89798 -11.67473,4.08592 -18.92092,4.36244 -8.68693,0.3315 -12.74679,-0.43901 -19.20911,-3.64562 -5.06902,-2.51527 -9.72569,-7.50979 -11.28851,-12.10754 -1.55362,-4.57068 -1.18403,-12.31996 0.78022,-16.35897 2.98523,-6.13841 11.40559,-11.8643 20.63535,-14.03215 5.07085,-1.19102 13.90131,-1.19779 18.44566,-0.0141 12.48687,3.25241 21.23262,14.49332 24.00041,30.84771 0.45816,2.70721 0.58739,7.3875 0.35942,13.0176 -0.29922,7.38959 -0.64803,9.75564 -2.18856,14.84534 -6.0348,19.93809 -21.27158,35.95406 -40.01146,42.05763 -5.22042,1.70028 -6.64719,1.89733 -15.43948,2.13227 -5.32813,0.14237 -11.15517,-0.005 -12.94896,-0.3269 z M 528.0143,374.0235 c 4.57731,-1.53656 10.5165,-4.28731 10.5165,-4.87074 0,-0.7729 -2.5557,-4.98311 -4.09231,-6.74159 -0.9286,-1.06269 -3.18044,-2.62668 -5.00409,-3.47554 -6.44184,-2.99851 -18.99982,-1.77492 -22.8316,2.22462 -1.43162,1.49428 -1.67557,2.25351 -1.67557,5.2148 0,6.3894 3.84802,9.04671 13.21358,9.12487 4.18432,0.0349 6.32471,-0.28514 9.87349,-1.47642 z m 465.52705,71.1458 c -6.5827,-0.67115 -14.5604,-2.91499 -21.19143,-5.96038 -16.1004,-7.39429 -27.58,-20.84777 -32.3665,-37.93194 -1.6511,-5.89308 -1.9101,-7.91953 -2.2483,-17.59442 -0.9408,-26.91428 5.1204,-49.397 18.109,-67.17136 2.4494,-3.35192 3.441,-5.21672 3.2194,-6.0547 -0.1761,-0.66601 -0.3441,-27.77593 -0.3733,-60.24425 -0.05,-55.7187 -0.1102,-58.91026 -1.0679,-56.84179 -2.198,4.74737 -6.2872,7.92243 -11.1407,8.65026 -1.7091,0.25629 -4.9169,0.0453 -8.3399,-0.54864 -4.2638,-0.73977 -6.0297,-0.81098 -7.563,-0.30496 -3.88735,1.28297 -4.23045,6.30735 -0.7407,10.84797 l 1.8665,2.42857 2.0424,-3.03278 c 3.1649,-4.69962 7.0709,-5.49861 11.7071,-2.39479 7.906,5.29278 7.4051,14.72474 -0.9515,17.91615 -3.7741,1.44132 -13.9821,0.98389 -17.98235,-0.80581 -7.019,-3.14025 -10.2297,-9.19396 -10.6515,-20.08343 -0.3007,-7.76094 0.3865,-12.06565 2.6638,-16.68606 1.9517,-3.95996 4.4043,-5.55736 11.58345,-7.54453 5.8533,-1.62017 5.8838,-1.62204 6.8579,-0.41918 1.9907,2.45851 6.6304,1.02285 7.467,-2.31055 0.2994,-1.19304 1.1745,-1.62588 5.6551,-2.79751 5.4894,-1.43539 6.2672,-1.95924 10.8362,-7.29838 2.4665,-2.88224 4.1467,-3.73288 6.501,-3.29122 2.109,0.39565 3.471,2.40931 4.5857,6.78019 0.9356,3.66787 0.9903,13.16952 0.4162,72.26713 l -0.5203,53.56396 12.93243,-12.60469 c 7.1129,-6.93258 18.06125,-17.95821 24.32955,-24.5014 12.4422,-12.98781 14.6223,-16.25937 17.2783,-25.92871 1.1026,-4.01414 1.1167,-4.37555 0.1849,-4.75303 -0.8597,-0.34826 -0.8052,-0.48691 0.3688,-0.93943 1.1358,-0.43776 1.3067,-0.82539 0.9745,-2.20987 -0.4966,-2.06917 -0.5781,-2.16494 -1.9249,-2.26416 -0.5974,-0.044 -1.7477,-0.54339 -2.5563,-1.10974 -1.2319,-0.86283 -3.0061,-1.02971 -10.9472,-1.02971 -9.1783,0 -13.27095,-0.35059 -13.25245,-1.13525 0.013,-0.5484 6.42845,-2.94184 15.12785,-5.64376 4.1626,-1.29284 9.7481,-3.04592 12.4121,-3.89573 7.7299,-2.46573 7.3876,-2.39874 6.4567,-1.26344 -0.8837,1.07791 -0.4872,2.25067 0.761,2.25067 0.4338,0 2.5914,-0.81739 4.7947,-1.81641 2.2033,-0.99903 4.3732,-1.81641 4.8219,-1.81641 1.4945,0 3.2901,2.68603 4.0475,6.05469 0.4118,1.83155 1.1267,3.93354 1.5887,4.6711 1.0204,1.62881 1.0588,3.7255 0.151,8.24553 -0.6089,3.03213 -0.8588,3.43106 -2.1491,3.43106 -3.6379,0 -7.4502,3.87284 -7.4502,7.56837 0,0.99903 0.5541,2.7253 1.2313,3.83616 l 1.2314,2.01975 -3.343,4.64042 c -5.3179,7.38188 -9.5872,11.77461 -32.663,33.60729 -21.40215,20.24901 -21.69185,20.55487 -19.07245,20.13429 20.26825,-3.25436 32.90725,-2.88297 43.52915,1.2791 5.0034,1.9605 11.0188,5.54658 10.5571,6.29359 -0.6526,1.05595 0.4033,4.07272 1.976,5.64538 1.2355,1.23555 2.152,1.55783 4.4297,1.55783 2.6443,0 3.0389,0.2039 4.9809,2.57392 6.6592,8.12666 12.1362,19.53197 14.8207,30.86246 1.4933,6.30304 1.6169,7.8271 1.609,19.84497 -0.01,12.70028 -0.056,13.19997 -1.9603,20.49907 -4.7697,18.28326 -16.2309,35.84796 -28.8022,44.14037 -2.9387,1.93852 -3.0041,1.95132 -4.2383,0.83028 -3.0827,-2.80012 -6.1266,-3.21669 -9.3124,-1.2744 -2.0726,1.26367 -3.7477,4.32049 -3.7477,6.8392 0,1.31685 -0.3712,1.50569 -4.2036,2.1386 -4.513,0.7453 -16.4406,0.78847 -23.34545,0.0845 z m 21.38665,-36.84598 c 20.5486,-6.56976 32.803,-27.49423 32.803,-56.0113 0,-11.06614 -2.2516,-17.61377 -8.3217,-24.19903 -5.3109,-5.76164 -11.0914,-9.27061 -18.7287,-11.36886 -4.2026,-1.15462 -5.7608,-1.26414 -13.8188,-0.97122 -10.64185,0.38684 -17.60765,1.81819 -24.82435,5.10101 -5.3601,2.43827 -12.71783,7.8642 -14.86153,10.9597 -0.7626,1.10114 -2.2726,2.37227 -3.3554,2.82472 -2.4111,1.00742 -3.4871,2.87158 -3.1078,5.38435 0.1766,1.16957 -0.1546,2.77034 -0.8627,4.17014 -3.9478,7.80426 -6.0715,29.58171 -3.8581,39.56183 3.1281,14.10418 11.7285,22.22913 27.25643,25.74969 3.9767,0.9016 6.7406,1.05393 15.4396,0.85088 9.71395,-0.22673 11.06545,-0.39751 16.24005,-2.05191 z m 742.4137,36.84721 c -11.2292,-1.2456 -24.0744,-6.30998 -32.5283,-12.82466 -8.3533,-6.43716 -15.9921,-16.71861 -19.2212,-25.87072 -0.8029,-2.27566 -0.7818,-2.43784 0.3634,-2.80133 2.9903,-0.94906 4.4494,-6.47733 2.6355,-9.98503 -0.9072,-1.75429 -3.6534,-3.61301 -5.3383,-3.61301 -1.3175,0 -1.5971,-1.95376 -1.6061,-11.2242 -0.019,-20.00934 4.1253,-37.94846 12.2351,-52.9556 5.417,-10.02405 8.5053,-13.55127 37.108,-42.38289 28.1011,-28.326 33.2169,-33.8372 35.4221,-38.15962 2.7629,-5.41574 5.7337,-15.54285 5.2704,-17.96627 -0.1465,-0.76656 -0.031,-1.39374 0.2551,-1.39374 0.2868,0 0.5215,-0.35839 0.5215,-0.79642 0,-0.5146 -1.4462,-1.0293 -4.0869,-1.45452 -2.2478,-0.36194 -5.9941,-1.26093 -8.3252,-1.99774 -3.6084,-1.14057 -5.7439,-1.35182 -14.3691,-1.42147 -5.5719,-0.045 -9.795,-0.19195 -9.3848,-0.32657 1.0361,-0.3399 11.0011,-6.10184 15.859,-9.1699 6.0696,-3.83333 13.6268,-6.04722 22.4262,-6.56983 6.5785,-0.3907 7.6378,-0.30495 11.2012,0.90675 3.8962,1.32488 3.9464,1.37059 5.0226,4.57517 0.5979,1.78032 1.3212,5.24822 1.6072,7.70647 0.2861,2.45824 0.7986,4.64168 1.1391,4.85209 0.8981,0.55506 -0.6314,8.68798 -2.5073,13.33223 -3.5111,8.69271 -11.1286,19.26817 -20.8615,28.96244 -3.8627,3.8473 -6.0638,5.6006 -7.0314,5.6006 -2.4501,0 -5.4403,2.52157 -6.4313,5.42351 -0.7602,2.22619 -3.0988,4.73377 -14.356,15.39318 -7.3963,7.00357 -13.3696,12.81194 -13.2741,12.9075 0.096,0.0956 4.1036,-0.39027 8.9068,-1.07963 11.3625,-1.63076 24.52,-1.37387 31.4382,0.61382 20.3649,5.85109 35.7312,23.83238 41.6306,48.71499 1.4671,6.18833 1.5944,7.77205 1.5865,19.74556 -0.01,12.71528 -0.054,13.19238 -1.9714,20.54308 -6.0432,23.16911 -20.5038,41.79839 -38.1461,49.14289 -9.0985,3.78773 -21.7095,5.06815 -35.1895,3.57287 z m 21.6452,-30.52697 c 1.5412,-1.68182 1.9681,-2.67806 1.9681,-4.59337 0,-2.09786 0.2317,-2.53385 1.629,-3.06509 0.8959,-0.34063 3.6333,-1.86856 6.0829,-3.39538 7.7252,-4.81488 14.3296,-13.58097 18.257,-24.23255 3.8424,-10.42121 5.5241,-29.44563 3.3532,-37.93431 -3.0052,-11.75082 -13.5592,-21.63534 -26.5975,-24.91004 -6.0323,-1.51508 -20.6854,-0.93803 -28.4571,1.12067 -18.6137,4.93077 -29.89,16.75256 -34.1836,35.83733 -1.9425,8.63368 -2.4111,23.68892 -0.9435,30.30384 3.8866,17.51722 17.6028,26.8871 39.359,26.8871 5.8623,0 6.9693,0.14764 6.9693,0.9295 0,1.56478 1.9614,4.03045 3.9068,4.91115 3.0049,1.36041 6.3679,0.63824 8.6564,-1.85885 z M 660.83567,442.98685 c -1.1655,-0.1314 -4.7426,-0.52224 -7.9492,-0.86852 -33.0601,-3.5703 -53.272,-16.41383 -57.7903,-36.72251 -1.49874,-6.73653 -0.90749,-19 1.27863,-26.52123 4.11147,-14.14514 13.74147,-26.09339 27.22447,-33.77834 5.7803,-3.29456 15.0673,-7.08348 21.9287,-8.94649 3.1885,-0.86576 4.8349,-1.59058 4.5841,-2.01817 -2.1504,-3.66641 -7.8944,-11.67653 -9.5866,-13.3687 -3.8299,-3.8299 -8.527,-4.81819 -15.3808,-3.23615 l -3.0881,0.71281 2.5878,1.29947 c 3.8414,1.92898 5.3124,4.47515 5.3124,9.19524 0,7.64739 -3.3779,10.87962 -10.8137,10.34759 -5.2213,-0.37358 -7.5343,-1.86878 -9.5337,-6.16272 -1.1099,-2.38348 -1.4383,-4.12316 -1.4402,-7.62862 0,-6.64395 0.7989,-8.87811 4.4795,-12.46893 4.0416,-3.94301 7.2784,-5.09115 15.5729,-5.524 7.4763,-0.39015 14.0302,0.86066 16.823,3.21068 0.9239,0.77743 3.6402,4.25219 6.0362,7.72169 4.6315,6.70676 7.8004,9.7639 15.1634,14.62894 2.9553,1.95268 4.9934,3.79611 5.7413,5.19299 1.1424,2.13364 1.1424,2.20074 0,4.54102 l -1.1595,2.37538 -11.5039,0.36713 c -6.3272,0.20192 -12.3214,0.56949 -13.3204,0.8168 -6.8859,1.70466 -12.674,4.79352 -19.0578,10.17019 -5.7642,4.85485 -9.8111,9.86016 -12.5462,15.51757 -2.7543,5.69724 -3.4521,13.19099 -1.6857,18.10325 1.4864,4.13343 4.4877,8.08309 8.5874,11.30084 3.3676,2.64308 3.4504,2.77957 3.2882,5.41813 -0.091,1.48871 0.1335,3.26728 0.5001,3.95236 0.9967,1.86233 4.1053,3.25758 6.2861,2.82142 2.066,-0.41319 4.6377,-2.53351 4.6377,-3.82369 0,-0.46112 0.2819,-0.66414 0.6265,-0.45116 0.9276,0.57324 8.1495,2.61949 12.9965,3.68242 11.9671,2.6243 17.9274,3.35781 30.0119,3.69341 14.752,0.40968 19.3319,-0.22704 32.0488,-4.45549 9.5316,-3.16933 16.2056,-6.55132 21.4083,-10.84853 7.0361,-5.81136 10.0392,-11.95939 10.0618,-20.59851 0.015,-5.71846 -0.8847,-9.41872 -3.5689,-14.68031 -1.837,-3.6008 -7.5806,-9.14499 -11.7047,-11.29831 -2.6532,-1.38533 -3.4791,-2.13745 -3.4802,-3.16916 -6e-4,-0.74402 -0.7688,-2.2116 -1.7067,-3.26129 -1.4034,-1.57068 -2.158,-1.90852 -4.2627,-1.90852 -1.7648,0 -2.977,0.39411 -3.911,1.27148 -1.2844,1.20664 -1.5379,1.22997 -4.9706,0.45749 -1.9895,-0.4477 -7.9123,-0.98643 -13.1618,-1.19718 -10.9357,-0.43904 -13.8503,-1.23519 -15.3848,-4.20259 l -0.9667,-1.86942 3.3687,-3.13557 c 1.8528,-1.72456 5.3635,-4.64848 7.8015,-6.49761 2.4381,-1.84913 5.1036,-4.39931 5.9234,-5.66706 3.6692,-5.67405 9.9787,-13.63501 12.8587,-16.22437 5.4527,-4.90244 6.7804,-5.33895 17.1352,-5.63371 10.8019,-0.30749 14.4375,0.34571 13.8975,2.49696 -0.4393,1.75037 0.4953,4.18576 2.2245,5.79678 1.5118,1.40848 5.8421,1.76789 7.0268,0.58322 1.2406,-1.24063 2.6113,0.004 4.5794,4.15903 1.7999,3.79988 1.9397,4.55368 1.9388,10.45264 -10e-4,7.21801 -0.6909,9.14277 -4.2496,11.85714 -1.7095,1.30384 -2.9899,1.68806 -6.4504,1.93566 -7.0622,0.5053 -10.1877,-2.16981 -10.1877,-8.71949 0,-5.72496 2.5395,-8.86158 8.7793,-10.84371 1.0783,-0.34251 0.8857,-0.68102 -1.7572,-3.08946 -3.8392,-3.49862 -6.2579,-4.46196 -11.183,-4.45392 -6.5629,0.0107 -12.6055,2.36033 -17.3739,6.75567 -2.2818,2.10327 -11.766,13.8677 -11.766,14.59478 0,0.1415 2.5202,0.43401 5.6005,0.65003 10.7694,0.75522 21.246,4.46834 29.167,10.33741 8.6635,6.41923 13.9811,13.83931 17.1367,23.91212 1.4853,4.74124 1.6308,6.07758 1.6542,15.18888 0.029,11.30457 -0.7577,15.59071 -4.3898,23.91605 -3.3149,7.59832 -10.3766,17.19297 -15.5689,21.15335 l -2.0574,1.56921 -1.9967,-1.21739 c -2.5052,-1.52736 -6.2138,-1.56819 -8.954,-0.0986 -2.3444,1.25732 -4.8494,5.38718 -4.8494,7.99496 0,1.53258 -0.3424,1.77008 -4.3897,3.04551 -4.2205,1.32999 -5.288,1.38807 -27.7002,1.50696 -12.8209,0.068 -24.2642,0.0162 -25.4298,-0.11525 z m 168.9261,-0.24157 c -6.5645,-0.65419 -13.1344,-1.66295 -18.2794,-2.80664 -3.5318,-0.78508 -4.2048,-1.1612 -5.2512,-2.93472 -0.6601,-1.11883 -1.9063,-2.4969 -2.7694,-3.06237 -2.3166,-1.51795 -6.42,-1.81434 -8.7117,-0.62926 -1.839,0.95099 -2.0323,0.92784 -5.0954,-0.61038 -11.9309,-5.99127 -20.0424,-15.78751 -22.6032,-27.2976 -1.5052,-6.76587 -0.9465,-18.60736 1.2419,-26.31874 l 1.607,-5.66257 2.6712,0.21246 c 2.3114,0.18383 2.9178,-0.034 4.501,-1.61729 2.3349,-2.3349 2.4749,-5.30151 0.3684,-7.80499 l -1.4614,-1.73673 3.5114,-4.21306 c 8.1113,-9.73204 21.8566,-17.73299 37.9904,-22.11363 3.1886,-0.86576 4.835,-1.59058 4.5842,-2.01817 -2.1505,-3.66641 -7.8945,-11.67653 -9.5866,-13.3687 -3.8299,-3.8299 -8.5271,-4.81819 -15.3809,-3.23615 l -3.088,0.71281 2.5877,1.29947 c 3.8414,1.92898 5.3124,4.47515 5.3124,9.19524 0,7.64739 -3.3778,10.87962 -10.8137,10.34759 -5.2212,-0.37358 -7.5343,-1.86878 -9.5337,-6.16272 -1.1098,-2.38348 -1.4383,-4.12316 -1.4402,-7.62862 0,-6.64395 0.7989,-8.87811 4.4795,-12.46893 4.0416,-3.94301 7.2784,-5.09115 15.5729,-5.524 7.4763,-0.39015 14.0302,0.86066 16.823,3.21068 0.924,0.77743 3.6402,4.25219 6.0362,7.72169 4.6315,6.70676 7.8004,9.7639 15.1634,14.62894 2.9553,1.95268 4.9934,3.79611 5.7414,5.19299 1.1424,2.13364 1.1424,2.20074 0,4.54102 l -1.1596,2.37538 -11.5039,0.36713 c -6.3272,0.20192 -12.3213,0.56949 -13.3203,0.8168 -6.8859,1.70466 -12.6741,4.79352 -19.0579,10.17019 -5.761,4.85217 -9.7945,9.84006 -12.6064,15.58929 -2.1249,4.34443 -2.2215,4.81625 -2.2315,10.89846 -0.013,7.8248 1.1424,10.62586 6.6182,16.04495 10.1911,10.08539 33.7659,16.92768 60.9222,17.68185 14.7521,0.40968 19.332,-0.22704 32.0488,-4.45549 21.0867,-7.01149 31.4269,-16.9984 31.4701,-30.39485 0.012,-3.85536 0.2177,-4.69527 1.528,-6.25252 1.6932,-2.01221 1.8219,-2.789 0.8248,-4.97745 -0.6454,-1.41635 -3.6736,-3.06265 -4.3639,-2.37239 -0.1716,0.17158 -0.8872,-0.81559 -1.5902,-2.19371 -2.0587,-4.03526 -7.6583,-9.15463 -13.0455,-11.92666 -9.2841,-4.7772 -17.1775,-6.63128 -30.4397,-7.15005 -10.626,-0.41565 -13.5417,-1.22228 -15.0648,-4.1678 l -0.9667,-1.86942 3.3686,-3.13557 c 1.8528,-1.72456 5.3635,-4.64848 7.8015,-6.49761 2.4381,-1.84913 5.1036,-4.39931 5.9234,-5.66706 3.6693,-5.67405 9.9788,-13.63501 12.8587,-16.22437 5.8127,-5.22611 6.5691,-5.44723 18.6489,-5.45172 l 10.5957,-0.004 3.9356,1.87537 c 5.5336,2.63689 9.7093,6.60192 11.8616,11.26304 1.5912,3.44608 1.7613,4.42915 1.7605,10.17218 0,7.21801 -0.691,9.14277 -4.2497,11.85714 -1.7094,1.30384 -2.9898,1.68806 -6.4504,1.93566 -7.0621,0.5053 -10.1877,-2.16981 -10.1877,-8.71949 0,-5.72496 2.5395,-8.86158 8.7793,-10.84371 1.0783,-0.34251 0.8858,-0.68102 -1.7571,-3.08946 -3.7402,-3.40839 -6.2545,-4.46047 -10.6597,-4.46047 -1.9194,0 -4.2701,-0.40702 -5.224,-0.90448 -0.9538,-0.49746 -2.1743,-0.90615 -2.7121,-0.9082 -1.4369,-0.005 -4.1686,2.33777 -4.1686,3.57585 0,0.58839 -0.6807,1.37993 -1.5126,1.75898 -2.5217,1.14898 -6.6805,5.35929 -11.4854,11.62777 -2.5083,3.27239 -4.5606,6.06557 -4.5606,6.20708 0,0.1415 2.5202,0.43401 5.6006,0.65003 10.7693,0.75522 21.2459,4.46834 29.1669,10.33741 8.6635,6.41923 13.9812,13.83931 17.1367,23.91212 1.4853,4.74124 1.6308,6.07758 1.6542,15.18887 0.02,7.88528 -0.2169,10.94706 -1.1255,14.53128 -3.22,12.70233 -10.8915,24.41053 -21.0938,32.19309 -5.1673,3.94171 -10.0765,6.38728 -18.3215,9.12705 l -5.4493,1.81075 -23.6133,0.18198 c -12.9873,0.1001 -25.9292,-0.0488 -28.7598,-0.33089 z m 1075.92003,-1.20166 c -19.5939,-3.0238 -35.7295,-8.89776 -46.5292,-16.93839 -10.5082,-7.82363 -15.6268,-16.46818 -17.1586,-28.97827 -0.5182,-4.23256 -0.4553,-6.51334 0.3246,-11.78342 1.2789,-8.64093 5.5693,-27.10452 7.2887,-31.36671 6.1736,-15.30371 34.8044,-40.58975 55.0625,-48.62981 14.603,-5.79567 28.2841,-3.09044 24.9133,4.92623 -1.1842,2.81634 -4.2723,4.67384 -10.7807,6.48441 -23.2611,6.47112 -45.4141,23.62829 -53.9174,41.75842 -3.3507,7.14402 -4.3107,11.74232 -4.3107,20.64757 0,9.99134 1.0629,13.03401 6.5607,18.77963 3.646,3.81037 3.7276,3.96827 3.5297,6.83304 -0.1693,2.45111 0.057,3.24173 1.3821,4.81584 1.7969,2.13546 5.1368,3.46863 7.3181,2.92115 0.8087,-0.20298 2.394,-1.18 3.5229,-2.17115 2.0516,-1.80128 2.0539,-1.8017 5.0062,-0.9099 9.9004,2.99051 15.2249,3.63301 29.8972,3.60767 13.2315,-0.0228 14.6995,-0.13662 20.9501,-1.62364 19.6511,-4.67499 36.6757,-17.36872 43.8465,-32.69248 3.5047,-7.48943 4.3211,-11.39349 4.6561,-22.26528 0.2598,-8.43325 0.1099,-11.08832 -0.9617,-17.03587 -2.9864,-16.57484 -9.8272,-29.69738 -21.5681,-41.37318 -7.4429,-7.40173 -13.5582,-11.83338 -23.9757,-17.37479 -15.8109,-8.41036 -33.7821,-13.24508 -54.0554,-14.54228 -9.4404,-0.60406 -11.6861,-0.56286 -17.5586,0.3221 -15.9448,2.40282 -21.5694,2.34708 -24.3244,-0.24108 -1.9346,-1.81742 -2.0173,-5.22121 -0.1751,-7.19861 1.881,-2.01902 6.6776,-3.97413 12.7843,-5.2109 l 5.3115,-1.07571 -2.3199,-1.56755 c -12.6963,-8.57888 -16.4137,-17.54357 -15.7025,-37.86742 0.2911,-8.32087 0.5823,-10.49822 2.0283,-15.16507 5.3985,-17.42315 19.7213,-28.35919 42.4652,-32.4238 9.0503,-1.61742 28.5496,-2.27936 35.9385,-1.21999 15.6332,2.24136 23.9661,6.08889 43.2176,19.95471 9.0817,6.54106 9.0821,6.54142 9.4016,9.25933 0.1758,1.4949 0.81,3.46649 1.4094,4.38129 1.164,1.7764 4.7027,3.57941 6.3529,3.23682 1.2258,-0.25446 3.0616,2.29665 6.1367,8.52752 5.1972,10.53081 7.2967,20.78028 7.7211,37.69364 0.2732,10.88559 -0.058,15.41414 -1.3799,18.85856 -0.3189,0.83126 -0.085,1.05822 1.0891,1.05822 0.8224,0 2.5315,0.82354 3.7981,1.83009 1.2666,1.00655 2.9388,1.96016 3.7161,2.11915 0.7773,0.15898 2.0637,0.42278 2.8587,0.58622 0.7951,0.16345 2.7148,0.0601 4.2661,-0.22976 2.773,-0.51804 2.8025,-0.50697 1.7497,0.65636 -1.0551,1.16583 -1.0131,1.17703 2.8482,0.75899 2.1555,-0.23335 4.9982,-0.78659 6.3172,-1.22941 l 2.3981,-0.80514 -1.7927,1.50023 c -5.6317,4.71296 -22.8526,10.55497 -31.1149,10.55538 -1.142,6e-5 -2.9631,0.32082 -4.0471,0.71279 -2.2396,0.80988 -3.867,-0.0137 -3.867,-1.95696 0,-0.6028 -0.545,-1.26895 -1.211,-1.48034 -1.3549,-0.43003 -1.5974,-1.28392 -0.4713,-1.65931 0.4684,-0.15613 0.1154,-0.8708 -0.9627,-1.94884 -1.0093,-1.00942 -1.4472,-1.85991 -1.0757,-2.08952 0.6997,-0.43243 1.3829,-4.35223 2.8587,-16.40198 3.7132,-30.31774 -7.4305,-53.0834 -31.9035,-65.17606 -3.1654,-1.56411 -8.6317,-3.58036 -12.342,-4.55237 -5.9313,-1.55384 -8.0186,-1.78351 -19.0723,-2.09861 -13.279,-0.37853 -19.9705,0.28568 -28.5485,2.83378 -3.07,0.91193 -4.4104,1.05048 -5.6401,0.58296 -5.1422,-1.95506 -10.6162,1.8865 -10.6162,7.45029 0,0.79326 -0.8027,2.5503 -1.7837,3.90455 -2.7689,3.82238 -4.4403,10.13522 -4.1831,15.79936 0.1959,4.31391 0.4227,5.04322 2.5767,8.28745 4.5255,6.81592 12.4464,13.34985 23.6733,19.52808 3.6631,2.01582 8.8399,4.42336 11.504,5.3501 2.664,0.92674 5.7016,2.26427 6.75,2.97228 1.0485,0.70802 4.5905,2.27302 7.8712,3.47778 26.3269,9.66813 27.5233,10.19812 36.2751,16.07025 6.655,4.46525 16.2905,12.96715 21.8542,19.28293 8.5535,9.70993 13.3129,18.61678 19.0764,35.70002 l 2.6264,7.78462 -0.017,17.86136 c -0.015,16.07828 -0.1532,18.53952 -1.3819,24.65467 -4.3011,21.40841 -16.392,39.7914 -33.0073,50.18433 l -3.3456,2.09265 -2.0128,-1.22717 c -2.3912,-1.45789 -5.3386,-1.57812 -7.7769,-0.31723 -2.1262,1.09951 -3.1376,2.80476 -3.5875,6.04844 -0.3329,2.39999 -0.3813,2.43976 -5.3626,4.39981 -9.888,3.89087 -15.5922,4.99256 -25.4645,4.91822 -5.118,-0.0386 -11.8071,-0.52088 -15.8273,-1.14129 z"
       id="path3550"
       inkscape:connector-curvature="0" />
  </g>
</svg>
