<?xml version="1.0" encoding="UTF-8" standalone="no"?>
<!-- Created with Inkscape (http://www.inkscape.org/) -->

<svg
   xmlns:dc="http://purl.org/dc/elements/1.1/"
   xmlns:cc="http://creativecommons.org/ns#"
   xmlns:rdf="http://www.w3.org/1999/02/22-rdf-syntax-ns#"
   xmlns:svg="http://www.w3.org/2000/svg"
   xmlns="http://www.w3.org/2000/svg"
   xmlns:xlink="http://www.w3.org/1999/xlink"
   xmlns:sodipodi="http://sodipodi.sourceforge.net/DTD/sodipodi-0.dtd"
   xmlns:inkscape="http://www.inkscape.org/namespaces/inkscape"
   id="svg2"
   version="1.1"
   inkscape:version="0.91 r13725"
   width="2481"
   height="3503"
   sodipodi:docname="Pepper-and-Carrot_by-David-Revoy_E06P08.svg">
  <metadata
     id="metadata8">
    <rdf:RDF>
      <cc:Work
         rdf:about="">
        <dc:format>image/svg+xml</dc:format>
        <dc:type
           rdf:resource="http://purl.org/dc/dcmitype/StillImage" />
        <dc:title />
      </cc:Work>
    </rdf:RDF>
  </metadata>
  <defs
     id="defs6">
    <filter
       color-interpolation-filters="sRGB"
       id="filter4375-4-1-1-15-1-3-3"
       inkscape:label="deevad outline effect">
      <feFlood
         id="feFlood4377-7-9-0-4-4-4-7"
         flood-opacity="1"
         flood-color="rgb(0,0,0)"
         result="flood" />
      <feComposite
         id="feComposite4379-3-8-8-6-0-7-4"
         in2="SourceGraphic"
         in="flood"
         operator="in"
         result="composite1" />
      <feMorphology
         id="feMorphology4393-1-0-49-8-2-7-3"
         operator="dilate"
         radius="0.69999999999999996"
         result="result3" />
      <feComposite
         id="feComposite4385-9-5-7-2-1-2-9"
         in2="result3"
         in="SourceGraphic"
         operator="over"
         result="composite2" />
    </filter>
    <filter
       color-interpolation-filters="sRGB"
       id="filter3639"
       inkscape:label="deevad outline effect">
      <feFlood
         id="feFlood3641"
         flood-opacity="1"
         flood-color="rgb(0,0,0)"
         result="flood" />
      <feComposite
         id="feComposite3643"
         in2="SourceGraphic"
         in="flood"
         operator="in"
         result="composite1" />
      <feMorphology
         id="feMorphology3645"
         operator="dilate"
         radius="0.69999999999999996"
         result="result3" />
      <feComposite
         id="feComposite3647"
         in2="result3"
         in="SourceGraphic"
         operator="over"
         result="composite2" />
    </filter>
    <filter
       color-interpolation-filters="sRGB"
       id="filter3649"
       inkscape:label="deevad outline effect">
      <feFlood
         id="feFlood3651"
         flood-opacity="1"
         flood-color="rgb(0,0,0)"
         result="flood" />
      <feComposite
         id="feComposite3653"
         in2="SourceGraphic"
         in="flood"
         operator="in"
         result="composite1" />
      <feMorphology
         id="feMorphology3655"
         operator="dilate"
         radius="0.69999999999999996"
         result="result3" />
      <feComposite
         id="feComposite3657"
         in2="result3"
         in="SourceGraphic"
         operator="over"
         result="composite2" />
    </filter>
  </defs>
  <sodipodi:namedview
     pagecolor="#ffffff"
     bordercolor="#666666"
     borderopacity="1"
     objecttolerance="10"
     gridtolerance="10"
     guidetolerance="10"
     inkscape:pageopacity="0"
     inkscape:pageshadow="2"
     inkscape:window-width="1366"
     inkscape:window-height="705"
     id="namedview4"
     showgrid="false"
     inkscape:zoom="0.69565218"
     inkscape:cx="1008.0084"
     inkscape:cy="1801.3437"
     inkscape:window-x="-8"
     inkscape:window-y="-8"
     inkscape:window-maximized="1"
     inkscape:current-layer="layer1" />
  <g
     inkscape:groupmode="layer"
     id="layer2"
     inkscape:label="artwork"
     sodipodi:insensitive="true">
    <image
       sodipodi:absref="D:\T\tut\P&amp;C\peppercarrot_ep06_translation-master\peppercarrot_ep06_translation-master\si\..\gfx_Pepper-and-Carrot_by-David-Revoy_E06P08.png"
       xlink:href="../gfx_Pepper-and-Carrot_by-David-Revoy_E06P08.png"
       y="0"
       x="0"
       id="image10"
       height="3503"
       width="2481" />
  </g>
  <g
     inkscape:groupmode="layer"
     id="layer3"
     inkscape:label="speechbubbles" />
  <g
     inkscape:groupmode="layer"
     id="layer1"
     inkscape:label="txt">
    <path
       style="color:#000000;fill:#ffffff;fill-opacity:1;fill-rule:nonzero;stroke:none;stroke-width:1px;marker:none;visibility:visible;display:inline;overflow:visible;enable-background:accumulate"
       d="m 524.44684,1977.3621 c -14.01377,-46.3951 -40.00882,-95.7772 -45.79925,-144.3988 l -11.44029,45.6542 c -62.91152,-129.7986 -216.9307,-210.2683 -37.93418,5.9274 l 4.61436,-21.5395 c 6.85365,14.1808 24.60331,28.6882 28.47492,44.653 l 15.40082,-17.4241 c 13.28656,38.1411 31.12227,58.0858 46.68362,87.1278 z"
       id="path4032-9"
       inkscape:connector-curvature="0"
       sodipodi:nodetypes="cccccccc" />
    <path
       style="color:#000000;fill:#ffffff;fill-opacity:1;fill-rule:nonzero;stroke:none;stroke-width:1px;marker:none;visibility:visible;display:inline;overflow:visible;enable-background:accumulate"
       d="m 734.33747,2852.147 c 34.68316,-42.7494 111.27433,-68.3456 171.06944,-6.0348 45.90017,-4.9397 81.26643,-4.2641 125.92729,48.6318 -41.84055,-33.4484 -69.35796,-47.6353 -136.48501,-35.9449 -35.82358,-28.4476 -90.54377,-19.0565 -121.82817,39.1849 -31.28451,58.2414 -17.69437,44.59 -17.69437,44.59 l -30.80741,-73.5852 z"
       id="path5074-3-6"
       inkscape:connector-curvature="0"
       sodipodi:nodetypes="ccccsccc" />
    <path
       style="color:#000000;fill:#ffffff;fill-opacity:1;fill-rule:nonzero;stroke:none;stroke-width:1px;marker:none;visibility:visible;display:inline;overflow:visible;enable-background:accumulate"
       d="m 921.73639,1713.3647 c 38.32906,18.6277 26.56293,53.657 -17.25459,29.5292 30.4647,35.9116 50.91128,52.0261 35.37649,66.5249 113.16101,-28.688 40.12509,17.6202 12.35589,45.6958 25.2138,-11.1892 65.39632,-42.7141 50.24712,0.9326 8.0165,-2.0071 17.4491,-7.7553 21.4169,0.9326 10.2141,-5.9994 17.8025,-7.54 22.2405,-3.7303 10.0387,-10.9178 16.5252,-13.7923 16.4745,-1.865 9.4908,-8.9943 12.4136,-5.8987 14.827,-1.8652 16.2884,-19.3104 22.3718,-13.8628 28.8303,-9.3257 9.2223,-11.5941 20.0147,-8.9681 32.1252,5.5954 12.3911,-19.7186 25.706,-18.519 39.5387,-5.5954 4.0629,-4.8576 7.7526,-13.0937 13.1796,-5.5954 5.4916,-2.5937 10.9829,-9.2401 16.4744,-2.7977 57.96,-25.5257 83.2408,-3.9641 110.3791,14.921 15.1317,-8.3376 26.0358,-24.4528 51.8945,-13.0558 2.4173,-11.638 16.2824,-16.3634 40.3625,-14.9211 -24.6985,-14.0451 -25.9691,-22.0409 31.3015,-14.9211 -39.9179,-11.5016 -76.7041,-23.0032 -14.8271,-34.5049 -14.4922,-4.5662 -61.8613,6.1755 -9.8847,-48.4933 -36.9085,12.0657 -70.4145,15.2007 -80.7249,-33.5725 -19.9115,12.8266 -41.9579,19.1806 -59.3081,-10.2582 -15.8027,13.7936 -37.9137,10.4819 -49.4234,3.7302 -3.114,15.1069 -26.6303,38.2752 -58.4843,-3.7302 6.989,23.8751 1.6991,61.9029 -35.4201,-0.9326 -0.7362,10.9306 14.5493,70.3734 -88.9621,-0.9326 12.9121,47.8406 -21.4561,20.0035 -48.59972,3.7302 13.46032,29.9949 -6.7969,32.3145 -51.0709,14.9211 34.1543,28.4805 -0.96419,20.6172 -23.06429,19.584 z"
       id="path3549-2"
       inkscape:connector-curvature="0"
       sodipodi:nodetypes="ccccccccccccccccccccccccccccc" />
    <path
       style="color:#000000;display:inline;overflow:visible;visibility:visible;fill:#ffffff;fill-opacity:1;fill-rule:nonzero;stroke:none;stroke-width:1px;marker:none;enable-background:accumulate"
       d="m 645.18509,1756.655 c 73.78723,15.425 148.9949,30.5991 23.40919,81.2353 121.54813,-16.2519 48.4969,11.8906 19.70906,29.935 216.19494,-41.4052 79.00523,17.8474 27.72784,52.6287 47.76628,-14.8404 122.73399,-54.5176 97.15151,-2.3845 56.36305,-26.6335 144.76662,-74.8686 41.45415,-0.39 86.93077,-45.8924 88.86263,-41.119 42.65175,-5.9045 56.89426,-31.4082 66.63107,-25.9232 60.15664,-6.5312 35.82857,-40.6127 43.73597,-22.5251 54.91037,-12.9095 16.8378,-14.208 37.9094,-11.8811 62.5353,4.3267 22.2738,-23.9364 48.0981,1.4801 48.2189,24.3218 18.4035,-34.413 48.8456,-39.2878 77.2999,-0.9563 0.5559,-22.9435 0.1391,-71.9868 43.8991,-0.077 -11.4506,-65.7771 130.6133,-37.9895 199.1164,3.324 -40.3202,-48.2731 -5.9674,-79.0486 77.6138,-56.8129 3.6873,-13.7886 30.0747,-20.2784 76.7169,-20.2561 -48.9009,-14.7301 -52.0306,-24.0007 59.2121,-19.6293 -78.0887,-10.7004 -150.1271,-21.6174 -31.5573,-39.3597 -28.3832,-4.3417 -118.9891,11.5073 -23.1899,-56.0738 -70.2855,16.6752 -134.7513,22.6623 -158.787,-33.7096 -37.3847,16.3899 -79.4399,25.3519 -115.4437,-7.9038 -29.3652,17.2375 -72.361,14.8911 -95.1667,7.7849 -4.7406,17.8968 -48.2162,46.6403 -113.3011,-0.3202 15.5174,27.4604 8.5081,72.3351 -68.5071,1.3589 -0.4993,12.8442 34.0484,81.36 -171.94544,5.0624 28.98365,55.1004 -39.76242,24.8968 -93.57528,7.7278 28.53612,34.1756 -10.4031,38.2919 -97.40455,20.9969 68.38713,30.9716 -0.12241,24.1975 -42.90484,24.517 z"
       id="path3549"
       inkscape:connector-curvature="0"
       sodipodi:nodetypes="ccccccccccccccccccccccccccccc" />
    <path
       style="color:#000000;display:inline;overflow:visible;visibility:visible;fill:#ffffff;fill-opacity:1;fill-rule:nonzero;stroke:none;stroke-width:1px;marker:none;enable-background:accumulate"
       d="m 442.88882,428.38193 c 38.82927,-34.48897 250.02537,-31.54474 320.29422,-16.60243 70.26856,14.94213 96.41505,40.67597 99.68333,49.80737 3.26813,9.13132 -4.9024,51.46759 -40.85392,59.7689 -35.95132,8.30121 -138.90292,12.45182 -174.85443,12.45182 -35.95132,0 -150.71607,-5.2837 -179.75714,-17.43262 -27.78065,-11.62172 -63.34151,-53.50416 -24.51206,-87.99304 z"
       id="path3330"
       inkscape:connector-curvature="0"
       sodipodi:nodetypes="zsssssz" />
    <path
       style="color:#000000;fill:#ffffff;fill-opacity:1;fill-rule:nonzero;stroke:none;stroke-width:1px;marker:none;visibility:visible;display:inline;overflow:visible;enable-background:accumulate"
       d="m 414.31688,691.38453 c -11.42076,-60.08041 19.03456,-219.66888 253.16104,-206.52623 234.12629,13.14241 261.36657,82.72228 277.90602,110.77304 8.50465,18.62651 81.06346,144.63427 -102.94559,168.38164 -186.24527,24.03598 -371.01742,13.73698 -428.12147,-72.62845 z"
       id="path3525"
       inkscape:connector-curvature="0"
       sodipodi:nodetypes="cscsc" />
    <flowRoot
       xml:space="preserve"
       id="flowRoot2987-4-9-3"
       style="font-style:normal;font-variant:normal;font-weight:normal;font-stretch:normal;font-size:12px;line-height:125%;font-family:Lavi;-inkscape-font-specification:Lavi;text-align:center;letter-spacing:0px;word-spacing:0px;text-anchor:middle;fill:#000000;fill-opacity:1;stroke:none"
       transform="translate(350.63076,278.43672)"><flowRegion
         id="flowRegion2989-5-4-5"><rect
           id="rect2991-7-9-6"
           width="419.43784"
           height="286.34476"
           x="120.55251"
           y="265.53046"
           style="font-style:normal;font-variant:normal;font-weight:normal;font-stretch:normal;font-family:Lavi;-inkscape-font-specification:Lavi;text-align:center;text-anchor:middle" /></flowRegion><flowPara
         style="font-style:normal;font-variant:normal;font-weight:bold;font-stretch:normal;font-size:48px;font-family:BhashitaComplex;-inkscape-font-specification:'BhashitaComplex Bold';text-align:center;text-anchor:middle"
         id="flowPara4658"><flowSpan
   style="letter-spacing:-16px"
   id="flowSpan4226">...</flowSpan>පුරුදු විදියටම,</flowPara><flowPara
         style="font-style:normal;font-variant:normal;font-weight:bold;font-stretch:normal;font-size:48px;font-family:BhashitaComplex;-inkscape-font-specification:'BhashitaComplex Bold';text-align:center;text-anchor:middle"
         id="flowPara4228">අපේ වාරේ එද්දී කවුරුවත් නෑ</flowPara></flowRoot>    <flowRoot
       transform="matrix(0.86900597,0,0,1.147161,290.8159,122.08708)"
       style="font-style:normal;font-variant:normal;font-weight:normal;font-stretch:normal;font-size:12px;line-height:125%;font-family:Lavi;-inkscape-font-specification:Lavi;text-align:center;letter-spacing:0px;word-spacing:0px;text-anchor:middle;fill:#000000;fill-opacity:1;stroke:none"
       id="flowRoot3045"
       xml:space="preserve"><flowRegion
         id="flowRegion3047"><rect
           style="font-style:normal;font-variant:normal;font-weight:normal;font-stretch:normal;font-family:Lavi;-inkscape-font-specification:Lavi;text-align:center;text-anchor:middle"
           y="265.53046"
           x="120.55251"
           height="310.73996"
           width="602.40173"
           id="rect3049" /></flowRegion><flowPara
         id="flowPara3055"
         style="font-style:normal;font-variant:normal;font-weight:bold;font-stretch:normal;font-size:48px;font-family:BhashitaComplex;-inkscape-font-specification:'BhashitaComplex Bold';text-align:center;text-anchor:middle">ඔන්න ඔහෙ ගියාවේ<flowSpan
   style="letter-spacing:-16px"
   id="flowSpan4219">...</flowSpan></flowPara></flowRoot>    <path
       style="color:#000000;fill:#ffffff;fill-opacity:1;fill-rule:nonzero;stroke:none;stroke-width:1px;marker:none;visibility:visible;display:inline;overflow:visible;enable-background:accumulate"
       d="m 900.08615,716.05926 c 42.51329,20.49356 123.80235,14.32923 138.26235,-30.35733 -49.15569,36.55167 -109.63611,20.90132 -120.75593,10.89767 -11.11981,-10.00366 -17.50642,19.45966 -17.50642,19.45966 z"
       id="path3978"
       inkscape:connector-curvature="0" />
    <path
       style="color:#000000;fill:#ffffff;fill-opacity:1;fill-rule:nonzero;stroke:none;stroke-width:1px;marker:none;visibility:visible;display:inline;overflow:visible;enable-background:accumulate"
       d="m 1441.4333,792.86046 c 1.8123,17.9111 3.4719,36.60072 12.514,52.57918 2.6665,4.48827 5.7379,8.94714 9.7431,12.29849 4.9422,2.55729 10.902,0.92324 14.9972,-2.48609 6.2588,-4.50938 10.9613,-11.84776 18.8831,-13.58596 5.7972,-1.12556 10.4379,3.16953 14.6457,6.42604 10.5623,8.51108 20.0337,18.50261 31.8998,25.28467 12.8634,8.50453 27.0155,16.51979 42.7488,17.47511 6.2316,0.27366 12.7888,-0.31154 18.2031,-3.68195 14.2818,-8.01643 24.173,-24.34511 22.834,-40.90808 -1.8569,-10.48428 -12.9332,-19.03038 -23.5991,-16.39316 -5.6511,1.30784 -9.507,6.21921 -11.5244,11.3814 -5.4816,8.7963 -15.7551,13.86937 -26.0014,13.88113 -8.456,0.14805 -16.8709,-2.36044 -24.0764,-6.73748 -11.3704,-3.36484 -18.2685,-13.64874 -26.3598,-21.52774 -3.7502,-3.54453 -7.9795,-7.06083 -13.0234,-8.42848 -7.6564,-0.23923 -13.3775,5.76673 -17.631,11.40618 -4.5368,5.70318 -9.1549,12.83128 -16.9484,14.04463 -5.2949,1.57023 -8.0628,-4.3141 -11.2198,-7.42808 -8.8564,-11.35341 -14.0534,-25.32791 -16.0433,-39.50562 -0.089,-1.36474 -0.067,-2.72787 -0.042,-4.09419 z"
       id="path4496"
       inkscape:connector-curvature="0"
       inkscape:transform-center-x="-99.717282"
       inkscape:transform-center-y="101.38562" />
    <path
       style="color:#000000;fill:#ffffff;fill-opacity:1;fill-rule:nonzero;stroke:none;stroke-width:1px;marker:none;visibility:visible;display:inline;overflow:visible;enable-background:accumulate"
       d="m 1554.582,795.42187 c 57.8977,-93.44304 344.0773,-85.46607 437.1891,-44.98197 93.1111,40.48363 124.7152,110.20588 127.7736,134.94616 3.0584,24.74003 -14.4146,139.44424 -64.4578,161.93554 -50.0428,22.491 -190.389,33.7364 -239.1803,33.7364 -48.7913,0 -203.7467,-14.3154 -241.3276,-47.2313 -35.9497,-31.4874 -77.8951,-144.96201 -19.997,-238.40483 z"
       id="path3330-3"
       inkscape:connector-curvature="0"
       sodipodi:nodetypes="zsssssz" />
    <flowRoot
       xml:space="preserve"
       id="flowRoot2987-4-9-3-8"
       style="font-style:normal;font-variant:normal;font-weight:normal;font-stretch:normal;font-size:12px;line-height:125%;font-family:Lavi;-inkscape-font-specification:Lavi;text-align:center;letter-spacing:0px;word-spacing:0px;text-anchor:middle;fill:#000000;fill-opacity:1;stroke:none"
       transform="translate(1396.3561,511.58645)"><flowRegion
         id="flowRegion2989-5-4-5-8"><rect
           id="rect2991-7-9-6-5"
           width="602.40173"
           height="310.73996"
           x="120.55251"
           y="265.53046"
           style="font-style:normal;font-variant:normal;font-weight:normal;font-stretch:normal;font-family:Lavi;-inkscape-font-specification:Lavi;text-align:center;text-anchor:middle" /></flowRegion><flowPara
         style="font-style:normal;font-variant:normal;font-weight:bold;font-stretch:normal;font-size:48px;font-family:BhashitaComplex;-inkscape-font-specification:'BhashitaComplex Bold';text-align:center;text-anchor:middle"
         id="flowPara3140">අඩුම තරමින්,ඔයාගේ “මායාවඩියෙන්“ අපිට කළහැකි දේ ගැනවත්,මට නිච්වියක් තියෙනවා</flowPara></flowRoot>    <path
       style="color:#000000;fill:#ffffff;fill-opacity:1;fill-rule:nonzero;stroke:none;stroke-width:1px;marker:none;visibility:visible;display:inline;overflow:visible;enable-background:accumulate"
       d="m 1725.0756,1115.0856 c 43.3771,-69.7642 285.0078,-78.229 363.5068,-48.0038 78.4985,30.2249 96.3108,74.7656 99.9619,93.2366 3.6508,18.4709 5.92,90.3998 -37.0913,126.384 -33.0463,27.6471 -158.0209,41.6381 -198.1833,41.6381 -40.162,0 -168.3685,-10.6878 -200.8109,-35.2627 -31.0346,-23.5085 -70.7605,-108.228 -27.3832,-177.9922 z"
       id="path3330-7"
       inkscape:connector-curvature="0"
       sodipodi:nodetypes="zsssssz" />
    <flowRoot
       xml:space="preserve"
       id="flowRoot2987-4-9-3-8-9"
       style="font-style:normal;font-variant:normal;font-weight:normal;font-stretch:normal;font-size:12px;line-height:125%;font-family:Lavi;-inkscape-font-specification:Lavi;text-align:center;letter-spacing:0px;word-spacing:0px;text-anchor:middle;fill:#000000;fill-opacity:1;stroke:none"
       transform="translate(1523.828,835.31854)"><flowRegion
         id="flowRegion2989-5-4-5-8-6"><rect
           id="rect2991-7-9-6-5-0"
           width="582.07239"
           height="272.11423"
           x="120.55251"
           y="265.53046"
           style="font-style:normal;font-variant:normal;font-weight:normal;font-stretch:normal;font-family:Lavi;-inkscape-font-specification:Lavi;text-align:center;text-anchor:middle" /></flowRegion><flowPara
         style="font-style:normal;font-variant:normal;font-weight:bold;font-stretch:normal;font-size:48px;font-family:BhashitaComplex;-inkscape-font-specification:'BhashitaComplex Bold';text-align:center;text-anchor:middle"
         id="flowPara4678"><flowSpan
   style="letter-spacing:-16px"
   id="flowSpan4249">...</flowSpan>ඔක්කෝම </flowPara><flowPara
         style="font-style:normal;font-variant:normal;font-weight:bold;font-stretch:normal;font-size:48px;font-family:BhashitaComplex;-inkscape-font-specification:'BhashitaComplex Bold';text-align:center;text-anchor:middle"
         id="flowPara4251">අකුලාගෙන ගෙදර </flowPara><flowPara
         style="font-style:normal;font-variant:normal;font-weight:bold;font-stretch:normal;font-size:48px;font-family:BhashitaComplex;-inkscape-font-specification:'BhashitaComplex Bold';text-align:center;text-anchor:middle"
         id="flowPara4253">යන එක!</flowPara></flowRoot>    <flowRoot
       xml:space="preserve"
       id="flowRoot2987-4-9-3-8-9-5"
       style="font-style:normal;font-variant:normal;font-weight:normal;font-stretch:normal;font-size:12px;line-height:125%;font-family:Lavi;-inkscape-font-specification:Lavi;text-align:center;letter-spacing:0px;word-spacing:0px;text-anchor:middle;fill:#000000;fill-opacity:1;stroke:none"
       transform="translate(783.34411,1445.7715)"><flowRegion
         id="flowRegion2989-5-4-5-8-6-3"><rect
           id="rect2991-7-9-6-5-0-1"
           width="602.40173"
           height="310.73996"
           x="120.55251"
           y="265.53046"
           style="font-style:normal;font-variant:normal;font-weight:normal;font-stretch:normal;font-family:Lavi;-inkscape-font-specification:Lavi;text-align:center;text-anchor:middle" /></flowRegion><flowPara
         style="font-style:normal;font-variant:normal;font-weight:bold;font-stretch:normal;font-size:48px;font-family:BhashitaComplex;-inkscape-font-specification:'BhashitaComplex Bold';text-align:center;text-anchor:middle"
         id="flowPara3211-2">ඔව් ඔහේටයි කිව්වේ,</flowPara></flowRoot>    <path
       style="color:#000000;fill:#ffffff;fill-opacity:1;fill-rule:nonzero;stroke:none;stroke-width:1px;marker:none;visibility:visible;display:inline;overflow:visible;enable-background:accumulate"
       d="m 799.55794,2061.6662 c 41.54476,-24.9583 79.49671,-56.3087 125.21587,-73.8403 l -43.51369,-5.8567 c 12.70794,-14.5474 33.04403,-20.2182 50.79008,-28.9032 l -26.26055,-7.9369 c 30.43962,-33.9774 70.07719,-50.7411 105.26895,-75.8248 l -46.93148,-10.2988 c -32.40962,29.4099 -59.34882,63.5475 -97.91175,87.6396 l 24.81802,10.2865 c -12.06842,10.1205 -24.58698,19.7921 -39.1159,27.4588 l 32.36116,10.2326 z"
       id="path4032"
       inkscape:connector-curvature="0"
       sodipodi:nodetypes="cccccccccccc" />
    <path
       style="fill:#ffffff;fill-opacity:1;stroke:none"
       d="m 826.84882,2891.4377 c -28.78194,-7.5377 -39.86465,-14.545 -34.71629,-18.8632 -11.80514,-2.1519 -16.405,-58.2516 -5.37616,-68.5065 0.73408,-1.0795 5.88563,-4.3186 3.67174,-4.8569 -2.21377,-0.5384 -15.48178,1.0864 -17.7007,-1.0701 -2.21892,-2.1568 19.80671,-32.916 16.85382,-33.9935 -2.95312,-1.0772 -48.71563,-5.5682 -58.31677,-10.4185 -9.60132,-4.8501 -26.49188,7.7638 -29.44314,7.2257 3.4829,-15.6386 -30.22459,2.7124 -33.91331,2.1748 -3.68846,-0.5378 -10.37554,-16.7176 -14.06417,-17.2551 -3.68873,-0.5377 -20.62516,7.0228 -23.57642,6.485 -2.95127,-0.538 -1.51852,-14.0248 -5.20724,-14.5622 -3.68863,-0.5378 -19.87413,11.3381 -22.08801,10.7998 -2.21382,-0.5384 -10.40961,-27.5066 -14.10158,-29.123 -3.69205,-1.6164 -27.19067,29.683 -29.40124,30.2236 -2.21038,0.5405 -16.33721,-36.6741 -19.28858,-37.2122 -2.95125,-0.5379 -17.618,25.3629 -19.83194,24.8246 -2.21386,-0.5383 -16.27151,-15.6359 -19.22437,-16.7132 -2.95296,-1.0774 -22.01722,33.4563 -24.96671,33.4579 -2.94968,0 -28.06645,-14.551 -30.28714,-17.247 -2.22062,-2.6961 -4.38037,14.0277 -7.32996,14.0292 -2.9496,0 -36.8999,-9.6916 -37.63573,-9.1519 -0.73563,0.54 5.19559,10.7865 2.98343,10.7877 -2.21216,0 -36.91174,-13.468 -38.37824,-10.7699 -1.4662,2.6979 -75.25603,-13.4485 -80.41103,-11.2882 -5.155,2.1604 33.321,44.2177 29.6443,47.4562 -3.67687,3.2385 -16.96194,-0.5309 -17.69421,1.0877 -0.73226,1.6189 8.13835,8.6271 5.9331,10.786 -2.2056,2.1588 -27.24992,10.8026 -29.45355,13.5006 -2.20381,2.6986 11.09119,9.7046 8.14677,11.3245 -2.94462,1.6199 -46.41879,11.891 -47.14768,14.5886 -0.72889,2.6975 22.17066,15.6325 19.23298,19.4102 -2.93777,3.7775 -11.04403,5.3999 -10.29818,8.0968 0.74586,2.697 14.76648,5.9265 14.03749,8.6241 -0.72907,2.6977 -8.06071,16.1873 -10.26612,18.3463 -2.20543,2.1588 15.4886,1.071 15.49535,3.2288 0.006,2.1578 11.70776,15.6157 -28.19588,48.1438 61.30373,-25.1359 65.95135,-0.6915 90.29866,3.6118 24.34757,4.3035 14.84569,31.2803 18.53765,32.8968 3.69208,1.6166 30.9419,-9.186 34.64071,-5.4118 3.69872,3.7745 5.19539,10.7863 8.14507,10.7849 2.94942,0 27.41761,-11.0116 31.10613,-10.474 30.52071,-7.651 42.16312,16.7051 36.02852,20.6899 5.16335,0.5368 25.04255,-9.1831 29.46527,-9.7248 4.42267,-0.5416 8.15173,12.9425 11.83536,11.8619 3.68363,-1.0805 27.24974,-10.8025 30.93993,-9.7254 3.69039,1.0771 6.65347,5.3911 9.59977,4.3106 2.94601,-1.0802 16.20569,-5.4024 16.20569,-5.4024 0,0 9.59619,3.2318 14.02054,3.2296 4.42432,0 21.06027,-13.6781 24.74388,-14.7589 3.6836,-1.0806 37.77994,4.7492 53.63303,38.0068 -8.97279,-39.2039 26.27189,-42.72 31.4286,-44.341 5.15662,-1.6209 20.65716,3.2263 22.12668,1.6072 1.46979,-1.6191 5.86712,-10.2522 10.28989,-10.7939 4.42267,-0.5417 14.73933,-2.7044 14.73933,-2.7044 l -1.4848,-3.2361 c 0,0 30.99734,8.6156 34.69448,11.8504 3.69703,3.2348 -2.2561,-14.0242 -4.48178,-18.3388 13.28642,4.3091 52.39697,13.46 55.35488,16.1557 2.95804,2.6958 -5.19192,-9.7075 -9.62817,-13.4814 5.90416,1.6156 11.06761,2.1525 11.06761,2.1525 l -17.0005,-12.9382 5.15844,-1.0815 c 0,0 -11.07941,-5.9285 -11.08788,-8.6258 -0.008,-2.697 28.7396,-5.9482 28.7396,-5.9482 0,0 -11.81349,-4.8491 -8.87239,-7.5476 2.94134,-2.6988 10.3101,-4.3207 10.3101,-4.3207 l 1.45281,-7.0135 z"
       id="path5888"
       inkscape:connector-curvature="0"
       sodipodi:nodetypes="ccccccccccsccccsccccccsccsccscsccccscccscccccscccccsccccscccccccccccc" />
    <path
       style="fill:#ffffff;fill-opacity:1;stroke:none"
       d="m 1797.6547,3221.0213 c 65.6139,10.0559 43.5411,-29.1424 39.3615,-34.0012 15.9801,8.1536 43.2078,-0.8175 14.8856,-29.198 40.2409,11.3918 20.5428,6.02 -2.8713,-24.5295 35.4451,15.5342 57.7968,5.7083 32.6194,-15.8279 36.1652,27.6918 48.9096,18.8512 25.8439,-15.5352 45.4797,35.6171 36.9692,22.2031 25.8861,4.6146 37.8746,32.1026 9.7278,-15.6704 12.6238,-15.929 2.896,-0.2589 15.1504,8.408 17.4788,8.095 2.3282,-0.3129 2.6278,-13.6711 5.5239,-13.9298 2.896,-0.2589 14.1232,12.5937 15.8839,12.2266 6.8305,4.5107 14.0232,-23.2422 13.8868,-27.5889 -2.9115,3.7697 13.7655,34.6638 19.4946,31.8484 1.6457,0.6925 21.0383,-35.5723 18.7221,-35.1591 -4.3199,0.7704 8.7544,26.5651 12.688,25.8438 3.1279,4.7786 16.0456,-7.0605 16.5407,-15.0197 -1.2167,2.2521 9.5196,37.8823 15.7437,34.7029 2.8093,6.6828 23.5928,-6.6134 25.114,-14.7361 1.9903,-2.4872 1.9139,14.105 4.1847,14.3219 -4.007,8.1765 25.2031,-1.4809 29.9303,-6.244 0.5104,0.5843 -2.8178,8.6896 -3.419,10.3829 -3.2403,9.1256 23.4647,0.9885 30.6702,-7.7798 -27.7889,43.7563 53.327,0.8958 63.0884,-5.2187 3.7445,2.4998 -30.2553,41.0184 -27.7612,44.4695 2.4943,3.4512 13.1156,0.7174 13.5109,2.3624 0.3954,1.6442 -7.1636,7.8833 -5.6903,10.1659 1.4737,2.2825 19.8581,12.6063 21.2743,15.4187 1.4162,2.8128 -9.5494,8.7264 -7.4506,10.5334 2.0988,1.807 34.5042,15.0762 34.7848,17.7802 0.2808,2.7041 -18.6966,13.7426 -16.8274,17.6694 1.8691,3.9269 7.9418,6.1133 7.0871,8.7091 -0.8548,2.5957 -11.9862,4.7452 -11.7055,7.4494 0.2808,2.7042 4.5228,16.4961 5.9964,18.7785 1.4736,2.2828 -12.0371,-0.079 -12.2666,2.0412 -0.2348,2.1195 -36.3286,9.709 19.6005,49.5612 -60.7461,-25.4505 -53.6067,-5.6882 -72.8011,-3.238 -19.1946,2.4504 -14.6843,29.6546 -17.6951,30.9735 -3.0108,1.3187 -22.8688,-11.2875 -26.1094,-7.8488 -3.2406,3.4387 -5.1222,10.2202 -7.3934,10.0032 -2.2707,-0.2155 -19.9653,-12.824 -22.8612,-12.5653 -22.7044,-9.7479 -34.2019,13.336 -29.8929,17.7 -4.0315,0.1504 -18.3271,-10.8537 -21.6761,-11.709 -3.349,-0.8554 -7.6228,12.1231 -10.3466,10.7921 -2.7239,-1.331 -19.858,-12.6064 -22.8113,-11.8174 -2.9537,0.7888 -5.6838,4.8119 -7.8399,3.5346 -2.1561,-1.2766 -11.9161,-6.4927 -11.9161,-6.4927 0,0 -7.725,2.475 -11.1313,2.1496 -3.4066,-0.3232 -24.789,-20.0382 -27.5127,-21.3694 -2.724,-1.3311 -50.4111,26.3975 -49.0523,29.7402 1.3588,3.3428 -1.9865,-35.151 -5.7884,-37.1206 -3.8018,-1.9696 -16.241,1.6615 -17.204,-0.037 -0.9634,-1.6984 -3.4513,-10.5033 -6.8003,-11.3588 -3.3491,-0.8554 -11.0676,-3.7344 -11.0676,-3.7344 l 1.4799,-3.0717 c 0,0 -24.7633,6.2022 -27.9464,9.111 -3.1832,2.9086 3.1958,-13.6169 5.3584,-17.6943 -10.6784,3.2641 -41.7444,9.3995 -44.3021,11.8325 -2.5581,2.4329 5.0071,-9.1603 8.8155,-12.5448 -4.714,1.1563 -8.7456,1.3067 -8.7456,1.3067 l 14.4356,-11.4724 -3.8595,-1.4395 c 0,0 9.1476,-5.0166 9.4345,-7.6666 0.2907,-2.6494 -21.5099,-7.9447 -21.5099,-7.9447 66.6123,1.4697 18.3026,-18.0658 -7.6932,-24.2961 z"
       id="path5888-2"
       inkscape:connector-curvature="0"
       sodipodi:nodetypes="ccccccccsccccsccccccsccsccscsccccscccscccccscccccsccccsccccccccc" />
    <path
       style="color:#000000;fill:#ffffff;fill-opacity:1;fill-rule:nonzero;stroke:none;stroke-width:1px;marker:none;visibility:visible;display:inline;overflow:visible;enable-background:accumulate"
       d="m 1949.2127,3186.2754 c -39.3897,38.4564 -118.4251,55.0326 -170.6211,-13.769 -46.1636,-0.3962 -81.2149,-5.1531 -119.4658,-62.8545 37.6962,38.0583 63.3903,55.3293 131.4185,51.4723 32.2972,32.3957 87.7359,29.3893 125.5394,-24.8478 37.8036,-54.2372 22.7273,-42.2473 22.7273,-42.2473 l 22.0999,76.6516 z"
       id="path5074-3"
       inkscape:connector-curvature="0"
       sodipodi:nodetypes="ccccsccc" />
    <path
       style="color:#000000;fill:#ffffff;fill-opacity:1;fill-rule:nonzero;stroke:none;stroke-width:1px;marker:none;visibility:visible;display:inline;overflow:visible;enable-background:accumulate"
       d="m 432.9877,1582.757 c -4.62527,14.1556 -29.80658,59.4538 -38.06244,16.2093 -42.3877,66.8706 -90.94164,55.4388 -139.14497,48.4577 -9.52731,19.5362 -7.09875,46.1647 -46.96241,47.7053 7.95498,15.9183 -3.45476,30.2003 -32.14335,43.0229 40.98017,2.4517 49.77676,11.6093 -21.84737,37.5242 55.93525,-9.943 108.31222,-17.9855 48.57741,33.848 20.66662,-3.1249 64.61473,-45.2102 55.82445,54.2176 30.8443,-37.3814 66.03449,-61.6079 122.59982,-7.3014 10.83096,-28.0111 30.03942,-49.2804 76.82521,-23.2543 5.27288,-26.7184 55.3579,-38.7619 74.64488,-37.3629 -41.4714,-20.5081 -42.72921,-38.0996 7.62637,-50.843 -92.48457,-33.4472 -21.82215,-39.6374 -9.97409,-55.1095 -69.36813,-4.1008 -42.62685,-31.5667 -33.87821,-55.3999 -76.91874,14.4742 -56.82784,-24.9365 -64.0853,-51.714 z"
       id="path3549-3"
       inkscape:connector-curvature="0"
       sodipodi:nodetypes="ccccccccccccccc" />
    <flowRoot
       transform="matrix(1.8217115,0,-0.17700578,1.8738433,-535.05413,1190.8474)"
       style="font-style:normal;font-variant:normal;font-weight:normal;font-stretch:normal;font-size:12px;line-height:125%;font-family:Lavi;-inkscape-font-specification:Lavi;text-align:center;letter-spacing:0px;word-spacing:0px;text-anchor:middle;fill:#000000;fill-opacity:1;stroke:#000000;stroke-width:2.71217394;stroke-miterlimit:4;stroke-dasharray:none;stroke-opacity:1"
       id="flowRoot4212-3-7-8-6-5"
       xml:space="preserve"><flowRegion
         id="flowRegion4214-6-7-8-3-6"><rect
           style="font-style:normal;font-variant:normal;font-weight:normal;font-stretch:normal;font-family:Lavi;-inkscape-font-specification:Lavi;text-align:center;text-anchor:middle;stroke:#000000;stroke-width:2.71217394;stroke-miterlimit:4;stroke-dasharray:none;stroke-opacity:1"
           y="265.53046"
           x="120.55251"
           height="355.03918"
           width="798.1947"
           id="rect4216-4-0-26-5-2" /></flowRegion><flowPara
         style="font-size:48px;text-align:center;letter-spacing:1.45219982px;text-anchor:middle;stroke:#000000;stroke-width:2.71217394;stroke-miterlimit:4;stroke-dasharray:none;stroke-opacity:1;-inkscape-font-specification:'BhashitaComplex Bold';font-family:BhashitaComplex;font-weight:bold;font-style:normal;font-stretch:normal;font-variant:normal"
         id="flowPara4358-7-1-6">ඒයි!</flowPara></flowRoot>    <flowRoot
       xml:space="preserve"
       id="flowRoot4133-6-9-4-8-5-3"
       style="color:#000000;font-style:normal;font-variant:normal;font-weight:normal;font-stretch:normal;font-size:12px;line-height:125%;font-family:Arial;-inkscape-font-specification:Arial;letter-spacing:0.00204969px;word-spacing:0px;display:inline;overflow:visible;visibility:visible;fill:#ffffff;fill-opacity:1;fill-rule:nonzero;stroke:#ffffff;stroke-width:0.0836072;stroke-linecap:butt;stroke-linejoin:miter;stroke-miterlimit:4;stroke-dasharray:none;stroke-dashoffset:0;stroke-opacity:1;marker:none;filter:url(#filter4375-4-1-1-15-1-3-3);enable-background:accumulate"
       transform="matrix(8.3099216,-5.4900388,-0.26452567,16.18078,-7093.1327,-9087.3999)"><flowRegion
         id="flowRegion4135-2-9-3-5-2-6"
         style="stroke-width:0.86646658"><rect
           id="rect4137-1-7-1-2-1-4"
           width="200.00224"
           height="39.051064"
           x="1125.3193"
           y="1078.5308"
           style="color:#000000;letter-spacing:0.00204969px;display:inline;overflow:visible;visibility:visible;fill:#ffffff;fill-opacity:1;fill-rule:nonzero;stroke:#ffffff;stroke-width:0.0836072;stroke-linecap:butt;stroke-linejoin:miter;stroke-miterlimit:4;stroke-dasharray:none;stroke-dashoffset:0;stroke-opacity:1;marker:none;filter:url(#filter4375-4-1-1-15-1-3-3);enable-background:accumulate" /></flowRegion><flowPara
         id="flowPara4139-2-8-6-8-6-3"
         style="color:#000000;font-style:normal;font-variant:normal;font-weight:bold;font-stretch:normal;font-size:17.85409164px;line-height:125%;font-family:BhashitaComplex;-inkscape-font-specification:'BhashitaComplex Bold';letter-spacing:0.00204969px;word-spacing:0.00204969px;display:inline;overflow:visible;visibility:visible;fill:#ffffff;fill-opacity:1;fill-rule:nonzero;stroke:#ffffff;stroke-width:0.0836072;stroke-linecap:butt;stroke-linejoin:miter;stroke-miterlimit:4;stroke-dasharray:none;stroke-dashoffset:0;stroke-opacity:1;marker:none;enable-background:accumulate">ච<flowSpan
   style="font-size:15.17392493px"
   id="flowSpan4271">රා</flowSpan><flowSpan
   style="font-size:13.00622137px"
   id="flowSpan4273">ස්</flowSpan><flowSpan
   style="font-size:10.83851781px"
   id="flowSpan4277">!</flowSpan></flowPara></flowRoot>    <text
       xml:space="preserve"
       style="font-style:normal;font-weight:normal;font-size:42.98613358px;line-height:125%;font-family:sans-serif;letter-spacing:0px;word-spacing:0px;fill:#000000;fill-opacity:1;stroke:none;stroke-width:1px;stroke-linecap:butt;stroke-linejoin:miter;stroke-opacity:1"
       x="924.45978"
       y="1543.546"
       id="text4255"
       sodipodi:linespacing="125%"
       transform="scale(0.84479438,1.18372)"><tspan
         sodipodi:role="line"
         id="tspan4257"
         x="924.45978"
         y="1543.546"
         style="font-style:normal;font-variant:normal;font-weight:bold;font-stretch:normal;font-size:53.73266983px;font-family:BhashitaComplex;-inkscape-font-specification:'BhashitaComplex Bold'">පත<tspan
   style="letter-spacing:-17.19445419px"
   id="tspan4259">-</tspan>පිල්ලි<tspan
   style="letter-spacing:-17.19445419px"
   id="tspan4261">-</tspan>ජේත්තුකාර<tspan
   style="letter-spacing:-17.19445419px"
   id="tspan4263">-</tspan>කැනරි කුරුල්ලා*!</tspan></text>
    <text
       xml:space="preserve"
       style="font-style:normal;font-weight:normal;font-size:40px;line-height:125%;font-family:sans-serif;letter-spacing:0px;word-spacing:0px;fill:#808080;fill-opacity:1;stroke:none;stroke-width:1px;stroke-linecap:butt;stroke-linejoin:miter;stroke-opacity:1"
       x="1347.2169"
       y="2753.8159"
       id="text4265"
       sodipodi:linespacing="125%"><tspan
         sodipodi:role="line"
         id="tspan4267"
         x="1347.2169"
         y="2753.8159"
         style="font-style:normal;font-variant:normal;font-weight:bold;font-stretch:normal;font-family:BhashitaComplex;-inkscape-font-specification:'BhashitaComplex Bold';fill:#808080">*කැනරි කුරුල්ලා: ලස්සන නාදයක් ඇති කුරුලු විශේෂයක්</tspan></text>
    <text
       xml:space="preserve"
       style="font-style:normal;font-weight:normal;font-size:40px;line-height:125%;font-family:sans-serif;letter-spacing:0px;word-spacing:0px;fill:#000000;fill-opacity:1;stroke:none;stroke-width:1px;stroke-linecap:butt;stroke-linejoin:miter;stroke-opacity:1"
       x="2060.3728"
       y="3209.75"
       id="text4290"
       sodipodi:linespacing="125%"><tspan
         sodipodi:role="line"
         id="tspan4292"
         x="2078.2439"
         y="3209.75"
         style="font-style:normal;font-variant:normal;font-weight:bold;font-stretch:normal;font-size:50px;font-family:BhashitaComplex;-inkscape-font-specification:'BhashitaComplex Bold';text-align:center;text-anchor:middle">ඕනෙම නැද්ද, </tspan><tspan
         sodipodi:role="line"
         x="2054.3728"
         y="3272.25"
         style="font-style:normal;font-variant:normal;font-weight:bold;font-stretch:normal;font-size:50px;font-family:BhashitaComplex;-inkscape-font-specification:'BhashitaComplex Bold';text-align:center;text-anchor:middle;letter-spacing:0px"
         id="tspan4294">ආ<tspan
   style="letter-spacing:-12px"
   id="tspan4286">...?</tspan></tspan></text>
    <text
       xml:space="preserve"
       style="font-style:normal;font-weight:normal;font-size:40px;line-height:116.99999571%;font-family:sans-serif;letter-spacing:0px;word-spacing:0px;fill:#000000;fill-opacity:1;stroke:none;stroke-width:1px;stroke-linecap:butt;stroke-linejoin:miter;stroke-opacity:1"
       x="548.79883"
       y="2818.75"
       id="text4298"
       sodipodi:linespacing="117%"><tspan
         sodipodi:role="line"
         id="tspan4300"
         x="566.66992"
         y="2818.75"
         style="font-style:normal;font-variant:normal;font-weight:bold;font-stretch:normal;font-size:50px;line-height:116.99999571%;font-family:BhashitaComplex;-inkscape-font-specification:'BhashitaComplex Bold';text-align:center;text-anchor:middle">තව එක සැරයක් </tspan><tspan
         sodipodi:role="line"
         x="566.66992"
         y="2877.25"
         style="font-style:normal;font-variant:normal;font-weight:bold;font-stretch:normal;font-size:50px;line-height:116.99999571%;font-family:BhashitaComplex;-inkscape-font-specification:'BhashitaComplex Bold';text-align:center;text-anchor:middle"
         id="tspan4304">මායාවඩියක් අරන් </tspan><tspan
         sodipodi:role="line"
         x="548.79883"
         y="2935.75"
         style="font-style:normal;font-variant:normal;font-weight:bold;font-stretch:normal;font-size:50px;line-height:116.99999571%;font-family:BhashitaComplex;-inkscape-font-specification:'BhashitaComplex Bold';text-align:center;text-anchor:middle"
         id="tspan4307">බලමුද<tspan
   style="line-height:116.99999571%;text-align:center;letter-spacing:-12px;text-anchor:middle"
   id="tspan4302">?..</tspan>.</tspan></text>
  </g>
</svg>
