<?xml version="1.0" encoding="UTF-8" standalone="no"?>
<!-- Created with Inkscape (http://www.inkscape.org/) -->

<svg
   xmlns:dc="http://purl.org/dc/elements/1.1/"
   xmlns:cc="http://creativecommons.org/ns#"
   xmlns:rdf="http://www.w3.org/1999/02/22-rdf-syntax-ns#"
   xmlns:svg="http://www.w3.org/2000/svg"
   xmlns="http://www.w3.org/2000/svg"
   xmlns:xlink="http://www.w3.org/1999/xlink"
   xmlns:sodipodi="http://sodipodi.sourceforge.net/DTD/sodipodi-0.dtd"
   xmlns:inkscape="http://www.inkscape.org/namespaces/inkscape"
   id="svg2"
   version="1.1"
   inkscape:version="0.91 r13725"
   width="2481"
   height="3503"
   sodipodi:docname="Pepper-and-Carrot_by-David-Revoy_E06P01.svg">
  <metadata
     id="metadata8">
    <rdf:RDF>
      <cc:Work
         rdf:about="">
        <dc:format>image/svg+xml</dc:format>
        <dc:type
           rdf:resource="http://purl.org/dc/dcmitype/StillImage" />
        <dc:title />
      </cc:Work>
    </rdf:RDF>
  </metadata>
  <defs
     id="defs6" />
  <sodipodi:namedview
     pagecolor="#ffffff"
     bordercolor="#666666"
     borderopacity="1"
     objecttolerance="10"
     gridtolerance="10"
     guidetolerance="10"
     inkscape:pageopacity="0"
     inkscape:pageshadow="2"
     inkscape:window-width="1366"
     inkscape:window-height="716"
     id="namedview4"
     showgrid="false"
     inkscape:zoom="0.2459502"
     inkscape:cx="953.11729"
     inkscape:cy="1717.2792"
     inkscape:window-x="-8"
     inkscape:window-y="-8"
     inkscape:window-maximized="1"
     inkscape:current-layer="layer3" />
  <g
     inkscape:groupmode="layer"
     id="layer2"
     inkscape:label="artwork"
     sodipodi:insensitive="true">
    <image
       sodipodi:absref="C:\Users\Home\Desktop\Trans\peppercarrot_ep06_translation-master\vi\..\gfx_Pepper-and-Carrot_by-David-Revoy_E06P01.png"
       xlink:href="../gfx_Pepper-and-Carrot_by-David-Revoy_E06P01.png"
       width="2481"
       height="3503"
       id="image10"
       x="0"
       y="0" />
  </g>
  <g
     inkscape:groupmode="layer"
     id="layer3"
     inkscape:label="speechbubbles">
    <path
       style="fill:#ffffff;stroke:none"
       d="m 1065.0584,2991.5882 c 139.0204,-151.8259 352.2724,-147.4644 534.1995,-135.0446 l -2.4584,29.6919 c -271.0832,-44.1257 -427.9056,20.1405 -531.7411,105.3527 z"
       id="path4208"
       inkscape:connector-curvature="0"
       sodipodi:nodetypes="cccc" />
    <path
       style="fill:#ffffff;stroke:none"
       d="m 848.69618,2327.5469 c 11.92344,-57.0082 80.05736,-226.7656 764.80332,-144.4206 25.5503,5.0674 32.3637,24.0701 32.3637,24.0701 l -11.9235,7.6011 c 0,0 -669.41585,-141.8868 -785.24352,112.7494 z"
       id="path4184"
       inkscape:connector-curvature="0" />
    <path
       style="fill:#ffffff;stroke:none"
       d="m 111.4082,929.9846 c 1.09537,-30.35787 23.32018,-26.21189 42.8645,-26.44314 18.99692,-4.56828 17.68618,-25.41604 68.26566,-4.66645 18.94123,-5.86223 25.94843,-21.95565 68.26567,-7.77738 16.40493,-6.23852 32.80986,-9.27592 49.21479,3.11096 28.50121,-1.61682 32.55235,-23.19676 95.25443,3.11095 27.91097,-12.64516 43.54725,-6.04785 55.56508,6.22192 14.41309,-4.05434 27.16746,-16.23476 47.6272,9.33287 24.58124,-1.15666 42.22048,7.209 50.80237,27.9986 5.35248,8.95055 20.09629,6.85937 11.11302,32.66489 35.90492,31.00508 18.753,46.01548 15.87573,65.32948 -0.74151,14.6065 -2.67808,28.8784 -25.40117,37.3313 6.74275,20.996 -7.29616,28.4179 -19.05089,37.3316 -10.57142,16.1462 -24.42383,13.0046 -38.10178,10.8884 -26.98875,33.3396 -53.9775,25.7934 -80.96625,26.4432 -12.34128,11.0165 -22.60457,7.781 -31.75148,-3.1112 -40.1387,19.5282 -52.28902,3.7987 -71.44082,-3.1108 -40.32831,31.264 -60.33165,14.7341 -85.72897,10.8884 -17.9867,5.658 -35.94308,11.0781 -50.80236,-7.7776 -44.01943,10.0059 -42.69127,-8.2623 -53.97753,-18.6657 -19.72051,14.3205 -29.24354,5.3277 -39.68933,-1.5553 -27.446021,-6.7492 -14.3092,-18.4689 -19.05088,-27.9987 -21.739695,-21.2581 -21.35633,-42.5165 -7.93787,-63.7746 -10.063415,-11.2638 -25.313306,-21.6039 -1.587598,-38.88703 -9.788112,-15.10062 -21.191295,-30.06977 6.35031,-48.21894 -3.088645,-11.99138 4.733428,-15.96518 14.288168,-18.66573 z"
       id="path4086"
       inkscape:connector-curvature="0"
       sodipodi:nodetypes="cccccccccccccccccccccccccc" />
    <path
       style="fill:#ffffff;stroke:none;stroke-width:1px;stroke-linecap:butt;stroke-linejoin:miter;stroke-opacity:1"
       d="m 230.13067,823.60392 c -9.53903,-20.56429 -0.23424,-22.81511 10.00568,-26.42602 11.63357,-13.55921 16.74734,-4.29914 22.87013,1.42938 15.03339,7.03416 19.43438,18.62507 14.29383,34.3052 -2.64407,15.25927 -13.01754,16.99209 -27.15828,12.13219 -15.35344,0.0889 -21.95096,-7.11879 -20.01136,-21.44075 z"
       id="path4088"
       inkscape:connector-curvature="0"
       sodipodi:nodetypes="cccccc" />
    <path
       style="fill:#ffffff;stroke:none;stroke-width:1px;stroke-linecap:butt;stroke-linejoin:miter;stroke-opacity:1"
       d="m 275.87093,761.44332 c -5.09277,-10.88445 3.68029,-14.83599 15.72321,-17.15259 19.65656,11.35504 12.8163,22.10199 7.14692,32.87581 -12.0433,1.8308 -24.81763,4.83126 -22.87013,-15.72322 z"
       id="path4090"
       inkscape:connector-curvature="0"
       sodipodi:nodetypes="cccc" />
    <path
       style="fill:#ffffff;stroke:none;stroke-width:0.95018345px;stroke-linecap:butt;stroke-linejoin:miter;stroke-opacity:1"
       d="m 366.32635,1285.1069 c -10.84256,0.3666 -21.06669,4.5827 -29.20913,10.5994 -12.71056,-2.8214 -29.10494,-7.3606 -40.0438,1.3452 -4.62483,4.4874 -8.48245,12.781 -17.15677,10.5462 -14.39343,-0.1289 -32.88024,2.2389 -38.47536,15.5365 -2.61214,5.148 -1.79739,13.3678 -9.82438,14.8216 -10.56638,3.9804 -18.31798,15.5104 -12.15859,24.9428 2.19836,2.7177 2.79711,6.4309 -0.41589,8.69 -6.44304,9.0042 -1.25511,20.5294 7.5128,26.8418 2.61652,2.913 -1.80671,6.5378 0.26006,9.8187 2.05805,7.666 11.55137,9.9586 19.29672,10.7737 0.62046,3.9414 1.9392,8.4715 5.76118,11.3083 7.33903,6.3536 18.36778,6.7648 27.99181,7.0052 8.19442,3.242 14.19151,9.826 23.24401,11.5856 15.57951,3.935 31.6656,-2.5811 44.51298,-9.2563 4.9656,7.3888 11.42919,14.9889 21.63125,17.2427 8.57731,2.5803 17.73979,0.8391 26.23895,-0.2795 21.36432,2.5745 44.65242,12.5101 65.6146,3.4253 7.60523,-3.2097 13.94926,-8.2574 19.23287,-13.8476 8.38581,6.0003 21.91262,9.7096 30.78592,2.6824 2.4345,-2.3078 4.75284,-6.7402 9.14908,-4.0871 20.26598,5.1074 42.74504,13.1153 63.59865,5.1673 9.82178,-2.7211 18.33463,-8.9567 26.67282,-13.1096 13.58007,4.9442 31.66841,6.2435 42.53639,-3.8388 3.96383,-2.2921 5.15161,-9.5075 11.03425,-7.8035 13.75037,1.4124 28.81611,-4.4207 33.64575,-16.0384 2.07924,-5.0367 2.49911,-11.2255 8.7831,-13.8726 9.5665,-6.7054 14.88155,-18.8296 9.11436,-28.9252 -3.47192,-6.4773 -8.08809,-12.6897 -7.52394,-20.1067 -2.02738,-12.5144 -15.39208,-21.094 -29.34393,-22.2997 -5.91792,-1.3042 -14.03726,0.3663 -16.85496,-5.4809 -16.18059,-17.3848 -44.45866,-22.4569 -68.97585,-17.9359 -4.85088,1.1409 -6.76631,-4.439 -10.97725,-5.6983 -10.02852,-6.1682 -23.7913,-5.5104 -33.5242,0.6853 -4.46289,4.0899 -8.52199,-2.0454 -13.39616,-2.6857 -18.07815,-5.4272 -40.72596,-4.1513 -55.11522,7.7206 -14.77438,-14.8138 -39.946,-19.3263 -61.06143,-13.2846 -6.41587,0.9123 -12.57641,4.3214 -18.67835,4.7201 -10.61922,-4.1456 -22.08792,-7.4536 -33.88231,-6.9089 z"
       id="path4094"
       inkscape:connector-curvature="0" />
    <path
       style="fill:#ffffff;stroke:none"
       d="m 254.84178,1217.9014 c -21.93594,-5.4808 -17.74008,-13.6811 -13.99678,-23.3941 -3.03862,-16.7769 7.36071,-14.91 15.68046,-15.9283 15.0063,-6.7699 26.74841,-2.9642 35.56127,10.332 10.07962,11.2071 4.80314,19.8776 -7.9578,27.312 -9.7183,11.33 -19.48107,11.7989 -29.28715,1.6784 z"
       id="path4088-4"
       inkscape:connector-curvature="0"
       sodipodi:nodetypes="cccccc" />
    <path
       style="fill:#ffffff;stroke:none"
       d="m 281.23738,1261.3662 c -1.6722,-15.5601 8.1265,-14.7295 15.31815,-17.624 8.5716,-3.7924 14.70548,-2.0987 17.90033,6.2094 9.77538,3.2771 13.75133,9.4545 10.08794,19.4525 -3.52546,10.5347 -12.20688,9.4657 -20.99121,8.1652 -4.6338,4.2774 -9.42027,7.1804 -15.37947,-0.4737 -11.84717,-2.3085 -12.53472,-8.0516 -6.93574,-15.7294 z"
       id="path4119"
       inkscape:connector-curvature="0"
       sodipodi:nodetypes="ccccccc" />
    <path
       style="fill:#ffffff;stroke:none;stroke-width:0.91189969px;stroke-linecap:butt;stroke-linejoin:miter;stroke-opacity:1"
       d="m 287.38495,1664.7761 c -3.06848,-25.3567 10.89336,-34.1961 32.57758,-35.5456 12.24161,-15.7739 21.56718,-34.3759 63.79779,-21.0641 29.54294,-27.1399 60.70716,-21.2587 92.30318,-6.5826 51.77848,-33.8285 64.40577,-12.8665 89.58837,-5.2661 60.65255,-26.6475 68.03346,6.9827 95.01797,18.4312 46.13567,-28.5284 75.32973,-9.589 103.16237,13.165 15.81399,0.023 25.82666,6.2999 23.07579,26.3302 24.4607,9.1375 37.06922,24.8437 32.5776,50.027 21.25415,33.6513 4.45032,43.3102 -14.9314,51.3438 18.65505,29.459 7.99647,52.357 -27.148,69.7748 -4.65978,21.3448 -20.9276,24.3949 -42.07938,19.7476 -9.68198,18.9923 -26.01456,30.046 -62.44039,17.1145 -26.39592,20.898 -54.98138,20.5601 -85.51617,1.3166 -12.04049,22.2693 -33.2214,24.2759 -59.7256,14.4814 -36.36766,12.208 -51.38922,0.5278 -61.08298,-17.1145 -23.26553,11.6078 -46.64603,21.2088 -71.94216,-2.633 -29.41834,6.4637 -37.39994,-4.8933 -38.00719,-22.3806 -23.09034,15.3969 -38.16874,10.0722 -48.86638,-6.5827 -16.96092,-0.4081 -36.23127,2.4417 -31.2202,-28.9629 -24.61529,-5.635 -38.93196,-16.5271 -24.4332,-42.1283 -7.64993,-15.5587 -20.04424,-30.6063 8.14441,-50.0271 -5.17362,-28.276 7.60665,-39.139 27.14799,-43.4446 z"
       id="path4121"
       inkscape:connector-curvature="0"
       sodipodi:nodetypes="ccccccccccccccccccccccc" />
    <path
       style="fill:#ffffff;stroke:none"
       d="m 426.16799,1495.7228 c -1.6722,-15.5601 8.1265,-14.7295 15.31815,-17.624 8.5716,-3.7924 14.70548,-2.0987 17.90033,6.2094 9.77538,3.2771 13.75133,9.4545 10.08794,19.4525 -3.52546,10.5347 -12.20688,9.4657 -20.99121,8.1652 -4.6338,4.2774 -9.42027,7.1804 -15.37947,-0.4737 -11.84717,-2.3085 -12.53472,-8.0516 -6.93574,-15.7294 z"
       id="path4119-8"
       inkscape:connector-curvature="0"
       sodipodi:nodetypes="ccccccc" />
    <path
       style="fill:#ffffff;stroke:none"
       d="m 473.63058,1564.8263 c -15.87888,-16.1637 -4.1024,-20.2143 1.38885,-27.0178 6.23672,-8.4833 14.66459,-9.736 25.73404,-2.2704 13.95095,-1.3644 23.98299,3.3767 28.85294,16.1601 5.508,13.3003 -5.22536,16.5249 -16.2828,19.5483 -1.36816,7.0209 -4.14446,12.6166 -17.73722,7.265 -15.41163,3.4716 -21.35155,-2.4587 -21.95581,-13.6852 z"
       id="path4119-7"
       inkscape:connector-curvature="0"
       sodipodi:nodetypes="ccccccc" />
    <path
       style="fill:#ffffff;stroke:none"
       d="m 841.62073,2156.8344 c 22.25175,-26.8114 179.17317,-26.7384 212.04897,-4.2782 32.8758,22.4602 29.6785,56.8909 6.1025,81.6803 -16.6155,17.4708 -186.91945,22.0647 -213.22009,2.813 -26.30065,-19.2516 -27.18313,-53.4038 -4.93138,-80.2151 z"
       id="path4160"
       inkscape:connector-curvature="0"
       sodipodi:nodetypes="zsssz" />
    <path
       style="fill:#ffffff;stroke:none;stroke-width:1px;stroke-linecap:butt;stroke-linejoin:miter;stroke-opacity:1"
       d="m 1145.6566,2114.824 c 25.7948,-33.9112 274.6902,-24.8589 303.2779,13.6723 28.5876,38.5312 14.9152,109.3789 -18.6442,123.0512 -33.5594,13.6724 -242.3737,16.1583 -270.9613,-1.2429 -28.4889,-17.341 -39.4672,-101.5694 -13.6724,-135.4806 z"
       id="path4162"
       inkscape:connector-curvature="0"
       sodipodi:nodetypes="zsssz" />
    <path
       style="fill:#ffffff;stroke:none"
       d="m 1601.1936,2116.1977 c 57.3731,-41.8436 343.8267,-10.8705 388.8361,31.5018 45.0094,42.3721 42.6198,144.0089 7.2977,170.8987 -35.3224,26.8894 -355.2649,25.4438 -410.751,-12.3806 -39.9716,-27.2478 -42.7559,-148.1762 14.6172,-190.0199 z"
       id="path4164"
       inkscape:connector-curvature="0"
       sodipodi:nodetypes="zsssz" />
    <path
       style="fill:#ffffff;stroke:none"
       d="m 1201.5647,2821.5119 c 19.9792,-14.0231 53.2637,-19.8752 84.4282,-20.4786 31.1644,-0.6033 75.5507,3.6735 98.5103,19.8549 22.9596,16.1816 40.8445,30.4369 35.6632,57.6458 -5.1811,27.2089 -41.6424,46.1053 -77.5724,55.5628 -35.93,9.4574 -98.3145,0.4916 -127.5903,-14.1459 -29.2756,-14.6376 -44.9862,-27.5393 -46.7873,-49.0378 -1.8011,-21.4982 13.3692,-35.3782 33.3483,-49.4012 z"
       id="path4204"
       inkscape:connector-curvature="0"
       sodipodi:nodetypes="zzzzzzzz" />
    <path
       style="fill:#ffffff;stroke:none;stroke-width:0.96692985px;stroke-linecap:butt;stroke-linejoin:miter;stroke-opacity:1"
       d="m 1541.806,2890.0448 c 0.7082,-23.169 0.5872,-63.8339 26.9518,-84.6654 26.3647,-20.8316 68.1481,-11.8137 111.9535,-11.8137 43.8054,0 115.5687,-6.3369 149.2713,15.7515 33.7026,22.0886 43.3777,49.4678 43.5375,80.7276 0.1598,31.2597 -20.2492,66.1656 -45.6106,86.6343 -25.3615,20.4688 -63.636,22.5624 -93.2947,27.5654 -29.6587,5.0031 -50.3143,13.3521 -82.9284,3.938 -32.614,-9.4142 -81.3998,-45.8187 -97.441,-68.9138 -16.0413,-23.0951 -13.1475,-26.055 -12.4394,-49.2239 z"
       id="path4206"
       inkscape:connector-curvature="0"
       sodipodi:nodetypes="zzzzzzzzzz" />
  </g>
  <g
     inkscape:groupmode="layer"
     id="layer1"
     inkscape:label="txt"
     style="display:inline">
    <flowRoot
       xml:space="preserve"
       id="flowRoot2987"
       style="font-style:normal;font-variant:normal;font-weight:normal;font-stretch:normal;font-size:12px;line-height:125%;font-family:Lavi;-inkscape-font-specification:Lavi;letter-spacing:0px;word-spacing:0px;fill:#000000;fill-opacity:1;stroke:none"
       transform="matrix(0.95842652,0,0,0.92639044,-38.977582,700.76497)"><flowRegion
         id="flowRegion2989"><rect
           id="rect2991"
           width="525.65155"
           height="245.01311"
           x="138.55077"
           y="262.427"
           style="font-style:normal;font-variant:normal;font-weight:normal;font-stretch:normal;font-family:Lavi;-inkscape-font-specification:Lavi" /></flowRegion><flowPara
         style="font-size:48px;text-align:center;text-anchor:middle;-inkscape-font-specification:'Rounded M+ 1c Medium';font-family:'Rounded M+ 1c';font-weight:500;font-style:normal;font-stretch:normal;font-variant:normal"
         id="flowPara4426">Ôi không, Mình lại</flowPara><flowPara
         style="font-size:48px;text-align:center;text-anchor:middle;-inkscape-font-specification:'Rounded M+ 1c Medium';font-family:'Rounded M+ 1c';font-weight:500;font-style:normal;font-stretch:normal;font-variant:normal"
         id="flowPara4213">ngủ với cửa sổ</flowPara><flowPara
         style="font-size:48px;text-align:center;text-anchor:middle;-inkscape-font-specification:'Rounded M+ 1c Medium';font-family:'Rounded M+ 1c';font-weight:500;font-style:normal;font-stretch:normal;font-variant:normal"
         id="flowPara4215">mở rồi..</flowPara></flowRoot>    <flowRoot
       xml:space="preserve"
       id="flowRoot2987-6"
       style="font-style:normal;font-variant:normal;font-weight:500;font-stretch:normal;font-size:12px;line-height:125%;font-family:'Rounded M+ 1c';-inkscape-font-specification:'Rounded M+ 1c Medium';letter-spacing:0px;word-spacing:0px;fill:#000000;fill-opacity:1;stroke:none"
       transform="matrix(0.95842652,0,0,0.92639044,71.599691,1097.0088)"><flowRegion
         id="flowRegion2989-7"><rect
           id="rect2991-2"
           width="575.88983"
           height="77.244507"
           x="120.55251"
           y="265.53046"
           style="font-style:normal;font-variant:normal;font-weight:500;font-stretch:normal;font-family:'Rounded M+ 1c';-inkscape-font-specification:'Rounded M+ 1c Medium'" /></flowRegion><flowPara
         style="font-style:normal;font-variant:normal;font-weight:500;font-stretch:normal;font-size:48px;font-family:'Rounded M+ 1c';-inkscape-font-specification:'Rounded M+ 1c Medium';text-align:center;text-anchor:middle"
         id="flowPara3023-5">... gió thổi nhiều quá...</flowPara></flowRoot>    <flowRoot
       xml:space="preserve"
       id="flowRoot2987-6-5"
       style="font-style:normal;font-variant:normal;font-weight:normal;font-stretch:normal;font-size:12px;line-height:125%;font-family:Lavi;-inkscape-font-specification:Lavi;letter-spacing:0px;word-spacing:0px;fill:#000000;fill-opacity:1;stroke:none"
       transform="matrix(0.95842652,0,0,0.92639044,152.05586,1413.25)"><flowRegion
         id="flowRegion2989-7-8"><rect
           id="rect2991-2-1"
           width="570.64728"
           height="189.15115"
           x="120.55251"
           y="265.53046"
           style="font-style:normal;font-variant:normal;font-weight:normal;font-stretch:normal;font-family:Lavi;-inkscape-font-specification:Lavi" /></flowRegion><flowPara
         style="font-style:normal;font-variant:normal;font-weight:500;font-stretch:normal;font-size:48px;font-family:'Rounded M+ 1c';-inkscape-font-specification:'Rounded M+ 1c Medium';text-align:center;text-anchor:middle"
         id="flowPara4229">... và tại sao Komona lại xuất hiện trước </flowPara><flowPara
         style="font-style:normal;font-variant:normal;font-weight:500;font-stretch:normal;font-size:48px;font-family:'Rounded M+ 1c';-inkscape-font-specification:'Rounded M+ 1c Medium';text-align:center;text-anchor:middle"
         id="flowPara4235">cửa sổ vậy nhỉ?</flowPara></flowRoot>    <flowRoot
       xml:space="preserve"
       id="flowRoot2987-6-5-6"
       style="font-style:normal;font-variant:normal;font-weight:normal;font-stretch:normal;font-size:12px;line-height:125%;font-family:Lavi;-inkscape-font-specification:Lavi;letter-spacing:0px;word-spacing:0px;fill:#000000;fill-opacity:1;stroke:#000000;stroke-width:1.84872246;stroke-miterlimit:4;stroke-dasharray:none;stroke-opacity:1"
       transform="matrix(0.78204538,0,-0.07297395,1.1138741,766.04012,1867.0593)"><flowRegion
         id="flowRegion2989-7-8-9"><rect
           id="rect2991-2-1-1"
           width="293.92557"
           height="139.87151"
           x="120.55251"
           y="265.53046"
           style="font-style:normal;font-variant:normal;font-weight:normal;font-stretch:normal;font-family:Lavi;-inkscape-font-specification:Lavi;stroke:#000000;stroke-width:1.84872246;stroke-miterlimit:4;stroke-dasharray:none;stroke-opacity:1" /></flowRegion><flowPara
         style="font-size:48px;text-align:center;text-anchor:middle;stroke:#000000;stroke-width:1.84872246;stroke-miterlimit:4;stroke-dasharray:none;stroke-opacity:1;-inkscape-font-specification:'Rounded M+ 1c Medium';font-family:'Rounded M+ 1c';font-weight:500;font-style:normal;font-stretch:normal;font-variant:normal"
         id="flowPara3094-2">KOMONA!</flowPara></flowRoot>    <flowRoot
       xml:space="preserve"
       id="flowRoot2987-6-5-6-7"
       style="font-style:normal;font-variant:normal;font-weight:normal;font-stretch:normal;font-size:12px;line-height:125%;font-family:Lavi;-inkscape-font-specification:Lavi;letter-spacing:0px;word-spacing:0px;fill:#000000;fill-opacity:1;stroke:none"
       transform="matrix(0.95842652,0,0,0.92639044,1034.0476,1878.1817)"><flowRegion
         id="flowRegion2989-7-8-9-6"><rect
           id="rect2991-2-1-1-3"
           width="309.18378"
           height="167.27036"
           x="120.55251"
           y="274.30832"
           style="font-style:normal;font-variant:normal;font-weight:normal;font-stretch:normal;font-family:Lavi;-inkscape-font-specification:Lavi" /></flowRegion><flowPara
         style="font-size:48px;text-align:center;text-anchor:middle;-inkscape-font-specification:'Rounded M+ 1c Medium';font-family:'Rounded M+ 1c';font-weight:500;font-style:normal;font-stretch:normal;font-variant:normal"
         id="flowPara3094-2-2">Cuộc thi</flowPara><flowPara
         style="font-size:48px;text-align:center;text-anchor:middle;-inkscape-font-specification:'Rounded M+ 1c Medium';font-family:'Rounded M+ 1c';font-weight:500;font-style:normal;font-stretch:normal;font-variant:normal"
         id="flowPara4237">thần dược!</flowPara></flowRoot>    <flowRoot
       xml:space="preserve"
       id="flowRoot2987-6-5-6-7-8"
       style="font-style:normal;font-variant:normal;font-weight:normal;font-stretch:normal;font-size:12px;line-height:125%;font-family:Lavi;-inkscape-font-specification:Lavi;letter-spacing:0px;word-spacing:0px;fill:#000000;fill-opacity:1;stroke:none"
       transform="matrix(0.95842652,0,0,0.92639044,1400.6013,1904.6135)"><flowRegion
         id="flowRegion2989-7-8-9-6-7"><rect
           id="rect2991-2-1-1-3-3"
           width="554.99268"
           height="264.13297"
           x="120.55251"
           y="265.53046"
           style="font-style:normal;font-variant:normal;font-weight:normal;font-stretch:normal;font-family:Lavi;-inkscape-font-specification:Lavi" /></flowRegion><flowPara
         style="font-style:normal;font-variant:normal;font-weight:500;font-stretch:normal;font-size:48px;font-family:'Rounded M+ 1c';-inkscape-font-specification:'Rounded M+ 1c Medium';text-align:center;text-anchor:middle"
         id="flowPara4461">Chắc tại</flowPara><flowPara
         style="font-style:normal;font-variant:normal;font-weight:500;font-stretch:normal;font-size:48px;font-family:'Rounded M+ 1c';-inkscape-font-specification:'Rounded M+ 1c Medium';text-align:center;text-anchor:middle"
         id="flowPara4241">mình đã ngủ </flowPara><flowPara
         style="font-style:normal;font-variant:normal;font-weight:500;font-stretch:normal;font-size:48px;font-family:'Rounded M+ 1c';-inkscape-font-specification:'Rounded M+ 1c Medium';text-align:center;text-anchor:middle"
         id="flowPara4243">quên mất...</flowPara></flowRoot>    <flowRoot
       xml:space="preserve"
       id="flowRoot2987-6-5-6-3"
       style="font-style:normal;font-variant:normal;font-weight:normal;font-stretch:normal;font-size:12px;line-height:125%;font-family:Lavi;-inkscape-font-specification:Lavi;letter-spacing:0px;word-spacing:0px;fill:#000000;fill-opacity:1;stroke:none"
       transform="matrix(0.95842652,0,0,0.92639044,999.10401,2593.9365)"><flowRegion
         id="flowRegion2989-7-8-9-3"><rect
           id="rect2991-2-1-1-36"
           width="357.43549"
           height="179.76456"
           x="120.55251"
           y="265.53046"
           style="font-style:normal;font-variant:normal;font-weight:normal;font-stretch:normal;font-family:Lavi;-inkscape-font-specification:Lavi" /></flowRegion><flowPara
         style="font-size:48px;text-align:center;text-anchor:middle;-inkscape-font-specification:'Rounded M+ 1c Medium';font-family:'Rounded M+ 1c';font-weight:500;font-style:normal;font-stretch:normal;font-variant:normal"
         id="flowPara3217">... nhưng? </flowPara></flowRoot>    <flowRoot
       xml:space="preserve"
       id="flowRoot2987-6-5-6-3-5"
       style="font-style:normal;font-variant:normal;font-weight:normal;font-stretch:normal;font-size:12px;line-height:125%;font-family:Lavi;-inkscape-font-specification:Lavi;letter-spacing:0px;word-spacing:0px;fill:#000000;fill-opacity:1;stroke:none"
       transform="matrix(0.95842652,0,0,0.92639044,1426.147,2595.5709)"><flowRegion
         id="flowRegion2989-7-8-9-3-6"><rect
           id="rect2991-2-1-1-36-5"
           width="357.43549"
           height="179.76456"
           x="120.55251"
           y="265.53046"
           style="font-style:normal;font-variant:normal;font-weight:normal;font-stretch:normal;font-family:Lavi;-inkscape-font-specification:Lavi" /></flowRegion><flowPara
         style="font-size:48px;text-align:center;text-anchor:middle;-inkscape-font-specification:'Rounded M+ 1c Medium';font-family:'Rounded M+ 1c';font-weight:500;font-style:normal;font-stretch:normal;font-variant:normal"
         id="flowPara4473">Mình đang</flowPara><flowPara
         style="font-size:48px;text-align:center;text-anchor:middle;-inkscape-font-specification:'Rounded M+ 1c Medium';font-family:'Rounded M+ 1c';font-weight:500;font-style:normal;font-stretch:normal;font-variant:normal"
         id="flowPara4247">ở đâu đây?!?</flowPara></flowRoot>    <flowRoot
       xml:space="preserve"
       id="flowRoot2987-6-5-6-3-8"
       style="font-size:12px;font-style:normal;font-variant:normal;font-weight:normal;font-stretch:normal;line-height:125%;letter-spacing:0px;word-spacing:0px;fill:#000000;fill-opacity:1;stroke:none;font-family:Lavi;-inkscape-font-specification:Lavi"
       transform="matrix(0.61014531,-0.25329543,0,1.157985,1395.3419,2771.0442)"><flowRegion
         id="flowRegion2989-7-8-9-3-9"><rect
           id="rect2991-2-1-1-36-7"
           width="357.43549"
           height="179.76456"
           x="120.55251"
           y="265.53046"
           style="font-style:normal;font-variant:normal;font-weight:normal;font-stretch:normal;font-family:Lavi;-inkscape-font-specification:Lavi" /></flowRegion><flowPara
         style="font-size:48px;text-align:center;text-anchor:middle"
         id="flowPara3217-6"><flowSpan
           style="stroke:#000000;stroke-width:2.49833798;stroke-miterlimit:4;stroke-opacity:1;stroke-dasharray:none"
           id="flowSpan4084">cK? </flowSpan></flowPara></flowRoot>    <flowRoot
       xml:space="preserve"
       id="flowRoot2987-6-5-6-3-8-7"
       style="font-size:12px;font-style:normal;font-variant:normal;font-weight:normal;font-stretch:normal;line-height:125%;letter-spacing:0px;word-spacing:0px;fill:#000000;fill-opacity:1;stroke:none;font-family:Lavi;-inkscape-font-specification:Lavi"
       transform="matrix(0.61014531,-0.25329543,0,1.157985,1349.8756,2797.7657)"><flowRegion
         id="flowRegion2989-7-8-9-3-9-7"><rect
           id="rect2991-2-1-1-36-7-9"
           width="357.43549"
           height="179.76456"
           x="120.55251"
           y="265.53046"
           style="font-style:normal;font-variant:normal;font-weight:normal;font-stretch:normal;font-family:Lavi;-inkscape-font-specification:Lavi" /></flowRegion><flowPara
         style="font-size:48px;text-align:center;text-anchor:middle"
         id="flowPara3217-6-4"><flowSpan
           style="font-size:42.82865143px"
           id="flowSpan3308"><flowSpan
             style="stroke:#000000;stroke-width:1.83330417;stroke-miterlimit:4;stroke-opacity:1;stroke-dasharray:none"
             id="flowSpan4078">qua </flowSpan></flowSpan></flowPara></flowRoot>    <flowRoot
       xml:space="preserve"
       id="flowRoot2987-6-5-6-7-9"
       style="font-style:normal;font-variant:normal;font-weight:normal;font-stretch:normal;font-size:12px;line-height:125%;font-family:Lavi;-inkscape-font-specification:Lavi;letter-spacing:0px;word-spacing:0px;display:inline;fill:#000000;fill-opacity:1;stroke:none"
       transform="matrix(1.32627,0,0,1.1409864,1539.0145,1944.1676)"><flowRegion
         id="flowRegion2989-7-8-9-6-2"><rect
           id="rect2991-2-1-1-3-32"
           width="316.60767"
           height="156.29805"
           x="120.55251"
           y="265.53046"
           style="font-style:normal;font-variant:normal;font-weight:normal;font-stretch:normal;font-family:Lavi;-inkscape-font-specification:Lavi" /></flowRegion><flowPara
         style="font-size:48px;text-align:center;text-anchor:middle"
         id="flowPara3094-2-2-5">* </flowPara></flowRoot>    <flowRoot
       xml:space="preserve"
       id="flowRoot2987-4-9-9-9"
       style="font-style:normal;font-variant:normal;font-weight:normal;font-stretch:normal;font-size:12px;line-height:125%;font-family:Lavi;-inkscape-font-specification:Lavi;text-align:center;letter-spacing:0px;word-spacing:0px;text-anchor:middle;fill:#000000;fill-opacity:1;stroke:none"
       transform="matrix(0.66530597,0,0,0.68592152,1740.9877,2556.956)"><flowRegion
         id="flowRegion2989-5-4-7-7"><rect
           id="rect2991-7-9-4-3"
           width="970.46832"
           height="56.153355"
           x="59.439823"
           y="265.53046"
           style="font-style:normal;font-variant:normal;font-weight:normal;font-stretch:normal;font-family:Lavi;-inkscape-font-specification:Lavi;text-align:center;text-anchor:middle" /></flowRegion><flowPara
         style="font-style:normal;font-variant:normal;font-weight:500;font-stretch:normal;font-size:48px;font-family:'Rounded M+ 1c';-inkscape-font-specification:'Rounded M+ 1c Medium';text-align:start;text-anchor:start;fill:#a0a0a0;fill-opacity:1"
         id="flowPara3080-9-7">* Xem lại tập 4 : Khoảnh Khắc Thiên Tài </flowPara></flowRoot>  </g>
</svg>
