<?xml version="1.0" encoding="UTF-8" standalone="no"?>
<!-- Created with Inkscape (http://www.inkscape.org/) -->

<svg
   xmlns:dc="http://purl.org/dc/elements/1.1/"
   xmlns:cc="http://creativecommons.org/ns#"
   xmlns:rdf="http://www.w3.org/1999/02/22-rdf-syntax-ns#"
   xmlns:svg="http://www.w3.org/2000/svg"
   xmlns="http://www.w3.org/2000/svg"
   xmlns:xlink="http://www.w3.org/1999/xlink"
   xmlns:sodipodi="http://sodipodi.sourceforge.net/DTD/sodipodi-0.dtd"
   xmlns:inkscape="http://www.inkscape.org/namespaces/inkscape"
   id="svg2"
   version="1.1"
   inkscape:version="0.91 r"
   width="2481"
   height="3503"
   sodipodi:docname="Pepper-and-Carrot_by-David-Revoy_E06P01.svg">
  <metadata
     id="metadata8">
    <rdf:RDF>
      <cc:Work
         rdf:about="">
        <dc:format>image/svg+xml</dc:format>
        <dc:type
           rdf:resource="http://purl.org/dc/dcmitype/StillImage" />
        <dc:title />
      </cc:Work>
    </rdf:RDF>
  </metadata>
  <defs
     id="defs6" />
  <sodipodi:namedview
     pagecolor="#ffffff"
     bordercolor="#666666"
     borderopacity="1"
     objecttolerance="10"
     gridtolerance="10"
     guidetolerance="10"
     inkscape:pageopacity="0"
     inkscape:pageshadow="2"
     inkscape:window-width="1366"
     inkscape:window-height="711"
     id="namedview4"
     showgrid="false"
     inkscape:zoom="0.49190039"
     inkscape:cx="1172.7559"
     inkscape:cy="2429.6653"
     inkscape:window-x="0"
     inkscape:window-y="30"
     inkscape:window-maximized="1"
     inkscape:current-layer="layer1" />
  <g
     inkscape:groupmode="layer"
     id="layer2"
     inkscape:label="artwork"
     sodipodi:insensitive="true">
    <image
       sodipodi:absref="/home/nightmare/Projects/peppercarrot_ep06_translation/ua/../gfx_Pepper-and-Carrot_by-David-Revoy_E06P01.png"
       xlink:href="../gfx_Pepper-and-Carrot_by-David-Revoy_E06P01.png"
       width="2481"
       height="3503"
       id="image10"
       x="0"
       y="0" />
  </g>
  <g
     inkscape:groupmode="layer"
     id="layer3"
     inkscape:label="speechbubbles">
    <path
       style="fill:#ffffff;stroke:none"
       d="m 1065.0584,2991.5882 c 139.0204,-151.8259 352.2724,-147.4644 534.1995,-135.0446 l -2.4584,29.6919 c -271.0832,-44.1257 -427.9056,20.1405 -531.7411,105.3527 z"
       id="path4208"
       inkscape:connector-curvature="0"
       sodipodi:nodetypes="cccc" />
    <path
       style="fill:#ffffff;stroke:none"
       d="m 848.69618,2327.5469 c 11.92344,-57.0082 80.05736,-226.7656 764.80332,-144.4206 25.5503,5.0674 32.3637,24.0701 32.3637,24.0701 l -11.9235,7.6011 c 0,0 -669.41585,-141.8868 -785.24352,112.7494 z"
       id="path4184"
       inkscape:connector-curvature="0" />
    <path
       style="fill:#ffffff;stroke:none"
       d="m 111.4082,929.9846 c 1.09537,-30.35787 23.32018,-26.21189 42.8645,-26.44314 18.99692,-4.56828 17.68618,-25.41604 68.26566,-4.66645 18.94123,-5.86223 25.94843,-21.95565 68.26567,-7.77738 16.40493,-6.23852 32.80986,-9.27592 49.21479,3.11096 28.50121,-1.61682 32.55235,-23.19676 95.25443,3.11095 27.91097,-12.64516 43.54725,-6.04785 55.56508,6.22192 14.41309,-4.05434 27.16746,-16.23476 47.6272,9.33287 24.58124,-1.15666 42.22048,7.209 50.80237,27.9986 5.35248,8.95055 20.09629,6.85937 11.11302,32.66489 35.90492,31.00508 18.753,46.01548 15.87573,65.32948 -0.74151,14.6065 -2.67808,28.8784 -25.40117,37.3313 6.74275,20.996 -7.29616,28.4179 -19.05089,37.3316 -10.57142,16.1462 -24.42383,13.0046 -38.10178,10.8884 -26.98875,33.3396 -53.9775,25.7934 -80.96625,26.4432 -12.34128,11.0165 -22.60457,7.781 -31.75148,-3.1112 -40.1387,19.5282 -52.28902,3.7987 -71.44082,-3.1108 -40.32831,31.264 -60.33165,14.7341 -85.72897,10.8884 -17.9867,5.658 -35.94308,11.0781 -50.80236,-7.7776 -44.01943,10.0059 -42.69127,-8.2623 -53.97753,-18.6657 -19.72051,14.3205 -29.24354,5.3277 -39.68933,-1.5553 -27.446021,-6.7492 -14.3092,-18.4689 -19.05088,-27.9987 -21.739695,-21.2581 -21.35633,-42.5165 -7.93787,-63.7746 -10.063415,-11.2638 -25.313306,-21.6039 -1.587598,-38.88703 -9.788112,-15.10062 -21.191295,-30.06977 6.35031,-48.21894 -3.088645,-11.99138 4.733428,-15.96518 14.288168,-18.66573 z"
       id="path4086"
       inkscape:connector-curvature="0"
       sodipodi:nodetypes="cccccccccccccccccccccccccc" />
    <path
       style="fill:#ffffff;stroke:none;stroke-width:1px;stroke-linecap:butt;stroke-linejoin:miter;stroke-opacity:1"
       d="m 230.13067,823.60392 c -9.53903,-20.56429 -0.23424,-22.81511 10.00568,-26.42602 11.63357,-13.55921 16.74734,-4.29914 22.87013,1.42938 15.03339,7.03416 19.43438,18.62507 14.29383,34.3052 -2.64407,15.25927 -13.01754,16.99209 -27.15828,12.13219 -15.35344,0.0889 -21.95096,-7.11879 -20.01136,-21.44075 z"
       id="path4088"
       inkscape:connector-curvature="0"
       sodipodi:nodetypes="cccccc" />
    <path
       style="fill:#ffffff;stroke:none;stroke-width:1px;stroke-linecap:butt;stroke-linejoin:miter;stroke-opacity:1"
       d="m 275.87093,761.44332 c -5.09277,-10.88445 3.68029,-14.83599 15.72321,-17.15259 19.65656,11.35504 12.8163,22.10199 7.14692,32.87581 -12.0433,1.8308 -24.81763,4.83126 -22.87013,-15.72322 z"
       id="path4090"
       inkscape:connector-curvature="0"
       sodipodi:nodetypes="cccc" />
    <path
       style="fill:#ffffff;stroke:none;stroke-width:0.95018345000000004px;stroke-linecap:butt;stroke-linejoin:miter;stroke-opacity:1"
       d="m 368.72867,1285.1069 c -9.10776,0.3666 -17.69604,4.5827 -24.5357,10.5994 -10.67689,-2.8214 -24.4482,-7.3606 -33.63685,1.3452 -3.88487,4.4874 -7.12528,12.781 -14.41172,10.5462 -12.0905,-0.1289 -27.61946,2.2389 -32.31936,15.5365 -2.1942,5.148 -1.50982,13.3678 -8.25249,14.8216 -8.87578,3.9804 -15.38714,15.5104 -10.21324,24.9428 1.84662,2.7177 2.34957,6.4309 -0.34935,8.69 -5.41216,9.0042 -1.05429,20.5294 6.31076,26.8418 2.19788,2.913 -1.51763,6.5378 0.21846,9.8187 1.72877,7.666 9.70316,9.9586 16.20927,10.7737 0.5212,3.9414 1.62893,8.4715 4.83941,11.3083 6.16478,6.3536 15.42895,6.7648 23.51315,7.0052 6.88333,3.242 11.92089,9.826 19.52501,11.5856 13.08681,3.935 26.59916,-2.5811 37.39096,-9.2563 4.17112,7.3888 9.60055,14.9889 18.17029,17.2427 7.20495,2.5803 14.90145,0.8391 22.04076,-0.2795 17.94606,2.5745 37.50809,12.5101 55.11636,3.4253 6.38841,-3.2097 11.7174,-8.2574 16.15564,-13.8476 7.04409,6.0003 18.40663,9.7096 25.86022,2.6824 2.04498,-2.3078 3.99239,-6.7402 7.68525,-4.0871 17.02345,5.1074 35.90589,13.1153 53.42296,5.1673 8.25031,-2.7211 15.40112,-8.9567 22.40521,-13.1096 11.40728,4.9442 26.60151,6.2435 35.73063,-3.8388 3.32962,-2.2921 4.32735,-9.5075 9.26879,-7.8035 11.55032,1.4124 24.20558,-4.4207 28.26248,-16.0384 1.74656,-5.0367 2.09925,-11.2255 7.37781,-13.8726 8.03588,-6.7054 12.50053,-18.8296 7.65608,-28.9252 -2.91642,-6.4773 -6.79401,-12.6897 -6.32012,-20.1067 -1.703,-12.5144 -12.92938,-21.094 -24.64895,-22.2997 -4.97106,-1.3042 -11.79132,0.3663 -14.15819,-5.4809 -13.59172,-17.3848 -37.34534,-22.4569 -57.93982,-17.9359 -4.07474,1.1409 -5.68371,-4.439 -9.22091,-5.6983 -8.42396,-6.1682 -19.98472,-5.5104 -28.16038,0.6853 -3.74883,4.0899 -7.15848,-2.0454 -11.25279,-2.6857 -15.18568,-5.4272 -34.20986,-4.1513 -46.29687,7.7206 -12.4105,-14.8138 -33.5547,-19.3263 -51.29169,-13.2846 -5.38935,0.9123 -10.56421,4.3214 -15.68984,4.7201 -8.92016,-4.1456 -18.55389,-7.4536 -28.4612,-6.9089 z"
       id="path4094"
       inkscape:connector-curvature="0" />
    <path
       style="fill:#ffffff;stroke:none"
       d="m 254.84178,1217.9014 c -21.93594,-5.4808 -17.74008,-13.6811 -13.99678,-23.3941 -3.03862,-16.7769 7.36071,-14.91 15.68046,-15.9283 15.0063,-6.7699 26.74841,-2.9642 35.56127,10.332 10.07962,11.2071 4.80314,19.8776 -7.9578,27.312 -9.7183,11.33 -19.48107,11.7989 -29.28715,1.6784 z"
       id="path4088-4"
       inkscape:connector-curvature="0"
       sodipodi:nodetypes="cccccc" />
    <path
       style="fill:#ffffff;stroke:none"
       d="m 281.23738,1261.3662 c -1.6722,-15.5601 8.1265,-14.7295 15.31815,-17.624 8.5716,-3.7924 14.70548,-2.0987 17.90033,6.2094 9.77538,3.2771 13.75133,9.4545 10.08794,19.4525 -3.52546,10.5347 -12.20688,9.4657 -20.99121,8.1652 -4.6338,4.2774 -9.42027,7.1804 -15.37947,-0.4737 -11.84717,-2.3085 -12.53472,-8.0516 -6.93574,-15.7294 z"
       id="path4119"
       inkscape:connector-curvature="0"
       sodipodi:nodetypes="ccccccc" />
    <path
       style="fill:#ffffff;stroke:none;stroke-width:0.91189969000000004px;stroke-linecap:butt;stroke-linejoin:miter;stroke-opacity:1"
       d="m 294.04504,1668.4749 c -2.96747,-24.9282 10.53477,-33.6182 31.50518,-34.9449 11.83864,-15.5074 20.85722,-33.795 61.69767,-20.7082 28.57044,-26.6812 58.70878,-20.8994 89.26471,-6.4713 50.07402,-33.2569 62.28564,-12.6491 86.63927,-5.1771 58.65597,-26.1972 65.79391,6.8647 91.89014,18.1197 44.61696,-28.0463 72.85,-9.427 99.76643,12.9425 15.29342,0.023 24.97649,6.1934 22.31617,25.8852 23.6555,8.9831 35.84897,24.4239 31.5052,49.1816 20.5545,33.0826 4.30383,42.5783 -14.43988,50.4762 18.04096,28.9611 7.73324,51.4722 -26.25433,68.5956 -4.50639,20.9841 -20.2387,23.9826 -40.6942,19.4139 -9.36326,18.6713 -25.1582,29.5382 -60.38495,16.8253 -25.52701,20.5448 -53.17149,20.2126 -82.70112,1.2943 -11.64414,21.893 -32.12781,23.8657 -57.75953,14.2367 -35.1705,12.0017 -49.69758,0.5189 -59.07223,-16.8253 -22.49967,11.4116 -45.11052,20.8504 -69.57395,-2.5885 -28.44993,6.3545 -36.16879,-4.8106 -36.75605,-22.0024 -22.33025,15.1367 -36.91229,9.902 -47.25778,-6.4714 -16.4026,-0.4012 -35.0386,2.4004 -30.19248,-28.4735 -23.805,-5.5398 -37.65039,-16.2478 -23.6289,-41.4163 -7.39811,-15.2958 -19.38442,-30.0891 7.87631,-49.1817 -5.00332,-27.7982 7.35625,-38.4776 26.25432,-42.7104 z"
       id="path4121"
       inkscape:connector-curvature="0"
       sodipodi:nodetypes="ccccccccccccccccccccccc" />
    <path
       style="fill:#ffffff;stroke:none"
       d="m 426.16799,1495.7228 c -1.6722,-15.5601 8.1265,-14.7295 15.31815,-17.624 8.5716,-3.7924 14.70548,-2.0987 17.90033,6.2094 9.77538,3.2771 13.75133,9.4545 10.08794,19.4525 -3.52546,10.5347 -12.20688,9.4657 -20.99121,8.1652 -4.6338,4.2774 -9.42027,7.1804 -15.37947,-0.4737 -11.84717,-2.3085 -12.53472,-8.0516 -6.93574,-15.7294 z"
       id="path4119-8"
       inkscape:connector-curvature="0"
       sodipodi:nodetypes="ccccccc" />
    <path
       style="fill:#ffffff;stroke:none"
       d="m 473.63058,1564.8263 c -15.87888,-16.1637 -4.1024,-20.2143 1.38885,-27.0178 6.23672,-8.4833 14.66459,-9.736 25.73404,-2.2704 13.95095,-1.3644 23.98299,3.3767 28.85294,16.1601 5.508,13.3003 -5.22536,16.5249 -16.2828,19.5483 -1.36816,7.0209 -4.14446,12.6166 -17.73722,7.265 -15.41163,3.4716 -21.35155,-2.4587 -21.95581,-13.6852 z"
       id="path4119-7"
       inkscape:connector-curvature="0"
       sodipodi:nodetypes="ccccccc" />
    <path
       style="fill:#ffffff;stroke:none"
       d="m 841.62073,2156.8344 c 22.25175,-26.8114 179.17317,-26.7384 212.04897,-4.2782 32.8758,22.4602 29.6785,56.8909 6.1025,81.6803 -16.6155,17.4708 -186.91945,22.0647 -213.22009,2.813 -26.30065,-19.2516 -27.18313,-53.4038 -4.93138,-80.2151 z"
       id="path4160"
       inkscape:connector-curvature="0"
       sodipodi:nodetypes="zsssz" />
    <path
       style="fill:#ffffff;stroke:none;stroke-width:1px;stroke-linecap:butt;stroke-linejoin:miter;stroke-opacity:1"
       d="m 1145.6566,2114.824 c 25.7948,-33.9112 274.6902,-24.8589 303.2779,13.6723 28.5876,38.5312 14.9152,109.3789 -18.6442,123.0512 -33.5594,13.6724 -242.3737,16.1583 -270.9613,-1.2429 -28.4889,-17.341 -39.4672,-101.5694 -13.6724,-135.4806 z"
       id="path4162"
       inkscape:connector-curvature="0"
       sodipodi:nodetypes="zsssz" />
    <path
       style="fill:#ffffff;stroke:none"
       d="m 1601.1936,2116.1977 c 57.3731,-41.8436 343.8267,-10.8705 388.8361,31.5018 45.0094,42.3721 42.6198,144.0089 7.2977,170.8987 -35.3224,26.8894 -355.2649,25.4438 -410.751,-12.3806 -39.9716,-27.2478 -42.7559,-148.1762 14.6172,-190.0199 z"
       id="path4164"
       inkscape:connector-curvature="0"
       sodipodi:nodetypes="zsssz" />
    <path
       style="fill:#ffffff;stroke:none"
       d="m 1180.3991,2821.5119 c 21.9057,-14.0231 58.3997,-19.8752 92.5693,-20.4786 34.1694,-0.6033 82.8357,3.6735 108.0092,19.8549 25.1734,16.1816 44.7829,30.4369 39.102,57.6458 -5.6807,27.2089 -45.6578,46.1053 -85.0524,55.5628 -39.3945,9.4574 -107.7945,0.4916 -139.8932,-14.1459 -32.0985,-14.6376 -49.324,-27.5393 -51.2988,-49.0378 -1.9748,-21.4982 14.6584,-35.3782 36.5639,-49.4012 z"
       id="path4204"
       inkscape:connector-curvature="0"
       sodipodi:nodetypes="zzzzzzzz" />
    <path
       style="fill:#ffffff;stroke:none;stroke-width:0.96692984999999998px;stroke-linecap:butt;stroke-linejoin:miter;stroke-opacity:1"
       d="m 1563.3029,2891.138 c 0.6377,-21.0575 0.5288,-58.0166 24.2708,-76.9497 23.7421,-18.9331 61.3692,-10.7371 100.8171,-10.7371 39.4479,0 104.0726,-5.7594 134.4227,14.3161 30.3501,20.0756 39.0628,44.9597 39.2067,73.3707 0.1439,28.411 -18.2349,60.1358 -41.0736,78.7392 -22.8387,18.6034 -57.3059,20.5062 -84.0143,25.0533 -26.7084,4.5472 -45.3094,12.1353 -74.6792,3.5791 -29.3698,-8.5562 -73.3027,-41.6431 -87.7482,-62.6335 -14.4456,-20.9904 -11.8397,-23.6806 -11.202,-44.7381 z"
       id="path4206"
       inkscape:connector-curvature="0"
       sodipodi:nodetypes="zzzzzzzzzz" />
  </g>
  <g
     inkscape:groupmode="layer"
     id="layer1"
     inkscape:label="txt"
     style="display:inline">
    <flowRoot
       xml:space="preserve"
       id="flowRoot2987"
       style="font-style:normal;font-variant:normal;font-weight:normal;font-stretch:normal;font-size:53.06321335px;line-height:125%;font-family:Neucha;-inkscape-font-specification:Neucha;letter-spacing:0px;word-spacing:0px;fill:#000000;fill-opacity:1;stroke:none"
       transform="matrix(0.95842652,0,0,0.92639044,-45.076378,717.02843)"><flowRegion
         id="flowRegion2989"><rect
           id="rect2991"
           width="525.65155"
           height="245.01311"
           x="138.55077"
           y="262.427"
           style="font-style:normal;font-variant:normal;font-weight:normal;font-stretch:normal;font-size:53.06321335px;font-family:Neucha;-inkscape-font-specification:Neucha" /></flowRegion><flowPara
         style="font-style:normal;font-variant:normal;font-weight:normal;font-stretch:normal;font-size:53.06321335px;font-family:Neucha;-inkscape-font-specification:Neucha;text-align:center;text-anchor:middle"
         id="flowPara4422">О-о-ох, я знову заснула</flowPara><flowPara
         style="font-style:normal;font-variant:normal;font-weight:normal;font-stretch:normal;font-size:53.06321335px;font-family:Neucha;-inkscape-font-specification:Neucha;text-align:center;text-anchor:middle"
         id="flowPara4426">з відчиненим вікном...</flowPara></flowRoot>    <flowRoot
       xml:space="preserve"
       id="flowRoot2987-6"
       style="font-style:normal;font-variant:normal;font-weight:normal;font-stretch:normal;font-size:53.06321335px;line-height:125%;font-family:Neucha;-inkscape-font-specification:Neucha;letter-spacing:0px;word-spacing:0px;fill:#000000;fill-opacity:1;stroke:none"
       transform="matrix(0.95842652,0,0,0.92639044,139.70291,1099.0418)"><flowRegion
         id="flowRegion2989-7"><rect
           id="rect2991-2"
           width="410.90588"
           height="61.727306"
           x="120.55251"
           y="265.53046"
           style="font-style:normal;font-variant:normal;font-weight:normal;font-stretch:normal;font-size:53.06321335px;font-family:Neucha;-inkscape-font-specification:Neucha" /></flowRegion><flowPara
         style="font-style:normal;font-variant:normal;font-weight:normal;font-stretch:normal;font-size:53.06321335px;font-family:Neucha;-inkscape-font-specification:Neucha;text-align:center;text-anchor:middle"
         id="flowPara3023-5">... ще й вітер ...</flowPara></flowRoot>    <flowRoot
       xml:space="preserve"
       id="flowRoot2987-6-5"
       style="font-style:normal;font-variant:normal;font-weight:normal;font-stretch:normal;font-size:53.06321335px;line-height:125%;font-family:Neucha;-inkscape-font-specification:Neucha;letter-spacing:0px;word-spacing:0px;fill:#000000;fill-opacity:1;stroke:none"
       transform="matrix(0.95842652,0,0,0.92639044,152.05586,1435.6123)"><flowRegion
         id="flowRegion2989-7-8"><rect
           id="rect2991-2-1"
           width="570.64728"
           height="189.15115"
           x="120.55251"
           y="265.53046"
           style="font-style:normal;font-variant:normal;font-weight:normal;font-stretch:normal;font-size:53.06321335px;font-family:Neucha;-inkscape-font-specification:Neucha" /></flowRegion><flowPara
         style="font-style:normal;font-variant:normal;font-weight:normal;font-stretch:normal;font-size:53.06321335px;font-family:Neucha;-inkscape-font-specification:Neucha;text-align:center;text-anchor:middle"
         id="flowPara4454">... і чому це я бачу Комону</flowPara><flowPara
         style="font-style:normal;font-variant:normal;font-weight:normal;font-stretch:normal;font-size:53.06321335px;font-family:Neucha;-inkscape-font-specification:Neucha;text-align:center;text-anchor:middle"
         id="flowPara4878">у вікно ?</flowPara></flowRoot>    <flowRoot
       xml:space="preserve"
       id="flowRoot2987-6-5-6"
       style="font-style:normal;font-variant:normal;font-weight:normal;font-stretch:normal;font-size:53.57176734px;line-height:125%;font-family:Neucha;-inkscape-font-specification:Neucha;letter-spacing:0px;word-spacing:0px;fill:#000000;fill-opacity:1;stroke:#000000;stroke-width:1.84872246;stroke-miterlimit:4;stroke-dasharray:none;stroke-opacity:1;"
       transform="matrix(0.78204538,0,-0.07297395,1.1138741,766.04012,1867.0593)"><flowRegion
         id="flowRegion2989-7-8-9"><rect
           id="rect2991-2-1-1"
           width="293.92557"
           height="139.87151"
           x="120.55251"
           y="265.53046"
           style="font-style:normal;font-variant:normal;font-weight:normal;font-stretch:normal;font-family:Neucha;-inkscape-font-specification:Neucha;stroke:#000000;stroke-width:1.84872246;stroke-miterlimit:4;stroke-dasharray:none;stroke-opacity:1;font-size:53.57176734px;" /></flowRegion><flowPara
         style="font-size:53.57176734px;text-align:center;text-anchor:middle;stroke:#000000;stroke-width:1.84872246;stroke-miterlimit:4;stroke-dasharray:none;stroke-opacity:1;-inkscape-font-specification:Neucha;font-family:Neucha;font-weight:normal;font-style:normal;font-stretch:normal;font-variant:normal;"
         id="flowPara3094-2">КОМОНУ!</flowPara></flowRoot>    <flowRoot
       xml:space="preserve"
       id="flowRoot2987-6-5-6-7"
       style="font-style:normal;font-variant:normal;font-weight:normal;font-stretch:normal;font-size:53.06321335px;line-height:125%;font-family:Neucha;-inkscape-font-specification:Neucha;letter-spacing:0px;word-spacing:0px;fill:#000000;fill-opacity:1;stroke:none"
       transform="matrix(0.95842652,0,0,0.92639044,1034.0476,1878.1817)"><flowRegion
         id="flowRegion2989-7-8-9-6"><rect
           id="rect2991-2-1-1-3"
           width="309.18378"
           height="167.27036"
           x="120.55251"
           y="274.30832"
           style="font-style:normal;font-variant:normal;font-weight:normal;font-stretch:normal;font-size:53.06321335px;font-family:Neucha;-inkscape-font-specification:Neucha" /></flowRegion><flowPara
         style="font-style:normal;font-variant:normal;font-weight:normal;font-stretch:normal;font-size:53.06321335px;font-family:Neucha;-inkscape-font-specification:Neucha;text-align:center;text-anchor:middle"
         id="flowPara3094-2-2">Змагання зіллєваріння! </flowPara></flowRoot>    <flowRoot
       xml:space="preserve"
       id="flowRoot2987-6-5-6-7-8"
       style="font-style:normal;font-variant:normal;font-weight:normal;font-stretch:normal;font-size:53.06321335px;line-height:125%;font-family:Neucha;-inkscape-font-specification:Neucha;letter-spacing:0px;word-spacing:0px;fill:#000000;fill-opacity:1;stroke:none"
       transform="matrix(0.95842652,0,0,0.92639044,1414.8318,1894.4489)"><flowRegion
         id="flowRegion2989-7-8-9-6-7"><rect
           id="rect2991-2-1-1-3-3"
           width="554.99268"
           height="264.13297"
           x="120.55251"
           y="265.53046"
           style="font-style:normal;font-variant:normal;font-weight:normal;font-stretch:normal;font-size:53.06321335px;font-family:Neucha;-inkscape-font-specification:Neucha" /></flowRegion><flowPara
         style="font-style:normal;font-variant:normal;font-weight:normal;font-stretch:normal;font-size:53.06321335px;font-family:Neucha;-inkscape-font-specification:Neucha;text-align:center;text-anchor:middle"
         id="flowPara4218">Я, мабуть... </flowPara><flowPara
         style="font-style:normal;font-variant:normal;font-weight:normal;font-stretch:normal;font-size:53.06321335px;font-family:Neucha;-inkscape-font-specification:Neucha;text-align:center;text-anchor:middle"
         id="flowPara4461">мабуть, я випадково заснула*!</flowPara></flowRoot>    <flowRoot
       xml:space="preserve"
       id="flowRoot2987-6-5-6-3"
       style="font-style:normal;font-variant:normal;font-weight:normal;font-stretch:normal;font-size:53.06321335px;line-height:125%;font-family:Neucha;-inkscape-font-specification:Neucha;letter-spacing:0px;word-spacing:0px;fill:#000000;fill-opacity:1;stroke:none"
       transform="matrix(0.95842652,0,0,0.92639044,999.10401,2593.9365)"><flowRegion
         id="flowRegion2989-7-8-9-3"><rect
           id="rect2991-2-1-1-36"
           width="357.43549"
           height="179.76456"
           x="120.55251"
           y="265.53046"
           style="font-style:normal;font-variant:normal;font-weight:normal;font-stretch:normal;font-size:53.06321335px;font-family:Neucha;-inkscape-font-specification:Neucha" /></flowRegion><flowPara
         style="font-style:normal;font-variant:normal;font-weight:normal;font-stretch:normal;font-size:53.06321335px;font-family:Neucha;-inkscape-font-specification:Neucha;text-align:center;text-anchor:middle"
         id="flowPara3217">... та однак ... </flowPara></flowRoot>    <flowRoot
       xml:space="preserve"
       id="flowRoot2987-6-5-6-3-5"
       style="font-style:normal;font-variant:normal;font-weight:normal;font-stretch:normal;font-size:53.06321335px;line-height:125%;font-family:Neucha;-inkscape-font-specification:Neucha;letter-spacing:0px;word-spacing:0px;fill:#000000;fill-opacity:1;stroke:none"
       transform="matrix(0.95842652,0,0,0.92639044,1428.1799,2619.9661)"><flowRegion
         id="flowRegion2989-7-8-9-3-6"><rect
           id="rect2991-2-1-1-36-5"
           width="357.43549"
           height="179.76456"
           x="120.55251"
           y="265.53046"
           style="font-style:normal;font-variant:normal;font-weight:normal;font-stretch:normal;font-size:53.06321335px;font-family:Neucha;-inkscape-font-specification:Neucha" /></flowRegion><flowPara
         style="font-style:normal;font-variant:normal;font-weight:normal;font-stretch:normal;font-size:53.06321335px;font-family:Neucha;-inkscape-font-specification:Neucha;text-align:center;text-anchor:middle"
         id="flowPara4473">Де я ?!?</flowPara></flowRoot>    <flowRoot
       xml:space="preserve"
       id="flowRoot2987-6-5-6-3-8"
       style="font-style:normal;font-variant:normal;font-weight:normal;font-stretch:normal;font-size:12px;line-height:125%;font-family:Lavi;-inkscape-font-specification:Lavi;letter-spacing:0px;word-spacing:0px;fill:#000000;fill-opacity:1;stroke:none"
       transform="matrix(0.61014531,-0.25329543,0,1.157985,1366.8808,2811.7029)"><flowRegion
         id="flowRegion2989-7-8-9-3-9"><rect
           id="rect2991-2-1-1-36-7"
           width="357.43549"
           height="179.76456"
           x="120.55251"
           y="265.53046"
           style="font-style:normal;font-variant:normal;font-weight:normal;font-stretch:normal;font-family:Lavi;-inkscape-font-specification:Lavi" /></flowRegion><flowPara
         style="font-size:48px;text-align:center;text-anchor:middle"
         id="flowPara3217-6"><flowSpan
           style="stroke:#000000;stroke-width:2.49833798;stroke-miterlimit:4;stroke-dasharray:none;stroke-opacity:1"
           id="flowSpan4084"><flowSpan
             style="font-style:normal;font-variant:normal;font-weight:normal;font-stretch:normal;font-family:Neucha;-inkscape-font-specification:Neucha"
             id="flowSpan3412"> кря?</flowSpan></flowSpan></flowPara></flowRoot>    <flowRoot
       xml:space="preserve"
       id="flowRoot2987-6-5-6-7-9"
       style="font-style:normal;font-variant:normal;font-weight:normal;font-stretch:normal;font-size:12px;line-height:125%;font-family:Lavi;-inkscape-font-specification:Lavi;letter-spacing:0px;word-spacing:0px;display:inline;fill:#000000;fill-opacity:1;stroke:none"
       transform="matrix(1.32627,0,0,1.1409864,1585.7719,1944.1676)"><flowRegion
         id="flowRegion2989-7-8-9-6-2"><rect
           id="rect2991-2-1-1-3-32"
           width="316.60767"
           height="156.29805"
           x="120.55251"
           y="265.53046"
           style="font-style:normal;font-variant:normal;font-weight:normal;font-stretch:normal;font-family:Lavi;-inkscape-font-specification:Lavi" /></flowRegion><flowPara
         style="font-size:48px;text-align:center;text-anchor:middle"
         id="flowPara3094-2-2-5" /></flowRoot>    <flowRoot
       xml:space="preserve"
       id="flowRoot2987-4-9-9-9"
       style="font-style:normal;font-variant:normal;font-weight:normal;font-stretch:normal;font-size:12px;line-height:125%;font-family:Neucha;-inkscape-font-specification:Neucha;text-align:center;letter-spacing:0px;word-spacing:0px;text-anchor:middle;fill:#000000;fill-opacity:1;stroke:none"
       transform="matrix(0.66530597,0,0,0.68592152,1850.2377,2549.7685)"><flowRegion
         id="flowRegion2989-5-4-7-7"><rect
           id="rect2991-7-9-4-3"
           width="734.95642"
           height="51.961914"
           x="59.439823"
           y="265.53046"
           style="font-style:normal;font-variant:normal;font-weight:normal;font-stretch:normal;font-family:Neucha;-inkscape-font-specification:Neucha;text-align:center;text-anchor:middle" /></flowRegion><flowPara
         style="font-style:normal;font-variant:normal;font-weight:normal;font-stretch:normal;font-size:48px;font-family:Neucha;-inkscape-font-specification:Neucha;text-align:start;text-anchor:start;fill:#a0a0a0;fill-opacity:1"
         id="flowPara3080-9-7">* див. епізод 4 : Напад геніальності</flowPara></flowRoot>  </g>
</svg>
