<?xml version="1.0" encoding="UTF-8" standalone="no"?>
<!-- Created with Inkscape (http://www.inkscape.org/) -->

<svg
   xmlns:dc="http://purl.org/dc/elements/1.1/"
   xmlns:cc="http://creativecommons.org/ns#"
   xmlns:rdf="http://www.w3.org/1999/02/22-rdf-syntax-ns#"
   xmlns:svg="http://www.w3.org/2000/svg"
   xmlns="http://www.w3.org/2000/svg"
   xmlns:xlink="http://www.w3.org/1999/xlink"
   xmlns:sodipodi="http://sodipodi.sourceforge.net/DTD/sodipodi-0.dtd"
   xmlns:inkscape="http://www.inkscape.org/namespaces/inkscape"
   id="svg2"
   version="1.1"
   inkscape:version="0.91 r"
   width="2481"
   height="663"
   sodipodi:docname="Pepper-and-Carrot_by-David-Revoy_E06P00.svg">
  <metadata
     id="metadata8">
    <rdf:RDF>
      <cc:Work
         rdf:about="">
        <dc:format>image/svg+xml</dc:format>
        <dc:type
           rdf:resource="http://purl.org/dc/dcmitype/StillImage" />
        <dc:title />
      </cc:Work>
    </rdf:RDF>
  </metadata>
  <defs
     id="defs6" />
  <sodipodi:namedview
     pagecolor="#ffffff"
     bordercolor="#666666"
     borderopacity="1"
     objecttolerance="10"
     gridtolerance="10"
     guidetolerance="10"
     inkscape:pageopacity="0"
     inkscape:pageshadow="2"
     inkscape:window-width="1366"
     inkscape:window-height="711"
     id="namedview4"
     showgrid="false"
     inkscape:zoom="0.43094102"
     inkscape:cx="1331.2749"
     inkscape:cy="172.87026"
     inkscape:window-x="0"
     inkscape:window-y="30"
     inkscape:window-maximized="1"
     inkscape:current-layer="layer1" />
  <g
     inkscape:groupmode="layer"
     id="layer2"
     inkscape:label="artwork"
     sodipodi:insensitive="true">
    <image
       sodipodi:absref="/home/nightmare/Projects/peppercarrot_ep06_translation/ua/../gfx_Pepper-and-Carrot_by-David-Revoy_E06P00.png"
       xlink:href="../gfx_Pepper-and-Carrot_by-David-Revoy_E06P00.png"
       width="2481"
       height="663"
       id="image10"
       x="0"
       y="0" />
  </g>
  <g
     inkscape:groupmode="layer"
     id="layer1"
     inkscape:label="txt"
     style="display:inline">
    <flowRoot
       xml:space="preserve"
       id="flowRoot2987"
       style="font-style:normal;font-variant:normal;font-weight:normal;font-stretch:normal;font-size:80px;line-height:125%;font-family:Neucha;-inkscape-font-specification:Neucha;letter-spacing:0px;word-spacing:0px;fill:#301b0b;fill-opacity:1;stroke:none"
       transform="translate(-748.4491,-120.8471)"><flowRegion
         id="flowRegion2989"><rect
           id="rect2991"
           width="2405.8"
           height="107.55731"
           x="739.22333"
           y="644.36664"
           style="font-style:normal;font-variant:normal;font-weight:normal;font-stretch:normal;font-size:80px;font-family:Neucha;-inkscape-font-specification:Neucha;fill:#301b0b;fill-opacity:1" /></flowRegion><flowPara
         id="flowPara2993"
         style="font-style:normal;font-variant:normal;font-weight:normal;font-stretch:normal;font-size:80px;font-family:Neucha;-inkscape-font-specification:Neucha;text-align:center;text-anchor:middle;fill:#301b0b;fill-opacity:1">Епізод 6 : Змагання зіллєваріння</flowPara></flowRoot>    <g
       id="layer1-0"
       inkscape:label="Layer 1"
       transform="matrix(0.93394915,0,0,0.93394915,-28705.205,1572.5184)"
       style="display:inline;opacity:1;fill:#2b0000;fill-opacity:1">
      <g
         transform="matrix(1,0,0.01360376,1,22.926622,-34.36703)"
         inkscape:label="Layer 1"
         id="layer1-3"
         style="display:inline;fill:#2b0000;fill-opacity:1">
        <path
           style="display:inline;fill:#2b0000;fill-opacity:1"
           d="m 31595.683,-1124.7724 c -4.153,-4.2981 -5.913,-7.0378 -5.987,-9.3184 -0.303,-9.2713 1.336,-12.0406 8.348,-14.0958 2.42,-0.7092 4.998,-2.3383 5.73,-3.6194 0.893,-1.5665 1.527,-12.6774 1.938,-33.9074 l 0.612,-31.5773 -7.712,-1.8872 c -11.13,-2.7242 -13.803,-4.009 -14.999,-7.2049 -0.581,-1.5643 -1.58,-2.8472 -2.217,-2.851 -0.634,-0.012 -1.15,-0.7909 -1.143,-1.7489 0,-1.4109 0.813,-1.5768 4.233,-0.8735 6.138,1.2627 8.512,0.9771 15.478,-1.8618 l 6.246,-2.546 0.216,-40.0872 c 0.22,-41.854 -0.381,-48.6392 -4.615,-51.0413 -1.076,-0.6107 -6.741,-1.2233 -12.589,-1.3615 -9.072,-0.2133 -10.633,-0.5254 -10.63,-2.1189 0,-2.2547 9.451,-10.855 14.822,-13.5002 7.971,-3.9238 23.998,-10.8887 25.038,-10.8826 3.646,0.022 13.177,4.1047 11.006,8.6243 l 2.376,4.9815 12.602,0.075 c 20.96,0.125 35.783,5.5368 52.369,19.1233 6.66,5.4567 10.454,9.5652 12.879,13.9538 3.292,5.9528 3.436,6.7807 3.361,19.2876 l -0.08,13.0679 -5.402,10.7202 c -8.309,16.4896 -24.059,31.9454 -41.181,40.4114 -6.783,3.3553 -26.357,10.7148 -32.416,11.1999 l -4.232,0.7474 -0.147,24.581 c -0.147,24.3601 -0.126,24.6079 2.533,27.5058 1.472,1.6085 4.489,3.2752 6.702,3.7039 2.21,0.4286 4.583,1.4633 5.268,2.2986 0.873,1.0642 2.032,1.2257 3.872,0.5383 1.544,-0.5763 5.731,-0.5225 10.151,0.13 6.119,0.9039 8.22,0.7858 11.257,-0.6327 2.408,-1.1254 6.28,-1.6439 10.906,-1.4619 3.945,0.1544 8.315,-0.1 9.714,-0.5698 1.891,-0.634 2.538,-0.4207 2.531,0.8314 0,2.243 -1.768,3.4871 -8.318,5.8927 -3.011,1.1062 -5.722,2.6437 -6.023,3.4164 -0.305,0.7724 -2.6,2.2096 -5.104,3.1939 -2.499,0.9846 -5.291,2.5215 -6.194,3.4153 -0.905,0.8945 -5.889,2.892 -11.074,4.4393 -5.183,1.5475 -10.01,3.5114 -10.728,4.3651 -1.845,2.1978 -13.771,6.6314 -24.06,8.9441 -4.81,1.0816 -8.749,2.3979 -8.753,2.9252 0,0.5273 -2.414,0.937 -5.357,0.9104 -4.981,-0.053 -5.769,-0.4741 -11.238,-6.1365 z m 53.414,-120.001 c 17.774,-9.0736 36.878,-27.6594 41.854,-40.7238 4.081,-10.7075 2.844,-17.4699 -4.304,-23.5574 -7.844,-6.68 -28.379,-9.0549 -43.849,-5.0713 -12.114,3.1188 -11.326,0.4519 -11.556,39.0942 -0.187,30.8054 -0.03,33.6767 1.765,34.7151 2.707,1.5593 6.201,0.5913 16.09,-4.4568 z m 930.159,125.8671 c -4.151,-4.298 -5.913,-7.0379 -5.987,-9.3182 -0.301,-9.2714 1.339,-12.0409 8.35,-14.096 2.42,-0.7092 4.991,-2.3383 5.712,-3.6195 0.869,-1.5438 1.526,-12.9858 1.95,-33.9048 l 0.637,-31.5746 -7.72,-1.89 c -11.143,-2.7269 -13.817,-4.0106 -15.008,-7.2072 -0.586,-1.5643 -1.583,-2.8472 -2.218,-2.851 -0.635,-0.012 -1.15,-0.791 -1.146,-1.7488 0,-1.4112 0.812,-1.577 4.234,-0.8737 6.139,1.2628 8.509,0.9771 15.479,-1.8617 l 6.246,-2.5459 0.216,-40.0874 c 0.231,-41.8539 -0.383,-48.6391 -4.616,-51.0413 -1.075,-0.6107 -6.742,-1.2235 -12.591,-1.3614 -9.071,-0.2134 -10.633,-0.5255 -10.628,-2.1191 0,-2.2546 9.448,-10.8548 14.824,-13.5 7.971,-3.9241 23.995,-10.8887 25.039,-10.8825 3.603,0.022 8.846,4.0973 10.95,8.5145 l 2.324,4.8715 14.886,0.5466 c 12.738,0.4673 16.262,1.0266 24.446,3.8788 7.792,2.7154 20.448,9.8846 25.094,14.2138 0.515,0.4799 0.11,2.4567 -0.913,4.3927 -1.584,3.0225 -1.616,3.6102 -0.215,4.1548 0.894,0.3493 3.171,-0.1522 5.063,-1.1166 3.386,-1.7257 3.476,-1.6975 6.157,1.9276 6.241,8.4422 6.89,10.7885 6.807,24.6619 l -0.08,13.0678 -5.403,10.7202 c -8.309,16.4895 -24.061,31.9456 -41.18,40.4115 -6.784,3.3552 -26.43,10.1426 -32.416,11.1998 l -4.233,0.7475 -0.147,24.581 c -0.147,24.3603 -0.127,24.6077 2.531,27.5059 1.473,1.6082 4.488,3.2751 6.7,3.7038 2.213,0.4287 4.584,1.4632 5.271,2.2986 0.872,1.0642 2.032,1.2255 3.873,0.5384 1.544,-0.5765 5.728,-0.5227 10.15,0.13 6.118,0.9038 8.221,0.7858 11.257,-0.6328 2.406,-1.1253 6.275,-1.6437 10.905,-1.4617 3.944,0.1541 8.317,-0.1009 9.713,-0.57 1.892,-0.6338 2.54,-0.4208 2.532,0.8315 0,2.2429 -1.769,3.487 -8.318,5.8925 -3.012,1.1063 -5.725,2.6439 -6.025,3.4164 -0.302,0.7726 -2.598,2.2098 -5.1,3.1942 -2.505,0.9846 -5.292,2.5214 -6.198,3.4151 -0.904,0.8944 -5.887,2.8923 -11.071,4.4393 -5.182,1.5475 -10.012,3.5113 -10.728,4.3651 -1.848,2.1977 -13.774,6.6315 -24.059,8.9441 -4.811,1.0818 -8.751,2.398 -8.754,2.9253 0,0.5273 -2.415,0.9369 -5.361,0.9104 -4.979,-0.053 -5.766,-0.4741 -11.236,-6.1366 z m 51.629,-118.9962 c 3.679,-1.8107 9.21,-5.0016 12.287,-7.0911 3.077,-2.0898 6.948,-3.7913 8.604,-3.7815 2.461,0.018 3.058,-0.5404 3.282,-3.0392 0.152,-1.6815 0.992,-3.4557 1.874,-3.9427 3.543,-1.9548 15.338,-17.9573 17.586,-23.8586 4.085,-10.7235 2.855,-17.4829 -4.298,-23.573 -7.845,-6.6799 -28.378,-9.0548 -43.85,-5.071 -12.109,3.1186 -11.322,0.4517 -11.552,39.0938 -0.188,30.8056 -0.03,33.6768 1.764,34.7153 2.535,1.4602 6.03,0.6167 14.303,-3.452 z m -1739.588,39.6434 c -2.006,-0.457 -4.496,-2.5279 -6.634,-5.5195 -2.955,-4.137 -7.235,-6.7564 -3.883,-13.6824 l -0.46,-8.894 4.547,-2.5206 c 4.169,-2.3104 4.611,-3.0017 5.271,-8.2891 1.442,-11.5146 3.037,-37.9216 3.968,-65.6246 0.899,-26.851 1.059,-28.28 3.044,-27.7477 1.737,0.4655 2.099,-0.087 2.113,-3.2334 0,-2.087 -0.984,-5.4615 -2.207,-7.4983 -1.622,-2.695 -2.217,-5.6925 -2.187,-11.003 0.04,-6.7853 -0.124,-7.3002 -2.454,-7.314 -3.852,-0.024 -12.441,-3.6253 -14.937,-6.2637 -1.233,-1.303 -3.435,-6.0962 -4.9,-10.652 -3.629,-11.3226 -2.897,-13.0766 7.631,-18.2158 10.64,-5.1939 18.551,-5.9188 62.447,-5.6855 l 33.41,0.1757 2.284,2.8314 c 1.833,2.2721 2.567,2.5546 3.725,1.4311 1.958,-1.9028 3.248,-1.7516 3.233,0.3794 0,2.6947 4.855,1.5543 6.194,-1.4504 1.252,-2.8006 2.669,-2.8978 36.683,-2.5061 16.109,0.1867 23.001,1.7995 24.446,5.7243 0.392,1.0676 1.433,2.4864 2.308,3.1524 4.693,3.5646 -4.956,10.739 -18.869,14.0321 -4.575,1.083 -8.496,2.1426 -8.709,2.3549 -1.485,1.4651 -6.172,135.6728 -4.984,142.7106 0.767,4.5503 1.132,4.9841 4.547,5.3787 3.888,0.4487 12.572,6.653 12.559,8.9715 0,0.7397 -1.74,3.1547 -3.85,5.3669 -3.122,3.2712 -5.711,4.5309 -13.849,6.7443 -5.508,1.4965 -13.953,2.5527 -18.644,3.3648 l -8.634,0.6436 -3.956,-4.8874 c -7.932,-9.795 -7.694,-14.2627 1.141,-21.5585 4.928,-4.0688 5.04,-4.3105 5.079,-10.8679 0.01,-3.7196 0.542,-6.7037 1.167,-6.7 1.586,0 1.46,-7.5982 -0.14,-8.1398 -0.987,-0.3354 -0.998,-10.2522 -0.04,-40.3903 0.697,-21.9705 1.161,-48.0036 1.035,-57.8517 l -0.231,-17.906 -13.924,0.6316 c -7.657,0.3474 -20.7,1.5693 -28.985,2.7153 -8.287,1.1458 -18.226,0.9495 -20.863,2.783 l -5.802,0.6993 -0.719,6.9516 c -1.031,9.9748 -1.872,20.3724 -3.207,39.6247 -1.05,15.1187 -3.169,44.1654 -5.61,76.7846 -0.843,11.2725 -0.813,11.4757 2.002,14.1014 4.609,4.2968 5.971,5.2437 8.236,5.7234 1.19,0.2514 2.068,1.3121 1.972,2.3819 -0.09,1.0605 0.546,1.9325 1.417,1.9379 1.058,0 1.495,1.1089 1.312,3.326 -0.205,2.4053 -0.983,3.4904 -2.862,3.9493 -1.419,0.3481 -2.589,1.1175 -2.593,1.7098 0,2.2065 -7.621,4.8292 -19.714,6.7946 -13.273,2.1566 -13.027,2.1424 -17.93,1.0269 z m 916.975,-6.6445 c -2.404,-0.7344 -4.811,-6.6895 -4.485,-11.097 0.476,-6.3862 2.619,-9.6473 8.168,-12.4175 l 5.32,-2.6547 0.891,-9.9254 c 1.695,-18.8488 3.036,-71.8657 1.837,-72.6591 -0.625,-0.4138 -1.048,-2.9525 -0.938,-5.6414 0.111,-2.6891 -0.275,-5.6486 -0.854,-6.5768 -1.192,-1.9128 -8.47,-2.2858 -17.497,-0.8969 -4.234,0.652 -6.178,0.4668 -7.8,-0.7415 -2.111,-1.5735 -2.092,-1.7234 0.812,-6.5362 1.634,-2.7091 4.375,-6.3922 6.092,-8.1844 3.595,-3.7545 24.969,-14.0449 29.123,-14.0201 1.619,0 4.467,1.6184 6.791,3.8369 3.737,3.5654 4.001,4.2765 3.963,10.6653 -0.01,3.7645 0.466,7.1616 1.083,7.5486 1.118,0.7003 24.837,-10.2862 35.585,-16.4806 6.83,-3.9377 22.308,-9.6631 26.066,-9.6407 5.564,0.034 13.426,3.0039 17.023,6.4342 3.41,3.2495 3.709,4.0925 3.671,10.3816 -0.01,3.7648 0.41,7.1289 0.965,7.4761 0.556,0.3472 7.78,-2.4292 16.051,-6.1695 8.274,-3.7404 20.912,-9.0356 28.087,-11.7668 11.045,-4.2052 13.955,-4.8863 19.005,-4.448 5.862,0.5093 11.892,3.6795 12.173,6.4009 0.05,0.7085 0.202,2.0494 0.265,2.9797 0.07,0.9303 0.821,1.6957 1.668,1.7007 5.673,0.034 10.611,41.5507 7.12,59.8571 -0.642,3.3647 -2.23,13.7197 -3.529,23.0109 -1.302,9.2914 -3.155,20.1859 -4.121,24.2095 -1.142,4.752 -1.672,11.4646 -1.513,19.153 l 0.246,11.8368 -4.493,-0.1788 c -3.832,-0.1538 -5.189,-0.9613 -9.266,-5.5186 -4.688,-5.2418 -4.774,-5.4882 -4.728,-13.4332 0.02,-4.4514 1.179,-15.4276 2.558,-24.3915 3.11,-20.2164 3.973,-61.1924 1.546,-73.5935 -1.466,-7.4934 -1.586,-7.684 -4.466,-6.983 -5.96,1.451 -18.07,4.5557 -27.133,9.8806 -16.115,9.4673 -25.07,12.7727 -26.987,17.2212 -2.17,5.0252 -3.478,41.4272 -2.392,62.4592 -2.02,23.8847 -5.408,37.0527 -17.378,40.1837 -9.633,-3.0171 -7.096,-12.4713 -5.975,-25.5895 2.373,-15.4256 2.471,-28.9168 2.904,-41.982 0.05,-1.7771 0.63,-8.7381 -0.02,-18.0345 -0.576,-8.4152 -1.337,-20.2594 -1.691,-26.3206 -0.763,-13.1269 -1.872,-14.899 -8.783,-14.0452 -9.406,1.1617 -45.956,22.5271 -49.406,28.8812 -0.891,1.6448 -1.08,6.7702 -0.606,16.5784 0.386,7.9985 0.133,19.8545 -0.583,27.1525 -2.808,28.6906 -2.825,26.4769 0.204,28.1206 1.496,0.8122 5.673,2.0869 9.288,2.8327 7.591,1.5677 8.822,3.7227 3.746,6.5517 -1.874,1.0446 -3.413,2.684 -3.419,3.6429 0,0.9587 -0.518,1.74 -1.139,1.7363 -0.617,-0.012 -1.13,0.7412 -1.136,1.6552 -0.01,3.8145 -11.464,6.7275 -29.918,7.6172 -5.581,0.2693 -10.984,0.234 -12.006,-0.072 z m -724.448,-7.6537 c -11.98,-3.2986 -16.678,-8.658 -23.342,-26.6073 l -5.221,-14.06 0.104,-16.9068 c 0.145,-23.9063 4.923,-40.6699 16.467,-58.029 9.705,-14.592 19.363,-23.9131 30.314,-29.2573 12.664,-6.1804 20.598,-6.9175 27.883,-2.59 8.896,5.284 17.208,13.955 21.128,22.035 l 3.645,7.5163 -0.128,21.6962 -0.128,21.6961 -2.886,2.8529 c -2.073,2.0495 -4.937,3.1832 -10.169,4.0257 -7.789,1.255 -47.401,10.8453 -57.24,13.859 -4.854,1.4868 -5.933,2.2773 -5.944,4.3615 0,1.3999 -0.451,2.8113 -0.986,3.1363 -0.84,0.5129 0.694,6.1413 3.72,13.6481 1.443,3.5797 7.875,9.4575 11.314,10.343 4.099,1.0549 14.39,-1.0489 22.658,-4.632 6.468,-2.8024 23.218,-12.3713 28.509,-16.2864 3.339,-2.4724 6.477,-2.5452 7.781,-0.1793 0.694,1.2544 -0.214,4.1339 -3.001,9.5805 -3.159,6.1611 -4.411,7.6513 -5.998,7.1376 -2.962,-0.9595 -6.02,4.3501 -6.103,10.6011 l -0.07,5.1808 -10.28,5.0587 c -5.654,2.782 -12.938,5.6552 -16.187,6.3846 -7.731,1.7357 -18.337,1.5041 -25.85,-0.5648 z m 16.325,-82.0927 c 22.654,-4.9483 29.322,-7.2232 31.174,-10.6342 2.329,-4.2978 1.558,-27.8316 -1.05,-31.8595 -2.949,-4.5611 -4.58,-4.7406 -11.738,-1.2916 -9.929,4.7848 -24.348,19.8395 -31.786,33.1897 -5.414,9.7201 -7.715,16.7126 -4.941,15.0212 0.586,-0.3584 8.842,-2.3501 18.341,-4.4256 z m 240.13,83.3881 c -3.323,-1.5184 -4.674,-3.0127 -5.862,-6.4866 -2.158,-6.3238 -2.033,-6.9364 2.284,-11.2022 4.213,-4.1631 4.161,-3.8583 6.009,-35.5217 3.098,-53.0866 3.076,-52.3705 1.551,-53.5352 -0.822,-0.6271 -1.836,-4.0175 -2.253,-7.5347 -0.752,-6.3274 -0.805,-6.4024 -5.003,-7.137 -2.334,-0.4087 -7.581,-0.1808 -11.661,0.5038 -8.256,1.387 -12.139,0.2919 -12.116,-3.4169 0.01,-3.9309 13.511,-16.1006 23.406,-21.1213 9.829,-4.9862 14.351,-5.6635 19.561,-2.9304 4.851,2.5454 6.739,6.0302 6.718,12.4143 -0.03,9.3528 0,9.356 17.411,1.7601 8.582,-3.7461 21.51,-9.0621 28.725,-11.8135 11.728,-4.4714 13.824,-4.936 19.769,-4.3786 8.598,0.8062 11.645,3.1388 15.992,12.236 8.43,17.636 8.95,48.8017 1.488,88.9526 -1.245,6.7069 -2.075,17.2121 -2.225,28.1658 -0.221,16.6732 -0.346,17.4842 -2.541,17.7851 -3.456,0.474 -9.598,-4.2769 -13.237,-10.2415 l -3.234,-5.3016 1.324,-10.661 c 0.727,-5.8636 1.41,-25.643 1.52,-43.9547 0.187,-30.797 -0.835,-47.7664 -3.088,-51.4609 -1.941,-3.1836 -24.697,7.0542 -44.327,19.943 -6.674,4.3842 -12.702,9.0098 -13.392,10.2792 -0.839,1.5487 -1.046,7.1934 -0.623,17.16 0.414,9.7205 0,21.8393 -1.198,35.0751 -1.192,13.1631 -1.45,20.6864 -0.746,21.5488 0.6,0.7294 3.361,1.5958 6.141,1.9257 6.65,0.79 8.089,2.1423 7.486,7.0466 -0.448,3.6356 -1.105,4.2754 -7.432,7.224 -8.461,3.9429 -18.018,6.7682 -22.665,6.7006 -1.904,-0.036 -5.403,-0.9378 -7.782,-2.0229 z m 158.851,1.1828 c -11.56,-3.1836 -16.675,-8.75 -22.467,-24.4518 -5.801,-15.7295 -7.199,-24.5106 -6.256,-39.2858 1.713,-26.8042 11.154,-48.3481 29.994,-68.4566 5.958,-6.3555 9.457,-8.9543 17.062,-12.6664 12.665,-6.1804 20.6,-6.9173 27.886,-2.5898 8.894,5.2838 22.442,13.1512 21.126,22.0351 l 3.647,7.5163 -0.129,21.6961 -0.129,21.6958 -2.884,2.8531 c -2.073,2.0494 -4.937,3.1832 -10.172,4.0259 -7.787,1.2545 -47.399,10.845 -57.237,13.8591 -4.854,1.4866 -5.933,2.277 -5.946,4.361 0,1.4003 -0.45,2.8113 -0.984,3.1363 -0.842,0.5134 0.694,6.1416 3.718,13.6483 1.447,3.5797 7.876,9.4575 11.317,10.3431 4.098,1.0547 14.389,-1.0492 22.658,-4.6319 6.466,-2.8026 23.217,-12.3716 28.506,-16.2866 3.34,-2.4725 6.477,-2.5451 7.782,-0.1794 0.695,1.2546 -0.214,4.1342 -3.001,9.5808 -3.16,6.1611 -4.411,7.6512 -5.998,7.1375 -2.963,-0.9597 -1.832,6.0369 -6.103,10.6012 l -0.08,5.1806 -10.281,5.0588 c -5.655,2.782 -12.941,5.6549 -16.189,6.3845 -7.73,1.7359 -18.335,1.5041 -25.85,-0.5649 z m 16.326,-82.093 c 22.652,-4.948 29.32,-7.223 31.17,-10.6343 2.332,-4.2977 1.558,-27.8315 -1.048,-31.8593 -2.951,-4.5612 -4.58,-4.7405 -11.739,-1.2914 -9.928,4.7845 -24.346,19.8394 -31.785,33.1896 -5.416,9.7199 -7.714,16.7124 -4.943,15.0211 0.588,-0.3583 8.844,-2.35 18.345,-4.4257 z m 731.333,86.4161 c -4.214,-1.7621 -5.45,-4.4054 -5.406,-11.5884 0.01,-3.6637 7.214,-12.4177 10.187,-12.4001 1.283,0 2.335,-1.1256 2.832,-3.0511 0.433,-1.6849 0.865,-22.1875 0.953,-45.5614 0.124,-33.4497 0.471,-42.8136 1.642,-43.9813 2.053,-2.0661 1.781,-7.5871 -0.455,-9.2431 -1.544,-1.143 -2.047,-5.1464 -2.96,-23.5002 -0.605,-12.1679 -1.096,-22.6736 -1.092,-23.3469 0,-0.6729 -0.945,-1.2294 -2.108,-1.2364 -6.013,-0.036 -15.562,-6.5166 -18.763,-12.7366 -2.787,-5.4122 -1.964,-9.5562 2.928,-14.7351 l 4.457,-4.7204 9.377,0.1321 c 18.061,0.255 23.294,4.9205 43.532,38.828 2.147,3.5997 6.81,10.7316 10.362,15.8484 3.551,5.1172 6.72,10.9512 7.041,12.9649 1.382,8.6275 1.443,8.7385 4.802,8.7586 3.386,0.021 3.814,0.5825 21.212,27.9736 4.876,7.6766 6.859,9.7367 6.876,7.1404 0,-1.7704 20.109,-44.1111 28.016,-59.0137 3.93,-7.4158 10.351,-19.5511 14.263,-26.9668 11.538,-21.8714 17.127,-27.7947 27.137,-28.7487 3.029,-0.289 4.165,0.1412 5.054,1.9139 0.652,1.2919 2.001,2.1239 3.105,1.9124 1.073,-0.205 3.085,0.429 4.47,1.4104 1.385,0.9814 3.923,1.7929 5.644,1.8031 2.033,0.016 3.13,0.6123 3.125,1.7093 0,0.9297 -0.698,1.6866 -1.537,1.6816 -0.841,-0.013 -2.943,1.2867 -4.673,2.8704 -2.313,2.118 -2.815,3.2142 -1.896,4.1439 0.919,0.9297 0.827,1.7282 -0.35,3.0171 -3.244,3.5558 -7.191,59.3145 -8.701,122.881 -0.825,34.8814 -0.388,45.2701 1.867,44.928 0.691,-0.1051 2.521,0.1577 4.068,0.5811 1.548,0.4239 3.829,0.9154 5.065,1.0918 1.239,0.176 2.887,0.7204 3.657,1.2083 1.573,0.9943 1.913,5.2666 0.42,5.2575 -0.528,0 -2.485,1.3803 -4.349,3.0739 -6.902,6.2722 -8.923,7.418 -16.535,9.368 -13.308,3.4088 -17.626,3.57 -23.547,0.8803 -6.293,-2.8581 -9.883,-7.0909 -9.857,-11.6175 0.02,-4.4964 1.739,-7.307 5.676,-9.3121 3.975,-2.0265 4.776,-5.2339 5.156,-20.6946 0.256,-10.8219 1.016,-15.5195 3.167,-19.9292 1.636,-3.3505 0.849,-10.1384 -1.13,-9.7271 -1.333,0.2775 -1.435,-4.2356 -0.656,-29.3103 0.507,-16.3011 1.225,-33.948 1.595,-39.2154 l 0.673,-9.5768 -5.167,8.9863 c -2.843,4.9428 -9.352,18.5991 -14.462,30.3475 -13.646,31.3654 -20.83,45.3256 -26.745,51.9719 -4.577,5.1435 -5.776,5.8831 -9.485,5.861 -5.07,-0.03 -7.023,-2.0096 -8.959,-9.0707 -1.713,-6.2575 -14.131,-32.7874 -20.364,-43.5175 -5.231,-9.0065 -23.4,-39.0269 -23.619,-39.0279 -0.07,-2e-4 -0.395,26.2466 -0.687,58.3267 -0.529,57.1975 -0.49,58.3755 1.735,60.7989 1.253,1.3593 4.216,2.8116 6.589,3.2271 5.407,0.9465 7.694,3.3065 4.768,4.9205 -1.123,0.6199 -1.841,1.5442 -1.598,2.0542 0.448,0.9335 -3.053,3.0018 -7.238,4.2769 -2.098,0.6387 -2.121,0.7678 -0.294,1.8068 4.942,2.8127 1.073,4.9241 -14.174,7.7346 -13.423,2.4745 -18.982,2.506 -24.644,0.1384 z m -1060.506,-8.8971 c -2.811,-2.8427 -3.813,-6.9223 -2.883,-11.7258 0.591,-3.0425 1.553,-4.0872 4.986,-5.4119 l 4.255,-1.6414 0.279,-7.23 c 0.144,-3.9764 0.897,-13.7675 1.654,-21.7584 1.303,-13.7348 1.108,-38.7597 -0.476,-61.2203 l -0.653,-9.2554 -4.644,-0.6703 c -2.556,-0.3685 -7.439,-0.2179 -10.853,0.3343 -7.146,1.1569 -7.899,0.9282 -7.075,-2.1496 0.675,-2.5169 -2.431,-3.2997 -3.432,-0.8647 -0.315,0.7731 -0.61,0.2032 -0.648,-1.2646 -0.117,-4.4239 12.429,-15.5645 23.992,-21.2956 l 9.864,-4.8881 5.918,2.2738 c 7.117,2.7339 10.604,7.2996 11.603,15.1866 0.382,3.0273 0.892,5.5055 1.128,5.5068 0.238,7e-4 6.901,-2.8121 14.802,-6.2526 7.903,-3.4406 20.229,-8.4894 27.389,-11.22 11.626,-4.434 13.73,-4.8981 19.672,-4.341 8.595,0.8061 11.644,3.1386 15.992,12.2359 6.399,13.3925 8.406,36.7604 5.176,60.3035 -0.93,6.7743 -2.29,18.6538 -3.023,26.3987 -0.734,7.745 -2.097,18.0642 -3.031,22.9316 -0.931,4.8673 -1.72,12.8338 -1.749,17.7028 -0.04,7.6993 -0.347,9.0083 -2.314,10.0458 -2.805,1.4805 -5.422,0.1981 -9.433,-4.6265 -4.872,-5.8615 -4.666,-1.9209 -3.112,-59.1522 1.039,-38.414 0.332,-55.6655 -2.484,-60.279 -2.007,-3.2912 -26.558,7.8887 -45.846,20.8778 l -11.262,7.5844 -0.702,23.3237 c -0.678,22.4805 -0.794,23.3861 -3.209,25.0551 -2.024,1.3984 -2.313,2.246 -1.507,4.4045 0.547,1.47 0.689,2.9768 0.312,3.3485 -0.374,0.3712 0,0.6791 0.796,0.684 1.145,0 1.301,1.7697 0.696,7.8871 -0.918,9.2693 0.427,11.4403 8.443,13.6343 9.262,2.5363 9.96,5.561 2.521,10.9618 -6.074,4.413 -17.1,6.9351 -29.979,6.8583 -7.402,-0.044 -9.325,-0.4391 -11.156,-2.2919 z m 919.049,6.6402 c -2.788,-1.2039 -5.998,-5.4539 -6.008,-7.9557 -0.01,-4.9291 -1.595,-4.9586 -13.834,-0.2582 -16.713,6.4193 -25.382,8.1951 -36.919,7.5609 -18.923,-1.0401 -28.094,-10.3168 -28.008,-28.3317 0.07,-11.936 8.934,-28.8347 19.034,-36.2519 9.079,-6.6669 33.835,-18.1792 45.495,-21.1579 5.865,-1.4981 11.39,-3.4434 12.283,-4.3234 1.364,-1.3495 1.423,-3.335 0.377,-12.7011 -0.683,-6.1058 -2.1,-12.8817 -3.151,-15.0577 l -1.905,-3.9566 -9.417,-0.2771 c -8.728,-0.2588 -10.018,0.01 -17.672,3.6888 -4.545,2.1823 -11.86,6.6767 -16.26,9.9882 -4.402,3.3113 -8.472,6.0177 -9.05,6.0142 -0.577,-0.012 -2.97,2.6324 -5.316,5.8578 -3.86,5.3052 -4.362,5.6477 -5.264,3.5919 -0.733,-1.6751 0.02,-4.6249 2.857,-11.2264 5.404,-12.5564 8.881,-17.5259 16.836,-24.0658 8.844,-7.2721 18.114,-11.8627 27.203,-13.4786 17.433,-3.0975 34.83,7.5537 39.735,24.326 2.709,9.2629 3.714,18.916 4.401,42.245 0.353,11.9362 1.004,21.7041 1.45,21.7068 0.447,0 1.449,-0.7523 2.226,-1.6775 0.778,-0.9254 2.179,-1.6776 3.112,-1.6721 2.554,0.019 0.919,8.1748 -3.218,16.0592 -4.94,9.4164 -4.519,13.7773 0.963,9.966 3.136,-2.1814 15.05,-7.9144 16.425,-7.9062 0.45,0 1.584,-0.7512 2.518,-1.6758 2.157,-2.1294 4.926,-2.1579 4.913,-0.052 0,0.8861 -2.085,4.6985 -4.625,8.4718 -3.17,4.7092 -4.952,8.843 -5.686,13.1849 -1.328,7.8552 -3.78,10.5519 -14.122,15.5226 -8.563,4.1149 -15.535,5.4974 -19.373,3.8415 z m -40.647,-25.5589 c 15.556,-2.8851 29.29,-9.7146 33.703,-16.7601 3.3,-5.2695 3.128,-12.3287 -0.384,-15.8857 -1.517,-1.5307 -3.837,-2.7895 -5.164,-2.7975 -1.464,0 -2.637,-0.9019 -2.988,-2.2721 -0.689,-2.7016 -2.271,-2.8823 -4.871,-0.5574 -1.053,0.9427 -2.876,1.912 -4.045,2.1539 -7.614,1.5719 -13.545,4.2994 -18.593,8.5464 -13.492,11.3515 -17.339,15.1496 -18.804,18.5693 -2.04,4.7578 -1.976,5.5281 0.677,8.212 2.725,2.7575 8.636,2.9858 20.469,0.7912 z m 424.206,24.9785 c -18.192,-3.9014 -33.923,-20.0526 -38.152,-39.1711 -2.092,-9.4584 -2.06,-27.8998 0.07,-39.4381 2.816,-15.2659 10.993,-32.3569 19.153,-40.0335 5.751,-5.411 20.984,-14.7534 25.614,-15.709 2.275,-0.4698 8.448,-0.8288 13.721,-0.7971 23.827,0.142 35.221,9.4402 43.827,35.7671 5.636,17.2405 5.62,35.4271 -0.04,55.5126 -1.359,4.8124 -2.346,6.4673 -3.852,6.4584 -1.114,0 -3.12,1.366 -4.46,3.0506 l -2.441,3.0626 2.415,1.9788 2.414,1.9788 -3.162,5.7258 c -4.338,7.86 -15.526,17.9487 -22.651,20.4286 -7.77,2.7032 -22.815,3.2531 -32.453,1.1855 z m 23.08,-24.3887 c 4.62,-1.0179 7.345,-2.4732 10.565,-5.643 8.758,-8.6204 11.716,-21.3889 10.738,-46.3046 -0.823,-20.8968 -0.823,-20.8611 0.15,-25.4135 0.724,-3.4006 0.61,-3.7487 -0.843,-2.5588 -1.33,1.091 -2.3,1.0844 -4.667,-0.028 -1.645,-0.775 -2.99,-1.9752 -2.991,-2.6672 0,-0.692 -2.397,-3.165 -5.328,-5.4954 -5.108,-4.0598 -5.603,-4.2116 -11.829,-3.6187 -7.386,0.7026 -14.059,3.6783 -18.372,8.1871 -4.513,4.722 -10.438,15.9967 -11.285,21.4841 -0.478,3.097 -2.153,6.6378 -4.524,9.5539 -5.442,6.7014 -6.562,10.5294 -2.903,9.9317 1.463,-0.2392 1.923,1.1945 2.418,7.5457 0.835,10.7025 9.218,29.2757 14.522,32.1697 7.855,4.2867 14.396,5.0549 24.353,2.8606 z m 210.69,19.7306 c -6.031,-1.3259 -6.712,-2.1299 -6.678,-7.892 0.02,-4.763 0.561,-5.8528 5.194,-10.6278 2.835,-2.9266 4.854,-5.8214 4.479,-6.4329 -0.371,-0.6116 0.133,-2.2355 1.094,-3.6086 2.002,-2.8212 2.423,-8.754 0.626,-8.7648 -0.803,-0.012 -1.05,-10.6211 -0.77,-33.107 0.226,-18.2049 0.06,-33.6763 -0.371,-34.3807 -0.43,-0.7047 -2.454,-1.2909 -4.502,-1.3029 -2.046,-0.017 -6.069,-0.3583 -8.935,-0.7685 -5.01,-0.717 -5.202,-0.8833 -4.923,-4.2562 0.276,-3.3269 0.09,-3.4928 -3.374,-3.178 -2.017,0.1828 -3.656,-0.081 -3.64,-0.5854 0.03,-1.2705 7.746,-7.4705 11.955,-9.6153 1.911,-0.9733 4.203,-2.6402 5.096,-3.7043 3.028,-3.6167 12.533,-7.1264 19.122,-7.0606 6.493,0.068 8.428,1.0052 11.574,5.6269 1.625,2.3891 1.884,5.8459 1.778,23.6333 l -0.125,20.8351 7.081,-11.1814 c 9.207,-14.5414 26.619,-32.0386 37.047,-37.2323 9.838,-4.8989 11.912,-4.7269 14.933,1.2388 2.651,5.2374 5.276,16.1643 5.304,22.0823 0.01,3.0831 -0.365,3.6701 -2.181,3.3683 -1.212,-0.2019 -2.923,0.6062 -3.802,1.794 -1.57,2.1087 -1.728,2.0877 -6.733,-0.8855 -2.82,-1.675 -5.945,-3.0503 -6.946,-3.0562 -3.202,-0.019 -12.603,9.8298 -18.615,19.4999 -3.206,5.1566 -5.83,9.8457 -5.833,10.4196 0,0.5741 3.688,2.155 8.209,3.5133 17.599,5.2923 28.341,22.2087 30.357,47.8074 0.591,7.5213 1.451,10.8329 3.987,15.3777 1.78,3.186 3.227,6.5641 3.222,7.5072 -0.02,3.1608 -3.675,3.1911 -9.733,0.08 -8.849,-4.5434 -12.579,-11.0024 -14.904,-25.8068 -0.673,-4.2992 -1.738,-8.7888 -2.366,-9.9767 -2.222,-4.2134 -9.262,-11.22 -13.446,-13.3866 -6.062,-3.1384 -14.488,-3.0053 -17.995,0.2841 -5.761,5.4037 -6.101,6.3633 -6.759,18.969 -0.667,12.7779 -0.475,13.3658 4.369,13.3946 3.46,0.021 7.925,4.4315 7.905,7.8075 0,2.6055 -0.945,3.5349 -5.953,5.9512 -3.266,1.5751 -8.043,3.949 -10.617,5.2758 -5.132,2.6471 -17.35,3.834 -24.132,2.3436 z m 259.345,1.409 c -5.331,-1.7322 -9.25,-6.5188 -11.904,-14.5344 -2.382,-7.1906 -2.45,-8.5596 -1.625,-32.883 0.472,-13.9591 1.236,-33.5311 1.696,-43.4938 l 0.833,-18.1134 -6.641,1.0412 c -8.785,1.3776 -14.493,-0.808 -15.593,-5.9717 -0.647,-3.0291 -0.25,-3.889 3.027,-6.5356 2.072,-1.6761 5.391,-4.698 7.375,-6.7153 2.568,-2.6163 6.882,-4.8113 15.039,-7.6577 11.743,-4.0963 15.171,-4.2507 18.55,-0.8332 2.138,2.1636 2.206,14.5913 0.293,52.333 -0.711,13.9443 -1.398,32.8508 -1.531,42.0144 -0.326,22.726 -0.479,22.6313 24.896,15.6911 7.142,-1.9532 15.523,-4.0728 18.627,-4.7102 9.629,-1.9774 8.574,4.5247 10.465,-64.518 0.49,-17.9226 0.97,-22.4853 2.942,-27.9936 2.87,-8.0068 6.63,-14.2178 8.602,-14.2062 1.849,0.015 4.36,2.999 3.574,4.2526 -0.325,0.5199 -0.175,1.6305 0.338,2.4685 0.747,1.2277 1.707,1.0479 4.941,-0.9237 l 4.015,-2.4473 0.69,3.8069 c 0.395,2.1829 -0.04,6.4104 -1.031,9.9106 -1.207,4.2855 -1.945,14.3293 -2.481,33.7147 -0.417,15.1861 -1.052,33.9468 -1.408,41.6908 -0.609,13.2065 -0.501,14.2381 1.724,16.6361 1.75,1.8826 3.65,2.5639 7.212,2.5851 3.802,0.022 5.684,0.7818 8.798,3.5507 5.624,4.9975 5.37,8.5979 -0.883,12.4473 -15.504,9.5478 -33.542,8.9604 -37.152,-1.2098 -1.461,-4.1212 -1.655,-4.2008 -6.148,-2.5137 -1.749,0.6571 -10.231,2.9131 -18.852,5.013 -8.619,2.1001 -17.674,4.8248 -20.121,6.0551 -5.198,2.612 -13.629,3.5579 -18.267,2.0495 z m -132.023,-4.6964 c -4.609,-1.6742 -6.761,-3.9105 -8.495,-8.8257 -1.264,-3.5828 -0.398,-4.7676 5.943,-8.1291 l 4.16,-2.2054 0,-24.052 c 0.01,-16.6002 0.39,-24.4451 1.276,-25.3211 1.656,-1.6348 1.708,-8.3371 0.09,-9.36 -0.841,-0.5271 -1.094,-4.8811 -0.767,-13.2659 l 0.487,-12.4812 -3.941,-0.8538 c -2.168,-0.4697 -6.358,-1.184 -9.316,-1.587 -4.705,-0.6414 -5.559,-1.182 -6.831,-4.3319 -1.3,-3.2189 -1.206,-3.9316 0.89,-6.749 2.919,-3.9211 15.432,-10.7624 26.961,-14.7412 8.131,-2.8067 8.922,-2.8914 11.431,-1.2268 2.351,1.5608 4.467,1.6418 16.64,0.6384 12.044,-0.9931 14.787,-0.8952 20.133,0.7188 8.309,2.5093 12.748,5.4534 16.837,11.1697 7.052,9.8556 8.313,24.1187 3.154,35.6433 l -2.143,4.7873 3.673,1.5612 c 5.499,2.3361 11.73,10.4351 15.346,19.9491 6.601,17.3717 -1.908,32.3964 -7.196,38.2807 -5.015,5.5946 -11.214,9.149 -17.672,11.5218 -25.148,9.1748 -58.319,13.335 -70.637,8.86 z m 43.345,-24.6768 c 24.014,-3.5561 37.232,-9.5919 37.325,-22.5372 0.03,-5.1407 -0.442,-6.4634 -3.595,-9.8937 -6.577,-7.1533 -20.484,-7.2703 -38.237,-0.3207 -3.933,1.5396 -9.247,3.1164 -11.807,3.5039 l -4.652,0.705 -0.757,6.1259 c -0.416,3.3691 -1.11,10.6835 -1.538,16.2541 l -0.778,10.1279 4.964,-0.6768 c 2.733,-0.3725 15.196,-2.5703 19.075,-3.2884 3.878,-0.7183 0,-7e-4 0,-7e-4 z m -1.017,-56.5234 c 15.143,-4.5589 19.267,-8.4857 20.382,-19.4036 0.442,-4.331 0.07,-5.6934 -2.477,-8.7395 -4.561,-5.4851 -10.227,-6.6142 -21.995,-4.3823 -5.276,1.001 -9.91,2.1684 -10.299,2.5949 -0.84,0.9194 -2.411,32.4105 -1.654,33.1751 0.821,0.8336 5.932,-0.1999 16.043,-3.2446 z m 216.38,20.711 c 1.469,-26.6323 0.274,-46.0027 -0.875,-45.3201 -0.491,0.2928 -4.787,0.8183 -9.546,1.1676 -8.107,0.5944 -8.783,0.469 -10.698,-1.9784 -1.124,-1.4372 -2.947,-2.9642 -4.059,-3.3937 -3.024,-1.171 -0.872,-4.2525 8.033,-11.51 7.872,-6.4142 13.97,-8.9155 24.637,-10.1049 10.043,-1.12 16.466,4.8472 14.499,13.4699 -0.46,2.0208 -1.021,7.2235 -1.244,11.5618 -0.216,4.3383 -0.655,9.5346 -0.962,11.5476 -0.309,2.0414 -0.05,3.6629 0.57,3.6667 0.708,0.012 -0.622,5.1167 -0.959,12.947 -0.414,9.6249 2.612,12.8463 5.254,11.9292 2.878,-1 7.406,-3.1547 15.651,-4.4048 15.957,-2.4201 22.007,-3.461 26.037,-4.4794 l 4.031,-1.0199 1.542,-23.3263 c 0.878,-13.2731 2.182,-24.8297 3.027,-26.815 2.336,-5.5054 8.308,-9.8802 12.345,-9.0479 4.285,0.8838 5.883,2.2725 9.148,7.9482 2.566,4.4592 2.6,4.8414 1.015,11.3675 -0.902,3.7143 -2.501,16.639 -3.555,28.7216 -1.533,17.5813 -1.539,22.1066 -3.194,26.2163 -3.267,2.1477 -3.232,4.4938 -0.529,6.977 0.511,1.7783 -1.825,26.1585 -2.058,38.7687 1.85,0.9203 7.274,1.5189 11.52,2.8802 2.538,0.8143 4.519,4.6853 4.779,5.5787 1.536,5.4187 -14.091,11.3384 -18.302,11.3134 -4.662,-0.028 -13.249,-0.7046 -17.259,-6.529 0,0 -1.467,-9.5974 -1.396,-16.3345 0.07,-6.7372 0.254,-12.3413 0.254,-12.3413 l 1.397,-25.3741 -4.199,0.7434 c -5.506,0.8187 -28.534,6.1996 -38.401,8.9742 l -6.335,1.7815 c -6.786,1.2368 -19.236,-2.6603 -20.168,-15.5812 z"
           id="path4839-6"
           inkscape:connector-curvature="0"
           sodipodi:nodetypes="csscscscsscscscscssscsssscssscsscscccsssssccscsscccssssscsccccscccsscscscscssccsscscccscssscssccccsscsscccscssccccssccsssscccssccsssccsssssscscsssscscscsscscsssscsscscscssssccsscssccccccsccccsssssscsscscsssccssssccccssscscccccssscsscscsssscccscssssscccccsscsssscssscccccscscscscscscscssssssscssssscsssssssccsscccsssssscccccsscsssscssscccccscscscscsscsccsssccccsscsssssccscsssssssccscscsssssccscccssssccsccccccccccsccsssccsscssccssssssssssssscscscccsssssccssscssscccsccscscsssssssscssssccccsccscscsccsccssssscsscccccsccsccccssccccsscccscccsscssssccsccsccssccccscsssssssccscssccccscccsccsscsscssssccccccsssssscsssccccscccscscccscsssccccscccccscsccscccczsscscccssscsscscssccscsccscccccccccsccszcscscc" />
      </g>
    </g>
  </g>
</svg>
