<?xml version="1.0" encoding="UTF-8" standalone="no"?>
<!-- Created with Inkscape (http://www.inkscape.org/) -->

<svg
   xmlns:dc="http://purl.org/dc/elements/1.1/"
   xmlns:cc="http://creativecommons.org/ns#"
   xmlns:rdf="http://www.w3.org/1999/02/22-rdf-syntax-ns#"
   xmlns:svg="http://www.w3.org/2000/svg"
   xmlns="http://www.w3.org/2000/svg"
   xmlns:xlink="http://www.w3.org/1999/xlink"
   xmlns:sodipodi="http://sodipodi.sourceforge.net/DTD/sodipodi-0.dtd"
   xmlns:inkscape="http://www.inkscape.org/namespaces/inkscape"
   id="svg2"
   version="1.1"
   inkscape:version="0.48.4 r9939"
   width="2481"
   height="3503"
   sodipodi:docname="Pepper-and-Carrot_by-David-Revoy_E06P06.svg">
  <metadata
     id="metadata8">
    <rdf:RDF>
      <cc:Work
         rdf:about="">
        <dc:format>image/svg+xml</dc:format>
        <dc:type
           rdf:resource="http://purl.org/dc/dcmitype/StillImage" />
        <dc:title />
      </cc:Work>
    </rdf:RDF>
  </metadata>
  <defs
     id="defs6">
    <filter
       color-interpolation-filters="sRGB"
       id="filter4375-4-1-1"
       inkscape:label="deevad outline effect">
      <feFlood
         id="feFlood4377-7-9-0"
         flood-opacity="1"
         flood-color="rgb(0,0,0)"
         result="flood" />
      <feComposite
         id="feComposite4379-3-8-8"
         in2="SourceGraphic"
         in="flood"
         operator="in"
         result="composite1" />
      <feMorphology
         id="feMorphology4393-1-0-49"
         operator="dilate"
         radius="4"
         result="result3" />
      <feComposite
         id="feComposite4385-9-5-7"
         in2="result3"
         in="SourceGraphic"
         operator="over"
         result="composite2" />
    </filter>
    <filter
       color-interpolation-filters="sRGB"
       id="filter4375-4-1-1-1"
       inkscape:label="deevad outline effect">
      <feFlood
         id="feFlood4377-7-9-0-2"
         flood-opacity="1"
         flood-color="rgb(0,0,0)"
         result="flood" />
      <feComposite
         id="feComposite4379-3-8-8-5"
         in2="SourceGraphic"
         in="flood"
         operator="in"
         result="composite1" />
      <feMorphology
         id="feMorphology4393-1-0-49-5"
         operator="dilate"
         radius="4"
         result="result3" />
      <feComposite
         id="feComposite4385-9-5-7-4"
         in2="result3"
         in="SourceGraphic"
         operator="over"
         result="composite2" />
    </filter>
    <filter
       color-interpolation-filters="sRGB"
       id="filter4375-4-1-1-15"
       inkscape:label="deevad outline effect">
      <feFlood
         id="feFlood4377-7-9-0-4"
         flood-opacity="1"
         flood-color="rgb(0,0,0)"
         result="flood" />
      <feComposite
         id="feComposite4379-3-8-8-6"
         in2="SourceGraphic"
         in="flood"
         operator="in"
         result="composite1" />
      <feMorphology
         id="feMorphology4393-1-0-49-8"
         operator="dilate"
         radius="4"
         result="result3" />
      <feComposite
         id="feComposite4385-9-5-7-2"
         in2="result3"
         in="SourceGraphic"
         operator="over"
         result="composite2" />
    </filter>
    <filter
       color-interpolation-filters="sRGB"
       id="filter4375-4-1-1-8"
       inkscape:label="deevad outline effect">
      <feFlood
         id="feFlood4377-7-9-0-26"
         flood-opacity="1"
         flood-color="rgb(0,0,0)"
         result="flood" />
      <feComposite
         id="feComposite4379-3-8-8-51"
         in2="SourceGraphic"
         in="flood"
         operator="in"
         result="composite1" />
      <feMorphology
         id="feMorphology4393-1-0-49-6"
         operator="dilate"
         radius="4"
         result="result3" />
      <feComposite
         id="feComposite4385-9-5-7-1"
         in2="result3"
         in="SourceGraphic"
         operator="over"
         result="composite2" />
    </filter>
    <filter
       color-interpolation-filters="sRGB"
       id="filter4375-4-1-1-9"
       inkscape:label="deevad outline effect">
      <feFlood
         id="feFlood4377-7-9-0-25"
         flood-opacity="1"
         flood-color="rgb(0,0,0)"
         result="flood" />
      <feComposite
         id="feComposite4379-3-8-8-3"
         in2="SourceGraphic"
         in="flood"
         operator="in"
         result="composite1" />
      <feMorphology
         id="feMorphology4393-1-0-49-2"
         operator="dilate"
         radius="4"
         result="result3" />
      <feComposite
         id="feComposite4385-9-5-7-9"
         in2="result3"
         in="SourceGraphic"
         operator="over"
         result="composite2" />
    </filter>
    <filter
       color-interpolation-filters="sRGB"
       id="filter4375-4-1-1-19"
       inkscape:label="deevad outline effect">
      <feFlood
         id="feFlood4377-7-9-0-6"
         flood-opacity="1"
         flood-color="rgb(0,0,0)"
         result="flood" />
      <feComposite
         id="feComposite4379-3-8-8-2"
         in2="SourceGraphic"
         in="flood"
         operator="in"
         result="composite1" />
      <feMorphology
         id="feMorphology4393-1-0-49-7"
         operator="dilate"
         radius="4"
         result="result3" />
      <feComposite
         id="feComposite4385-9-5-7-6"
         in2="result3"
         in="SourceGraphic"
         operator="over"
         result="composite2" />
    </filter>
    <filter
       color-interpolation-filters="sRGB"
       id="filter4375-4-1-1-15-1"
       inkscape:label="deevad outline effect">
      <feFlood
         id="feFlood4377-7-9-0-4-4"
         flood-opacity="1"
         flood-color="rgb(0,0,0)"
         result="flood" />
      <feComposite
         id="feComposite4379-3-8-8-6-0"
         in2="SourceGraphic"
         in="flood"
         operator="in"
         result="composite1" />
      <feMorphology
         id="feMorphology4393-1-0-49-8-2"
         operator="dilate"
         radius="0.321"
         result="result3" />
      <feComposite
         id="feComposite4385-9-5-7-2-1"
         in2="result3"
         in="SourceGraphic"
         operator="over"
         result="composite2" />
    </filter>
  </defs>
  <sodipodi:namedview
     pagecolor="#ffffff"
     bordercolor="#666666"
     borderopacity="1"
     objecttolerance="10"
     gridtolerance="10"
     guidetolerance="10"
     inkscape:pageopacity="0"
     inkscape:pageshadow="2"
     inkscape:window-width="1366"
     inkscape:window-height="700"
     id="namedview4"
     showgrid="false"
     inkscape:zoom="0.32918954"
     inkscape:cx="1833.5289"
     inkscape:cy="517.89735"
     inkscape:window-x="-6"
     inkscape:window-y="43"
     inkscape:window-maximized="1"
     inkscape:current-layer="layer1" />
  <g
     inkscape:groupmode="layer"
     id="layer2"
     inkscape:label="artwork"
     sodipodi:insensitive="true">
    <image
       sodipodi:absref="/home/juanjo/Imágenes/Comics-Revoy/6/lang/es/../gfx_Pepper-and-Carrot_by-David-Revoy_E06P06.png"
       xlink:href="../gfx_Pepper-and-Carrot_by-David-Revoy_E06P06.png"
       y="0"
       x="0"
       id="image10"
       height="3503"
       width="2481" />
  </g>
  <g
     inkscape:groupmode="layer"
     id="layer3"
     inkscape:label="speechbubbles" />
  <g
     inkscape:groupmode="layer"
     id="layer1"
     inkscape:label="txt">
    <path
       style="color:#000000;fill:#ffffff;fill-opacity:1;fill-rule:nonzero;stroke:none;stroke-width:1px;marker:none;visibility:visible;display:inline;overflow:visible;enable-background:accumulate"
       d="m 2491.8005,2360.064 c -37.5865,4.4148 -50.4346,33.2302 4.1626,48.6923 -4.9349,-1.4413 -20.3339,-27.6612 -13.5169,37.0399 -11.4494,-6.4535 -20.6244,-3.4552 -15.5929,58.5728 -9.1754,2.1183 -34.0298,-31.479 -14.2025,36.7062 -20.3321,-22.7462 -33.2615,-21.6767 -43.4483,-11.7865 -36.4309,-47.7382 -36.5579,-19.5977 -47.2419,-13.5225 -12.0304,-13.4263 -25.1546,-13.295 -40.1467,9.9784 -3.9639,-18.2007 -17.3853,-14.1434 -33.8617,-2.8976 -13.2595,-42.7859 -47.8225,-18.84 -73.7187,-22.0409 -33.4927,-41.6491 -83.3282,-7.1752 -125.9424,-6.3389 -34.738,7.7041 -79.0786,-2.2334 -97.7975,34.8982 3.6958,-32.713 -9.7404,-15.5414 -23.4181,2.333 -2.9025,-6.3083 14.3594,-37.1457 -30.8034,7.9539 0.9103,-15.1021 5.5266,-34.9034 -21.9067,-14.078 -3.3752,-9.2563 18.392,-46.4511 -37.4936,2.6417 -0.5976,-13.1768 9.6129,-39.3003 -29.251,-6.6383 30.3559,-79.0282 12.7505,-70.2556 -8.7236,-54.4005 15.9569,-46.5771 36.5885,-104.3655 -6.5352,-101.313 33.5649,-11.4146 32.6202,-27.2734 27.5259,-52.004 43.4808,49.0722 47.6111,10.9642 65.8068,4.0173 19.5482,7.8935 38.0656,37.9846 59.9733,-4.954 35.4007,16.6965 41.9845,0.5264 53.2837,-10.2664 61.9141,32.1735 59.8634,5.0382 87.4292,5.3632 17.2097,41.0997 53.2631,9.0257 80.0847,12.8029 34.5385,33.2545 75.6518,11.1691 101.2608,-5.8583 10.9328,13.8151 18.9449,35.0029 45.2844,9.9259 18.1285,26.5494 36.5691,27.2861 55.363,-1.213 5.4619,16.8139 19.6201,19.2366 54.181,-12.1055 -15.2673,28.3828 5.936,38.9517 29.2457,48.4917 z"
       id="path3557-6-8"
       inkscape:connector-curvature="0"
       sodipodi:nodetypes="cccccccccccccccccccccccccccccc" />
    <path
       style="color:#000000;fill:#ffffff;fill-opacity:1;fill-rule:nonzero;stroke:none;stroke-width:1px;marker:none;visibility:visible;display:inline;overflow:visible;enable-background:accumulate"
       d="m 2084.7707,2854.0307 c 30.7577,-40.8041 57.5121,-86.1117 92.9215,-121.6834 l -37.2435,12.679 c 8.3221,-18.9751 24.4067,-32.7993 37.8555,-48.3726 l -23.1682,3.5167 c 20.0706,-44.6366 50.5241,-76.9458 75.959,-115.2132 l -40.7944,9.9346 c -22.4328,41.169 -39.5562,84.4932 -67.9611,123.2378 l 22.3333,-0.7068 c -8.484,14.5497 -17.414,28.8657 -28.3375,42.1382 l 28.6215,-3.909 z"
       id="path4032"
       inkscape:connector-curvature="0"
       sodipodi:nodetypes="cccccccccccc" />
    <path
       style="color:#000000;fill:#ffffff;fill-opacity:1;fill-rule:nonzero;stroke:none;stroke-width:1px;marker:none;visibility:visible;display:inline;overflow:visible;enable-background:accumulate"
       d="m 1289.2091,1819.117 c -31.0257,46.7281 -117.1751,53.7297 -124.3416,64.4436 -7.1664,10.714 -18.9794,17.7202 -13.2544,58.1689 5.7251,40.4488 34.1453,42.2623 34.1453,42.2623 l 6.0659,-31.5639 c 0,0 -18.6046,-42.3701 -8.7142,-50.4722 9.8903,-8.1021 96.7246,-35.2099 106.099,-82.8387 z"
       id="path3994"
       inkscape:connector-curvature="0"
       sodipodi:nodetypes="csscczc" />
    <path
       style="fill:#ffffff;stroke:none"
       d="m 702.76757,2078.0013 c -1.45586,-60.9074 30.57356,-133.3066 82.98525,-144.7986 52.41171,-11.4919 377.07328,-22.9839 404.73498,-14.9397 27.6619,8.0444 61.1472,22.984 88.8089,44.8187 27.6617,21.8348 49.5,58.609 45.1322,88.4881 -4.3675,29.8791 -24.7499,90.7865 -43.6764,106.8752 -18.9264,16.0887 -69.8822,54.0122 -120.8382,60.9074 -50.9558,6.8952 -110.647,12.6411 -133.9411,11.492 -23.2941,-1.1493 -142.67639,-8.0443 -142.67639,-8.0443 0,0 -64.05871,4.5966 -84.44113,-6.8953 -20.38228,-11.492 -72.79399,-31.0282 -88.80869,-79.2944 -16.01471,-48.2662 -7.27942,-17.238 -7.27942,-58.6091 z"
       id="path3971"
       inkscape:connector-curvature="0" />
    <path
       style="color:#000000;fill:#ffffff;fill-opacity:1;fill-rule:nonzero;stroke:none;stroke-width:1px;marker:none;visibility:visible;display:inline;overflow:visible;enable-background:accumulate"
       d="m 680.2963,1511.1889 c -6.23828,-101.5458 13.98137,-180.3593 288.12974,-179.3498 274.14846,1.0101 264.84626,26.203 278.29736,160.9783 13.4513,134.7753 -105.3631,173.1865 -273.42167,159.3716 -168.0585,-13.8147 -271.37194,4.8229 -293.00543,-141.0001 z"
       id="path5026"
       inkscape:connector-curvature="0"
       sodipodi:nodetypes="csssc" />
    <path
       style="color:#000000;fill:#ffffff;fill-opacity:1;fill-rule:nonzero;stroke:none;stroke-width:1px;marker:none;visibility:visible;display:inline;overflow:visible;enable-background:accumulate"
       d="M 225.45427,155.21511 C 238.30273,69.340894 341.60794,41.561586 612.87149,65.910366 758.17487,78.952807 902.85327,40.403041 906.24529,215.45011 908.99498,357.34968 682.61554,326.23913 602.16442,332.41678 528.48472,338.07447 297.82559,327.99166 255.25531,283.73299 228.60729,256.02825 223.31289,181.86584 225.45427,155.21511 z"
       id="path4546"
       inkscape:connector-curvature="0"
       sodipodi:nodetypes="cssssc" />
    <path
       style="color:#000000;fill:#ffffff;fill-opacity:1;fill-rule:nonzero;stroke:none;stroke-width:1px;marker:none;visibility:visible;display:inline;overflow:visible;enable-background:accumulate"
       d="m 1203.0184,887.40037 c 9.7897,-31.78056 33.2657,-93.44302 41.6251,-104.01713 16.7886,16.60029 51.1856,34.66278 53.2831,30.41448 2.0975,-4.24831 8.1459,-87.95602 13.7232,-90.09796 5.5773,-2.14185 25.595,-0.60077 32.7182,4.17091 -21.8012,-10.89775 -38.8885,-17.1027 -46.1469,-10.92009 -5.0867,3.81832 -9.3036,69.32151 -9.4082,73.85651 -17.1616,-8.08915 -51.127,-29.56911 -58.1912,-29.24693 -6.7678,7.85898 -32.7532,38.11299 -52.5246,89.60217 -19.7713,51.48915 24.9213,36.23804 24.9213,36.23804 z"
       id="path5901"
       inkscape:connector-curvature="0"
       sodipodi:nodetypes="ccccccccsc" />
    <path
       style="color:#000000;fill:#ffffff;fill-opacity:1;fill-rule:nonzero;stroke:none;stroke-width:1px;marker:none;visibility:visible;display:inline;overflow:visible;enable-background:accumulate"
       d="m 1422.9492,1186.0971 c -29.0852,-13.1967 -58.7567,-26.2723 -5.5531,-56.4695 -49.9165,6.7932 -19.032,-9.8737 -6.5265,-21.2043 -89.387,20.6423 -31.0779,-15.0417 -8.6757,-37.0322 -20.0232,8.4591 -52.2376,32.957 -39.3872,-1.8336 -6.3316,1.4422 -13.857,5.8636 -16.776,-1.212 -8.1439,4.6068 -14.1296,5.6828 -17.5256,2.5218 -8.1156,8.5679 -13.2668,10.7409 -12.962,1.1455 -7.6432,7.032 -9.8669,4.4783 -11.67,1.1811 -13.2037,15.1855 -17.8535,10.6714 -22.8182,6.8817 -7.4902,9.1296 -15.8963,6.784 -25.0707,-5.1944 -10.156,15.5981 -20.5722,14.3458 -31.1338,3.6495 -2.3004,12.3939 -8.6495,24.6946 -15.0551,-1.4297 -4.3643,1.9684 -8.8381,10.9256 -22.6851,-16.7342 -2.0181,29.9326 -49.7712,9.6225 -70.6357,-6.157 5.6816,23.4298 -6.1879,39.0814 -41.642,14.7357 -2.1543,9.3114 -13.7855,23.5145 -32.6389,21.8351 19.0586,11.8326 19.8775,18.2933 -24.8805,11.3302 31.0513,10.1145 59.6465,20.1615 10.8623,28.0816 11.2645,3.9863 48.6539,-3.635 6.6755,39.2299 29.2147,-8.9124 55.5623,-10.7123 62.5654,28.7518 15.9011,-9.8908 33.3328,-14.5277 46.2864,9.5321 12.7002,-10.7573 29.9678,-7.6163 38.8446,-1.9359 2.7778,-12.0873 21.7356,-30.2213 45.7853,4.2621 2.0218,-6.8466 7.0606,-37.2475 27.7587,1.5138 6,-4.647 13.9061,-37.9888 69.7505,2.6683 -9.0645,-38.7699 17.2718,-15.6319 38.1986,-1.9536 -9.8906,-24.4234 6.0482,-25.8529 40.3851,-10.9042 -26.1541,-23.651 1.2141,-16.5673 18.5237,-15.2596 z"
       id="path3549-3-3-0"
       inkscape:connector-curvature="0"
       sodipodi:nodetypes="ccccccccccccccccccccccccccccc" />
    <path
       style="color:#000000;fill:#ffffff;fill-opacity:1;fill-rule:nonzero;stroke:none;stroke-width:1px;marker:none;visibility:visible;display:inline;overflow:visible;enable-background:accumulate"
       d="m 1016.7576,951.07727 c 41.4351,-47.22594 266.8043,-43.19439 341.7887,-22.7338 74.9842,20.46034 102.8854,55.69783 106.373,68.20151 3.4874,12.50352 -5.2314,70.47482 -43.5955,81.84192 -38.3641,11.3669 -148.2246,17.0503 -186.5887,17.0503 -38.3639,0 -160.8304,-7.235 -191.8204,-23.8706 -29.645,-15.9137 -67.59224,-73.26352 -26.1571,-120.48933 z"
       id="path3330"
       inkscape:connector-curvature="0"
       sodipodi:nodetypes="zsssssz" />
    <flowRoot
       xml:space="preserve"
       id="flowRoot2987-4-9-3"
       style="font-size:12px;font-style:normal;font-variant:normal;font-weight:normal;font-stretch:normal;text-align:center;line-height:125%;letter-spacing:0px;word-spacing:0px;text-anchor:middle;fill:#000000;fill-opacity:1;stroke:none;font-family:Lavi;-inkscape-font-specification:Lavi"
       transform="translate(152.36928,-127.52048)"><flowRegion
         id="flowRegion2989-5-4-5"><rect
           id="rect2991-7-9-6"
           width="602.40173"
           height="310.73996"
           x="120.55251"
           y="265.53046"
           style="font-style:normal;font-variant:normal;font-weight:normal;font-stretch:normal;text-align:center;text-anchor:middle;font-family:Lavi;-inkscape-font-specification:Lavi" /></flowRegion><flowPara
         style="font-size:48px;text-align:center;text-anchor:middle"
         id="flowPara4156">Esta última demostración parece poner las cosas muy difíciles a Shichimi...</flowPara></flowRoot>    <path
       style="color:#000000;fill:#ffffff;fill-opacity:1;fill-rule:nonzero;stroke:none;stroke-width:1px;marker:none;visibility:visible;display:inline;overflow:visible;enable-background:accumulate"
       d="m 219.97872,201.68762 c -35.18766,-13.0236 -71.6916,-54.88095 -77.40748,-64.12604 18.37727,9.89413 74.70229,37.01161 98.83183,40.87436 20.48033,3.27863 -21.42435,23.25168 -21.42435,23.25168 z"
       id="path3940"
       inkscape:connector-curvature="0"
       sodipodi:nodetypes="ccsc" />
    <path
       style="color:#000000;fill:#ffffff;fill-opacity:1;fill-rule:nonzero;stroke:none;stroke-width:1px;marker:none;visibility:visible;display:inline;overflow:visible;enable-background:accumulate"
       d="m 1056.6594,977.05268 c 6.3864,-8.21845 33.9873,-32.31159 29.9274,-2.44759 44.3441,-34.45903 75.2755,-16.70994 106.9693,-1.92836 10.9837,-10.67417 15.3161,-28.49919 43.1768,-21.02916 -1.8985,-12.03765 9.1989,-18.89649 31.8926,-21.13471 -27.7306,-10.30238 -31.7354,-18.12438 23.5456,-19.74849 -40.8489,-5.4238 -78.8132,-11.32676 -25.8896,-32.32503 -14.9688,-2.36068 -54.7971,15.65593 -26.2951,-47.10566 -29.723,17.74381 -59.4771,26.01306 -86.2635,-21.30781 -13.7958,15.9059 -31.8523,25.64932 -58.2704,-1.2106 -9.668,16.24681 -46.9532,13.4317 -59.9491,8.42363 23.9952,22.14368 20.894,33.84572 -16.7359,31.42799 56.2839,41.39524 6.1174,30.40244 -5.5511,37.94168 46.9512,17.40708 22.2974,29.57762 10.8815,43.2103 56.3538,6.93769 33.5947,28.28572 32.5615,47.23381 z"
       id="path3549-3"
       inkscape:connector-curvature="0"
       sodipodi:nodetypes="ccccccccccccccc" />
    <flowRoot
       xml:space="preserve"
       id="flowRoot2987-4-9-3-0"
       style="font-size:12px;font-style:normal;font-variant:normal;font-weight:normal;font-stretch:normal;text-align:center;line-height:125%;letter-spacing:0px;word-spacing:0px;text-anchor:middle;fill:#000000;fill-opacity:1;stroke:#000000;stroke-width:2.5;stroke-miterlimit:4;stroke-opacity:1;stroke-dasharray:none;font-family:Lavi;-inkscape-font-specification:Lavi"
       transform="matrix(1,0,-0.08756413,1,738.50729,593.55239)"><flowRegion
         id="flowRegion2989-5-4-5-1"><rect
           id="rect2991-7-9-6-4"
           width="602.40173"
           height="310.73996"
           x="120.55251"
           y="265.53046"
           style="font-style:normal;font-variant:normal;font-weight:normal;font-stretch:normal;text-align:center;text-anchor:middle;stroke:#000000;stroke-width:2.5;stroke-miterlimit:4;stroke-opacity:1;stroke-dasharray:none;font-family:Lavi;-inkscape-font-specification:Lavi" /></flowRegion><flowPara
         style="font-size:48px;text-align:center;letter-spacing:1.5px;text-anchor:middle;stroke:#000000;stroke-width:2.5;stroke-miterlimit:4;stroke-opacity:1;stroke-dasharray:none"
         id="flowPara3030-8-7"><flowSpan
   style="letter-spacing:-2.73999929px"
   id="flowSpan3938">¡NO</flowSpan>!</flowPara></flowRoot>    <flowRoot
       xml:space="preserve"
       id="flowRoot2987-4-9-3-2"
       style="font-size:12px;font-style:normal;font-variant:normal;font-weight:normal;font-stretch:normal;text-align:center;line-height:125%;letter-spacing:0px;word-spacing:0px;text-anchor:middle;fill:#000000;fill-opacity:1;stroke:none;font-family:Lavi;-inkscape-font-specification:Lavi"
       transform="translate(814.72216,672.45611)"><flowRegion
         id="flowRegion2989-5-4-5-8"><rect
           id="rect2991-7-9-6-46"
           width="602.40173"
           height="310.73996"
           x="120.55251"
           y="265.53046"
           style="font-style:normal;font-variant:normal;font-weight:normal;font-stretch:normal;text-align:center;text-anchor:middle;font-family:Lavi;-inkscape-font-specification:Lavi" /></flowRegion><flowPara
         style="font-size:48px;text-align:center;text-anchor:middle"
         id="flowPara3030-8-0">No puedo, es </flowPara><flowPara
         style="font-size:48px;text-align:center;text-anchor:middle"
         id="flowPara3119">demasiado peligroso </flowPara></flowRoot>    <flowRoot
       xml:space="preserve"
       id="flowRoot2987-4-9-3-2-4"
       style="font-size:12px;font-style:normal;font-variant:normal;font-weight:normal;font-stretch:normal;text-align:center;line-height:125%;letter-spacing:0px;word-spacing:0px;text-anchor:middle;fill:#000000;fill-opacity:1;stroke:none;font-family:Lavi;-inkscape-font-specification:Lavi"
       transform="matrix(0.95772922,0,-0.14044291,1.2106644,850.04726,771.55335)"><flowRegion
         id="flowRegion2989-5-4-5-8-3"><rect
           id="rect2991-7-9-6-46-4"
           width="602.40173"
           height="310.73996"
           x="120.55251"
           y="265.53046"
           style="font-style:normal;font-variant:normal;font-weight:normal;font-stretch:normal;text-align:center;text-anchor:middle;font-family:Lavi;-inkscape-font-specification:Lavi" /></flowRegion><flowPara
         style="font-size:48px;text-align:center;text-anchor:middle"
         id="flowPara3030-8-0-4"><flowSpan
           style="stroke:#000000;stroke-width:1.78517199;stroke-miterlimit:4;stroke-opacity:1;stroke-dasharray:none"
           id="flowSpan3889">¡LO SIENTO! </flowSpan></flowPara></flowRoot>    <path
       style="fill:#ffffff;stroke:none"
       d="m 1784.8969,222.08088 c -14.6397,-58.15694 17.485,-107.03325 38.8588,-119.51615 21.3735,-12.482877 58.4751,-28.059771 77.1682,-31.212407 18.6929,-3.152637 315.9248,-17.377677 333.9422,-10.3121 18.0173,7.065578 98.8968,32.37065 117.7955,68.178177 18.8989,35.80743 22.8659,100.66924 -0.2284,121.5356 -23.0947,20.86634 -44.6035,61.1834 -179.8342,69.42286 -135.2308,8.23946 -313.5859,-3.89463 -353.4667,-45.89283 -22.4825,-23.67622 -34.2354,-52.20315 -34.2354,-52.20315 z"
       id="path3286"
       inkscape:connector-curvature="0"
       sodipodi:nodetypes="csssssssc" />
    <path
       style="color:#000000;fill:#ffffff;fill-opacity:1;fill-rule:nonzero;stroke:none;stroke-width:1px;marker:none;visibility:visible;display:inline;overflow:visible;enable-background:accumulate"
       d="m 1269.2058,415.08441 c -80.6583,-8.95603 -198.9572,-38.06317 -221.8105,-92.91879 -22.8532,-54.85562 -17.476,-123.14528 29.5748,-153.37189 47.0507,-30.22663 127.709,-55.9751 197.613,-45.89961 69.904,10.0755 161.3168,47.01908 182.8258,98.51628 21.5088,51.49708 1.3442,161.20846 -88.7243,182.47891 -90.0685,21.2706 -99.4788,11.1951 -99.4788,11.1951 z"
       id="path3970"
       inkscape:connector-curvature="0" />
    <flowRoot
       xml:space="preserve"
       id="flowRoot2987-4-9-3-9"
       style="font-size:12px;font-style:normal;font-variant:normal;font-weight:normal;font-stretch:normal;text-align:center;line-height:125%;letter-spacing:0px;word-spacing:0px;text-anchor:middle;fill:#000000;fill-opacity:1;stroke:none;font-family:Lavi;-inkscape-font-specification:Lavi"
       transform="translate(829.23568,-68.573847)"><flowRegion
         id="flowRegion2989-5-4-5-87"><rect
           id="rect2991-7-9-6-467"
           width="602.40173"
           height="310.73996"
           x="120.55251"
           y="265.53046"
           style="font-style:normal;font-variant:normal;font-weight:normal;font-stretch:normal;text-align:center;text-anchor:middle;font-family:Lavi;-inkscape-font-specification:Lavi" /></flowRegion><flowPara
         style="font-size:48px;text-align:center;text-anchor:middle"
         id="flowPara3030-8-8">...¡vamos Shichimi! </flowPara><flowPara
         style="font-size:48px;text-align:center;text-anchor:middle"
         id="flowPara4098">Todo el mundo</flowPara><flowPara
         style="font-size:48px;text-align:center;text-anchor:middle"
         id="flowPara4100">te espera...</flowPara></flowRoot>    <flowRoot
       xml:space="preserve"
       id="flowRoot2987-4-9-3-9-9"
       style="font-size:12px;font-style:normal;font-variant:normal;font-weight:normal;font-stretch:normal;text-align:center;line-height:125%;letter-spacing:0px;word-spacing:0px;text-anchor:middle;fill:#000000;fill-opacity:1;stroke:none;font-family:Lavi;-inkscape-font-specification:Lavi"
       transform="translate(1671.6774,-142.22216)"><flowRegion
         id="flowRegion2989-5-4-5-87-5"><rect
           id="rect2991-7-9-6-467-2"
           width="556.74957"
           height="184.65297"
           x="120.55251"
           y="265.53046"
           style="font-style:normal;font-variant:normal;font-weight:normal;font-stretch:normal;text-align:center;text-anchor:middle;font-family:Lavi;-inkscape-font-specification:Lavi" /></flowRegion><flowPara
         style="font-size:48px;text-align:center;text-anchor:middle"
         id="flowPara4100-0">Parece, damas y caballeros, que Shichimi se retira...</flowPara><flowPara
         style="font-size:48px;text-align:center;text-anchor:middle"
         id="flowPara4147" /></flowRoot>    <path
       style="fill:#ffffff;stroke:none"
       d="m 1639.5857,145.26459 c 13.9614,20.64118 23.9674,33.55064 35.9963,35.28944 12.0286,1.7388 25.9869,4.56755 36.5612,-2.65108 10.5742,-7.21868 30.2714,-12.80131 37.2986,-8.61123 7.0273,4.19022 32.3731,20.26938 37.9024,39.44478 5.5292,19.1755 34.1537,-13.68611 34.1537,-13.68611 0,0 -20.7993,-31.54082 -26.302,-35.96915 -5.503,-4.42841 -18.9396,-21.25501 -48.9021,-12.67692 -29.9625,8.57826 -46.5379,22.30117 -61.3531,22.946 -14.8151,0.64488 -36.063,-8.28143 -45.355,-24.08573 z"
       id="path3137"
       inkscape:connector-curvature="0" />
    <path
       style="color:#000000;fill:#ffffff;fill-opacity:1;fill-rule:nonzero;stroke:none;stroke-width:1px;marker:none;visibility:visible;display:inline;overflow:visible;enable-background:accumulate"
       d="m 214.65021,1501.3154 c -5.31059,-41.5021 24.25517,-93.3561 47.80537,-98.8831 23.5503,-5.5269 104.44636,-12.9573 156.64177,-3.3343 52.1953,9.6231 98.81873,12.6094 103.40893,63.4286 4.5902,50.8193 -32.4608,97.1733 -67.90291,114.8458 -35.44211,17.6725 -107.02859,22.7458 -153.93294,7.6509 -46.90428,-15.0949 -83.16126,-49.8501 -86.02022,-83.7079 z"
       id="path3064"
       inkscape:connector-curvature="0" />
    <flowRoot
       xml:space="preserve"
       id="flowRoot2987-4-9-3-2-7"
       style="font-size:12px;font-style:normal;font-variant:normal;font-weight:normal;font-stretch:normal;text-align:center;line-height:125%;letter-spacing:0px;word-spacing:0px;text-anchor:middle;fill:#000000;fill-opacity:1;stroke:none;font-family:Lavi;-inkscape-font-specification:Lavi"
       transform="translate(-56.485069,1174.351)"><flowRegion
         id="flowRegion2989-5-4-5-8-2"><rect
           id="rect2991-7-9-6-46-6"
           width="602.40173"
           height="310.73996"
           x="120.55251"
           y="265.53046"
           style="font-style:normal;font-variant:normal;font-weight:normal;font-stretch:normal;text-align:center;text-anchor:middle;font-family:Lavi;-inkscape-font-specification:Lavi" /></flowRegion><flowPara
         style="font-size:48px;text-align:center;text-anchor:middle"
         id="flowPara4201">¡Dame eso! </flowPara></flowRoot>    <path
       style="color:#000000;fill:#ffffff;fill-opacity:1;fill-rule:nonzero;stroke:none;stroke-width:1px;marker:none;visibility:visible;display:inline;overflow:visible;enable-background:accumulate"
       d="m 137.71566,1510.219 c 26.24678,-47.6331 46.66094,-50.5494 61.24248,-54.4378 1.94421,4.8605 6.80472,12.6373 6.80472,12.6373 0,0 28.19098,-10.6931 39.85622,-10.6931 11.66523,0 11.66523,16.5258 11.66523,16.5258 0,0 -54.43776,22.3583 -65.13089,31.1072 -4.86051,-13.6094 -8.74892,-19.442 -8.74892,-25.2746 -8.74893,-0.9721 -35.96781,13.6094 -45.68884,30.1352 z"
       id="path4456"
       inkscape:connector-curvature="0" />
    <flowRoot
       xml:space="preserve"
       id="flowRoot2987-4-9-3-2-9"
       style="font-size:12px;font-style:normal;font-variant:normal;font-weight:normal;font-stretch:normal;text-align:center;line-height:125%;letter-spacing:0px;word-spacing:0px;text-anchor:middle;fill:#000000;fill-opacity:1;stroke:none;font-family:Lavi;-inkscape-font-specification:Lavi"
       transform="translate(578.4062,1113.9162)"><flowRegion
         id="flowRegion2989-5-4-5-8-6"><rect
           id="rect2991-7-9-6-46-41"
           width="547.40173"
           height="333.23993"
           x="120.55251"
           y="265.53046"
           style="font-style:normal;font-variant:normal;font-weight:normal;font-stretch:normal;text-align:center;text-anchor:middle;font-family:Lavi;-inkscape-font-specification:Lavi" /></flowRegion><flowPara
         style="font-size:48px;text-align:center;text-anchor:middle"
         id="flowPara3030-8-0-8">... deja ya de</flowPara><flowPara
         style="font-size:48px;text-align:center;text-anchor:middle"
         id="flowPara4243">hacerte la tímida y </flowPara><flowPara
         style="font-size:48px;text-align:center;text-anchor:middle"
         id="flowPara4245">no estropees el</flowPara><flowPara
         style="font-size:48px;text-align:center;text-anchor:middle"
         id="flowPara4247">espectáculo</flowPara><flowPara
         style="font-size:48px;text-align:center;text-anchor:middle"
         id="flowPara4241" /></flowRoot>    <flowRoot
       xml:space="preserve"
       id="flowRoot2987-4-9-3-2-9-7"
       style="font-size:12px;font-style:normal;font-variant:normal;font-weight:normal;font-stretch:normal;text-align:center;line-height:125%;letter-spacing:0px;word-spacing:0px;text-anchor:middle;fill:#000000;fill-opacity:1;stroke:none;font-family:Lavi;-inkscape-font-specification:Lavi"
       transform="translate(623.82669,1679.006)"><flowRegion
         id="flowRegion2989-5-4-5-8-6-6"><rect
           id="rect2991-7-9-6-46-41-3"
           width="536.80627"
           height="311.46198"
           x="120.55251"
           y="265.53046"
           style="font-style:normal;font-variant:normal;font-weight:normal;font-stretch:normal;text-align:center;text-anchor:middle;font-family:Lavi;-inkscape-font-specification:Lavi" /></flowRegion><flowPara
         style="font-size:48px;text-align:center;text-anchor:middle"
         id="flowPara3140">Todo el mundo sabe ya que he ganado el concurso. Da igual lo que haga tu poción...</flowPara></flowRoot>    <path
       style="color:#000000;fill:#ffffff;fill-opacity:1;fill-rule:nonzero;stroke:none;stroke-width:1px;marker:none;visibility:visible;display:inline;overflow:visible;enable-background:accumulate"
       d="m 1250.9264,1687.4861 c -52.3934,-20.6947 -127.7047,22.6977 -139.7614,17.9829 -12.0566,-4.7148 -25.8398,-3.7325 -44.2236,-40.2327 -18.3839,-36.5003 4.1037,-54.2031 4.1037,-54.2031 l 23.0647,22.4737 c 0,0 8.8213,45.4264 21.6396,46.4412 12.8181,1.015 100.1903,-26.2481 135.177,7.538 z"
       id="path3994-8"
       inkscape:connector-curvature="0"
       sodipodi:nodetypes="csscczc" />
    <path
       style="color:#000000;fill:#ffffff;fill-opacity:1;fill-rule:nonzero;stroke:none;stroke-width:1px;marker:none;visibility:visible;display:inline;overflow:visible;enable-background:accumulate"
       d="m 2197.0163,1501.9723 c 4.8534,-9.3033 25.8293,-36.5767 22.744,-2.7707 33.7003,-39.0075 57.2074,-18.9156 81.2938,-2.1829 8.3473,-12.0831 11.6398,-32.261 32.8132,-23.8049 -1.4428,-13.6266 6.991,-21.3908 24.2375,-23.9245 -21.0745,-11.6622 -24.118,-20.5168 17.8941,-22.3552 -31.0441,-6.1398 -59.896,-12.8219 -19.6754,-36.5919 -11.3759,-2.6723 -41.6444,17.7225 -19.9837,-53.3235 -22.5886,20.0859 -45.2009,29.4468 -65.5578,-24.1204 -10.4845,18.0054 -24.2071,29.035 -44.284,-1.3704 -7.3475,18.3914 -35.6833,15.2046 -45.5597,9.5355 18.2357,25.0666 15.8788,38.3133 -12.7189,35.5764 42.7743,46.8593 4.649,34.4155 -4.2187,42.9499 35.6816,19.7048 16.9454,33.4819 8.2696,48.914 42.8275,7.8535 25.5312,32.0194 24.746,53.4686 z"
       id="path3549-3-5"
       inkscape:connector-curvature="0"
       sodipodi:nodetypes="ccccccccccccccc" />
    <flowRoot
       xml:space="preserve"
       id="flowRoot2987-4-9-3-0-7"
       style="font-size:12px;font-style:normal;font-variant:normal;font-weight:normal;font-stretch:normal;text-align:center;line-height:125%;letter-spacing:0px;word-spacing:0px;text-anchor:middle;fill:#000000;fill-opacity:1;stroke:#000000;stroke-width:2.5;stroke-miterlimit:4;stroke-opacity:1;stroke-dasharray:none;font-family:Lavi;-inkscape-font-specification:Lavi"
       transform="matrix(1.4352399,0,-0.12567554,1.5098286,1688.2701,969.91228)"><flowRegion
         id="flowRegion2989-5-4-5-1-3"><rect
           id="rect2991-7-9-6-4-2"
           width="602.40173"
           height="310.73996"
           x="120.55251"
           y="265.53046"
           style="font-style:normal;font-variant:normal;font-weight:normal;font-stretch:normal;text-align:center;text-anchor:middle;stroke:#000000;stroke-width:2.5;stroke-miterlimit:4;stroke-opacity:1;stroke-dasharray:none;font-family:Lavi;-inkscape-font-specification:Lavi" /></flowRegion><flowPara
         style="font-size:48px;text-align:center;letter-spacing:1.5px;text-anchor:middle;stroke:#000000;stroke-width:2.5;stroke-miterlimit:4;stroke-opacity:1;stroke-dasharray:none"
         id="flowPara3030-8-7-6">!!!</flowPara></flowRoot>    <flowRoot
       xml:space="preserve"
       id="flowRoot4133-6-9-4-8"
       style="font-size:12px;font-style:normal;font-variant:normal;font-weight:normal;font-stretch:normal;line-height:125%;letter-spacing:0.00204969px;word-spacing:0px;color:#000000;fill:#ffffff;fill-opacity:1;fill-rule:nonzero;stroke:#ffffff;stroke-width:0.0836072;stroke-linecap:butt;stroke-linejoin:miter;stroke-miterlimit:4;stroke-opacity:1;stroke-dasharray:none;stroke-dashoffset:0;marker:none;visibility:visible;display:inline;overflow:visible;filter:url(#filter4375-4-1-1-15-1);enable-background:accumulate;font-family:Arial;-inkscape-font-specification:Arial"
       transform="matrix(2.8424391,-8.96526,17.796825,13.266249,-22166.504,-1264.6111)"
       inkscape:transform-center-x="177.19081"><flowRegion
         id="flowRegion4135-2-9-3-5"
         style="stroke-width:0.86646658"><rect
           id="rect4137-1-7-1-2"
           width="68.471939"
           height="26.505198"
           x="1125.3193"
           y="1078.5308"
           style="letter-spacing:0.00204969px;color:#000000;fill:#ffffff;fill-opacity:1;fill-rule:nonzero;stroke:#ffffff;stroke-width:0.0836072;stroke-linecap:butt;stroke-linejoin:miter;stroke-miterlimit:4;stroke-opacity:1;stroke-dasharray:none;stroke-dashoffset:0;marker:none;visibility:visible;display:inline;overflow:visible;filter:url(#filter4375-4-1-1-15-1);enable-background:accumulate" /></flowRegion><flowPara
         id="flowPara4139-2-8-6-8"
         style="font-style:normal;font-variant:normal;font-weight:normal;font-stretch:normal;line-height:125%;letter-spacing:0.00204969px;word-spacing:0.00204969px;color:#000000;fill:#ffffff;fill-opacity:1;fill-rule:nonzero;stroke:#ffffff;stroke-width:0.0836072;stroke-linecap:butt;stroke-linejoin:miter;stroke-miterlimit:4;stroke-opacity:1;stroke-dasharray:none;stroke-dashoffset:0;marker:none;visibility:visible;display:inline;overflow:visible;filter:url(#filter4375-4-1-1-15-1);enable-background:accumulate;font-family:Lavi;-inkscape-font-specification:Lavi"><flowSpan
   id="flowSpan4821"
   style="font-size:7.13246202px;color:#000000;fill:#ffffff;fill-opacity:1;fill-rule:nonzero;stroke:#ffffff;stroke-width:0.0836072;stroke-linecap:butt;stroke-linejoin:miter;stroke-miterlimit:4;stroke-opacity:1;stroke-dasharray:none;stroke-dashoffset:0;marker:none;visibility:visible;display:inline;overflow:visible;filter:url(#filter4375-4-1-1-15-1);enable-background:accumulate">B</flowSpan><flowSpan
   id="flowSpan4823"
   style="font-size:8.55645752px;color:#000000;fill:#ffffff;fill-opacity:1;fill-rule:nonzero;stroke:#ffffff;stroke-width:0.0836072;stroke-linecap:butt;stroke-linejoin:miter;stroke-miterlimit:4;stroke-opacity:1;stroke-dasharray:none;stroke-dashoffset:0;marker:none;visibility:visible;display:inline;overflow:visible;filter:url(#filter4375-4-1-1-15-1);enable-background:accumulate">Z</flowSpan><flowSpan
   style="font-size:9.90925312px;color:#000000;fill:#ffffff;fill-opacity:1;fill-rule:nonzero;stroke:#ffffff;stroke-width:0.0836072;stroke-linecap:butt;stroke-linejoin:miter;stroke-miterlimit:4;stroke-opacity:1;stroke-dasharray:none;stroke-dashoffset:0;marker:none;visibility:visible;display:inline;overflow:visible;filter:url(#filter4375-4-1-1-15-1);enable-background:accumulate"
   id="flowSpan4271">Z</flowSpan>Z<flowSpan
   style="font-size:13.67259789px;color:#000000;fill:#ffffff;fill-opacity:1;fill-rule:nonzero;stroke:#ffffff;stroke-width:0.0836072;stroke-linecap:butt;stroke-linejoin:miter;stroke-miterlimit:4;stroke-opacity:1;stroke-dasharray:none;stroke-dashoffset:0;marker:none;visibility:visible;display:inline;overflow:visible;filter:url(#filter4375-4-1-1-15-1);enable-background:accumulate"
   id="flowSpan4273">I</flowSpan><flowSpan
   id="flowSpan4277"
   style="font-size:17.85409164px;color:#000000;fill:#ffffff;fill-opacity:1;fill-rule:nonzero;stroke:#ffffff;stroke-width:0.0836072;stroke-linecap:butt;stroke-linejoin:miter;stroke-miterlimit:4;stroke-opacity:1;stroke-dasharray:none;stroke-dashoffset:0;marker:none;visibility:visible;display:inline;overflow:visible;filter:url(#filter4375-4-1-1-15-1);enable-background:accumulate">IO</flowSpan><flowSpan
   style="font-size:20.5px;color:#000000;fill:#ffffff;fill-opacity:1;fill-rule:nonzero;stroke:#ffffff;stroke-width:0.0836072;stroke-linecap:butt;stroke-linejoin:miter;stroke-miterlimit:4;stroke-opacity:1;stroke-dasharray:none;stroke-dashoffset:0;marker:none;visibility:visible;display:inline;overflow:visible;filter:url(#filter4375-4-1-1-15-1);enable-background:accumulate"
   id="flowSpan4819">O</flowSpan></flowPara></flowRoot>    <path
       style="color:#000000;fill:#ffffff;fill-opacity:1;fill-rule:nonzero;stroke:none;stroke-width:1px;marker:none;visibility:visible;display:inline;overflow:visible;enable-background:accumulate"
       d="m 1952.409,2472.6166 c -2.6739,-27.994 22.9932,-49.7975 96.0989,-72.9861 73.1059,-23.1887 175.0403,-25.2718 201.5514,-21.261 26.5111,4.011 156.9367,12.7076 183.9354,31.6336 26.9988,18.9259 48.3201,25.5766 40.1832,45.6561 -8.1367,20.0794 -16.236,41.3062 -47.5992,50.2607 -31.3634,8.9547 -255.6909,32.8583 -292.694,30.685 -37.003,-2.1734 -96.7072,0.5906 -128.7454,-11.1063 -32.4804,-11.8583 -50.0564,-24.8878 -52.7303,-52.882 z"
       id="path3373"
       inkscape:connector-curvature="0"
       sodipodi:nodetypes="zsssssssz" />
    <path
       style="color:#000000;fill:#ffffff;fill-opacity:1;fill-rule:nonzero;stroke:none;stroke-width:1px;marker:none;visibility:visible;display:inline;overflow:visible;enable-background:accumulate"
       d="m 2459.2954,2528.3884 c -38.9666,3.8768 -52.2865,29.1803 4.3154,42.758 -5.116,-1.2656 -21.0805,-24.29 -14.0131,32.5257 -11.8699,-5.667 -21.3817,-3.0341 -16.1655,51.4343 -9.5122,1.8602 -35.2792,-27.6425 -14.724,32.2327 -21.0785,-19.974 -34.4827,-19.0349 -45.0435,-10.35 -37.7686,-41.9202 -37.9003,-17.2093 -48.9766,-11.8745 -12.4721,-11.79 -26.0781,-11.6747 -41.6207,8.7623 -4.1093,-15.9825 -18.0235,-12.4197 -35.105,-2.5444 -13.7464,-37.5715 -49.5784,-16.5439 -76.4254,-19.3547 -34.7224,-36.5732 -86.3877,-6.3008 -130.5666,-5.5664 -36.0134,6.7652 -81.9822,-1.9612 -101.3883,30.645 3.8315,-28.7261 -10.0981,-13.6473 -24.2779,2.0487 -3.0091,-5.5395 14.8866,-32.6186 -31.9344,6.9845 0.9436,-13.2615 5.7295,-30.6496 -22.7111,-12.3622 -3.4991,-8.1282 19.0673,-40.79 -38.8702,2.3197 -0.6196,-11.5709 9.9659,-34.5106 -30.3251,-5.8292 31.4706,-69.3968 13.2187,-61.6933 -9.0438,-47.7706 16.5427,-40.9005 37.9318,-91.6461 -6.7751,-88.9656 34.7972,-10.0234 33.8177,-23.9495 28.5365,-45.6661 45.0773,43.0916 49.3592,9.628 68.223,3.5277 20.266,6.9315 39.4633,33.3553 62.1754,-4.3502 36.7003,14.6616 43.526,0.4622 55.24,-9.0152 64.1874,28.2524 62.0614,4.4242 90.6394,4.7096 17.8415,36.0907 55.2187,7.9257 83.0251,11.2425 35.8066,29.2017 78.4295,9.8079 104.9788,-5.1443 11.3341,12.1314 19.6404,30.737 46.9471,8.7162 18.7941,23.3137 37.9118,23.9606 57.3957,-1.0652 5.6624,14.7648 20.3405,16.8922 56.1703,-10.6301 -15.8279,24.9237 6.154,34.2045 30.3196,42.5818 z"
       id="path3557-6"
       inkscape:connector-curvature="0"
       sodipodi:nodetypes="cccccccccccccccccccccccccccccc" />
    <flowRoot
       transform="matrix(0.90617713,0,-0.22078013,1.6225798,1583.0376,2088.282)"
       style="font-size:12px;font-style:normal;font-variant:normal;font-weight:normal;font-stretch:normal;text-align:center;line-height:125%;letter-spacing:0px;word-spacing:0px;text-anchor:middle;fill:#000000;fill-opacity:1;stroke:#000000;stroke-width:4.69999981;stroke-miterlimit:4;stroke-opacity:1;stroke-dasharray:none;font-family:Lavi;-inkscape-font-specification:Lavi"
       id="flowRoot4212-3-7-8-6-6"
       xml:space="preserve"><flowRegion
         id="flowRegion4214-6-7-8-3-7"><rect
           style="font-style:normal;font-variant:normal;font-weight:normal;font-stretch:normal;text-align:center;text-anchor:middle;stroke:#000000;stroke-width:4.69999981;stroke-miterlimit:4;stroke-opacity:1;stroke-dasharray:none;font-family:Lavi;-inkscape-font-specification:Lavi"
           y="265.53046"
           x="120.55251"
           height="355.03918"
           width="1048.8354"
           id="rect4216-4-0-26-5-5" /></flowRegion><flowPara
         style="font-size:48px;text-align:center;letter-spacing:5.20896292px;text-anchor:middle;stroke:#000000;stroke-width:4.69999981;stroke-miterlimit:4;stroke-opacity:1;stroke-dasharray:none"
         id="flowPara4358-7-1-39">¡MONSTRUO GIGANTE!</flowPara></flowRoot>    <path
       style="color:#000000;fill:#ffffff;fill-opacity:1;fill-rule:nonzero;stroke:none;stroke-width:1px;marker:none;visibility:visible;display:inline;overflow:visible;enable-background:accumulate"
       d="m 1055.421,218.45176 c -34.3695,-15.0506 -68.37405,-58.96265 -73.54186,-68.52491 17.76992,10.9475 72.42026,41.29895 96.28386,46.5603 20.2546,4.46569 -22.742,21.96461 -22.742,21.96461 z"
       id="path3940-5"
       inkscape:connector-curvature="0"
       sodipodi:nodetypes="ccsc" />
    <path
       style="color:#000000;fill:#ffffff;fill-opacity:1;fill-rule:nonzero;stroke:none;stroke-width:1px;marker:none;visibility:visible;display:inline;overflow:visible;enable-background:accumulate"
       d="M 85.560687,966.21603 C 81.02515,868.53352 95.72583,792.71858 295.04523,793.68967 494.36464,794.66134 487.60149,818.89576 497.3811,948.54345 507.16085,1078.1911 420.77692,1115.1409 298.59009,1101.8516 176.40327,1088.5625 101.2893,1106.4911 85.560687,966.21603 z"
       id="path5026-1"
       inkscape:connector-curvature="0"
       sodipodi:nodetypes="csssc" />
    <flowRoot
       xml:space="preserve"
       id="flowRoot2987-4-9-3-2-9-1"
       style="font-size:12px;font-style:normal;font-variant:normal;font-weight:normal;font-stretch:normal;text-align:center;line-height:125%;letter-spacing:0px;word-spacing:0px;text-anchor:middle;fill:#000000;fill-opacity:1;stroke:none;font-family:Lavi;-inkscape-font-specification:Lavi"
       transform="matrix(0.85081372,0,0,0.85081372,-33.692138,616.62147)"><flowRegion
         id="flowRegion2989-5-4-5-8-6-0"><rect
           id="rect2991-7-9-6-46-41-4"
           width="547.40173"
           height="333.23993"
           x="120.55251"
           y="265.53046"
           style="font-style:normal;font-variant:normal;font-weight:normal;font-stretch:normal;text-align:center;text-anchor:middle;font-family:Lavi;-inkscape-font-specification:Lavi" /></flowRegion><flowPara
         style="font-size:48px;text-align:center;text-anchor:middle"
         id="flowPara3218">Yo... yo no sabía</flowPara><flowPara
         style="font-size:48px;text-align:center;text-anchor:middle"
         id="flowPara3220"> que era necesario</flowPara><flowPara
         style="font-size:48px;text-align:center;text-anchor:middle"
         id="flowPara3222">hacer una</flowPara><flowPara
         style="font-size:48px;text-align:center;text-anchor:middle"
         id="flowPara3224">demostración...</flowPara><flowPara
         style="font-size:48px;text-align:center;text-anchor:middle"
         id="flowPara4241-2" /></flowRoot>    <path
       style="color:#000000;fill:#ffffff;fill-opacity:1;fill-rule:nonzero;stroke:none;stroke-width:1px;marker:none;visibility:visible;display:inline;overflow:visible;enable-background:accumulate"
       d="m 473.6422,713.90361 c -65.81214,39.7772 -130.63061,33.88769 -144.80302,46.94083 -14.17241,13.05314 -30.54169,25.76343 -26.63221,59.03329 3.90948,33.26985 37.80607,35.54971 37.80607,35.54971 l 24.66941,-19.49588 c 0,0 -21.40086,-31.48149 -4.40989,-47.77641 16.99097,-16.29493 85.74714,-23.65683 113.36964,-74.25154 z"
       id="path3994-89"
       inkscape:connector-curvature="0"
       sodipodi:nodetypes="czzcczc" />
    <flowRoot
       xml:space="preserve"
       id="flowRoot2987-4-9-3-0-71"
       style="font-size:12px;font-style:normal;font-variant:normal;font-weight:normal;font-stretch:normal;text-align:center;line-height:125%;letter-spacing:0px;word-spacing:0px;text-anchor:middle;fill:#000000;fill-opacity:1;stroke:#000000;stroke-width:2.5;stroke-miterlimit:4;stroke-opacity:1;stroke-dasharray:none;font-family:Lavi;-inkscape-font-specification:Lavi"
       transform="matrix(1.0774919,0,-0.09434964,1.4194296,1685.3222,2010.3889)"><flowRegion
         id="flowRegion2989-5-4-5-1-7"><rect
           id="rect2991-7-9-6-4-9"
           width="602.40173"
           height="310.73996"
           x="120.55251"
           y="265.53046"
           style="font-style:normal;font-variant:normal;font-weight:normal;font-stretch:normal;text-align:center;text-anchor:middle;stroke:#000000;stroke-width:2.5;stroke-miterlimit:4;stroke-opacity:1;stroke-dasharray:none;font-family:Lavi;-inkscape-font-specification:Lavi" /></flowRegion><flowPara
         style="font-size:48px;text-align:center;letter-spacing:1.5px;text-anchor:middle;stroke:#000000;stroke-width:2.5;stroke-miterlimit:4;stroke-opacity:1;stroke-dasharray:none"
         id="flowPara3030-8-7-9">¡¡¡CUIDADO!!!</flowPara></flowRoot>    <flowRoot
       xml:space="preserve"
       id="flowRoot2987-4-9-3-2-7-0"
       style="font-size:12px;font-style:normal;font-variant:normal;font-weight:normal;font-stretch:normal;text-align:center;line-height:125%;letter-spacing:0px;word-spacing:0px;text-anchor:middle;fill:#000000;fill-opacity:1;stroke:none;font-family:Lavi;-inkscape-font-specification:Lavi"
       transform="translate(1680.9022,2200.5512)"><flowRegion
         id="flowRegion2989-5-4-5-8-2-7"><rect
           id="rect2991-7-9-6-46-6-6"
           width="602.40173"
           height="310.73996"
           x="120.55251"
           y="265.53046"
           style="font-style:normal;font-variant:normal;font-weight:normal;font-stretch:normal;text-align:center;text-anchor:middle;font-family:Lavi;-inkscape-font-specification:Lavi" /></flowRegion><flowPara
         style="font-size:48px;text-align:center;text-anchor:middle"
         id="flowPara4201-8">Es una poción de </flowPara></flowRoot>  </g>
</svg>
