<?xml version="1.0" encoding="UTF-8" standalone="no"?>
<!-- Created with Inkscape (http://www.inkscape.org/) -->

<svg
   xmlns:dc="http://purl.org/dc/elements/1.1/"
   xmlns:cc="http://creativecommons.org/ns#"
   xmlns:rdf="http://www.w3.org/1999/02/22-rdf-syntax-ns#"
   xmlns:svg="http://www.w3.org/2000/svg"
   xmlns="http://www.w3.org/2000/svg"
   xmlns:xlink="http://www.w3.org/1999/xlink"
   xmlns:sodipodi="http://sodipodi.sourceforge.net/DTD/sodipodi-0.dtd"
   xmlns:inkscape="http://www.inkscape.org/namespaces/inkscape"
   id="svg2"
   version="1.1"
   inkscape:version="0.91 r13725"
   width="2481"
   height="3503"
   sodipodi:docname="Pepper-and-Carrot_by-David-Revoy_E06P08.svg">
  <metadata
     id="metadata8">
    <rdf:RDF>
      <cc:Work
         rdf:about="">
        <dc:format>image/svg+xml</dc:format>
        <dc:type
           rdf:resource="http://purl.org/dc/dcmitype/StillImage" />
        <dc:title />
      </cc:Work>
    </rdf:RDF>
  </metadata>
  <defs
     id="defs6">
    <filter
       color-interpolation-filters="sRGB"
       id="filter4375-4-1-1-15-1-3-3"
       inkscape:label="deevad outline effect">
      <feFlood
         id="feFlood4377-7-9-0-4-4-4-7"
         flood-opacity="1"
         flood-color="rgb(0,0,0)"
         result="flood" />
      <feComposite
         id="feComposite4379-3-8-8-6-0-7-4"
         in2="SourceGraphic"
         in="flood"
         operator="in"
         result="composite1" />
      <feMorphology
         id="feMorphology4393-1-0-49-8-2-7-3"
         operator="dilate"
         radius="0.69999999999999996"
         result="result3" />
      <feComposite
         id="feComposite4385-9-5-7-2-1-2-9"
         in2="result3"
         in="SourceGraphic"
         operator="over"
         result="composite2" />
    </filter>
    <filter
       color-interpolation-filters="sRGB"
       id="filter3639"
       inkscape:label="deevad outline effect">
      <feFlood
         id="feFlood3641"
         flood-opacity="1"
         flood-color="rgb(0,0,0)"
         result="flood" />
      <feComposite
         id="feComposite3643"
         in2="SourceGraphic"
         in="flood"
         operator="in"
         result="composite1" />
      <feMorphology
         id="feMorphology3645"
         operator="dilate"
         radius="0.69999999999999996"
         result="result3" />
      <feComposite
         id="feComposite3647"
         in2="result3"
         in="SourceGraphic"
         operator="over"
         result="composite2" />
    </filter>
    <filter
       color-interpolation-filters="sRGB"
       id="filter3649"
       inkscape:label="deevad outline effect">
      <feFlood
         id="feFlood3651"
         flood-opacity="1"
         flood-color="rgb(0,0,0)"
         result="flood" />
      <feComposite
         id="feComposite3653"
         in2="SourceGraphic"
         in="flood"
         operator="in"
         result="composite1" />
      <feMorphology
         id="feMorphology3655"
         operator="dilate"
         radius="0.69999999999999996"
         result="result3" />
      <feComposite
         id="feComposite3657"
         in2="result3"
         in="SourceGraphic"
         operator="over"
         result="composite2" />
    </filter>
  </defs>
  <sodipodi:namedview
     pagecolor="#ffffff"
     bordercolor="#666666"
     borderopacity="1"
     objecttolerance="10"
     gridtolerance="10"
     guidetolerance="10"
     inkscape:pageopacity="0"
     inkscape:pageshadow="2"
     inkscape:window-width="1600"
     inkscape:window-height="876"
     id="namedview4"
     showgrid="false"
     inkscape:zoom="0.42773947"
     inkscape:cx="1260.3199"
     inkscape:cy="2636.6613"
     inkscape:window-x="1276"
     inkscape:window-y="121"
     inkscape:window-maximized="1"
     inkscape:current-layer="layer1" />
  <g
     inkscape:groupmode="layer"
     id="layer2"
     inkscape:label="artwork"
     sodipodi:insensitive="true">
    <image
       sodipodi:absref="/home/willem/Git/peppercarrot_ep06_translation/nl/../gfx_Pepper-and-Carrot_by-David-Revoy_E06P08.png"
       xlink:href="../gfx_Pepper-and-Carrot_by-David-Revoy_E06P08.png"
       width="2481"
       height="3503"
       id="image10"
       x="0"
       y="0" />
  </g>
  <g
     inkscape:groupmode="layer"
     id="layer3"
     inkscape:label="speechbubbles" />
  <g
     inkscape:groupmode="layer"
     id="layer1"
     inkscape:label="txt">
    <path
       style="color:#000000;fill:#ffffff;fill-opacity:1;fill-rule:nonzero;stroke:none;stroke-width:1px;marker:none;visibility:visible;display:inline;overflow:visible;enable-background:accumulate"
       d="m 524.44684,1977.3621 c -14.01377,-46.3951 -40.00882,-95.7772 -45.79925,-144.3988 l -11.44029,45.6542 c -62.91152,-129.7986 -216.9307,-210.2683 -37.93418,5.9274 l 4.61436,-21.5395 c 6.85365,14.1808 24.60331,28.6882 28.47492,44.653 l 15.40082,-17.4241 c 13.28656,38.1411 31.12227,58.0858 46.68362,87.1278 z"
       id="path4032-9"
       inkscape:connector-curvature="0"
       sodipodi:nodetypes="cccccccc" />
    <path
       style="color:#000000;fill:#ffffff;fill-opacity:1;fill-rule:nonzero;stroke:none;stroke-width:1px;marker:none;visibility:visible;display:inline;overflow:visible;enable-background:accumulate"
       d="m 734.33747,2852.147 c 34.68316,-42.7494 111.27433,-68.3456 171.06944,-6.0348 45.90017,-4.9397 81.26643,-4.2641 125.92729,48.6318 -41.84055,-33.4484 -69.35796,-47.6353 -136.48501,-35.9449 -35.82358,-28.4476 -90.54377,-19.0565 -121.82817,39.1849 -31.28451,58.2414 -17.69437,44.59 -17.69437,44.59 l -30.80741,-73.5852 z"
       id="path5074-3-6"
       inkscape:connector-curvature="0"
       sodipodi:nodetypes="ccccsccc" />
    <path
       style="color:#000000;fill:#ffffff;fill-opacity:1;fill-rule:nonzero;stroke:none;stroke-width:1px;marker:none;visibility:visible;display:inline;overflow:visible;enable-background:accumulate"
       d="m 921.73639,1713.3647 c 38.32906,18.6277 26.56293,53.657 -17.25459,29.5292 30.4647,35.9116 50.91128,52.0261 35.37649,66.5249 113.16101,-28.688 40.12509,17.6202 12.35589,45.6958 25.2138,-11.1892 65.39632,-42.7141 50.24712,0.9326 8.0165,-2.0071 17.4491,-7.7553 21.4169,0.9326 10.2141,-5.9994 17.8025,-7.54 22.2405,-3.7303 10.0387,-10.9178 16.5252,-13.7923 16.4745,-1.865 9.4908,-8.9943 12.4136,-5.8987 14.827,-1.8652 16.2884,-19.3104 22.3718,-13.8628 28.8303,-9.3257 9.2223,-11.5941 20.0147,-8.9681 32.1252,5.5954 12.3911,-19.7186 25.706,-18.519 39.5387,-5.5954 4.0629,-4.8576 7.7526,-13.0937 13.1796,-5.5954 5.4916,-2.5937 10.9829,-9.2401 16.4744,-2.7977 57.96,-25.5257 83.2408,-3.9641 110.3791,14.921 15.1317,-8.3376 26.0358,-24.4528 51.8945,-13.0558 2.4173,-11.638 16.2824,-16.3634 40.3625,-14.9211 -24.6985,-14.0451 -25.9691,-22.0409 31.3015,-14.9211 -39.9179,-11.5016 -76.7041,-23.0032 -14.8271,-34.5049 -14.4922,-4.5662 -61.8613,6.1755 -9.8847,-48.4933 -36.9085,12.0657 -70.4145,15.2007 -80.7249,-33.5725 -19.9115,12.8266 -41.9579,19.1806 -59.3081,-10.2582 -15.8027,13.7936 -37.9137,10.4819 -49.4234,3.7302 -3.114,15.1069 -26.6303,38.2752 -58.4843,-3.7302 6.989,23.8751 1.6991,61.9029 -35.4201,-0.9326 -0.7362,10.9306 14.5493,70.3734 -88.9621,-0.9326 12.9121,47.8406 -21.4561,20.0035 -48.59972,3.7302 13.46032,29.9949 -6.7969,32.3145 -51.0709,14.9211 34.1543,28.4805 -0.96419,20.6172 -23.06429,19.584 z"
       id="path3549-2"
       inkscape:connector-curvature="0"
       sodipodi:nodetypes="ccccccccccccccccccccccccccccc" />
    <path
       style="color:#000000;display:inline;overflow:visible;visibility:visible;fill:#ffffff;fill-opacity:1;fill-rule:nonzero;stroke:none;stroke-width:1px;marker:none;enable-background:accumulate"
       d="m 635.45489,1756.655 c 77.68327,15.425 156.862,30.5991 24.64521,81.2353 127.96603,-16.2519 51.0576,11.8906 20.74972,29.935 227.61028,-41.4052 83.1768,17.8474 29.19191,52.6287 50.28839,-14.8404 129.21448,-54.5176 102.28122,-2.3845 59.33909,-26.6335 152.41046,-74.8686 43.64297,-0.39 91.52082,-45.8924 93.55468,-41.119 44.90382,-5.9045 59.89834,-31.4082 70.14926,-25.9232 63.33298,-6.5312 37.72038,-40.6127 46.04528,-22.5251 57.80968,-12.9095 17.7269,-14.208 39.911,-11.8811 65.8373,4.3267 23.4499,-23.9364 50.6377,1.4801 50.7648,24.3218 19.3753,-34.413 51.4248,-39.2878 81.3815,-0.9563 0.5853,-22.9435 0.1464,-71.9868 46.217,-0.077 -12.0551,-65.7771 137.5099,-37.9895 209.6299,3.324 -42.449,-48.2731 -6.2824,-79.0486 81.7119,-56.8129 3.882,-13.7886 31.6627,-20.2784 80.7677,-20.2561 -51.483,-14.7301 -54.7779,-24.0007 62.3386,-19.6293 -82.2119,-10.7004 -158.0541,-21.6174 -33.2235,-39.3597 -29.8819,-4.3417 -125.2719,11.5073 -24.4144,-56.0738 -73.9967,16.6752 -141.8664,22.6623 -167.1712,-33.7096 -39.3586,16.3899 -83.6343,25.3519 -121.5392,-7.9038 -30.9158,17.2375 -76.1817,14.8911 -100.1916,7.7849 -4.991,17.8968 -50.7621,46.6403 -119.2836,-0.3202 16.3367,27.4604 8.9574,72.3351 -72.1244,1.3589 -0.5256,12.8442 35.8462,81.36 -181.02427,5.0624 30.51401,55.1004 -41.86192,24.8968 -98.51616,7.7278 30.04286,34.1756 -10.9524,38.2919 -102.54761,20.9969 71.99803,30.9716 -0.12888,24.1975 -45.17027,24.517 z"
       id="path3549"
       inkscape:connector-curvature="0"
       sodipodi:nodetypes="ccccccccccccccccccccccccccccc" />
    <path
       style="color:#000000;fill:#ffffff;fill-opacity:1;fill-rule:nonzero;stroke:none;stroke-width:1px;marker:none;visibility:visible;display:inline;overflow:visible;enable-background:accumulate"
       d="m 448.79463,432.81297 c 33.78023,-32.37434 217.51407,-29.61063 278.64573,-15.58448 61.13139,14.02598 83.878,38.182 86.7213,46.75353 2.84317,8.57145 -4.26493,48.31195 -35.5416,56.10428 -31.27649,7.79224 -120.8411,11.68836 -152.11776,11.68836 -31.27649,0 -131.11816,-4.95974 -156.38296,-16.36377 -24.16828,-10.90916 -55.10508,-50.22366 -21.32471,-82.59792 z"
       id="path3330"
       inkscape:connector-curvature="0"
       sodipodi:nodetypes="zsssssz" />
    <path
       style="color:#000000;display:inline;overflow:visible;visibility:visible;fill:#ffffff;fill-opacity:1;fill-rule:nonzero;stroke:none;stroke-width:1px;marker:none;enable-background:accumulate"
       d="m 375.44341,701.08288 c -12.02708,-53.78796 20.04508,-196.66214 266.60102,-184.89597 246.55576,11.76596 275.24219,74.05847 292.6597,99.17137 8.95615,16.67568 85.36697,129.48619 -108.41083,150.74641 -196.1328,21.5186 -390.71426,12.29825 -450.84989,-65.02181 z"
       id="path3525"
       inkscape:connector-curvature="0"
       sodipodi:nodetypes="cscsc" />
    <flowRoot
       transform="translate(198.43199,172.69514)"
       style="font-style:normal;font-variant:normal;font-weight:normal;font-stretch:normal;font-size:12px;line-height:125%;font-family:Lavi;-inkscape-font-specification:Lavi;text-align:center;letter-spacing:0px;word-spacing:0px;text-anchor:middle;fill:#000000;fill-opacity:1;stroke:none"
       id="flowRoot3045"
       xml:space="preserve"><flowRegion
         id="flowRegion3047"><rect
           style="font-style:normal;font-variant:normal;font-weight:normal;font-stretch:normal;font-family:Lavi;-inkscape-font-specification:Lavi;text-align:center;text-anchor:middle"
           y="265.53046"
           x="120.55251"
           height="310.73996"
           width="602.40173"
           id="rect3049" /></flowRegion><flowPara
         id="flowPara3055"
         style="font-size:48px;text-align:center;text-anchor:middle">moet je zien...</flowPara></flowRoot>    <path
       style="color:#000000;fill:#ffffff;fill-opacity:1;fill-rule:nonzero;stroke:none;stroke-width:1px;marker:none;visibility:visible;display:inline;overflow:visible;enable-background:accumulate"
       d="m 900.08615,716.05926 c 42.51329,20.49356 123.80235,14.32923 138.26235,-30.35733 -49.15569,36.55167 -109.63611,20.90132 -120.75593,10.89767 -11.11981,-10.00366 -17.50642,19.45966 -17.50642,19.45966 z"
       id="path3978"
       inkscape:connector-curvature="0" />
    <flowRoot
       xml:space="preserve"
       id="flowRoot2987-4-9-3"
       style="font-style:normal;font-variant:normal;font-weight:normal;font-stretch:normal;font-size:12px;line-height:125%;font-family:Lavi;-inkscape-font-specification:Lavi;text-align:center;letter-spacing:0px;word-spacing:0px;text-anchor:middle;fill:#000000;fill-opacity:1;stroke:none"
       transform="translate(238.3621,286.72091)"><flowRegion
         id="flowRegion2989-5-4-5"><rect
           id="rect2991-7-9-6"
           width="602.40173"
           height="310.73996"
           x="120.55251"
           y="265.53046"
           style="font-style:normal;font-variant:normal;font-weight:normal;font-stretch:normal;font-family:Lavi;-inkscape-font-specification:Lavi;text-align:center;text-anchor:middle" /></flowRegion><flowPara
         style="font-size:48px;text-align:center;text-anchor:middle"
         id="flowPara4658">... zoals gebruikelijk vertrekt iedereen net</flowPara><flowPara
         style="font-size:48px;text-align:center;text-anchor:middle"
         id="flowPara4223">als je aan de beurt bent</flowPara></flowRoot>    <path
       style="color:#000000;display:inline;overflow:visible;visibility:visible;fill:#ffffff;fill-opacity:1;fill-rule:nonzero;stroke:none;stroke-width:1px;marker:none;enable-background:accumulate"
       d="m 1554.1833,792.03144 c 57.092,-89.14415 339.289,-81.53416 431.105,-42.91255 91.8153,38.62116 122.9796,105.1358 125.9955,128.7379 3.0158,23.60185 -14.214,133.02901 -63.5608,154.48561 -49.3464,21.4563 -187.7395,32.1844 -235.8518,32.1844 -48.1123,0 -200.9113,-13.6569 -237.9692,-45.0585 -35.4494,-30.03876 -76.8111,-138.29292 -19.7187,-227.43686 z"
       id="path3330-3"
       inkscape:connector-curvature="0"
       sodipodi:nodetypes="zsssssz" />
    <flowRoot
       xml:space="preserve"
       id="flowRoot2987-4-9-3-8"
       style="font-style:normal;font-variant:normal;font-weight:normal;font-stretch:normal;font-size:12px;line-height:125%;font-family:Lavi;-inkscape-font-specification:Lavi;text-align:center;letter-spacing:0px;word-spacing:0px;text-anchor:middle;fill:#000000;fill-opacity:1;stroke:none"
       transform="translate(1440.132,515.57323)"><flowRegion
         id="flowRegion2989-5-4-5-8"><rect
           id="rect2991-7-9-6-5"
           width="506.52048"
           height="350.41492"
           x="120.55251"
           y="265.53046"
           style="font-style:normal;font-variant:normal;font-weight:normal;font-stretch:normal;font-family:Lavi;-inkscape-font-specification:Lavi;text-align:center;text-anchor:middle" /></flowRegion><flowPara
         style="font-size:48px;text-align:center;text-anchor:middle"
         id="flowPara3140">Ik weet nu ten minste wat ik met jouw “toverdrank&quot; moet doen, Carrot</flowPara></flowRoot>    <path
       style="color:#000000;fill:#ffffff;fill-opacity:1;fill-rule:nonzero;stroke:none;stroke-width:1px;marker:none;visibility:visible;display:inline;overflow:visible;enable-background:accumulate"
       d="m 1441.4333,792.86046 c 1.8123,17.9111 3.4719,36.60072 12.514,52.57918 2.6665,4.48827 5.7379,8.94714 9.7431,12.29849 4.9422,2.55729 10.902,0.92324 14.9972,-2.48609 6.2588,-4.50938 10.9613,-11.84776 18.8831,-13.58596 5.7972,-1.12556 10.4379,3.16953 14.6457,6.42604 10.5623,8.51108 20.0337,18.50261 31.8998,25.28467 12.8634,8.50453 27.0155,16.51979 42.7488,17.47511 6.2316,0.27366 12.7888,-0.31154 18.2031,-3.68195 14.2818,-8.01643 24.173,-24.34511 22.834,-40.90808 -1.8569,-10.48428 -12.9332,-19.03038 -23.5991,-16.39316 -5.6511,1.30784 -9.507,6.21921 -11.5244,11.3814 -5.4816,8.7963 -15.7551,13.86937 -26.0014,13.88113 -8.456,0.14805 -16.8709,-2.36044 -24.0764,-6.73748 -11.3704,-3.36484 -18.2685,-13.64874 -26.3598,-21.52774 -3.7502,-3.54453 -7.9795,-7.06083 -13.0234,-8.42848 -7.6564,-0.23923 -13.3775,5.76673 -17.631,11.40618 -4.5368,5.70318 -9.1549,12.83128 -16.9484,14.04463 -5.2949,1.57023 -8.0628,-4.3141 -11.2198,-7.42808 -8.8564,-11.35341 -14.0534,-25.32791 -16.0433,-39.50562 -0.089,-1.36474 -0.067,-2.72787 -0.042,-4.09419 z"
       id="path4496"
       inkscape:connector-curvature="0"
       inkscape:transform-center-x="-99.717282"
       inkscape:transform-center-y="101.38562" />
    <path
       style="color:#000000;display:inline;overflow:visible;visibility:visible;fill:#ffffff;fill-opacity:1;fill-rule:nonzero;stroke:none;stroke-width:1px;marker:none;enable-background:accumulate"
       d="m 1823.6184,1103.8725 c 41.6606,-81.8368 273.7295,-91.7664 349.1222,-56.3108 75.3922,35.4553 92.4997,87.7037 96.0062,109.3711 3.5064,21.6672 5.6858,106.0434 -35.6236,148.2546 -31.7385,32.4313 -151.7677,48.8434 -190.3408,48.8434 -38.5727,0 -161.7058,-12.5373 -192.8645,-41.3648 -29.8065,-27.5766 -67.9603,-126.9567 -26.2995,-208.7935 z"
       id="path3330-7"
       inkscape:connector-curvature="0"
       sodipodi:nodetypes="zsssssz" />
    <flowRoot
       xml:space="preserve"
       id="flowRoot2987-4-9-3-8-9"
       style="font-style:normal;font-variant:normal;font-weight:normal;font-stretch:normal;font-size:12px;line-height:125%;font-family:Lavi;-inkscape-font-specification:Lavi;text-align:center;letter-spacing:0px;word-spacing:0px;text-anchor:middle;fill:#000000;fill-opacity:1;stroke:none"
       transform="translate(1699.0593,812.17479)"><flowRegion
         id="flowRegion2989-5-4-5-8-6"><rect
           id="rect2991-7-9-6-5-0"
           width="435.4361"
           height="325.61807"
           x="120.55251"
           y="265.53046"
           style="font-style:normal;font-variant:normal;font-weight:normal;font-stretch:normal;font-family:Lavi;-inkscape-font-specification:Lavi;text-align:center;text-anchor:middle" /></flowRegion><flowPara
         style="font-size:48px;text-align:center;text-anchor:middle"
         id="flowPara4678">... hier alles weer</flowPara><flowPara
         style="font-size:48px;text-align:center;text-anchor:middle"
         id="flowPara4237">in orde maken en terug naar huis gaan!</flowPara></flowRoot>    <flowRoot
       xml:space="preserve"
       id="flowRoot2987-4-9-3-8-9-5"
       style="font-style:normal;font-variant:normal;font-weight:normal;font-stretch:normal;font-size:12px;line-height:125%;font-family:Lavi;-inkscape-font-specification:Lavi;text-align:center;letter-spacing:0px;word-spacing:0px;text-anchor:middle;fill:#000000;fill-opacity:1;stroke:none"
       transform="translate(725.21911,1446.0215)"><flowRegion
         id="flowRegion2989-5-4-5-8-6-3"><rect
           id="rect2991-7-9-6-5-0-1"
           width="602.40173"
           height="310.73996"
           x="120.55251"
           y="265.53046"
           style="font-style:normal;font-variant:normal;font-weight:normal;font-stretch:normal;font-family:Lavi;-inkscape-font-specification:Lavi;text-align:center;text-anchor:middle" /></flowRegion><flowPara
         style="font-size:48px;text-align:center;text-anchor:middle"
         id="flowPara3211-2">Jij </flowPara></flowRoot>    <path
       style="color:#000000;fill:#ffffff;fill-opacity:1;fill-rule:nonzero;stroke:none;stroke-width:1px;marker:none;visibility:visible;display:inline;overflow:visible;enable-background:accumulate"
       d="m 799.55794,2061.6662 c 41.54476,-24.9583 79.49671,-56.3087 125.21587,-73.8403 l -43.51369,-5.8567 c 12.70794,-14.5474 33.04403,-20.2182 50.79008,-28.9032 l -26.26055,-7.9369 c 30.43962,-33.9774 70.07719,-50.7411 105.26895,-75.8248 l -46.93148,-10.2988 c -32.40962,29.4099 -59.34882,63.5475 -97.91175,87.6396 l 24.81802,10.2865 c -12.06842,10.1205 -24.58698,19.7921 -39.1159,27.4588 l 32.36116,10.2326 z"
       id="path4032"
       inkscape:connector-curvature="0"
       sodipodi:nodetypes="cccccccccccc" />
    <flowRoot
       transform="matrix(0.93080411,0,-0.09044116,1.21695,692.06542,1428.3539)"
       style="font-style:normal;font-variant:normal;font-weight:normal;font-stretch:normal;font-size:12px;line-height:125%;font-family:Lavi;-inkscape-font-specification:Lavi;text-align:center;letter-spacing:0px;word-spacing:0px;text-anchor:middle;fill:#000000;fill-opacity:1;stroke:#000000;stroke-width:2.71217394;stroke-miterlimit:4;stroke-dasharray:none;stroke-opacity:1"
       id="flowRoot4212-3-7-8-6"
       xml:space="preserve"><flowRegion
         id="flowRegion4214-6-7-8-3"><rect
           style="font-style:normal;font-variant:normal;font-weight:normal;font-stretch:normal;font-family:Lavi;-inkscape-font-specification:Lavi;text-align:center;text-anchor:middle;stroke:#000000;stroke-width:2.71217394;stroke-miterlimit:4;stroke-dasharray:none;stroke-opacity:1"
           y="284.74136"
           x="84.744102"
           height="333.9072"
           width="914.18988"
           id="rect4216-4-0-26-5" /></flowRegion><flowPara
         style="font-size:48px;text-align:center;letter-spacing:5.20896292px;text-anchor:middle;stroke:#000000;stroke-width:2.71217394;stroke-miterlimit:4;stroke-dasharray:none;stroke-opacity:1"
         id="flowPara3048">Overmaatse-luxe-zombie-kanarie!</flowPara></flowRoot>    <path
       style="fill:#ffffff;fill-opacity:1;stroke:none"
       d="m 826.84882,2875.6026 c -28.78194,-6.8708 -39.86465,-13.258 -34.71629,-17.1941 -11.80514,-1.9615 -16.405,-53.0973 -5.37616,-62.4448 0.73408,-0.984 5.88563,-3.9365 3.67174,-4.4272 -2.21377,-0.4907 -15.48178,0.9903 -17.7007,-0.9754 -2.21892,-1.9659 19.80671,-30.0034 16.85382,-30.9856 -2.95312,-0.9819 -48.71563,-5.0755 -58.31677,-9.4966 -9.60132,-4.421 -26.49188,7.0768 -29.44314,6.5863 3.4829,-14.2548 -30.22459,2.4724 -33.91331,1.9824 -3.68846,-0.4902 -10.37554,-15.2384 -14.06417,-15.7283 -3.68873,-0.4901 -20.62516,6.4014 -23.57642,5.9112 -2.95127,-0.4904 -1.51852,-12.7839 -5.20724,-13.2737 -3.68863,-0.4902 -19.87413,10.3348 -22.08801,9.8442 -2.21382,-0.4908 -10.40961,-25.0727 -14.10158,-26.5461 -3.69205,-1.4734 -27.19067,27.0565 -29.40124,27.5493 -2.21038,0.4927 -16.33721,-33.429 -19.28858,-33.9195 -2.95125,-0.4903 -17.618,23.1187 -19.83194,22.628 -2.21386,-0.4907 -16.27151,-14.2524 -19.22437,-15.2344 -2.95296,-0.982 -22.01722,30.496 -24.96671,30.4975 -2.94968,0 -28.06645,-13.2635 -30.28714,-15.721 -2.22062,-2.4575 -4.38037,12.7865 -7.32996,12.7879 -2.9496,0 -36.8999,-8.8341 -37.63573,-8.3421 -0.73563,0.4922 5.19559,9.832 2.98343,9.8331 -2.21216,0 -36.91174,-12.2763 -38.37824,-9.8169 -1.4662,2.4592 -75.25603,-12.2585 -80.41103,-10.2894 -5.155,1.9693 33.321,40.3052 29.6443,43.2571 -3.67687,2.952 -16.96194,-0.4839 -17.69421,0.9915 -0.73226,1.4756 8.13835,7.8637 5.9331,9.8316 -2.2056,1.9678 -27.24992,9.8467 -29.45355,12.306 -2.20381,2.4598 11.09119,8.8459 8.14677,10.3225 -2.94462,1.4765 -46.41879,10.8388 -47.14768,13.2977 -0.72889,2.4588 22.17066,14.2493 19.23298,17.6927 -2.93777,3.4433 -11.04403,4.9221 -10.29818,7.3804 0.74586,2.4583 14.76648,5.4021 14.03749,7.861 -0.72907,2.459 -8.06071,14.755 -10.26612,16.7229 -2.20543,1.9678 15.4886,0.9763 15.49535,2.9431 0.006,1.9669 11.70776,14.234 -28.19588,43.8839 61.30373,-22.9118 65.95135,-0.6303 90.29866,3.2922 24.34757,3.9227 14.84569,28.5125 18.53765,29.986 3.69208,1.4735 30.9419,-8.3732 34.64071,-4.933 3.69872,3.4405 5.19539,9.8319 8.14507,9.8306 2.94942,0 27.41761,-10.0372 31.10613,-9.5472 30.52071,-6.974 42.16312,15.227 36.02852,18.8592 5.16335,0.4893 25.04255,-8.3706 29.46527,-8.8643 4.42267,-0.4937 8.15173,11.7973 11.83536,10.8123 3.68363,-0.9849 27.24974,-9.8467 30.93993,-8.8649 3.69039,0.9818 6.65347,4.9141 9.59977,3.9292 2.94601,-0.9846 16.20569,-4.9244 16.20569,-4.9244 0,0 9.59619,2.9459 14.02054,2.9439 4.42432,0 21.06027,-12.4678 24.74388,-13.453 3.6836,-0.985 37.77994,4.329 53.63303,34.6438 -8.97279,-35.735 26.27189,-38.94 31.4286,-40.4175 5.15662,-1.4775 20.65716,2.9408 22.12668,1.465 1.46979,-1.4759 5.86712,-9.3451 10.28989,-9.8389 4.42267,-0.4937 14.73933,-2.4651 14.73933,-2.4651 l -1.4848,-2.9497 c 0,0 30.99734,7.8532 34.69448,10.8018 3.69703,2.9486 -2.2561,-12.7833 -4.48178,-16.7161 13.28642,3.9278 52.39697,12.269 55.35488,14.7262 2.95804,2.4572 -5.19192,-8.8486 -9.62817,-12.2885 5.90416,1.4726 11.06761,1.962 11.06761,1.962 l -17.0005,-11.7934 5.15844,-0.9858 c 0,0 -11.07941,-5.4039 -11.08788,-7.8625 -0.008,-2.4584 28.7396,-5.4219 28.7396,-5.4219 0,0 -11.81349,-4.42 -8.87239,-6.8798 2.94134,-2.46 10.3101,-3.9384 10.3101,-3.9384 l 1.45281,-6.3929 z"
       id="path5888"
       inkscape:connector-curvature="0"
       sodipodi:nodetypes="ccccccccccsccccsccccccsccsccscsccccscccscccccscccccsccccscccccccccccc" />
    <flowRoot
       xml:space="preserve"
       id="flowRoot2987-4-9-3-0"
       style="font-style:normal;font-variant:normal;font-weight:normal;font-stretch:normal;font-size:12px;line-height:125%;font-family:Lavi;-inkscape-font-specification:Lavi;text-align:center;letter-spacing:0px;word-spacing:0px;text-anchor:middle;fill:#000000;fill-opacity:1;stroke:none"
       transform="translate(120.66404,2524.3888)"><flowRegion
         id="flowRegion2989-5-4-5-1"><rect
           id="rect2991-7-9-6-4"
           width="602.40173"
           height="310.73996"
           x="120.55251"
           y="265.53046"
           style="font-style:normal;font-variant:normal;font-weight:normal;font-stretch:normal;font-family:Lavi;-inkscape-font-specification:Lavi;text-align:center;text-anchor:middle" /></flowRegion><flowPara
         style="font-size:48px;text-align:center;letter-spacing:1.5px;text-anchor:middle;stroke:#000000;stroke-width:1.10000002;stroke-miterlimit:4;stroke-dasharray:none;stroke-opacity:1"
         id="flowPara4687">Nog één drankje</flowPara><flowPara
         style="font-size:48px;text-align:center;letter-spacing:1.5px;text-anchor:middle;stroke:#000000;stroke-width:1.10000002;stroke-miterlimit:4;stroke-dasharray:none;stroke-opacity:1"
         id="flowPara4241">proberen?</flowPara></flowRoot>    <path
       style="fill:#ffffff;fill-opacity:1;stroke:none"
       d="m 1797.6547,3230.2615 c 65.6139,9.2899 43.5411,-26.9225 39.3615,-31.4112 15.9801,7.5325 43.2078,-0.7552 14.8856,-26.9739 40.2409,10.5241 20.5428,5.5615 -2.8713,-22.661 35.4451,14.3509 57.7968,5.2735 32.6194,-14.6222 36.1652,25.5824 48.9096,17.4152 25.8439,-14.3518 45.4797,32.904 36.9692,20.5118 25.8861,4.2631 37.8746,29.6572 9.7278,-14.4768 12.6238,-14.7157 2.896,-0.2392 15.1504,7.7676 17.4788,7.4784 2.3282,-0.2891 2.6278,-12.6297 5.5239,-12.8687 2.896,-0.2392 14.1232,11.6344 15.8839,11.2952 6.8305,4.1671 14.0232,-21.4717 13.8868,-25.4873 -2.9115,3.4825 13.7655,32.0233 19.4946,29.4224 1.6457,0.6397 21.0383,-32.8626 18.7221,-32.4809 -4.3199,0.7117 8.7544,24.5415 12.688,23.8752 3.1279,4.4146 16.0456,-6.5227 16.5407,-13.8756 -1.2167,2.0805 9.5196,34.9966 15.7437,32.0594 2.8093,6.1738 23.5928,-6.1096 25.114,-13.6136 1.9903,-2.2977 1.9139,13.0306 4.1847,13.231 -4.007,7.5536 25.2031,-1.3681 29.9303,-5.7684 0.5104,0.5398 -2.8178,8.0277 -3.419,9.592 -3.2403,8.4305 23.4647,0.9132 30.6702,-7.1872 -27.7889,40.4232 53.327,0.8276 63.0884,-4.8212 3.7445,2.3094 -30.2553,37.8939 -27.7612,41.0821 2.4943,3.1883 13.1156,0.6628 13.5109,2.1825 0.3954,1.5189 -7.1636,7.2828 -5.6903,9.3915 1.4737,2.1086 19.8581,11.646 21.2743,14.2442 1.4162,2.5985 -9.5494,8.0617 -7.4506,9.731 2.0988,1.6694 34.5042,13.9278 34.7848,16.4258 0.2808,2.4982 -18.6966,12.6958 -16.8274,16.3235 1.8691,3.6278 7.9418,5.6476 7.0871,8.0457 -0.8548,2.398 -11.9862,4.3837 -11.7055,6.8819 0.2808,2.4983 4.5228,15.2396 5.9964,17.3481 1.4736,2.1089 -12.0371,-0.073 -12.2666,1.8857 -0.2348,1.9581 -36.3286,8.9695 19.6005,45.786 -60.7461,-23.5119 -53.6067,-5.2549 -72.8011,-2.9914 -19.1946,2.2638 -14.6843,27.3957 -17.6951,28.6142 -3.0108,1.2182 -22.8688,-10.4277 -26.1094,-7.251 -3.2406,3.1768 -5.1222,9.4417 -7.3934,9.2412 -2.2707,-0.199 -19.9653,-11.8471 -22.8612,-11.6081 -22.7044,-9.0054 -34.2019,12.3201 -29.8929,16.3517 -4.0315,0.139 -18.3271,-10.0269 -21.6761,-10.8171 -3.349,-0.7902 -7.6228,11.1997 -10.3466,9.9701 -2.7239,-1.2297 -19.858,-11.6462 -22.8113,-10.9173 -2.9537,0.7287 -5.6838,4.4454 -7.8399,3.2654 -2.1561,-1.1794 -11.9161,-5.9981 -11.9161,-5.9981 0,0 -7.725,2.2864 -11.1313,1.9858 -3.4066,-0.2986 -24.789,-18.5118 -27.5127,-19.7416 -2.724,-1.2297 -50.4111,24.3867 -49.0523,27.4748 1.3588,3.0882 -1.9865,-32.4734 -5.7884,-34.293 -3.8018,-1.8196 -16.241,1.5349 -17.204,-0.034 -0.9634,-1.569 -3.4513,-9.7032 -6.8003,-10.4935 -3.3491,-0.7903 -11.0676,-3.45 -11.0676,-3.45 l 1.4799,-2.8377 c 0,0 -24.7633,5.7298 -27.9464,8.417 -3.1832,2.687 3.1958,-12.5797 5.3584,-16.3465 -10.6784,3.0155 -41.7444,8.6835 -44.3021,10.9312 -2.5581,2.2476 5.0071,-8.4625 8.8155,-11.5892 -4.714,1.0682 -8.7456,1.2072 -8.7456,1.2072 l 14.4356,-10.5986 -3.8595,-1.3298 c 0,0 9.1476,-4.6345 9.4345,-7.0826 0.2907,-2.4476 -21.5099,-7.3395 -21.5099,-7.3395 66.6123,1.3577 18.3026,-16.6897 -7.6932,-22.4454 z"
       id="path5888-2"
       inkscape:connector-curvature="0"
       sodipodi:nodetypes="ccccccccsccccsccccccsccsccscsccccscccscccccscccccsccccsccccccccc" />
    <path
       style="color:#000000;fill:#ffffff;fill-opacity:1;fill-rule:nonzero;stroke:none;stroke-width:1px;marker:none;visibility:visible;display:inline;overflow:visible;enable-background:accumulate"
       d="m 1949.2127,3186.2754 c -39.3897,38.4564 -118.4251,55.0326 -170.6211,-13.769 -46.1636,-0.3962 -81.2149,-5.1531 -119.4658,-62.8545 37.6962,38.0583 63.3903,55.3293 131.4185,51.4723 32.2972,32.3957 87.7359,29.3893 125.5394,-24.8478 37.8036,-54.2372 22.7273,-42.2473 22.7273,-42.2473 l 22.0999,76.6516 z"
       id="path5074-3"
       inkscape:connector-curvature="0"
       sodipodi:nodetypes="ccccsccc" />
    <flowRoot
       xml:space="preserve"
       id="flowRoot2987-4-9-3-0-3"
       style="font-style:normal;font-variant:normal;font-weight:normal;font-stretch:normal;font-size:12px;line-height:125%;font-family:Lavi;-inkscape-font-specification:Lavi;text-align:center;letter-spacing:0px;word-spacing:0px;text-anchor:middle;fill:#000000;fill-opacity:1;stroke:none"
       transform="translate(1617.4054,2908.4729)"><flowRegion
         id="flowRegion2989-5-4-5-1-6"><rect
           id="rect2991-7-9-6-4-7"
           width="602.40173"
           height="310.73996"
           x="120.55251"
           y="265.53046"
           style="font-style:normal;font-variant:normal;font-weight:normal;font-stretch:normal;font-family:Lavi;-inkscape-font-specification:Lavi;text-align:center;text-anchor:middle" /></flowRegion><flowPara
         style="font-size:48px;text-align:center;letter-spacing:1.5px;text-anchor:middle;stroke:#000000;stroke-width:1.10000002;stroke-miterlimit:4;stroke-dasharray:none;stroke-opacity:1"
         id="flowPara4202">... liever niet,</flowPara><flowPara
         style="font-size:48px;text-align:center;letter-spacing:1.5px;text-anchor:middle;stroke:#000000;stroke-width:1.10000002;stroke-miterlimit:4;stroke-dasharray:none;stroke-opacity:1"
         id="flowPara4245">hè?</flowPara></flowRoot>    <path
       style="color:#000000;fill:#ffffff;fill-opacity:1;fill-rule:nonzero;stroke:none;stroke-width:1px;marker:none;visibility:visible;display:inline;overflow:visible;enable-background:accumulate"
       d="m 432.9877,1582.757 c -4.62527,14.1556 -29.80658,59.4538 -38.06244,16.2093 -42.3877,66.8706 -90.94164,55.4388 -139.14497,48.4577 -9.52731,19.5362 -7.09875,46.1647 -46.96241,47.7053 7.95498,15.9183 -3.45476,30.2003 -32.14335,43.0229 40.98017,2.4517 49.77676,11.6093 -21.84737,37.5242 55.93525,-9.943 108.31222,-17.9855 48.57741,33.848 20.66662,-3.1249 64.61473,-45.2102 55.82445,54.2176 30.8443,-37.3814 66.03449,-61.6079 122.59982,-7.3014 10.83096,-28.0111 30.03942,-49.2804 76.82521,-23.2543 5.27288,-26.7184 55.3579,-38.7619 74.64488,-37.3629 -41.4714,-20.5081 -42.72921,-38.0996 7.62637,-50.843 -92.48457,-33.4472 -21.82215,-39.6374 -9.97409,-55.1095 -69.36813,-4.1008 -42.62685,-31.5667 -33.87821,-55.3999 -76.91874,14.4742 -56.82784,-24.9365 -64.0853,-51.714 z"
       id="path3549-3"
       inkscape:connector-curvature="0"
       sodipodi:nodetypes="ccccccccccccccc" />
    <flowRoot
       transform="matrix(1.8217115,0,-0.17700578,1.8738433,-535.05413,1190.8474)"
       style="font-style:normal;font-variant:normal;font-weight:normal;font-stretch:normal;font-size:12px;line-height:125%;font-family:Lavi;-inkscape-font-specification:Lavi;text-align:center;letter-spacing:0px;word-spacing:0px;text-anchor:middle;fill:#000000;fill-opacity:1;stroke:#000000;stroke-width:2.71217394;stroke-miterlimit:4;stroke-dasharray:none;stroke-opacity:1"
       id="flowRoot4212-3-7-8-6-5"
       xml:space="preserve"><flowRegion
         id="flowRegion4214-6-7-8-3-6"><rect
           style="font-style:normal;font-variant:normal;font-weight:normal;font-stretch:normal;font-family:Lavi;-inkscape-font-specification:Lavi;text-align:center;text-anchor:middle;stroke:#000000;stroke-width:2.71217394;stroke-miterlimit:4;stroke-dasharray:none;stroke-opacity:1"
           y="265.53046"
           x="120.55251"
           height="355.03918"
           width="798.1947"
           id="rect4216-4-0-26-5-2" /></flowRegion><flowPara
         style="font-size:48px;text-align:center;letter-spacing:1.45219982px;text-anchor:middle;stroke:#000000;stroke-width:2.71217394;stroke-miterlimit:4;stroke-dasharray:none;stroke-opacity:1"
         id="flowPara4358-7-1-6">HÉ!</flowPara></flowRoot>    <flowRoot
       xml:space="preserve"
       id="flowRoot4133-6-9-4-8-5-3"
       style="color:#000000;font-style:normal;font-variant:normal;font-weight:normal;font-stretch:normal;font-size:12px;line-height:125%;font-family:Arial;-inkscape-font-specification:Arial;letter-spacing:0.00204969px;word-spacing:0px;display:inline;overflow:visible;visibility:visible;fill:#ffffff;fill-opacity:1;fill-rule:nonzero;stroke:#ffffff;stroke-width:0.0836072;stroke-linecap:butt;stroke-linejoin:miter;stroke-miterlimit:4;stroke-dasharray:none;stroke-dashoffset:0;stroke-opacity:1;marker:none;filter:url(#filter4375-4-1-1-15-1-3-3);enable-background:accumulate"
       transform="matrix(8.3099216,-5.4900388,-0.26452567,16.18078,-7093.1327,-9087.3999)"><flowRegion
         id="flowRegion4135-2-9-3-5-2-6"
         style="stroke-width:0.86646658"><rect
           id="rect4137-1-7-1-2-1-4"
           width="200.00224"
           height="39.051064"
           x="1125.3193"
           y="1078.5308"
           style="color:#000000;letter-spacing:0.00204969px;display:inline;overflow:visible;visibility:visible;fill:#ffffff;fill-opacity:1;fill-rule:nonzero;stroke:#ffffff;stroke-width:0.0836072;stroke-linecap:butt;stroke-linejoin:miter;stroke-miterlimit:4;stroke-dasharray:none;stroke-dashoffset:0;stroke-opacity:1;marker:none;filter:url(#filter4375-4-1-1-15-1-3-3);enable-background:accumulate" /></flowRegion><flowPara
         id="flowPara4139-2-8-6-8-6-3"
         style="color:#000000;font-style:normal;font-variant:normal;font-weight:normal;font-stretch:normal;font-size:17.85409164px;line-height:125%;font-family:Lavi;-inkscape-font-specification:Lavi;letter-spacing:0.00204969px;word-spacing:0.00204969px;display:inline;overflow:visible;visibility:visible;fill:#ffffff;fill-opacity:1;fill-rule:nonzero;stroke:#ffffff;stroke-width:0.0836072;stroke-linecap:butt;stroke-linejoin:miter;stroke-miterlimit:4;stroke-dasharray:none;stroke-dashoffset:0;stroke-opacity:1;marker:none;filter:url(#filter4375-4-1-1-15-1-3-3);enable-background:accumulate">K<flowSpan
   style="font-size:13.08514309px"
   id="flowSpan3116">R</flowSpan><flowSpan
   id="flowSpan3122"
   style="font-size:8.7063818px">AA</flowSpan><flowSpan
   id="flowSpan3126"
   style="font-size:7.83930063px">K!</flowSpan></flowPara></flowRoot>  </g>
</svg>
