<?xml version="1.0" encoding="UTF-8" standalone="no"?>
<!-- Created with Inkscape (http://www.inkscape.org/) -->

<svg
   xmlns:dc="http://purl.org/dc/elements/1.1/"
   xmlns:cc="http://creativecommons.org/ns#"
   xmlns:rdf="http://www.w3.org/1999/02/22-rdf-syntax-ns#"
   xmlns:svg="http://www.w3.org/2000/svg"
   xmlns="http://www.w3.org/2000/svg"
   xmlns:xlink="http://www.w3.org/1999/xlink"
   xmlns:sodipodi="http://sodipodi.sourceforge.net/DTD/sodipodi-0.dtd"
   xmlns:inkscape="http://www.inkscape.org/namespaces/inkscape"
   id="svg2"
   version="1.1"
   inkscape:version="0.92.2 (5c3e80d, 2017-08-06)"
   width="2481"
   height="3503"
   sodipodi:docname="Pepper-and-Carrot_by-David-Revoy_E06P08.svg">
  <metadata
     id="metadata8">
    <rdf:RDF>
      <cc:Work
         rdf:about="">
        <dc:format>image/svg+xml</dc:format>
        <dc:type
           rdf:resource="http://purl.org/dc/dcmitype/StillImage" />
        <dc:title />
      </cc:Work>
    </rdf:RDF>
  </metadata>
  <defs
     id="defs6">
    <filter
       color-interpolation-filters="sRGB"
       id="filter4375-4-1-1-15-1-3-3"
       inkscape:label="deevad outline effect">
      <feFlood
         id="feFlood4377-7-9-0-4-4-4-7"
         flood-opacity="1"
         flood-color="rgb(0,0,0)"
         result="flood" />
      <feComposite
         id="feComposite4379-3-8-8-6-0-7-4"
         in2="SourceGraphic"
         in="flood"
         operator="in"
         result="composite1" />
      <feMorphology
         id="feMorphology4393-1-0-49-8-2-7-3"
         operator="dilate"
         radius="0.69999999999999996"
         result="result3" />
      <feComposite
         id="feComposite4385-9-5-7-2-1-2-9"
         in2="result3"
         in="SourceGraphic"
         operator="over"
         result="composite2" />
    </filter>
    <filter
       color-interpolation-filters="sRGB"
       id="filter3639"
       inkscape:label="deevad outline effect">
      <feFlood
         id="feFlood3641"
         flood-opacity="1"
         flood-color="rgb(0,0,0)"
         result="flood" />
      <feComposite
         id="feComposite3643"
         in2="SourceGraphic"
         in="flood"
         operator="in"
         result="composite1" />
      <feMorphology
         id="feMorphology3645"
         operator="dilate"
         radius="0.69999999999999996"
         result="result3" />
      <feComposite
         id="feComposite3647"
         in2="result3"
         in="SourceGraphic"
         operator="over"
         result="composite2" />
    </filter>
    <filter
       color-interpolation-filters="sRGB"
       id="filter3649"
       inkscape:label="deevad outline effect">
      <feFlood
         id="feFlood3651"
         flood-opacity="1"
         flood-color="rgb(0,0,0)"
         result="flood" />
      <feComposite
         id="feComposite3653"
         in2="SourceGraphic"
         in="flood"
         operator="in"
         result="composite1" />
      <feMorphology
         id="feMorphology3655"
         operator="dilate"
         radius="0.69999999999999996"
         result="result3" />
      <feComposite
         id="feComposite3657"
         in2="result3"
         in="SourceGraphic"
         operator="over"
         result="composite2" />
    </filter>
  </defs>
  <sodipodi:namedview
     pagecolor="#ffffff"
     bordercolor="#666666"
     borderopacity="1"
     objecttolerance="10"
     gridtolerance="10"
     guidetolerance="10"
     inkscape:pageopacity="0"
     inkscape:pageshadow="2"
     inkscape:window-width="1366"
     inkscape:window-height="705"
     id="namedview4"
     showgrid="false"
     inkscape:zoom="0.3478261"
     inkscape:cx="905.05393"
     inkscape:cy="-99.335665"
     inkscape:window-x="-8"
     inkscape:window-y="-8"
     inkscape:window-maximized="1"
     inkscape:current-layer="layer1" />
  <g
     inkscape:groupmode="layer"
     id="layer2"
     inkscape:label="artwork"
     sodipodi:insensitive="true">
    <image
       sodipodi:absref="C:\Users\jamesmichael\Downloads\Compressed\peppercarrot_ep06_translation-master\peppercarrot_ep06_translation-master\ph\../gfx_Pepper-and-Carrot_by-David-Revoy_E06P08.png"
       xlink:href="../gfx_Pepper-and-Carrot_by-David-Revoy_E06P08.png"
       width="2481"
       height="3503"
       id="image10"
       x="0"
       y="0" />
  </g>
  <g
     inkscape:groupmode="layer"
     id="layer3"
     inkscape:label="speechbubbles" />
  <g
     inkscape:groupmode="layer"
     id="layer1"
     inkscape:label="txt">
    <path
       style="color:#000000;fill:#ffffff;fill-opacity:1;fill-rule:nonzero;stroke:none;stroke-width:1px;marker:none;visibility:visible;display:inline;overflow:visible;enable-background:accumulate"
       d="m 524.44684,1977.3621 c -14.01377,-46.3951 -40.00882,-95.7772 -45.79925,-144.3988 l -11.44029,45.6542 c -62.91152,-129.7986 -216.9307,-210.2683 -37.93418,5.9274 l 4.61436,-21.5395 c 6.85365,14.1808 24.60331,28.6882 28.47492,44.653 l 15.40082,-17.4241 c 13.28656,38.1411 31.12227,58.0858 46.68362,87.1278 z"
       id="path4032-9"
       inkscape:connector-curvature="0"
       sodipodi:nodetypes="cccccccc" />
    <path
       style="color:#000000;fill:#ffffff;fill-opacity:1;fill-rule:nonzero;stroke:none;stroke-width:1px;marker:none;visibility:visible;display:inline;overflow:visible;enable-background:accumulate"
       d="m 734.33747,2852.147 c 34.68316,-42.7494 111.27433,-68.3456 171.06944,-6.0348 45.90017,-4.9397 81.26643,-4.2641 125.92729,48.6318 -41.84055,-33.4484 -69.35796,-47.6353 -136.48501,-35.9449 -35.82358,-28.4476 -90.54377,-19.0565 -121.82817,39.1849 -31.28451,58.2414 -17.69437,44.59 -17.69437,44.59 l -30.80741,-73.5852 z"
       id="path5074-3-6"
       inkscape:connector-curvature="0"
       sodipodi:nodetypes="ccccsccc" />
    <path
       style="color:#000000;display:inline;overflow:visible;visibility:visible;fill:#ffffff;fill-opacity:1;fill-rule:nonzero;stroke:none;stroke-width:0.63526666px;marker:none;enable-background:accumulate"
       d="m 983.5512,1713.928 c 28.6742,10.0487 19.8719,28.9452 -12.90826,15.9295 22.79076,19.3724 38.08696,28.0654 26.46536,35.8867 84.6563,-15.4757 30.0178,9.5052 9.2435,24.6505 18.8626,-6.036 48.9233,-23.042 37.5901,0.5031 5.9972,-1.0827 13.0538,-4.1836 16.0221,0.5031 7.6412,-3.2364 13.3181,-4.0674 16.6382,-2.0123 7.51,-5.8896 12.3626,-7.4402 12.3247,-1.0061 7.1001,-4.8519 9.2867,-3.182 11.0921,-1.0062 12.1855,-10.4169 16.7365,-7.4782 21.5681,-5.0307 6.8993,-6.2544 14.9731,-4.8378 24.0331,3.0184 9.2698,-10.6371 19.2308,-9.99 29.5791,-3.0184 3.0394,-2.6204 5.7997,-7.0633 9.8597,-3.0184 4.1083,-1.3992 8.2164,-4.9846 12.3246,-1.5092 43.3602,-13.7698 62.2729,-2.1384 82.5752,8.0491 11.3201,-4.4977 19.4775,-13.191 38.8225,-7.0429 1.8084,-6.2781 12.1809,-8.8272 30.1954,-8.0492 -18.4771,-7.5766 -19.4276,-11.8899 23.4168,-8.0492 -29.8628,-6.2045 -57.3827,-12.409 -11.0922,-18.6136 -10.8417,-2.4632 -46.2788,3.3314 -7.3948,-26.1596 -27.6115,6.5089 -52.6775,8.2 -60.3907,-18.1106 -14.8959,6.9193 -31.389,10.347 -44.3687,-5.5337 -11.8221,7.4409 -28.3635,5.6544 -36.9739,2.0122 -2.3296,8.1494 -19.9223,20.6475 -43.7524,-2.0122 5.2285,12.8793 1.2711,33.3934 -26.498,-0.5031 -0.5507,5.8965 10.8844,37.9628 -66.553,-0.5031 9.6596,25.8075 -16.0514,10.7908 -36.3577,2.0122 10.0697,16.1807 -5.0848,17.432 -38.2064,8.0492 25.551,15.3637 -0.7213,11.1219 -17.2545,10.5645 z"
       id="path3549-2"
       inkscape:connector-curvature="0"
       sodipodi:nodetypes="ccccccccccccccccccccccccccccc" />
    <path
       style="color:#000000;display:inline;overflow:visible;visibility:visible;fill:#ffffff;fill-opacity:1;fill-rule:nonzero;stroke:none;stroke-width:0.73228019px;marker:none;enable-background:accumulate"
       d="m 914.88635,1800.5084 c 33.46827,17.9769 67.58085,35.6612 10.61789,94.6744 55.13156,-18.9406 21.99713,13.8577 8.93959,34.8874 98.06127,-48.2552 35.83507,20.7999 12.57675,61.3352 21.66572,-17.2955 55.66942,-63.5366 44.06582,-2.7789 25.5651,-31.0396 65.663,-87.2545 18.8026,-0.4546 39.4299,-53.4845 40.3062,-47.9214 19.346,-6.8813 25.8059,-36.6041 30.2224,-30.2117 27.2857,-7.6116 16.2511,-47.3315 19.8377,-26.2517 24.9062,-15.0452 7.6372,-16.5586 17.1948,-13.8467 28.3646,5.0424 10.103,-27.8962 21.8162,1.7251 21.871,28.3454 8.3474,-40.106 22.1553,-45.7872 35.0616,-1.1144 0.2521,-26.7391 0.063,-83.896 19.9116,-0.089 -5.1937,-76.6589 59.2433,-44.2742 90.3148,3.874 -18.2884,-56.2592 -2.7067,-92.1261 35.2039,-66.2118 1.6725,-16.0696 13.6413,-23.633 34.7971,-23.6072 -22.1803,-17.167 -23.5999,-27.9713 26.8573,-22.8765 -35.4193,-12.4707 -68.0944,-25.1937 -14.3137,-45.8712 -12.874,-5.06 -53.9708,13.4109 -10.5184,-65.3505 -31.88,19.4338 -61.1203,26.4115 -72.0223,-39.2863 -16.9569,19.1013 -36.0321,29.546 -52.3627,-9.2113 -13.3195,20.0891 -32.8213,17.3546 -43.1655,9.0726 -2.1503,20.8576 -21.8698,54.3564 -51.3909,-0.3729 7.0383,32.0031 3.859,84.3017 -31.0734,1.5836 -0.2264,14.9691 15.4437,94.8199 -77.9906,5.8999 13.1464,64.216 -18.0354,29.0156 -42.4437,9.0062 12.9434,39.8295 -4.7186,44.6268 -44.18056,24.4705 31.0189,36.0955 -0.0555,28.2007 -19.46069,28.5731 z"
       id="path3549"
       inkscape:connector-curvature="0"
       sodipodi:nodetypes="ccccccccccccccccccccccccccccc" />
    <path
       style="color:#000000;display:inline;overflow:visible;visibility:visible;fill:#ffffff;fill-opacity:1;fill-rule:nonzero;stroke:none;stroke-width:0.97673696px;marker:none;enable-background:accumulate"
       d="m 466.52235,430.60987 c 34.21694,-34.32188 227.71299,-39.38059 292.63405,-27.75408 64.92077,11.62636 89.85952,35.1828 93.20615,43.76539 3.34648,8.58252 -2.49351,49.24287 -35.09072,58.49479 -32.59701,9.25182 -126.70384,17.04234 -159.62287,18.38123 -32.91886,1.33887 -138.20816,0.5763 -165.27066,-9.92285 -25.88795,-10.04355 -60.07304,-48.64269 -25.85595,-82.96448 z"
       id="path3330"
       inkscape:connector-curvature="0"
       sodipodi:nodetypes="zsssssz" />
    <path
       style="color:#000000;fill:#ffffff;fill-opacity:1;fill-rule:nonzero;stroke:none;stroke-width:1px;marker:none;visibility:visible;display:inline;overflow:visible;enable-background:accumulate"
       d="m 414.31688,691.38453 c -11.42076,-60.08041 19.03456,-219.66888 253.16104,-206.52623 234.12629,13.14241 261.36657,82.72228 277.90602,110.77304 8.50465,18.62651 81.06346,144.63427 -102.94559,168.38164 -186.24527,24.03598 -371.01742,13.73698 -428.12147,-72.62845 z"
       id="path3525"
       inkscape:connector-curvature="0"
       sodipodi:nodetypes="cscsc" />
    <flowRoot
       xml:space="preserve"
       id="flowRoot2987-4-9-3"
       style="font-style:normal;font-variant:normal;font-weight:normal;font-stretch:normal;line-height:0.01%;font-family:Lavi;-inkscape-font-specification:Lavi;text-align:center;letter-spacing:0px;word-spacing:0px;text-anchor:middle;fill:#000000;fill-opacity:1;stroke:none"
       transform="translate(263.21469,268.27206)"><flowRegion
         id="flowRegion2989-5-4-5"><rect
           id="rect2991-7-9-6"
           width="602.40173"
           height="310.73996"
           x="120.55251"
           y="265.53046"
           style="font-style:normal;font-variant:normal;font-weight:normal;font-stretch:normal;font-family:Lavi;-inkscape-font-specification:Lavi;text-align:center;text-anchor:middle" /></flowRegion><flowPara
         style="font-size:48px;line-height:1.25;text-align:center;text-anchor:middle"
         id="flowPara3080">... as usual, </flowPara><flowPara
         style="font-size:48px;line-height:1.25;text-align:center;text-anchor:middle"
         id="flowPara4658" /></flowRoot>    <flowRoot
       transform="translate(228.92597,164.56341)"
       style="font-style:normal;font-variant:normal;font-weight:normal;font-stretch:normal;line-height:0.01%;font-family:Lavi;-inkscape-font-specification:Lavi;text-align:center;letter-spacing:0px;word-spacing:0px;text-anchor:middle;fill:#000000;fill-opacity:1;stroke:none"
       id="flowRoot3045"
       xml:space="preserve"><flowRegion
         id="flowRegion3047"><rect
           style="font-style:normal;font-variant:normal;font-weight:normal;font-stretch:normal;font-family:Lavi;-inkscape-font-specification:Lavi;text-align:center;text-anchor:middle"
           y="265.53046"
           x="120.55251"
           height="310.73996"
           width="602.40173"
           id="rect3049" /></flowRegion><flowPara
         style="font-size:48px;line-height:1.25;text-align:center;text-anchor:middle"
         id="flowPara105">There you go ... </flowPara></flowRoot>    <path
       style="color:#000000;fill:#ffffff;fill-opacity:1;fill-rule:nonzero;stroke:none;stroke-width:1px;marker:none;visibility:visible;display:inline;overflow:visible;enable-background:accumulate"
       d="m 900.08615,716.05926 c 42.51329,20.49356 123.80235,14.32923 138.26235,-30.35733 -49.15569,36.55167 -109.63611,20.90132 -120.75593,10.89767 -11.11981,-10.00366 -17.50642,19.45966 -17.50642,19.45966 z"
       id="path3978"
       inkscape:connector-curvature="0" />
    <path
       style="color:#000000;fill:#ffffff;fill-opacity:1;fill-rule:nonzero;stroke:none;stroke-width:1px;marker:none;visibility:visible;display:inline;overflow:visible;enable-background:accumulate"
       d="m 1554.582,795.42187 c 57.8977,-93.44304 344.0773,-85.46607 437.1891,-44.98197 93.1111,40.48363 124.7152,110.20588 127.7736,134.94616 3.0584,24.74003 -14.4146,139.44424 -64.4578,161.93554 -50.0428,22.491 -190.389,33.7364 -239.1803,33.7364 -48.7913,0 -203.7467,-14.3154 -241.3276,-47.2313 -35.9497,-31.4874 -77.8951,-144.96201 -19.997,-238.40483 z"
       id="path3330-3"
       inkscape:connector-curvature="0"
       sodipodi:nodetypes="zsssssz" />
    <flowRoot
       xml:space="preserve"
       id="flowRoot2987-4-9-3-8"
       style="font-style:normal;font-variant:normal;font-weight:normal;font-stretch:normal;line-height:0.01%;font-family:Lavi;-inkscape-font-specification:Lavi;text-align:center;letter-spacing:0px;word-spacing:0px;text-anchor:middle;fill:#000000;fill-opacity:1;stroke:none"
       transform="translate(1402.3561,513.65232)"><flowRegion
         id="flowRegion2989-5-4-5-8"><rect
           id="rect2991-7-9-6-5"
           width="590.20404"
           height="463.20984"
           x="120.55251"
           y="265.53046"
           style="font-style:normal;font-variant:normal;font-weight:normal;font-stretch:normal;font-family:Lavi;-inkscape-font-specification:Lavi;text-align:center;text-anchor:middle" /></flowRegion><flowPara
         style="font-size:48px;line-height:1.25;text-align:center;text-anchor:middle"
         id="flowPara4671">At least alam ko </flowPara><flowPara
         style="font-size:48px;line-height:1.25;text-align:center;text-anchor:middle"
         id="flowPara170">na kung anung </flowPara><flowPara
         style="font-size:48px;line-height:1.25;text-align:center;text-anchor:middle"
         id="flowPara172">gamit ng &quot;potion&quot; </flowPara><flowPara
         style="font-size:48px;line-height:1.25;text-align:center;text-anchor:middle"
         id="flowPara3140">mo Carrot,</flowPara></flowRoot>    <path
       style="color:#000000;display:inline;overflow:visible;visibility:visible;fill:#ffffff;fill-opacity:1;fill-rule:nonzero;stroke:none;stroke-width:1px;marker:none;enable-background:accumulate"
       d="m 1415.0052,890.44119 c 1.8123,17.9111 3.4719,36.60072 12.514,52.57918 2.6665,4.48827 5.7379,8.94714 9.7431,12.29849 4.9422,2.55729 10.902,0.92324 14.9972,-2.48609 6.2588,-4.50938 10.9613,-11.84776 18.8831,-13.58596 5.7972,-1.12556 10.4379,3.16953 14.6457,6.42604 10.5623,8.51108 20.0337,18.50261 31.8998,25.28467 12.8634,8.50453 27.0155,16.51979 42.7488,17.47511 6.2316,0.27366 12.7888,-0.31154 18.2031,-3.68195 14.2818,-8.01643 24.173,-24.34511 22.834,-40.90808 -1.8569,-10.48428 -12.9332,-19.03038 -23.5991,-16.39316 -5.6511,1.30784 -9.507,6.21921 -11.5244,11.3814 -5.4816,8.7963 -15.7551,13.86937 -26.0014,13.88113 -8.456,0.14805 -16.8709,-2.36044 -24.0764,-6.73748 -11.3704,-3.36484 -18.2685,-13.64874 -26.3598,-21.52774 -3.7502,-3.54453 -7.9795,-7.06083 -13.0234,-8.42848 -7.6564,-0.23923 -13.3775,5.76673 -17.631,11.40618 -4.5368,5.70318 -9.1549,12.83128 -16.9484,14.04463 -5.2949,1.57023 -8.0628,-4.3141 -11.2198,-7.42808 -8.8564,-11.35341 -14.0534,-25.32791 -16.0433,-39.50562 -0.089,-1.36474 -0.067,-2.72787 -0.042,-4.09419 z"
       id="path4496"
       inkscape:connector-curvature="0"
       inkscape:transform-center-x="-99.717282"
       inkscape:transform-center-y="101.38562" />
    <path
       style="color:#000000;fill:#ffffff;fill-opacity:1;fill-rule:nonzero;stroke:none;stroke-width:1px;marker:none;visibility:visible;display:inline;overflow:visible;enable-background:accumulate"
       d="m 1725.0756,1115.0856 c 43.3771,-69.7642 285.0078,-78.229 363.5068,-48.0038 78.4985,30.2249 96.3108,74.7656 99.9619,93.2366 3.6508,18.4709 5.92,90.3998 -37.0913,126.384 -33.0463,27.6471 -158.0209,41.6381 -198.1833,41.6381 -40.162,0 -168.3685,-10.6878 -200.8109,-35.2627 -31.0346,-23.5085 -70.7605,-108.228 -27.3832,-177.9922 z"
       id="path3330-7"
       inkscape:connector-curvature="0"
       sodipodi:nodetypes="zsssssz" />
    <flowRoot
       xml:space="preserve"
       id="flowRoot2987-4-9-3-8-9"
       style="font-style:normal;font-variant:normal;font-weight:normal;font-stretch:normal;line-height:0.01%;font-family:Lavi;-inkscape-font-specification:Lavi;text-align:center;letter-spacing:0px;word-spacing:0px;text-anchor:middle;fill:#000000;fill-opacity:1;stroke:none"
       transform="translate(1522.8115,852.59846)"><flowRegion
         id="flowRegion2989-5-4-5-8-6"><rect
           id="rect2991-7-9-6-5-0"
           width="602.40173"
           height="310.73996"
           x="120.55251"
           y="265.53046"
           style="font-style:normal;font-variant:normal;font-weight:normal;font-stretch:normal;font-family:Lavi;-inkscape-font-specification:Lavi;text-align:center;text-anchor:middle" /></flowRegion><flowPara
         style="font-size:48px;line-height:1.25;text-align:center;text-anchor:middle"
         id="flowPara197">... pagkatapos nito</flowPara><flowPara
         style="font-size:48px;line-height:1.25;text-align:center;text-anchor:middle"
         id="flowPara201"> umuwi na tayo ...</flowPara></flowRoot>    <flowRoot
       xml:space="preserve"
       id="flowRoot2987-4-9-3-8-9-5"
       style="font-style:normal;font-variant:normal;font-weight:normal;font-stretch:normal;line-height:0.01%;font-family:Lavi;-inkscape-font-specification:Lavi;text-align:center;letter-spacing:0px;word-spacing:0px;text-anchor:middle;fill:#000000;fill-opacity:1;stroke:none"
       transform="translate(736.71911,1460.3965)"><flowRegion
         id="flowRegion2989-5-4-5-8-6-3"><rect
           id="rect2991-7-9-6-5-0-1"
           width="602.40173"
           height="310.73996"
           x="120.55251"
           y="265.53046"
           style="font-style:normal;font-variant:normal;font-weight:normal;font-stretch:normal;font-family:Lavi;-inkscape-font-specification:Lavi;text-align:center;text-anchor:middle" /></flowRegion><flowPara
         style="font-size:48px;line-height:1.25;text-align:center;text-anchor:middle"
         id="flowPara3211-2">IkAW! </flowPara></flowRoot>    <path
       style="color:#000000;fill:#ffffff;fill-opacity:1;fill-rule:nonzero;stroke:none;stroke-width:1px;marker:none;visibility:visible;display:inline;overflow:visible;enable-background:accumulate"
       d="m 799.55794,2061.6662 c 41.54476,-24.9583 79.49671,-56.3087 125.21587,-73.8403 l -43.51369,-5.8567 c 12.70794,-14.5474 33.04403,-20.2182 50.79008,-28.9032 l -26.26055,-7.9369 c 30.43962,-33.9774 70.07719,-50.7411 105.26895,-75.8248 l -46.93148,-10.2988 c -32.40962,29.4099 -59.34882,63.5475 -97.91175,87.6396 l 24.81802,10.2865 c -12.06842,10.1205 -24.58698,19.7921 -39.1159,27.4588 l 32.36116,10.2326 z"
       id="path4032"
       inkscape:connector-curvature="0"
       sodipodi:nodetypes="cccccccccccc" />
    <path
       style="fill:#ffffff;fill-opacity:1;stroke:none"
       d="m 826.84882,2875.6026 c -28.78194,-6.8708 -39.86465,-13.258 -34.71629,-17.1941 -11.80514,-1.9615 -16.405,-53.0973 -5.37616,-62.4448 0.73408,-0.984 5.88563,-3.9365 3.67174,-4.4272 -2.21377,-0.4907 -15.48178,0.9903 -17.7007,-0.9754 -2.21892,-1.9659 19.80671,-30.0034 16.85382,-30.9856 -2.95312,-0.9819 -48.71563,-5.0755 -58.31677,-9.4966 -9.60132,-4.421 -26.49188,7.0768 -29.44314,6.5863 3.4829,-14.2548 -30.22459,2.4724 -33.91331,1.9824 -3.68846,-0.4902 -10.37554,-15.2384 -14.06417,-15.7283 -3.68873,-0.4901 -20.62516,6.4014 -23.57642,5.9112 -2.95127,-0.4904 -1.51852,-12.7839 -5.20724,-13.2737 -3.68863,-0.4902 -19.87413,10.3348 -22.08801,9.8442 -2.21382,-0.4908 -10.40961,-25.0727 -14.10158,-26.5461 -3.69205,-1.4734 -27.19067,27.0565 -29.40124,27.5493 -2.21038,0.4927 -16.33721,-33.429 -19.28858,-33.9195 -2.95125,-0.4903 -17.618,23.1187 -19.83194,22.628 -2.21386,-0.4907 -16.27151,-14.2524 -19.22437,-15.2344 -2.95296,-0.982 -22.01722,30.496 -24.96671,30.4975 -2.94968,0 -28.06645,-13.2635 -30.28714,-15.721 -2.22062,-2.4575 -4.38037,12.7865 -7.32996,12.7879 -2.9496,0 -36.8999,-8.8341 -37.63573,-8.3421 -0.73563,0.4922 5.19559,9.832 2.98343,9.8331 -2.21216,0 -36.91174,-12.2763 -38.37824,-9.8169 -1.4662,2.4592 -75.25603,-12.2585 -80.41103,-10.2894 -5.155,1.9693 33.321,40.3052 29.6443,43.2571 -3.67687,2.952 -16.96194,-0.4839 -17.69421,0.9915 -0.73226,1.4756 8.13835,7.8637 5.9331,9.8316 -2.2056,1.9678 -27.24992,9.8467 -29.45355,12.306 -2.20381,2.4598 11.09119,8.8459 8.14677,10.3225 -2.94462,1.4765 -46.41879,10.8388 -47.14768,13.2977 -0.72889,2.4588 22.17066,14.2493 19.23298,17.6927 -2.93777,3.4433 -11.04403,4.9221 -10.29818,7.3804 0.74586,2.4583 14.76648,5.4021 14.03749,7.861 -0.72907,2.459 -8.06071,14.755 -10.26612,16.7229 -2.20543,1.9678 15.4886,0.9763 15.49535,2.9431 0.006,1.9669 11.70776,14.234 -28.19588,43.8839 61.30373,-22.9118 65.95135,-0.6303 90.29866,3.2922 24.34757,3.9227 14.84569,28.5125 18.53765,29.986 3.69208,1.4735 30.9419,-8.3732 34.64071,-4.933 3.69872,3.4405 5.19539,9.8319 8.14507,9.8306 2.94942,0 27.41761,-10.0372 31.10613,-9.5472 30.52071,-6.974 42.16312,15.227 36.02852,18.8592 5.16335,0.4893 25.04255,-8.3706 29.46527,-8.8643 4.42267,-0.4937 8.15173,11.7973 11.83536,10.8123 3.68363,-0.9849 27.24974,-9.8467 30.93993,-8.8649 3.69039,0.9818 6.65347,4.9141 9.59977,3.9292 2.94601,-0.9846 16.20569,-4.9244 16.20569,-4.9244 0,0 9.59619,2.9459 14.02054,2.9439 4.42432,0 21.06027,-12.4678 24.74388,-13.453 3.6836,-0.985 37.77994,4.329 53.63303,34.6438 -8.97279,-35.735 26.27189,-38.94 31.4286,-40.4175 5.15662,-1.4775 20.65716,2.9408 22.12668,1.465 1.46979,-1.4759 5.86712,-9.3451 10.28989,-9.8389 4.42267,-0.4937 14.73933,-2.4651 14.73933,-2.4651 l -1.4848,-2.9497 c 0,0 30.99734,7.8532 34.69448,10.8018 3.69703,2.9486 -2.2561,-12.7833 -4.48178,-16.7161 13.28642,3.9278 52.39697,12.269 55.35488,14.7262 2.95804,2.4572 -5.19192,-8.8486 -9.62817,-12.2885 5.90416,1.4726 11.06761,1.962 11.06761,1.962 l -17.0005,-11.7934 5.15844,-0.9858 c 0,0 -11.07941,-5.4039 -11.08788,-7.8625 -0.008,-2.4584 28.7396,-5.4219 28.7396,-5.4219 0,0 -11.81349,-4.42 -8.87239,-6.8798 2.94134,-2.46 10.3101,-3.9384 10.3101,-3.9384 l 1.45281,-6.3929 z"
       id="path5888"
       inkscape:connector-curvature="0"
       sodipodi:nodetypes="ccccccccccsccccsccccccsccsccscsccccscccscccccscccccsccccscccccccccccc" />
    <flowRoot
       xml:space="preserve"
       id="flowRoot2987-4-9-3-0"
       style="font-style:normal;font-variant:normal;font-weight:normal;font-stretch:normal;line-height:0.01%;font-family:Lavi;-inkscape-font-specification:Lavi;text-align:center;letter-spacing:0px;word-spacing:0px;text-anchor:middle;fill:#000000;fill-opacity:1;stroke:none"
       transform="translate(120.66404,2524.3888)"><flowRegion
         id="flowRegion2989-5-4-5-1"><rect
           id="rect2991-7-9-6-4"
           width="602.40173"
           height="310.73996"
           x="120.55251"
           y="265.53046"
           style="font-style:normal;font-variant:normal;font-weight:normal;font-stretch:normal;font-family:Lavi;-inkscape-font-specification:Lavi;text-align:center;text-anchor:middle" /></flowRegion><flowPara
         style="font-size:48px;line-height:1.25;text-align:center;letter-spacing:1.5px;text-anchor:middle;stroke:#000000;stroke-width:1.10000002;stroke-miterlimit:4;stroke-dasharray:none;stroke-opacity:1"
         id="flowPara4086">Gusto mong i-try </flowPara><flowPara
         style="font-size:48px;line-height:1.25;text-align:center;letter-spacing:1.5px;text-anchor:middle;stroke:#000000;stroke-width:1.10000002;stroke-miterlimit:4;stroke-dasharray:none;stroke-opacity:1"
         id="flowPara4687">yung potion ko? ...</flowPara></flowRoot>    <path
       style="fill:#ffffff;fill-opacity:1;stroke:none"
       d="m 1797.6547,3221.0213 c 65.6139,10.0559 43.5411,-29.1424 39.3615,-34.0012 15.9801,8.1536 43.2078,-0.8175 14.8856,-29.198 40.2409,11.3918 20.5428,6.02 -2.8713,-24.5295 35.4451,15.5342 57.7968,5.7083 32.6194,-15.8279 36.1652,27.6918 48.9096,18.8512 25.8439,-15.5352 45.4797,35.6171 36.9692,22.2031 25.8861,4.6146 37.8746,32.1026 9.7278,-15.6704 12.6238,-15.929 2.896,-0.2589 15.1504,8.408 17.4788,8.095 2.3282,-0.3129 2.6278,-13.6711 5.5239,-13.9298 2.896,-0.2589 14.1232,12.5937 15.8839,12.2266 6.8305,4.5107 14.0232,-23.2422 13.8868,-27.5889 -2.9115,3.7697 13.7655,34.6638 19.4946,31.8484 1.6457,0.6925 21.0383,-35.5723 18.7221,-35.1591 -4.3199,0.7704 8.7544,26.5651 12.688,25.8438 3.1279,4.7786 16.0456,-7.0605 16.5407,-15.0197 -1.2167,2.2521 9.5196,37.8823 15.7437,34.7029 2.8093,6.6828 23.5928,-6.6134 25.114,-14.7361 1.9903,-2.4872 1.9139,14.105 4.1847,14.3219 -4.007,8.1765 25.2031,-1.4809 29.9303,-6.244 0.5104,0.5843 -2.8178,8.6896 -3.419,10.3829 -3.2403,9.1256 23.4647,0.9885 30.6702,-7.7798 -27.7889,43.7563 53.327,0.8958 63.0884,-5.2187 3.7445,2.4998 -30.2553,41.0184 -27.7612,44.4695 2.4943,3.4512 13.1156,0.7174 13.5109,2.3624 0.3954,1.6442 -7.1636,7.8833 -5.6903,10.1659 1.4737,2.2825 19.8581,12.6063 21.2743,15.4187 1.4162,2.8128 -9.5494,8.7264 -7.4506,10.5334 2.0988,1.807 34.5042,15.0762 34.7848,17.7802 0.2808,2.7041 -18.6966,13.7426 -16.8274,17.6694 1.8691,3.9269 7.9418,6.1133 7.0871,8.7091 -0.8548,2.5957 -11.9862,4.7452 -11.7055,7.4494 0.2808,2.7042 4.5228,16.4961 5.9964,18.7785 1.4736,2.2828 -12.0371,-0.079 -12.2666,2.0412 -0.2348,2.1195 -36.3286,9.709 19.6005,49.5612 -60.7461,-25.4505 -53.6067,-5.6882 -72.8011,-3.238 -19.1946,2.4504 -14.6843,29.6546 -17.6951,30.9735 -3.0108,1.3187 -22.8688,-11.2875 -26.1094,-7.8488 -3.2406,3.4387 -5.1222,10.2202 -7.3934,10.0032 -2.2707,-0.2155 -19.9653,-12.824 -22.8612,-12.5653 -22.7044,-9.7479 -34.2019,13.336 -29.8929,17.7 -4.0315,0.1504 -18.3271,-10.8537 -21.6761,-11.709 -3.349,-0.8554 -7.6228,12.1231 -10.3466,10.7921 -2.7239,-1.331 -19.858,-12.6064 -22.8113,-11.8174 -2.9537,0.7888 -5.6838,4.8119 -7.8399,3.5346 -2.1561,-1.2766 -11.9161,-6.4927 -11.9161,-6.4927 0,0 -7.725,2.475 -11.1313,2.1496 -3.4066,-0.3232 -24.789,-20.0382 -27.5127,-21.3694 -2.724,-1.3311 -50.4111,26.3975 -49.0523,29.7402 1.3588,3.3428 -1.9865,-35.151 -5.7884,-37.1206 -3.8018,-1.9696 -16.241,1.6615 -17.204,-0.037 -0.9634,-1.6984 -3.4513,-10.5033 -6.8003,-11.3588 -3.3491,-0.8554 -11.0676,-3.7344 -11.0676,-3.7344 l 1.4799,-3.0717 c 0,0 -24.7633,6.2022 -27.9464,9.111 -3.1832,2.9086 3.1958,-13.6169 5.3584,-17.6943 -10.6784,3.2641 -41.7444,9.3995 -44.3021,11.8325 -2.5581,2.4329 5.0071,-9.1603 8.8155,-12.5448 -4.714,1.1563 -8.7456,1.3067 -8.7456,1.3067 l 14.4356,-11.4724 -3.8595,-1.4395 c 0,0 9.1476,-5.0166 9.4345,-7.6666 0.2907,-2.6494 -21.5099,-7.9447 -21.5099,-7.9447 66.6123,1.4697 18.3026,-18.0658 -7.6932,-24.2961 z"
       id="path5888-2"
       inkscape:connector-curvature="0"
       sodipodi:nodetypes="ccccccccsccccsccccccsccsccscsccccscccscccccscccccsccccsccccccccc" />
    <path
       style="color:#000000;fill:#ffffff;fill-opacity:1;fill-rule:nonzero;stroke:none;stroke-width:1px;marker:none;visibility:visible;display:inline;overflow:visible;enable-background:accumulate"
       d="m 1949.2127,3186.2754 c -39.3897,38.4564 -118.4251,55.0326 -170.6211,-13.769 -46.1636,-0.3962 -81.2149,-5.1531 -119.4658,-62.8545 37.6962,38.0583 63.3903,55.3293 131.4185,51.4723 32.2972,32.3957 87.7359,29.3893 125.5394,-24.8478 37.8036,-54.2372 22.7273,-42.2473 22.7273,-42.2473 l 22.0999,76.6516 z"
       id="path5074-3"
       inkscape:connector-curvature="0"
       sodipodi:nodetypes="ccccsccc" />
    <flowRoot
       xml:space="preserve"
       id="flowRoot2987-4-9-3-0-3"
       style="font-style:normal;font-variant:normal;font-weight:normal;font-stretch:normal;line-height:0.01%;font-family:Lavi;-inkscape-font-specification:Lavi;text-align:center;letter-spacing:0px;word-spacing:0px;text-anchor:middle;fill:#000000;fill-opacity:1;stroke:none"
       transform="translate(1610.3918,2924.9964)"><flowRegion
         id="flowRegion2989-5-4-5-1-6"><rect
           id="rect2991-7-9-6-4-7"
           width="602.40173"
           height="310.73996"
           x="120.55251"
           y="265.53046"
           style="font-style:normal;font-variant:normal;font-weight:normal;font-stretch:normal;font-family:Lavi;-inkscape-font-specification:Lavi;text-align:center;text-anchor:middle" /></flowRegion><flowPara
         style="font-size:48px;line-height:1.25;text-align:center;letter-spacing:1.5px;text-anchor:middle;stroke:#000000;stroke-width:1.10000002;stroke-miterlimit:4;stroke-dasharray:none;stroke-opacity:1"
         id="flowPara4202">... hindi kamo?</flowPara></flowRoot>    <path
       style="color:#000000;fill:#ffffff;fill-opacity:1;fill-rule:nonzero;stroke:none;stroke-width:1px;marker:none;visibility:visible;display:inline;overflow:visible;enable-background:accumulate"
       d="m 432.9877,1582.757 c -4.62527,14.1556 -29.80658,59.4538 -38.06244,16.2093 -42.3877,66.8706 -90.94164,55.4388 -139.14497,48.4577 -9.52731,19.5362 -7.09875,46.1647 -46.96241,47.7053 7.95498,15.9183 -3.45476,30.2003 -32.14335,43.0229 40.98017,2.4517 49.77676,11.6093 -21.84737,37.5242 55.93525,-9.943 108.31222,-17.9855 48.57741,33.848 20.66662,-3.1249 64.61473,-45.2102 55.82445,54.2176 30.8443,-37.3814 66.03449,-61.6079 122.59982,-7.3014 10.83096,-28.0111 30.03942,-49.2804 76.82521,-23.2543 5.27288,-26.7184 55.3579,-38.7619 74.64488,-37.3629 -41.4714,-20.5081 -42.72921,-38.0996 7.62637,-50.843 -92.48457,-33.4472 -21.82215,-39.6374 -9.97409,-55.1095 -69.36813,-4.1008 -42.62685,-31.5667 -33.87821,-55.3999 -76.91874,14.4742 -56.82784,-24.9365 -64.0853,-51.714 z"
       id="path3549-3"
       inkscape:connector-curvature="0"
       sodipodi:nodetypes="ccccccccccccccc" />
    <flowRoot
       transform="matrix(1.8217115,0,-0.17700578,1.8738433,-535.05413,1190.8474)"
       style="font-style:normal;font-variant:normal;font-weight:normal;font-stretch:normal;line-height:0.01%;font-family:Lavi;-inkscape-font-specification:Lavi;text-align:center;letter-spacing:0px;word-spacing:0px;text-anchor:middle;fill:#000000;fill-opacity:1;stroke:#000000;stroke-width:2.71217394;stroke-miterlimit:4;stroke-dasharray:none;stroke-opacity:1"
       id="flowRoot4212-3-7-8-6-5"
       xml:space="preserve"><flowRegion
         id="flowRegion4214-6-7-8-3-6"><rect
           style="font-style:normal;font-variant:normal;font-weight:normal;font-stretch:normal;font-family:Lavi;-inkscape-font-specification:Lavi;text-align:center;text-anchor:middle;stroke:#000000;stroke-width:2.71217394;stroke-miterlimit:4;stroke-dasharray:none;stroke-opacity:1"
           y="265.53046"
           x="120.55251"
           height="355.03918"
           width="798.1947"
           id="rect4216-4-0-26-5-2" /></flowRegion><flowPara
         style="font-size:48px;line-height:1.25;text-align:center;letter-spacing:1.45219982px;text-anchor:middle;stroke:#000000;stroke-width:2.71217394;stroke-miterlimit:4;stroke-dasharray:none;stroke-opacity:1"
         id="flowPara4358-7-1-6">HOY !</flowPara></flowRoot>    <flowRoot
       xml:space="preserve"
       id="flowRoot4133-6-9-4-8-5-3"
       style="color:#000000;font-style:normal;font-variant:normal;font-weight:normal;font-stretch:normal;line-height:0.01%;font-family:Arial;-inkscape-font-specification:Arial;letter-spacing:0.00204969px;word-spacing:0px;display:inline;overflow:visible;visibility:visible;fill:#ffffff;fill-opacity:1;fill-rule:nonzero;stroke:#ffffff;stroke-width:0.0836072;stroke-linecap:butt;stroke-linejoin:miter;stroke-miterlimit:4;stroke-dasharray:none;stroke-dashoffset:0;stroke-opacity:1;marker:none;filter:url(#filter4375-4-1-1-15-1-3-3);enable-background:accumulate"
       transform="matrix(8.3099216,-5.4900388,-0.26452567,16.18078,-7093.1327,-9087.3999)"><flowRegion
         id="flowRegion4135-2-9-3-5-2-6"
         style="stroke-width:0.86646658"><rect
           id="rect4137-1-7-1-2-1-4"
           width="200.00224"
           height="39.051064"
           x="1125.3193"
           y="1078.5308"
           style="color:#000000;letter-spacing:0.00204969px;display:inline;overflow:visible;visibility:visible;fill:#ffffff;fill-opacity:1;fill-rule:nonzero;stroke:#ffffff;stroke-width:0.0836072;stroke-linecap:butt;stroke-linejoin:miter;stroke-miterlimit:4;stroke-dasharray:none;stroke-dashoffset:0;stroke-opacity:1;marker:none;filter:url(#filter4375-4-1-1-15-1-3-3);enable-background:accumulate" /></flowRegion><flowPara
         id="flowPara4139-2-8-6-8-6-3"
         style="color:#000000;font-style:normal;font-variant:normal;font-weight:normal;font-stretch:normal;font-size:17.85409164px;line-height:125%;font-family:Lavi;-inkscape-font-specification:Lavi;letter-spacing:0.00204969px;word-spacing:0.00204969px;display:inline;overflow:visible;visibility:visible;fill:#ffffff;fill-opacity:1;fill-rule:nonzero;stroke:#ffffff;stroke-width:0.0836072;stroke-linecap:butt;stroke-linejoin:miter;stroke-miterlimit:4;stroke-dasharray:none;stroke-dashoffset:0;stroke-opacity:1;marker:none;enable-background:accumulate">C<flowSpan
   style="font-size:13.08514309px"
   id="flowSpan3116">R</flowSpan><flowSpan
   id="flowSpan3122"
   style="font-size:8.7063818px">AC</flowSpan><flowSpan
   id="flowSpan3126"
   style="font-size:7.83930063px">K !</flowSpan></flowPara></flowRoot>    <flowRoot
       xml:space="preserve"
       id="flowRoot2987-4-9-3-2"
       style="font-style:normal;font-variant:normal;font-weight:normal;font-stretch:normal;line-height:0.01%;font-family:Lavi;-inkscape-font-specification:Lavi;text-align:center;letter-spacing:0px;word-spacing:0px;text-anchor:middle;fill:#000000;fill-opacity:1;stroke:none"
       transform="matrix(1,0,-0.24531255,1,323.65654,346.64571)"><flowRegion
         id="flowRegion2989-5-4-5-7"><rect
           id="rect2991-7-9-6-41"
           width="602.40173"
           height="310.73996"
           x="120.55251"
           y="265.53046"
           style="font-style:normal;font-variant:normal;font-weight:normal;font-stretch:normal;font-family:Lavi;-inkscape-font-specification:Lavi;text-align:center;text-anchor:middle" /></flowRegion><flowPara
         style="font-size:48px;line-height:1.25;text-align:center;text-anchor:middle"
         id="flowPara3080-6" /><flowPara
         style="font-size:48px;line-height:1.25;text-align:center;text-anchor:middle"
         id="flowPara4656-3">kapag kami na,</flowPara><flowPara
         style="font-size:48px;line-height:1.25;text-align:center;text-anchor:middle"
         id="flowPara4658-5">aalisan na sila</flowPara></flowRoot>    <path
       style="color:#000000;display:inline;overflow:visible;visibility:visible;fill:#ffffff;fill-opacity:1;fill-rule:nonzero;stroke:none;stroke-width:0.51565957px;marker:none;enable-background:accumulate"
       d="m 929.11691,2040.9557 c 32.2399,9.2539 65.1005,18.3572 10.2282,48.7353 53.1081,-9.75 21.1898,7.1335 8.6115,17.9589 94.46219,-24.8402 34.5198,10.7071 12.1152,31.5734 20.8706,-8.9032 53.62619,-32.7066 42.44849,-1.4305 24.6267,-15.9782 63.2529,-44.9158 18.1125,-0.234 37.9828,-27.5321 38.8269,-24.6684 18.6359,-3.5423 24.8589,-18.8426 29.1131,-15.552 26.2843,-3.9182 15.6546,-24.3647 19.1095,-13.5135 23.992,-7.7448 7.3569,-8.5238 16.5638,-7.1278 27.3236,2.5957 9.7321,-14.3601 21.0155,0.888 21.0683,14.5913 8.0411,-20.6453 21.3422,-23.5698 33.7747,-0.5737 0.2429,-13.7644 0.061,-43.1869 19.1808,-0.046 -5.0031,-39.4615 57.069,-22.7909 87.0001,1.9942 -17.6171,-28.9604 -2.6074,-47.4235 33.9118,-34.0837 1.6111,-8.2721 13.1406,-12.1655 33.5199,-12.1522 -21.3663,-8.837 -22.7337,-14.3987 25.8716,-11.7761 -34.1193,-6.4195 -65.5951,-12.9689 -13.7883,-23.613 -12.4015,-2.6047 -51.99,6.9035 -10.1325,-33.6403 -30.7098,10.0039 -58.8769,13.5958 -69.3788,-20.2233 -16.3345,9.8327 -34.7096,15.2093 -50.4408,-4.7417 -12.8306,10.3412 -31.6167,8.9336 -41.5812,4.6703 -2.0714,10.7368 -21.0672,27.9809 -49.5048,-0.192 6.7801,16.4742 3.7174,43.3958 -29.9328,0.8152 -0.2182,7.7056 14.8767,48.8102 -75.1282,3.0371 12.6638,33.0563 -17.3735,14.9363 -40.88599,4.6361 12.46829,20.5029 -4.5454,22.9724 -42.559,12.5966 29.8804,18.5808 -0.053,14.5168 -18.7465,14.7085 z"
       id="path3549-1"
       inkscape:connector-curvature="0"
       sodipodi:nodetypes="ccccccccccccccccccccccccccccc" />
    <path
       style="color:#000000;display:inline;overflow:visible;visibility:visible;fill:#ffffff;fill-opacity:1;fill-rule:nonzero;stroke:none;stroke-width:0.6748696px;marker:none;enable-background:accumulate"
       d="m 926.65081,1910.95 c 31.40126,16.2737 63.40692,32.2825 9.96216,85.7046 51.7265,-17.1461 20.63849,12.5448 8.38736,31.5821 92.00497,-43.6833 33.62189,18.8292 11.80009,55.5241 20.32767,-15.6569 52.23118,-57.5169 41.34425,-2.5156 23.98603,-28.0989 61.60753,-78.9878 17.64133,-0.4115 36.9947,-48.4172 37.8168,-43.3812 18.1511,-6.2294 24.2123,-33.1361 28.3558,-27.3494 25.6004,-6.8905 15.2475,-42.8471 18.6126,-23.7644 23.368,-13.6198 7.1656,-14.9897 16.1329,-12.5347 26.6128,4.5648 9.479,-25.2533 20.4689,1.5616 20.5203,25.6598 7.8319,-36.3062 20.787,-41.4492 32.8961,-1.0089 0.2366,-24.2057 0.059,-75.9473 18.6819,-0.081 -4.873,-69.396 55.5844,-40.0795 84.7369,3.5069 -17.1588,-50.929 -2.5395,-83.3977 33.0296,-59.9387 1.5693,-14.5471 12.7988,-21.3939 32.6481,-21.3705 -20.8105,-15.5405 -22.1425,-25.3212 25.1985,-20.7092 -33.2318,-11.2891 -63.8888,-22.8067 -13.4296,-41.5252 -12.0789,-4.5805 -50.6376,12.1403 -9.8689,-59.1589 -29.911,17.5926 -57.3454,23.9092 -67.5741,-35.5642 -15.9096,17.2916 -33.8067,26.7467 -49.1287,-8.3386 -12.4968,18.1858 -30.7942,15.7104 -40.4996,8.2131 -2.0174,18.8814 -20.5191,49.2064 -48.2169,-0.3377 6.6036,28.9711 3.6207,76.3147 -29.1542,1.4336 -0.2125,13.5509 14.4898,85.8363 -73.1738,5.341 12.3343,58.1319 -16.9216,26.2666 -39.82236,8.1529 12.14391,36.0559 -4.42722,40.3987 -41.45193,22.152 29.10316,32.6758 -0.0519,25.5289 -18.2588,25.866 z"
       id="path3549-1-2"
       inkscape:connector-curvature="0"
       sodipodi:nodetypes="ccccccccccccccccccccccccccccc" />
    <flowRoot
       transform="matrix(0.7795909,-0.01809373,-0.59717644,1.2140771,826.51264,1463.8683)"
       style="font-style:normal;font-variant:normal;font-weight:normal;font-stretch:normal;line-height:0.01%;font-family:Lavi;-inkscape-font-specification:Lavi;text-align:center;letter-spacing:0px;word-spacing:0px;text-anchor:middle;fill:#000000;fill-opacity:1;stroke:#000000;stroke-width:2.71217394;stroke-miterlimit:4;stroke-dasharray:none;stroke-opacity:1"
       id="flowRoot4212-3-7-8-6-1"
       xml:space="preserve"><flowRegion
         id="flowRegion4214-6-7-8-3-9"><rect
           style="font-style:normal;font-variant:normal;font-weight:normal;font-stretch:normal;font-family:Lavi;-inkscape-font-specification:Lavi;text-align:center;text-anchor:middle;stroke:#000000;stroke-width:2.71217394;stroke-miterlimit:4;stroke-dasharray:none;stroke-opacity:1"
           y="284.74136"
           x="84.744102"
           height="315.53156"
           width="1130.8104"
           id="rect4216-4-0-26-5-9" /></flowRegion><flowPara
         style="font-size:48px;line-height:1.25;text-align:center;letter-spacing:5.20896292px;text-anchor:middle;stroke:#000000;stroke-width:2.71217394;stroke-miterlimit:4;stroke-dasharray:none;stroke-opacity:1"
         id="flowPara3048-3">DAMBUHALANG-</flowPara><flowPara
         style="font-size:48px;line-height:1.25;text-align:center;letter-spacing:5.20896292px;text-anchor:middle;stroke:#000000;stroke-width:2.71217394;stroke-miterlimit:4;stroke-dasharray:none;stroke-opacity:1"
         id="flowPara283">   SUSIAL-NA-</flowPara><flowPara
         style="font-size:48px;line-height:1.25;text-align:center;letter-spacing:5.20896292px;text-anchor:middle;stroke:#000000;stroke-width:2.71217394;stroke-miterlimit:4;stroke-dasharray:none;stroke-opacity:1"
         id="flowPara285">         ZOMBING-</flowPara><flowPara
         style="font-size:48px;line-height:1.25;text-align:center;letter-spacing:5.20896292px;text-anchor:middle;stroke:#000000;stroke-width:2.71217394;stroke-miterlimit:4;stroke-dasharray:none;stroke-opacity:1"
         id="flowPara287">           TIKLING!</flowPara></flowRoot>  </g>
</svg>
