<?xml version="1.0" encoding="UTF-8" standalone="no"?>
<!-- Created with Inkscape (http://www.inkscape.org/) -->

<svg
   xmlns:dc="http://purl.org/dc/elements/1.1/"
   xmlns:cc="http://creativecommons.org/ns#"
   xmlns:rdf="http://www.w3.org/1999/02/22-rdf-syntax-ns#"
   xmlns:svg="http://www.w3.org/2000/svg"
   xmlns="http://www.w3.org/2000/svg"
   xmlns:xlink="http://www.w3.org/1999/xlink"
   xmlns:sodipodi="http://sodipodi.sourceforge.net/DTD/sodipodi-0.dtd"
   xmlns:inkscape="http://www.inkscape.org/namespaces/inkscape"
   id="svg2"
   version="1.1"
   inkscape:version="0.92.1 r15371"
   width="2646.3999"
   height="707.20001"
   sodipodi:docname="Pepper-and-Carrot_by-David-Revoy_E06P00.svg">
  <metadata
     id="metadata8">
    <rdf:RDF>
      <cc:Work
         rdf:about="">
        <dc:format>image/svg+xml</dc:format>
        <dc:type
           rdf:resource="http://purl.org/dc/dcmitype/StillImage" />
        <dc:title />
      </cc:Work>
    </rdf:RDF>
  </metadata>
  <defs
     id="defs6" />
  <sodipodi:namedview
     pagecolor="#ffffff"
     bordercolor="#666666"
     borderopacity="1"
     objecttolerance="10"
     gridtolerance="10"
     guidetolerance="10"
     inkscape:pageopacity="0"
     inkscape:pageshadow="2"
     inkscape:window-width="1278"
     inkscape:window-height="1368"
     id="namedview4"
     showgrid="false"
     inkscape:zoom="0.60944264"
     inkscape:cx="1125.0407"
     inkscape:cy="277.51128"
     inkscape:window-x="1273"
     inkscape:window-y="0"
     inkscape:window-maximized="0"
     inkscape:current-layer="layer1" />
  <g
     inkscape:groupmode="layer"
     id="layer2"
     inkscape:label="artwork"
     sodipodi:insensitive="true">
    <image
       sodipodi:absref="D:\Mes Documents\GitHub\peppercarrot\peppercarrot_ep06_translation\da\../gfx_Pepper-and-Carrot_by-David-Revoy_E06P00.png"
       xlink:href="../gfx_Pepper-and-Carrot_by-David-Revoy_E06P00.png"
       y="0"
       x="0"
       id="image10"
       height="707.20001"
       width="2646.3999" />
  </g>
  <g
     inkscape:groupmode="layer"
     id="layer1"
     inkscape:label="txt"
     style="display:inline">
    <flowRoot
       xml:space="preserve"
       id="flowRoot2987"
       style="font-style:normal;font-variant:normal;font-weight:normal;font-stretch:normal;font-size:12.80000019px;line-height:0.01%;font-family:Arial;-inkscape-font-specification:Arial;letter-spacing:0px;word-spacing:0px;fill:#301b0b;fill-opacity:1;stroke:none;stroke-width:1.06666672"><flowRegion
         id="flowRegion2989"
         style="stroke-width:1.06666672"><rect
           id="rect2991"
           width="2566.1868"
           height="114.7278"
           x="-9.8408241"
           y="558.42084"
           style="fill:#301b0b;fill-opacity:1;stroke-width:1.13777781" /></flowRegion><flowPara
         id="flowPara2993"
         style="font-style:normal;font-variant:normal;font-weight:normal;font-stretch:normal;font-size:76.80000305px;line-height:1.25;font-family:Lavi;-inkscape-font-specification:Lavi;text-align:center;text-anchor:middle;fill:#301b0b;fill-opacity:1;stroke-width:1.06666672">Episode 6: Eliksirkonkurrencen</flowPara></flowRoot>    <path
       style="display:inline;fill:#301b0b;fill-opacity:1;stroke:none;stroke-width:2.1466589"
       d="m 764.99039,535.09933 c -2.10694,-1.84986 -4.52709,-4.71031 -5.37845,-6.35656 l -1.54796,-2.99317 v -4.3747 -4.37467 l 2.62215,-2.62211 2.62214,-2.62212 1.91804,-0.0339 c 1.05487,-0.0193 2.84497,-0.73517 3.97776,-1.59218 l 2.05972,-1.55822 0.80006,-5.61864 0.80006,-5.61862 0.0773,-24.37334 0.0773,-24.37334 -1.10596,-2.06631 -1.10575,-2.06631 h -1.90515 c -1.04779,0 -4.45346,-0.7568 -7.56827,-1.68177 l -5.6631,-1.68178 -2.54271,-2.54274 -2.54272,-2.54274 v -1.65097 -1.65096 l 6.14245,-0.044 6.14266,-0.044 4.80723,-2.35956 4.80723,-2.35957 0.30525,-37.38941 0.30504,-37.38941 -1.26781,-4.62139 -1.26803,-4.62139 -2.24219,-1.45421 -2.24197,-1.45419 -9.34741,-0.74801 -9.3472,-0.748 v -1.27947 -1.2795 l 4.72458,-4.79243 4.7248,-4.79244 13.52073,-6.11135 13.52052,-6.11134 2.05757,0.65303 c 1.1315,0.35918 3.49712,1.86436 5.25652,3.34486 l 3.19895,2.69183 v 1.43113 c 0,0.78712 0.75541,2.18655 1.67891,3.10985 l 1.67868,1.67868 h 11.02095 11.02095 l 9.26133,2.6838 c 5.09359,1.47608 11.5795,3.85864 14.41331,5.29456 2.83359,1.43594 8.97046,5.48806 13.63751,9.00474 l 8.48531,6.39398 2.93255,4.23158 2.93255,4.23162 1.52907,5.08088 1.52906,5.08091 v 7.21292 7.21293 l -1.99918,6.42381 -1.9994,6.42383 -3.95178,7.0665 -3.95179,7.06648 -6.42495,6.8683 -6.42495,6.8683 -7.11982,5.24697 c -3.91594,2.88584 -9.52344,6.43663 -12.46114,7.89063 -2.9377,1.45401 -10.86961,4.47402 -17.62643,6.71116 -6.75683,2.23712 -13.36682,4.45983 -14.68873,4.93935 l -2.40361,0.87187 v 23.03925 23.03923 l 2.57856,2.57868 2.57878,2.57867 3.0298,0.64211 c 1.66624,0.35315 3.83737,1.07691 4.82461,1.60834 l 1.79483,0.96623 4.65825,-0.0934 c 2.56203,-0.0513 7.11231,0.24404 10.11183,0.65658 l 5.4538,0.75007 3.39387,-1.75511 3.39408,-1.75509 3.14572,0.6909 c 1.72999,0.38 5.30053,0.69093 7.93405,0.69093 2.63352,0 4.78834,0.22482 4.78834,0.49961 0,0.27479 -1.73601,1.22495 -3.85776,2.11145 -3.89233,1.62633 -12.26322,6.88011 -17.88768,11.22684 l -3.05062,2.35759 -6.95088,1.92742 -6.95067,1.9274 -4.95427,3.14992 -4.95449,3.14994 -8.01198,2.26339 c -4.40644,1.24487 -10.45787,2.96757 -13.4471,3.82818 l -5.43534,1.56475 h -4.40902 -4.40902 l -3.83072,-3.36339 z m 47.1797,-114.62452 9.45603,-4.75144 8.61133,-6.91316 8.6111,-6.91319 5.15864,-6.2289 5.15842,-6.22889 3.0547,-6.40962 3.05448,-6.40961 8.6e-4,-4.5932 8.5e-4,-4.59319 -1.56405,-3.02451 c -0.86017,-1.66349 -3.05534,-4.27943 -4.87828,-5.81324 l -3.31423,-2.78874 -6.0714,-1.82338 -6.07161,-1.82339 -9.08015,-0.0281 -9.08037,-0.0281 -5.90245,1.33419 -5.90245,1.33421 -3.44496,2.09493 -3.44474,2.09492 v 32.01068 32.0107 l 1.86931,1.08885 c 1.02825,0.59889 2.42164,1.10349 3.09634,1.12135 0.67469,0.0172 5.48192,-2.10564 10.68263,-4.71894 z m 78.35928,116.30048 c -1.46875,-0.94968 -3.98313,-3.42727 -5.58711,-5.50573 l -2.91645,-3.77904 -0.65731,-3.50333 -0.65709,-3.5033 1.43718,-3.02862 1.43719,-3.02859 4.72029,-2.2652 4.72029,-2.26521 1.42216,-1.94498 1.42216,-1.94498 v -29.57508 -29.57506 l -5.60836,-0.62657 c -3.08453,-0.3446 -7.49184,-1.00678 -9.7937,-1.47149 l -4.18534,-0.8449 -0.33746,-1.0644 c -0.18461,-0.58544 0.0365,-1.65458 0.49459,-2.37588 l 0.83226,-1.31144 8.25799,-1.58 c 4.54168,-0.86901 8.72638,-1.86957 9.29889,-2.22347 l 1.04113,-0.64346 v -43.2549 -43.25489 l -1.55869,-3.01436 -1.5589,-3.01438 -8.85669,-1.25799 c -4.87141,-0.69187 -10.41923,-1.49654 -12.32869,-1.78819 l -3.472,-0.53022 v -0.83364 c 0,-0.4585 1.0817,-1.81867 2.40361,-3.02258 2.61592,-2.38219 16.09694,-11.00272 17.20633,-11.00272 0.37631,0 4.96651,-1.92811 10.20006,-4.28471 l 9.51571,-4.28471 3.03602,1.15426 c 1.66968,0.63483 3.87794,1.91639 4.90727,2.84787 l 1.87145,1.69362 v 2.91465 2.91465 l 2.40362,0.64412 c 1.32191,0.35429 7.2205,0.65072 13.10771,0.65875 l 10.7041,0.015 7.66465,2.12397 c 4.2156,1.16816 10.39884,3.33313 13.74055,4.81102 l 6.0759,2.68706 7.06916,5.2602 c 3.88824,2.89311 8.84831,7.09771 11.02266,9.34354 l 3.95329,4.08334 2.37056,5.34133 2.37034,5.34134 0.47784,8.06805 0.47807,8.06804 -3.12661,9.07146 -3.12683,9.07144 -4.11278,6.19605 c -2.26194,3.40784 -6.52241,8.83266 -9.46762,12.05519 l -5.35485,5.85909 -3.40674,-0.63913 -3.40675,-0.6391 -1.1139,1.35598 c -0.61266,0.74579 -1.28005,2.55326 -1.48334,4.01659 l -0.36944,2.66061 -5.25653,3.43446 -5.25652,3.43449 -13.25755,4.85466 -13.25777,4.85469 -2.3171,0.0172 c -1.27426,0.009 -3.03795,0.47194 -3.91937,1.02878 l -1.60248,1.01243 v 22.92012 22.92011 l 2.5468,2.71177 2.54636,2.71176 5.54761,1.15164 5.5474,1.15166 10.60084,-0.0305 c 5.83012,-0.0172 13.39279,-0.0854 16.80555,-0.15284 l 6.20513,-0.12236 0.72965,0.72976 0.72987,0.72975 -2.12756,1.24801 c -1.17014,0.68639 -5.18632,2.57601 -8.92452,4.19912 l -6.79696,2.95114 -3.16654,2.6645 c -1.74158,1.46543 -3.78305,2.66445 -4.53653,2.66445 h -1.37 l -4.69066,4.12081 c -2.57986,2.26642 -6.74931,5.16847 -9.26541,6.449 l -4.57475,2.3282 -10.38103,2.82191 -10.38081,2.82191 -5.34132,0.36313 -5.34153,0.36313 -2.67065,-1.72669 z m 43.56343,-115.2469 7.71617,-3.69784 7.74364,-5.7486 7.74364,-5.74856 7.47789,-7.92716 7.47788,-7.92712 2.99352,-6.17525 2.99373,-6.17523 0.54096,-5.02739 0.54117,-5.02738 -1.93221,-3.71173 -1.93242,-3.7117 -4.27292,-2.97207 -4.27314,-2.97207 -8.01219,-1.69505 -8.01198,-1.69506 -6.94358,0.61957 c -3.81912,0.34076 -9.82805,1.3554 -13.35351,2.25476 l -6.40949,1.63522 -2.44998,2.76565 -2.44998,2.76567 0.31341,30.16998 0.31341,30.16998 1.46617,1.76462 1.46617,1.76459 h 1.76884 c 0.97266,0 5.24086,-1.66402 9.4848,-3.69783 z m 368.2542,82.82634 c -2.9377,-1.04712 -7.7883,-3.14436 -10.7788,-4.66057 l -5.4375,-2.75672 -3.3692,-3.83723 c -1.8532,-2.11049 -4.438,-5.86695 -5.7442,-8.3477 l -2.3751,-4.51045 -0.034,-8.01199 -0.034,-8.01202 3.3726,-7.11862 3.3726,-7.11862 8.2896,-8.67652 8.2895,-8.67647 -3.001,-6.27872 -3.0008,-6.2787 0.6407,-3.20438 0.6408,-3.20441 -1.5288,-1.26889 -1.5289,-1.26889 1.6581,-3.20635 1.6581,-3.20638 -2.3708,-2.52355 -2.371,-2.52359 0.6775,-4.9421 0.6775,-4.94211 2.1278,-4.81019 2.1277,-4.81019 4.543,-5.42621 4.5432,-5.42622 4.6896,-2.97409 4.6896,-2.97409 5.7857,-1.29476 5.7854,-1.29473 5.5618,1.75706 5.5618,1.75706 6.0986,3.81947 6.0985,3.81946 3.8914,6.40621 3.8917,6.40619 0.5466,4.07524 0.5467,4.07521 -2.3583,7.47231 -2.3583,7.4723 -4.1044,5.22635 c -2.2575,2.8745 -5.8692,7.87031 -8.026,11.10183 -2.1569,3.23151 -5.361,7.15301 -7.1202,8.71442 l -3.1983,2.83894 0.9095,1.55158 c 0.5002,0.85339 5.2868,6.19857 10.6365,11.8782 l 9.7271,10.32659 1.2758,-1.53725 1.276,-1.53726 0.2146,-3.03132 0.2147,-3.03132 -4.0007,-0.33123 -4.0005,-0.33121 -2.6761,-3.50856 -2.6762,-3.50854 v -2.22645 -2.22648 l 1.5304,-1.53035 1.5303,-1.53033 8.8852,-2.7623 c 4.8871,-1.51928 11.2891,-3.30845 14.2268,-3.97596 l 5.3413,-1.21365 12.8192,-0.4215 c 7.0507,-0.23184 15.3431,-0.70726 18.4278,-1.05652 l 5.6084,-0.63496 -7e-4,1.4122 -4e-4,1.4122 -7.5975,6.94376 c -4.1782,3.81905 -9.1054,8.44472 -10.949,10.27925 l -3.352,3.3355 -5.2108,0.75644 c -2.866,0.41604 -5.8707,1.00955 -6.6767,1.31893 l -1.4658,0.56249 v 5.18697 5.18697 l -2.2793,6.09181 -2.2793,6.09179 3.0695,2.22735 c 1.6881,1.22506 4.9972,3.71106 7.3536,5.52445 l 4.2841,3.29708 -0.1975,1.51013 c -0.1095,0.83056 -0.8632,3.30911 -1.6757,5.50787 l -1.4769,3.99777 -2.5168,2.67892 -2.5167,2.67892 -3.2857,-0.004 -3.2857,-0.004 -3.4977,-2.13256 c -1.9239,-1.17233 -4.1424,-2.13197 -4.9303,-2.13197 -0.7878,0 -2.6547,-0.96145 -4.1486,-2.13655 -1.4941,-1.1751 -3.3614,-2.12423 -4.1501,-2.10918 -0.7887,0.015 -4.078,1.71529 -7.3094,3.77831 l -5.8756,3.75101 -10.1061,3.16542 -10.106,3.1654 -5.3838,-0.0781 -5.3838,-0.0781 -5.3414,-1.90383 z m 25.9213,-25.85204 4.6965,-2.27351 0.5231,-1.36308 0.5229,-1.36309 -11.0246,-10.77856 -11.0248,-10.77857 -1.2897,-0.006 -1.2899,-0.006 -2.9832,3.93229 c -1.6409,2.16276 -4.5456,5.3759 -6.4552,7.1403 l -3.4718,3.20801 v 1.44471 1.44468 l 4.5399,4.63229 c 2.4973,2.54776 5.5017,5.15965 6.6768,5.80416 l 2.1366,1.17184 6.8736,0.0324 6.8734,0.0324 4.6964,-2.27351 z m -5.7146,-65.65503 8.2475,-7.03724 2.0599,-3.37839 2.0601,-3.37839 v -3.38989 -3.38992 l -2.6489,-3.14821 -2.649,-3.14822 -3.2086,-1.32906 -3.2088,-1.32904 -3.6923,0.69268 -3.6923,0.69269 -2.8971,3.43553 c -1.5932,1.88957 -3.545,4.98248 -4.3373,6.87313 l -1.4413,3.43755 v 4.13762 4.1376 l 1.513,5.02662 c 1.5024,4.99259 3.3805,8.13216 4.8645,8.13216 0.4259,0 4.4859,-3.16675 9.022,-7.03722 z m 189.474,62.5917 c -3.3602,-0.431 -9.5162,-1.87903 -13.68,-3.21786 l -7.5704,-2.43422 -6.3434,-3.85289 c -3.4888,-2.1191 -8.8015,-5.77578 -11.8062,-8.12596 l -5.4628,-4.27308 -6.177,-7.26917 -6.1773,-7.26916 -3.2315,-6.08421 c -1.7775,-3.3463 -4.2144,-9.20887 -5.4152,-13.02793 -1.2011,-3.81905 -3.2037,-12.46174 -4.4505,-19.20592 l -2.267,-12.26216 0.4746,-4.83014 c 0.6861,-6.97797 3.7051,-22.47566 6.6804,-34.29105 2.9624,-11.76315 9.298,-30.42882 12.4689,-36.73392 4.7235,-9.39286 16.6076,-28.25639 23.9017,-37.93958 4.2317,-5.61755 10.9907,-13.58548 15.02,-17.70648 4.0295,-4.12103 10.6895,-10.03554 14.8003,-13.14333 l 7.474,-5.65056 8.858,-4.38938 8.8582,-4.38936 11.4428,-0.0719 11.4427,-0.0719 10.1486,4.09514 c 5.5817,2.25232 11.11,4.17521 12.2851,4.27308 l 2.1366,0.17795 0.5341,-5.92379 0.534,-5.92383 1.9821,-3.02329 1.9815,-3.02327 5.8776,0.69077 5.8773,0.69078 5.7737,2.73136 5.7736,2.73137 3.7264,3.51455 3.7266,3.51455 v 5.34875 c 0,2.9418 -0.3005,6.85177 -0.668,8.68877 l -0.6679,3.34003 -4.2136,4.78701 -4.2139,4.78698 0.6717,1.08681 0.6717,1.08679 h 1.9551 1.9552 l 2.4674,1.99798 2.4674,1.99798 -1.2687,14.82723 c -1.4602,17.06528 -2.5558,25.21782 -4.8382,35.99686 -0.8936,4.22052 -2.0904,10.07725 -2.6595,13.01499 -0.5693,2.93775 -1.8261,8.87524 -2.7932,13.19444 l -1.7583,7.85306 -2.652,5.23321 -2.6518,5.23323 h -0.9256 -0.9256 l -0.6443,-2.40361 c -0.3544,-1.32198 -0.6506,-4.94281 -0.6588,-8.04632 l -0.021,-5.64273 -1.4434,-3.45477 -1.4435,-3.45479 -0.7878,-13.82757 -0.7876,-13.8276 -4.5775,-13.39603 -4.5776,-13.39605 -4.6,-8.97025 -4.6005,-8.97024 -3.8383,-4.03477 -3.8382,-4.0348 -2.9596,-0.74283 -2.9598,-0.74285 -4.6789,1.78686 c -2.5734,0.98278 -7.7202,3.79413 -11.4374,6.24742 l -6.7587,4.46054 -9.9562,10.09211 -9.9564,10.09207 -7.8699,11.83 -7.8701,11.82998 -7.4674,15.4899 c -8.019,16.63493 -13.3906,30.38735 -17.7659,45.48555 l -2.743,9.46634 -0.6616,8.04398 -0.6616,8.04401 -2.5007,3.00869 -2.5004,3.00871 1.572,3.03982 c 0.8647,1.67195 2.9416,4.16379 4.6155,5.53746 l 3.0434,2.49761 2.8617,5.01157 2.8612,5.01159 5.0662,5.18755 5.0659,5.18758 5.176,2.49753 5.1758,2.49753 11.9165,-0.55981 11.9163,-0.55982 10.3448,-3.35113 c 5.6897,-1.8431 13.1088,-4.57355 16.4872,-6.0676 l 6.1424,-2.71647 1.8981,0.49638 1.8983,0.49635 3.068,-2.93193 3.068,-2.93197 7.5329,-2.8785 7.533,-2.87854 1.991,-2.19988 c 1.0951,-1.20992 3.2462,-2.84904 4.7807,-3.64249 l 2.7897,-1.44266 1.2672,-2.98811 1.2674,-2.98813 6.0465,-3.67297 c 3.3256,-2.02012 7.8525,-5.30461 10.0599,-7.29881 l 4.0132,-3.62584 4.2398,-6.71329 4.2399,-6.71327 1.5978,-0.6131 1.5977,-0.61311 1.3073,1.57532 1.3073,1.57533 -1.1913,2.36718 c -0.6552,1.30195 -2.3721,7.26445 -3.8153,13.25 l -2.6237,10.88279 -5.156,9.41432 -5.1561,9.4143 -7.14,7.14524 -7.14,7.14526 -3.065,1.58488 -3.0648,1.5849 -2.0595,-0.18397 -2.0595,-0.18397 -2.972,5.87547 -2.9719,5.87549 -11.4734,7.14855 -11.4733,7.14855 -9.6144,3.19276 -9.6145,3.19279 -8.3563,1.14256 c -9.1514,1.25127 -14.1201,1.26801 -23.3917,0.0788 z m -1007.53093,-18.58188 -4.12631,-1.55077 -3.1822,-3.02222 -3.18221,-3.02221 -2.09771,-4.07906 -2.09772,-4.07909 -0.59978,-5.06386 -0.59977,-5.06388 2.5483,-2.96239 2.54808,-2.96241 6.69393,-0.78926 6.69392,-0.78928 1.81844,-1.81846 1.81843,-1.81844 0.54804,-9.8505 0.54783,-9.8505 3.20475,-0.54583 3.20496,-0.54583 0.33144,-2.86577 0.33166,-2.86577 -3.00231,-1.91171 c -1.65121,-1.05141 -3.35545,-2.4035 -3.78692,-3.00461 l -0.78504,-1.09295 -0.0215,-30.74623 -0.0215,-30.74627 1.33544,-0.41139 c 0.73437,-0.22626 2.60432,-0.68774 4.15528,-1.02552 l 2.81985,-0.61414 0.67856,-1.76799 0.67835,-1.76799 -1.36184,-1.82324 c -0.74897,-1.00277 -2.97999,-3.93693 -4.95793,-6.5203 l -3.59586,-4.69709 0.8636,-17.0923 c 0.47484,-9.40075 0.89129,-21.74149 0.92521,-27.42384 l 0.0623,-10.33153 -2.57943,-2.74384 -2.57964,-2.74381 -5.96663,-2.22476 -5.96664,-2.22475 -2.31711,-2.16435 -2.31731,-2.16435 -2.27503,-5.28829 -2.27482,-5.28829 -0.17602,-6.31406 -0.17603,-6.31403 2.50193,-2.66321 2.50193,-2.66323 9.20895,-3.36622 9.20917,-3.36624 16.55804,-3.08958 16.55825,-3.08955 19.2287,0.0228 19.22891,0.0227 10.27241,0.99968 10.2724,0.99968 8.77855,3.20378 c 4.82827,1.76206 11.75081,4.86594 15.3836,6.89749 3.63279,2.03158 8.78198,5.60993 11.44255,7.95194 l 4.8375,4.25815 6.777,9.44953 6.77679,9.44955 5.11956,10.6827 5.11979,10.68267 1.79417,6.94376 1.79418,6.94375 0.0966,8.012 0.0966,8.01202 -1.38352,5.87549 -1.38374,5.87547 -4.17632,8.54615 -4.17633,8.54613 -6.13794,7.13184 c -3.37583,3.92251 -8.54155,9.26614 -11.47926,11.87476 -2.93791,2.60862 -9.10655,7.44356 -13.70856,10.74431 l -8.36725,6.00135 -12.99823,6.28893 c -16.38674,7.92845 -35.50896,15.58408 -44.51205,17.82058 -3.81912,0.94871 -8.72488,2.18208 -10.9018,2.74083 l -3.9578,1.01586 -1.65057,1.65046 -1.65035,1.65051 v 13.85973 13.85975 l 2.4502,2.45037 2.45041,2.45032 4.35471,0.69636 4.35472,0.69633 1.33779,1.61197 1.3378,1.61197 5.47763,0.015 5.47742,0.015 4.61123,1.60605 4.61103,1.60604 0.98961,-0.61154 c 0.93165,-0.57586 23.4194,-1.77164 30.38252,-1.61555 1.76262,0.0395 4.8873,0.0788 6.94358,0.0872 2.0565,0.009 4.394,0.25 5.1947,0.53694 l 1.45565,0.52175 -1.31934,1.58975 -1.31955,1.58977 h -1.66838 c -0.9177,0 -3.86334,1.02128 -6.54581,2.26952 -2.68268,1.24821 -7.76189,3.61003 -11.28713,5.24849 -3.52524,1.63844 -9.29396,3.79317 -12.8192,4.78825 -3.52525,0.99511 -7.98815,2.47903 -9.91778,3.29766 l -3.50807,1.4884 h -3.99923 -3.99901 l -2.33642,1.6364 c -3.49262,2.4464 -10.322,4.65752 -21.6409,7.00665 l -10.14854,2.10624 -12.81921,0.53366 -12.8192,0.53368 -4.12652,-1.55074 z m 79.82909,-118.89771 9.46999,-3.7422 4.62304,0.69326 4.62326,0.69329 1.71261,-2.61378 1.7126,-2.61379 -0.64335,-2.56348 -0.64335,-2.56345 2.10801,-1.90789 2.10824,-1.90786 2.2937,1.22755 2.29371,1.22754 1.62631,-1.34963 1.62609,-1.34964 -0.59441,-2.97182 -0.59419,-2.97181 5.33616,-6.09797 c 6.66602,-7.61778 12.04211,-15.67009 15.7612,-23.60769 l 2.87352,-6.13285 6.4e-4,-9.61441 6.4e-4,-9.61444 -2.84196,-6.06257 -2.84196,-6.06257 -4.37145,-4.74251 -4.37168,-4.74251 -6.22874,-2.79535 -6.22896,-2.79536 -8.19745,-1.21922 -8.19744,-1.21921 -10.40829,1.263 c -5.7245,0.69466 -11.21007,1.49457 -12.19002,1.77759 l -1.78194,0.51455 -3.70041,-3.24901 -3.70041,-3.24901 h -2.22502 -2.22501 l -1.10596,2.06631 c -0.60814,1.13646 -1.10574,3.21917 -1.10574,4.62822 v 2.56193 l -3.92238,2.58258 c -2.15717,1.42042 -4.86411,3.86321 -6.01536,5.42843 l -2.09321,2.84584 -0.87906,16.91713 -0.87927,16.91712 -0.0494,30.50855 -0.0494,30.50855 1.33543,1.68369 c 0.73437,0.92605 2.05629,1.90009 2.9377,2.16458 l 1.60249,0.48087 12.28489,-2.59417 12.28512,-2.59417 9.46998,-3.74221 z M 684.8876,454.39258 c -1.76262,-0.23378 -5.76528,-1.14733 -8.89489,-2.03008 l -5.69015,-1.60501 -4.50477,-4.50472 -4.50455,-4.50474 -4.69259,-12.26689 -4.69238,-12.26694 -0.44565,-14.37971 -0.44586,-14.37974 1.26867,-7.86517 1.26889,-7.86516 2.57256,-7.56369 c 1.41486,-4.16003 4.29697,-10.70099 6.40477,-14.53541 4.58956,-8.34969 11.8985,-18.06308 18.85883,-25.06287 l 5.09316,-5.12199 8.85433,-4.24854 8.85411,-4.24854 5.44671,-0.64509 5.44672,-0.64507 5.54203,3.01636 5.54203,3.01633 5.67255,5.45039 5.67254,5.45041 2.66379,5.2878 2.664,5.28782 1.20127,5.66098 1.20106,5.66099 V 363.05215 376.62 l -1.11519,4.01612 -1.1154,4.0161 -2.35059,1.52527 -2.3506,1.52526 -7.47788,1.22272 c -7.49742,1.22591 -44.32808,10.37343 -52.34521,13.00087 l -4.27313,1.40038 -1.86202,3.80624 -1.86201,3.80622 1.81135,4.73993 c 0.99627,2.60694 2.93298,6.56004 4.30362,8.78464 l 2.49206,4.04471 3.43401,2.16577 3.43401,2.16578 6.50545,-0.46533 6.50545,-0.46533 6.84784,-3.02011 c 3.76653,-1.66104 12.61398,-6.46965 19.66125,-10.68573 l 12.81319,-7.66565 1.45544,0.55854 1.45543,0.55852 -0.57101,3.51953 c -0.31427,1.93573 -1.54044,5.71037 -2.72475,8.38805 l -2.15375,4.86853 h -2.65434 -2.65434 l -1.75039,1.7503 -1.75038,1.7503 0.16958,4.39224 c 0.0944,2.41574 0.12665,4.91344 0.0708,5.55044 l -0.0987,1.15819 -9.37746,4.45646 -9.37768,4.45649 -7.44762,1.5776 c -7.37613,1.56247 -9.78275,1.69331 -15.99368,0.86953 z m 10.21101,-78.82783 17.56397,-3.95002 4.44895,-1.93702 4.44873,-1.93704 1.15963,-2.16679 1.15962,-2.16678 v -11.26543 -11.26545 l -1.72226,-4.30443 -1.72226,-4.30442 -2.52297,-0.6332 -2.52297,-0.6332 -4.82226,2.33443 -4.82225,2.33442 -7.98192,7.45417 c -4.38992,4.0998 -9.6209,9.70816 -11.62437,12.46307 -2.00348,2.7549 -5.67985,8.93721 -8.16976,13.73849 l -4.52709,8.72958 0.75691,1.22474 0.75692,1.22473 1.28971,-0.49494 c 0.70947,-0.27219 9.19349,-2.27241 18.85367,-4.44491 z m 338.45319,77.02989 c -2.1256,-0.75955 -5.615,-2.46282 -7.7544,-3.78501 l -3.8897,-2.40396 -2.673,-4.56113 c -1.4703,-2.50861 -4.4705,-9.5574 -6.6673,-15.66398 l -3.9943,-11.10288 0.099,-17.0923 0.099,-17.0923 2.3147,-8.54615 2.3145,-8.54617 4.3313,-9.08026 4.3314,-9.0803 5.7863,-7.57097 c 3.1824,-4.16404 8.4477,-10.08803 11.7006,-13.16443 l 5.9142,-5.59346 8.0457,-3.71733 8.0455,-3.71732 5.2002,-0.6159 5.2003,-0.6159 4.6289,2.26018 4.6288,2.26015 6.6325,5.93592 6.6321,5.93592 3.5165,7.13678 3.5162,7.13678 0.346,18.72297 0.3463,18.72294 -1.0997,2.88187 -1.0998,2.88187 -2.4512,1.59041 -2.4513,1.59042 -9.6471,1.66246 c -5.3061,0.91437 -18.7663,4.09037 -29.9115,7.05781 l -20.2645,5.39532 -4.807,2.35742 -4.8072,2.35742 0.1803,6.59187 0.1803,6.5919 2.1799,4.92806 2.18,4.92811 3.7487,1.56631 3.7487,1.56633 7.7793,-0.0172 7.7792,-0.0172 9.0096,-3.65355 9.0095,-3.65355 2.029,1.08598 2.0293,1.08599 1.9517,-1.76616 c 1.0733,-0.97141 2.2179,-2.8124 2.5436,-4.09117 l 0.592,-2.32498 6.7208,-4.54014 6.7207,-4.54014 h 1.9657 1.9657 l 3.0558,-2.17581 c 1.6804,-1.1967 5.2799,-3.15976 7.9984,-4.36236 l 4.9432,-2.1865 0.5583,0.5585 0.5586,0.5585 -1.7906,4.68856 -1.7905,4.68853 -4.1654,5.50339 c -2.2911,3.02686 -5.1247,7.38406 -6.2974,9.68268 l -2.1323,4.17927 -5.4057,4.72879 -5.4055,4.72876 -9.8545,4.95958 -9.8542,4.95958 -5.0837,1.33376 -5.0839,1.33376 -1.6534,-2.36066 -1.6536,-2.36066 -2.8769,0.004 -2.8772,0.004 -4.2731,2.63187 c -2.3504,1.44751 -4.9942,2.62575 -5.8756,2.61832 -0.8813,-0.006 -3.3415,-0.63503 -5.4672,-1.39462 z m 17.2179,-76.57347 c 7.9319,-1.75697 17.4311,-4.18454 21.1092,-5.39459 l 6.6877,-2.20009 1.1794,-2.20385 1.1796,-2.20382 0.1438,-12.39412 0.1438,-12.3941 -2.2231,-3.73895 -2.2231,-3.73894 -3.7409,0.10604 -3.741,0.10605 -6.5671,4.45973 -6.5672,4.45974 -2.538,-0.63702 -2.538,-0.637 -1.7571,1.75694 -1.7568,1.75695 0.6543,2.60718 0.6545,2.60721 -4.236,5.59462 c -2.3295,3.07704 -6.2292,9.2592 -8.6654,13.73814 l -4.4294,8.14361 v 2.39668 2.39668 l 2.4036,-0.6962 c 1.3219,-0.38292 8.8932,-2.13376 16.8251,-3.89074 z m 663.6831,77.2972 -2.3821,-0.46018 -2.1581,-2.74322 -2.1576,-2.74324 v -1.86164 -1.86167 l -1.5087,-1.25208 -1.5086,-1.25208 -6.4741,2.72484 c -3.5607,1.49871 -10.2128,3.95925 -14.7824,5.46792 l -8.3084,2.74302 -9.7001,0.60671 -9.7001,0.60672 -5.668,-1.88269 -5.6683,-1.88268 -4.1216,-3.72356 -4.1213,-3.72359 -1.6089,-5.41645 -1.6083,-5.41645 v -5.09885 -5.09885 l 2.5883,-7.13041 2.588,-7.13043 3.9985,-5.80521 3.9979,-5.80521 5.9658,-4.30697 5.9658,-4.30699 12.8192,-6.24506 12.8194,-6.24506 9.4103,-2.3464 9.411,-2.34641 2.243,-1.81657 2.2433,-1.81658 -1.1794,-10.38219 -1.1794,-10.38219 -1.9281,-3.9453 -1.9284,-3.94532 -8.5462,-0.30079 -8.5461,-0.30077 -8.5461,4.15426 -8.5463,4.15427 -8.0119,5.94458 c -4.4067,3.26953 -8.6259,6.58305 -9.3762,7.36334 -0.7503,0.78033 -2.5195,2.86091 -3.9318,4.62356 l -2.5674,3.20481 -1.285,-1.26389 -1.2846,-1.26387 2.8828,-7.28228 c 1.5853,-4.00524 4.4135,-9.85606 6.2845,-13.0018 l 3.4021,-5.71956 6.2751,-5.26272 c 3.4509,-2.89452 8.274,-6.43438 10.7176,-7.86639 2.4435,-1.43202 6.5902,-3.36787 9.215,-4.30191 l 4.7722,-1.69822 7.688,-0.0432 7.6879,-0.0431 5.7142,2.61602 5.7141,2.61603 3.9141,3.43663 3.9142,3.43665 2.5912,5.53561 2.5914,5.53563 1.2148,5.77288 1.2146,5.77288 1.0285,15.05836 c 0.5656,8.28211 1.0355,19.26468 1.0443,24.40573 l 0.022,9.34733 h 1.0053 c 0.5527,0 1.3021,-0.4807 1.6654,-1.06826 l 0.6601,-1.06827 h 2.2069 2.2072 l -0.6933,3.47188 c -0.3813,1.90954 -2.1239,6.53035 -3.8726,10.2685 l -3.179,6.79662 v 2.01657 2.01662 h 1.1272 c 0.6195,0 3.8646,-1.404 7.2109,-3.12 8.9665,-4.59862 15.6701,-7.5627 17.1032,-7.5627 h 1.2651 v 0.99274 c 0,0.54601 -1.9561,3.93762 -4.3468,7.53694 l -4.3468,6.54422 -0.8232,5.20851 -0.8235,5.20848 -1.7308,2.64159 -1.7307,2.64157 -5.6513,3.20786 -5.6512,3.20784 -5.8023,1.70223 c -3.1912,0.93623 -6.0756,1.63679 -6.4097,1.55676 -0.334,-0.0801 -1.6793,-0.35254 -2.9896,-0.60564 z m -38.2052,-24.321 8.2069,-1.5702 6.0418,-2.75554 c 3.3228,-1.51554 7.8467,-4.00045 10.0526,-5.52204 l 4.0106,-2.76655 2.1318,-3.44945 2.1319,-3.44944 v -4.4626 -4.46263 l -2.6221,-2.6221 -2.6222,-2.62212 h -2.0548 -2.0548 l -1.6057,-2.40359 -1.6054,-2.40362 -2.0443,1.83645 -2.0443,1.83644 -7.2306,2.23334 -7.2306,2.23334 -3.9386,3.48122 c -2.166,1.91469 -6.2039,5.07942 -8.9733,7.03278 l -5.035,3.55156 -2.6032,3.85319 c -1.4316,2.11926 -2.9315,4.95837 -3.3327,6.30911 l -0.7297,2.45593 1.7156,2.61834 1.7159,2.61839 h 5.7571 5.7567 z m -541.4383,19.30591 -3.9196,-3.91963 -2.6707,-5.27011 -2.6706,-5.27014 v -2.64313 -2.64314 l 1.3303,-0.82202 1.3298,-0.822 9.0857,-0.0423 9.0856,-0.0423 0.6431,-21.36539 0.6431,-21.36536 1.3116,-5.59294 1.3114,-5.59293 -0.3522,-13.82021 -0.3523,-13.82019 -2.3658,-2.51511 -2.3661,-2.51511 0.6176,-2.36189 0.6178,-2.3619 -1.7956,-0.68906 -1.7957,-0.68905 -2.3317,1.22692 -2.3313,1.2269 -5.3415,-2.04278 -5.3413,-2.04283 -0.3637,-1.80813 -0.3639,-1.80813 2.3717,-2.5244 2.3714,-2.52441 9.2092,-3.38359 9.2089,-3.3836 5.9424,-0.12623 5.9424,-0.12622 2.96,1.93948 2.96,1.93949 1.5132,3.62152 1.5134,3.62154 v 5.37567 5.37566 l 1.3352,-6e-4 1.3355,-5.8e-4 6.1094,-6.83181 6.1091,-6.83178 4.6437,-2.2479 4.6434,-2.24792 h 4.9167 c 2.7042,0 5.714,0.30593 6.6884,0.67983 l 1.7716,0.67985 0.96,2.52496 0.96,2.52499 h 3.0313 3.0315 l 2.7383,2.93772 2.7382,2.93775 4.4054,9.11782 4.4052,9.11783 -0.062,2.099 c -0.034,1.15445 -0.9185,5.38657 -1.9661,9.40473 l -1.9045,7.3057 -4.7106,2.10461 -4.7105,2.10463 -2.8383,2.71224 -2.8383,2.71223 -6.3771,-2.86188 -6.377,-2.86186 -1.1601,-2.54587 -1.1598,-2.54588 0.885,-0.54709 0.8853,-0.5471 1.9108,2.11135 1.9107,2.11136 h 2.8351 2.8351 l 1.7495,-1.33535 1.7497,-1.33533 1.6437,-4.8072 c 0.9042,-2.64398 1.6508,-5.67032 1.6594,-6.72525 l 0.022,-1.91802 -2.6707,-2.67068 c -1.4687,-1.46887 -2.6706,-3.04574 -2.6706,-3.50416 0,-0.45844 -1.1127,-1.87873 -2.4723,-3.15625 l -2.4726,-2.32284 h -5.8361 -5.8359 l -2.3978,1.67946 -2.3976,1.67944 -3.0326,6.06549 c -1.668,3.33604 -3.8077,8.46911 -4.7551,11.40685 -0.9475,2.93773 -2.951,12.54177 -4.4526,21.3423 l -2.7299,16.00094 -0.1073,8.27923 -0.1073,8.27919 1.8304,2.79356 1.8305,2.79355 4.5908,2.03081 4.5911,2.03082 0.5811,2.22227 0.5811,2.22226 2.1911,-1.17261 2.1911,-1.17262 2.0951,1.30848 2.0954,1.30847 2.6541,-1.42053 2.6543,-1.42053 3.0202,0.75385 c 1.6608,0.4146 3.741,1.37287 4.6224,2.12952 0.8814,0.75662 2.9342,1.69226 4.562,2.07915 l 2.9596,0.70348 2.2294,-1.19309 2.2293,-1.19309 1.0222,1.02226 1.0222,1.02226 -1.8302,1.83031 -1.8305,1.83034 -2.1653,-0.56628 -2.1658,-0.56631 -2.7494,1.47971 c -4.1778,2.24847 -12.9064,4.82833 -16.3356,4.82833 h -3.0571 l -4.4977,2.32801 -4.4974,2.32798 -11.7511,0.79116 c -6.4629,0.4351 -16.3567,1.13528 -21.9858,1.55589 l -10.2351,0.76479 -3.9198,-3.91962 z m 619.8461,0.80849 c -1.5256,-1.67984 -3.5686,-4.24289 -4.5399,-5.6956 l -1.7663,-2.64131 v -2.96711 -2.96709 l 2.0943,-2.09448 2.0945,-2.09447 5.9162,-1.71986 5.9162,-1.71986 0.609,-2.42652 0.609,-2.42652 -0.3405,-38.35938 -0.3407,-38.35937 -2.1943,-3.7353 -2.1941,-3.73531 -3.6813,-2.48077 -3.6813,-2.48074 v -1.26183 -1.2618 l 10.1488,-3.44468 c 5.5815,-1.89458 11.1098,-3.45692 12.2851,-3.47184 l 2.1363,-0.027 2.7682,3.47186 2.7683,3.47183 1.3668,4.27308 c 0.7517,2.3502 1.7737,4.71385 2.2707,5.25255 l 0.904,0.97946 7.7803,-8.08127 7.7804,-8.08129 4.5401,-1.21845 4.54,-1.21844 4.0295,1.08501 4.0293,1.08501 4.5329,3.33343 4.5326,3.33349 2.5501,4.43592 c 1.4024,2.43976 2.8664,5.95575 3.2528,7.81336 l 0.703,3.37741 -1.2043,6.77114 c -0.6624,3.72411 -2.4173,10.78436 -3.8998,15.68943 l -2.6953,8.91834 -6.3185,6.47714 -6.3183,6.47717 -0.6562,-0.65621 -0.656,-0.65619 1.8276,-7.45803 1.8275,-7.45803 -0.6077,-10.94261 -0.6078,-10.94262 -1.0782,-1.07833 -1.0783,-1.07829 -5.9323,1.86994 -5.9321,1.86995 -3.2897,4.47213 c -1.8094,2.45969 -3.9537,6.01964 -4.7652,7.91107 l -1.4756,3.43892 -2.67,17.59215 -2.6702,17.59215 v 6.5299 6.5299 l 1.563,3.0223 c 0.8595,1.66227 2.1816,3.25339 2.9377,3.53587 0.7562,0.28244 7.1434,0.17002 14.1941,-0.24991 l 12.8192,-0.76346 0.9656,0.8642 0.9655,0.86422 -2.9286,3.83984 c -1.6111,2.11192 -4.4866,4.86085 -6.3902,6.10875 l -3.4613,2.26889 -2.3094,3.52305 -2.3091,3.5231 -2.7941,1.8306 -2.7939,1.83063 -10.3035,0.77305 c -5.6668,0.42519 -14.8704,1.11041 -20.4521,1.52267 l -10.1486,0.74957 -2.7739,-3.05431 z m 91.2481,1.08003 c -1.2809,-1.09879 -3.5646,-3.86757 -5.0743,-6.15288 l -2.7456,-4.15507 v -2.06964 -2.06964 l 2.9931,-2.99293 2.9929,-2.99294 4.4234,-0.74736 4.4236,-0.74732 1.0313,-1.25182 1.0312,-1.25182 0.2276,-37.38941 0.2277,-37.38941 -1.0667,-5.11279 -1.0666,-5.11278 -1.8809,-2.07857 -1.8814,-2.07856 -5.4602,-2.03414 -5.4605,-2.0341 -0.2913,-1.45722 -0.2913,-1.45724 13.5446,-2.41703 13.5445,-2.41705 2.7707,1.76215 c 1.524,0.96917 3.8353,3.01829 5.1361,4.55358 l 2.3654,2.79143 0.6915,3.47187 0.6912,3.47188 1.2163,-0.009 1.2165,-0.009 5.0198,-6.29566 5.0199,-6.29568 5.8728,-2.8733 5.8729,-2.87328 3.5289,0.76022 c 1.941,0.41812 4.9712,1.47827 6.7338,2.35591 4.1128,2.04783 8.8805,6.48038 10.6867,9.93564 l 1.416,2.70837 -1.5248,13.8498 -1.5248,13.84979 -3.1637,4.80721 c -1.7401,2.64395 -3.9861,6.36956 -4.9916,8.27908 l -1.8277,3.47188 h -1.7296 -1.7293 l -0.1031,-8.81322 -0.103,-8.81321 -1.8163,-4.51964 -1.8165,-4.51962 -3.49,-2.15705 -3.4903,-2.15705 h -2.6801 -2.6801 l -2.1368,5.07427 c -1.1753,2.79085 -2.8892,7.47789 -3.8088,10.41561 -1.8139,5.79356 -5.5356,28.49791 -6.677,40.73251 l -0.7105,7.6162 1.2483,3.78226 c 0.6863,2.08024 1.8246,4.25311 2.5287,4.82865 l 1.2807,1.04639 5.8757,-1.05133 c 3.2315,-0.57822 8.7596,-1.181 12.2851,-1.33949 3.5252,-0.15842 7.202,-0.63131 8.171,-1.05073 l 1.7616,-0.76253 0.756,1.22366 0.7565,1.22364 -7.0226,6.7515 -7.0226,6.75148 -1.6688,4.17089 -1.669,4.17089 -3.4192,2.01988 -3.4196,2.0199 -10.1698,0.75466 c -5.5934,0.41507 -14.4962,1.1014 -19.7843,1.52513 l -9.6142,0.77046 -2.3289,-1.99779 z m 121.4407,0.0906 -5.8754,-1.61349 -5.6768,-3.8864 -5.6766,-3.88642 -4.1882,-4.89717 -4.1879,-4.89715 -3.1131,-6.40963 -3.1128,-6.4096 -1.1768,-5.661 -1.1768,-5.66099 0.021,-9.82891 0.022,-9.82891 1.0388,-7.18235 1.0387,-7.18236 2.294,-6.70513 c 3.0195,-8.82534 7.9166,-18.55439 11.8562,-23.55355 l 3.1751,-4.02919 6.6999,-4.78106 c 3.6852,-2.62962 9.3271,-5.98377 12.538,-7.45369 l 5.8377,-2.6726 7.9183,-0.64543 7.9182,-0.64546 7.4541,1.75371 7.454,1.75374 4.4631,2.61549 4.4629,2.61549 3.3029,4.1702 3.3028,4.17019 3.7082,7.86197 c 2.0395,4.32408 4.4736,10.7463 5.4091,14.27159 l 1.701,6.40962 0.5972,10.14854 0.597,10.14857 -1.7282,9.08026 c -0.9508,4.99418 -2.2214,10.84221 -2.8238,12.99564 l -1.0954,3.91535 -3.7137,2.19116 -3.7137,2.19118 v 1.65293 c 0,0.90911 0.5929,2.60241 1.3176,3.7629 l 1.3176,2.10997 -2.1188,3.94966 c -1.1654,2.17233 -4.3594,6.40447 -7.0977,9.40477 l -4.9789,5.45507 -5.7037,3.14897 -5.7041,3.14898 -13.3533,0.25902 -13.3533,0.25901 -5.8754,-1.61349 z m 25.5921,-22.11838 5.8915,-1.33533 4.0877,-4.07247 4.0876,-4.07245 2.0763,-4.84415 2.0767,-4.84415 1.1772,-7.58779 1.1772,-7.5878 -0.7103,-15.00952 c -0.3907,-8.25524 -0.6908,-17.24267 -0.6666,-19.97209 l 0.043,-4.96254 -2.8853,-1.89062 c -1.5873,-1.03987 -5.444,-3.97446 -8.571,-6.52136 l -5.685,-4.63073 h -3.5036 -3.5035 l -5.4845,1.62874 -5.4845,1.62875 -3.4411,2.89548 -3.4411,2.8955 -4.0632,6.28628 -4.063,6.28627 -0.6517,3.87818 c -0.3585,2.133 -0.8759,4.69811 -1.1496,5.70023 -0.2739,1.00215 -2.3952,4.11803 -4.714,6.92418 l -4.2161,5.10209 v 1.65167 1.65163 l 1.9715,1.68816 1.9717,1.68815 0.7338,6.24416 0.7339,6.24414 4.6181,9.74896 4.6183,9.74897 3.1309,2.2295 c 3.6955,2.63131 9.0838,4.31495 14.2386,4.4489 2.0391,0.053 6.3588,-0.50455 9.5992,-1.23896 z m 95.3572,21.01525 -5.526,-2.75373 -2.7468,-3.2644 c -1.5109,-1.7954 -3.6416,-5.01816 -4.7351,-7.16164 l -1.9883,-3.89724 -1.1656,-6.30487 -1.1652,-6.30484 -0.075,-28.38001 -0.075,-28.37999 -0.8353,-2.13653 -0.8352,-2.13655 h -7.7095 -7.7095 l -4.1993,-4.49877 -4.1991,-4.49878 v -2.72653 -2.72654 l -1.2369,-1.98053 -1.2367,-1.98052 0.5822,-1.51761 0.5824,-1.51762 6.3021,-3.30351 6.302,-3.30352 6.1641,-1.37942 6.1639,-1.37942 1.2747,-2.22006 1.2745,-2.22003 -0.2739,-21.71568 -0.2742,-21.71571 -1.1353,-2.12157 -1.1354,-2.12156 1.2732,-1.53411 1.2732,-1.53411 h 2.1331 2.1331 l 6.2511,3.79735 6.2513,3.79738 2.2486,3.15786 2.2486,3.15787 0.6219,16.18119 0.6219,16.18121 1.9842,1.98414 1.9841,1.98415 2.9214,-0.702 c 1.6068,-0.38609 4.6039,-1.53466 6.6604,-2.55242 l 3.7391,-1.8504 8.3919,-0.77041 8.3922,-0.77039 3.8929,-1.65879 3.893,-1.65881 5.597,-0.10884 5.5968,-0.10883 0.5233,1.3648 0.5236,1.36483 -1.8472,1.50573 c -1.016,0.82818 -4.1021,3.33867 -6.8579,5.57895 -2.7559,2.24023 -9.0884,7.71561 -14.072,12.1675 l -9.0613,8.0943 -9.4301,3.56613 c -5.1863,1.96138 -10.1509,4.22414 -11.0323,5.02836 l -1.6022,1.4622 -0.3442,29.60809 -0.3443,29.60809 0.6925,5.64327 0.6923,5.64326 2.4792,2.88196 2.4788,2.88197 3.2835,-1.58148 3.2835,-1.58147 12.1595,-11.89616 c 6.6877,-6.54291 13.2016,-12.45397 14.4756,-13.13571 l 2.316,-1.23954 0.9119,0.56365 0.9119,0.56365 -0.8636,4.56004 c -0.475,2.508 -1.6312,6.38274 -2.5693,8.6105 l -1.7057,4.05049 -3.3155,2.96235 -3.3153,2.96232 1.2362,2.31015 1.2363,2.31013 -1.6774,4.03041 -1.6776,4.0304 -4.4893,4.67295 c -2.4696,2.57013 -6.627,6.05536 -9.239,7.74495 l -4.7495,3.072 h -5.9905 -5.9907 l -5.5261,-2.75373 z"
       id="path4376"
       inkscape:connector-curvature="0" />
  </g>
</svg>
