<?xml version="1.0" encoding="UTF-8" standalone="no"?>
<!-- Created with Inkscape (http://www.inkscape.org/) -->

<svg
   xmlns:dc="http://purl.org/dc/elements/1.1/"
   xmlns:cc="http://creativecommons.org/ns#"
   xmlns:rdf="http://www.w3.org/1999/02/22-rdf-syntax-ns#"
   xmlns:svg="http://www.w3.org/2000/svg"
   xmlns="http://www.w3.org/2000/svg"
   xmlns:xlink="http://www.w3.org/1999/xlink"
   xmlns:sodipodi="http://sodipodi.sourceforge.net/DTD/sodipodi-0.dtd"
   xmlns:inkscape="http://www.inkscape.org/namespaces/inkscape"
   id="svg2"
   version="1.1"
   inkscape:version="0.91 r13725"
   width="2481"
   height="3503"
   sodipodi:docname="Pepper-and-Carrot_by-David-Revoy_E06P08.svg">
  <metadata
     id="metadata8">
    <rdf:RDF>
      <cc:Work
         rdf:about="">
        <dc:format>image/svg+xml</dc:format>
        <dc:type
           rdf:resource="http://purl.org/dc/dcmitype/StillImage" />
        <dc:title />
      </cc:Work>
    </rdf:RDF>
  </metadata>
  <defs
     id="defs6">
    <filter
       color-interpolation-filters="sRGB"
       id="filter4375-4-1-1-15-1-3-3"
       inkscape:label="deevad outline effect">
      <feFlood
         id="feFlood4377-7-9-0-4-4-4-7"
         flood-opacity="1"
         flood-color="rgb(0,0,0)"
         result="flood" />
      <feComposite
         id="feComposite4379-3-8-8-6-0-7-4"
         in2="SourceGraphic"
         in="flood"
         operator="in"
         result="composite1" />
      <feMorphology
         id="feMorphology4393-1-0-49-8-2-7-3"
         operator="dilate"
         radius="0.69999999999999996"
         result="result3" />
      <feComposite
         id="feComposite4385-9-5-7-2-1-2-9"
         in2="result3"
         in="SourceGraphic"
         operator="over"
         result="composite2" />
    </filter>
    <filter
       color-interpolation-filters="sRGB"
       id="filter3639"
       inkscape:label="deevad outline effect">
      <feFlood
         id="feFlood3641"
         flood-opacity="1"
         flood-color="rgb(0,0,0)"
         result="flood" />
      <feComposite
         id="feComposite3643"
         in2="SourceGraphic"
         in="flood"
         operator="in"
         result="composite1" />
      <feMorphology
         id="feMorphology3645"
         operator="dilate"
         radius="0.69999999999999996"
         result="result3" />
      <feComposite
         id="feComposite3647"
         in2="result3"
         in="SourceGraphic"
         operator="over"
         result="composite2" />
    </filter>
    <filter
       color-interpolation-filters="sRGB"
       id="filter3649"
       inkscape:label="deevad outline effect">
      <feFlood
         id="feFlood3651"
         flood-opacity="1"
         flood-color="rgb(0,0,0)"
         result="flood" />
      <feComposite
         id="feComposite3653"
         in2="SourceGraphic"
         in="flood"
         operator="in"
         result="composite1" />
      <feMorphology
         id="feMorphology3655"
         operator="dilate"
         radius="0.69999999999999996"
         result="result3" />
      <feComposite
         id="feComposite3657"
         in2="result3"
         in="SourceGraphic"
         operator="over"
         result="composite2" />
    </filter>
  </defs>
  <sodipodi:namedview
     pagecolor="#ffffff"
     bordercolor="#666666"
     borderopacity="1"
     objecttolerance="10"
     gridtolerance="10"
     guidetolerance="10"
     inkscape:pageopacity="0"
     inkscape:pageshadow="2"
     inkscape:window-width="1280"
     inkscape:window-height="973"
     id="namedview4"
     showgrid="false"
     inkscape:zoom="0.42773947"
     inkscape:cx="1174.6939"
     inkscape:cy="641.21989"
     inkscape:window-x="1918"
     inkscape:window-y="24"
     inkscape:window-maximized="1"
     inkscape:current-layer="layer1" />
  <g
     inkscape:groupmode="layer"
     id="layer2"
     inkscape:label="artwork"
     sodipodi:insensitive="true">
    <image
       sodipodi:absref="/home/rjq/Arts and Craft/2015/Translation P&amp;C/GIT/peppercarrot_ep06_translation/mx/../gfx_Pepper-and-Carrot_by-David-Revoy_E06P08.png"
       xlink:href="../gfx_Pepper-and-Carrot_by-David-Revoy_E06P08.png"
       width="2481"
       height="3503"
       id="image10"
       x="0"
       y="0" />
  </g>
  <g
     inkscape:groupmode="layer"
     id="layer3"
     inkscape:label="speechbubbles" />
  <g
     inkscape:groupmode="layer"
     id="layer1"
     inkscape:label="txt">
    <path
       style="color:#000000;fill:#ffffff;fill-opacity:1;fill-rule:nonzero;stroke:none;stroke-width:1px;marker:none;visibility:visible;display:inline;overflow:visible;enable-background:accumulate"
       d="m 524.44684,1977.3621 c -14.01377,-46.3951 -40.00882,-95.7772 -45.79925,-144.3988 l -11.44029,45.6542 c -62.91152,-129.7986 -216.9307,-210.2683 -37.93418,5.9274 l 4.61436,-21.5395 c 6.85365,14.1808 24.60331,28.6882 28.47492,44.653 l 15.40082,-17.4241 c 13.28656,38.1411 31.12227,58.0858 46.68362,87.1278 z"
       id="path4032-9"
       inkscape:connector-curvature="0"
       sodipodi:nodetypes="cccccccc" />
    <path
       style="color:#000000;fill:#ffffff;fill-opacity:1;fill-rule:nonzero;stroke:none;stroke-width:1px;marker:none;visibility:visible;display:inline;overflow:visible;enable-background:accumulate"
       d="m 734.33747,2852.147 c 34.68316,-42.7494 111.27433,-68.3456 171.06944,-6.0348 45.90017,-4.9397 81.26643,-4.2641 125.92729,48.6318 -41.84055,-33.4484 -69.35796,-47.6353 -136.48501,-35.9449 -35.82358,-28.4476 -90.54377,-19.0565 -121.82817,39.1849 -31.28451,58.2414 -17.69437,44.59 -17.69437,44.59 l -30.80741,-73.5852 z"
       id="path5074-3-6"
       inkscape:connector-curvature="0"
       sodipodi:nodetypes="ccccsccc" />
    <path
       style="color:#000000;fill:#ffffff;fill-opacity:1;fill-rule:nonzero;stroke:none;stroke-width:1px;marker:none;visibility:visible;display:inline;overflow:visible;enable-background:accumulate"
       d="m 945.11511,1685.3102 c 38.32906,18.6277 26.56293,53.657 -17.25459,29.5292 30.4647,35.9116 50.91128,52.0261 35.37649,66.5249 113.16099,-28.688 40.12509,17.6202 12.35589,45.6958 25.2138,-11.1892 65.3963,-42.7141 50.2471,0.9326 8.0165,-2.0071 17.4491,-7.7553 21.4169,0.9326 10.2141,-5.9994 17.8025,-7.54 22.2405,-3.7303 10.0387,-10.9178 16.5252,-13.7923 16.4745,-1.865 9.4908,-8.9943 12.4136,-5.8987 14.827,-1.8652 16.2884,-19.3104 22.3718,-13.8628 28.8303,-9.3257 9.2223,-11.5941 20.0147,-8.9681 32.1252,5.5954 12.3911,-19.7186 25.706,-18.519 39.5387,-5.5954 4.0629,-4.8576 7.7526,-13.0937 13.1796,-5.5954 5.4916,-2.5937 10.9829,-9.2401 16.4744,-2.7977 57.96,-25.5257 83.2408,-3.9641 110.3791,14.921 15.1317,-8.3376 26.0358,-24.4528 51.8945,-13.0558 2.4173,-11.638 16.2824,-16.3634 40.3625,-14.9211 -24.6985,-14.0451 -25.9691,-22.0409 31.3015,-14.9211 -39.9179,-11.5016 -76.7041,-23.0032 -14.8271,-34.5049 -14.4922,-4.5662 -61.8613,6.1755 -9.8847,-48.4933 -36.9085,12.0657 -70.4145,15.2007 -80.7249,-33.5725 -19.9115,12.8266 -41.9579,19.1806 -59.3081,-10.2582 -15.8027,13.7936 -37.9137,10.4819 -49.4234,3.7302 -3.114,15.1069 -26.6303,38.2752 -58.4843,-3.7302 6.989,23.8751 1.6991,61.9029 -35.4201,-0.9326 -0.7362,10.9306 14.5493,70.3734 -88.9621,-0.9326 12.9121,47.8406 -21.4561,20.0035 -48.5997,3.7302 13.4603,29.9949 -6.7969,32.3145 -51.0709,14.9211 34.1543,28.4805 -0.96419,20.6172 -23.06429,19.584 z"
       id="path3549-2"
       inkscape:connector-curvature="0"
       sodipodi:nodetypes="ccccccccccccccccccccccccccccc" />
    <path
       style="color:#000000;fill:#ffffff;fill-opacity:1;fill-rule:nonzero;stroke:none;stroke-width:1px;marker:none;visibility:visible;display:inline;overflow:visible;enable-background:accumulate"
       d="m 810.79526,1767.745 c 59.61069,18.5105 120.36891,36.72 18.91164,97.4852 98.19542,-19.5028 39.17933,14.2692 15.92241,35.9231 174.65799,-49.6877 63.82618,21.4175 22.40058,63.1563 38.58906,-17.809 99.15342,-65.423 78.48604,-2.8615 45.53418,-31.9611 116.95297,-89.8449 33.48967,-0.468 70.229,-55.0725 71.7897,-49.3442 34.4572,-7.0856 45.9633,-37.691 53.8294,-31.1088 48.5989,-7.8377 28.9449,-48.7366 35.3331,-27.0309 44.3606,-15.4918 13.6028,-17.0501 30.626,-14.2577 50.5204,5.1922 17.9945,-28.7245 38.8573,1.7762 38.9548,29.187 14.8678,-41.2968 39.4611,-47.1468 62.4485,-1.1476 0.4491,-27.533 0.1123,-86.3867 35.4649,-0.093 -9.2507,-78.9349 105.519,-45.5888 160.8607,3.9889 -32.5736,-57.9294 -4.8209,-94.8611 62.7021,-68.1775 2.9789,-16.5468 24.2965,-24.3348 61.9775,-24.308 -39.5057,-17.6767 -42.0341,-28.8017 47.8358,-23.5559 -63.0857,-12.8409 -121.2836,-25.9416 -25.4943,-47.233 -22.93,-5.2103 -96.128,13.8091 -18.7345,-67.2906 -56.7817,20.0108 -108.8618,27.1955 -128.2797,-40.4528 -30.202,19.6685 -64.1772,30.4232 -93.2638,-9.4848 -23.7232,20.6856 -58.4585,17.8698 -76.8825,9.3422 -3.8299,21.4768 -38.9526,55.97 -91.5329,-0.3843 12.5361,32.9535 6.8734,86.8047 -55.345,1.6307 -0.4035,15.4135 27.5068,97.635 -138.91,6.0751 23.4151,66.1225 -32.12297,29.877 -75.59692,9.2736 23.05355,41.012 -8.40438,45.9517 -78.69047,25.1971 55.2481,37.167 -0.0989,29.0378 -34.66165,29.4213 z"
       id="path3549"
       inkscape:connector-curvature="0"
       sodipodi:nodetypes="ccccccccccccccccccccccccccccc" />
    <path
       style="color:#000000;fill:#ffffff;fill-opacity:1;fill-rule:nonzero;stroke:none;stroke-width:1px;marker:none;visibility:visible;display:inline;overflow:visible;enable-background:accumulate"
       d="m 468.86698,410.51226 c 30.06065,-39.6698 193.56332,-36.2833 247.96369,-19.0964 54.40013,17.1867 74.64209,46.7862 77.17231,57.2893 2.5301,10.503 -3.79532,59.1989 -31.62806,68.7472 -27.83262,9.5482 -107.53514,14.3223 -135.36789,14.3223 -27.83261,0 -116.68057,-6.0774 -139.16343,-20.0513 -21.50709,-13.3675 -49.03741,-61.5414 -18.97662,-101.2111 z"
       id="path3330"
       inkscape:connector-curvature="0"
       sodipodi:nodetypes="zsssssz" />
    <path
       style="color:#000000;fill:#ffffff;fill-opacity:1;fill-rule:nonzero;stroke:none;stroke-width:1px;marker:none;visibility:visible;display:inline;overflow:visible;enable-background:accumulate"
       d="m 432.62385,734.13551 c -11.48015,-65.38983 19.13353,-239.08147 254.47728,-224.77737 235.34358,14.30383 273.61105,96.04109 279.35094,120.56229 5.74027,24.52118 55.48753,163.4745 -128.1952,200.2564 -183.68299,36.78166 -348.23207,-2.04359 -405.63302,-96.04132 z"
       id="path3525"
       inkscape:connector-curvature="0" />
    <flowRoot
       xml:space="preserve"
       id="flowRoot2987-4-9-3"
       style="font-style:normal;font-variant:normal;font-weight:normal;font-stretch:normal;font-size:12px;line-height:125%;font-family:Lavi;-inkscape-font-specification:Lavi;text-align:center;letter-spacing:0px;word-spacing:0px;text-anchor:middle;fill:#000000;fill-opacity:1;stroke:none"
       transform="translate(283.43199,306.19513)"><flowRegion
         id="flowRegion2989-5-4-5"><rect
           id="rect2991-7-9-6"
           width="602.40173"
           height="310.73996"
           x="120.55251"
           y="265.53046"
           style="font-style:normal;font-variant:normal;font-weight:normal;font-stretch:normal;font-family:Lavi;-inkscape-font-specification:Lavi;text-align:center;text-anchor:middle" /></flowRegion><flowPara
         style="font-size:48px;text-align:center;text-anchor:middle"
         id="flowPara3037">...como siempre,</flowPara><flowPara
         style="font-size:48px;text-align:center;text-anchor:middle"
         id="flowPara3041">todo el mundo se va</flowPara><flowPara
         style="font-size:48px;text-align:center;text-anchor:middle"
         id="flowPara3076">justo cuando es nuestro turno.</flowPara></flowRoot>    <flowRoot
       transform="translate(198.43199,158.69514)"
       style="font-style:normal;font-variant:normal;font-weight:normal;font-stretch:normal;font-size:12px;line-height:125%;font-family:Lavi;-inkscape-font-specification:Lavi;text-align:center;letter-spacing:0px;word-spacing:0px;text-anchor:middle;fill:#000000;fill-opacity:1;stroke:none"
       id="flowRoot3045"
       xml:space="preserve"><flowRegion
         id="flowRegion3047"><rect
           style="font-style:normal;font-variant:normal;font-weight:normal;font-stretch:normal;font-family:Lavi;-inkscape-font-specification:Lavi;text-align:center;text-anchor:middle"
           y="265.53046"
           x="120.55251"
           height="310.73996"
           width="602.40173"
           id="rect3049" /></flowRegion><flowPara
         id="flowPara3055"
         style="font-size:48px;text-align:center;text-anchor:middle">... te digo: </flowPara></flowRoot>    <path
       style="color:#000000;fill:#ffffff;fill-opacity:1;fill-rule:nonzero;stroke:none;stroke-width:1px;marker:none;visibility:visible;display:inline;overflow:visible;enable-background:accumulate"
       d="m 894.08615,776.05926 c 42.51329,20.49356 123.80235,14.32923 138.26235,-30.35733 -49.15569,36.55167 -109.63611,20.90132 -120.75593,10.89767 -11.11981,-10.00366 -17.50642,19.45966 -17.50642,19.45966 z"
       id="path3978"
       inkscape:connector-curvature="0" />
    <path
       style="color:#000000;fill:#ffffff;fill-opacity:1;fill-rule:nonzero;stroke:none;stroke-width:1px;marker:none;visibility:visible;display:inline;overflow:visible;enable-background:accumulate"
       d="m 1547.3019,783.65295 c 60.7983,-99.27076 361.3152,-90.7963 459.0918,-47.78735 97.7759,43.00847 130.9633,117.07906 134.1749,143.3623 3.2116,26.28299 -15.1367,148.1409 -67.687,172.0348 -52.5499,23.8938 -199.9273,35.8405 -251.163,35.8405 -51.2357,0 -213.9542,-15.2081 -253.4179,-50.1769 -37.7507,-33.4512 -81.7976,-154.00281 -20.9988,-253.27335 z"
       id="path3330-3"
       inkscape:connector-curvature="0"
       sodipodi:nodetypes="zsssssz" />
    <path
       style="color:#000000;fill:#ffffff;fill-opacity:1;fill-rule:nonzero;stroke:none;stroke-width:1px;marker:none;visibility:visible;display:inline;overflow:visible;enable-background:accumulate"
       d="m 1441.4333,792.86046 c 1.8123,17.9111 3.4719,36.60072 12.514,52.57918 2.6665,4.48827 5.7379,8.94714 9.7431,12.29849 4.9422,2.55729 10.902,0.92324 14.9972,-2.48609 6.2588,-4.50938 10.9613,-11.84776 18.8831,-13.58596 5.7972,-1.12556 10.4379,3.16953 14.6457,6.42604 10.5623,8.51108 20.0337,18.50261 31.8998,25.28467 12.8634,8.50453 27.0155,16.51979 42.7488,17.47511 6.2316,0.27366 12.7888,-0.31154 18.2031,-3.68195 14.2818,-8.01643 24.173,-24.34511 22.834,-40.90808 -1.8569,-10.48428 -12.9332,-19.03038 -23.5991,-16.39316 -5.6511,1.30784 -9.507,6.21921 -11.5244,11.3814 -5.4816,8.7963 -15.7551,13.86937 -26.0014,13.88113 -8.456,0.14805 -16.8709,-2.36044 -24.0764,-6.73748 -11.3704,-3.36484 -18.2685,-13.64874 -26.3598,-21.52774 -3.7502,-3.54453 -7.9795,-7.06083 -13.0234,-8.42848 -7.6564,-0.23923 -13.3775,5.76673 -17.631,11.40618 -4.5368,5.70318 -9.1549,12.83128 -16.9484,14.04463 -5.2949,1.57023 -8.0628,-4.3141 -11.2198,-7.42808 -8.8564,-11.35341 -14.0534,-25.32791 -16.0433,-39.50562 -0.089,-1.36474 -0.067,-2.72787 -0.042,-4.09419 z"
       id="path4496"
       inkscape:connector-curvature="0"
       inkscape:transform-center-x="-99.717282"
       inkscape:transform-center-y="101.38562" />
    <flowRoot
       xml:space="preserve"
       id="flowRoot2987-4-9-3-8"
       style="font-style:normal;font-variant:normal;font-weight:normal;font-stretch:normal;font-size:12px;line-height:125%;font-family:Lavi;-inkscape-font-specification:Lavi;text-align:center;letter-spacing:0px;word-spacing:0px;text-anchor:middle;fill:#000000;fill-opacity:1;stroke:none"
       transform="translate(1401.5429,499.38886)"><flowRegion
         id="flowRegion2989-5-4-5-8"><rect
           id="rect2991-7-9-6-5"
           width="602.40173"
           height="310.73996"
           x="120.55251"
           y="265.53046"
           style="font-style:normal;font-variant:normal;font-weight:normal;font-stretch:normal;font-family:Lavi;-inkscape-font-specification:Lavi;text-align:center;text-anchor:middle" /></flowRegion><flowPara
         style="font-size:48px;text-align:center;text-anchor:middle"
         id="flowPara3134">De qualquier manera,</flowPara><flowPara
         style="font-size:48px;text-align:center;text-anchor:middle"
         id="flowPara3436">tengo una idea de</flowPara><flowPara
         style="font-size:48px;text-align:center;text-anchor:middle"
         id="flowPara3136">lo que podemos hacer</flowPara><flowPara
         style="font-size:48px;text-align:center;text-anchor:middle"
         id="flowPara3140">con tu &quot;poción&quot;, Carrot...</flowPara></flowRoot>    <path
       style="color:#000000;fill:#ffffff;fill-opacity:1;fill-rule:nonzero;stroke:none;stroke-width:1px;marker:none;visibility:visible;display:inline;overflow:visible;enable-background:accumulate"
       d="m 1746.305,1120.1771 c 41.6202,-63.906 273.4649,-71.66 348.7846,-43.9729 75.3193,27.687 92.4103,68.4875 95.9134,85.4076 3.5031,16.9198 5.6803,82.8087 -35.5891,115.7713 -31.7078,25.3256 -151.621,38.1417 -190.1567,38.1417 -38.5355,0 -161.5497,-9.7903 -192.6782,-32.3016 -29.7776,-21.5345 -67.8945,-99.14 -26.274,-163.0461 z"
       id="path3330-7"
       inkscape:connector-curvature="0"
       sodipodi:nodetypes="zsssssz" />
    <flowRoot
       xml:space="preserve"
       id="flowRoot2987-4-9-3-8-9"
       style="font-style:normal;font-variant:normal;font-weight:normal;font-stretch:normal;font-size:12px;line-height:125%;font-family:Lavi;-inkscape-font-specification:Lavi;text-align:center;letter-spacing:0px;word-spacing:0px;text-anchor:middle;fill:#000000;fill-opacity:1;stroke:none"
       transform="translate(1535.828,822.09354)"><flowRegion
         id="flowRegion2989-5-4-5-8-6"><rect
           id="rect2991-7-9-6-5-0"
           width="602.40173"
           height="310.73996"
           x="120.55251"
           y="265.53046"
           style="font-style:normal;font-variant:normal;font-weight:normal;font-stretch:normal;font-family:Lavi;-inkscape-font-specification:Lavi;text-align:center;text-anchor:middle" /></flowRegion><flowPara
         style="font-size:48px;text-align:center;text-anchor:middle"
         id="flowPara3081">...¡Pongamos todo</flowPara><flowPara
         style="font-size:48px;text-align:center;text-anchor:middle"
         id="flowPara3440">ésto en orden</flowPara><flowPara
         style="font-size:48px;text-align:center;text-anchor:middle"
         id="flowPara3211">y volvamos a casa! </flowPara></flowRoot>    <flowRoot
       xml:space="preserve"
       id="flowRoot2987-4-9-3-8-9-5"
       style="font-size:12px;font-style:normal;font-variant:normal;font-weight:normal;font-stretch:normal;text-align:center;line-height:125%;letter-spacing:0px;word-spacing:0px;text-anchor:middle;fill:#000000;fill-opacity:1;stroke:none;font-family:Lavi;-inkscape-font-specification:Lavi"
       transform="translate(771.97654,1427.3185)"><flowRegion
         id="flowRegion2989-5-4-5-8-6-3"><rect
           id="rect2991-7-9-6-5-0-1"
           width="602.40173"
           height="310.73996"
           x="120.55251"
           y="265.53046"
           style="font-style:normal;font-variant:normal;font-weight:normal;font-stretch:normal;text-align:center;text-anchor:middle;font-family:Lavi;-inkscape-font-specification:Lavi" /></flowRegion><flowPara
         style="font-size:48px;text-align:center;text-anchor:middle"
         id="flowPara3211-2"><flowSpan
           style="font-weight:bold;-inkscape-font-specification:Lavi Bold"
           id="flowSpan3087"><flowSpan
             style="font-weight:normal;-inkscape-font-specification:Lavi"
             id="flowSpan3089"><flowSpan
               style="font-weight:bold;-inkscape-font-specification:Lavi Bold"
               id="flowSpan3091"><flowSpan
                 style="font-size:16px"
                 id="flowSpan3093"><flowSpan
                   style="font-size:56px"
                   id="flowSpan3095"><flowSpan
                     style="font-weight:normal;-inkscape-font-specification:Lavi"
                     id="flowSpan3097"><flowSpan
                       style="font-weight:bold;-inkscape-font-specification:Lavi Bold"
                       id="flowSpan3099"><flowSpan
                         style="font-weight:normal;-inkscape-font-specification:Lavi"
                         id="flowSpan3101"><flowSpan
                           style="font-weight:bold;-inkscape-font-specification:Lavi Bold"
                           id="flowSpan3103"><flowSpan
                             style="font-weight:normal;-inkscape-font-specification:Lavi"
                             id="flowSpan3105"><flowSpan
                               style="font-weight:bold;-inkscape-font-specification:Lavi Bold"
                               id="flowSpan3107" /></flowSpan></flowSpan></flowSpan></flowSpan></flowSpan></flowSpan></flowSpan></flowSpan></flowSpan></flowSpan></flowPara></flowRoot>    <path
       style="color:#000000;fill:#ffffff;fill-opacity:1;fill-rule:nonzero;stroke:none;stroke-width:1px;marker:none;visibility:visible;display:inline;overflow:visible;enable-background:accumulate"
       d="m 799.55794,2061.6662 c 41.54476,-24.9583 79.49671,-56.3087 125.21587,-73.8403 l -43.51369,-5.8567 c 12.70794,-14.5474 33.04403,-20.2182 50.79008,-28.9032 l -26.26055,-7.9369 c 30.43962,-33.9774 70.07719,-50.7411 105.26895,-75.8248 l -46.93148,-10.2988 c -32.40962,29.4099 -59.34882,63.5475 -97.91175,87.6396 l 24.81802,10.2865 c -12.06842,10.1205 -24.58698,19.7921 -39.1159,27.4588 l 32.36116,10.2326 z"
       id="path4032"
       inkscape:connector-curvature="0"
       sodipodi:nodetypes="cccccccccccc" />
    <flowRoot
       transform="matrix(0.93080411,0,-0.09044116,1.21695,768.81407,1365.5352)"
       style="font-size:12px;font-style:normal;font-variant:normal;font-weight:normal;font-stretch:normal;text-align:center;line-height:125%;letter-spacing:0px;word-spacing:0px;text-anchor:middle;fill:#000000;fill-opacity:1;stroke:#000000;stroke-width:2.71217394;stroke-miterlimit:4;stroke-opacity:1;stroke-dasharray:none;font-family:Lavi;-inkscape-font-specification:Lavi"
       id="flowRoot4212-3-7-8-6"
       xml:space="preserve"><flowRegion
         id="flowRegion4214-6-7-8-3"><rect
           style="font-style:normal;font-variant:normal;font-weight:normal;font-stretch:normal;text-align:center;text-anchor:middle;stroke:#000000;stroke-width:2.71217394;stroke-miterlimit:4;stroke-opacity:1;stroke-dasharray:none;font-family:Lavi;-inkscape-font-specification:Lavi"
           y="265.53046"
           x="120.55251"
           height="355.03918"
           width="798.1947"
           id="rect4216-4-0-26-5" /></flowRegion><flowPara
         style="font-size:48px;text-align:center;letter-spacing:5.20896292px;text-anchor:middle;stroke:#000000;stroke-width:2.71217394;stroke-miterlimit:4;stroke-opacity:1;stroke-dasharray:none"
         id="flowPara3048">¡Tú,</flowPara><flowPara
         style="font-size:48px;text-align:center;letter-spacing:5.20896292px;text-anchor:middle;stroke:#000000;stroke-width:2.71217394;stroke-miterlimit:4;stroke-opacity:1;stroke-dasharray:none"
         id="flowPara3109">pajarraco-gigante-zombi-burgués!</flowPara></flowRoot>    <path
       style="fill:#ffffff;fill-opacity:1;stroke:none"
       d="m 826.84882,2908.5091 c -26.85412,-8.2569 -37.1945,-15.9326 -32.39098,-20.6627 -11.01443,-2.3572 -15.30619,-63.8089 -5.01606,-75.0421 0.68491,-1.1825 5.4914,-4.7306 3.4258,-5.3203 -2.06549,-0.5897 -14.4448,1.1901 -16.5151,-1.1722 -2.0703,-2.3625 18.48005,-36.0561 15.72495,-37.2364 -2.75532,-1.18 -45.45265,-6.0994 -54.4107,-11.4125 -8.95822,-5.3128 -24.71744,8.5045 -27.47103,7.915 3.24962,-17.1304 -28.20013,2.9712 -31.64178,2.3823 -3.44141,-0.589 -9.68059,-18.3124 -13.12215,-18.9012 -3.44166,-0.589 -19.24368,7.6928 -21.99726,7.1037 -2.7536,-0.5893 -1.41681,-15.3628 -4.85846,-15.9515 -3.44156,-0.589 -18.54295,12.4197 -20.60855,11.8302 -2.06554,-0.5899 -9.71237,-30.1308 -13.15705,-31.9014 -3.44476,-1.7707 -25.36943,32.5147 -27.43194,33.1069 -2.06232,0.5921 -15.24293,-40.1728 -17.99662,-40.7622 -2.75357,-0.5892 -16.43794,27.7825 -18.50359,27.1929 -2.06557,-0.5897 -15.18164,-17.1277 -17.93672,-18.3077 -2.75516,-1.1802 -20.54249,36.6481 -23.29443,36.6498 -2.75211,0 -26.18655,-15.9392 -28.25849,-18.8924 -2.07189,-2.9533 -4.08698,15.366 -6.839,15.3676 -2.75204,0 -34.42833,-10.6162 -35.11488,-10.0249 -0.68635,0.5914 4.84759,11.8154 2.7836,11.8167 -2.06399,0 -34.43938,-14.7528 -35.80765,-11.7973 -1.36799,2.9553 -70.21536,-14.7314 -75.02507,-12.3651 -4.80972,2.3666 31.08914,48.4362 27.65871,51.9836 -3.43059,3.5475 -15.82582,-0.5816 -16.50904,1.1915 -0.68322,1.7732 7.59324,9.4501 5.53569,11.8149 -2.05786,2.3648 -25.42471,11.8331 -27.48074,14.7886 -2.0562,2.956 10.3483,10.6304 7.6011,12.4049 -2.74739,1.7744 -43.30964,13.0254 -43.98971,15.9803 -0.68007,2.9548 20.68566,17.1239 17.94474,21.2619 -2.74099,4.138 -10.30429,5.9151 -9.6084,8.8693 0.6959,2.9542 13.77742,6.4919 13.09725,9.4469 -0.68023,2.955 -7.5208,17.7316 -9.57849,20.0964 -2.05771,2.3648 14.45117,1.1733 14.45747,3.5369 0.006,2.3637 10.92357,17.1054 -26.30731,52.7368 57.19758,-27.5339 61.53391,-0.7575 84.25042,3.9563 22.71677,4.7141 13.85133,34.2645 17.296,36.0352 3.44478,1.7708 28.8694,-10.0623 32.32046,-5.9281 3.45098,4.1345 4.8474,11.8153 7.59951,11.8138 2.75187,0 25.58117,-12.0621 29.02263,-11.4733 28.47642,-8.3808 39.33902,18.2988 33.61532,22.6638 4.81751,0.588 23.36519,-10.0593 27.49168,-10.6525 4.12643,-0.5933 7.60572,14.1772 11.04262,12.9935 3.4369,-1.1836 25.42454,-11.8331 28.86756,-10.6533 3.44321,1.1799 6.20782,5.9055 8.95678,4.7219 2.74868,-1.1833 15.12023,-5.9178 15.12023,-5.9178 0,0 8.95343,3.5402 13.08143,3.5378 4.12798,0 19.64965,-14.9831 23.08653,-16.167 3.43687,-1.1837 35.24943,5.2023 50.04067,41.6326 -8.37179,-42.9439 24.51219,-46.7955 29.32351,-48.5711 4.81122,-1.7755 19.27353,3.5341 20.64462,1.7606 1.37135,-1.7736 5.47414,-11.2303 9.60067,-11.8237 4.12644,-0.5933 13.75209,-2.9625 13.75209,-2.9625 l -1.38535,-3.5447 c 0,0 28.92113,9.4374 32.37063,12.9809 3.4494,3.5434 -2.10498,-15.3622 -4.18159,-20.0883 12.3965,4.7201 48.88741,14.744 51.6472,17.697 2.75991,2.9528 -4.84417,-10.6337 -8.98328,-14.7676 5.5087,1.7697 10.3263,2.3578 10.3263,2.3578 l -15.8618,-14.1725 4.81293,-1.1847 c 0,0 -10.33731,-6.494 -10.34521,-9.4486 -0.007,-2.9544 26.81461,-6.5157 26.81461,-6.5157 0,0 -11.02222,-5.3116 -8.27812,-8.2677 2.74433,-2.9562 9.61953,-4.7329 9.61953,-4.7329 l 1.3555,-7.6826 z"
       id="path5888"
       inkscape:connector-curvature="0"
       sodipodi:nodetypes="ccccccccccsccccsccccccsccsccscsccccscccscccccscccccsccccscccccccccccc" />
    <flowRoot
       xml:space="preserve"
       id="flowRoot2987-4-9-3-0"
       style="font-style:normal;font-variant:normal;font-weight:normal;font-stretch:normal;font-size:12px;line-height:125%;font-family:Lavi;-inkscape-font-specification:Lavi;text-align:center;letter-spacing:0px;word-spacing:0px;text-anchor:middle;fill:#000000;fill-opacity:1;stroke:none"
       transform="translate(120.66404,2524.3888)"><flowRegion
         id="flowRegion2989-5-4-5-1"><rect
           id="rect2991-7-9-6-4"
           width="602.40173"
           height="310.73996"
           x="120.55251"
           y="265.53046"
           style="font-style:normal;font-variant:normal;font-weight:normal;font-stretch:normal;font-family:Lavi;-inkscape-font-specification:Lavi;text-align:center;text-anchor:middle" /></flowRegion><flowPara
         style="font-size:48px;text-align:center;letter-spacing:1.5px;text-anchor:middle;stroke:#000000;stroke-width:1.10000002;stroke-miterlimit:4;stroke-dasharray:none;stroke-opacity:1"
         id="flowPara3030-8-7">¿Te gustaría</flowPara><flowPara
         style="font-size:48px;text-align:center;letter-spacing:1.5px;text-anchor:middle;stroke:#000000;stroke-width:1.10000002;stroke-miterlimit:4;stroke-dasharray:none;stroke-opacity:1"
         id="flowPara4084">probar una última</flowPara><flowPara
         style="font-size:48px;text-align:center;letter-spacing:1.5px;text-anchor:middle;stroke:#000000;stroke-width:1.10000002;stroke-miterlimit:4;stroke-dasharray:none;stroke-opacity:1"
         id="flowPara4086">poción? ...</flowPara></flowRoot>    <path
       style="fill:#ffffff;fill-opacity:1;stroke:none"
       d="m 1797.6547,3221.0213 c 65.6139,10.0559 43.5411,-29.1424 39.3615,-34.0012 15.9801,8.1536 43.2078,-0.8175 14.8856,-29.198 40.2409,11.3918 20.5428,6.02 -2.8713,-24.5295 35.4451,15.5342 57.7968,5.7083 32.6194,-15.8279 36.1652,27.6918 48.9096,18.8512 25.8439,-15.5352 45.4797,35.6171 36.9692,22.2031 25.8861,4.6146 37.8746,32.1026 9.7278,-15.6704 12.6238,-15.929 2.896,-0.2589 15.1504,8.408 17.4788,8.095 2.3282,-0.3129 2.6278,-13.6711 5.5239,-13.9298 2.896,-0.2589 14.1232,12.5937 15.8839,12.2266 6.8305,4.5107 14.0232,-23.2422 13.8868,-27.5889 -2.9115,3.7697 13.7655,34.6638 19.4946,31.8484 1.6457,0.6925 21.0383,-35.5723 18.7221,-35.1591 -4.3199,0.7704 8.7544,26.5651 12.688,25.8438 3.1279,4.7786 16.0456,-7.0605 16.5407,-15.0197 -1.2167,2.2521 9.5196,37.8823 15.7437,34.7029 2.8093,6.6828 23.5928,-6.6134 25.114,-14.7361 1.9903,-2.4872 1.9139,14.105 4.1847,14.3219 -4.007,8.1765 25.2031,-1.4809 29.9303,-6.244 0.5104,0.5843 -2.8178,8.6896 -3.419,10.3829 -3.2403,9.1256 23.4647,0.9885 30.6702,-7.7798 -27.7889,43.7563 53.327,0.8958 63.0884,-5.2187 3.7445,2.4998 -30.2553,41.0184 -27.7612,44.4695 2.4943,3.4512 13.1156,0.7174 13.5109,2.3624 0.3954,1.6442 -7.1636,7.8833 -5.6903,10.1659 1.4737,2.2825 19.8581,12.6063 21.2743,15.4187 1.4162,2.8128 -9.5494,8.7264 -7.4506,10.5334 2.0988,1.807 34.5042,15.0762 34.7848,17.7802 0.2808,2.7041 -18.6966,13.7426 -16.8274,17.6694 1.8691,3.9269 7.9418,6.1133 7.0871,8.7091 -0.8548,2.5957 -11.9862,4.7452 -11.7055,7.4494 0.2808,2.7042 4.5228,16.4961 5.9964,18.7785 1.4736,2.2828 -12.0371,-0.079 -12.2666,2.0412 -0.2348,2.1195 -36.3286,9.709 19.6005,49.5612 -60.7461,-25.4505 -53.6067,-5.6882 -72.8011,-3.238 -19.1946,2.4504 -14.6843,29.6546 -17.6951,30.9735 -3.0108,1.3187 -22.8688,-11.2875 -26.1094,-7.8488 -3.2406,3.4387 -5.1222,10.2202 -7.3934,10.0032 -2.2707,-0.2155 -19.9653,-12.824 -22.8612,-12.5653 -22.7044,-9.7479 -34.2019,13.336 -29.8929,17.7 -4.0315,0.1504 -18.3271,-10.8537 -21.6761,-11.709 -3.349,-0.8554 -7.6228,12.1231 -10.3466,10.7921 -2.7239,-1.331 -19.858,-12.6064 -22.8113,-11.8174 -2.9537,0.7888 -5.6838,4.8119 -7.8399,3.5346 -2.1561,-1.2766 -11.9161,-6.4927 -11.9161,-6.4927 0,0 -7.725,2.475 -11.1313,2.1496 -3.4066,-0.3232 -24.789,-20.0382 -27.5127,-21.3694 -2.724,-1.3311 -50.4111,26.3975 -49.0523,29.7402 1.3588,3.3428 -1.9865,-35.151 -5.7884,-37.1206 -3.8018,-1.9696 -16.241,1.6615 -17.204,-0.037 -0.9634,-1.6984 -3.4513,-10.5033 -6.8003,-11.3588 -3.3491,-0.8554 -11.0676,-3.7344 -11.0676,-3.7344 l 1.4799,-3.0717 c 0,0 -24.7633,6.2022 -27.9464,9.111 -3.1832,2.9086 3.1958,-13.6169 5.3584,-17.6943 -10.6784,3.2641 -41.7444,9.3995 -44.3021,11.8325 -2.5581,2.4329 5.0071,-9.1603 8.8155,-12.5448 -4.714,1.1563 -8.7456,1.3067 -8.7456,1.3067 l 14.4356,-11.4724 -3.8595,-1.4395 c 0,0 9.1476,-5.0166 9.4345,-7.6666 0.2907,-2.6494 -21.5099,-7.9447 -21.5099,-7.9447 66.6123,1.4697 18.3026,-18.0658 -7.6932,-24.2961 z"
       id="path5888-2"
       inkscape:connector-curvature="0"
       sodipodi:nodetypes="ccccccccsccccsccccccsccsccscsccccscccscccccscccccsccccsccccccccc" />
    <path
       style="color:#000000;fill:#ffffff;fill-opacity:1;fill-rule:nonzero;stroke:none;stroke-width:1px;marker:none;visibility:visible;display:inline;overflow:visible;enable-background:accumulate"
       d="m 1949.2127,3186.2754 c -39.3897,38.4564 -118.4251,55.0326 -170.6211,-13.769 -46.1636,-0.3962 -81.2149,-5.1531 -119.4658,-62.8545 37.6962,38.0583 63.3903,55.3293 131.4185,51.4723 32.2972,32.3957 87.7359,29.3893 125.5394,-24.8478 37.8036,-54.2372 22.7273,-42.2473 22.7273,-42.2473 l 22.0999,76.6516 z"
       id="path5074-3"
       inkscape:connector-curvature="0"
       sodipodi:nodetypes="ccccsccc" />
    <flowRoot
       xml:space="preserve"
       id="flowRoot2987-4-9-3-0-3"
       style="font-style:normal;font-variant:normal;font-weight:normal;font-stretch:normal;font-size:12px;line-height:125%;font-family:Lavi;-inkscape-font-specification:Lavi;text-align:center;letter-spacing:0px;word-spacing:0px;text-anchor:middle;fill:#000000;fill-opacity:1;stroke:none"
       transform="translate(1610.3918,2903.7971)"><flowRegion
         id="flowRegion2989-5-4-5-1-6"><rect
           id="rect2991-7-9-6-4-7"
           width="602.40173"
           height="310.73996"
           x="120.55251"
           y="265.53046"
           style="font-style:normal;font-variant:normal;font-weight:normal;font-stretch:normal;font-family:Lavi;-inkscape-font-specification:Lavi;text-align:center;text-anchor:middle" /></flowRegion><flowPara
         style="font-size:48px;text-align:center;letter-spacing:1.5px;text-anchor:middle;stroke:#000000;stroke-width:1.10000002;stroke-miterlimit:4;stroke-dasharray:none;stroke-opacity:1"
         id="flowPara4086-6">...¿No realmente,</flowPara><flowPara
         style="font-size:48px;text-align:center;letter-spacing:1.5px;text-anchor:middle;stroke:#000000;stroke-width:1.10000002;stroke-miterlimit:4;stroke-dasharray:none;stroke-opacity:1"
         id="flowPara4202">verdad?</flowPara></flowRoot>    <path
       style="color:#000000;fill:#ffffff;fill-opacity:1;fill-rule:nonzero;stroke:none;stroke-width:1px;marker:none;visibility:visible;display:inline;overflow:visible;enable-background:accumulate"
       d="m 432.9877,1582.757 c -4.62527,14.1556 -29.80658,59.4538 -38.06244,16.2093 -42.3877,66.8706 -90.94164,55.4388 -139.14497,48.4577 -9.52731,19.5362 -7.09875,46.1647 -46.96241,47.7053 7.95498,15.9183 -3.45476,30.2003 -32.14335,43.0229 40.98017,2.4517 49.77676,11.6093 -21.84737,37.5242 55.93525,-9.943 108.31222,-17.9855 48.57741,33.848 20.66662,-3.1249 64.61473,-45.2102 55.82445,54.2176 30.8443,-37.3814 66.03449,-61.6079 122.59982,-7.3014 10.83096,-28.0111 30.03942,-49.2804 76.82521,-23.2543 5.27288,-26.7184 55.3579,-38.7619 74.64488,-37.3629 -41.4714,-20.5081 -42.72921,-38.0996 7.62637,-50.843 -92.48457,-33.4472 -21.82215,-39.6374 -9.97409,-55.1095 -69.36813,-4.1008 -42.62685,-31.5667 -33.87821,-55.3999 -76.91874,14.4742 -56.82784,-24.9365 -64.0853,-51.714 z"
       id="path3549-3"
       inkscape:connector-curvature="0"
       sodipodi:nodetypes="ccccccccccccccc" />
    <flowRoot
       transform="matrix(1.8217115,0,-0.17700578,1.8738433,-523.05413,1190.8474)"
       style="font-style:normal;font-variant:normal;font-weight:normal;font-stretch:normal;font-size:12px;line-height:125%;font-family:Lavi;-inkscape-font-specification:Lavi;text-align:center;letter-spacing:0px;word-spacing:0px;text-anchor:middle;fill:#000000;fill-opacity:1;stroke:#000000;stroke-width:2.71217394;stroke-miterlimit:4;stroke-dasharray:none;stroke-opacity:1"
       id="flowRoot4212-3-7-8-6-5"
       xml:space="preserve"><flowRegion
         id="flowRegion4214-6-7-8-3-6"><rect
           style="font-style:normal;font-variant:normal;font-weight:normal;font-stretch:normal;font-family:Lavi;-inkscape-font-specification:Lavi;text-align:center;text-anchor:middle;stroke:#000000;stroke-width:2.71217394;stroke-miterlimit:4;stroke-dasharray:none;stroke-opacity:1"
           y="265.53046"
           x="120.55251"
           height="355.03918"
           width="798.1947"
           id="rect4216-4-0-26-5-2" /></flowRegion><flowPara
         style="font-size:48px;text-align:center;letter-spacing:1.45219982px;text-anchor:middle;stroke:#000000;stroke-width:2.71217394;stroke-miterlimit:4;stroke-dasharray:none;stroke-opacity:1"
         id="flowPara4358-7-1-6">¡Oye!</flowPara></flowRoot>    <flowRoot
       xml:space="preserve"
       id="flowRoot4133-6-9-4-8-5-3"
       style="font-size:12px;font-style:normal;font-variant:normal;font-weight:normal;font-stretch:normal;line-height:125%;letter-spacing:0.00204969px;word-spacing:0px;color:#000000;fill:#ffffff;fill-opacity:1;fill-rule:nonzero;stroke:#ffffff;stroke-width:0.0836072;stroke-linecap:butt;stroke-linejoin:miter;stroke-miterlimit:4;stroke-opacity:1;stroke-dasharray:none;stroke-dashoffset:0;marker:none;visibility:visible;display:inline;overflow:visible;filter:url(#filter4375-4-1-1-15-1-3-3);enable-background:accumulate;font-family:Arial;-inkscape-font-specification:Arial"
       transform="matrix(8.3099216,-5.4900388,-0.26452567,16.18078,-7093.1327,-9087.3999)"><flowRegion
         id="flowRegion4135-2-9-3-5-2-6"
         style="stroke-width:0.86646658"><rect
           id="rect4137-1-7-1-2-1-4"
           width="200.00224"
           height="39.051064"
           x="1125.3193"
           y="1078.5308"
           style="letter-spacing:0.00204969px;color:#000000;fill:#ffffff;fill-opacity:1;fill-rule:nonzero;stroke:#ffffff;stroke-width:0.0836072;stroke-linecap:butt;stroke-linejoin:miter;stroke-miterlimit:4;stroke-opacity:1;stroke-dasharray:none;stroke-dashoffset:0;marker:none;visibility:visible;display:inline;overflow:visible;filter:url(#filter4375-4-1-1-15-1-3-3);enable-background:accumulate" /></flowRegion><flowPara
         id="flowPara4139-2-8-6-8-6-3"
         style="font-size:17.85409164px;font-style:normal;font-variant:normal;font-weight:normal;font-stretch:normal;line-height:125%;letter-spacing:0.00204969px;word-spacing:0.00204969px;color:#000000;fill:#ffffff;fill-opacity:1;fill-rule:nonzero;stroke:#ffffff;stroke-width:0.0836072;stroke-linecap:butt;stroke-linejoin:miter;stroke-miterlimit:4;stroke-opacity:1;stroke-dasharray:none;stroke-dashoffset:0;marker:none;visibility:visible;display:inline;overflow:visible;enable-background:accumulate;font-family:Lavi;-inkscape-font-specification:Lavi">C<flowSpan
   style="font-size:13.08514309px"
   id="flowSpan3116">R</flowSpan><flowSpan
   id="flowSpan3122"
   style="font-size:8.7063818px">AC</flowSpan><flowSpan
   id="flowSpan3126"
   style="font-size:7.83930063px">K !</flowSpan></flowPara></flowRoot>  </g>
</svg>
