<?xml version="1.0" encoding="UTF-8" standalone="no"?>
<!-- Created with Inkscape (http://www.inkscape.org/) -->

<svg
   xmlns:dc="http://purl.org/dc/elements/1.1/"
   xmlns:cc="http://creativecommons.org/ns#"
   xmlns:rdf="http://www.w3.org/1999/02/22-rdf-syntax-ns#"
   xmlns:svg="http://www.w3.org/2000/svg"
   xmlns="http://www.w3.org/2000/svg"
   xmlns:xlink="http://www.w3.org/1999/xlink"
   xmlns:sodipodi="http://sodipodi.sourceforge.net/DTD/sodipodi-0.dtd"
   xmlns:inkscape="http://www.inkscape.org/namespaces/inkscape"
   id="svg2"
   version="1.1"
   inkscape:version="0.91 r13725"
   width="1100"
   height="765"
   sodipodi:docname="Pepper-and-Carrot_by-David-Revoy_E06.svg">
  <metadata
     id="metadata8">
    <rdf:RDF>
      <cc:Work
         rdf:about="">
        <dc:format>image/svg+xml</dc:format>
        <dc:type
           rdf:resource="http://purl.org/dc/dcmitype/StillImage" />
        <dc:title />
      </cc:Work>
    </rdf:RDF>
  </metadata>
  <defs
     id="defs6">
    <filter
       id="filter3797"
       style="color-interpolation-filters:sRGB;"
       inkscape:label="Drop Shadow">
      <feFlood
         id="feFlood3799"
         flood-opacity="0.8"
         flood-color="rgb(0,0,0)"
         result="flood" />
      <feComposite
         id="feComposite3801"
         in2="SourceGraphic"
         in="flood"
         operator="in"
         result="composite1" />
      <feGaussianBlur
         id="feGaussianBlur3803"
         in="composite"
         stdDeviation="10"
         result="blur" />
      <feOffset
         id="feOffset3805"
         dx="8"
         dy="10"
         result="offset" />
      <feComposite
         id="feComposite3807"
         in2="offset"
         in="SourceGraphic"
         operator="over"
         result="composite2" />
    </filter>
    <filter
       id="filter3836"
       style="color-interpolation-filters:sRGB;"
       inkscape:label="Drop Shadow">
      <feFlood
         id="feFlood3838"
         flood-opacity="0.94664031620553357"
         flood-color="rgb(0,0,0)"
         result="flood" />
      <feComposite
         id="feComposite3840"
         in2="SourceGraphic"
         in="flood"
         operator="in"
         result="composite1" />
      <feGaussianBlur
         id="feGaussianBlur3842"
         in="composite"
         stdDeviation="5"
         result="blur" />
      <feOffset
         id="feOffset3844"
         dx="2.0242914979757103"
         dy="4.4534412955465683"
         result="offset" />
      <feComposite
         id="feComposite3846"
         in2="offset"
         in="SourceGraphic"
         operator="over"
         result="composite2" />
    </filter>
    <filter
       id="filter3836-3"
       style="color-interpolation-filters:sRGB"
       inkscape:label="Drop Shadow">
      <feFlood
         id="feFlood3838-8"
         flood-opacity="0.94664031620553357"
         flood-color="rgb(0,0,0)"
         result="flood" />
      <feComposite
         id="feComposite3840-1"
         in2="SourceGraphic"
         in="flood"
         operator="in"
         result="composite1" />
      <feGaussianBlur
         id="feGaussianBlur3842-2"
         stdDeviation="5"
         result="blur" />
      <feOffset
         id="feOffset3844-0"
         dx="2.0242914979757103"
         dy="4.4534412955465683"
         result="offset" />
      <feComposite
         id="feComposite3846-8"
         in2="offset"
         in="SourceGraphic"
         operator="over"
         result="composite2" />
    </filter>
    <filter
       id="filter3836-3-6"
       style="color-interpolation-filters:sRGB"
       inkscape:label="Drop Shadow">
      <feFlood
         id="feFlood3838-8-4"
         flood-opacity="0.94664031620553357"
         flood-color="rgb(0,0,0)"
         result="flood" />
      <feComposite
         id="feComposite3840-1-9"
         in2="SourceGraphic"
         in="flood"
         operator="in"
         result="composite1" />
      <feGaussianBlur
         id="feGaussianBlur3842-2-2"
         stdDeviation="5"
         result="blur" />
      <feOffset
         id="feOffset3844-0-2"
         dx="2.0242914979757103"
         dy="4.4534412955465683"
         result="offset" />
      <feComposite
         id="feComposite3846-8-4"
         in2="offset"
         in="SourceGraphic"
         operator="over"
         result="composite2" />
    </filter>
  </defs>
  <sodipodi:namedview
     pagecolor="#ffffff"
     bordercolor="#666666"
     borderopacity="1"
     objecttolerance="10"
     gridtolerance="10"
     guidetolerance="10"
     inkscape:pageopacity="0"
     inkscape:pageshadow="2"
     inkscape:window-width="1280"
     inkscape:window-height="747"
     id="namedview4"
     showgrid="false"
     inkscape:zoom="0.90380222"
     inkscape:cx="504.71555"
     inkscape:cy="585.44108"
     inkscape:window-x="-8"
     inkscape:window-y="22"
     inkscape:window-maximized="1"
     inkscape:current-layer="svg2" />
  <g
     inkscape:groupmode="layer"
     id="layer1"
     inkscape:label="artwork"
     sodipodi:insensitive="true" />
  <image
     sodipodi:absref="../gfx_Pepper-and-Carrot_by-David-Revoy_E06.png"
     xlink:href="../gfx_Pepper-and-Carrot_by-David-Revoy_E06.png"
     width="1100"
     height="765"
     id="image10"
     x="0"
     y="0" />
  <g
     inkscape:groupmode="layer"
     id="layer2"
     inkscape:label="txt">
    <path
       style="fill:#ffffff;fill-opacity:1;stroke:none;display:inline;filter:url(#filter3797);stroke-opacity:0.50000000000000000;stroke-width:0.99958435999999995;stroke-miterlimit:4;stroke-dasharray:none"
       d="m 208.84855,527.59952 c -0.98146,-0.86174 -2.10895,-2.19425 -2.50552,-2.96114 l -0.72104,-1.39434 0,-2.03791 0,-2.0379 1.22148,-1.22148 1.22149,-1.22149 0.89349,-0.0158 c 0.49143,-0.009 1.32526,-0.34247 1.85297,-0.7417 l 0.95949,-0.72588 0.37271,-2.61739 0.3727,-2.61738 0.0363,-11.35408 0.0363,-11.35408 -0.51514,-0.96257 -0.51516,-0.96257 -0.88745,0 c -0.48809,0 -2.07462,-0.35255 -3.52559,-0.78344 l -2.63813,-0.78344 -1.18451,-1.18451 -1.18451,-1.18451 0,-0.76909 0,-0.76908 2.86145,-0.0205 2.86144,-0.0205 2.2394,-1.09918 2.23939,-1.09918 0.14219,-17.41749 0.14219,-17.41749 -0.59069,-2.15283 -0.59069,-2.15283 -1.04442,-0.67743 -1.04443,-0.67742 -4.35437,-0.34845 -4.35438,-0.34845 0,-0.59603 0,-0.59604 2.20098,-2.23251 2.20097,-2.23251 6.29844,-2.84691 6.29843,-2.84691 0.95849,0.30421 c 0.52716,0.16732 1.62909,0.86849 2.44873,1.55817 l 1.49024,1.25396 0,0.66668 c 0,0.36667 0.3519,1.01858 0.78201,1.44869 l 0.78201,0.782 5.13403,0 5.13403,0 4.31423,1.25022 c 2.37282,0.68762 5.39426,1.79751 6.7143,2.46642 1.32003,0.66892 4.17885,2.55656 6.35292,4.19477 l 3.95285,2.97857 1.36608,1.97124 1.36608,1.97126 0.71232,2.36688 0.71233,2.36689 0,3.36007 0,3.36007 -0.93136,2.99247 -0.93136,2.99248 -1.84092,3.29186 -1.84091,3.29185 -2.993,3.19953 -2.993,3.19953 -3.3167,2.44425 c -1.82419,1.34434 -4.4364,2.99844 -5.80491,3.67577 -1.36852,0.67734 -5.06352,2.08418 -8.21111,3.12633 -3.14759,1.04214 -6.22675,2.07757 -6.84259,2.30095 l -1.11969,0.40615 0,10.73261 0,10.7326 1.20125,1.20125 1.20125,1.20125 1.41137,0.29912 c 0.77626,0.16451 1.78765,0.50167 2.24753,0.74923 l 0.83616,0.45011 2.16996,-0.0435 c 1.19348,-0.0239 3.31321,0.11368 4.71051,0.30586 l 2.54056,0.34941 1.58106,-0.8176 1.58106,-0.81759 1.46539,0.32185 c 0.80596,0.17702 2.46917,0.32186 3.696,0.32186 1.22683,0 2.2306,0.10473 2.2306,0.23274 0,0.12801 -0.80866,0.57063 -1.79704,0.9836 -1.81322,0.75761 -5.7127,3.20503 -8.33282,5.22991 l -1.42112,1.09826 -3.23796,0.89787 -3.23797,0.89786 -2.30791,1.46736 -2.30792,1.46737 -3.73231,1.05438 c -2.05278,0.57991 -4.87171,1.38241 -6.26428,1.78332 l -2.53194,0.72892 -2.05393,0 -2.05393,0 -1.78449,-1.5668 z m 21.97821,-53.39671 4.40496,-2.21341 4.01148,-3.22043 4.01148,-3.22044 2.40305,-2.90167 2.40305,-2.90167 1.42295,-2.98586 1.42294,-2.98585 4e-4,-2.1397 3.9e-4,-2.13969 -0.72859,-1.40894 c -0.40073,-0.77492 -1.42334,-1.99353 -2.27249,-2.70804 l -1.54389,-1.29911 -2.82835,-0.8494 -2.82835,-0.84941 -4.22996,-0.0131 -4.22996,-0.0131 -2.74964,0.62152 -2.74963,0.62153 -1.60474,0.9759 -1.60474,0.9759 0,14.91186 0,14.91187 0.87087,0.50723 c 0.47898,0.27899 1.12804,0.51405 1.44235,0.52237 0.3143,0.008 2.55369,-0.98089 4.97642,-2.19827 z m 36.50291,54.17744 c -0.68426,-0.4424 -1.85549,-1.59656 -2.60273,-2.56479 l -1.35862,-1.76043 -0.30616,-1.63199 -0.30616,-1.63198 0.66951,-1.41085 0.66949,-1.41084 2.19891,-1.05522 2.19892,-1.05523 0.66253,-0.90605 0.66252,-0.90605 0,-13.77726 0,-13.77725 -2.61262,-0.29188 c -1.43695,-0.16053 -3.48999,-0.469 -4.56233,-0.68548 l -1.9497,-0.39359 -0.15719,-0.49584 c -0.0865,-0.27272 0.0173,-0.77077 0.23045,-1.10678 l 0.38763,-0.61092 3.84688,-0.73603 c 2.11579,-0.40482 4.06513,-0.87092 4.33188,-1.03578 l 0.48501,-0.29975 0,-20.14987 0,-20.14987 -0.72616,-1.40421 -0.72615,-1.40422 -4.12587,-0.58602 c -2.26922,-0.3223 -4.85366,-0.69715 -5.7432,-0.83301 l -1.61734,-0.247 0,-0.38834 c 0,-0.21359 0.50386,-0.84721 1.1197,-1.40804 1.21856,-1.10972 7.49853,-5.12551 8.01537,-5.12551 0.17533,0 2.31356,-0.89819 4.7516,-1.99599 l 4.43283,-1.99599 1.41425,0.5377 c 0.77782,0.29573 1.80656,0.89273 2.28605,1.32665 l 0.87175,0.78896 0,1.35776 0,1.35776 1.11971,0.30006 c 0.61586,0.16504 3.3636,0.30313 6.10616,0.30687 l 4.9864,0.007 3.57048,0.98943 c 1.96375,0.54418 4.84417,1.55271 6.40086,2.24117 l 2.83042,1.25174 3.29314,2.45041 c 1.81125,1.34773 4.12187,3.3064 5.13477,4.3526 l 1.84157,1.90218 1.10427,2.48821 1.10422,2.48821 0.22266,3.75842 0.22271,3.75842 -1.45659,4.22585 -1.4566,4.22584 -1.91588,2.88637 c -1.05368,1.58751 -3.03839,4.11461 -4.41038,5.61579 l -2.49451,2.7294 -1.58701,-0.29773 -1.58697,-0.29772 -0.51889,0.63167 c -0.28537,0.34742 -0.59633,1.18941 -0.69099,1.87109 l -0.17208,1.23942 -2.44871,1.59991 -2.44875,1.59992 -6.17593,2.2615 -6.17598,2.26151 -1.07936,0.008 c -0.59364,0.004 -1.41524,0.21985 -1.8258,0.47925 l -0.74647,0.47163 0,10.67711 0,10.67711 1.18632,1.26325 1.18627,1.26325 2.58424,0.53648 2.58424,0.53649 4.93824,-0.0142 c 2.71599,-0.008 6.23894,-0.0398 7.82876,-0.0712 l 2.89058,-0.057 0.33995,0.33995 0.33996,0.33995 -0.99112,0.58137 c -0.54511,0.31975 -2.41597,1.20001 -4.15741,1.95612 l -3.16623,1.37476 -1.47514,1.24123 c -0.81131,0.68266 -1.76234,1.24121 -2.11334,1.24121 l -0.6382,0 -2.18507,1.91964 c -1.20175,1.05579 -3.14405,2.40768 -4.31616,3.0042 l -2.13114,1.08457 -4.83585,1.31456 -4.83587,1.31456 -2.4882,0.16916 -2.48825,0.16916 -1.2441,-0.80436 z m 20.29357,-53.68664 3.59449,-1.7226 3.60732,-2.67793 3.60726,-2.67791 3.48351,-3.69279 3.48351,-3.69277 1.39453,-2.87668 1.39457,-2.87667 0.25205,-2.34196 0.25204,-2.34196 -0.9001,-1.72907 -0.90015,-1.72906 -1.99057,-1.38451 -1.99057,-1.38451 -3.73235,-0.78962 -3.7323,-0.78963 -3.23467,0.28862 c -1.7791,0.15874 -4.57831,0.6314 -6.22055,1.05036 l -2.98583,0.76175 -1.1413,1.28835 -1.1413,1.28836 0.14599,14.05439 0.14604,14.05439 0.68297,0.82203 0.68297,0.82202 0.82402,0 c 0.45317,0 2.44147,-0.77517 4.41843,-1.7226 z m 171.54765,38.58384 c -1.3685,-0.48779 -3.6281,-1.46477 -5.0212,-2.17108 l -2.533,-1.28419 -1.5695,-1.78754 c -0.8633,-0.98315 -2.0674,-2.73306 -2.6759,-3.88869 l -1.1064,-2.10115 -0.016,-3.73231 -0.016,-3.73232 1.5711,-3.31614 1.5711,-3.31614 3.86159,-4.04187 3.8616,-4.04185 -1.398,-2.92488 -1.3979,-2.92487 0.2985,-1.49273 0.2985,-1.49274 -0.7122,-0.5911 -0.7122,-0.5911 0.7724,-1.49365 0.7724,-1.49366 -1.1044,-1.17557 -1.1045,-1.17559 0.3156,-2.30223 0.3156,-2.30223 0.9912,-2.24078 0.9912,-2.24078 2.1163,-2.52775 2.1164,-2.52775 2.1846,-1.38545 2.1846,-1.38545 2.6952,-0.60315 2.6951,-0.60314 2.5909,0.81851 2.5909,0.81851 2.841,1.77926 2.8409,1.77926 1.8128,2.98427 1.8129,2.98426 0.2546,1.89841 0.2547,1.8984 -1.0986,3.4809 -1.0986,3.4809 -1.912,2.43464 c -1.0516,1.33906 -2.7341,3.66631 -3.7388,5.17168 -1.0048,1.50537 -2.4974,3.33216 -3.3169,4.05953 l -1.4899,1.32249 0.4237,0.72279 c 0.233,0.39754 2.4628,2.88754 4.9549,5.53334 l 4.5313,4.81054 0.5943,-0.71611 0.5944,-0.71612 0.1,-1.41211 0.1,-1.41211 -1.8637,-0.1543 -1.8636,-0.15429 -1.2466,-1.63443 -1.2467,-1.63442 0,-1.03717 0,-1.03718 0.7129,-0.7129 0.7129,-0.71289 4.1391,-1.28679 c 2.2766,-0.70774 5.2589,-1.54121 6.6274,-1.85216 l 2.4882,-0.56537 5.9717,-0.19635 c 3.2845,-0.108 7.1474,-0.32947 8.5844,-0.49217 l 2.6126,-0.29579 -3e-4,0.65786 -2e-4,0.65786 -3.5392,3.23468 c -1.9464,1.77907 -4.2417,3.93389 -5.1005,4.78849 l -1.5615,1.55381 -2.4274,0.35238 c -1.3351,0.19381 -2.7348,0.47029 -3.1103,0.61441 l -0.6828,0.26203 0,2.4163 0,2.4163 -1.0618,2.83781 -1.0618,2.8378 1.4299,1.03759 c 0.7864,0.57068 2.3279,1.72876 3.4256,2.57351 l 1.9957,1.53591 -0.092,0.70348 c -0.051,0.38691 -0.4021,1.54152 -0.7806,2.56579 l -0.688,1.86232 -1.1724,1.24795 -1.1724,1.24795 -1.5306,-0.002 -1.5306,-0.002 -1.6294,-0.99343 c -0.8962,-0.54612 -1.9297,-0.99316 -2.2967,-0.99316 -0.367,0 -1.2367,-0.44788 -1.9326,-0.99529 -0.696,-0.54741 -1.5659,-0.98955 -1.9333,-0.98254 -0.3674,0.007 -1.8997,0.79905 -3.405,1.76009 l -2.7371,1.74737 -4.7078,1.47458 -4.7078,1.47457 -2.508,-0.0364 -2.508,-0.0364 -2.4882,-0.88688 z m 12.0752,-12.04292 2.1878,-1.05909 0.2437,-0.63498 0.2436,-0.63498 -5.1357,-5.02109 -5.1358,-5.02109 -0.6008,-0.003 -0.6009,-0.003 -1.3897,1.83182 c -0.7644,1.0075 -2.1175,2.50431 -3.0071,3.32624 l -1.6173,1.49442 0,0.673 0,0.67299 2.1149,2.15791 c 1.1633,1.18685 2.5629,2.40357 3.1103,2.70381 l 0.9953,0.54589 3.202,0.0151 3.2019,0.0151 2.1878,-1.05909 z m -2.6621,-30.58475 3.842,-3.27823 0.9596,-1.57379 0.9597,-1.57379 0,-1.57915 0,-1.57916 -1.234,-1.46656 -1.234,-1.46657 -1.4947,-0.61913 -1.4948,-0.61912 -1.72,0.32268 -1.72,0.32268 -1.3496,1.60041 c -0.7422,0.88024 -1.6514,2.32104 -2.0205,3.20178 l -0.6714,1.60135 0,1.92747 0,1.92746 0.7048,2.3416 c 0.6999,2.32575 1.5748,3.78829 2.2661,3.78829 0.1984,0 2.0897,-1.4752 4.2028,-3.27822 z m 88.2646,29.15773 c -1.5653,-0.20078 -4.433,-0.87533 -6.3727,-1.49901 l -3.5266,-1.13396 -2.955,-1.79483 c -1.6252,-0.98716 -4.1001,-2.69059 -5.4998,-3.7854 l -2.5448,-1.99057 -2.8775,-3.38627 -2.8776,-3.38627 -1.5054,-2.83427 c -0.828,-1.55884 -1.9632,-4.28986 -2.5226,-6.06893 -0.5595,-1.77907 -1.4924,-5.80518 -2.0732,-8.94689 l -1.0561,-5.71221 0.2211,-2.25007 c 0.3196,-3.25062 1.726,-10.47007 3.112,-15.97415 1.38,-5.47975 4.3314,-14.17497 5.8085,-17.11214 2.2004,-4.37557 7.7365,-13.16296 11.1344,-17.67378 1.9713,-2.61688 5.1199,-6.32866 6.9969,-8.24839 1.8771,-1.91974 4.9796,-4.67496 6.8946,-6.12269 l 3.4817,-2.63226 4.1264,-2.04475 4.1265,-2.04474 5.3305,-0.0335 5.3305,-0.0335 4.7276,1.90768 c 2.6002,1.04922 5.1755,1.94498 5.7229,1.99057 l 0.9953,0.0829 0.2488,-2.75954 0.2488,-2.75956 0.9233,-1.40837 0.9231,-1.40836 2.738,0.32179 2.7379,0.32179 2.6896,1.27238 2.6896,1.27238 1.7359,1.63722 1.736,1.63722 0,2.49166 c 0,1.37041 -0.14,3.19183 -0.3112,4.04758 l -0.3111,1.55592 -1.9629,2.22998 -1.963,2.22997 0.3129,0.50628 0.3129,0.50627 0.9108,0 0.9108,0 1.1494,0.93074 1.1494,0.93074 -0.591,6.90712 c -0.6802,7.94969 -1.1906,11.74747 -2.2538,16.76878 -0.4163,1.96609 -0.9738,4.69439 -1.2389,6.06291 -0.2652,1.36852 -0.8507,4.13444 -1.3012,6.1465 l -0.8191,3.65827 -1.2354,2.43784 -1.2353,2.43785 -0.4312,0 -0.4312,0 -0.3001,-1.1197 c -0.1651,-0.61583 -0.3031,-2.30256 -0.3069,-3.7483 l -0.01,-2.62861 -0.6724,-1.60937 -0.6724,-1.60938 -0.367,-6.44144 -0.3669,-6.44145 -2.1324,-6.24041 -2.1324,-6.24042 -2.1429,-4.1787 -2.1431,-4.1787 -1.788,-1.87956 -1.788,-1.87957 -1.3787,-0.34604 -1.3788,-0.34605 -2.1796,0.83239 c -1.1988,0.45782 -3.5964,1.76746 -5.328,2.9103 l -3.1485,2.0779 -4.638,4.70131 -4.6381,4.70129 -3.6661,5.51089 -3.6662,5.51088 -3.4786,7.21582 c -3.7356,7.74922 -6.2379,14.15565 -8.2761,21.189 l -1.2778,4.4098 -0.3082,3.74721 -0.3082,3.74722 -1.1649,1.40157 -1.1648,1.40158 0.7323,1.41607 c 0.4028,0.77886 1.3703,1.93966 2.1501,2.57957 l 1.4177,1.16349 1.3331,2.33459 1.3329,2.3346 2.36,2.41657 2.3599,2.41658 2.4112,1.16345 2.4111,1.16345 5.5512,-0.26078 5.5511,-0.26079 4.819,-1.56109 c 2.6505,-0.85859 6.1066,-2.13054 7.6804,-2.82653 l 2.8614,-1.26544 0.8842,0.23123 0.8843,0.23122 1.4292,-1.36581 1.4292,-1.36583 3.5091,-1.34092 3.5092,-1.34094 0.9275,-1.02479 c 0.5101,-0.56363 1.5122,-1.3272 2.227,-1.69682 l 1.2996,-0.67205 0.5903,-1.39198 0.5904,-1.39199 2.8167,-1.71102 c 1.5492,-0.94105 3.658,-2.4711 4.6863,-3.40008 l 1.8695,-1.68906 1.9751,-3.12732 1.9751,-3.12731 0.7443,-0.28561 0.7443,-0.28561 0.609,0.73385 0.609,0.73385 -0.555,1.10273 c -0.3052,0.6065 -1.105,3.38407 -1.7773,6.17238 l -1.2222,5.06964 -2.4019,4.38557 -2.4019,4.38556 -3.3261,3.32854 -3.3261,3.32855 -1.4278,0.7383 -1.4277,0.73831 -0.9594,-0.0857 -0.9594,-0.0857 -1.3845,2.73703 -1.3844,2.73704 -5.3448,3.33008 -5.3447,3.33008 -4.4788,1.48732 -4.4788,1.48733 -3.8927,0.53225 c -4.2631,0.58289 -6.5777,0.59069 -10.8968,0.0367 z m -469.348411,-8.65619 -1.92227,-0.72241 -1.4824,-1.40787 -1.4824,-1.40787 -0.97718,-1.90019 -0.97719,-1.9002 -0.27938,-2.35895 -0.27939,-2.35896 1.18703,-1.38 1.18703,-1.38001 3.11832,-0.36767 3.11832,-0.36768 0.8471,-0.84711 0.84711,-0.8471 0.25524,-4.58876 0.25525,-4.58876 1.49292,-0.25427 1.49293,-0.25427 0.15446,-1.33499 0.15446,-1.33499 -1.39857,-0.89055 c -0.76921,-0.48979 -1.56309,-1.11965 -1.76417,-1.39967 l -0.36561,-0.50914 -0.008,-14.32283 -0.008,-14.32285 0.62206,-0.19164 c 0.34213,-0.1054 1.21318,-0.32038 1.93568,-0.47773 l 1.31363,-0.28609 0.31604,-0.8236 0.31605,-0.8236 -0.63439,-0.84934 c -0.34891,-0.46713 -1.38822,-1.83398 -2.30957,-3.03742 l -1.67517,-2.18809 0.40229,-7.96228 c 0.22125,-4.37925 0.41524,-10.12806 0.43106,-12.77513 l 0.0288,-4.81284 -1.20166,-1.27819 -1.20166,-1.27818 -2.77948,-1.03638 -2.77948,-1.03638 -1.07948,-1.00824 -1.07947,-1.00824 -1.05977,-2.4635 -1.05977,-2.4635 -0.0815,-2.94134 -0.0815,-2.94133 1.16552,-1.24063 1.16551,-1.24064 4.28994,-1.56812 4.28993,-1.56813 7.71346,-1.43924 7.713471,-1.43924 8.95756,0.0106 8.95757,0.0106 4.78531,0.46569 4.78531,0.46569 4.08937,1.49244 c 2.24916,0.82084 5.47398,2.26675 7.16627,3.21313 1.6923,0.94639 4.09098,2.61333 5.33042,3.70433 l 2.25351,1.98362 3.15696,4.40197 3.15695,4.40198 2.38492,4.97643 2.38492,4.97642 0.83584,3.23468 0.83585,3.23468 0.0447,3.73231 0.0447,3.73232 -0.64458,2.73704 -0.64459,2.73703 -1.94549,3.98114 -1.94551,3.98113 -2.8593,3.3223 c -1.57261,1.82726 -3.979,4.31654 -5.34752,5.53174 -1.36852,1.2152 -4.2422,3.46751 -6.38596,5.00513 l -3.89775,2.79567 -6.0551,2.92964 c -7.63367,3.69339 -16.54154,7.25969 -20.73556,8.30154 -1.77908,0.44195 -4.06437,1.0165 -5.07844,1.27679 l -1.84377,0.47323 -0.76886,0.76885 -0.76885,0.76887 0,6.45642 0,6.45643 1.14147,1.14148 1.14147,1.14146 2.02857,0.32439 2.02858,0.32438 0.62321,0.75092 0.6232,0.75092 2.55169,0.007 2.55169,0.007 2.14804,0.74816 2.14803,0.74816 0.46095,-0.28488 c 0.43406,-0.26826 10.9097,-0.8253 14.1534,-0.75259 0.82111,0.0184 2.27671,0.0367 3.23468,0.0406 0.95796,0.004 2.04689,0.11646 2.41984,0.25013 l 0.67811,0.24305 -0.61463,0.74057 -0.61462,0.74058 -0.77723,0 c -0.42749,0 -1.79968,0.47575 -3.04934,1.05723 -1.24965,0.58147 -3.61573,1.6817 -5.25795,2.44496 -1.64222,0.76325 -4.32949,1.76701 -5.97171,2.23056 -1.64222,0.46356 -3.72126,1.15483 -4.62008,1.53618 l -1.63423,0.69336 -1.86296,0 -1.86297,0 -1.08833,0.7623 c -1.62705,1.13963 -4.80846,2.16966 -10.08126,3.26398 l -4.7276,0.98117 -5.971711,0.2486 -5.97172,0.24861 -1.92226,-0.7224 z m 37.187581,-55.38733 4.41149,-1.74327 2.15364,0.32295 2.15364,0.32296 0.79781,-1.2176 0.79781,-1.21761 -0.29971,-1.19417 -0.29972,-1.19416 0.98207,-0.88877 0.98208,-0.88876 1.0685,0.57184 1.06848,0.57184 0.75756,-0.62871 0.75755,-0.62872 -0.27687,-1.38439 -0.27689,-1.38439 2.48581,-2.84068 c 3.10537,-3.54867 5.60972,-7.29976 7.34223,-10.99741 l 1.33859,-2.85693 3.3e-4,-4.47878 3.2e-4,-4.47879 -1.32394,-2.82419 -1.32393,-2.82419 -2.03641,-2.20925 -2.03641,-2.20925 -2.90167,-1.30219 -2.90167,-1.30219 -3.81871,-0.56796 -3.81872,-0.56796 -4.84855,0.58836 c -2.6667,0.3236 -5.22209,0.69623 -5.67865,0.82807 l -0.8301,0.2397 -1.72381,-1.51352 -1.72381,-1.51352 -1.03648,0 -1.0365,0 -0.51515,0.96257 c -0.28333,0.52941 -0.51515,1.49962 -0.51515,2.15601 l 0,1.19345 -1.82715,1.20307 c -1.00493,0.66169 -2.26594,1.79964 -2.80224,2.52878 l -0.97509,1.32571 -0.40954,7.88068 -0.40954,7.88067 -0.0229,14.21211 -0.0229,14.21211 0.62206,0.78433 c 0.34213,0.43139 0.95796,0.88514 1.36852,1.00835 l 0.74646,0.22401 5.72289,-1.20847 5.72289,-1.20847 4.41148,-1.74327 z m 46.8457,54.23908 c -0.8211,-0.1089 -2.68573,-0.53447 -4.14361,-0.94569 l -2.65068,-0.74768 -2.09849,-2.09848 -2.09848,-2.09849 -2.18591,-5.71441 -2.1859,-5.71443 -0.20769,-6.69865 -0.20768,-6.69866 0.59105,-3.66391 0.59105,-3.66391 1.19841,-3.52347 c 0.65913,-1.93791 2.00174,-4.98495 2.98357,-6.77118 2.13801,-3.88962 5.54284,-8.41451 8.78528,-11.67529 l 2.37261,-2.38603 4.12464,-1.97914 4.12464,-1.97914 2.53728,-0.30051 2.53727,-0.3005 2.58169,1.40514 2.58169,1.40513 2.6425,2.53901 2.6425,2.53902 1.24099,2.46327 1.241,2.46328 0.55955,2.63711 0.55953,2.63712 -0.003,6.32045 -0.003,6.32045 -0.51957,1.87087 -0.51955,1.87086 -1.095,0.71053 -1.09501,0.71053 -3.4835,0.56959 c -3.49261,0.57108 -20.64975,4.83236 -24.38449,6.05633 l -1.99057,0.65235 -0.86739,1.7731 -0.86741,1.77309 0.84381,2.20805 c 0.46409,1.21442 1.36622,3.05593 2.00472,4.09224 l 1.16092,1.88419 1.59971,1.0089 1.59971,1.00891 3.03048,-0.21677 3.03049,-0.21677 3.19005,-1.40689 c 1.75453,-0.77378 5.87605,-3.01382 9.15895,-4.97784 l 5.9689,-3.57097 0.67803,0.26019 0.67802,0.26018 -0.26606,1.63954 c -0.14633,0.90174 -0.71752,2.66012 -1.26929,3.90749 l -1.00323,2.26796 -1.23654,0 -1.23654,0 -0.81536,0.81536 -0.81536,0.81536 0.0795,2.04608 c 0.0437,1.12535 0.0587,2.28888 0.0333,2.58562 l -0.0462,0.53953 -4.36847,2.076 -4.36848,2.07601 -3.46939,0.73491 c -3.43609,0.72786 -4.55721,0.78881 -7.45054,0.40506 z m 4.75671,-36.72117 8.18201,-1.84008 2.07242,-0.90234 2.07242,-0.90235 0.5402,-1.00938 0.5402,-1.00937 0,-5.24789 0,-5.2479 -0.80231,-2.00518 -0.80231,-2.00517 -1.17526,-0.29497 -1.17525,-0.29497 -2.24642,1.08747 -2.24642,1.08747 -3.71826,3.47245 c -2.04505,1.90985 -4.48186,4.52245 -5.41514,5.8058 -0.93327,1.28334 -2.64588,4.16331 -3.8058,6.39994 l -2.10893,4.06659 0.35261,0.57053 0.35261,0.57053 0.60081,-0.23056 c 0.33046,-0.1268 4.28271,-1.05858 8.78283,-2.07062 z m 157.66503,35.88362 c -0.99019,-0.35383 -2.6157,-1.14728 -3.6123,-1.76321 l -1.81198,-1.11986 -1.24519,-2.12476 c -0.68489,-1.16861 -2.08252,-4.45222 -3.10588,-7.29691 l -1.86066,-5.17217 0.0463,-7.96228 0.0464,-7.96228 1.07823,-3.98114 1.07824,-3.98115 2.01769,-4.22995 2.01774,-4.22997 2.69547,-3.52686 c 1.48249,-1.93978 3.93524,-4.69941 5.45056,-6.13252 l 2.75509,-2.60566 3.74803,-1.73168 3.74795,-1.73168 2.4225,-0.28691 2.4225,-0.28691 2.1563,1.05288 2.1563,1.05287 3.0897,2.76519 3.0895,2.76519 1.6381,3.3246 1.638,3.3246 0.1612,8.72191 0.1613,8.7219 -0.5123,1.34249 -0.5123,1.34249 -1.1419,0.74088 -1.1419,0.74088 -4.494,0.77444 c -2.4718,0.42595 -8.7421,1.90546 -13.93401,3.28781 l -9.43999,2.51336 -2.23936,1.09818 -2.2394,1.09818 0.0837,3.07076 0.0836,3.07077 1.01552,2.29569 1.01547,2.29571 1.74632,0.72965 1.74632,0.72966 3.62387,-0.008 3.62393,-0.008 4.19694,-1.70197 4.197,-1.70197 0.9452,0.50589 0.9453,0.5059 0.9092,-0.82275 c 0.5,-0.45252 1.0332,-1.31013 1.1849,-1.90583 l 0.2758,-1.08307 3.1308,-2.11498 3.1308,-2.11498 0.9157,0 0.9157,0 1.4235,-1.01358 c 0.7828,-0.55747 2.4596,-1.47194 3.726,-2.03216 l 2.3027,-1.01856 0.2601,0.26017 0.2602,0.26017 -0.8341,2.18412 -0.83409,2.18411 -1.9404,2.5637 c -1.0673,1.41003 -2.3873,3.43979 -2.93361,4.51058 l -0.99329,1.94687 -2.5182,2.20286 -2.5181,2.20285 -4.5906,2.31037 -4.5905,2.31037 -2.3682,0.62132 -2.36825,0.62132 -0.77024,-1.09969 -0.77023,-1.09969 -1.34029,0.002 -1.3403,0.002 -1.99057,1.22603 c -1.09485,0.67431 -2.32648,1.22318 -2.73704,1.21972 -0.41055,-0.003 -1.55664,-0.29582 -2.54682,-0.64967 z m 8.02085,-35.671 c 3.69504,-0.81847 8.12014,-1.94933 9.83354,-2.51302 l 3.1154,-1.02489 0.5494,-1.02664 0.5495,-1.02663 0.067,-5.77368 0.067,-5.77367 -1.0356,-1.74175 -1.0356,-1.74175 -1.7427,0.0494 -1.7427,0.0494 -3.0592,2.07752 -3.05932,2.07753 -1.18232,-0.29675 -1.18232,-0.29674 -0.81845,0.81845 -0.81846,0.81846 0.30485,1.21453 0.30485,1.21454 -1.97326,2.6062 c -1.08524,1.43341 -2.90177,4.31331 -4.03671,6.39978 l -2.06344,3.79362 0,1.11647 0,1.11647 1.1197,-0.32432 c 0.61582,-0.17838 4.14286,-0.99399 7.83784,-1.81246 z m 309.17034,36.00814 -1.1097,-0.21437 -1.0053,-1.2779 -1.0051,-1.27791 0,-0.86723 0,-0.86724 -0.7028,-0.58327 -0.7028,-0.58327 -3.0159,1.26934 c -1.6587,0.69816 -4.7575,1.84438 -6.8862,2.54718 l -3.8704,1.27781 -4.5187,0.28263 -4.5187,0.28263 -2.6404,-0.87703 -2.6405,-0.87703 -1.92,-1.73458 -1.91999,-1.7346 -0.74941,-2.5232 -0.7492,-2.5232 0,-2.37525 0,-2.37525 1.2057,-3.32163 1.2056,-3.32164 1.86261,-2.7043 1.86249,-2.7043 2.7791,-2.00636 2.7791,-2.00637 5.9717,-2.9092 5.97171,-2.9092 4.38379,-1.09305 4.38391,-1.09305 1.04499,-0.84623 1.045,-0.84624 -0.5494,-4.83644 -0.5494,-4.83644 -0.89829,-1.83788 -0.8983,-1.83789 -3.9812,-0.14012 -3.9811,-0.14011 -3.9811,1.93522 -3.9812,1.93523 -3.7323,2.76922 c -2.0528,1.52308 -4.0183,3.06665 -4.3678,3.43014 -0.3495,0.36351 -1.1737,1.33273 -1.8316,2.15384 l -1.196,1.49293 -0.5986,-0.58877 -0.5984,-0.58876 1.3429,-3.39238 c 0.7385,-1.8658 2.056,-4.59135 2.9276,-6.05676 l 1.5848,-2.6644 2.9232,-2.45159 c 1.6076,-1.34838 3.8544,-2.99739 4.9927,-3.66448 1.1383,-0.66709 3.07,-1.56889 4.2927,-2.004 l 2.2231,-0.7911 3.5814,-0.0201 3.5813,-0.0201 2.6619,1.21865 2.6619,1.21865 1.8233,1.60092 1.8234,1.60093 1.2071,2.57871 1.2072,2.57872 0.5659,2.68924 0.5658,2.68924 0.4791,7.01479 c 0.2635,3.85814 0.4824,8.97426 0.4865,11.36917 l 0.01,4.35436 0.4683,0 c 0.2575,0 0.6066,-0.22393 0.7758,-0.49764 l 0.3075,-0.49764 1.0281,0 1.0282,0 -0.323,1.61734 c -0.1776,0.88954 -0.9894,3.0421 -1.804,4.78348 l -1.4809,3.16614 0,0.9394 0,0.93942 0.5251,0 c 0.28869,0 1.80039,-0.65404 3.3591,-1.45342 4.177,-2.14222 7.2998,-3.52301 7.96749,-3.52301 l 0.5893,0 0,0.46246 c 0,0.25435 -0.9112,1.8343 -2.0249,3.51101 l -2.0249,3.04856 -0.3835,2.42633 -0.3836,2.42632 -0.8063,1.23056 -0.80629,1.23055 -2.63251,1.49435 -2.6326,1.49434 -2.7029,0.79297 c -1.4866,0.43613 -2.8303,0.76248 -2.9859,0.7252 -0.1556,-0.0373 -0.7823,-0.16423 -1.3927,-0.28213 z m -17.7975,-11.3297 3.8231,-0.73146 2.8145,-1.28364 c 1.5479,-0.706 3.6553,-1.86357 4.6829,-2.57239 l 1.8683,-1.28877 0.9931,-1.60689 0.9931,-1.60689 0,-2.07886 0,-2.07887 -1.2215,-1.22148 -1.2215,-1.22149 -0.9572,0 -0.9572,0 -0.748,-1.11969 -0.7479,-1.1197 -0.9523,0.85549 -0.9523,0.85549 -3.3683,1.04038 -3.3683,1.04038 -1.8348,1.62169 c -1.009,0.89194 -2.89009,2.3662 -4.1801,3.27615 l -2.3455,1.65446 -1.2127,1.79497 c -0.6669,0.98724 -1.3656,2.30981 -1.5525,2.93904 l -0.3399,1.14407 0.7992,1.21973 0.79921,1.21975 2.6819,0 2.6817,0 3.82299,-0.73147 z m -252.2238,8.99347 -1.8259,-1.82592 -1.2441,-2.45503 -1.2441,-2.45504 0,-1.23128 0,-1.23128 0.6197,-0.38293 0.6195,-0.38292 4.2325,-0.0197 4.2324,-0.0197 0.2996,-9.95286 0.2996,-9.95284 0.611,-2.60542 0.6109,-2.60541 -0.1641,-6.43801 -0.1641,-6.438 -1.1021,-1.17164 -1.1022,-1.17164 0.2877,-1.10026 0.2878,-1.10027 -0.8365,-0.32099 -0.8365,-0.32099 -1.0862,0.57155 -1.086,0.57154 -2.4883,-0.95161 -2.4882,-0.95163 -0.1694,-0.8423 -0.1695,-0.8423 1.1048,-1.17597 1.1047,-1.17597 4.29,-1.57621 4.2899,-1.57622 2.7682,-0.0588 2.7682,-0.0588 1.3789,0.90349 1.3789,0.90349 0.7049,1.68705 0.705,1.68706 0,2.5042 0,2.5042 0.622,-2.8e-4 0.6221,-2.7e-4 2.846,-3.18253 2.8459,-3.18252 2.1632,-1.04716 2.1631,-1.04717 2.2904,0 c 1.2597,0 2.6618,0.14251 3.1157,0.31669 l 0.8253,0.3167 0.4472,1.17623 0.4472,1.17624 1.4121,0 1.4122,0 1.2756,1.36851 1.2756,1.36852 2.0522,4.24745 2.0521,4.24745 -0.029,0.9778 c -0.016,0.53779 -0.4279,2.50928 -0.9159,4.3811 l -0.8872,3.40329 -2.1944,0.98041 -2.1943,0.98042 -1.3222,1.26347 -1.3222,1.26347 -2.9707,-1.33318 -2.9707,-1.33317 -0.5404,-1.18597 -0.5403,-1.18597 0.4123,-0.25486 0.4124,-0.25486 0.8901,0.98355 0.8901,0.98356 1.3207,0 1.3207,0 0.815,-0.62206 0.8151,-0.62205 0.7657,-2.23939 c 0.4212,-1.23167 0.769,-2.64146 0.773,-3.13289 l 0.01,-0.89349 -1.2441,-1.24411 c -0.6842,-0.68426 -1.2441,-1.41883 -1.2441,-1.63238 0,-0.21356 -0.5183,-0.87519 -1.1517,-1.47031 l -1.1518,-1.08207 -2.7187,0 -2.7186,0 -1.117,0.78236 -1.1169,0.78235 -1.4127,2.82555 c -0.777,1.55406 -1.7738,3.94525 -2.2151,5.31377 -0.4414,1.36851 -1.3747,5.84246 -2.0742,9.9421 l -1.2717,7.45388 -0.05,3.8568 -0.05,3.85678 0.8527,1.30135 0.8527,1.30135 2.1386,0.94603 2.1387,0.94604 0.2707,1.03522 0.2707,1.03522 1.0207,-0.54625 1.0207,-0.54625 0.976,0.60954 0.9761,0.60954 1.2364,-0.66174 1.2365,-0.66174 1.4069,0.35117 c 0.7737,0.19314 1.7427,0.63954 2.1533,0.99202 0.4106,0.35246 1.3669,0.78832 2.1252,0.96855 l 1.3787,0.32771 1.0385,-0.55579 1.0385,-0.55579 0.4762,0.47621 0.4762,0.47621 -0.8526,0.85263 -0.8527,0.85265 -1.0087,-0.2638 -1.0089,-0.26381 -1.2808,0.68931 c -1.9462,1.04743 -6.0123,2.24923 -7.6098,2.24923 l -1.4241,0 -2.0952,1.08448 -2.0951,1.08447 -5.4741,0.36855 c -3.0107,0.20269 -7.6196,0.52886 -10.2419,0.7248 l -4.7679,0.35627 -1.826,-1.82592 z m 288.7493,0.37663 c -0.7107,-0.78254 -1.6624,-1.97651 -2.1149,-2.65324 l -0.8228,-1.23043 0,-1.3822 0,-1.38219 0.9756,-0.97569 0.9757,-0.97569 2.756,-0.80118 2.756,-0.80118 0.2837,-1.13037 0.2837,-1.13037 -0.1586,-17.86934 -0.1587,-17.86934 -1.0222,-1.74005 -1.0221,-1.74006 -1.7149,-1.15564 -1.7149,-1.15563 0,-0.58781 0,-0.5878 4.7277,-1.60467 c 2.6001,-0.88257 5.1754,-1.61037 5.7229,-1.61732 l 0.9952,-0.0126 1.2895,1.61733 1.2896,1.61732 0.6367,1.99057 c 0.3502,1.09482 0.8263,2.1959 1.0578,2.44685 l 0.4211,0.45627 3.6244,-3.76458 3.6244,-3.76459 2.115,-0.5676 2.1149,-0.5676 1.8771,0.50544 1.877,0.50544 2.1116,1.55285 2.1115,1.55287 1.1879,2.06643 c 0.6533,1.13654 1.3353,2.77443 1.5153,3.63978 l 0.3275,1.57333 -0.561,3.15427 c -0.3086,1.73484 -1.1261,5.02379 -1.8167,7.30877 l -1.2556,4.15452 -2.9434,3.01731 -2.9433,3.01733 -0.3057,-0.30569 -0.3056,-0.30568 0.8514,-3.47425 0.8513,-3.47425 -0.2831,-5.09751 -0.2831,-5.09751 -0.5023,-0.50233 -0.5023,-0.50231 -2.7635,0.87109 -2.7634,0.8711 -1.5325,2.0833 c -0.8429,1.14582 -1.8418,2.80419 -2.2198,3.68529 l -0.6874,1.60199 -1.2438,8.19513 -1.2439,8.19513 0,3.04189 0,3.04189 0.7281,1.40791 c 0.4004,0.77435 1.0163,1.51556 1.3685,1.64715 0.3523,0.13157 3.3277,0.0792 6.6122,-0.11642 l 5.9717,-0.35565 0.4498,0.40258 0.4498,0.40259 -1.3643,1.78875 c -0.7505,0.98382 -2.09,2.26438 -2.9768,2.8457 l -1.6124,1.05694 -1.0758,1.64118 -1.07579,1.6412 -1.30151,0.85277 -1.3015,0.85278 -4.7998,0.36012 c -2.6398,0.19807 -6.9272,0.51727 -9.5274,0.70932 l -4.7276,0.34918 -1.2922,-1.42282 z m 42.507,0.50312 c -0.5967,-0.51186 -1.6605,-1.80167 -2.3638,-2.86626 l -1.279,-1.9356 0,-0.96412 0,-0.96412 1.3943,-1.39423 1.3942,-1.39423 2.0606,-0.34815 2.0607,-0.34813 0.48031,-0.58315 0.4804,-0.58315 0.106,-17.41749 0.1061,-17.41749 -0.4969,-2.38174 -0.4969,-2.38174 -0.8762,-0.96828 -0.87631,-0.96828 -2.54369,-0.94758 -2.5437,-0.94757 -0.1357,-0.67883 -0.1357,-0.67884 6.3096,-1.12595 6.3096,-1.12596 1.2907,0.82088 c 0.7099,0.45148 1.7866,1.40604 2.3926,2.12124 l 1.1019,1.30036 0.3221,1.61734 0.322,1.61734 0.5666,-0.004 0.5667,-0.004 2.3384,-2.93277 2.3385,-2.93278 2.7358,-1.3385 2.7358,-1.33849 1.6439,0.35414 c 0.9042,0.19478 2.3158,0.68864 3.1369,1.09748 1.9159,0.95396 4.1369,3.01882 4.9783,4.62842 l 0.6596,1.26167 -0.7103,6.45179 -0.7103,6.45179 -1.4738,2.23939 c -0.8106,1.23166 -1.8569,2.9672 -2.3253,3.85673 l -0.8514,1.61734 -0.8057,0 -0.8056,0 -0.048,-4.10555 -0.048,-4.10555 -0.8461,-2.10543 -0.8462,-2.10542 -1.6258,-1.00484 -1.6259,-1.00484 -1.2485,0 -1.2485,0 -0.9954,2.3638 c -0.5475,1.30009 -1.3459,3.4835 -1.7743,4.85201 -0.845,2.69887 -2.5787,13.27547 -3.11031,18.97484 l -0.331,3.54793 0.58141,1.76193 c 0.31979,0.96906 0.85,1.98127 1.17809,2.24938 l 0.5966,0.48745 2.7371,-0.48975 c 1.50531,-0.26936 4.0806,-0.55016 5.72281,-0.62399 1.64229,-0.0738 3.35509,-0.29409 3.8064,-0.48947 l 0.8206,-0.35522 0.3522,0.57003 0.3524,0.57002 -3.2714,3.14512 -3.2714,3.14511 -0.7774,1.94297 -0.7775,1.94297 -1.5928,0.94094 -1.593,0.94095 -4.7375,0.35155 c -2.6056,0.19336 -6.7529,0.51308 -9.2163,0.71047 l -4.4787,0.35891 -1.0849,-0.93065 z m 56.572,0.0422 -2.737,-0.75163 -2.6445,-1.81044 -2.6444,-1.81045 -1.951,-2.2813 -1.9509,-2.28129 -1.4502,-2.98586 -1.4501,-2.98585 -0.5482,-2.63712 -0.5482,-2.63712 0.01,-4.5787 0.01,-4.5787 0.4839,-3.34583 0.4839,-3.34583 1.0686,-3.12352 c 1.4066,-4.1112 3.6879,-8.64338 5.5231,-10.97219 l 1.4791,-1.87696 3.1211,-2.22721 c 1.7167,-1.22498 4.3449,-2.78748 5.8407,-3.47223 l 2.7194,-1.245 3.6887,-0.30067 3.6886,-0.30068 3.4724,0.81695 3.4724,0.81696 2.0791,1.2184 2.079,1.2184 1.5386,1.94265 1.5386,1.94264 1.7274,3.66242 c 0.9501,2.01433 2.084,5.00606 2.5198,6.64828 l 0.7924,2.98586 0.2782,4.7276 0.2781,4.72761 -0.8051,4.22995 c -0.4429,2.32649 -1.0348,5.05074 -1.3154,6.05389 l -0.5103,1.82393 -1.73,1.02073 -1.73,1.02074 0,0.77 c 0,0.4235 0.2762,1.21231 0.6138,1.75291 l 0.6138,0.98291 -0.987,1.83991 c -0.5429,1.01196 -2.0308,2.98346 -3.3064,4.38112 l -2.3194,2.54119 -2.657,1.46692 -2.6572,1.46692 -6.2205,0.12066 -6.2205,0.12066 -2.737,-0.75163 z m 11.9218,-10.30363 2.7445,-0.62205 1.9042,-1.89712 1.9042,-1.89711 0.9672,-2.2566 0.9674,-2.2566 0.5484,-3.5347 0.5484,-3.5347 -0.3309,-6.99204 c -0.182,-3.84562 -0.3218,-8.03233 -0.3105,-9.3038 l 0.02,-2.31175 -1.3441,-0.88073 c -0.7394,-0.48441 -2.536,-1.85146 -3.9927,-3.03791 l -2.6483,-2.15718 -1.6321,0 -1.6321,0 -2.5549,0.75873 -2.5549,0.75874 -1.603,1.34883 -1.603,1.34884 -1.8928,2.9284 -1.8927,2.9284 -0.3036,1.80661 c -0.167,0.99364 -0.408,2.18857 -0.5355,2.6554 -0.1276,0.46684 -1.1158,1.91834 -2.196,3.22556 l -1.964,2.37676 0,0.76941 0,0.7694 0.9184,0.78641 0.9185,0.78641 0.3418,2.90878 0.3419,2.90877 2.1513,4.54146 2.1514,4.54146 1.4585,1.03859 c 1.7215,1.22577 4.2316,2.01008 6.6329,2.07248 0.9499,0.0247 2.9622,-0.23504 4.4717,-0.57716 z m 44.4212,9.78975 -2.5742,-1.2828 -1.2796,-1.52069 c -0.7038,-0.83637 -1.6964,-2.33766 -2.2058,-3.33618 l -0.9262,-1.81549 -0.543,-2.93706 -0.5428,-2.93705 -0.035,-13.22055 -0.035,-13.22054 -0.3891,-0.99528 -0.38919,-0.99529 -3.59131,0 -3.5914,0 -1.9562,-2.09571 -1.95619,-2.09571 0,-1.27013 0,-1.27013 -0.5762,-0.92261 -0.5761,-0.92261 0.2712,-0.70696 0.2713,-0.70697 2.9358,-1.53891 2.93579,-1.53891 2.8715,-0.64259 2.8714,-0.64259 0.5938,-1.03419 0.5937,-1.03418 -0.1276,-10.11604 -0.1277,-10.11605 -0.5289,-0.98831 -0.5289,-0.98831 0.5931,-0.71465 0.5931,-0.71465 0.9937,0 0.9937,0 2.912,1.76896 2.91201,1.76897 1.0475,1.47106 1.0475,1.47106 0.2897,7.53785 0.2897,7.53786 0.9243,0.92429 0.9243,0.9243 1.3609,-0.32702 c 0.7485,-0.17986 2.1447,-0.71491 3.1027,-1.18902 l 1.7418,-0.86199 3.9093,-0.35889 3.9094,-0.35888 1.8135,-0.77273 1.8135,-0.77274 2.6073,-0.0507 2.6072,-0.0507 0.2438,0.63578 0.2439,0.63579 -0.8605,0.70143 c -0.4733,0.3858 -1.9109,1.55529 -3.1947,2.5989 -1.2838,1.04359 -4.2337,3.59424 -6.5553,5.66811 l -4.2211,3.77065 -4.3929,1.66125 c -2.416,0.91369 -4.7287,1.96777 -5.1393,2.34241 l -0.7464,0.68115 -0.1603,13.79264 -0.1604,13.79264 0.3226,2.62886 0.3225,2.62886 1.1549,1.34253 1.1547,1.34254 1.5296,-0.73672 1.5296,-0.73671 5.6644,-5.54171 c 3.1154,-3.04795 6.1498,-5.80156 6.7433,-6.11914 l 1.0789,-0.57743 0.4248,0.26257 0.4248,0.26257 -0.4023,2.12425 c -0.2213,1.16833 -0.7599,2.97334 -1.1969,4.01112 l -0.7946,1.88688 -1.5445,1.37998 -1.5444,1.37997 0.5759,1.07616 0.5759,1.07615 -0.7814,1.87753 -0.7815,1.87752 -2.0913,2.17685 c -1.1504,1.19727 -3.0871,2.82083 -4.3039,3.60791 l -2.2125,1.43106 -2.7906,0 -2.7907,0 -2.5743,-1.2828 z"
       id="path4376"
       inkscape:connector-curvature="0"
       transform="matrix(0.76031602,0,0,0.76031602,195.67643,-259.97308)" />
    <flowRoot
       xml:space="preserve"
       id="flowRoot2987"
       style="font-style:normal;font-variant:normal;font-weight:normal;font-stretch:normal;font-size:50.19824578px;line-height:125%;font-family:Neucha;-inkscape-font-specification:Neucha;letter-spacing:0px;word-spacing:0px;display:inline;fill:#ffffff;fill-opacity:1;stroke:none;stroke-width:1.43423557;stroke-miterlimit:4;stroke-dasharray:none;stroke-opacity:0.5;filter:url(#filter3836);"
       transform="matrix(0.69723552,0,0,0.69723552,-804.20841,255.15998)"><flowRegion
         id="flowRegion2989"><rect
           id="rect2991"
           width="2405.8"
           height="107.55731"
           x="739.22333"
           y="644.36664"
           style="fill:#ffffff;fill-opacity:1;stroke:none;stroke-width:1.43423557;stroke-miterlimit:4;stroke-dasharray:none;stroke-opacity:0.5;-inkscape-font-specification:Neucha;font-family:Neucha;font-weight:normal;font-style:normal;font-stretch:normal;font-variant:normal;font-size:50.19824578px;" /></flowRegion><flowPara
         id="flowPara2993"
         style="font-style:normal;font-variant:normal;font-weight:normal;font-stretch:normal;font-size:50.19824578px;font-family:Neucha;-inkscape-font-specification:Neucha;text-align:center;letter-spacing:0.14342356px;text-anchor:middle;fill:#ffffff;fill-opacity:1;stroke:none;stroke-width:1.43423557;stroke-miterlimit:4;stroke-dasharray:none;stroke-opacity:0.5;">Эпизод 6 : Конкурс зельеварения</flowPara></flowRoot>    <flowRoot
       xml:space="preserve"
       id="flowRoot2987-1"
       style="font-style:normal;font-variant:normal;font-weight:normal;font-stretch:normal;font-size:50.198246px;line-height:125%;font-family:Neucha;-inkscape-font-specification:Neucha;letter-spacing:0px;word-spacing:0px;display:inline;fill:#ffffff;fill-opacity:1;stroke:none;stroke-width:1.43423557;stroke-miterlimit:4;stroke-dasharray:none;stroke-opacity:0.5;filter:url(#filter3836-3)"
       transform="matrix(0.69723552,0,0,0.69723552,-960.63146,-427.43393)"><flowRegion
         id="flowRegion2989-0"><rect
           id="rect2991-6"
           width="2405.8"
           height="107.55731"
           x="739.22333"
           y="644.36664"
           style="font-style:normal;font-variant:normal;font-weight:normal;font-stretch:normal;font-size:50.198246px;font-family:Neucha;-inkscape-font-specification:Neucha;fill:#ffffff;fill-opacity:1;stroke:none;stroke-width:1.43423557;stroke-miterlimit:4;stroke-dasharray:none;stroke-opacity:0.5" /></flowRegion><flowPara
         id="flowPara2993-5"
         style="font-style:normal;font-variant:normal;font-weight:normal;font-stretch:normal;font-size:50.198246px;font-family:Neucha;-inkscape-font-specification:Neucha;text-align:center;letter-spacing:0.14342356px;text-anchor:middle;fill:#ffffff;fill-opacity:1;stroke:none;stroke-width:1.43423557;stroke-miterlimit:4;stroke-dasharray:none;stroke-opacity:0.5">Перчинка</flowPara></flowRoot>    <flowRoot
       xml:space="preserve"
       id="flowRoot2987-1-1"
       style="font-style:normal;font-variant:normal;font-weight:normal;font-stretch:normal;font-size:50.198246px;line-height:125%;font-family:Neucha;-inkscape-font-specification:Neucha;letter-spacing:0px;word-spacing:0px;display:inline;fill:#ffffff;fill-opacity:1;stroke:none;stroke-width:1.43423557;stroke-miterlimit:4;stroke-dasharray:none;stroke-opacity:0.5;filter:url(#filter3836-3-6)"
       transform="matrix(0.69723552,0,0,0.69723552,-624.97535,-423.1449)"><flowRegion
         id="flowRegion2989-0-8"><rect
           id="rect2991-6-7"
           width="2405.8"
           height="107.55731"
           x="739.22333"
           y="644.36664"
           style="font-style:normal;font-variant:normal;font-weight:normal;font-stretch:normal;font-size:50.198246px;font-family:Neucha;-inkscape-font-specification:Neucha;fill:#ffffff;fill-opacity:1;stroke:none;stroke-width:1.43423557;stroke-miterlimit:4;stroke-dasharray:none;stroke-opacity:0.5" /></flowRegion><flowPara
         id="flowPara2993-5-3"
         style="font-style:normal;font-variant:normal;font-weight:normal;font-stretch:normal;font-size:50.198246px;font-family:Neucha;-inkscape-font-specification:Neucha;text-align:center;letter-spacing:0.14342356px;text-anchor:middle;fill:#ffffff;fill-opacity:1;stroke:none;stroke-width:1.43423557;stroke-miterlimit:4;stroke-dasharray:none;stroke-opacity:0.5">Морквик</flowPara></flowRoot>  </g>
</svg>
