<?xml version="1.0" encoding="UTF-8" standalone="no"?>
<!-- Created with Inkscape (http://www.inkscape.org/) -->

<svg
   xmlns:dc="http://purl.org/dc/elements/1.1/"
   xmlns:cc="http://creativecommons.org/ns#"
   xmlns:rdf="http://www.w3.org/1999/02/22-rdf-syntax-ns#"
   xmlns:svg="http://www.w3.org/2000/svg"
   xmlns="http://www.w3.org/2000/svg"
   xmlns:xlink="http://www.w3.org/1999/xlink"
   xmlns:sodipodi="http://sodipodi.sourceforge.net/DTD/sodipodi-0.dtd"
   xmlns:inkscape="http://www.inkscape.org/namespaces/inkscape"
   id="svg2"
   version="1.1"
   inkscape:version="0.91 r13725"
   width="2481"
   height="3503"
   sodipodi:docname="Pepper-and-Carrot_by-David-Revoy_E06P09.svg">
  <metadata
     id="metadata8">
    <rdf:RDF>
      <cc:Work
         rdf:about="">
        <dc:format>image/svg+xml</dc:format>
        <dc:type
           rdf:resource="http://purl.org/dc/dcmitype/StillImage" />
        <dc:title />
      </cc:Work>
    </rdf:RDF>
  </metadata>
  <defs
     id="defs6">
    <filter
       inkscape:collect="always"
       id="filter3843">
      <feGaussianBlur
         inkscape:collect="always"
         stdDeviation="0.93774878"
         id="feGaussianBlur3845" />
    </filter>
  </defs>
  <sodipodi:namedview
     pagecolor="#ffffff"
     bordercolor="#666666"
     borderopacity="1"
     objecttolerance="10"
     gridtolerance="10"
     guidetolerance="10"
     inkscape:pageopacity="0"
     inkscape:pageshadow="2"
     inkscape:window-width="1366"
     inkscape:window-height="717"
     id="namedview4"
     showgrid="false"
     inkscape:zoom="0.43016843"
     inkscape:cx="1550.8259"
     inkscape:cy="566.29351"
     inkscape:window-x="0"
     inkscape:window-y="0"
     inkscape:window-maximized="1"
     inkscape:current-layer="layer1" />
  <g
     inkscape:groupmode="layer"
     id="layer2"
     inkscape:label="artwork"
     sodipodi:insensitive="true">
    <image
       sodipodi:absref="/run/media/milenche/Data/Projekti/Pepper and Carrot Translations/peppercarrot_ep06_translation/sr/../gfx_Pepper-and-Carrot_by-David-Revoy_E06P09.png"
       xlink:href="../gfx_Pepper-and-Carrot_by-David-Revoy_E06P09.png"
       width="2481"
       height="3503"
       id="image10"
       x="0"
       y="0" />
  </g>
  <g
     inkscape:groupmode="layer"
     id="layer3"
     inkscape:label="speechbubbles"
     sodipodi:insensitive="true" />
  <g
     inkscape:groupmode="layer"
     id="layer1"
     inkscape:label="txt">
    <path
       style="color:#000000;fill:#ffffff;fill-opacity:1;fill-rule:nonzero;stroke:none;stroke-width:1px;marker:none;visibility:visible;display:inline;overflow:visible;enable-background:accumulate"
       d="m 2046.6862,3304.5369 c 7.7136,-45.4874 35.0621,-72.6332 168.2984,-82.9045 133.2363,-10.2714 150.7673,42.5527 154.9748,68.9648 4.2076,26.412 0.7013,65.2964 -36.4646,85.1055 -37.1658,19.809 -118.5102,24.2111 -147.9624,19.0753 -29.4522,-5.1356 -89.225,-1.0097 -106.0547,-17.8841 -16.83,-16.8744 -30.6878,-32.739 -32.7915,-72.357 z"
       id="path3573-7-6"
       inkscape:connector-curvature="0"
       sodipodi:nodetypes="csssssc" />
    <path
       style="color:#000000;fill:#ffffff;fill-opacity:1;fill-rule:nonzero;stroke:none;stroke-width:1px;marker:none;visibility:visible;display:inline;overflow:visible;enable-background:accumulate"
       d="m 1743.2737,3046.7098 c 15.4102,-116.3368 68.8288,-200.6161 336.2261,-212.0332 315.4475,-13.4684 301.2027,108.8314 309.6085,176.3817 8.4057,67.5502 1.4008,166.9995 -72.849,217.6622 -74.2497,50.6627 -236.7595,61.9214 -295.5988,48.7863 -58.8396,-13.1346 -178.2536,-2.5822 -211.876,-45.7396 -33.623,-43.1573 -61.308,-83.7318 -65.5108,-185.0574 z"
       id="path3573-7-3"
       inkscape:connector-curvature="0"
       sodipodi:nodetypes="csssssc" />
    <path
       style="color:#000000;fill:#ffffff;fill-opacity:1;fill-rule:nonzero;stroke:none;stroke-width:1px;marker:none;visibility:visible;display:inline;overflow:visible;enable-background:accumulate"
       d="m 1588.1154,2856.5994 c 6.9936,-55.156 31.7891,-88.0717 152.5879,-100.5263 120.7988,-12.4546 136.6933,51.5976 140.5081,83.6237 3.8147,32.026 0.6357,79.1755 -33.0607,103.1951 -33.6965,24.0195 -107.4474,29.3573 -134.1502,23.1299 -26.7029,-6.2272 -80.896,-1.2243 -96.1547,-21.6855 -15.2589,-20.4611 -27.8231,-39.6978 -29.7304,-87.7369 z"
       id="path3573-7"
       inkscape:connector-curvature="0"
       sodipodi:nodetypes="csssssc" />
    <path
       style="fill:#ffffff;stroke:none"
       d="m 537.09418,2541.4872 c 33.09859,-32.5986 27.82913,-46.4897 20.47318,-61.9311 -7.35578,-15.4414 -15.80643,-28.8005 -11.63578,-38.5723 4.17067,-9.7716 15.29078,-18.9641 24.58593,-24.686 9.29534,-5.7221 5.82948,-15.5939 3.03764,-26.8393 -2.79187,-11.2454 -2.24445,-72.1608 -2.24445,-72.1608 0,0 30.94507,37.7177 36.59273,51.8094 5.64763,14.0915 7.78669,19.2207 8.43954,25.3368 0.6528,6.1163 -0.0619,21.2717 -7.81836,29.5853 -7.75637,8.3136 -19.51606,12.2846 -26.94693,17.2201 -7.43092,4.9354 -10.37423,18.4428 -7.3735,31.1305 3.00072,12.6876 5.31027,42.1409 -8.76887,54.2024 -14.07925,12.0614 -28.34113,14.905 -28.34113,14.905 z"
       id="path3023-3"
       inkscape:connector-curvature="0"
       sodipodi:nodetypes="csssscssssssc" />
    <path
       style="color:#000000;fill:#ffffff;fill-opacity:1;fill-rule:nonzero;stroke:none;stroke-width:1px;marker:none;visibility:visible;display:inline;overflow:visible;enable-background:accumulate"
       d="m 232.01528,2270.0415 c 15.67286,-72.9995 71.24042,-116.5637 341.95432,-133.0474 270.71393,-16.4836 306.33415,68.2898 314.88303,110.6765 8.54888,42.3866 1.42478,104.7895 -74.09012,136.5795 -75.51492,31.79 -240.79291,38.8545 -300.63483,30.6125 -59.84205,-8.2417 -181.29026,-1.6203 -215.48566,-28.7008 -34.19552,-27.0804 -62.35236,-52.5404 -66.62674,-116.1203 z"
       id="path3573"
       inkscape:connector-curvature="0"
       sodipodi:nodetypes="csssssc" />
    <path
       style="fill:#ffffff;stroke:none"
       d="m 98.132685,2097.1346 c 11.122815,-62.2783 49.547265,-121.8876 281.104975,-129.8948 231.55781,-8.0071 328.52368,44.0904 327.61887,120.998 -0.98548,83.7634 -67.74828,135.2329 -254.81461,137.0123 -187.06633,1.7794 -347.84229,-6.2279 -353.909235,-128.1155 z"
       id="path3270"
       inkscape:connector-curvature="0"
       sodipodi:nodetypes="csssc" />
    <path
       style="fill:#ffffff;stroke:none"
       d="m 1604.3654,543.48013 c 44.8711,-10.8171 54.1774,-0.16815 63.7635,12.84937 9.5861,13.01743 16.8223,25.92299 27.3594,27.20978 10.5371,1.2868 24.0955,-3.17063 33.7373,-7.81443 9.6419,-4.64389 16.3969,2.70419 24.6774,10.16404 8.2806,7.45986 61.0745,35.52734 61.0745,35.52734 0,0 -16.8411,-42.01779 -26.1287,-53.0584 -9.2876,-11.04059 -12.6259,-15.12489 -17.5681,-18.50045 -4.9422,-3.37558 -18.3701,-9.90297 -29.4667,-7.68351 -11.0966,2.21938 -20.4774,9.62342 -28.4968,13.16683 -8.0192,3.54351 -21.1553,-0.45764 -30.5735,-8.75676 -9.4182,-8.2991 -33.6405,-23.89753 -51.1713,-18.45172 -17.5306,5.44581 -27.207,15.34791 -27.207,15.34791 z"
       id="path3023"
       inkscape:connector-curvature="0"
       sodipodi:nodetypes="csssscssssssc" />
    <path
       style="color:#000000;fill:#ffffff;fill-opacity:1;fill-rule:nonzero;stroke:none;stroke-width:1px;marker:none;visibility:visible;display:inline;overflow:visible;enable-background:accumulate"
       d="m 266.00179,138.74796 c 25.32949,-30.82881 239.13929,-64.291607 314.28573,-0.75991 75.14643,63.5317 29.56582,139.76981 -13.55107,164.0273 -43.11677,24.25761 -170.00339,50.8254 -227.90302,30.0332 -57.89975,-20.7922 -102.99997,-51.87249 -105.94419,-115.5122 -1.20164,-25.9739 7.78297,-46.95949 33.11255,-77.78839 z"
       id="path4040"
       inkscape:connector-curvature="0"
       sodipodi:nodetypes="zssssz" />
    <path
       style="color:#000000;fill:#ffffff;fill-opacity:1;fill-rule:nonzero;stroke:none;stroke-width:1px;marker:none;visibility:visible;display:inline;overflow:visible;enable-background:accumulate"
       d="M 823.77301,239.48782 C 785.71479,212.4529 744.2463,189.87236 700.10307,174.50087 c -22.3601,-7.49489 -46.23657,-13.70056 -69.94454,-10.06997 -12.68738,2.12087 -24.93627,10.17173 -29.24104,22.70339 -5.67942,14.54975 -2.49078,30.33049 -1.25519,45.35597 0.79223,13.0707 1.27006,27.36287 -5.78022,38.95292 -4.55152,6.386 -13.44736,7.95888 -20.48127,5.12253 -9.03021,-2.82113 -17.14762,-8.28646 -24.08298,-14.54582 -8.92681,-20.07843 -17.85361,-40.15685 -26.78042,-60.23528 16.79371,-34.08909 50.69881,-59.99635 88.80495,-64.31453 34.39039,-4.30376 68.78667,6.08648 99.41522,21.0759 41.76812,20.6339 78.6781,49.7534 113.01543,80.94184 z"
       id="path4048"
       inkscape:connector-curvature="0" />
    <flowRoot
       xml:space="preserve"
       id="flowRoot2987-4-9-3"
       style="font-style:normal;font-variant:normal;font-weight:normal;font-stretch:normal;font-size:12px;line-height:125%;font-family:Lavi;-inkscape-font-specification:Lavi;text-align:center;letter-spacing:0px;word-spacing:0px;text-anchor:middle;fill:#000000;fill-opacity:1;stroke:none"
       transform="translate(1.0507628,-158.11149)"><flowRegion
         id="flowRegion2989-5-4-5"><rect
           id="rect2991-7-9-6"
           width="602.40173"
           height="310.73996"
           x="120.55251"
           y="265.53046"
           style="font-style:normal;font-variant:normal;font-weight:normal;font-stretch:normal;font-family:Lavi;-inkscape-font-specification:Lavi;text-align:center;text-anchor:middle" /></flowRegion><flowPara
         style="font-style:normal;font-variant:normal;font-weight:normal;font-stretch:normal;font-size:45px;font-family:Neucha;-inkscape-font-specification:Neucha;text-align:center;text-anchor:middle"
         id="flowPara4693">Тако је,</flowPara><flowPara
         style="font-style:normal;font-variant:normal;font-weight:normal;font-stretch:normal;font-size:45px;font-family:Neucha;-inkscape-font-specification:Neucha;text-align:center;text-anchor:middle"
         id="flowPara3451">пажљиво прочитај</flowPara><flowPara
         style="font-style:normal;font-variant:normal;font-weight:normal;font-stretch:normal;font-size:45px;font-family:Neucha;-inkscape-font-specification:Neucha;text-align:center;text-anchor:middle"
         id="flowPara3455">шта пише на</flowPara><flowPara
         style="font-style:normal;font-variant:normal;font-weight:normal;font-stretch:normal;font-size:45px;font-family:Neucha;-inkscape-font-specification:Neucha;text-align:center;text-anchor:middle"
         id="flowPara3459">етикети</flowPara></flowRoot>    <path
       style="color:#000000;fill:#ffffff;fill-opacity:1;fill-rule:nonzero;stroke:none;stroke-width:1px;marker:none;visibility:visible;display:inline;overflow:visible;enable-background:accumulate"
       d="m 1722.5997,565.17087 c 5.6086,-113.47198 70.3257,-175.99246 348.843,-162.49266 110.1522,5.3391 321.0523,-31.56014 352.0639,143.97171 28.6991,162.44283 -249.6683,171.78902 -299.7405,177.70601 -50.0723,5.91721 -311.2749,-1.67584 -359.1434,-55.33411 -22.0771,-24.74725 -41.882,-68.78446 -42.023,-103.85095 z"
       id="path4546"
       inkscape:connector-curvature="0"
       sodipodi:nodetypes="cssssc" />
    <flowRoot
       xml:space="preserve"
       id="flowRoot2987-4-9-3-9"
       style="font-style:normal;font-variant:normal;font-weight:normal;font-stretch:normal;font-size:12px;line-height:125%;font-family:Lavi;-inkscape-font-specification:Lavi;text-align:center;letter-spacing:0px;word-spacing:0px;text-anchor:middle;fill:#000000;fill-opacity:1;stroke:none"
       transform="translate(1646.8866,184.86936)"><flowRegion
         id="flowRegion2989-5-4-5-8"><rect
           id="rect2991-7-9-6-2"
           width="602.40173"
           height="310.73996"
           x="120.55251"
           y="265.53046"
           style="font-style:normal;font-variant:normal;font-weight:normal;font-stretch:normal;font-family:Lavi;-inkscape-font-specification:Lavi;text-align:center;text-anchor:middle" /></flowRegion><flowPara
         style="font-style:normal;font-variant:normal;font-weight:normal;font-stretch:normal;font-size:48px;font-family:Neucha;-inkscape-font-specification:Neucha;text-align:center;text-anchor:middle"
         id="flowPara3080">... Нећу се двоумити да ли</flowPara><flowPara
         style="font-style:normal;font-variant:normal;font-weight:normal;font-stretch:normal;font-size:48px;font-family:Neucha;-inkscape-font-specification:Neucha;text-align:center;text-anchor:middle"
         id="flowPara3463">да ти сипам на главу или не уколико не напустиш Комону истог трена!</flowPara></flowRoot>    <flowRoot
       xml:space="preserve"
       id="flowRoot2987-4-9-3-6"
       style="font-style:normal;font-variant:normal;font-weight:normal;font-stretch:normal;font-size:12px;line-height:125%;font-family:Lavi;-inkscape-font-specification:Lavi;text-align:center;letter-spacing:0px;word-spacing:0px;text-anchor:middle;fill:#000000;fill-opacity:1;stroke:none"
       transform="translate(16.622623,1742.678)"><flowRegion
         id="flowRegion2989-5-4-5-5"><rect
           id="rect2991-7-9-6-21"
           width="532.40173"
           height="290.73993"
           x="120.55251"
           y="265.53046"
           style="font-style:normal;font-variant:normal;font-weight:normal;font-stretch:normal;font-family:Lavi;-inkscape-font-specification:Lavi;text-align:center;text-anchor:middle" /></flowRegion><flowPara
         style="font-style:normal;font-variant:normal;font-weight:normal;font-stretch:normal;font-size:48px;font-family:Neucha;-inkscape-font-specification:Neucha;text-align:center;text-anchor:middle"
         id="flowPara3030-8-8">Зато што је спасила наш град када је био у опасности</flowPara></flowRoot>    <flowRoot
       xml:space="preserve"
       id="flowRoot2987-4-9-3-6-3"
       style="font-style:normal;font-variant:normal;font-weight:normal;font-stretch:normal;font-size:12px;line-height:125%;font-family:Lavi;-inkscape-font-specification:Lavi;text-align:center;letter-spacing:0px;word-spacing:0px;text-anchor:middle;fill:#000000;fill-opacity:1;stroke:none"
       transform="translate(126.42216,1939.2185)"><flowRegion
         id="flowRegion2989-5-4-5-5-3"><rect
           id="rect2991-7-9-6-21-9"
           width="634.90173"
           height="343.23993"
           x="120.55251"
           y="265.53046"
           style="font-style:normal;font-variant:normal;font-weight:normal;font-stretch:normal;font-family:Lavi;-inkscape-font-specification:Lavi;text-align:center;text-anchor:middle" /></flowRegion><flowPara
         style="font-style:normal;font-variant:normal;font-weight:normal;font-stretch:normal;font-size:50px;font-family:Neucha;-inkscape-font-specification:Neucha;text-align:center;text-anchor:middle"
         id="flowPara3131">Награда за прво место</flowPara><flowPara
         style="font-style:normal;font-variant:normal;font-weight:normal;font-stretch:normal;font-size:50px;font-family:Neucha;-inkscape-font-specification:Neucha;text-align:center;text-anchor:middle"
         id="flowPara3467">иде Папричици и њеном</flowPara><flowPara
         style="font-style:normal;font-variant:normal;font-weight:normal;font-stretch:normal;font-size:50px;font-family:Neucha;-inkscape-font-specification:Neucha;text-align:center;text-anchor:middle"
         id="flowPara3465">напитку... ?!</flowPara></flowRoot>    <flowRoot
       xml:space="preserve"
       id="flowRoot2987-4-9-3-6-3-8"
       style="font-style:normal;font-variant:normal;font-weight:normal;font-stretch:normal;font-size:12px;line-height:125%;font-family:Lavi;-inkscape-font-specification:Lavi;text-align:center;letter-spacing:0px;word-spacing:0px;text-anchor:middle;fill:#000000;fill-opacity:1;stroke:none"
       transform="translate(1566.165,2596.9847)"><flowRegion
         id="flowRegion2989-5-4-5-5-3-0"><rect
           id="rect2991-7-9-6-21-9-8"
           width="774.90173"
           height="513.23993"
           x="120.55251"
           y="265.53046"
           style="font-style:normal;font-variant:normal;font-weight:normal;font-stretch:normal;font-family:Lavi;-inkscape-font-specification:Lavi;text-align:center;text-anchor:middle" /></flowRegion><flowPara
         style="font-style:normal;font-variant:normal;font-weight:normal;font-stretch:normal;font-size:48px;font-family:Neucha;-inkscape-font-specification:Neucha;text-align:center;text-anchor:middle"
         id="flowPara3217">... па... </flowPara><flowPara
         style="font-style:normal;font-variant:normal;font-weight:normal;font-stretch:normal;font-size:48px;font-family:Neucha;-inkscape-font-specification:Neucha;text-align:center;text-anchor:middle"
         id="flowPara4711">у ствари</flowPara><flowPara
         style="font-style:normal;font-variant:normal;font-weight:normal;font-stretch:normal;font-size:48px;font-family:Neucha;-inkscape-font-specification:Neucha;text-align:center;text-anchor:middle"
         id="flowPara4719">ово и није напитак;</flowPara><flowPara
         style="font-style:normal;font-variant:normal;font-weight:normal;font-stretch:normal;font-size:48px;font-family:Neucha;-inkscape-font-specification:Neucha;text-align:center;text-anchor:middle"
         id="flowPara4717">ово је узорак урина мог мачка</flowPara><flowPara
         style="font-style:normal;font-variant:normal;font-weight:normal;font-stretch:normal;font-size:48px;font-family:Neucha;-inkscape-font-specification:Neucha;text-align:center;text-anchor:middle"
         id="flowPara3491">са његове задње посете</flowPara><flowPara
         style="font-style:normal;font-variant:normal;font-weight:normal;font-stretch:normal;font-size:48px;font-family:Neucha;-inkscape-font-specification:Neucha;text-align:center;text-anchor:middle"
         id="flowPara3493">ветеринару</flowPara></flowRoot>    <flowRoot
       xml:space="preserve"
       id="flowRoot2987-4-9-3-6-3-8-7"
       style="font-style:normal;font-variant:normal;font-weight:normal;font-stretch:normal;font-size:12px;line-height:125%;font-family:Lavi;-inkscape-font-specification:Lavi;text-align:center;letter-spacing:0px;word-spacing:0px;text-anchor:middle;fill:#000000;fill-opacity:1;stroke:none"
       transform="translate(1221.4914,2533.2934)"><flowRegion
         id="flowRegion2989-5-4-5-5-3-0-6"><rect
           id="rect2991-7-9-6-21-9-8-0"
           width="774.90173"
           height="513.23993"
           x="120.55251"
           y="265.53046"
           style="font-style:normal;font-variant:normal;font-weight:normal;font-stretch:normal;font-family:Lavi;-inkscape-font-specification:Lavi;text-align:center;text-anchor:middle" /></flowRegion><flowPara
         style="font-size:50px;text-align:center;text-anchor:middle;-inkscape-font-specification:Neucha;font-family:Neucha;font-weight:normal;font-style:normal;font-stretch:normal;font-variant:normal"
         id="flowPara3217-6">... Хаха!</flowPara><flowPara
         style="font-size:50px;text-align:center;text-anchor:middle;-inkscape-font-specification:Neucha;font-family:Neucha;font-weight:normal;font-style:normal;font-stretch:normal;font-variant:normal"
         id="flowPara3272">    да ...</flowPara></flowRoot>    <path
       style="fill:#ffffff;stroke:none"
       d="m 1570.4499,2693.6646 c 11.865,21.9135 20.5535,35.7439 32.3532,38.6567 11.7996,2.9126 25.4122,7.0997 36.6448,0.9554 11.2326,-6.1443 31.3831,-9.7639 37.9644,-4.9033 6.5814,4.8606 30.224,23.3532 33.8418,42.9792 3.6176,19.6261 35.3335,-10.2628 35.3335,-10.2628 0,0 -17.5983,-33.4325 -22.6391,-38.3802 -5.0411,-4.9479 -16.7587,-23.0138 -47.4193,-17.4222 -30.6606,5.5916 -48.5046,17.6188 -63.3115,16.8043 -14.8067,-0.8144 -35.0743,-11.786 -42.7678,-28.4271 z"
       id="path3137"
       inkscape:connector-curvature="0" />
    <flowRoot
       xml:space="preserve"
       id="flowRoot2987-4-9-3-6-3-8-7-4"
       style="font-style:normal;font-variant:normal;font-weight:normal;font-stretch:normal;font-size:12px;line-height:125%;font-family:Lavi;-inkscape-font-specification:Lavi;text-align:center;letter-spacing:0px;word-spacing:0px;text-anchor:middle;fill:#000000;fill-opacity:1;stroke:none"
       transform="matrix(0.77121069,0,0,0.77121069,1821.7726,3068.6808)"><flowRegion
         id="flowRegion2989-5-4-5-5-3-0-6-7"><rect
           id="rect2991-7-9-6-21-9-8-0-4"
           width="774.90173"
           height="513.23993"
           x="120.55251"
           y="265.53046"
           style="font-style:normal;font-variant:normal;font-weight:normal;font-stretch:normal;font-family:Lavi;-inkscape-font-specification:Lavi;text-align:center;text-anchor:middle" /></flowRegion><flowPara
         style="font-style:normal;font-variant:normal;font-weight:normal;font-stretch:normal;font-size:48px;font-family:Neucha;-inkscape-font-specification:Neucha;text-align:center;text-anchor:middle"
         id="flowPara4723">... значи без</flowPara><flowPara
         style="font-style:normal;font-variant:normal;font-weight:normal;font-stretch:normal;font-size:48px;font-family:Neucha;-inkscape-font-specification:Neucha;text-align:center;text-anchor:middle"
         id="flowPara3497">демонстрације?..</flowPara></flowRoot>    <flowRoot
       xml:space="preserve"
       id="flowRoot2987-4-9-3-6-3-8-7-2"
       style="font-style:normal;font-variant:normal;font-weight:normal;font-stretch:normal;font-size:12px;line-height:125%;font-family:Lavi;-inkscape-font-specification:Lavi;text-align:center;letter-spacing:0px;word-spacing:0px;text-anchor:middle;fill:#000000;fill-opacity:1;stroke:none"
       transform="translate(1212.8395,3152.5698)"><flowRegion
         id="flowRegion2989-5-4-5-5-3-0-6-76"><rect
           id="rect2991-7-9-6-21-9-8-0-3"
           width="1041.0548"
           height="56.977448"
           x="120.55251"
           y="265.53046"
           style="font-style:normal;font-variant:normal;font-weight:normal;font-stretch:normal;font-family:Lavi;-inkscape-font-specification:Lavi;text-align:center;text-anchor:middle" /></flowRegion><flowPara
         style="font-style:normal;font-variant:normal;font-weight:normal;font-stretch:normal;font-size:45px;font-family:Neucha;-inkscape-font-specification:Neucha;text-align:center;text-anchor:middle"
         id="flowPara3272-6">Епизода 6: Такмичење у прављењу напитака</flowPara></flowRoot>    <flowRoot
       transform="matrix(0.90617713,0,-0.22078013,1.6225798,1900.3642,2973.4835)"
       style="font-style:normal;font-variant:normal;font-weight:normal;font-stretch:normal;font-size:12px;line-height:125%;font-family:Lavi;-inkscape-font-specification:Lavi;text-align:center;letter-spacing:0px;word-spacing:0px;text-anchor:middle;fill:#000000;fill-opacity:1;stroke:#000000;stroke-width:4.69999981;stroke-miterlimit:4;stroke-dasharray:none;stroke-opacity:1"
       id="flowRoot4212-3-7-8-6"
       xml:space="preserve"><flowRegion
         id="flowRegion4214-6-7-8-3"><rect
           style="font-style:normal;font-variant:normal;font-weight:normal;font-stretch:normal;font-family:Lavi;-inkscape-font-specification:Lavi;text-align:center;text-anchor:middle;stroke:#000000;stroke-width:4.69999981;stroke-miterlimit:4;stroke-dasharray:none;stroke-opacity:1"
           y="265.53046"
           x="120.55251"
           height="355.03918"
           width="798.1947"
           id="rect4216-4-0-26-5" /></flowRegion><flowPara
         style="font-size:48px;text-align:center;letter-spacing:5.20896292px;text-anchor:middle;stroke:#000000;stroke-width:4.69999981;stroke-miterlimit:4;stroke-dasharray:none;stroke-opacity:1;-inkscape-font-specification:Neucha;font-family:Neucha;font-weight:normal;font-style:normal;font-stretch:normal;font-variant:normal"
         id="flowPara4358-7-1">КРАЈ</flowPara></flowRoot>    <g
       transform="matrix(0.66946674,-0.0365707,0.20636409,1.4040624,586.0213,2760.2475)"
       style="font-style:normal;font-variant:normal;font-weight:normal;font-stretch:normal;font-size:12px;line-height:125%;font-family:Lavi;-inkscape-font-specification:Lavi;text-align:center;letter-spacing:0px;word-spacing:0px;text-anchor:middle;opacity:0.3534884;fill:#000000;fill-opacity:1;stroke:#000000;stroke-width:4.69999981;stroke-miterlimit:4;stroke-dasharray:none;stroke-opacity:1;filter:url(#filter3843)"
       id="flowRoot4212-3-7-8-6-1">
      <path
         d="m 421.85994,278.89407 0.55178,2.25729 q -2.45795,0.45146 -5.61816,0.45146 -4.71524,0 -6.01945,0.15049 -0.75243,5.76864 -1.95633,12.23956 1.45471,-0.30098 2.80908,-0.30098 4.41427,0 7.82529,3.51135 3.41103,3.46119 3.41103,8.02594 0,4.31394 -3.36086,7.37383 -3.36087,3.05989 -8.27675,3.05989 -4.7654,0 -9.28,-3.16021 0.0502,-0.0502 0.75244,-1.60519 0.75243,-1.55503 1.4547,-1.55503 0.35113,0 0.65211,0.25081 3.46118,2.60843 6.52107,2.60843 3.11005,0 5.11654,-2.45794 2.00648,-2.45794 2.00648,-5.51783 0,-2.85924 -1.90616,-4.86573 -1.856,-2.00648 -5.46767,-2.00648 -1.30422,0 -2.45794,0.20065 -1.00325,-0.55179 -2.20714,-1.10357 -1.20389,-0.55178 -2.00648,-0.95308 1.15373,-4.51459 1.90616,-9.02918 0.75243,-4.51459 2.00648,-8.0761 1.75568,0.15048 6.47092,0.15048 4.71524,0 7.07286,0.35114 z"
         style="font-style:normal;font-variant:normal;font-weight:normal;font-stretch:normal;font-size:51.36600876px;font-family:Neucha;-inkscape-font-specification:Neucha;text-align:center;letter-spacing:5.20896292px;text-anchor:middle;stroke:#000000;stroke-width:4.69999981;stroke-miterlimit:4;stroke-dasharray:none;stroke-opacity:1"
         id="path3470"
         inkscape:connector-curvature="0" />
      <path
         d="m 430.71464,298.67924 q 0.0502,-10.83502 2.80908,-15.60042 2.75892,-4.81557 8.37708,-5.11654 2.45794,0 4.3641,1.35438 1.90616,1.35438 3.00973,3.46118 1.15373,2.05665 1.90616,4.96605 0.75243,2.85925 1.00324,5.46768 0.30097,2.55826 0.4013,5.46767 0,3.9628 -1.20389,8.12626 -1.15373,4.11329 -3.61168,7.22334 -2.40778,3.05989 -5.41751,3.05989 -11.63761,0 -11.63761,-18.40949 z m 10.48389,-16.85448 q -1.2039,0.25082 -2.15698,0.8026 -0.95308,0.55178 -1.60518,1.25405 -0.60195,0.70227 -1.05341,1.856 -0.45146,1.15373 -0.70227,2.15697 -0.20065,0.95308 -0.40129,2.50811 -0.15049,1.55502 -0.20065,2.70875 -0.0502,1.10357 -0.15049,2.95957 -0.0502,1.80583 -0.15049,2.95956 0,2.30746 0.25082,4.41427 0.25081,2.05664 0.90291,4.31394 0.70227,2.2573 2.15697,3.66183 1.45471,1.40454 3.51135,1.60519 3.11005,0 5.11654,-4.31394 2.05665,-4.31394 2.05665,-8.72821 0,-17.95804 -7.57448,-18.15869 z"
         style="font-style:normal;font-variant:normal;font-weight:normal;font-stretch:normal;font-size:51.36600876px;font-family:Neucha;-inkscape-font-specification:Neucha;text-align:center;letter-spacing:5.20896292px;text-anchor:middle;stroke:#000000;stroke-width:4.69999981;stroke-miterlimit:4;stroke-dasharray:none;stroke-opacity:1"
         id="path3472"
         inkscape:connector-curvature="0" />
      <path
         d="m 458.23117,321.60434 -0.10032,-1.60519 q 3.61167,-1.25405 3.61167,-3.41103 0,-0.35113 -0.20065,-1.15372 -0.70227,0.10032 -0.95308,0.10032 -0.95308,0 -1.50486,-1.25405 -0.55179,-1.30422 -0.55179,-2.50811 0,-1.10357 0.45146,-1.75567 0.45146,-0.70227 1.30422,-0.70227 1.90616,0 3.05989,2.20713 1.15373,2.20713 1.15373,4.41427 0,2.35762 -1.55503,3.91264 -1.55502,1.60519 -4.71524,1.75568 z"
         style="font-style:normal;font-variant:normal;font-weight:normal;font-stretch:normal;font-size:51.36600876px;font-family:Neucha;-inkscape-font-specification:Neucha;text-align:center;letter-spacing:5.20896292px;text-anchor:middle;stroke:#000000;stroke-width:4.69999981;stroke-miterlimit:4;stroke-dasharray:none;stroke-opacity:1"
         id="path3474"
         inkscape:connector-curvature="0" />
      <path
         d="m 472.50365,299.49232 q 0.0502,-10.83502 2.80908,-15.60042 2.75892,-4.81557 8.37707,-5.11654 2.45795,0 4.36411,1.35438 1.90616,1.35438 3.00973,3.46118 1.15372,2.05665 1.90616,4.96605 0.75243,2.85925 1.00324,5.46768 0.30097,2.55826 0.4013,5.46767 0,3.9628 -1.2039,8.12626 -1.15372,4.11329 -3.61167,7.22334 -2.40778,3.05989 -5.41751,3.05989 -11.63761,0 -11.63761,-18.40949 z m 10.48388,-16.85448 q -1.20389,0.25082 -2.15697,0.8026 -0.95308,0.55178 -1.60518,1.25405 -0.60195,0.70227 -1.05341,1.856 -0.45146,1.15373 -0.70227,2.15697 -0.20065,0.95308 -0.4013,2.50811 -0.15048,1.55502 -0.20064,2.70875 -0.0502,1.10357 -0.15049,2.95957 -0.0502,1.80583 -0.15049,2.95956 0,2.30746 0.25081,4.41427 0.25081,2.05664 0.90292,4.31394 0.70227,2.2573 2.15697,3.66183 1.4547,1.40454 3.51135,1.60519 3.11005,0 5.11654,-4.31394 2.05664,-4.31394 2.05664,-8.72821 0,-17.95804 -7.57448,-18.15869 z"
         style="font-style:normal;font-variant:normal;font-weight:normal;font-stretch:normal;font-size:51.36600876px;font-family:Neucha;-inkscape-font-specification:Neucha;text-align:center;letter-spacing:5.20896292px;text-anchor:middle;stroke:#000000;stroke-width:4.69999981;stroke-miterlimit:4;stroke-dasharray:none;stroke-opacity:1"
         id="path3476"
         inkscape:connector-curvature="0" />
      <path
         d="m 503.64052,299.6051 q 0.0502,-10.83502 2.80908,-15.60042 2.75892,-4.81557 8.37707,-5.11654 2.45795,0 4.36411,1.35438 1.90616,1.35438 3.00973,3.46118 1.15372,2.05665 1.90616,4.96605 0.75243,2.85925 1.00324,5.46768 0.30097,2.55826 0.4013,5.46767 0,3.9628 -1.2039,8.12626 -1.15372,4.11329 -3.61167,7.22334 -2.40778,3.05989 -5.41751,3.05989 -11.63761,0 -11.63761,-18.40949 z m 10.48388,-16.85448 q -1.20389,0.25082 -2.15697,0.8026 -0.95308,0.55178 -1.60518,1.25405 -0.60195,0.70227 -1.05341,1.856 -0.45146,1.15373 -0.70227,2.15697 -0.20065,0.95308 -0.4013,2.50811 -0.15048,1.55502 -0.20064,2.70875 -0.0502,1.10357 -0.15049,2.95957 -0.0502,1.80583 -0.15049,2.95956 0,2.30746 0.25081,4.41427 0.25081,2.05664 0.90292,4.31394 0.70227,2.2573 2.15697,3.66183 1.4547,1.40454 3.51135,1.60519 3.11005,0 5.11654,-4.31394 2.05664,-4.31394 2.05664,-8.72821 0,-17.95804 -7.57448,-18.15869 z"
         style="font-style:normal;font-variant:normal;font-weight:normal;font-stretch:normal;font-size:51.36600876px;font-family:Neucha;-inkscape-font-specification:Neucha;text-align:center;letter-spacing:5.20896292px;text-anchor:middle;stroke:#000000;stroke-width:4.69999981;stroke-miterlimit:4;stroke-dasharray:none;stroke-opacity:1"
         id="path3478"
         inkscape:connector-curvature="0" />
      <path
         d="m 535.06711,299.18077 q 0.0502,-10.83502 2.80908,-15.60042 2.75892,-4.81557 8.37707,-5.11654 2.45795,0 4.36411,1.35438 1.90616,1.35438 3.00973,3.46118 1.15372,2.05665 1.90616,4.96605 0.75243,2.85925 1.00324,5.46768 0.30097,2.55826 0.40129,5.46767 0,3.9628 -1.20389,8.12626 -1.15372,4.11329 -3.61167,7.22334 -2.40778,3.05989 -5.41751,3.05989 -11.63761,0 -11.63761,-18.40949 z m 10.48388,-16.85448 q -1.20389,0.25082 -2.15697,0.8026 -0.95308,0.55178 -1.60518,1.25405 -0.60195,0.70227 -1.05341,1.856 -0.45146,1.15373 -0.70227,2.15697 -0.20065,0.95308 -0.4013,2.50811 -0.15048,1.55502 -0.20064,2.70875 -0.0502,1.10357 -0.15049,2.95957 -0.0502,1.80583 -0.15049,2.95956 0,2.30746 0.25081,4.41427 0.25081,2.05664 0.90292,4.31394 0.70227,2.2573 2.15697,3.66183 1.4547,1.40454 3.51135,1.60519 3.11005,0 5.11654,-4.31394 2.05664,-4.31394 2.05664,-8.72821 0,-17.95804 -7.57448,-18.15869 z"
         style="font-style:normal;font-variant:normal;font-weight:normal;font-stretch:normal;font-size:51.36600876px;font-family:Neucha;-inkscape-font-specification:Neucha;text-align:center;letter-spacing:5.20896292px;text-anchor:middle;stroke:#000000;stroke-width:4.69999981;stroke-miterlimit:4;stroke-dasharray:none;stroke-opacity:1"
         id="path3480"
         inkscape:connector-curvature="0" />
      <path
         d="m 604.56218,313.17187 0.15049,2.20713 q -1.20389,0.30097 -1.70552,0.30097 -1.90616,0 -3.46118,-1.25405 -1.55503,-1.25405 -2.55827,-3.05989 -1.00324,-1.80583 -1.90616,-3.61167 -0.85276,-1.80584 -1.856,-3.05989 -1.00324,-1.25405 -2.05665,-1.25405 -0.40129,0 -0.75243,0.15048 0.20065,3.00973 0.70227,9.73146 -0.45146,1.55502 -1.75567,1.55502 -0.90292,0 -1.75568,-0.70227 -0.80259,-0.75243 -1.00324,-1.80584 0.20065,-8.42723 0.20065,-15.85122 0,-5.46768 0.45146,-8.67805 l 2.25729,0.80259 q 0.4013,1.95633 0.45146,5.61816 0.0502,3.61167 0.10033,4.46443 1.50486,-0.25081 2.60843,-1.55503 1.15373,-1.30421 1.856,-2.95956 0.75243,-1.65535 1.55502,-3.26054 0.8026,-1.60519 2.05665,-2.70875 1.30421,-1.10357 3.05989,-1.10357 0.90292,0 2.80908,0.60194 l -0.20065,1.70552 q -0.30097,-0.0502 -0.8026,-0.0502 -2.00648,0 -3.51134,1.70552 -1.45471,1.65535 -2.20714,3.71199 -0.70227,2.00649 -1.80583,3.86249 -1.10357,1.85599 -2.40778,2.15697 1.85599,0.45146 3.16021,2.5081 1.35438,2.05665 2.00648,4.26378 0.70227,2.15697 2.00649,3.96281 1.30421,1.75568 3.21037,1.75568 0.50162,0 1.10357,-0.15049 z"
         style="font-style:normal;font-variant:normal;font-weight:normal;font-stretch:normal;font-size:51.36600876px;font-family:Neucha;-inkscape-font-specification:Neucha;text-align:center;letter-spacing:5.20896292px;text-anchor:middle;stroke:#000000;stroke-width:4.69999981;stroke-miterlimit:4;stroke-dasharray:none;stroke-opacity:1"
         id="path3482"
         inkscape:connector-curvature="0" />
      <path
         d="m 612.49121,302.79099 q 0,-2.00648 0.40129,-4.46443 0.45146,-2.45794 1.30422,-5.1667 0.85276,-2.70875 2.55827,-4.51459 1.70551,-1.80583 3.9628,-1.80583 4.81557,0 7.72497,4.3641 2.9094,4.31394 2.9094,9.63113 0,2.25729 -0.50162,4.51459 -0.45146,2.20713 -1.4547,4.3641 -1.00324,2.15697 -2.9094,3.61168 -1.856,1.40453 -4.36411,1.60518 -4.61491,-0.60194 -7.12302,-3.91264 -2.5081,-3.36086 -2.5081,-8.22659 z m 8.52756,-13.34312 q -1.75568,0.20065 -2.95957,3.21037 -1.20389,3.00973 -1.55502,5.86897 -0.35114,2.80908 -0.35114,4.96605 0,2.80908 1.70551,5.21686 1.75568,2.35762 3.91265,2.35762 1.55502,0 2.80908,-1.20389 1.25405,-1.20389 1.95632,-2.95957 0.75243,-1.80583 1.10357,-3.61167 0.40129,-1.80583 0.40129,-3.21037 0,-4.1133 -1.85599,-7.17319 -1.856,-3.05989 -5.1667,-3.46118 z"
         style="font-style:normal;font-variant:normal;font-weight:normal;font-stretch:normal;font-size:51.36600876px;font-family:Neucha;-inkscape-font-specification:Neucha;text-align:center;letter-spacing:5.20896292px;text-anchor:middle;stroke:#000000;stroke-width:4.69999981;stroke-miterlimit:4;stroke-dasharray:none;stroke-opacity:1"
         id="path3484"
         inkscape:connector-curvature="0" />
    </g>
    <flowRoot
       xml:space="preserve"
       id="flowRoot2987-4-9-3-6-3-8-7-2-7"
       style="font-size:12px;font-style:normal;font-variant:normal;font-weight:normal;font-stretch:normal;text-align:center;line-height:125%;letter-spacing:0px;word-spacing:0px;text-anchor:middle;opacity:0.75;fill:#000000;fill-opacity:1;stroke:none;font-family:Lavi;-inkscape-font-specification:Lavi"
       transform="matrix(0.78567639,0,0,0.78567639,300.04334,3197.9723)"><flowRegion
         id="flowRegion2989-5-4-5-5-3-0-6-76-8"><rect
           id="rect2991-7-9-6-21-9-8-0-3-1"
           width="1041.0548"
           height="56.977448"
           x="120.55251"
           y="265.53046"
           style="font-style:normal;font-variant:normal;font-weight:normal;font-stretch:normal;text-align:center;text-anchor:middle;font-family:Lavi;-inkscape-font-specification:Lavi" /></flowRegion><flowPara
         style="font-size:48px;text-align:center;text-anchor:middle"
         id="flowPara3272-6-3"><flowSpan
           style="fill:#1b1b1b;fill-opacity:1"
           id="flowSpan3856"><flowSpan
             style="fill:#2d2d2d;fill-opacity:1"
             id="flowSpan3858"><flowSpan
               style="fill:#2f2f2f;fill-opacity:1"
               id="flowSpan3860"><flowSpan
                 style="fill:#3e3e3e;fill-opacity:1"
                 id="flowSpan3862"><flowSpan
                   style="fill:#3f3f3f;fill-opacity:1"
                   id="flowSpan3864"><flowSpan
                     style="fill:#474747;fill-opacity:1"
                     id="flowSpan3866"><flowSpan
                       style="fill:#4d4d4d;fill-opacity:1"
                       id="flowSpan3868"><flowSpan
                         style="fill:#4e4e4e;fill-opacity:1"
                         id="flowSpan3870"><flowSpan
                           style="fill:#585858;fill-opacity:1"
                           id="flowSpan3872"><flowSpan
                             style="fill:#595959;fill-opacity:1"
                             id="flowSpan3874"><flowSpan
                               style="fill:#6b6b6b;fill-opacity:1"
                               id="flowSpan3876"><flowSpan
                                 style="fill:#777777;fill-opacity:1"
                                 id="flowSpan3878"><flowSpan
                                   style="fill:#797979;fill-opacity:1"
                                   id="flowSpan3880"><flowSpan
                                   style="fill:#a0a0a0;fill-opacity:1"
                                   id="flowSpan3882"><flowSpan
                                   style="fill:#c7c7c7;fill-opacity:1"
                                   id="flowSpan3884"><flowSpan
                                   style="fill:#dddddd;fill-opacity:1"
                                   id="flowSpan3886"><flowSpan
                                   style="fill:#dedede;fill-opacity:1"
                                   id="flowSpan3888"><flowSpan
                                   style="fill:#fafafa;fill-opacity:1"
                                   id="flowSpan3890"><flowSpan
                                   style="fill:#ffffff;fill-opacity:1"
                                   id="flowSpan3892" /></flowSpan></flowSpan></flowSpan></flowSpan></flowSpan></flowSpan></flowSpan></flowSpan></flowSpan></flowSpan></flowSpan></flowSpan></flowSpan></flowSpan></flowSpan></flowSpan></flowSpan></flowSpan></flowPara></flowRoot>    <flowRoot
       xml:space="preserve"
       id="flowRoot2987-4-9-3-6-3-8-7-2-7-2"
       style="font-style:normal;font-variant:normal;font-weight:normal;font-stretch:normal;font-size:12px;line-height:125%;font-family:Lavi;-inkscape-font-specification:Lavi;text-align:center;letter-spacing:0px;word-spacing:0px;text-anchor:middle;opacity:0.85;fill:#000000;fill-opacity:1;stroke:none"
       transform="matrix(0.66233381,0,0,0.66233381,381.19429,3182.1491)"><flowRegion
         id="flowRegion2989-5-4-5-5-3-0-6-76-8-1"><rect
           id="rect2991-7-9-6-21-9-8-0-3-1-7"
           width="2350.8157"
           height="72.357925"
           x="120.55251"
           y="265.53046"
           style="font-style:normal;font-variant:normal;font-weight:normal;font-stretch:normal;font-family:Lavi;-inkscape-font-specification:Lavi;text-align:center;text-anchor:middle" /></flowRegion><flowPara
         style="font-style:normal;font-variant:normal;font-weight:normal;font-stretch:normal;font-size:52.84344461px;font-family:Neucha;-inkscape-font-specification:Neucha;text-align:center;text-anchor:middle;fill:#ffffff;fill-opacity:1"
         id="flowPara3272-6-3-1">Март 2015 - Графика and прича David Revoy - Превод Милена Петровић </flowPara></flowRoot>  </g>
</svg>
